<?xml version="1.0" encoding="UTF-8" standalone="no"?>
<!DOCTYPE svg PUBLIC "-//W3C//DTD SVG 1.1//EN"
 "http://www.w3.org/Graphics/SVG/1.1/DTD/svg11.dtd">
<!-- Generated by graphviz version 2.36.0 (20140111.2315)
 -->
<!-- Title: actor.Turtle Pages: 1 -->
<svg width="288pt" height="174pt"
 viewBox="0.00 0.00 288.00 174.00" xmlns="http://www.w3.org/2000/svg" xmlns:xlink="http://www.w3.org/1999/xlink">
<g id="graph0" class="graph" transform="scale(1 1) rotate(0) translate(4 170)">
<title>actor.Turtle</title>
<polygon fill="white" stroke="none" points="-4,4 -4,-170 284,-170 284,4 -4,4"/>
<!-- Node1 -->
<g id="node1" class="node"><title>Node1</title>
<polygon fill="#bfbfbf" stroke="black" points="100.5,-0.5 100.5,-19.5 169.5,-19.5 169.5,-0.5 100.5,-0.5"/>
<text text-anchor="middle" x="135" y="-7.5" font-family="Helvetica,sans-Serif" font-size="10.00">actor.Turtle</text>
</g>
<!-- Node2 -->
<g id="node2" class="node"><title>Node2</title>
<polygon fill="white" stroke="#bfbfbf" points="-0.5,-78.5 -0.5,-97.5 70.5,-97.5 70.5,-78.5 -0.5,-78.5"/>
<text text-anchor="middle" x="35" y="-85.5" font-family="Helvetica,sans-Serif" font-size="10.00">Observable</text>
</g>
<!-- Node2&#45;&gt;Node1 -->
<g id="edge1" class="edge"><title>Node2&#45;&gt;Node1</title>
<path fill="none" stroke="midnightblue" d="M54.5388,-72.1505C75.1317,-56.4999 106.863,-32.3841 123.663,-19.6165"/>
<polygon fill="midnightblue" stroke="midnightblue" points="52.3151,-69.4444 46.4713,-78.2818 56.5507,-75.0175 52.3151,-69.4444"/>
</g>
<!-- Node3 -->
<g id="node3" class="node"><title>Node3</title>
<g id="a_node3"><a xlink:href="../../da/d54/classproperties_1_1_position.html" target="_top" xlink:title="properties.Position">
<polygon fill="white" stroke="black" points="89,-78.5 89,-97.5 195,-97.5 195,-78.5 89,-78.5"/>
<text text-anchor="middle" x="142" y="-85.5" font-family="Helvetica,sans-Serif" font-size="10.00">properties.Position</text>
</a>
</g>
</g>
<!-- Node3&#45;&gt;Node1 -->
<g id="edge2" class="edge"><title>Node3&#45;&gt;Node1</title>
<path fill="none" stroke="#9a32cd" stroke-dasharray="5,2" d="M137.323,-68.1994C136.788,-65.4636 136.321,-62.6698 136,-60 134.316,-45.9763 134.395,-29.5365 134.659,-19.7105"/>
<polygon fill="#9a32cd" stroke="#9a32cd" points="133.936,-69.0915 139.55,-78.0769 140.765,-67.5519 133.936,-69.0915"/>
<text text-anchor="middle" x="182" y="-52" font-family="Helvetica,sans-Serif" font-size="10.00"> myPosition</text>
<text text-anchor="middle" x="182" y="-41" font-family="Helvetica,sans-Serif" font-size="10.00">DEFAULT_POSITION</text>
</g>
<!-- Node4 -->
<g id="node4" class="node"><title>Node4</title>
<polygon fill="white" stroke="#bfbfbf" points="115,-146.5 115,-165.5 169,-165.5 169,-146.5 115,-146.5"/>
<text text-anchor="middle" x="142" y="-153.5" font-family="Helvetica,sans-Serif" font-size="10.00">Point2D</text>
</g>
<!-- Node4&#45;&gt;Node3 -->
<g id="edge3" class="edge"><title>Node4&#45;&gt;Node3</title>
<path fill="none" stroke="#9a32cd" stroke-dasharray="5,2" d="M142,-136.041C142,-123.472 142,-107.563 142,-97.8411"/>
<polygon fill="#9a32cd" stroke="#9a32cd" points="138.5,-136.372 142,-146.372 145.5,-136.372 138.5,-136.372"/>
<text text-anchor="middle" x="163.5" y="-119.5" font-family="Helvetica,sans-Serif" font-size="10.00"> myPoint</text>
</g>
<!-- Node5 -->
<g id="node5" class="node"><title>Node5</title>
<g id="a_node5"><a xlink:href="../../da/d85/classactor_1_1_pen.html" target="_top" xlink:title="actor.Pen">
<polygon fill="white" stroke="black" points="219,-78.5 219,-97.5 281,-97.5 281,-78.5 219,-78.5"/>
<text text-anchor="middle" x="250" y="-85.5" font-family="Helvetica,sans-Serif" font-size="10.00">actor.Pen</text>
</a>
</g>
</g>
<!-- Node5&#45;&gt;Node1 -->
<g id="edge4" class="edge"><title>Node5&#45;&gt;Node1</title>
<path fill="none" stroke="#9a32cd" stroke-dasharray="5,2" d="M245.842,-68.6483C242.605,-58.3002 237.088,-45.9013 228,-38 211.887,-23.9905 188.873,-17.2361 169.77,-13.9862"/>
<polygon fill="#9a32cd" stroke="#9a32cd" points="242.487,-69.653 248.443,-78.4153 249.252,-67.8514 242.487,-69.653"/>
<text text-anchor="middle" x="261.5" y="-46.5" font-family="Helvetica,sans-Serif" font-size="10.00"> myPen</text>
</g>
</g>
</svg>
