<?xml version="1.0" encoding="UTF-8" standalone="no"?>
<!DOCTYPE svg PUBLIC "-//W3C//DTD SVG 1.1//EN"
 "http://www.w3.org/Graphics/SVG/1.1/DTD/svg11.dtd">
<!-- Generated by graphviz version 2.36.0 (20140111.2315)
 -->
<!-- Title: mainApplication.Controller.clear Pages: 1 -->
<svg width="780pt" height="136pt"
 viewBox="0.00 0.00 780.00 136.00" xmlns="http://www.w3.org/2000/svg" xmlns:xlink="http://www.w3.org/1999/xlink">
<g id="graph0" class="graph" transform="scale(1 1) rotate(0) translate(4 132)">
<title>mainApplication.Controller.clear</title>
<polygon fill="white" stroke="none" points="-4,4 -4,-132 776,-132 776,4 -4,4"/>
<!-- Node1 -->
<g id="node1" class="node"><title>Node1</title>
<polygon fill="#bfbfbf" stroke="black" points="0,-54.5 0,-73.5 168,-73.5 168,-54.5 0,-54.5"/>
<text text-anchor="middle" x="84" y="-61.5" font-family="Helvetica,sans-Serif" font-size="10.00">mainApplication.Controller.clear</text>
</g>
<!-- Node2 -->
<g id="node2" class="node"><title>Node2</title>
<g id="a_node2"><a xlink:href="../../de/d19/classworkspace_1_1_workspace.html#a645b162e34e52069e1a18fa5c57daa41" target="_top" xlink:title="workspace.Workspace.clear">
<polygon fill="white" stroke="black" points="204.5,-54.5 204.5,-73.5 351.5,-73.5 351.5,-54.5 204.5,-54.5"/>
<text text-anchor="middle" x="278" y="-61.5" font-family="Helvetica,sans-Serif" font-size="10.00">workspace.Workspace.clear</text>
</a>
</g>
</g>
<!-- Node1&#45;&gt;Node2 -->
<g id="edge1" class="edge"><title>Node1&#45;&gt;Node2</title>
<path fill="none" stroke="midnightblue" d="M168.097,-64C176.766,-64 185.577,-64 194.242,-64"/>
<polygon fill="midnightblue" stroke="midnightblue" points="194.329,-67.5001 204.329,-64 194.329,-60.5001 194.329,-67.5001"/>
</g>
<!-- Node3 -->
<g id="node3" class="node"><title>Node3</title>
<g id="a_node3"><a xlink:href="../../de/d1c/classproperties_1_1_stage_properties.html#a872541d70d9ae0b1a8d1c8cb909c34f8" target="_top" xlink:title="properties.StageProperties.set\lClear">
<polygon fill="white" stroke="black" points="406,-98 406,-128 570,-128 570,-98 406,-98"/>
<text text-anchor="start" x="414" y="-116" font-family="Helvetica,sans-Serif" font-size="10.00">properties.StageProperties.set</text>
<text text-anchor="middle" x="488" y="-105" font-family="Helvetica,sans-Serif" font-size="10.00">Clear</text>
</a>
</g>
</g>
<!-- Node2&#45;&gt;Node3 -->
<g id="edge2" class="edge"><title>Node2&#45;&gt;Node3</title>
<path fill="none" stroke="midnightblue" d="M319.598,-73.564C346.162,-79.8218 381.649,-88.1817 413.112,-95.5937"/>
<polygon fill="midnightblue" stroke="midnightblue" points="412.633,-99.0767 423.17,-97.963 414.239,-92.2632 412.633,-99.0767"/>
</g>
<!-- Node4 -->
<g id="node4" class="node"><title>Node4</title>
<g id="a_node4"><a xlink:href="../../de/d19/classworkspace_1_1_workspace.html#a197988cb471cd86b0a164f735a366be7" target="_top" xlink:title="workspace.Workspace.setChangedand\lNotify">
<polygon fill="white" stroke="black" points="388,-49 388,-79 588,-79 588,-49 388,-49"/>
<text text-anchor="start" x="396" y="-67" font-family="Helvetica,sans-Serif" font-size="10.00">workspace.Workspace.setChangedand</text>
<text text-anchor="middle" x="488" y="-56" font-family="Helvetica,sans-Serif" font-size="10.00">Notify</text>
</a>
</g>
</g>
<!-- Node2&#45;&gt;Node4 -->
<g id="edge3" class="edge"><title>Node2&#45;&gt;Node4</title>
<path fill="none" stroke="midnightblue" d="M351.748,-64C360.26,-64 369.08,-64 377.948,-64"/>
<polygon fill="midnightblue" stroke="midnightblue" points="377.969,-67.5001 387.969,-64 377.968,-60.5001 377.969,-67.5001"/>
</g>
<!-- Node5 -->
<g id="node5" class="node"><title>Node5</title>
<g id="a_node5"><a xlink:href="../../de/d19/classworkspace_1_1_workspace.html#aecaf73d3c2b2008aac032adc4a4f759f" target="_top" xlink:title="workspace.Workspace.create\lTurtle">
<polygon fill="white" stroke="black" points="410.5,-0 410.5,-30 565.5,-30 565.5,-0 410.5,-0"/>
<text text-anchor="start" x="418.5" y="-18" font-family="Helvetica,sans-Serif" font-size="10.00">workspace.Workspace.create</text>
<text text-anchor="middle" x="488" y="-7" font-family="Helvetica,sans-Serif" font-size="10.00">Turtle</text>
</a>
</g>
</g>
<!-- Node2&#45;&gt;Node5 -->
<g id="edge4" class="edge"><title>Node2&#45;&gt;Node5</title>
<path fill="none" stroke="midnightblue" d="M319.598,-54.436C346.162,-48.1782 381.649,-39.8183 413.112,-32.4063"/>
<polygon fill="midnightblue" stroke="midnightblue" points="414.239,-35.7368 423.17,-30.037 412.633,-28.9233 414.239,-35.7368"/>
</g>
<!-- Node6 -->
<g id="node6" class="node"><title>Node6</title>
<g id="a_node6"><a xlink:href="../../d4/d4a/classactor_1_1_turtle.html#aef4e04d5061408a3d5c35eb27cc7f96f" target="_top" xlink:title="actor.Turtle.setChangedand\lNotify">
<polygon fill="white" stroke="black" points="624,-0 624,-30 772,-30 772,-0 624,-0"/>
<text text-anchor="start" x="632" y="-18" font-family="Helvetica,sans-Serif" font-size="10.00">actor.Turtle.setChangedand</text>
<text text-anchor="middle" x="698" y="-7" font-family="Helvetica,sans-Serif" font-size="10.00">Notify</text>
</a>
</g>
</g>
<!-- Node5&#45;&gt;Node6 -->
<g id="edge5" class="edge"><title>Node5&#45;&gt;Node6</title>
<path fill="none" stroke="midnightblue" d="M565.565,-15C581.149,-15 597.617,-15 613.43,-15"/>
<polygon fill="midnightblue" stroke="midnightblue" points="613.71,-18.5001 623.71,-15 613.71,-11.5001 613.71,-18.5001"/>
</g>
</g>
</svg>
