<?xml version="1.0" encoding="UTF-8" standalone="no"?>
<!DOCTYPE svg PUBLIC "-//W3C//DTD SVG 1.1//EN"
 "http://www.w3.org/Graphics/SVG/1.1/DTD/svg11.dtd">
<!-- Generated by graphviz version 2.36.0 (20140111.2315)
 -->
<!-- Title: mainApplication.Controller.parseAndEvaluate Pages: 1 -->
<svg width="1172pt" height="229pt"
 viewBox="0.00 0.00 1172.00 229.00" xmlns="http://www.w3.org/2000/svg" xmlns:xlink="http://www.w3.org/1999/xlink">
<g id="graph0" class="graph" transform="scale(1 1) rotate(0) translate(4 225)">
<title>mainApplication.Controller.parseAndEvaluate</title>
<polygon fill="white" stroke="none" points="-4,4 -4,-225 1168,-225 1168,4 -4,4"/>
<!-- Node1 -->
<g id="node1" class="node"><title>Node1</title>
<polygon fill="#bfbfbf" stroke="black" points="0,-109 0,-139 172,-139 172,-109 0,-109"/>
<text text-anchor="start" x="8" y="-127" font-family="Helvetica,sans-Serif" font-size="10.00">mainApplication.Controller.parse</text>
<text text-anchor="middle" x="86" y="-116" font-family="Helvetica,sans-Serif" font-size="10.00">AndEvaluate</text>
</g>
<!-- Node2 -->
<g id="node2" class="node"><title>Node2</title>
<g id="a_node2"><a xlink:href="../../de/d19/classworkspace_1_1_workspace.html#a3a9437dc7cd23ecdf0d20e29e577ae9b" target="_top" xlink:title="workspace.Workspace.evaluate">
<polygon fill="white" stroke="black" points="208.5,-133.5 208.5,-152.5 373.5,-152.5 373.5,-133.5 208.5,-133.5"/>
<text text-anchor="middle" x="291" y="-140.5" font-family="Helvetica,sans-Serif" font-size="10.00">workspace.Workspace.evaluate</text>
</a>
</g>
</g>
<!-- Node1&#45;&gt;Node2 -->
<g id="edge1" class="edge"><title>Node1&#45;&gt;Node2</title>
<path fill="none" stroke="midnightblue" d="M172.208,-131.975C180.786,-132.778 189.524,-133.596 198.168,-134.405"/>
<polygon fill="midnightblue" stroke="midnightblue" points="197.973,-137.902 208.256,-135.349 198.626,-130.932 197.973,-137.902"/>
</g>
<!-- Node3 -->
<g id="node3" class="node"><title>Node3</title>
<g id="a_node3"><a xlink:href="../../d6/d95/classparser_1_1_parser.html#a5e98fdfffe49478864dc1b22371d6cb1" target="_top" xlink:title="parser.Parser.parse">
<polygon fill="white" stroke="black" points="236.5,-95.5 236.5,-114.5 345.5,-114.5 345.5,-95.5 236.5,-95.5"/>
<text text-anchor="middle" x="291" y="-102.5" font-family="Helvetica,sans-Serif" font-size="10.00">parser.Parser.parse</text>
</a>
</g>
</g>
<!-- Node1&#45;&gt;Node3 -->
<g id="edge2" class="edge"><title>Node1&#45;&gt;Node3</title>
<path fill="none" stroke="midnightblue" d="M172.208,-116.025C190.179,-114.343 208.849,-112.595 225.886,-111.001"/>
<polygon fill="midnightblue" stroke="midnightblue" points="226.631,-114.446 236.262,-110.03 225.979,-107.477 226.631,-114.446"/>
</g>
<!-- Node4 -->
<g id="node4" class="node"><title>Node4</title>
<g id="a_node4"><a xlink:href="../../d6/d95/classparser_1_1_parser.html#a2fe30e8a728e36fd2626587f059c4b95" target="_top" xlink:title="parser.Parser.makeTree">
<polygon fill="white" stroke="black" points="410,-95.5 410,-114.5 538,-114.5 538,-95.5 410,-95.5"/>
<text text-anchor="middle" x="474" y="-102.5" font-family="Helvetica,sans-Serif" font-size="10.00">parser.Parser.makeTree</text>
</a>
</g>
</g>
<!-- Node3&#45;&gt;Node4 -->
<g id="edge3" class="edge"><title>Node3&#45;&gt;Node4</title>
<path fill="none" stroke="midnightblue" d="M345.816,-105C362.707,-105 381.65,-105 399.653,-105"/>
<polygon fill="midnightblue" stroke="midnightblue" points="399.829,-108.5 409.829,-105 399.829,-101.5 399.829,-108.5"/>
</g>
<!-- Node5 -->
<g id="node5" class="node"><title>Node5</title>
<g id="a_node5"><a xlink:href="../../d6/d95/classparser_1_1_parser.html#ad5386cfbaf84af60512e31503fda19ed" target="_top" xlink:title="parser.Parser.makeNode">
<polygon fill="white" stroke="black" points="602,-193.5 602,-212.5 736,-212.5 736,-193.5 602,-193.5"/>
<text text-anchor="middle" x="669" y="-200.5" font-family="Helvetica,sans-Serif" font-size="10.00">parser.Parser.makeNode</text>
</a>
</g>
</g>
<!-- Node4&#45;&gt;Node5 -->
<g id="edge4" class="edge"><title>Node4&#45;&gt;Node5</title>
<path fill="none" stroke="midnightblue" d="M485.776,-114.665C503.154,-129.781 538.973,-159.04 574,-176 586.178,-181.897 599.882,-186.738 612.983,-190.611"/>
<polygon fill="midnightblue" stroke="midnightblue" points="612.274,-194.047 622.849,-193.384 614.169,-187.308 612.274,-194.047"/>
</g>
<!-- Node7 -->
<g id="node7" class="node"><title>Node7</title>
<g id="a_node7"><a xlink:href="../../d3/dcc/classparser_1_1_node.html#a7dfaaf7e60998705460f304c5d56ca6f" target="_top" xlink:title="parser.Node.getCommand">
<polygon fill="white" stroke="black" points="1020,-114.5 1020,-133.5 1164,-133.5 1164,-114.5 1020,-114.5"/>
<text text-anchor="middle" x="1092" y="-121.5" font-family="Helvetica,sans-Serif" font-size="10.00">parser.Node.getCommand</text>
</a>
</g>
</g>
<!-- Node4&#45;&gt;Node7 -->
<g id="edge6" class="edge"><title>Node4&#45;&gt;Node7</title>
<path fill="none" stroke="midnightblue" d="M493.741,-114.584C513.213,-123.961 544.856,-137.599 574,-143 735.421,-172.916 929.893,-150.427 1027.93,-135.115"/>
<polygon fill="midnightblue" stroke="midnightblue" points="1028.64,-138.546 1037.97,-133.519 1027.55,-131.632 1028.64,-138.546"/>
</g>
<!-- Node8 -->
<g id="node8" class="node"><title>Node8</title>
<g id="a_node8"><a xlink:href="../../d7/d35/classcommand_1_1_command.html#a81d128e8b4ac11d732d24edcbc5c2a88" target="_top" xlink:title="command.Command.getNumInputs">
<polygon fill="white" stroke="black" points="574,-114.5 574,-133.5 764,-133.5 764,-114.5 574,-114.5"/>
<text text-anchor="middle" x="669" y="-121.5" font-family="Helvetica,sans-Serif" font-size="10.00">command.Command.getNumInputs</text>
</a>
</g>
</g>
<!-- Node4&#45;&gt;Node8 -->
<g id="edge7" class="edge"><title>Node4&#45;&gt;Node8</title>
<path fill="none" stroke="midnightblue" d="M538.195,-111.221C546.413,-112.03 554.998,-112.875 563.668,-113.729"/>
<polygon fill="midnightblue" stroke="midnightblue" points="563.573,-117.236 573.868,-114.733 564.259,-110.27 563.573,-117.236"/>
</g>
<!-- Node10 -->
<g id="node10" class="node"><title>Node10</title>
<g id="a_node10"><a xlink:href="../../d3/dcc/classparser_1_1_node.html#ae9a17458b710c179f741464ca6e9048a" target="_top" xlink:title="parser.Node.addChild">
<polygon fill="white" stroke="black" points="609.5,-76.5 609.5,-95.5 728.5,-95.5 728.5,-76.5 609.5,-76.5"/>
<text text-anchor="middle" x="669" y="-83.5" font-family="Helvetica,sans-Serif" font-size="10.00">parser.Node.addChild</text>
</a>
</g>
</g>
<!-- Node4&#45;&gt;Node10 -->
<g id="edge11" class="edge"><title>Node4&#45;&gt;Node10</title>
<path fill="none" stroke="midnightblue" d="M538.195,-98.7787C557.668,-96.8617 579.202,-94.7418 599.042,-92.7886"/>
<polygon fill="midnightblue" stroke="midnightblue" points="599.633,-96.2474 609.242,-91.7845 598.947,-89.2811 599.633,-96.2474"/>
</g>
<!-- Node11 -->
<g id="node11" class="node"><title>Node11</title>
<g id="a_node11"><a xlink:href="../../d7/d35/classcommand_1_1_command.html#ab994c7989255741306855f258b1c2191" target="_top" xlink:title="command.Command.isList">
<polygon fill="white" stroke="black" points="596,-38.5 596,-57.5 742,-57.5 742,-38.5 596,-38.5"/>
<text text-anchor="middle" x="669" y="-45.5" font-family="Helvetica,sans-Serif" font-size="10.00">command.Command.isList</text>
</a>
</g>
</g>
<!-- Node4&#45;&gt;Node11 -->
<g id="edge12" class="edge"><title>Node4&#45;&gt;Node11</title>
<path fill="none" stroke="midnightblue" d="M496.66,-95.4795C516.48,-87.0594 546.776,-74.916 574,-67 583.255,-64.3089 593.131,-61.8632 602.875,-59.6897"/>
<polygon fill="midnightblue" stroke="midnightblue" points="603.907,-63.0478 612.948,-57.5243 602.436,-56.2041 603.907,-63.0478"/>
</g>
<!-- Node12 -->
<g id="node12" class="node"><title>Node12</title>
<g id="a_node12"><a xlink:href="../../d7/d35/classcommand_1_1_command.html#ac2df873d4926bc6e08dba8c6272cff7e" target="_top" xlink:title="command.Command.toString">
<polygon fill="white" stroke="black" points="589,-0.5 589,-19.5 749,-19.5 749,-0.5 589,-0.5"/>
<text text-anchor="middle" x="669" y="-7.5" font-family="Helvetica,sans-Serif" font-size="10.00">command.Command.toString</text>
</a>
</g>
</g>
<!-- Node4&#45;&gt;Node12 -->
<g id="edge13" class="edge"><title>Node4&#45;&gt;Node12</title>
<path fill="none" stroke="midnightblue" d="M484.396,-95.3334C500.912,-78.9513 536.923,-45.8734 574,-29 579.437,-26.5259 585.195,-24.3721 591.079,-22.4974"/>
<polygon fill="midnightblue" stroke="midnightblue" points="592.437,-25.7478 601.065,-19.5987 590.486,-19.0253 592.437,-25.7478"/>
</g>
<!-- Node6 -->
<g id="node6" class="node"><title>Node6</title>
<g id="a_node6"><a xlink:href="../../d1/dd5/classparser_1_1_command_factory.html#a6907bbeefbe406c17766a1e350fc359f" target="_top" xlink:title="parser.CommandFactory.create\lCommand">
<polygon fill="white" stroke="black" points="808.5,-191 808.5,-221 975.5,-221 975.5,-191 808.5,-191"/>
<text text-anchor="start" x="816.5" y="-209" font-family="Helvetica,sans-Serif" font-size="10.00">parser.CommandFactory.create</text>
<text text-anchor="middle" x="892" y="-198" font-family="Helvetica,sans-Serif" font-size="10.00">Command</text>
</a>
</g>
</g>
<!-- Node5&#45;&gt;Node6 -->
<g id="edge5" class="edge"><title>Node5&#45;&gt;Node6</title>
<path fill="none" stroke="midnightblue" d="M736.008,-203.896C755.573,-204.162 777.373,-204.458 798.298,-204.742"/>
<polygon fill="midnightblue" stroke="midnightblue" points="798.44,-208.244 808.486,-204.88 798.535,-201.244 798.44,-208.244"/>
</g>
<!-- Node8&#45;&gt;Node7 -->
<g id="edge10" class="edge"><title>Node8&#45;&gt;Node7</title>
<path fill="none" stroke="midnightblue" d="M764.218,-124C838.031,-124 939.64,-124 1009.87,-124"/>
<polygon fill="midnightblue" stroke="midnightblue" points="1010,-127.5 1020,-124 1010,-120.5 1010,-127.5"/>
</g>
<!-- Node9 -->
<g id="node9" class="node"><title>Node9</title>
<g id="a_node9"><a xlink:href="../../d7/d35/classcommand_1_1_command.html#a30463654f906e5bcf507ab33bd5d8bff" target="_top" xlink:title="command.Command.checkListExit">
<polygon fill="white" stroke="black" points="800.5,-76.5 800.5,-95.5 983.5,-95.5 983.5,-76.5 800.5,-76.5"/>
<text text-anchor="middle" x="892" y="-83.5" font-family="Helvetica,sans-Serif" font-size="10.00">command.Command.checkListExit</text>
</a>
</g>
</g>
<!-- Node8&#45;&gt;Node9 -->
<g id="edge8" class="edge"><title>Node8&#45;&gt;Node9</title>
<path fill="none" stroke="midnightblue" d="M725.482,-114.46C755.826,-109.243 793.6,-102.747 825.398,-97.28"/>
<polygon fill="midnightblue" stroke="midnightblue" points="826.233,-100.688 835.495,-95.5439 825.046,-93.7892 826.233,-100.688"/>
</g>
<!-- Node9&#45;&gt;Node7 -->
<g id="edge9" class="edge"><title>Node9&#45;&gt;Node7</title>
<path fill="none" stroke="midnightblue" d="M942.708,-95.54C969.541,-100.69 1002.86,-107.084 1031.11,-112.506"/>
<polygon fill="midnightblue" stroke="midnightblue" points="1030.79,-116.009 1041.27,-114.456 1032.11,-109.134 1030.79,-116.009"/>
</g>
</g>
</svg>
