<?xml version="1.0" encoding="UTF-8" standalone="no"?>
<!DOCTYPE svg PUBLIC "-//W3C//DTD SVG 1.1//EN"
 "http://www.w3.org/Graphics/SVG/1.1/DTD/svg11.dtd">
<!-- Generated by graphviz version 2.36.0 (20140111.2315)
 -->
<!-- Title: mainApplication.Controller.getVariables Pages: 1 -->
<svg width="790pt" height="87pt"
 viewBox="0.00 0.00 790.00 87.00" xmlns="http://www.w3.org/2000/svg" xmlns:xlink="http://www.w3.org/1999/xlink">
<g id="graph0" class="graph" transform="scale(1 1) rotate(0) translate(4 83)">
<title>mainApplication.Controller.getVariables</title>
<polygon fill="white" stroke="none" points="-4,4 -4,-83 786,-83 786,4 -4,4"/>
<!-- Node1 -->
<g id="node1" class="node"><title>Node1</title>
<polygon fill="#bfbfbf" stroke="black" points="0.5,-24 0.5,-54 161.5,-54 161.5,-24 0.5,-24"/>
<text text-anchor="start" x="8.5" y="-42" font-family="Helvetica,sans-Serif" font-size="10.00">mainApplication.Controller.get</text>
<text text-anchor="middle" x="81" y="-31" font-family="Helvetica,sans-Serif" font-size="10.00">Variables</text>
</g>
<!-- Node2 -->
<g id="node2" class="node"><title>Node2</title>
<g id="a_node2"><a xlink:href="../../d4/d3f/classcomponents_1_1_vars_tab.html#aa51dee8d24322ee37e4399858794ee8b" target="_top" xlink:title="components.VarsTab.setTab\lEditable">
<polygon fill="white" stroke="black" points="214,-49 214,-79 364,-79 364,-49 214,-49"/>
<text text-anchor="start" x="222" y="-67" font-family="Helvetica,sans-Serif" font-size="10.00">components.VarsTab.setTab</text>
<text text-anchor="middle" x="289" y="-56" font-family="Helvetica,sans-Serif" font-size="10.00">Editable</text>
</a>
</g>
</g>
<!-- Node1&#45;&gt;Node2 -->
<g id="edge1" class="edge"><title>Node1&#45;&gt;Node2</title>
<path fill="none" stroke="midnightblue" d="M171.818,-49.9003C185.892,-51.6082 200.299,-53.3567 213.966,-55.0153"/>
<polygon fill="midnightblue" stroke="midnightblue" points="171.994,-46.396 161.645,-48.6657 171.15,-53.345 171.994,-46.396"/>
</g>
<!-- Node4 -->
<g id="node4" class="node"><title>Node4</title>
<g id="a_node4"><a xlink:href="../../de/d10/classfeatures_1_1_run_button_feature.html#a7516c5daca232e22a89ef380f60d2272" target="_top" xlink:title="features.RunButtonFeature.update\lPanes">
<polygon fill="white" stroke="black" points="198,-0 198,-30 380,-30 380,-0 198,-0"/>
<text text-anchor="start" x="206" y="-18" font-family="Helvetica,sans-Serif" font-size="10.00">features.RunButtonFeature.update</text>
<text text-anchor="middle" x="289" y="-7" font-family="Helvetica,sans-Serif" font-size="10.00">Panes</text>
</a>
</g>
</g>
<!-- Node1&#45;&gt;Node4 -->
<g id="edge3" class="edge"><title>Node1&#45;&gt;Node4</title>
<path fill="none" stroke="midnightblue" d="M171.764,-28.542C180.447,-27.5304 189.258,-26.5039 197.944,-25.492"/>
<polygon fill="midnightblue" stroke="midnightblue" points="171.173,-25.0872 161.645,-29.721 171.983,-32.0402 171.173,-25.0872"/>
</g>
<!-- Node3 -->
<g id="node3" class="node"><title>Node3</title>
<g id="a_node3"><a xlink:href="../../d4/d3f/classcomponents_1_1_vars_tab.html#a1e48c3f7ead529596e018a72cd6ef159" target="_top" xlink:title="components.VarsTab.VarsTab">
<polygon fill="white" stroke="black" points="429,-54.5 429,-73.5 585,-73.5 585,-54.5 429,-54.5"/>
<text text-anchor="middle" x="507" y="-61.5" font-family="Helvetica,sans-Serif" font-size="10.00">components.VarsTab.VarsTab</text>
</a>
</g>
</g>
<!-- Node2&#45;&gt;Node3 -->
<g id="edge2" class="edge"><title>Node2&#45;&gt;Node3</title>
<path fill="none" stroke="midnightblue" d="M374.197,-64C392.166,-64 411.06,-64 428.752,-64"/>
<polygon fill="midnightblue" stroke="midnightblue" points="374.033,-60.5001 364.033,-64 374.033,-67.5001 374.033,-60.5001"/>
</g>
<!-- Node5 -->
<g id="node5" class="node"><title>Node5</title>
<g id="a_node5"><a xlink:href="../../de/d10/classfeatures_1_1_run_button_feature.html#aafdb4dfb72af2439264ef4a329b35c41" target="_top" xlink:title="features.RunButtonFeature.update">
<polygon fill="white" stroke="black" points="416,-5.5 416,-24.5 598,-24.5 598,-5.5 416,-5.5"/>
<text text-anchor="middle" x="507" y="-12.5" font-family="Helvetica,sans-Serif" font-size="10.00">features.RunButtonFeature.update</text>
</a>
</g>
</g>
<!-- Node4&#45;&gt;Node5 -->
<g id="edge4" class="edge"><title>Node4&#45;&gt;Node5</title>
<path fill="none" stroke="midnightblue" d="M390.059,-15C398.631,-15 407.27,-15 415.759,-15"/>
<polygon fill="midnightblue" stroke="midnightblue" points="390.039,-11.5001 380.039,-15 390.039,-18.5001 390.039,-11.5001"/>
</g>
<!-- Node6 -->
<g id="node6" class="node"><title>Node6</title>
<g id="a_node6"><a xlink:href="../../de/d10/classfeatures_1_1_run_button_feature.html#ada33a09e0a0259486754b597f2d7b0c7" target="_top" xlink:title="features.RunButtonFeature.\lRunButtonFeature">
<polygon fill="white" stroke="black" points="634,-0 634,-30 782,-30 782,-0 634,-0"/>
<text text-anchor="start" x="642" y="-18" font-family="Helvetica,sans-Serif" font-size="10.00">features.RunButtonFeature.</text>
<text text-anchor="middle" x="708" y="-7" font-family="Helvetica,sans-Serif" font-size="10.00">RunButtonFeature</text>
</a>
</g>
</g>
<!-- Node5&#45;&gt;Node6 -->
<g id="edge5" class="edge"><title>Node5&#45;&gt;Node6</title>
<path fill="none" stroke="midnightblue" d="M608.277,-15C616.884,-15 625.484,-15 633.818,-15"/>
<polygon fill="midnightblue" stroke="midnightblue" points="608.184,-11.5001 598.184,-15 608.184,-18.5001 608.184,-11.5001"/>
</g>
</g>
</svg>
