<?xml version="1.0" encoding="UTF-8" standalone="no"?>
<!DOCTYPE svg PUBLIC "-//W3C//DTD SVG 1.1//EN"
 "http://www.w3.org/Graphics/SVG/1.1/DTD/svg11.dtd">
<!-- Generated by graphviz version 2.36.0 (20140111.2315)
 -->
<!-- Title: mainApplication.Controller.removeWS Pages: 1 -->
<svg width="588pt" height="126pt"
 viewBox="0.00 0.00 588.00 126.00" xmlns="http://www.w3.org/2000/svg" xmlns:xlink="http://www.w3.org/1999/xlink">
<g id="graph0" class="graph" transform="scale(1 1) rotate(0) translate(4 122)">
<title>mainApplication.Controller.removeWS</title>
<polygon fill="white" stroke="none" points="-4,4 -4,-122 584,-122 584,4 -4,4"/>
<!-- Node1 -->
<g id="node1" class="node"><title>Node1</title>
<polygon fill="#bfbfbf" stroke="black" points="0.5,-49.5 0.5,-68.5 197.5,-68.5 197.5,-49.5 0.5,-49.5"/>
<text text-anchor="middle" x="99" y="-56.5" font-family="Helvetica,sans-Serif" font-size="10.00">mainApplication.Controller.removeWS</text>
</g>
<!-- Node2 -->
<g id="node2" class="node"><title>Node2</title>
<g id="a_node2"><a xlink:href="../../d3/d04/classmain_application_1_1_g_u_i_shell.html#a9df214dfffdce7a39bc6ac5e84ca1f0f" target="_top" xlink:title="mainApplication.GUIShell.create\lNewButton">
<polygon fill="white" stroke="black" points="234,-88 234,-118 404,-118 404,-88 234,-88"/>
<text text-anchor="start" x="242" y="-106" font-family="Helvetica,sans-Serif" font-size="10.00">mainApplication.GUIShell.create</text>
<text text-anchor="middle" x="319" y="-95" font-family="Helvetica,sans-Serif" font-size="10.00">NewButton</text>
</a>
</g>
</g>
<!-- Node1&#45;&gt;Node2 -->
<g id="edge1" class="edge"><title>Node1&#45;&gt;Node2</title>
<path fill="none" stroke="midnightblue" d="M157.13,-70.5309C183.494,-75.852 215.137,-82.2387 243.358,-87.9346"/>
<polygon fill="midnightblue" stroke="midnightblue" points="157.798,-67.0951 147.303,-68.5473 156.413,-73.9567 157.798,-67.0951"/>
</g>
<!-- Node3 -->
<g id="node3" class="node"><title>Node3</title>
<g id="a_node3"><a xlink:href="../../d3/d04/classmain_application_1_1_g_u_i_shell.html#ac525a3e483dbe24e5f9f0257fe54521d" target="_top" xlink:title="mainApplication.GUIShell.\lGUIShell">
<polygon fill="white" stroke="black" points="440,-44 440,-74 580,-74 580,-44 440,-44"/>
<text text-anchor="start" x="448" y="-62" font-family="Helvetica,sans-Serif" font-size="10.00">mainApplication.GUIShell.</text>
<text text-anchor="middle" x="510" y="-51" font-family="Helvetica,sans-Serif" font-size="10.00">GUIShell</text>
</a>
</g>
</g>
<!-- Node1&#45;&gt;Node3 -->
<g id="edge5" class="edge"><title>Node1&#45;&gt;Node3</title>
<path fill="none" stroke="midnightblue" d="M207.923,-59C281.388,-59 376.439,-59 439.899,-59"/>
<polygon fill="midnightblue" stroke="midnightblue" points="207.706,-55.5001 197.706,-59 207.706,-62.5001 207.706,-55.5001"/>
</g>
<!-- Node4 -->
<g id="node4" class="node"><title>Node4</title>
<g id="a_node4"><a xlink:href="../../d3/d04/classmain_application_1_1_g_u_i_shell.html#af2f106fa7786f13ccc0202db53b559b9" target="_top" xlink:title="mainApplication.GUIShell.create\lOpenButton">
<polygon fill="white" stroke="black" points="234,-0 234,-30 404,-30 404,-0 234,-0"/>
<text text-anchor="start" x="242" y="-18" font-family="Helvetica,sans-Serif" font-size="10.00">mainApplication.GUIShell.create</text>
<text text-anchor="middle" x="319" y="-7" font-family="Helvetica,sans-Serif" font-size="10.00">OpenButton</text>
</a>
</g>
</g>
<!-- Node1&#45;&gt;Node4 -->
<g id="edge3" class="edge"><title>Node1&#45;&gt;Node4</title>
<path fill="none" stroke="midnightblue" d="M157.13,-47.4691C183.494,-42.148 215.137,-35.7613 243.358,-30.0654"/>
<polygon fill="midnightblue" stroke="midnightblue" points="156.413,-44.0433 147.303,-49.4527 157.798,-50.9049 156.413,-44.0433"/>
</g>
<!-- Node2&#45;&gt;Node3 -->
<g id="edge2" class="edge"><title>Node2&#45;&gt;Node3</title>
<path fill="none" stroke="midnightblue" d="M394.642,-85.6231C411.112,-81.7888 428.425,-77.7582 444.456,-74.0262"/>
<polygon fill="midnightblue" stroke="midnightblue" points="393.46,-82.3044 384.514,-87.9808 395.048,-89.1221 393.46,-82.3044"/>
</g>
<!-- Node4&#45;&gt;Node3 -->
<g id="edge4" class="edge"><title>Node4&#45;&gt;Node3</title>
<path fill="none" stroke="midnightblue" d="M394.642,-32.3769C411.112,-36.2112 428.425,-40.2418 444.456,-43.9738"/>
<polygon fill="midnightblue" stroke="midnightblue" points="395.048,-28.8779 384.514,-30.0192 393.46,-35.6956 395.048,-28.8779"/>
</g>
</g>
</svg>
