<?xml version="1.0" encoding="UTF-8" standalone="no"?>
<!DOCTYPE svg PUBLIC "-//W3C//DTD SVG 1.1//EN"
 "http://www.w3.org/Graphics/SVG/1.1/DTD/svg11.dtd">
<!-- Generated by graphviz version 2.36.0 (20140111.2315)
 -->
<!-- Title: mainApplication.Controller.setActive Pages: 1 -->
<svg width="550pt" height="126pt"
 viewBox="0.00 0.00 550.00 126.00" xmlns="http://www.w3.org/2000/svg" xmlns:xlink="http://www.w3.org/1999/xlink">
<g id="graph0" class="graph" transform="scale(1 1) rotate(0) translate(4 122)">
<title>mainApplication.Controller.setActive</title>
<polygon fill="white" stroke="none" points="-4,4 -4,-122 546,-122 546,4 -4,4"/>
<!-- Node1 -->
<g id="node1" class="node"><title>Node1</title>
<polygon fill="#bfbfbf" stroke="black" points="0,-44 0,-74 160,-74 160,-44 0,-44"/>
<text text-anchor="start" x="8" y="-62" font-family="Helvetica,sans-Serif" font-size="10.00">mainApplication.Controller.set</text>
<text text-anchor="middle" x="80" y="-51" font-family="Helvetica,sans-Serif" font-size="10.00">Active</text>
</g>
<!-- Node2 -->
<g id="node2" class="node"><title>Node2</title>
<g id="a_node2"><a xlink:href="../../d3/d04/classmain_application_1_1_g_u_i_shell.html#a9df214dfffdce7a39bc6ac5e84ca1f0f" target="_top" xlink:title="mainApplication.GUIShell.create\lNewButton">
<polygon fill="white" stroke="black" points="196,-88 196,-118 366,-118 366,-88 196,-88"/>
<text text-anchor="start" x="204" y="-106" font-family="Helvetica,sans-Serif" font-size="10.00">mainApplication.GUIShell.create</text>
<text text-anchor="middle" x="281" y="-95" font-family="Helvetica,sans-Serif" font-size="10.00">NewButton</text>
</a>
</g>
</g>
<!-- Node1&#45;&gt;Node2 -->
<g id="edge1" class="edge"><title>Node1&#45;&gt;Node2</title>
<path fill="none" stroke="midnightblue" d="M159.1,-76.2684C176.589,-80.1352 195.003,-84.2066 212.041,-87.9738"/>
<polygon fill="midnightblue" stroke="midnightblue" points="159.448,-72.7608 148.928,-74.0192 157.936,-79.5957 159.448,-72.7608"/>
</g>
<!-- Node3 -->
<g id="node3" class="node"><title>Node3</title>
<g id="a_node3"><a xlink:href="../../d3/d04/classmain_application_1_1_g_u_i_shell.html#ac525a3e483dbe24e5f9f0257fe54521d" target="_top" xlink:title="mainApplication.GUIShell.\lGUIShell">
<polygon fill="white" stroke="black" points="402,-44 402,-74 542,-74 542,-44 402,-44"/>
<text text-anchor="start" x="410" y="-62" font-family="Helvetica,sans-Serif" font-size="10.00">mainApplication.GUIShell.</text>
<text text-anchor="middle" x="472" y="-51" font-family="Helvetica,sans-Serif" font-size="10.00">GUIShell</text>
</a>
</g>
</g>
<!-- Node1&#45;&gt;Node3 -->
<g id="edge5" class="edge"><title>Node1&#45;&gt;Node3</title>
<path fill="none" stroke="midnightblue" d="M170.571,-59C240.895,-59 337.376,-59 401.835,-59"/>
<polygon fill="midnightblue" stroke="midnightblue" points="170.392,-55.5001 160.392,-59 170.392,-62.5001 170.392,-55.5001"/>
</g>
<!-- Node4 -->
<g id="node4" class="node"><title>Node4</title>
<g id="a_node4"><a xlink:href="../../d3/d04/classmain_application_1_1_g_u_i_shell.html#af2f106fa7786f13ccc0202db53b559b9" target="_top" xlink:title="mainApplication.GUIShell.create\lOpenButton">
<polygon fill="white" stroke="black" points="196,-0 196,-30 366,-30 366,-0 196,-0"/>
<text text-anchor="start" x="204" y="-18" font-family="Helvetica,sans-Serif" font-size="10.00">mainApplication.GUIShell.create</text>
<text text-anchor="middle" x="281" y="-7" font-family="Helvetica,sans-Serif" font-size="10.00">OpenButton</text>
</a>
</g>
</g>
<!-- Node1&#45;&gt;Node4 -->
<g id="edge3" class="edge"><title>Node1&#45;&gt;Node4</title>
<path fill="none" stroke="midnightblue" d="M159.1,-41.7316C176.589,-37.8648 195.003,-33.7934 212.041,-30.0262"/>
<polygon fill="midnightblue" stroke="midnightblue" points="157.936,-38.4043 148.928,-43.9808 159.448,-45.2392 157.936,-38.4043"/>
</g>
<!-- Node2&#45;&gt;Node3 -->
<g id="edge2" class="edge"><title>Node2&#45;&gt;Node3</title>
<path fill="none" stroke="midnightblue" d="M356.642,-85.6231C373.112,-81.7888 390.425,-77.7582 406.456,-74.0262"/>
<polygon fill="midnightblue" stroke="midnightblue" points="355.46,-82.3044 346.514,-87.9808 357.048,-89.1221 355.46,-82.3044"/>
</g>
<!-- Node4&#45;&gt;Node3 -->
<g id="edge4" class="edge"><title>Node4&#45;&gt;Node3</title>
<path fill="none" stroke="midnightblue" d="M356.642,-32.3769C373.112,-36.2112 390.425,-40.2418 406.456,-43.9738"/>
<polygon fill="midnightblue" stroke="midnightblue" points="357.048,-28.8779 346.514,-30.0192 355.46,-35.6956 357.048,-28.8779"/>
</g>
</g>
</svg>
