<?xml version="1.0" encoding="UTF-8" standalone="no"?>
<!DOCTYPE svg PUBLIC "-//W3C//DTD SVG 1.1//EN"
 "http://www.w3.org/Graphics/SVG/1.1/DTD/svg11.dtd">
<!-- Generated by graphviz version 2.36.0 (20140111.2315)
 -->
<!-- Title: mainApplication.Controller.createWorkspace Pages: 1 -->
<svg width="752pt" height="102pt"
 viewBox="0.00 0.00 752.00 102.26" xmlns="http://www.w3.org/2000/svg" xmlns:xlink="http://www.w3.org/1999/xlink">
<g id="graph0" class="graph" transform="scale(1 1) rotate(0) translate(4 98.2605)">
<title>mainApplication.Controller.createWorkspace</title>
<polygon fill="white" stroke="none" points="-4,4 -4,-98.2605 748,-98.2605 748,4 -4,4"/>
<!-- Node1 -->
<g id="node1" class="node"><title>Node1</title>
<polygon fill="#bfbfbf" stroke="black" points="0,-49 0,-79 176,-79 176,-49 0,-49"/>
<text text-anchor="start" x="8" y="-67" font-family="Helvetica,sans-Serif" font-size="10.00">mainApplication.Controller.create</text>
<text text-anchor="middle" x="88" y="-56" font-family="Helvetica,sans-Serif" font-size="10.00">Workspace</text>
</g>
<!-- Node2 -->
<g id="node2" class="node"><title>Node2</title>
<g id="a_node2"><a xlink:href="../../d3/de0/classmain_application_1_1_g_u_i.html#af6bd387013dbd1d1daf030117da66c0e" target="_top" xlink:title="mainApplication.GUI.initiate">
<polygon fill="white" stroke="black" points="212.5,-54.5 212.5,-73.5 361.5,-73.5 361.5,-54.5 212.5,-54.5"/>
<text text-anchor="middle" x="287" y="-61.5" font-family="Helvetica,sans-Serif" font-size="10.00">mainApplication.GUI.initiate</text>
</a>
</g>
</g>
<!-- Node1&#45;&gt;Node2 -->
<g id="edge1" class="edge"><title>Node1&#45;&gt;Node2</title>
<path fill="none" stroke="midnightblue" d="M186.465,-64C195.17,-64 203.885,-64 212.34,-64"/>
<polygon fill="midnightblue" stroke="midnightblue" points="186.267,-60.5001 176.267,-64 186.267,-67.5001 186.267,-60.5001"/>
</g>
<!-- Node3 -->
<g id="node3" class="node"><title>Node3</title>
<g id="a_node3"><a xlink:href="../../d3/d04/classmain_application_1_1_g_u_i_shell.html#ac525a3e483dbe24e5f9f0257fe54521d" target="_top" xlink:title="mainApplication.GUIShell.\lGUIShell">
<polygon fill="white" stroke="black" points="604,-49 604,-79 744,-79 744,-49 604,-49"/>
<text text-anchor="start" x="612" y="-67" font-family="Helvetica,sans-Serif" font-size="10.00">mainApplication.GUIShell.</text>
<text text-anchor="middle" x="674" y="-56" font-family="Helvetica,sans-Serif" font-size="10.00">GUIShell</text>
</a>
</g>
</g>
<!-- Node2&#45;&gt;Node3 -->
<g id="edge2" class="edge"><title>Node2&#45;&gt;Node3</title>
<path fill="none" stroke="midnightblue" d="M332.835,-76.0673C352.648,-80.8049 376.321,-85.6625 398,-88 473.12,-96.0997 492.921,-96.4712 568,-88 584.352,-86.155 601.869,-82.7425 617.818,-79.0582"/>
<polygon fill="midnightblue" stroke="midnightblue" points="333.404,-72.603 322.858,-73.6148 331.733,-79.4007 333.404,-72.603"/>
</g>
<!-- Node4 -->
<g id="node4" class="node"><title>Node4</title>
<g id="a_node4"><a xlink:href="../../d3/d04/classmain_application_1_1_g_u_i_shell.html#a9df214dfffdce7a39bc6ac5e84ca1f0f" target="_top" xlink:title="mainApplication.GUIShell.create\lNewButton">
<polygon fill="white" stroke="black" points="398,-49 398,-79 568,-79 568,-49 398,-49"/>
<text text-anchor="start" x="406" y="-67" font-family="Helvetica,sans-Serif" font-size="10.00">mainApplication.GUIShell.create</text>
<text text-anchor="middle" x="483" y="-56" font-family="Helvetica,sans-Serif" font-size="10.00">NewButton</text>
</a>
</g>
</g>
<!-- Node2&#45;&gt;Node4 -->
<g id="edge3" class="edge"><title>Node2&#45;&gt;Node4</title>
<path fill="none" stroke="midnightblue" d="M371.668,-64C380.298,-64 389.071,-64 397.708,-64"/>
<polygon fill="midnightblue" stroke="midnightblue" points="371.62,-60.5001 361.62,-64 371.62,-67.5001 371.62,-60.5001"/>
</g>
<!-- Node5 -->
<g id="node5" class="node"><title>Node5</title>
<g id="a_node5"><a xlink:href="../../d3/d04/classmain_application_1_1_g_u_i_shell.html#af2f106fa7786f13ccc0202db53b559b9" target="_top" xlink:title="mainApplication.GUIShell.create\lOpenButton">
<polygon fill="white" stroke="black" points="398,-0 398,-30 568,-30 568,-0 398,-0"/>
<text text-anchor="start" x="406" y="-18" font-family="Helvetica,sans-Serif" font-size="10.00">mainApplication.GUIShell.create</text>
<text text-anchor="middle" x="483" y="-7" font-family="Helvetica,sans-Serif" font-size="10.00">OpenButton</text>
</a>
</g>
</g>
<!-- Node2&#45;&gt;Node5 -->
<g id="edge5" class="edge"><title>Node2&#45;&gt;Node5</title>
<path fill="none" stroke="midnightblue" d="M335.566,-51.9858C361.779,-45.365 394.566,-37.0839 422.466,-30.037"/>
<polygon fill="midnightblue" stroke="midnightblue" points="334.704,-48.5936 325.866,-54.436 336.418,-55.3805 334.704,-48.5936"/>
</g>
<!-- Node4&#45;&gt;Node3 -->
<g id="edge4" class="edge"><title>Node4&#45;&gt;Node3</title>
<path fill="none" stroke="midnightblue" d="M578.359,-64C586.965,-64 595.572,-64 603.896,-64"/>
<polygon fill="midnightblue" stroke="midnightblue" points="578.274,-60.5001 568.274,-64 578.274,-67.5001 578.274,-60.5001"/>
</g>
<!-- Node5&#45;&gt;Node3 -->
<g id="edge6" class="edge"><title>Node5&#45;&gt;Node3</title>
<path fill="none" stroke="midnightblue" d="M551.692,-32.5498C572.447,-37.9306 595.082,-43.799 615.119,-48.9938"/>
<polygon fill="midnightblue" stroke="midnightblue" points="552.549,-29.1563 541.991,-30.0346 550.792,-35.9323 552.549,-29.1563"/>
</g>
</g>
</svg>
