<?xml version="1.0" encoding="UTF-8" standalone="no"?>
<!DOCTYPE svg PUBLIC "-//W3C//DTD SVG 1.1//EN"
 "http://www.w3.org/Graphics/SVG/1.1/DTD/svg11.dtd">
<!-- Generated by graphviz version 2.36.0 (20140111.2315)
 -->
<!-- Title: mainApplication.Controller.parseAndEvaluate Pages: 1 -->
<svg width="960pt" height="229pt"
 viewBox="0.00 0.00 960.00 229.00" xmlns="http://www.w3.org/2000/svg" xmlns:xlink="http://www.w3.org/1999/xlink">
<g id="graph0" class="graph" transform="scale(1 1) rotate(0) translate(4 225)">
<title>mainApplication.Controller.parseAndEvaluate</title>
<polygon fill="white" stroke="none" points="-4,4 -4,-225 956,-225 956,4 -4,4"/>
<!-- Node1 -->
<g id="node1" class="node"><title>Node1</title>
<polygon fill="#bfbfbf" stroke="black" points="0,-98 0,-128 172,-128 172,-98 0,-98"/>
<text text-anchor="start" x="8" y="-116" font-family="Helvetica,sans-Serif" font-size="10.00">mainApplication.Controller.parse</text>
<text text-anchor="middle" x="86" y="-105" font-family="Helvetica,sans-Serif" font-size="10.00">AndEvaluate</text>
</g>
<!-- Node2 -->
<g id="node2" class="node"><title>Node2</title>
<g id="a_node2"><a xlink:href="../../d3/d04/classmain_application_1_1_g_u_i_shell.html#af2f106fa7786f13ccc0202db53b559b9" target="_top" xlink:title="mainApplication.GUIShell.create\lOpenButton">
<polygon fill="white" stroke="black" points="606,-191 606,-221 776,-221 776,-191 606,-191"/>
<text text-anchor="start" x="614" y="-209" font-family="Helvetica,sans-Serif" font-size="10.00">mainApplication.GUIShell.create</text>
<text text-anchor="middle" x="691" y="-198" font-family="Helvetica,sans-Serif" font-size="10.00">OpenButton</text>
</a>
</g>
</g>
<!-- Node1&#45;&gt;Node2 -->
<g id="edge1" class="edge"><title>Node1&#45;&gt;Node2</title>
<path fill="none" stroke="midnightblue" d="M113.276,-134.242C136.608,-151.723 172.428,-175.301 208,-186 342.541,-226.465 507.723,-222.487 605.619,-214.935"/>
<polygon fill="midnightblue" stroke="midnightblue" points="115.337,-131.412 105.269,-128.113 111.082,-136.97 115.337,-131.412"/>
</g>
<!-- Node4 -->
<g id="node4" class="node"><title>Node4</title>
<g id="a_node4"><a xlink:href="../../d3/de0/classmain_application_1_1_g_u_i.html#a60b2e396c945ac173bfd82f207f42000" target="_top" xlink:title="mainApplication.GUI.initiate\lKeyPress">
<polygon fill="white" stroke="black" points="218.5,-147 218.5,-177 367.5,-177 367.5,-147 218.5,-147"/>
<text text-anchor="start" x="226.5" y="-165" font-family="Helvetica,sans-Serif" font-size="10.00">mainApplication.GUI.initiate</text>
<text text-anchor="middle" x="293" y="-154" font-family="Helvetica,sans-Serif" font-size="10.00">KeyPress</text>
</a>
</g>
</g>
<!-- Node1&#45;&gt;Node4 -->
<g id="edge3" class="edge"><title>Node1&#45;&gt;Node4</title>
<path fill="none" stroke="midnightblue" d="M159.812,-130.404C182.49,-135.824 207.289,-141.752 229.219,-146.994"/>
<polygon fill="midnightblue" stroke="midnightblue" points="160.44,-126.955 149.9,-128.035 158.812,-133.764 160.44,-126.955"/>
</g>
<!-- Node7 -->
<g id="node7" class="node"><title>Node7</title>
<g id="a_node7"><a xlink:href="../../dd/dca/classfeatures_1_1_pen_width_slider_feature.html#aac6e7c0d0c6f5e1afde3d8a3c8e788e6" target="_top" xlink:title="features.PenWidthSliderFeature.\lPenWidthSliderFeature">
<polygon fill="white" stroke="black" points="208,-98 208,-128 378,-128 378,-98 208,-98"/>
<text text-anchor="start" x="216" y="-116" font-family="Helvetica,sans-Serif" font-size="10.00">features.PenWidthSliderFeature.</text>
<text text-anchor="middle" x="293" y="-105" font-family="Helvetica,sans-Serif" font-size="10.00">PenWidthSliderFeature</text>
</a>
</g>
</g>
<!-- Node1&#45;&gt;Node7 -->
<g id="edge9" class="edge"><title>Node1&#45;&gt;Node7</title>
<path fill="none" stroke="midnightblue" d="M182.428,-113C190.887,-113 199.411,-113 207.767,-113"/>
<polygon fill="midnightblue" stroke="midnightblue" points="182.158,-109.5 172.158,-113 182.157,-116.5 182.158,-109.5"/>
</g>
<!-- Node8 -->
<g id="node8" class="node"><title>Node8</title>
<g id="a_node8"><a xlink:href="../../de/d10/classfeatures_1_1_run_button_feature.html#ada33a09e0a0259486754b597f2d7b0c7" target="_top" xlink:title="features.RunButtonFeature.\lRunButtonFeature">
<polygon fill="white" stroke="black" points="219,-49 219,-79 367,-79 367,-49 219,-49"/>
<text text-anchor="start" x="227" y="-67" font-family="Helvetica,sans-Serif" font-size="10.00">features.RunButtonFeature.</text>
<text text-anchor="middle" x="293" y="-56" font-family="Helvetica,sans-Serif" font-size="10.00">RunButtonFeature</text>
</a>
</g>
</g>
<!-- Node1&#45;&gt;Node8 -->
<g id="edge10" class="edge"><title>Node1&#45;&gt;Node8</title>
<path fill="none" stroke="midnightblue" d="M159.812,-95.5962C182.49,-90.1757 207.289,-84.248 229.219,-79.0062"/>
<polygon fill="midnightblue" stroke="midnightblue" points="158.812,-92.2364 149.9,-97.9654 160.44,-99.0447 158.812,-92.2364"/>
</g>
<!-- Node9 -->
<g id="node9" class="node"><title>Node9</title>
<g id="a_node9"><a xlink:href="../../d4/d3f/classcomponents_1_1_vars_tab.html#aa51dee8d24322ee37e4399858794ee8b" target="_top" xlink:title="components.VarsTab.setTab\lEditable">
<polygon fill="white" stroke="black" points="218,-0 218,-30 368,-30 368,-0 218,-0"/>
<text text-anchor="start" x="226" y="-18" font-family="Helvetica,sans-Serif" font-size="10.00">components.VarsTab.setTab</text>
<text text-anchor="middle" x="293" y="-7" font-family="Helvetica,sans-Serif" font-size="10.00">Editable</text>
</a>
</g>
</g>
<!-- Node1&#45;&gt;Node9 -->
<g id="edge11" class="edge"><title>Node1&#45;&gt;Node9</title>
<path fill="none" stroke="midnightblue" d="M116.124,-92.0742C139.9,-75.7739 174.865,-53.5431 208,-39 215.5,-35.7084 223.573,-32.7375 231.644,-30.0986"/>
<polygon fill="midnightblue" stroke="midnightblue" points="114.114,-89.2087 107.895,-97.7861 118.106,-94.9592 114.114,-89.2087"/>
</g>
<!-- Node3 -->
<g id="node3" class="node"><title>Node3</title>
<g id="a_node3"><a xlink:href="../../d3/d04/classmain_application_1_1_g_u_i_shell.html#ac525a3e483dbe24e5f9f0257fe54521d" target="_top" xlink:title="mainApplication.GUIShell.\lGUIShell">
<polygon fill="white" stroke="black" points="812,-147 812,-177 952,-177 952,-147 812,-147"/>
<text text-anchor="start" x="820" y="-165" font-family="Helvetica,sans-Serif" font-size="10.00">mainApplication.GUIShell.</text>
<text text-anchor="middle" x="882" y="-154" font-family="Helvetica,sans-Serif" font-size="10.00">GUIShell</text>
</a>
</g>
</g>
<!-- Node2&#45;&gt;Node3 -->
<g id="edge2" class="edge"><title>Node2&#45;&gt;Node3</title>
<path fill="none" stroke="midnightblue" d="M766.642,-188.623C783.112,-184.789 800.425,-180.758 816.456,-177.026"/>
<polygon fill="midnightblue" stroke="midnightblue" points="765.46,-185.304 756.514,-190.981 767.048,-192.122 765.46,-185.304"/>
</g>
<!-- Node5 -->
<g id="node5" class="node"><title>Node5</title>
<g id="a_node5"><a xlink:href="../../d3/de0/classmain_application_1_1_g_u_i.html#af6bd387013dbd1d1daf030117da66c0e" target="_top" xlink:title="mainApplication.GUI.initiate">
<polygon fill="white" stroke="black" points="417.5,-152.5 417.5,-171.5 566.5,-171.5 566.5,-152.5 417.5,-152.5"/>
<text text-anchor="middle" x="492" y="-159.5" font-family="Helvetica,sans-Serif" font-size="10.00">mainApplication.GUI.initiate</text>
</a>
</g>
</g>
<!-- Node4&#45;&gt;Node5 -->
<g id="edge4" class="edge"><title>Node4&#45;&gt;Node5</title>
<path fill="none" stroke="midnightblue" d="M377.662,-162C390.889,-162 404.48,-162 417.454,-162"/>
<polygon fill="midnightblue" stroke="midnightblue" points="377.636,-158.5 367.636,-162 377.636,-165.5 377.636,-158.5"/>
</g>
<!-- Node5&#45;&gt;Node2 -->
<g id="edge8" class="edge"><title>Node5&#45;&gt;Node2</title>
<path fill="none" stroke="midnightblue" d="M545.574,-173.742C569.206,-179.021 597.383,-185.314 622.548,-190.935"/>
<polygon fill="midnightblue" stroke="midnightblue" points="546.269,-170.311 535.746,-171.547 544.743,-177.143 546.269,-170.311"/>
</g>
<!-- Node5&#45;&gt;Node3 -->
<g id="edge5" class="edge"><title>Node5&#45;&gt;Node3</title>
<path fill="none" stroke="midnightblue" d="M577.041,-162C647.287,-162 746.249,-162 811.943,-162"/>
<polygon fill="midnightblue" stroke="midnightblue" points="576.893,-158.5 566.893,-162 576.893,-165.5 576.893,-158.5"/>
</g>
<!-- Node6 -->
<g id="node6" class="node"><title>Node6</title>
<g id="a_node6"><a xlink:href="../../d3/d04/classmain_application_1_1_g_u_i_shell.html#a9df214dfffdce7a39bc6ac5e84ca1f0f" target="_top" xlink:title="mainApplication.GUIShell.create\lNewButton">
<polygon fill="white" stroke="black" points="606,-103 606,-133 776,-133 776,-103 606,-103"/>
<text text-anchor="start" x="614" y="-121" font-family="Helvetica,sans-Serif" font-size="10.00">mainApplication.GUIShell.create</text>
<text text-anchor="middle" x="691" y="-110" font-family="Helvetica,sans-Serif" font-size="10.00">NewButton</text>
</a>
</g>
</g>
<!-- Node5&#45;&gt;Node6 -->
<g id="edge6" class="edge"><title>Node5&#45;&gt;Node6</title>
<path fill="none" stroke="midnightblue" d="M545.574,-150.258C569.206,-144.979 597.383,-138.686 622.548,-133.065"/>
<polygon fill="midnightblue" stroke="midnightblue" points="544.743,-146.857 535.746,-152.453 546.269,-153.689 544.743,-146.857"/>
</g>
<!-- Node6&#45;&gt;Node3 -->
<g id="edge7" class="edge"><title>Node6&#45;&gt;Node3</title>
<path fill="none" stroke="midnightblue" d="M766.642,-135.377C783.112,-139.211 800.425,-143.242 816.456,-146.974"/>
<polygon fill="midnightblue" stroke="midnightblue" points="767.048,-131.878 756.514,-133.019 765.46,-138.696 767.048,-131.878"/>
</g>
<!-- Node10 -->
<g id="node10" class="node"><title>Node10</title>
<g id="a_node10"><a xlink:href="../../d4/d3f/classcomponents_1_1_vars_tab.html#a1e48c3f7ead529596e018a72cd6ef159" target="_top" xlink:title="components.VarsTab.VarsTab">
<polygon fill="white" stroke="black" points="414,-5.5 414,-24.5 570,-24.5 570,-5.5 414,-5.5"/>
<text text-anchor="middle" x="492" y="-12.5" font-family="Helvetica,sans-Serif" font-size="10.00">components.VarsTab.VarsTab</text>
</a>
</g>
</g>
<!-- Node9&#45;&gt;Node10 -->
<g id="edge12" class="edge"><title>Node9&#45;&gt;Node10</title>
<path fill="none" stroke="midnightblue" d="M378.458,-15C390.235,-15 402.285,-15 413.916,-15"/>
<polygon fill="midnightblue" stroke="midnightblue" points="378.197,-11.5001 368.197,-15 378.197,-18.5001 378.197,-11.5001"/>
</g>
</g>
</svg>
