<?xml version="1.0" encoding="UTF-8" standalone="no"?>
<!DOCTYPE svg PUBLIC "-//W3C//DTD SVG 1.1//EN"
 "http://www.w3.org/Graphics/SVG/1.1/DTD/svg11.dtd">
<!-- Generated by graphviz version 2.36.0 (20140111.2315)
 -->
<!-- Title: properties.Position.getY Pages: 1 -->
<svg width="978pt" height="77pt"
 viewBox="0.00 0.00 978.00 77.00" xmlns="http://www.w3.org/2000/svg" xmlns:xlink="http://www.w3.org/1999/xlink">
<g id="graph0" class="graph" transform="scale(1 1) rotate(0) translate(4 73)">
<title>properties.Position.getY</title>
<polygon fill="white" stroke="none" points="-4,4 -4,-73 974,-73 974,4 -4,4"/>
<!-- Node1 -->
<g id="node1" class="node"><title>Node1</title>
<polygon fill="#bfbfbf" stroke="black" points="0,-27.5 0,-46.5 130,-46.5 130,-27.5 0,-27.5"/>
<text text-anchor="middle" x="65" y="-34.5" font-family="Helvetica,sans-Serif" font-size="10.00">properties.Position.getY</text>
</g>
<!-- Node2 -->
<g id="node2" class="node"><title>Node2</title>
<g id="a_node2"><a xlink:href="../../d4/d4a/classactor_1_1_turtle.html#a79fbed5e65c4226a72e94c8d205ff286" target="_top" xlink:title="actor.Turtle.getY">
<polygon fill="white" stroke="black" points="197.5,-49.5 197.5,-68.5 290.5,-68.5 290.5,-49.5 197.5,-49.5"/>
<text text-anchor="middle" x="244" y="-56.5" font-family="Helvetica,sans-Serif" font-size="10.00">actor.Turtle.getY</text>
</a>
</g>
</g>
<!-- Node1&#45;&gt;Node2 -->
<g id="edge1" class="edge"><title>Node1&#45;&gt;Node2</title>
<path fill="none" stroke="midnightblue" d="M140.191,-46.2215C159.593,-48.633 179.937,-51.1617 197.36,-53.3272"/>
<polygon fill="midnightblue" stroke="midnightblue" points="140.507,-42.7339 130.151,-44.9736 139.643,-49.6804 140.507,-42.7339"/>
</g>
<!-- Node4 -->
<g id="node4" class="node"><title>Node4</title>
<g id="a_node4"><a xlink:href="../../dc/d0a/classfeatures_1_1_display_turtle.html#a06ca557d3458cbcec4fda12263280cc2" target="_top" xlink:title="features.DisplayTurtle.update\lPosition">
<polygon fill="white" stroke="black" points="166,-0 166,-30 322,-30 322,-0 166,-0"/>
<text text-anchor="start" x="174" y="-18" font-family="Helvetica,sans-Serif" font-size="10.00">features.DisplayTurtle.update</text>
<text text-anchor="middle" x="244" y="-7" font-family="Helvetica,sans-Serif" font-size="10.00">Position</text>
</a>
</g>
</g>
<!-- Node1&#45;&gt;Node4 -->
<g id="edge3" class="edge"><title>Node1&#45;&gt;Node4</title>
<path fill="none" stroke="midnightblue" d="M140.319,-27.7626C148.744,-26.7155 157.345,-25.6464 165.805,-24.5948"/>
<polygon fill="midnightblue" stroke="midnightblue" points="139.643,-24.3196 130.151,-29.0264 140.507,-31.2661 139.643,-24.3196"/>
</g>
<!-- Node3 -->
<g id="node3" class="node"><title>Node3</title>
<g id="a_node3"><a xlink:href="../../df/d85/classcommand_1_1_y_coordinate_command.html#aa8680225e692c7603505fae487efeb47" target="_top" xlink:title="command.YCoordinateCommand.execute">
<polygon fill="white" stroke="black" points="358.5,-49.5 358.5,-68.5 575.5,-68.5 575.5,-49.5 358.5,-49.5"/>
<text text-anchor="middle" x="467" y="-56.5" font-family="Helvetica,sans-Serif" font-size="10.00">command.YCoordinateCommand.execute</text>
</a>
</g>
</g>
<!-- Node2&#45;&gt;Node3 -->
<g id="edge2" class="edge"><title>Node2&#45;&gt;Node3</title>
<path fill="none" stroke="midnightblue" d="M300.551,-59C318.103,-59 338.135,-59 358.057,-59"/>
<polygon fill="midnightblue" stroke="midnightblue" points="300.523,-55.5001 290.523,-59 300.523,-62.5001 300.523,-55.5001"/>
</g>
<!-- Node5 -->
<g id="node5" class="node"><title>Node5</title>
<g id="a_node5"><a xlink:href="../../d6/d68/classcomponents_1_1_turtle_manager.html#aebd8b3f5c5eae3df7add8ce3d690aa47" target="_top" xlink:title="components.TurtleManager.update">
<polygon fill="white" stroke="black" points="375.5,-5.5 375.5,-24.5 558.5,-24.5 558.5,-5.5 375.5,-5.5"/>
<text text-anchor="middle" x="467" y="-12.5" font-family="Helvetica,sans-Serif" font-size="10.00">components.TurtleManager.update</text>
</a>
</g>
</g>
<!-- Node4&#45;&gt;Node5 -->
<g id="edge4" class="edge"><title>Node4&#45;&gt;Node5</title>
<path fill="none" stroke="midnightblue" d="M332.481,-15C346.616,-15 361.278,-15 375.483,-15"/>
<polygon fill="midnightblue" stroke="midnightblue" points="332.295,-11.5001 322.295,-15 332.295,-18.5001 332.295,-11.5001"/>
</g>
<!-- Node6 -->
<g id="node6" class="node"><title>Node6</title>
<g id="a_node6"><a xlink:href="../../da/d5b/classcomponents_1_1_center_pane.html#a97ff274041990d893a5eb4eaefc27ce0" target="_top" xlink:title="components.CenterPane.update\lTurtlePosition">
<polygon fill="white" stroke="black" points="612,-0 612,-30 784,-30 784,-0 612,-0"/>
<text text-anchor="start" x="620" y="-18" font-family="Helvetica,sans-Serif" font-size="10.00">components.CenterPane.update</text>
<text text-anchor="middle" x="698" y="-7" font-family="Helvetica,sans-Serif" font-size="10.00">TurtlePosition</text>
</a>
</g>
</g>
<!-- Node5&#45;&gt;Node6 -->
<g id="edge5" class="edge"><title>Node5&#45;&gt;Node6</title>
<path fill="none" stroke="midnightblue" d="M568.913,-15C583.293,-15 597.963,-15 611.998,-15"/>
<polygon fill="midnightblue" stroke="midnightblue" points="568.507,-11.5001 558.507,-15 568.507,-18.5001 568.507,-11.5001"/>
</g>
<!-- Node7 -->
<g id="node7" class="node"><title>Node7</title>
<g id="a_node7"><a xlink:href="../../d3/de0/classmain_application_1_1_g_u_i.html#ad575c58d2f282f0123d80fb31c11553e" target="_top" xlink:title="mainApplication.GUI.update">
<polygon fill="white" stroke="black" points="820,-5.5 820,-24.5 970,-24.5 970,-5.5 820,-5.5"/>
<text text-anchor="middle" x="895" y="-12.5" font-family="Helvetica,sans-Serif" font-size="10.00">mainApplication.GUI.update</text>
</a>
</g>
</g>
<!-- Node6&#45;&gt;Node7 -->
<g id="edge6" class="edge"><title>Node6&#45;&gt;Node7</title>
<path fill="none" stroke="midnightblue" d="M794.319,-15C802.923,-15 811.549,-15 819.929,-15"/>
<polygon fill="midnightblue" stroke="midnightblue" points="794.246,-11.5001 784.246,-15 794.246,-18.5001 794.246,-11.5001"/>
</g>
</g>
</svg>
