<?xml version="1.0" encoding="UTF-8" standalone="no"?>
<!DOCTYPE svg PUBLIC "-//W3C//DTD SVG 1.1//EN"
 "http://www.w3.org/Graphics/SVG/1.1/DTD/svg11.dtd">
<!-- Generated by graphviz version 2.36.0 (20140111.2315)
 -->
<!-- Title: properties.Position.getX Pages: 1 -->
<svg width="980pt" height="112pt"
 viewBox="0.00 0.00 980.00 112.00" xmlns="http://www.w3.org/2000/svg" xmlns:xlink="http://www.w3.org/1999/xlink">
<g id="graph0" class="graph" transform="scale(1 1) rotate(0) translate(4 108)">
<title>properties.Position.getX</title>
<polygon fill="white" stroke="none" points="-4,4 -4,-108 976,-108 976,4 -4,4"/>
<!-- Node1 -->
<g id="node1" class="node"><title>Node1</title>
<polygon fill="#bfbfbf" stroke="black" points="0.5,-27.5 0.5,-46.5 131.5,-46.5 131.5,-27.5 0.5,-27.5"/>
<text text-anchor="middle" x="66" y="-34.5" font-family="Helvetica,sans-Serif" font-size="10.00">properties.Position.getX</text>
</g>
<!-- Node2 -->
<g id="node2" class="node"><title>Node2</title>
<g id="a_node2"><a xlink:href="../../d4/d4a/classactor_1_1_turtle.html#a68c1e4d30e1f04bd7c4ab63a34a3e89e" target="_top" xlink:title="actor.Turtle.getX">
<polygon fill="white" stroke="black" points="199,-49.5 199,-68.5 293,-68.5 293,-49.5 199,-49.5"/>
<text text-anchor="middle" x="246" y="-56.5" font-family="Helvetica,sans-Serif" font-size="10.00">actor.Turtle.getX</text>
</a>
</g>
</g>
<!-- Node1&#45;&gt;Node2 -->
<g id="edge1" class="edge"><title>Node1&#45;&gt;Node2</title>
<path fill="none" stroke="midnightblue" d="M141.565,-46.2159C160.988,-48.6165 181.354,-51.1336 198.828,-53.2933"/>
<polygon fill="midnightblue" stroke="midnightblue" points="141.868,-42.7267 131.514,-44.9736 141.009,-49.6739 141.868,-42.7267"/>
</g>
<!-- Node5 -->
<g id="node5" class="node"><title>Node5</title>
<g id="a_node5"><a xlink:href="../../dc/d0a/classfeatures_1_1_display_turtle.html#a06ca557d3458cbcec4fda12263280cc2" target="_top" xlink:title="features.DisplayTurtle.update\lPosition">
<polygon fill="white" stroke="black" points="168,-0 168,-30 324,-30 324,-0 168,-0"/>
<text text-anchor="start" x="176" y="-18" font-family="Helvetica,sans-Serif" font-size="10.00">features.DisplayTurtle.update</text>
<text text-anchor="middle" x="246" y="-7" font-family="Helvetica,sans-Serif" font-size="10.00">Position</text>
</a>
</g>
</g>
<!-- Node1&#45;&gt;Node5 -->
<g id="edge4" class="edge"><title>Node1&#45;&gt;Node5</title>
<path fill="none" stroke="midnightblue" d="M141.632,-27.7759C150.342,-26.6993 159.241,-25.5995 167.983,-24.519"/>
<polygon fill="midnightblue" stroke="midnightblue" points="141.009,-24.3261 131.514,-29.0264 141.868,-31.2733 141.009,-24.3261"/>
</g>
<!-- Node3 -->
<g id="node3" class="node"><title>Node3</title>
<g id="a_node3"><a xlink:href="../../dc/db0/classcommand_1_1_x_coordinate_command.html#a60873413068e287188401253638a8705" target="_top" xlink:title="command.XCoordinateCommand.execute">
<polygon fill="white" stroke="black" points="360,-84.5 360,-103.5 578,-103.5 578,-84.5 360,-84.5"/>
<text text-anchor="middle" x="469" y="-91.5" font-family="Helvetica,sans-Serif" font-size="10.00">command.XCoordinateCommand.execute</text>
</a>
</g>
</g>
<!-- Node2&#45;&gt;Node3 -->
<g id="edge2" class="edge"><title>Node2&#45;&gt;Node3</title>
<path fill="none" stroke="midnightblue" d="M303.13,-67.8894C335.081,-72.9494 375.109,-79.2888 407.723,-84.4539"/>
<polygon fill="midnightblue" stroke="midnightblue" points="303.484,-64.4019 293.06,-66.2945 302.389,-71.3158 303.484,-64.4019"/>
</g>
<!-- Node4 -->
<g id="node4" class="node"><title>Node4</title>
<g id="a_node4"><a xlink:href="../../de/d33/classparser_1_1_test_parser.html#a93efc93146678909fa1c24a6727460ae" target="_top" xlink:title="parser.TestParser.TestTo">
<polygon fill="white" stroke="black" points="404.5,-46.5 404.5,-65.5 533.5,-65.5 533.5,-46.5 404.5,-46.5"/>
<text text-anchor="middle" x="469" y="-53.5" font-family="Helvetica,sans-Serif" font-size="10.00">parser.TestParser.TestTo</text>
</a>
</g>
</g>
<!-- Node2&#45;&gt;Node4 -->
<g id="edge3" class="edge"><title>Node2&#45;&gt;Node4</title>
<path fill="none" stroke="midnightblue" d="M303.217,-58.2369C334.076,-57.818 372.45,-57.2971 404.4,-56.8633"/>
<polygon fill="midnightblue" stroke="midnightblue" points="303.011,-54.7392 293.06,-58.3748 303.106,-61.7386 303.011,-54.7392"/>
</g>
<!-- Node6 -->
<g id="node6" class="node"><title>Node6</title>
<g id="a_node6"><a xlink:href="../../d6/d68/classcomponents_1_1_turtle_manager.html#aebd8b3f5c5eae3df7add8ce3d690aa47" target="_top" xlink:title="components.TurtleManager.update">
<polygon fill="white" stroke="black" points="377.5,-5.5 377.5,-24.5 560.5,-24.5 560.5,-5.5 377.5,-5.5"/>
<text text-anchor="middle" x="469" y="-12.5" font-family="Helvetica,sans-Serif" font-size="10.00">components.TurtleManager.update</text>
</a>
</g>
</g>
<!-- Node5&#45;&gt;Node6 -->
<g id="edge5" class="edge"><title>Node5&#45;&gt;Node6</title>
<path fill="none" stroke="midnightblue" d="M334.481,-15C348.616,-15 363.278,-15 377.483,-15"/>
<polygon fill="midnightblue" stroke="midnightblue" points="334.295,-11.5001 324.295,-15 334.295,-18.5001 334.295,-11.5001"/>
</g>
<!-- Node7 -->
<g id="node7" class="node"><title>Node7</title>
<g id="a_node7"><a xlink:href="../../da/d5b/classcomponents_1_1_center_pane.html#a97ff274041990d893a5eb4eaefc27ce0" target="_top" xlink:title="components.CenterPane.update\lTurtlePosition">
<polygon fill="white" stroke="black" points="614,-0 614,-30 786,-30 786,-0 614,-0"/>
<text text-anchor="start" x="622" y="-18" font-family="Helvetica,sans-Serif" font-size="10.00">components.CenterPane.update</text>
<text text-anchor="middle" x="700" y="-7" font-family="Helvetica,sans-Serif" font-size="10.00">TurtlePosition</text>
</a>
</g>
</g>
<!-- Node6&#45;&gt;Node7 -->
<g id="edge6" class="edge"><title>Node6&#45;&gt;Node7</title>
<path fill="none" stroke="midnightblue" d="M570.913,-15C585.293,-15 599.963,-15 613.998,-15"/>
<polygon fill="midnightblue" stroke="midnightblue" points="570.507,-11.5001 560.507,-15 570.507,-18.5001 570.507,-11.5001"/>
</g>
<!-- Node8 -->
<g id="node8" class="node"><title>Node8</title>
<g id="a_node8"><a xlink:href="../../d3/de0/classmain_application_1_1_g_u_i.html#ad575c58d2f282f0123d80fb31c11553e" target="_top" xlink:title="mainApplication.GUI.update">
<polygon fill="white" stroke="black" points="822,-5.5 822,-24.5 972,-24.5 972,-5.5 822,-5.5"/>
<text text-anchor="middle" x="897" y="-12.5" font-family="Helvetica,sans-Serif" font-size="10.00">mainApplication.GUI.update</text>
</a>
</g>
</g>
<!-- Node7&#45;&gt;Node8 -->
<g id="edge7" class="edge"><title>Node7&#45;&gt;Node8</title>
<path fill="none" stroke="midnightblue" d="M796.319,-15C804.923,-15 813.549,-15 821.929,-15"/>
<polygon fill="midnightblue" stroke="midnightblue" points="796.246,-11.5001 786.246,-15 796.246,-18.5001 796.246,-11.5001"/>
</g>
</g>
</svg>
