<?xml version="1.0" encoding="UTF-8" standalone="no"?>
<!DOCTYPE svg PUBLIC "-//W3C//DTD SVG 1.1//EN"
 "http://www.w3.org/Graphics/SVG/1.1/DTD/svg11.dtd">
<!-- Generated by graphviz version 2.36.0 (20140111.2315)
 -->
<!-- Title: properties.Position.getAngle Pages: 1 -->
<svg width="982pt" height="77pt"
 viewBox="0.00 0.00 982.00 77.00" xmlns="http://www.w3.org/2000/svg" xmlns:xlink="http://www.w3.org/1999/xlink">
<g id="graph0" class="graph" transform="scale(1 1) rotate(0) translate(4 73)">
<title>properties.Position.getAngle</title>
<polygon fill="white" stroke="none" points="-4,4 -4,-73 978,-73 978,4 -4,4"/>
<!-- Node1 -->
<g id="node1" class="node"><title>Node1</title>
<polygon fill="#bfbfbf" stroke="black" points="0,-27.5 0,-46.5 152,-46.5 152,-27.5 0,-27.5"/>
<text text-anchor="middle" x="76" y="-34.5" font-family="Helvetica,sans-Serif" font-size="10.00">properties.Position.getAngle</text>
</g>
<!-- Node2 -->
<g id="node2" class="node"><title>Node2</title>
<g id="a_node2"><a xlink:href="../../d4/d4a/classactor_1_1_turtle.html#ac14c312749b99c1dc8619a8feab8d283" target="_top" xlink:title="actor.Turtle.getAngle">
<polygon fill="white" stroke="black" points="208.5,-49.5 208.5,-68.5 323.5,-68.5 323.5,-49.5 208.5,-49.5"/>
<text text-anchor="middle" x="266" y="-56.5" font-family="Helvetica,sans-Serif" font-size="10.00">actor.Turtle.getAngle</text>
</a>
</g>
</g>
<!-- Node1&#45;&gt;Node2 -->
<g id="edge1" class="edge"><title>Node1&#45;&gt;Node2</title>
<path fill="none" stroke="midnightblue" d="M162.285,-46.9802C177.863,-48.8031 193.762,-50.6637 208.253,-52.3594"/>
<polygon fill="midnightblue" stroke="midnightblue" points="162.452,-43.4759 152.113,-45.7898 161.638,-50.4285 162.452,-43.4759"/>
</g>
<!-- Node4 -->
<g id="node4" class="node"><title>Node4</title>
<g id="a_node4"><a xlink:href="../../dc/d0a/classfeatures_1_1_display_turtle.html#a06ca557d3458cbcec4fda12263280cc2" target="_top" xlink:title="features.DisplayTurtle.update\lPosition">
<polygon fill="white" stroke="black" points="188,-0 188,-30 344,-30 344,-0 188,-0"/>
<text text-anchor="start" x="196" y="-18" font-family="Helvetica,sans-Serif" font-size="10.00">features.DisplayTurtle.update</text>
<text text-anchor="middle" x="266" y="-7" font-family="Helvetica,sans-Serif" font-size="10.00">Position</text>
</a>
</g>
</g>
<!-- Node1&#45;&gt;Node4 -->
<g id="edge3" class="edge"><title>Node1&#45;&gt;Node4</title>
<path fill="none" stroke="midnightblue" d="M162.117,-27.0395C170.693,-26.0359 179.369,-25.0207 187.855,-24.0277"/>
<polygon fill="midnightblue" stroke="midnightblue" points="161.638,-23.5715 152.113,-28.2102 162.452,-30.5241 161.638,-23.5715"/>
</g>
<!-- Node3 -->
<g id="node3" class="node"><title>Node3</title>
<g id="a_node3"><a xlink:href="../../d9/da8/classcommand_1_1_heading_command.html#a2330c46d5e28bd54d62104b7578fb7fb" target="_top" xlink:title="command.HeadingCommand.execute">
<polygon fill="white" stroke="black" points="380,-49.5 380,-68.5 580,-68.5 580,-49.5 380,-49.5"/>
<text text-anchor="middle" x="480" y="-56.5" font-family="Helvetica,sans-Serif" font-size="10.00">command.HeadingCommand.execute</text>
</a>
</g>
</g>
<!-- Node2&#45;&gt;Node3 -->
<g id="edge2" class="edge"><title>Node2&#45;&gt;Node3</title>
<path fill="none" stroke="midnightblue" d="M333.908,-59C348.458,-59 364.151,-59 379.654,-59"/>
<polygon fill="midnightblue" stroke="midnightblue" points="333.534,-55.5001 323.534,-59 333.534,-62.5001 333.534,-55.5001"/>
</g>
<!-- Node5 -->
<g id="node5" class="node"><title>Node5</title>
<g id="a_node5"><a xlink:href="../../d6/d68/classcomponents_1_1_turtle_manager.html#aebd8b3f5c5eae3df7add8ce3d690aa47" target="_top" xlink:title="components.TurtleManager.update">
<polygon fill="white" stroke="black" points="388.5,-5.5 388.5,-24.5 571.5,-24.5 571.5,-5.5 388.5,-5.5"/>
<text text-anchor="middle" x="480" y="-12.5" font-family="Helvetica,sans-Serif" font-size="10.00">components.TurtleManager.update</text>
</a>
</g>
</g>
<!-- Node4&#45;&gt;Node5 -->
<g id="edge4" class="edge"><title>Node4&#45;&gt;Node5</title>
<path fill="none" stroke="midnightblue" d="M354.32,-15C365.512,-15 376.991,-15 388.236,-15"/>
<polygon fill="midnightblue" stroke="midnightblue" points="354.137,-11.5001 344.137,-15 354.137,-18.5001 354.137,-11.5001"/>
</g>
<!-- Node6 -->
<g id="node6" class="node"><title>Node6</title>
<g id="a_node6"><a xlink:href="../../da/d5b/classcomponents_1_1_center_pane.html#a97ff274041990d893a5eb4eaefc27ce0" target="_top" xlink:title="components.CenterPane.update\lTurtlePosition">
<polygon fill="white" stroke="black" points="616,-0 616,-30 788,-30 788,-0 616,-0"/>
<text text-anchor="start" x="624" y="-18" font-family="Helvetica,sans-Serif" font-size="10.00">components.CenterPane.update</text>
<text text-anchor="middle" x="702" y="-7" font-family="Helvetica,sans-Serif" font-size="10.00">TurtlePosition</text>
</a>
</g>
</g>
<!-- Node5&#45;&gt;Node6 -->
<g id="edge5" class="edge"><title>Node5&#45;&gt;Node6</title>
<path fill="none" stroke="midnightblue" d="M582.052,-15C593.32,-15 604.715,-15 615.758,-15"/>
<polygon fill="midnightblue" stroke="midnightblue" points="581.753,-11.5001 571.753,-15 581.753,-18.5001 581.753,-11.5001"/>
</g>
<!-- Node7 -->
<g id="node7" class="node"><title>Node7</title>
<g id="a_node7"><a xlink:href="../../d3/de0/classmain_application_1_1_g_u_i.html#ad575c58d2f282f0123d80fb31c11553e" target="_top" xlink:title="mainApplication.GUI.update">
<polygon fill="white" stroke="black" points="824,-5.5 824,-24.5 974,-24.5 974,-5.5 824,-5.5"/>
<text text-anchor="middle" x="899" y="-12.5" font-family="Helvetica,sans-Serif" font-size="10.00">mainApplication.GUI.update</text>
</a>
</g>
</g>
<!-- Node6&#45;&gt;Node7 -->
<g id="edge6" class="edge"><title>Node6&#45;&gt;Node7</title>
<path fill="none" stroke="midnightblue" d="M798.319,-15C806.923,-15 815.549,-15 823.929,-15"/>
<polygon fill="midnightblue" stroke="midnightblue" points="798.246,-11.5001 788.246,-15 798.246,-18.5001 798.246,-11.5001"/>
</g>
</g>
</svg>
