<?xml version="1.0" encoding="UTF-8" standalone="no"?>
<!DOCTYPE svg PUBLIC "-//W3C//DTD SVG 1.1//EN"
 "http://www.w3.org/Graphics/SVG/1.1/DTD/svg11.dtd">
<!-- Generated by graphviz version 2.36.0 (20140111.2315)
 -->
<!-- Title: features.SettingsBar.addComboBox Pages: 1 -->
<svg width="886pt" height="102pt"
 viewBox="0.00 0.00 886.00 102.26" xmlns="http://www.w3.org/2000/svg" xmlns:xlink="http://www.w3.org/1999/xlink">
<g id="graph0" class="graph" transform="scale(1 1) rotate(0) translate(4 98.2605)">
<title>features.SettingsBar.addComboBox</title>
<polygon fill="white" stroke="none" points="-4,4 -4,-98.2605 882,-98.2605 882,4 -4,4"/>
<!-- Node1 -->
<g id="node1" class="node"><title>Node1</title>
<polygon fill="#bfbfbf" stroke="black" points="0,-49 0,-79 136,-79 136,-49 0,-49"/>
<text text-anchor="start" x="8" y="-67" font-family="Helvetica,sans-Serif" font-size="10.00">features.SettingsBar.add</text>
<text text-anchor="middle" x="68" y="-56" font-family="Helvetica,sans-Serif" font-size="10.00">ComboBox</text>
</g>
<!-- Node2 -->
<g id="node2" class="node"><title>Node2</title>
<g id="a_node2"><a xlink:href="../../d3/de0/classmain_application_1_1_g_u_i.html#a5b9d9bebac3a8ce813b0134ecdafc66d" target="_top" xlink:title="mainApplication.GUI.load\lPanes">
<polygon fill="white" stroke="black" points="172.5,-49 172.5,-79 309.5,-79 309.5,-49 172.5,-49"/>
<text text-anchor="start" x="180.5" y="-67" font-family="Helvetica,sans-Serif" font-size="10.00">mainApplication.GUI.load</text>
<text text-anchor="middle" x="241" y="-56" font-family="Helvetica,sans-Serif" font-size="10.00">Panes</text>
</a>
</g>
</g>
<!-- Node1&#45;&gt;Node2 -->
<g id="edge1" class="edge"><title>Node1&#45;&gt;Node2</title>
<path fill="none" stroke="midnightblue" d="M146.216,-64C154.902,-64 163.704,-64 172.258,-64"/>
<polygon fill="midnightblue" stroke="midnightblue" points="146.093,-60.5001 136.093,-64 146.093,-67.5001 146.093,-60.5001"/>
</g>
<!-- Node3 -->
<g id="node3" class="node"><title>Node3</title>
<g id="a_node3"><a xlink:href="../../d3/de0/classmain_application_1_1_g_u_i.html#af6bd387013dbd1d1daf030117da66c0e" target="_top" xlink:title="mainApplication.GUI.initiate">
<polygon fill="white" stroke="black" points="346.5,-54.5 346.5,-73.5 495.5,-73.5 495.5,-54.5 346.5,-54.5"/>
<text text-anchor="middle" x="421" y="-61.5" font-family="Helvetica,sans-Serif" font-size="10.00">mainApplication.GUI.initiate</text>
</a>
</g>
</g>
<!-- Node2&#45;&gt;Node3 -->
<g id="edge2" class="edge"><title>Node2&#45;&gt;Node3</title>
<path fill="none" stroke="midnightblue" d="M319.782,-64C328.576,-64 337.518,-64 346.258,-64"/>
<polygon fill="midnightblue" stroke="midnightblue" points="319.548,-60.5001 309.548,-64 319.548,-67.5001 319.548,-60.5001"/>
</g>
<!-- Node4 -->
<g id="node4" class="node"><title>Node4</title>
<g id="a_node4"><a xlink:href="../../d3/d04/classmain_application_1_1_g_u_i_shell.html#ac525a3e483dbe24e5f9f0257fe54521d" target="_top" xlink:title="mainApplication.GUIShell.\lGUIShell">
<polygon fill="white" stroke="black" points="738,-49 738,-79 878,-79 878,-49 738,-49"/>
<text text-anchor="start" x="746" y="-67" font-family="Helvetica,sans-Serif" font-size="10.00">mainApplication.GUIShell.</text>
<text text-anchor="middle" x="808" y="-56" font-family="Helvetica,sans-Serif" font-size="10.00">GUIShell</text>
</a>
</g>
</g>
<!-- Node3&#45;&gt;Node4 -->
<g id="edge3" class="edge"><title>Node3&#45;&gt;Node4</title>
<path fill="none" stroke="midnightblue" d="M466.835,-76.0673C486.648,-80.8049 510.321,-85.6625 532,-88 607.12,-96.0997 626.921,-96.4712 702,-88 718.352,-86.155 735.869,-82.7425 751.818,-79.0582"/>
<polygon fill="midnightblue" stroke="midnightblue" points="467.404,-72.603 456.858,-73.6148 465.733,-79.4007 467.404,-72.603"/>
</g>
<!-- Node5 -->
<g id="node5" class="node"><title>Node5</title>
<g id="a_node5"><a xlink:href="../../d3/d04/classmain_application_1_1_g_u_i_shell.html#a9df214dfffdce7a39bc6ac5e84ca1f0f" target="_top" xlink:title="mainApplication.GUIShell.create\lNewButton">
<polygon fill="white" stroke="black" points="532,-49 532,-79 702,-79 702,-49 532,-49"/>
<text text-anchor="start" x="540" y="-67" font-family="Helvetica,sans-Serif" font-size="10.00">mainApplication.GUIShell.create</text>
<text text-anchor="middle" x="617" y="-56" font-family="Helvetica,sans-Serif" font-size="10.00">NewButton</text>
</a>
</g>
</g>
<!-- Node3&#45;&gt;Node5 -->
<g id="edge4" class="edge"><title>Node3&#45;&gt;Node5</title>
<path fill="none" stroke="midnightblue" d="M505.668,-64C514.298,-64 523.071,-64 531.708,-64"/>
<polygon fill="midnightblue" stroke="midnightblue" points="505.62,-60.5001 495.62,-64 505.62,-67.5001 505.62,-60.5001"/>
</g>
<!-- Node6 -->
<g id="node6" class="node"><title>Node6</title>
<g id="a_node6"><a xlink:href="../../d3/d04/classmain_application_1_1_g_u_i_shell.html#af2f106fa7786f13ccc0202db53b559b9" target="_top" xlink:title="mainApplication.GUIShell.create\lOpenButton">
<polygon fill="white" stroke="black" points="532,-0 532,-30 702,-30 702,-0 532,-0"/>
<text text-anchor="start" x="540" y="-18" font-family="Helvetica,sans-Serif" font-size="10.00">mainApplication.GUIShell.create</text>
<text text-anchor="middle" x="617" y="-7" font-family="Helvetica,sans-Serif" font-size="10.00">OpenButton</text>
</a>
</g>
</g>
<!-- Node3&#45;&gt;Node6 -->
<g id="edge6" class="edge"><title>Node3&#45;&gt;Node6</title>
<path fill="none" stroke="midnightblue" d="M469.566,-51.9858C495.779,-45.365 528.566,-37.0839 556.466,-30.037"/>
<polygon fill="midnightblue" stroke="midnightblue" points="468.704,-48.5936 459.866,-54.436 470.418,-55.3805 468.704,-48.5936"/>
</g>
<!-- Node5&#45;&gt;Node4 -->
<g id="edge5" class="edge"><title>Node5&#45;&gt;Node4</title>
<path fill="none" stroke="midnightblue" d="M712.359,-64C720.965,-64 729.572,-64 737.896,-64"/>
<polygon fill="midnightblue" stroke="midnightblue" points="712.274,-60.5001 702.274,-64 712.274,-67.5001 712.274,-60.5001"/>
</g>
<!-- Node6&#45;&gt;Node4 -->
<g id="edge7" class="edge"><title>Node6&#45;&gt;Node4</title>
<path fill="none" stroke="midnightblue" d="M685.692,-32.5498C706.447,-37.9306 729.082,-43.799 749.119,-48.9938"/>
<polygon fill="midnightblue" stroke="midnightblue" points="686.549,-29.1563 675.991,-30.0346 684.792,-35.9323 686.549,-29.1563"/>
</g>
</g>
</svg>
