<?xml version="1.0" encoding="UTF-8" standalone="no"?>
<!DOCTYPE svg PUBLIC "-//W3C//DTD SVG 1.1//EN"
 "http://www.w3.org/Graphics/SVG/1.1/DTD/svg11.dtd">
<!-- Generated by graphviz version 2.36.0 (20140111.2315)
 -->
<!-- Title: command.Command.getNumInputs Pages: 1 -->
<!--zoomable 985 -->
<svg id="main" version="1.1" xmlns="http://www.w3.org/2000/svg" xmlns:xlink="http://www.w3.org/1999/xlink" xml:space="preserve" onload="init(evt)">
<style type="text/css"><![CDATA[
.edge:hover path { stroke: red; }
.edge:hover polygon { stroke: red; fill: red; }
]]></style>
<script type="text/javascript"><![CDATA[
var edges = document.getElementsByTagName('g');
if (edges && edges.length) {
  for (var i=0;i<edges.length;i++) {
    if (edges[i].id.substr(0,4)=='edge') {
      edges[i].setAttribute('class','edge');
    }
  }
}
]]></script>
        <defs>
                <circle id="rim" cx="0" cy="0" r="7"/>
                <circle id="rim2" cx="0" cy="0" r="3.5"/>
                <g id="zoomPlus">
                        <use xlink:href="#rim" fill="#404040">
                                <set attributeName="fill" to="#808080" begin="zoomplus.mouseover" end="zoomplus.mouseout"/>
                        </use>
                        <path d="M-4,0h8M0,-4v8" fill="none" stroke="white" stroke-width="1.5" pointer-events="none"/>
                </g>
                <g id="zoomMin">
                        <use xlink:href="#rim" fill="#404040">
                                <set attributeName="fill" to="#808080" begin="zoomminus.mouseover" end="zoomminus.mouseout"/>
                        </use>
                        <path d="M-4,0h8" fill="none" stroke="white" stroke-width="1.5" pointer-events="none"/>
                </g>
                <g id="dirArrow">
                        <path fill="none" stroke="white" stroke-width="1.5" d="M0,-3.0v7 M-2.5,-0.5L0,-3.0L2.5,-0.5"/>
                </g>
               <g id="resetDef">
                       <use xlink:href="#rim2" fill="#404040">
                               <set attributeName="fill" to="#808080" begin="reset.mouseover" end="reset.mouseout"/>
                       </use>
               </g>
        </defs>

<script type="text/javascript">
var viewWidth = 1496;
var viewHeight = 985;
var sectionId = 'dynsection-4';
</script>
<script xlink:href="../../svgpan.js"/>
<svg id="graph" class="graph">
<g id="viewport">
<title>command.Command.getNumInputs</title>
<polygon fill="white" stroke="none" points="-4,4 -4,-981 1492,-981 1492,4 -4,4"/>
<!-- Node1 -->
<g id="node1" class="node"><title>Node1</title>
<polygon fill="#bfbfbf" stroke="black" points="0,-418.5 0,-437.5 190,-437.5 190,-418.5 0,-418.5"/>
<text text-anchor="middle" x="95" y="-425.5" font-family="Helvetica,sans-Serif" font-size="10.00">command.Command.getNumInputs</text>
</g>
<!-- Node2 -->
<g id="node2" class="node"><title>Node2</title>
<g id="a_node2"><a xlink:href="../../d6/d95/classparser_1_1_parser.html#a2fe30e8a728e36fd2626587f059c4b95" target="_top" xlink:title="parser.Parser.makeTree">
<polygon fill="white" stroke="black" points="226,-418.5 226,-437.5 354,-437.5 354,-418.5 226,-418.5"/>
<text text-anchor="middle" x="290" y="-425.5" font-family="Helvetica,sans-Serif" font-size="10.00">parser.Parser.makeTree</text>
</a>
</g>
</g>
<!-- Node1&#45;&gt;Node2 -->
<g id="edge1" class="edge"><title>Node1&#45;&gt;Node2</title>
<path fill="none" stroke="midnightblue" d="M200.406,-428C209.048,-428 217.604,-428 225.796,-428"/>
<polygon fill="midnightblue" stroke="midnightblue" points="200.238,-424.5 190.238,-428 200.238,-431.5 200.238,-424.5"/>
</g>
<!-- Node3 -->
<g id="node3" class="node"><title>Node3</title>
<g id="a_node3"><a xlink:href="../../d6/d95/classparser_1_1_parser.html#a5e98fdfffe49478864dc1b22371d6cb1" target="_top" xlink:title="parser.Parser.parse">
<polygon fill="white" stroke="black" points="390.5,-418.5 390.5,-437.5 499.5,-437.5 499.5,-418.5 390.5,-418.5"/>
<text text-anchor="middle" x="445" y="-425.5" font-family="Helvetica,sans-Serif" font-size="10.00">parser.Parser.parse</text>
</a>
</g>
</g>
<!-- Node2&#45;&gt;Node3 -->
<g id="edge2" class="edge"><title>Node2&#45;&gt;Node3</title>
<path fill="none" stroke="midnightblue" d="M364.335,-428C373.087,-428 381.894,-428 390.297,-428"/>
<polygon fill="midnightblue" stroke="midnightblue" points="364.114,-424.5 354.114,-428 364.114,-431.5 364.114,-424.5"/>
</g>
<!-- Node4 -->
<g id="node4" class="node"><title>Node4</title>
<g id="a_node4"><a xlink:href="../../d7/da1/classmain_application_1_1_controller.html#a6e9afc2e53e6adb01a2b73794a319b63" target="_top" xlink:title="mainApplication.Controller.parse\lAndEvaluate">
<polygon fill="white" stroke="black" points="536,-849 536,-879 708,-879 708,-849 536,-849"/>
<text text-anchor="start" x="544" y="-867" font-family="Helvetica,sans-Serif" font-size="10.00">mainApplication.Controller.parse</text>
<text text-anchor="middle" x="622" y="-856" font-family="Helvetica,sans-Serif" font-size="10.00">AndEvaluate</text>
</a>
</g>
</g>
<!-- Node3&#45;&gt;Node4 -->
<g id="edge3" class="edge"><title>Node3&#45;&gt;Node4</title>
<path fill="none" stroke="midnightblue" d="M447.698,-447.815C454.424,-521.79 481.521,-780.54 536,-839 539.565,-842.826 543.683,-846.077 548.144,-848.838"/>
<polygon fill="midnightblue" stroke="midnightblue" points="451.161,-447.241 446.793,-437.588 444.188,-447.858 451.161,-447.241"/>
</g>
<!-- Node14 -->
<g id="node14" class="node"><title>Node14</title>
<g id="a_node14"><a xlink:href="../../d8/dc3/classparser_1_1_test_model.html#ab542659caca299017b423f7b3b3f648a" target="_top" xlink:title="parser.TestModel.testPosition">
<polygon fill="white" stroke="black" points="544,-810.5 544,-829.5 700,-829.5 700,-810.5 544,-810.5"/>
<text text-anchor="middle" x="622" y="-817.5" font-family="Helvetica,sans-Serif" font-size="10.00">parser.TestModel.testPosition</text>
</a>
</g>
</g>
<!-- Node3&#45;&gt;Node14 -->
<g id="edge16" class="edge"><title>Node3&#45;&gt;Node14</title>
<path fill="none" stroke="midnightblue" d="M448.077,-447.805C455.772,-517.389 484.88,-749.2 536,-800 540.301,-804.274 545.334,-807.701 550.764,-810.441"/>
<polygon fill="midnightblue" stroke="midnightblue" points="451.545,-447.318 446.991,-437.752 444.586,-448.07 451.545,-447.318"/>
</g>
<!-- Node15 -->
<g id="node15" class="node"><title>Node15</title>
<g id="a_node15"><a xlink:href="../../d8/dc3/classparser_1_1_test_model.html#ac4fd1124818e321c4a686cc1cf973254" target="_top" xlink:title="parser.TestModel.testParse\lException">
<polygon fill="white" stroke="black" points="549.5,-761 549.5,-791 694.5,-791 694.5,-761 549.5,-761"/>
<text text-anchor="start" x="557.5" y="-779" font-family="Helvetica,sans-Serif" font-size="10.00">parser.TestModel.testParse</text>
<text text-anchor="middle" x="622" y="-768" font-family="Helvetica,sans-Serif" font-size="10.00">Exception</text>
</a>
</g>
</g>
<!-- Node3&#45;&gt;Node15 -->
<g id="edge17" class="edge"><title>Node3&#45;&gt;Node15</title>
<path fill="none" stroke="midnightblue" d="M445.351,-447.802C444.644,-503.708 450.537,-664.305 536,-751 539.888,-754.944 544.363,-758.272 549.183,-761.081"/>
<polygon fill="midnightblue" stroke="midnightblue" points="448.856,-447.6 445.576,-437.526 441.858,-447.447 448.856,-447.6"/>
</g>
<!-- Node16 -->
<g id="node16" class="node"><title>Node16</title>
<g id="a_node16"><a xlink:href="../../d8/dc3/classparser_1_1_test_model.html#a023bd16aca0a843ec8f4772c96ec2ffb" target="_top" xlink:title="parser.TestModel.testWrite">
<polygon fill="white" stroke="black" points="551,-722.5 551,-741.5 693,-741.5 693,-722.5 551,-722.5"/>
<text text-anchor="middle" x="622" y="-729.5" font-family="Helvetica,sans-Serif" font-size="10.00">parser.TestModel.testWrite</text>
</a>
</g>
</g>
<!-- Node3&#45;&gt;Node16 -->
<g id="edge18" class="edge"><title>Node3&#45;&gt;Node16</title>
<path fill="none" stroke="midnightblue" d="M445.94,-447.803C446.919,-499.695 457.091,-640.599 536,-713 540.345,-716.987 545.339,-720.2 550.684,-722.783"/>
<polygon fill="midnightblue" stroke="midnightblue" points="449.438,-447.594 445.849,-437.625 442.438,-447.656 449.438,-447.594"/>
</g>
<!-- Node17 -->
<g id="node17" class="node"><title>Node17</title>
<g id="a_node17"><a xlink:href="../../de/d33/classparser_1_1_test_parser.html#a2211bce31efddb4c523112a488c02e92" target="_top" xlink:title="parser.TestParser.TestSum">
<polygon fill="white" stroke="black" points="551,-684.5 551,-703.5 693,-703.5 693,-684.5 551,-684.5"/>
<text text-anchor="middle" x="622" y="-691.5" font-family="Helvetica,sans-Serif" font-size="10.00">parser.TestParser.TestSum</text>
</a>
</g>
</g>
<!-- Node3&#45;&gt;Node17 -->
<g id="edge19" class="edge"><title>Node3&#45;&gt;Node17</title>
<path fill="none" stroke="midnightblue" d="M447.036,-447.668C450.618,-494.631 466.461,-613.93 536,-675 540.431,-678.891 545.485,-682.038 550.869,-684.577"/>
<polygon fill="midnightblue" stroke="midnightblue" points="450.522,-447.35 446.376,-437.6 443.537,-447.807 450.522,-447.35"/>
</g>
<!-- Node18 -->
<g id="node18" class="node"><title>Node18</title>
<g id="a_node18"><a xlink:href="../../de/d33/classparser_1_1_test_parser.html#ae799f71307e31127e497d20afdc506ec" target="_top" xlink:title="parser.TestParser.TestDif">
<polygon fill="white" stroke="black" points="556,-646.5 556,-665.5 688,-665.5 688,-646.5 556,-646.5"/>
<text text-anchor="middle" x="622" y="-653.5" font-family="Helvetica,sans-Serif" font-size="10.00">parser.TestParser.TestDif</text>
</a>
</g>
</g>
<!-- Node3&#45;&gt;Node18 -->
<g id="edge20" class="edge"><title>Node3&#45;&gt;Node18</title>
<path fill="none" stroke="midnightblue" d="M448.505,-447.726C454.901,-489.496 475.816,-587.121 536,-637 541.821,-641.824 548.611,-645.489 555.769,-648.263"/>
<polygon fill="midnightblue" stroke="midnightblue" points="451.957,-447.137 447.093,-437.725 445.026,-448.116 451.957,-447.137"/>
</g>
<!-- Node19 -->
<g id="node19" class="node"><title>Node19</title>
<g id="a_node19"><a xlink:href="../../de/d33/classparser_1_1_test_parser.html#a8844bf15d0fe9e809fb466cb35b0ae20" target="_top" xlink:title="parser.TestParser.TestProd">
<polygon fill="white" stroke="black" points="551.5,-608.5 551.5,-627.5 692.5,-627.5 692.5,-608.5 551.5,-608.5"/>
<text text-anchor="middle" x="622" y="-615.5" font-family="Helvetica,sans-Serif" font-size="10.00">parser.TestParser.TestProd</text>
</a>
</g>
</g>
<!-- Node3&#45;&gt;Node19 -->
<g id="edge21" class="edge"><title>Node3&#45;&gt;Node19</title>
<path fill="none" stroke="midnightblue" d="M450.453,-447.31C459.764,-483.142 484.81,-559.833 536,-599 541.044,-602.859 546.721,-605.964 552.687,-608.457"/>
<polygon fill="midnightblue" stroke="midnightblue" points="453.848,-446.46 448.056,-437.588 447.051,-448.135 453.848,-446.46"/>
</g>
<!-- Node20 -->
<g id="node20" class="node"><title>Node20</title>
<g id="a_node20"><a xlink:href="../../de/d33/classparser_1_1_test_parser.html#a9bcfbde1999d45577d42211fcd593121" target="_top" xlink:title="parser.TestParser.TestQuotient">
<polygon fill="white" stroke="black" points="541.5,-570.5 541.5,-589.5 702.5,-589.5 702.5,-570.5 541.5,-570.5"/>
<text text-anchor="middle" x="622" y="-577.5" font-family="Helvetica,sans-Serif" font-size="10.00">parser.TestParser.TestQuotient</text>
</a>
</g>
</g>
<!-- Node3&#45;&gt;Node20 -->
<g id="edge22" class="edge"><title>Node3&#45;&gt;Node20</title>
<path fill="none" stroke="midnightblue" d="M453.399,-447.045C465.817,-476.372 493.722,-532.207 536,-561 541.624,-564.83 547.897,-567.901 554.418,-570.361"/>
<polygon fill="midnightblue" stroke="midnightblue" points="456.54,-445.48 449.526,-437.539 450.057,-448.12 456.54,-445.48"/>
</g>
<!-- Node21 -->
<g id="node21" class="node"><title>Node21</title>
<g id="a_node21"><a xlink:href="../../de/d33/classparser_1_1_test_parser.html#acd110a622f9ac5ef4b4246ea997ec102" target="_top" xlink:title="parser.TestParser.TestRemainder">
<polygon fill="white" stroke="black" points="537,-532.5 537,-551.5 707,-551.5 707,-532.5 537,-532.5"/>
<text text-anchor="middle" x="622" y="-539.5" font-family="Helvetica,sans-Serif" font-size="10.00">parser.TestParser.TestRemainder</text>
</a>
</g>
</g>
<!-- Node3&#45;&gt;Node21 -->
<g id="edge23" class="edge"><title>Node3&#45;&gt;Node21</title>
<path fill="none" stroke="midnightblue" d="M457.867,-445.933C473.238,-467.669 502.113,-503.77 536,-523 542.839,-526.881 550.406,-529.969 558.124,-532.426"/>
<polygon fill="midnightblue" stroke="midnightblue" points="460.68,-443.846 452.132,-437.588 454.912,-447.811 460.68,-443.846"/>
</g>
<!-- Node22 -->
<g id="node22" class="node"><title>Node22</title>
<g id="a_node22"><a xlink:href="../../de/d33/classparser_1_1_test_parser.html#af2b64ced840e8e10f33f74dce480218a" target="_top" xlink:title="parser.TestParser.TestMinus">
<polygon fill="white" stroke="black" points="548.5,-494.5 548.5,-513.5 695.5,-513.5 695.5,-494.5 548.5,-494.5"/>
<text text-anchor="middle" x="622" y="-501.5" font-family="Helvetica,sans-Serif" font-size="10.00">parser.TestParser.TestMinus</text>
</a>
</g>
</g>
<!-- Node3&#45;&gt;Node22 -->
<g id="edge24" class="edge"><title>Node3&#45;&gt;Node22</title>
<path fill="none" stroke="midnightblue" d="M466.371,-443.802C483.916,-456.678 510.386,-474.404 536,-485 545.222,-488.815 555.339,-491.926 565.276,-494.442"/>
<polygon fill="midnightblue" stroke="midnightblue" points="468.163,-440.771 458.062,-437.575 463.965,-446.373 468.163,-440.771"/>
</g>
<!-- Node23 -->
<g id="node23" class="node"><title>Node23</title>
<g id="a_node23"><a xlink:href="../../de/d33/classparser_1_1_test_parser.html#ac13478be4d51a5b8db30db117f6098c8" target="_top" xlink:title="parser.TestParser.TestRandom">
<polygon fill="white" stroke="black" points="542.5,-456.5 542.5,-475.5 701.5,-475.5 701.5,-456.5 542.5,-456.5"/>
<text text-anchor="middle" x="622" y="-463.5" font-family="Helvetica,sans-Serif" font-size="10.00">parser.TestParser.TestRandom</text>
</a>
</g>
</g>
<!-- Node3&#45;&gt;Node23 -->
<g id="edge25" class="edge"><title>Node3&#45;&gt;Node23</title>
<path fill="none" stroke="midnightblue" d="M500.124,-439.753C524.869,-445.126 553.803,-451.409 577.158,-456.48"/>
<polygon fill="midnightblue" stroke="midnightblue" points="500.675,-436.291 490.16,-437.589 499.189,-443.131 500.675,-436.291"/>
</g>
<!-- Node24 -->
<g id="node24" class="node"><title>Node24</title>
<g id="a_node24"><a xlink:href="../../de/d33/classparser_1_1_test_parser.html#aa7724ec4a132ca195c3bd3ee1c81ad73" target="_top" xlink:title="parser.TestParser.TestTrig">
<polygon fill="white" stroke="black" points="554.5,-418.5 554.5,-437.5 689.5,-437.5 689.5,-418.5 554.5,-418.5"/>
<text text-anchor="middle" x="622" y="-425.5" font-family="Helvetica,sans-Serif" font-size="10.00">parser.TestParser.TestTrig</text>
</a>
</g>
</g>
<!-- Node3&#45;&gt;Node24 -->
<g id="edge26" class="edge"><title>Node3&#45;&gt;Node24</title>
<path fill="none" stroke="midnightblue" d="M510.204,-428C524.562,-428 539.822,-428 554.279,-428"/>
<polygon fill="midnightblue" stroke="midnightblue" points="509.934,-424.5 499.934,-428 509.934,-431.5 509.934,-424.5"/>
</g>
<!-- Node25 -->
<g id="node25" class="node"><title>Node25</title>
<g id="a_node25"><a xlink:href="../../de/d33/classparser_1_1_test_parser.html#ada92f24240fae7dfec207bad127e31e7" target="_top" xlink:title="parser.TestParser.TestPow">
<polygon fill="white" stroke="black" points="553,-380.5 553,-399.5 691,-399.5 691,-380.5 553,-380.5"/>
<text text-anchor="middle" x="622" y="-387.5" font-family="Helvetica,sans-Serif" font-size="10.00">parser.TestParser.TestPow</text>
</a>
</g>
</g>
<!-- Node3&#45;&gt;Node25 -->
<g id="edge27" class="edge"><title>Node3&#45;&gt;Node25</title>
<path fill="none" stroke="midnightblue" d="M500.124,-416.247C524.869,-410.874 553.803,-404.591 577.158,-399.52"/>
<polygon fill="midnightblue" stroke="midnightblue" points="499.189,-412.869 490.16,-418.411 500.675,-419.709 499.189,-412.869"/>
</g>
<!-- Node26 -->
<g id="node26" class="node"><title>Node26</title>
<g id="a_node26"><a xlink:href="../../de/d33/classparser_1_1_test_parser.html#a3f8cee68556948d08c53a574a72c8356" target="_top" xlink:title="parser.TestParser.TestBoolean">
<polygon fill="white" stroke="black" points="543,-342.5 543,-361.5 701,-361.5 701,-342.5 543,-342.5"/>
<text text-anchor="middle" x="622" y="-349.5" font-family="Helvetica,sans-Serif" font-size="10.00">parser.TestParser.TestBoolean</text>
</a>
</g>
</g>
<!-- Node3&#45;&gt;Node26 -->
<g id="edge28" class="edge"><title>Node3&#45;&gt;Node26</title>
<path fill="none" stroke="midnightblue" d="M466.371,-412.198C483.916,-399.322 510.386,-381.596 536,-371 545.222,-367.185 555.339,-364.074 565.276,-361.558"/>
<polygon fill="midnightblue" stroke="midnightblue" points="463.965,-409.627 458.062,-418.425 468.163,-415.229 463.965,-409.627"/>
</g>
<!-- Node27 -->
<g id="node27" class="node"><title>Node27</title>
<g id="a_node27"><a xlink:href="../../de/d33/classparser_1_1_test_parser.html#a39be8e4aca3871ce6f29a482a52bcd71" target="_top" xlink:title="parser.TestParser.TestIf">
<polygon fill="white" stroke="black" points="559.5,-304.5 559.5,-323.5 684.5,-323.5 684.5,-304.5 559.5,-304.5"/>
<text text-anchor="middle" x="622" y="-311.5" font-family="Helvetica,sans-Serif" font-size="10.00">parser.TestParser.TestIf</text>
</a>
</g>
</g>
<!-- Node3&#45;&gt;Node27 -->
<g id="edge29" class="edge"><title>Node3&#45;&gt;Node27</title>
<path fill="none" stroke="midnightblue" d="M457.867,-410.067C473.238,-388.331 502.113,-352.23 536,-333 543.233,-328.895 551.282,-325.677 559.461,-323.155"/>
<polygon fill="midnightblue" stroke="midnightblue" points="454.912,-408.189 452.132,-418.412 460.68,-412.154 454.912,-408.189"/>
</g>
<!-- Node28 -->
<g id="node28" class="node"><title>Node28</title>
<g id="a_node28"><a xlink:href="../../de/d33/classparser_1_1_test_parser.html#ac22ad278ed612557e83ed90884fedff4" target="_top" xlink:title="parser.TestParser.TestIfElse">
<polygon fill="white" stroke="black" points="550,-266.5 550,-285.5 694,-285.5 694,-266.5 550,-266.5"/>
<text text-anchor="middle" x="622" y="-273.5" font-family="Helvetica,sans-Serif" font-size="10.00">parser.TestParser.TestIfElse</text>
</a>
</g>
</g>
<!-- Node3&#45;&gt;Node28 -->
<g id="edge30" class="edge"><title>Node3&#45;&gt;Node28</title>
<path fill="none" stroke="midnightblue" d="M453.399,-408.955C465.817,-379.628 493.722,-323.793 536,-295 541.624,-291.17 547.897,-288.099 554.418,-285.639"/>
<polygon fill="midnightblue" stroke="midnightblue" points="450.057,-407.88 449.526,-418.461 456.54,-410.52 450.057,-407.88"/>
</g>
<!-- Node29 -->
<g id="node29" class="node"><title>Node29</title>
<g id="a_node29"><a xlink:href="../../de/d33/classparser_1_1_test_parser.html#aac27b9d8c48ae78dd9252dd65be9aeea" target="_top" xlink:title="parser.TestParser.TestSum2">
<polygon fill="white" stroke="black" points="548,-228.5 548,-247.5 696,-247.5 696,-228.5 548,-228.5"/>
<text text-anchor="middle" x="622" y="-235.5" font-family="Helvetica,sans-Serif" font-size="10.00">parser.TestParser.TestSum2</text>
</a>
</g>
</g>
<!-- Node3&#45;&gt;Node29 -->
<g id="edge31" class="edge"><title>Node3&#45;&gt;Node29</title>
<path fill="none" stroke="midnightblue" d="M450.453,-408.69C459.764,-372.858 484.81,-296.167 536,-257 541.044,-253.141 546.721,-250.036 552.687,-247.543"/>
<polygon fill="midnightblue" stroke="midnightblue" points="447.051,-407.865 448.056,-418.412 453.848,-409.54 447.051,-407.865"/>
</g>
<!-- Node30 -->
<g id="node30" class="node"><title>Node30</title>
<g id="a_node30"><a xlink:href="../../de/d33/classparser_1_1_test_parser.html#a616e3d3359a2feaf24149915c6aea8c8" target="_top" xlink:title="parser.TestParser.TestForward">
<polygon fill="white" stroke="black" points="543.5,-190.5 543.5,-209.5 700.5,-209.5 700.5,-190.5 543.5,-190.5"/>
<text text-anchor="middle" x="622" y="-197.5" font-family="Helvetica,sans-Serif" font-size="10.00">parser.TestParser.TestForward</text>
</a>
</g>
</g>
<!-- Node3&#45;&gt;Node30 -->
<g id="edge32" class="edge"><title>Node3&#45;&gt;Node30</title>
<path fill="none" stroke="midnightblue" d="M448.505,-408.274C454.901,-366.504 475.816,-268.879 536,-219 540.657,-215.14 545.934,-212.023 551.523,-209.51"/>
<polygon fill="midnightblue" stroke="midnightblue" points="445.026,-407.884 447.093,-418.275 451.957,-408.863 445.026,-407.884"/>
</g>
<!-- Node31 -->
<g id="node31" class="node"><title>Node31</title>
<g id="a_node31"><a xlink:href="../../de/d33/classparser_1_1_test_parser.html#a914384055dd7ca9ea5c617ab0bb5e0c0" target="_top" xlink:title="parser.TestParser.TestMake">
<polygon fill="white" stroke="black" points="549.5,-152.5 549.5,-171.5 694.5,-171.5 694.5,-152.5 549.5,-152.5"/>
<text text-anchor="middle" x="622" y="-159.5" font-family="Helvetica,sans-Serif" font-size="10.00">parser.TestParser.TestMake</text>
</a>
</g>
</g>
<!-- Node3&#45;&gt;Node31 -->
<g id="edge33" class="edge"><title>Node3&#45;&gt;Node31</title>
<path fill="none" stroke="midnightblue" d="M447.036,-408.332C450.618,-361.369 466.461,-242.07 536,-181 540.317,-177.208 545.226,-174.124 550.455,-171.62"/>
<polygon fill="midnightblue" stroke="midnightblue" points="443.537,-408.193 446.376,-418.4 450.522,-408.65 443.537,-408.193"/>
</g>
<!-- Node32 -->
<g id="node32" class="node"><title>Node32</title>
<g id="a_node32"><a xlink:href="../../de/d33/classparser_1_1_test_parser.html#a7861269b842fcf079433cbe0a933e8db" target="_top" xlink:title="parser.TestParser.TestRepeat">
<polygon fill="white" stroke="black" points="546,-114.5 546,-133.5 698,-133.5 698,-114.5 546,-114.5"/>
<text text-anchor="middle" x="622" y="-121.5" font-family="Helvetica,sans-Serif" font-size="10.00">parser.TestParser.TestRepeat</text>
</a>
</g>
</g>
<!-- Node3&#45;&gt;Node32 -->
<g id="edge34" class="edge"><title>Node3&#45;&gt;Node32</title>
<path fill="none" stroke="midnightblue" d="M445.94,-408.197C446.919,-356.305 457.091,-215.401 536,-143 540.122,-139.218 544.829,-136.132 549.864,-133.62"/>
<polygon fill="midnightblue" stroke="midnightblue" points="442.438,-408.344 445.849,-418.375 449.438,-408.406 442.438,-408.344"/>
</g>
<!-- Node33 -->
<g id="node33" class="node"><title>Node33</title>
<g id="a_node33"><a xlink:href="../../de/d33/classparser_1_1_test_parser.html#ad6cc42523d881f5a69c5cf307364ce38" target="_top" xlink:title="parser.TestParser.TestFor">
<polygon fill="white" stroke="black" points="555,-76.5 555,-95.5 689,-95.5 689,-76.5 555,-76.5"/>
<text text-anchor="middle" x="622" y="-83.5" font-family="Helvetica,sans-Serif" font-size="10.00">parser.TestParser.TestFor</text>
</a>
</g>
</g>
<!-- Node3&#45;&gt;Node33 -->
<g id="edge35" class="edge"><title>Node3&#45;&gt;Node33</title>
<path fill="none" stroke="midnightblue" d="M448.806,-408.36C458.244,-345.045 490.8,-147.916 536,-105 541.373,-99.8983 547.804,-96.0535 554.69,-93.1714"/>
<polygon fill="midnightblue" stroke="midnightblue" points="445.343,-407.854 447.359,-418.256 452.269,-408.868 445.343,-407.854"/>
</g>
<!-- Node34 -->
<g id="node34" class="node"><title>Node34</title>
<g id="a_node34"><a xlink:href="../../de/d33/classparser_1_1_test_parser.html#a93efc93146678909fa1c24a6727460ae" target="_top" xlink:title="parser.TestParser.TestTo">
<polygon fill="white" stroke="black" points="557.5,-38.5 557.5,-57.5 686.5,-57.5 686.5,-38.5 557.5,-38.5"/>
<text text-anchor="middle" x="622" y="-45.5" font-family="Helvetica,sans-Serif" font-size="10.00">parser.TestParser.TestTo</text>
</a>
</g>
</g>
<!-- Node3&#45;&gt;Node34 -->
<g id="edge36" class="edge"><title>Node3&#45;&gt;Node34</title>
<path fill="none" stroke="midnightblue" d="M448.248,-407.886C456.325,-339.235 486.073,-115.722 536,-67 541.952,-61.1915 549.27,-57.0018 557.092,-54.0035"/>
<polygon fill="midnightblue" stroke="midnightblue" points="444.729,-407.848 447.064,-418.182 451.684,-408.647 444.729,-407.848"/>
</g>
<!-- Node35 -->
<g id="node35" class="node"><title>Node35</title>
<g id="a_node35"><a xlink:href="../../de/d33/classparser_1_1_test_parser.html#a3ab06721c75424d63da6d4380ae7ad5e" target="_top" xlink:title="parser.TestParser.TestRecursion">
<polygon fill="white" stroke="black" points="539.5,-0.5 539.5,-19.5 704.5,-19.5 704.5,-0.5 539.5,-0.5"/>
<text text-anchor="middle" x="622" y="-7.5" font-family="Helvetica,sans-Serif" font-size="10.00">parser.TestParser.TestRecursion</text>
</a>
</g>
</g>
<!-- Node3&#45;&gt;Node35 -->
<g id="edge37" class="edge"><title>Node3&#45;&gt;Node35</title>
<path fill="none" stroke="midnightblue" d="M447.71,-408.172C454.393,-335.309 481.135,-83.7589 536,-29 539.746,-25.2613 544.056,-22.1898 548.707,-19.6729"/>
<polygon fill="midnightblue" stroke="midnightblue" points="444.211,-408.003 446.808,-418.274 451.183,-408.625 444.211,-408.003"/>
</g>
<!-- Node5 -->
<g id="node5" class="node"><title>Node5</title>
<g id="a_node5"><a xlink:href="../../d4/d3f/classcomponents_1_1_vars_tab.html#aa51dee8d24322ee37e4399858794ee8b" target="_top" xlink:title="components.VarsTab.setTab\lEditable">
<polygon fill="white" stroke="black" points="754,-947 754,-977 904,-977 904,-947 754,-947"/>
<text text-anchor="start" x="762" y="-965" font-family="Helvetica,sans-Serif" font-size="10.00">components.VarsTab.setTab</text>
<text text-anchor="middle" x="829" y="-954" font-family="Helvetica,sans-Serif" font-size="10.00">Editable</text>
</a>
</g>
</g>
<!-- Node4&#45;&gt;Node5 -->
<g id="edge4" class="edge"><title>Node4&#45;&gt;Node5</title>
<path fill="none" stroke="midnightblue" d="M652.958,-885.023C676.763,-900.987 711.366,-922.581 744,-937 752.35,-940.69 761.401,-944.023 770.365,-946.965"/>
<polygon fill="midnightblue" stroke="midnightblue" points="654.63,-881.928 644.39,-879.207 650.698,-887.719 654.63,-881.928"/>
</g>
<!-- Node7 -->
<g id="node7" class="node"><title>Node7</title>
<g id="a_node7"><a xlink:href="../../dd/dca/classfeatures_1_1_pen_width_slider_feature.html#aac6e7c0d0c6f5e1afde3d8a3c8e788e6" target="_top" xlink:title="features.PenWidthSliderFeature.\lPenWidthSliderFeature">
<polygon fill="white" stroke="black" points="744,-898 744,-928 914,-928 914,-898 744,-898"/>
<text text-anchor="start" x="752" y="-916" font-family="Helvetica,sans-Serif" font-size="10.00">features.PenWidthSliderFeature.</text>
<text text-anchor="middle" x="829" y="-905" font-family="Helvetica,sans-Serif" font-size="10.00">PenWidthSliderFeature</text>
</a>
</g>
</g>
<!-- Node4&#45;&gt;Node7 -->
<g id="edge6" class="edge"><title>Node4&#45;&gt;Node7</title>
<path fill="none" stroke="midnightblue" d="M695.812,-881.404C718.49,-886.824 743.289,-892.752 765.219,-897.994"/>
<polygon fill="midnightblue" stroke="midnightblue" points="696.44,-877.955 685.9,-879.035 694.812,-884.764 696.44,-877.955"/>
</g>
<!-- Node8 -->
<g id="node8" class="node"><title>Node8</title>
<g id="a_node8"><a xlink:href="../../de/d10/classfeatures_1_1_run_button_feature.html#ada33a09e0a0259486754b597f2d7b0c7" target="_top" xlink:title="features.RunButtonFeature.\lRunButtonFeature">
<polygon fill="white" stroke="black" points="755,-849 755,-879 903,-879 903,-849 755,-849"/>
<text text-anchor="start" x="763" y="-867" font-family="Helvetica,sans-Serif" font-size="10.00">features.RunButtonFeature.</text>
<text text-anchor="middle" x="829" y="-856" font-family="Helvetica,sans-Serif" font-size="10.00">RunButtonFeature</text>
</a>
</g>
</g>
<!-- Node4&#45;&gt;Node8 -->
<g id="edge7" class="edge"><title>Node4&#45;&gt;Node8</title>
<path fill="none" stroke="midnightblue" d="M718.399,-864C730.649,-864 743.034,-864 754.851,-864"/>
<polygon fill="midnightblue" stroke="midnightblue" points="718.158,-860.5 708.158,-864 718.157,-867.5 718.158,-860.5"/>
</g>
<!-- Node9 -->
<g id="node9" class="node"><title>Node9</title>
<g id="a_node9"><a xlink:href="../../d3/de0/classmain_application_1_1_g_u_i.html#a60b2e396c945ac173bfd82f207f42000" target="_top" xlink:title="mainApplication.GUI.initiate\lKeyPress">
<polygon fill="white" stroke="black" points="754.5,-800 754.5,-830 903.5,-830 903.5,-800 754.5,-800"/>
<text text-anchor="start" x="762.5" y="-818" font-family="Helvetica,sans-Serif" font-size="10.00">mainApplication.GUI.initiate</text>
<text text-anchor="middle" x="829" y="-807" font-family="Helvetica,sans-Serif" font-size="10.00">KeyPress</text>
</a>
</g>
</g>
<!-- Node4&#45;&gt;Node9 -->
<g id="edge8" class="edge"><title>Node4&#45;&gt;Node9</title>
<path fill="none" stroke="midnightblue" d="M695.812,-846.596C718.49,-841.176 743.289,-835.248 765.219,-830.006"/>
<polygon fill="midnightblue" stroke="midnightblue" points="694.812,-843.236 685.9,-848.965 696.44,-850.045 694.812,-843.236"/>
</g>
<!-- Node13 -->
<g id="node13" class="node"><title>Node13</title>
<g id="a_node13"><a xlink:href="../../d3/d04/classmain_application_1_1_g_u_i_shell.html#af2f106fa7786f13ccc0202db53b559b9" target="_top" xlink:title="mainApplication.GUIShell.create\lOpenButton">
<polygon fill="white" stroke="black" points="1142,-753 1142,-783 1312,-783 1312,-753 1142,-753"/>
<text text-anchor="start" x="1150" y="-771" font-family="Helvetica,sans-Serif" font-size="10.00">mainApplication.GUIShell.create</text>
<text text-anchor="middle" x="1227" y="-760" font-family="Helvetica,sans-Serif" font-size="10.00">OpenButton</text>
</a>
</g>
</g>
<!-- Node4&#45;&gt;Node13 -->
<g id="edge15" class="edge"><title>Node4&#45;&gt;Node13</title>
<path fill="none" stroke="midnightblue" d="M698.971,-844.512C702.107,-842.823 705.133,-840.99 708,-839 729.908,-823.796 720.44,-803.491 744,-791 873.9,-722.132 1052.22,-736.879 1151.53,-752.963"/>
<polygon fill="midnightblue" stroke="midnightblue" points="697.371,-841.398 689.891,-848.901 700.417,-847.701 697.371,-841.398"/>
</g>
<!-- Node6 -->
<g id="node6" class="node"><title>Node6</title>
<g id="a_node6"><a xlink:href="../../d4/d3f/classcomponents_1_1_vars_tab.html#a1e48c3f7ead529596e018a72cd6ef159" target="_top" xlink:title="components.VarsTab.VarsTab">
<polygon fill="white" stroke="black" points="950,-952.5 950,-971.5 1106,-971.5 1106,-952.5 950,-952.5"/>
<text text-anchor="middle" x="1028" y="-959.5" font-family="Helvetica,sans-Serif" font-size="10.00">components.VarsTab.VarsTab</text>
</a>
</g>
</g>
<!-- Node5&#45;&gt;Node6 -->
<g id="edge5" class="edge"><title>Node5&#45;&gt;Node6</title>
<path fill="none" stroke="midnightblue" d="M914.458,-962C926.235,-962 938.285,-962 949.916,-962"/>
<polygon fill="midnightblue" stroke="midnightblue" points="914.197,-958.5 904.197,-962 914.197,-965.5 914.197,-958.5"/>
</g>
<!-- Node10 -->
<g id="node10" class="node"><title>Node10</title>
<g id="a_node10"><a xlink:href="../../d3/de0/classmain_application_1_1_g_u_i.html#af6bd387013dbd1d1daf030117da66c0e" target="_top" xlink:title="mainApplication.GUI.initiate">
<polygon fill="white" stroke="black" points="953.5,-806.5 953.5,-825.5 1102.5,-825.5 1102.5,-806.5 953.5,-806.5"/>
<text text-anchor="middle" x="1028" y="-813.5" font-family="Helvetica,sans-Serif" font-size="10.00">mainApplication.GUI.initiate</text>
</a>
</g>
</g>
<!-- Node9&#45;&gt;Node10 -->
<g id="edge9" class="edge"><title>Node9&#45;&gt;Node10</title>
<path fill="none" stroke="midnightblue" d="M913.662,-815.425C926.889,-815.492 940.48,-815.561 953.454,-815.627"/>
<polygon fill="midnightblue" stroke="midnightblue" points="913.653,-811.925 903.636,-815.374 913.618,-818.925 913.653,-811.925"/>
</g>
<!-- Node11 -->
<g id="node11" class="node"><title>Node11</title>
<g id="a_node11"><a xlink:href="../../d3/d04/classmain_application_1_1_g_u_i_shell.html#ac525a3e483dbe24e5f9f0257fe54521d" target="_top" xlink:title="mainApplication.GUIShell.\lGUIShell">
<polygon fill="white" stroke="black" points="1348,-802 1348,-832 1488,-832 1488,-802 1348,-802"/>
<text text-anchor="start" x="1356" y="-820" font-family="Helvetica,sans-Serif" font-size="10.00">mainApplication.GUIShell.</text>
<text text-anchor="middle" x="1418" y="-809" font-family="Helvetica,sans-Serif" font-size="10.00">GUIShell</text>
</a>
</g>
</g>
<!-- Node10&#45;&gt;Node11 -->
<g id="edge10" class="edge"><title>Node10&#45;&gt;Node11</title>
<path fill="none" stroke="midnightblue" d="M1072.63,-827.979C1093.45,-833.096 1118.83,-838.467 1142,-841 1217.11,-849.209 1236.92,-849.471 1312,-841 1328.35,-839.155 1345.87,-835.743 1361.82,-832.058"/>
<polygon fill="midnightblue" stroke="midnightblue" points="1073.35,-824.552 1062.8,-825.5 1071.64,-831.339 1073.35,-824.552"/>
</g>
<!-- Node12 -->
<g id="node12" class="node"><title>Node12</title>
<g id="a_node12"><a xlink:href="../../d3/d04/classmain_application_1_1_g_u_i_shell.html#a9df214dfffdce7a39bc6ac5e84ca1f0f" target="_top" xlink:title="mainApplication.GUIShell.create\lNewButton">
<polygon fill="white" stroke="black" points="1142,-802 1142,-832 1312,-832 1312,-802 1142,-802"/>
<text text-anchor="start" x="1150" y="-820" font-family="Helvetica,sans-Serif" font-size="10.00">mainApplication.GUIShell.create</text>
<text text-anchor="middle" x="1227" y="-809" font-family="Helvetica,sans-Serif" font-size="10.00">NewButton</text>
</a>
</g>
</g>
<!-- Node10&#45;&gt;Node12 -->
<g id="edge11" class="edge"><title>Node10&#45;&gt;Node12</title>
<path fill="none" stroke="midnightblue" d="M1112.93,-816.426C1122.51,-816.475 1132.27,-816.524 1141.85,-816.573"/>
<polygon fill="midnightblue" stroke="midnightblue" points="1112.65,-812.925 1102.64,-816.374 1112.62,-819.925 1112.65,-812.925"/>
</g>
<!-- Node10&#45;&gt;Node13 -->
<g id="edge13" class="edge"><title>Node10&#45;&gt;Node13</title>
<path fill="none" stroke="midnightblue" d="M1078.4,-803.964C1104.4,-797.628 1136.54,-789.798 1164.18,-783.063"/>
<polygon fill="midnightblue" stroke="midnightblue" points="1077.28,-800.634 1068.39,-806.402 1078.94,-807.435 1077.28,-800.634"/>
</g>
<!-- Node12&#45;&gt;Node11 -->
<g id="edge12" class="edge"><title>Node12&#45;&gt;Node11</title>
<path fill="none" stroke="midnightblue" d="M1322.36,-817C1330.96,-817 1339.57,-817 1347.9,-817"/>
<polygon fill="midnightblue" stroke="midnightblue" points="1322.27,-813.5 1312.27,-817 1322.27,-820.5 1322.27,-813.5"/>
</g>
<!-- Node13&#45;&gt;Node11 -->
<g id="edge14" class="edge"><title>Node13&#45;&gt;Node11</title>
<path fill="none" stroke="midnightblue" d="M1295.69,-785.55C1316.45,-790.931 1339.08,-796.799 1359.12,-801.994"/>
<polygon fill="midnightblue" stroke="midnightblue" points="1296.55,-782.156 1285.99,-783.035 1294.79,-788.932 1296.55,-782.156"/>
</g>
</g>
</svg>
        <g id="navigator" transform="translate(0 0)" fill="#404254">
                <rect fill="#f2f5e9" fill-opacity="0.5" stroke="#606060" stroke-width=".5" x="0" y="0" width="60" height="60"/>
                <use id="zoomplus" xlink:href="#zoomPlus" x="17" y="9" onmousedown="handleZoom(evt,'in')"/>
                <use id="zoomminus" xlink:href="#zoomMin" x="42" y="9" onmousedown="handleZoom(evt,'out')"/>
                <use id="reset" xlink:href="#resetDef" x="30" y="36" onmousedown="handleReset()"/>
                <g id="arrowUp" xlink:href="#dirArrow" transform="translate(30 24)" onmousedown="handlePan(0,-1)">
                  <use xlink:href="#rim" fill="#404040">
                        <set attributeName="fill" to="#808080" begin="arrowUp.mouseover" end="arrowUp.mouseout"/>
                  </use>
                  <path fill="none" stroke="white" stroke-width="1.5" d="M0,-3.0v7 M-2.5,-0.5L0,-3.0L2.5,-0.5"/>
                </g>
                <g id="arrowRight" xlink:href="#dirArrow" transform="rotate(90) translate(36 -43)" onmousedown="handlePan(1,0)">
                  <use xlink:href="#rim" fill="#404040">
                        <set attributeName="fill" to="#808080" begin="arrowRight.mouseover" end="arrowRight.mouseout"/>
                  </use>
                  <path fill="none" stroke="white" stroke-width="1.5" d="M0,-3.0v7 M-2.5,-0.5L0,-3.0L2.5,-0.5"/>
                </g>
                <g id="arrowDown" xlink:href="#dirArrow" transform="rotate(180) translate(-30 -48)" onmousedown="handlePan(0,1)">
                  <use xlink:href="#rim" fill="#404040">
                        <set attributeName="fill" to="#808080" begin="arrowDown.mouseover" end="arrowDown.mouseout"/>
                  </use>
                  <path fill="none" stroke="white" stroke-width="1.5" d="M0,-3.0v7 M-2.5,-0.5L0,-3.0L2.5,-0.5"/>
                </g>
                <g id="arrowLeft" xlink:href="#dirArrow" transform="rotate(270) translate(-36 17)" onmousedown="handlePan(-1,0)">
                  <use xlink:href="#rim" fill="#404040">
                        <set attributeName="fill" to="#808080" begin="arrowLeft.mouseover" end="arrowLeft.mouseout"/>
                  </use>
                  <path fill="none" stroke="white" stroke-width="1.5" d="M0,-3.0v7 M-2.5,-0.5L0,-3.0L2.5,-0.5"/>
                </g>
        </g>
        <svg viewBox="0 0 15 15" width="100%" height="30px" preserveAspectRatio="xMaxYMin meet">
         <g id="arrow_out" transform="scale(0.3 0.3)">
          <a xlink:href="classcommand_1_1_command_a81d128e8b4ac11d732d24edcbc5c2a88_icgraph_org.svg" target="_base">
           <rect id="button" ry="5" rx="5" y="6" x="6" height="38" width="38"
                fill="#f2f5e9" fill-opacity="0.5" stroke="#606060" stroke-width="1.0"/>
           <path id="arrow"
             d="M 11.500037,31.436501 C 11.940474,20.09759 22.043105,11.32322 32.158766,21.979434 L 37.068811,17.246167 C 37.068811,17.246167 37.088388,32 37.088388,32 L 22.160133,31.978069 C 22.160133,31.978069 26.997745,27.140456 26.997745,27.140456 C 18.528582,18.264221 13.291696,25.230495 11.500037,31.436501 z"
             style="fill:#404040;"/>
          </a>
         </g>
        </svg>
</svg>
