<?xml version="1.0" encoding="UTF-8" standalone="no"?>
<!DOCTYPE svg PUBLIC "-//W3C//DTD SVG 1.1//EN"
 "http://www.w3.org/Graphics/SVG/1.1/DTD/svg11.dtd">
<!-- Generated by graphviz version 2.36.0 (20140111.2315)
 -->
<!-- Title: command.Command.checkListExit Pages: 1 -->
<svg width="1716pt" height="985pt"
 viewBox="0.00 0.00 1716.00 985.00" xmlns="http://www.w3.org/2000/svg" xmlns:xlink="http://www.w3.org/1999/xlink">
<g id="graph0" class="graph" transform="scale(1 1) rotate(0) translate(4 981)">
<title>command.Command.checkListExit</title>
<polygon fill="white" stroke="none" points="-4,4 -4,-981 1712,-981 1712,4 -4,4"/>
<!-- Node1 -->
<g id="node1" class="node"><title>Node1</title>
<polygon fill="#bfbfbf" stroke="black" points="0.5,-418.5 0.5,-437.5 183.5,-437.5 183.5,-418.5 0.5,-418.5"/>
<text text-anchor="middle" x="92" y="-425.5" font-family="Helvetica,sans-Serif" font-size="10.00">command.Command.checkListExit</text>
</g>
<!-- Node2 -->
<g id="node2" class="node"><title>Node2</title>
<g id="a_node2"><a xlink:href="../../d7/d35/classcommand_1_1_command.html#a81d128e8b4ac11d732d24edcbc5c2a88" target="_top" xlink:title="command.Command.getNumInputs">
<polygon fill="white" stroke="black" points="220,-418.5 220,-437.5 410,-437.5 410,-418.5 220,-418.5"/>
<text text-anchor="middle" x="315" y="-425.5" font-family="Helvetica,sans-Serif" font-size="10.00">command.Command.getNumInputs</text>
</a>
</g>
</g>
<!-- Node1&#45;&gt;Node2 -->
<g id="edge1" class="edge"><title>Node1&#45;&gt;Node2</title>
<path fill="none" stroke="midnightblue" d="M193.648,-428C202.312,-428 211.058,-428 219.67,-428"/>
<polygon fill="midnightblue" stroke="midnightblue" points="193.527,-424.5 183.527,-428 193.527,-431.5 193.527,-424.5"/>
</g>
<!-- Node3 -->
<g id="node3" class="node"><title>Node3</title>
<g id="a_node3"><a xlink:href="../../d6/d95/classparser_1_1_parser.html#a2fe30e8a728e36fd2626587f059c4b95" target="_top" xlink:title="parser.Parser.makeTree">
<polygon fill="white" stroke="black" points="446,-418.5 446,-437.5 574,-437.5 574,-418.5 446,-418.5"/>
<text text-anchor="middle" x="510" y="-425.5" font-family="Helvetica,sans-Serif" font-size="10.00">parser.Parser.makeTree</text>
</a>
</g>
</g>
<!-- Node2&#45;&gt;Node3 -->
<g id="edge2" class="edge"><title>Node2&#45;&gt;Node3</title>
<path fill="none" stroke="midnightblue" d="M420.406,-428C429.048,-428 437.604,-428 445.796,-428"/>
<polygon fill="midnightblue" stroke="midnightblue" points="420.238,-424.5 410.238,-428 420.238,-431.5 420.238,-424.5"/>
</g>
<!-- Node4 -->
<g id="node4" class="node"><title>Node4</title>
<g id="a_node4"><a xlink:href="../../d6/d95/classparser_1_1_parser.html#a5e98fdfffe49478864dc1b22371d6cb1" target="_top" xlink:title="parser.Parser.parse">
<polygon fill="white" stroke="black" points="610.5,-418.5 610.5,-437.5 719.5,-437.5 719.5,-418.5 610.5,-418.5"/>
<text text-anchor="middle" x="665" y="-425.5" font-family="Helvetica,sans-Serif" font-size="10.00">parser.Parser.parse</text>
</a>
</g>
</g>
<!-- Node3&#45;&gt;Node4 -->
<g id="edge3" class="edge"><title>Node3&#45;&gt;Node4</title>
<path fill="none" stroke="midnightblue" d="M584.335,-428C593.087,-428 601.894,-428 610.297,-428"/>
<polygon fill="midnightblue" stroke="midnightblue" points="584.114,-424.5 574.114,-428 584.114,-431.5 584.114,-424.5"/>
</g>
<!-- Node5 -->
<g id="node5" class="node"><title>Node5</title>
<g id="a_node5"><a xlink:href="../../d7/da1/classmain_application_1_1_controller.html#a6e9afc2e53e6adb01a2b73794a319b63" target="_top" xlink:title="mainApplication.Controller.parse\lAndEvaluate">
<polygon fill="white" stroke="black" points="756,-849 756,-879 928,-879 928,-849 756,-849"/>
<text text-anchor="start" x="764" y="-867" font-family="Helvetica,sans-Serif" font-size="10.00">mainApplication.Controller.parse</text>
<text text-anchor="middle" x="842" y="-856" font-family="Helvetica,sans-Serif" font-size="10.00">AndEvaluate</text>
</a>
</g>
</g>
<!-- Node4&#45;&gt;Node5 -->
<g id="edge4" class="edge"><title>Node4&#45;&gt;Node5</title>
<path fill="none" stroke="midnightblue" d="M667.698,-447.815C674.424,-521.79 701.521,-780.54 756,-839 759.565,-842.826 763.683,-846.077 768.144,-848.838"/>
<polygon fill="midnightblue" stroke="midnightblue" points="671.161,-447.241 666.793,-437.588 664.188,-447.858 671.161,-447.241"/>
</g>
<!-- Node15 -->
<g id="node15" class="node"><title>Node15</title>
<g id="a_node15"><a xlink:href="../../d8/dc3/classparser_1_1_test_model.html#ab542659caca299017b423f7b3b3f648a" target="_top" xlink:title="parser.TestModel.testPosition">
<polygon fill="white" stroke="black" points="764,-810.5 764,-829.5 920,-829.5 920,-810.5 764,-810.5"/>
<text text-anchor="middle" x="842" y="-817.5" font-family="Helvetica,sans-Serif" font-size="10.00">parser.TestModel.testPosition</text>
</a>
</g>
</g>
<!-- Node4&#45;&gt;Node15 -->
<g id="edge17" class="edge"><title>Node4&#45;&gt;Node15</title>
<path fill="none" stroke="midnightblue" d="M668.077,-447.805C675.772,-517.389 704.88,-749.2 756,-800 760.301,-804.274 765.334,-807.701 770.764,-810.441"/>
<polygon fill="midnightblue" stroke="midnightblue" points="671.545,-447.318 666.991,-437.752 664.586,-448.07 671.545,-447.318"/>
</g>
<!-- Node16 -->
<g id="node16" class="node"><title>Node16</title>
<g id="a_node16"><a xlink:href="../../d8/dc3/classparser_1_1_test_model.html#ac4fd1124818e321c4a686cc1cf973254" target="_top" xlink:title="parser.TestModel.testParse\lException">
<polygon fill="white" stroke="black" points="769.5,-761 769.5,-791 914.5,-791 914.5,-761 769.5,-761"/>
<text text-anchor="start" x="777.5" y="-779" font-family="Helvetica,sans-Serif" font-size="10.00">parser.TestModel.testParse</text>
<text text-anchor="middle" x="842" y="-768" font-family="Helvetica,sans-Serif" font-size="10.00">Exception</text>
</a>
</g>
</g>
<!-- Node4&#45;&gt;Node16 -->
<g id="edge18" class="edge"><title>Node4&#45;&gt;Node16</title>
<path fill="none" stroke="midnightblue" d="M665.351,-447.802C664.644,-503.708 670.537,-664.305 756,-751 759.888,-754.944 764.363,-758.272 769.183,-761.081"/>
<polygon fill="midnightblue" stroke="midnightblue" points="668.856,-447.6 665.576,-437.526 661.858,-447.447 668.856,-447.6"/>
</g>
<!-- Node17 -->
<g id="node17" class="node"><title>Node17</title>
<g id="a_node17"><a xlink:href="../../d8/dc3/classparser_1_1_test_model.html#a023bd16aca0a843ec8f4772c96ec2ffb" target="_top" xlink:title="parser.TestModel.testWrite">
<polygon fill="white" stroke="black" points="771,-722.5 771,-741.5 913,-741.5 913,-722.5 771,-722.5"/>
<text text-anchor="middle" x="842" y="-729.5" font-family="Helvetica,sans-Serif" font-size="10.00">parser.TestModel.testWrite</text>
</a>
</g>
</g>
<!-- Node4&#45;&gt;Node17 -->
<g id="edge19" class="edge"><title>Node4&#45;&gt;Node17</title>
<path fill="none" stroke="midnightblue" d="M665.94,-447.803C666.919,-499.695 677.091,-640.599 756,-713 760.345,-716.987 765.339,-720.2 770.684,-722.783"/>
<polygon fill="midnightblue" stroke="midnightblue" points="669.438,-447.594 665.849,-437.625 662.438,-447.656 669.438,-447.594"/>
</g>
<!-- Node18 -->
<g id="node18" class="node"><title>Node18</title>
<g id="a_node18"><a xlink:href="../../de/d33/classparser_1_1_test_parser.html#a2211bce31efddb4c523112a488c02e92" target="_top" xlink:title="parser.TestParser.TestSum">
<polygon fill="white" stroke="black" points="771,-684.5 771,-703.5 913,-703.5 913,-684.5 771,-684.5"/>
<text text-anchor="middle" x="842" y="-691.5" font-family="Helvetica,sans-Serif" font-size="10.00">parser.TestParser.TestSum</text>
</a>
</g>
</g>
<!-- Node4&#45;&gt;Node18 -->
<g id="edge20" class="edge"><title>Node4&#45;&gt;Node18</title>
<path fill="none" stroke="midnightblue" d="M667.036,-447.668C670.618,-494.631 686.461,-613.93 756,-675 760.431,-678.891 765.485,-682.038 770.869,-684.577"/>
<polygon fill="midnightblue" stroke="midnightblue" points="670.522,-447.35 666.376,-437.6 663.537,-447.807 670.522,-447.35"/>
</g>
<!-- Node19 -->
<g id="node19" class="node"><title>Node19</title>
<g id="a_node19"><a xlink:href="../../de/d33/classparser_1_1_test_parser.html#ae799f71307e31127e497d20afdc506ec" target="_top" xlink:title="parser.TestParser.TestDif">
<polygon fill="white" stroke="black" points="776,-646.5 776,-665.5 908,-665.5 908,-646.5 776,-646.5"/>
<text text-anchor="middle" x="842" y="-653.5" font-family="Helvetica,sans-Serif" font-size="10.00">parser.TestParser.TestDif</text>
</a>
</g>
</g>
<!-- Node4&#45;&gt;Node19 -->
<g id="edge21" class="edge"><title>Node4&#45;&gt;Node19</title>
<path fill="none" stroke="midnightblue" d="M668.505,-447.726C674.901,-489.496 695.816,-587.121 756,-637 761.821,-641.824 768.611,-645.489 775.769,-648.263"/>
<polygon fill="midnightblue" stroke="midnightblue" points="671.957,-447.137 667.093,-437.725 665.026,-448.116 671.957,-447.137"/>
</g>
<!-- Node20 -->
<g id="node20" class="node"><title>Node20</title>
<g id="a_node20"><a xlink:href="../../de/d33/classparser_1_1_test_parser.html#a8844bf15d0fe9e809fb466cb35b0ae20" target="_top" xlink:title="parser.TestParser.TestProd">
<polygon fill="white" stroke="black" points="771.5,-608.5 771.5,-627.5 912.5,-627.5 912.5,-608.5 771.5,-608.5"/>
<text text-anchor="middle" x="842" y="-615.5" font-family="Helvetica,sans-Serif" font-size="10.00">parser.TestParser.TestProd</text>
</a>
</g>
</g>
<!-- Node4&#45;&gt;Node20 -->
<g id="edge22" class="edge"><title>Node4&#45;&gt;Node20</title>
<path fill="none" stroke="midnightblue" d="M670.453,-447.31C679.764,-483.142 704.81,-559.833 756,-599 761.044,-602.859 766.721,-605.964 772.687,-608.457"/>
<polygon fill="midnightblue" stroke="midnightblue" points="673.848,-446.46 668.056,-437.588 667.051,-448.135 673.848,-446.46"/>
</g>
<!-- Node21 -->
<g id="node21" class="node"><title>Node21</title>
<g id="a_node21"><a xlink:href="../../de/d33/classparser_1_1_test_parser.html#a9bcfbde1999d45577d42211fcd593121" target="_top" xlink:title="parser.TestParser.TestQuotient">
<polygon fill="white" stroke="black" points="761.5,-570.5 761.5,-589.5 922.5,-589.5 922.5,-570.5 761.5,-570.5"/>
<text text-anchor="middle" x="842" y="-577.5" font-family="Helvetica,sans-Serif" font-size="10.00">parser.TestParser.TestQuotient</text>
</a>
</g>
</g>
<!-- Node4&#45;&gt;Node21 -->
<g id="edge23" class="edge"><title>Node4&#45;&gt;Node21</title>
<path fill="none" stroke="midnightblue" d="M673.399,-447.045C685.817,-476.372 713.722,-532.207 756,-561 761.624,-564.83 767.897,-567.901 774.418,-570.361"/>
<polygon fill="midnightblue" stroke="midnightblue" points="676.54,-445.48 669.526,-437.539 670.057,-448.12 676.54,-445.48"/>
</g>
<!-- Node22 -->
<g id="node22" class="node"><title>Node22</title>
<g id="a_node22"><a xlink:href="../../de/d33/classparser_1_1_test_parser.html#acd110a622f9ac5ef4b4246ea997ec102" target="_top" xlink:title="parser.TestParser.TestRemainder">
<polygon fill="white" stroke="black" points="757,-532.5 757,-551.5 927,-551.5 927,-532.5 757,-532.5"/>
<text text-anchor="middle" x="842" y="-539.5" font-family="Helvetica,sans-Serif" font-size="10.00">parser.TestParser.TestRemainder</text>
</a>
</g>
</g>
<!-- Node4&#45;&gt;Node22 -->
<g id="edge24" class="edge"><title>Node4&#45;&gt;Node22</title>
<path fill="none" stroke="midnightblue" d="M677.867,-445.933C693.238,-467.669 722.113,-503.77 756,-523 762.839,-526.881 770.406,-529.969 778.124,-532.426"/>
<polygon fill="midnightblue" stroke="midnightblue" points="680.68,-443.846 672.132,-437.588 674.912,-447.811 680.68,-443.846"/>
</g>
<!-- Node23 -->
<g id="node23" class="node"><title>Node23</title>
<g id="a_node23"><a xlink:href="../../de/d33/classparser_1_1_test_parser.html#af2b64ced840e8e10f33f74dce480218a" target="_top" xlink:title="parser.TestParser.TestMinus">
<polygon fill="white" stroke="black" points="768.5,-494.5 768.5,-513.5 915.5,-513.5 915.5,-494.5 768.5,-494.5"/>
<text text-anchor="middle" x="842" y="-501.5" font-family="Helvetica,sans-Serif" font-size="10.00">parser.TestParser.TestMinus</text>
</a>
</g>
</g>
<!-- Node4&#45;&gt;Node23 -->
<g id="edge25" class="edge"><title>Node4&#45;&gt;Node23</title>
<path fill="none" stroke="midnightblue" d="M686.371,-443.802C703.916,-456.678 730.386,-474.404 756,-485 765.222,-488.815 775.339,-491.926 785.276,-494.442"/>
<polygon fill="midnightblue" stroke="midnightblue" points="688.163,-440.771 678.062,-437.575 683.965,-446.373 688.163,-440.771"/>
</g>
<!-- Node24 -->
<g id="node24" class="node"><title>Node24</title>
<g id="a_node24"><a xlink:href="../../de/d33/classparser_1_1_test_parser.html#ac13478be4d51a5b8db30db117f6098c8" target="_top" xlink:title="parser.TestParser.TestRandom">
<polygon fill="white" stroke="black" points="762.5,-456.5 762.5,-475.5 921.5,-475.5 921.5,-456.5 762.5,-456.5"/>
<text text-anchor="middle" x="842" y="-463.5" font-family="Helvetica,sans-Serif" font-size="10.00">parser.TestParser.TestRandom</text>
</a>
</g>
</g>
<!-- Node4&#45;&gt;Node24 -->
<g id="edge26" class="edge"><title>Node4&#45;&gt;Node24</title>
<path fill="none" stroke="midnightblue" d="M720.124,-439.753C744.869,-445.126 773.803,-451.409 797.158,-456.48"/>
<polygon fill="midnightblue" stroke="midnightblue" points="720.675,-436.291 710.16,-437.589 719.189,-443.131 720.675,-436.291"/>
</g>
<!-- Node25 -->
<g id="node25" class="node"><title>Node25</title>
<g id="a_node25"><a xlink:href="../../de/d33/classparser_1_1_test_parser.html#aa7724ec4a132ca195c3bd3ee1c81ad73" target="_top" xlink:title="parser.TestParser.TestTrig">
<polygon fill="white" stroke="black" points="774.5,-418.5 774.5,-437.5 909.5,-437.5 909.5,-418.5 774.5,-418.5"/>
<text text-anchor="middle" x="842" y="-425.5" font-family="Helvetica,sans-Serif" font-size="10.00">parser.TestParser.TestTrig</text>
</a>
</g>
</g>
<!-- Node4&#45;&gt;Node25 -->
<g id="edge27" class="edge"><title>Node4&#45;&gt;Node25</title>
<path fill="none" stroke="midnightblue" d="M730.204,-428C744.562,-428 759.822,-428 774.279,-428"/>
<polygon fill="midnightblue" stroke="midnightblue" points="729.934,-424.5 719.934,-428 729.934,-431.5 729.934,-424.5"/>
</g>
<!-- Node26 -->
<g id="node26" class="node"><title>Node26</title>
<g id="a_node26"><a xlink:href="../../de/d33/classparser_1_1_test_parser.html#ada92f24240fae7dfec207bad127e31e7" target="_top" xlink:title="parser.TestParser.TestPow">
<polygon fill="white" stroke="black" points="773,-380.5 773,-399.5 911,-399.5 911,-380.5 773,-380.5"/>
<text text-anchor="middle" x="842" y="-387.5" font-family="Helvetica,sans-Serif" font-size="10.00">parser.TestParser.TestPow</text>
</a>
</g>
</g>
<!-- Node4&#45;&gt;Node26 -->
<g id="edge28" class="edge"><title>Node4&#45;&gt;Node26</title>
<path fill="none" stroke="midnightblue" d="M720.124,-416.247C744.869,-410.874 773.803,-404.591 797.158,-399.52"/>
<polygon fill="midnightblue" stroke="midnightblue" points="719.189,-412.869 710.16,-418.411 720.675,-419.709 719.189,-412.869"/>
</g>
<!-- Node27 -->
<g id="node27" class="node"><title>Node27</title>
<g id="a_node27"><a xlink:href="../../de/d33/classparser_1_1_test_parser.html#a3f8cee68556948d08c53a574a72c8356" target="_top" xlink:title="parser.TestParser.TestBoolean">
<polygon fill="white" stroke="black" points="763,-342.5 763,-361.5 921,-361.5 921,-342.5 763,-342.5"/>
<text text-anchor="middle" x="842" y="-349.5" font-family="Helvetica,sans-Serif" font-size="10.00">parser.TestParser.TestBoolean</text>
</a>
</g>
</g>
<!-- Node4&#45;&gt;Node27 -->
<g id="edge29" class="edge"><title>Node4&#45;&gt;Node27</title>
<path fill="none" stroke="midnightblue" d="M686.371,-412.198C703.916,-399.322 730.386,-381.596 756,-371 765.222,-367.185 775.339,-364.074 785.276,-361.558"/>
<polygon fill="midnightblue" stroke="midnightblue" points="683.965,-409.627 678.062,-418.425 688.163,-415.229 683.965,-409.627"/>
</g>
<!-- Node28 -->
<g id="node28" class="node"><title>Node28</title>
<g id="a_node28"><a xlink:href="../../de/d33/classparser_1_1_test_parser.html#a39be8e4aca3871ce6f29a482a52bcd71" target="_top" xlink:title="parser.TestParser.TestIf">
<polygon fill="white" stroke="black" points="779.5,-304.5 779.5,-323.5 904.5,-323.5 904.5,-304.5 779.5,-304.5"/>
<text text-anchor="middle" x="842" y="-311.5" font-family="Helvetica,sans-Serif" font-size="10.00">parser.TestParser.TestIf</text>
</a>
</g>
</g>
<!-- Node4&#45;&gt;Node28 -->
<g id="edge30" class="edge"><title>Node4&#45;&gt;Node28</title>
<path fill="none" stroke="midnightblue" d="M677.867,-410.067C693.238,-388.331 722.113,-352.23 756,-333 763.233,-328.895 771.282,-325.677 779.461,-323.155"/>
<polygon fill="midnightblue" stroke="midnightblue" points="674.912,-408.189 672.132,-418.412 680.68,-412.154 674.912,-408.189"/>
</g>
<!-- Node29 -->
<g id="node29" class="node"><title>Node29</title>
<g id="a_node29"><a xlink:href="../../de/d33/classparser_1_1_test_parser.html#ac22ad278ed612557e83ed90884fedff4" target="_top" xlink:title="parser.TestParser.TestIfElse">
<polygon fill="white" stroke="black" points="770,-266.5 770,-285.5 914,-285.5 914,-266.5 770,-266.5"/>
<text text-anchor="middle" x="842" y="-273.5" font-family="Helvetica,sans-Serif" font-size="10.00">parser.TestParser.TestIfElse</text>
</a>
</g>
</g>
<!-- Node4&#45;&gt;Node29 -->
<g id="edge31" class="edge"><title>Node4&#45;&gt;Node29</title>
<path fill="none" stroke="midnightblue" d="M673.399,-408.955C685.817,-379.628 713.722,-323.793 756,-295 761.624,-291.17 767.897,-288.099 774.418,-285.639"/>
<polygon fill="midnightblue" stroke="midnightblue" points="670.057,-407.88 669.526,-418.461 676.54,-410.52 670.057,-407.88"/>
</g>
<!-- Node30 -->
<g id="node30" class="node"><title>Node30</title>
<g id="a_node30"><a xlink:href="../../de/d33/classparser_1_1_test_parser.html#aac27b9d8c48ae78dd9252dd65be9aeea" target="_top" xlink:title="parser.TestParser.TestSum2">
<polygon fill="white" stroke="black" points="768,-228.5 768,-247.5 916,-247.5 916,-228.5 768,-228.5"/>
<text text-anchor="middle" x="842" y="-235.5" font-family="Helvetica,sans-Serif" font-size="10.00">parser.TestParser.TestSum2</text>
</a>
</g>
</g>
<!-- Node4&#45;&gt;Node30 -->
<g id="edge32" class="edge"><title>Node4&#45;&gt;Node30</title>
<path fill="none" stroke="midnightblue" d="M670.453,-408.69C679.764,-372.858 704.81,-296.167 756,-257 761.044,-253.141 766.721,-250.036 772.687,-247.543"/>
<polygon fill="midnightblue" stroke="midnightblue" points="667.051,-407.865 668.056,-418.412 673.848,-409.54 667.051,-407.865"/>
</g>
<!-- Node31 -->
<g id="node31" class="node"><title>Node31</title>
<g id="a_node31"><a xlink:href="../../de/d33/classparser_1_1_test_parser.html#a616e3d3359a2feaf24149915c6aea8c8" target="_top" xlink:title="parser.TestParser.TestForward">
<polygon fill="white" stroke="black" points="763.5,-190.5 763.5,-209.5 920.5,-209.5 920.5,-190.5 763.5,-190.5"/>
<text text-anchor="middle" x="842" y="-197.5" font-family="Helvetica,sans-Serif" font-size="10.00">parser.TestParser.TestForward</text>
</a>
</g>
</g>
<!-- Node4&#45;&gt;Node31 -->
<g id="edge33" class="edge"><title>Node4&#45;&gt;Node31</title>
<path fill="none" stroke="midnightblue" d="M668.505,-408.274C674.901,-366.504 695.816,-268.879 756,-219 760.657,-215.14 765.934,-212.023 771.523,-209.51"/>
<polygon fill="midnightblue" stroke="midnightblue" points="665.026,-407.884 667.093,-418.275 671.957,-408.863 665.026,-407.884"/>
</g>
<!-- Node32 -->
<g id="node32" class="node"><title>Node32</title>
<g id="a_node32"><a xlink:href="../../de/d33/classparser_1_1_test_parser.html#a914384055dd7ca9ea5c617ab0bb5e0c0" target="_top" xlink:title="parser.TestParser.TestMake">
<polygon fill="white" stroke="black" points="769.5,-152.5 769.5,-171.5 914.5,-171.5 914.5,-152.5 769.5,-152.5"/>
<text text-anchor="middle" x="842" y="-159.5" font-family="Helvetica,sans-Serif" font-size="10.00">parser.TestParser.TestMake</text>
</a>
</g>
</g>
<!-- Node4&#45;&gt;Node32 -->
<g id="edge34" class="edge"><title>Node4&#45;&gt;Node32</title>
<path fill="none" stroke="midnightblue" d="M667.036,-408.332C670.618,-361.369 686.461,-242.07 756,-181 760.317,-177.208 765.226,-174.124 770.455,-171.62"/>
<polygon fill="midnightblue" stroke="midnightblue" points="663.537,-408.193 666.376,-418.4 670.522,-408.65 663.537,-408.193"/>
</g>
<!-- Node33 -->
<g id="node33" class="node"><title>Node33</title>
<g id="a_node33"><a xlink:href="../../de/d33/classparser_1_1_test_parser.html#a7861269b842fcf079433cbe0a933e8db" target="_top" xlink:title="parser.TestParser.TestRepeat">
<polygon fill="white" stroke="black" points="766,-114.5 766,-133.5 918,-133.5 918,-114.5 766,-114.5"/>
<text text-anchor="middle" x="842" y="-121.5" font-family="Helvetica,sans-Serif" font-size="10.00">parser.TestParser.TestRepeat</text>
</a>
</g>
</g>
<!-- Node4&#45;&gt;Node33 -->
<g id="edge35" class="edge"><title>Node4&#45;&gt;Node33</title>
<path fill="none" stroke="midnightblue" d="M665.94,-408.197C666.919,-356.305 677.091,-215.401 756,-143 760.122,-139.218 764.829,-136.132 769.864,-133.62"/>
<polygon fill="midnightblue" stroke="midnightblue" points="662.438,-408.344 665.849,-418.375 669.438,-408.406 662.438,-408.344"/>
</g>
<!-- Node34 -->
<g id="node34" class="node"><title>Node34</title>
<g id="a_node34"><a xlink:href="../../de/d33/classparser_1_1_test_parser.html#ad6cc42523d881f5a69c5cf307364ce38" target="_top" xlink:title="parser.TestParser.TestFor">
<polygon fill="white" stroke="black" points="775,-76.5 775,-95.5 909,-95.5 909,-76.5 775,-76.5"/>
<text text-anchor="middle" x="842" y="-83.5" font-family="Helvetica,sans-Serif" font-size="10.00">parser.TestParser.TestFor</text>
</a>
</g>
</g>
<!-- Node4&#45;&gt;Node34 -->
<g id="edge36" class="edge"><title>Node4&#45;&gt;Node34</title>
<path fill="none" stroke="midnightblue" d="M668.806,-408.36C678.244,-345.045 710.8,-147.916 756,-105 761.373,-99.8983 767.804,-96.0535 774.69,-93.1714"/>
<polygon fill="midnightblue" stroke="midnightblue" points="665.343,-407.854 667.359,-418.256 672.269,-408.868 665.343,-407.854"/>
</g>
<!-- Node35 -->
<g id="node35" class="node"><title>Node35</title>
<g id="a_node35"><a xlink:href="../../de/d33/classparser_1_1_test_parser.html#a93efc93146678909fa1c24a6727460ae" target="_top" xlink:title="parser.TestParser.TestTo">
<polygon fill="white" stroke="black" points="777.5,-38.5 777.5,-57.5 906.5,-57.5 906.5,-38.5 777.5,-38.5"/>
<text text-anchor="middle" x="842" y="-45.5" font-family="Helvetica,sans-Serif" font-size="10.00">parser.TestParser.TestTo</text>
</a>
</g>
</g>
<!-- Node4&#45;&gt;Node35 -->
<g id="edge37" class="edge"><title>Node4&#45;&gt;Node35</title>
<path fill="none" stroke="midnightblue" d="M668.248,-407.886C676.325,-339.235 706.073,-115.722 756,-67 761.952,-61.1915 769.27,-57.0018 777.092,-54.0035"/>
<polygon fill="midnightblue" stroke="midnightblue" points="664.729,-407.848 667.064,-418.182 671.684,-408.647 664.729,-407.848"/>
</g>
<!-- Node36 -->
<g id="node36" class="node"><title>Node36</title>
<g id="a_node36"><a xlink:href="../../de/d33/classparser_1_1_test_parser.html#a3ab06721c75424d63da6d4380ae7ad5e" target="_top" xlink:title="parser.TestParser.TestRecursion">
<polygon fill="white" stroke="black" points="759.5,-0.5 759.5,-19.5 924.5,-19.5 924.5,-0.5 759.5,-0.5"/>
<text text-anchor="middle" x="842" y="-7.5" font-family="Helvetica,sans-Serif" font-size="10.00">parser.TestParser.TestRecursion</text>
</a>
</g>
</g>
<!-- Node4&#45;&gt;Node36 -->
<g id="edge38" class="edge"><title>Node4&#45;&gt;Node36</title>
<path fill="none" stroke="midnightblue" d="M667.71,-408.172C674.393,-335.309 701.135,-83.7589 756,-29 759.746,-25.2613 764.056,-22.1898 768.707,-19.6729"/>
<polygon fill="midnightblue" stroke="midnightblue" points="664.211,-408.003 666.808,-418.274 671.183,-408.625 664.211,-408.003"/>
</g>
<!-- Node6 -->
<g id="node6" class="node"><title>Node6</title>
<g id="a_node6"><a xlink:href="../../d4/d3f/classcomponents_1_1_vars_tab.html#aa51dee8d24322ee37e4399858794ee8b" target="_top" xlink:title="components.VarsTab.setTab\lEditable">
<polygon fill="white" stroke="black" points="974,-947 974,-977 1124,-977 1124,-947 974,-947"/>
<text text-anchor="start" x="982" y="-965" font-family="Helvetica,sans-Serif" font-size="10.00">components.VarsTab.setTab</text>
<text text-anchor="middle" x="1049" y="-954" font-family="Helvetica,sans-Serif" font-size="10.00">Editable</text>
</a>
</g>
</g>
<!-- Node5&#45;&gt;Node6 -->
<g id="edge5" class="edge"><title>Node5&#45;&gt;Node6</title>
<path fill="none" stroke="midnightblue" d="M872.958,-885.023C896.763,-900.987 931.366,-922.581 964,-937 972.35,-940.69 981.401,-944.023 990.365,-946.965"/>
<polygon fill="midnightblue" stroke="midnightblue" points="874.63,-881.928 864.39,-879.207 870.698,-887.719 874.63,-881.928"/>
</g>
<!-- Node8 -->
<g id="node8" class="node"><title>Node8</title>
<g id="a_node8"><a xlink:href="../../dd/dca/classfeatures_1_1_pen_width_slider_feature.html#aac6e7c0d0c6f5e1afde3d8a3c8e788e6" target="_top" xlink:title="features.PenWidthSliderFeature.\lPenWidthSliderFeature">
<polygon fill="white" stroke="black" points="964,-898 964,-928 1134,-928 1134,-898 964,-898"/>
<text text-anchor="start" x="972" y="-916" font-family="Helvetica,sans-Serif" font-size="10.00">features.PenWidthSliderFeature.</text>
<text text-anchor="middle" x="1049" y="-905" font-family="Helvetica,sans-Serif" font-size="10.00">PenWidthSliderFeature</text>
</a>
</g>
</g>
<!-- Node5&#45;&gt;Node8 -->
<g id="edge7" class="edge"><title>Node5&#45;&gt;Node8</title>
<path fill="none" stroke="midnightblue" d="M915.812,-881.404C938.49,-886.824 963.289,-892.752 985.219,-897.994"/>
<polygon fill="midnightblue" stroke="midnightblue" points="916.44,-877.955 905.9,-879.035 914.812,-884.764 916.44,-877.955"/>
</g>
<!-- Node9 -->
<g id="node9" class="node"><title>Node9</title>
<g id="a_node9"><a xlink:href="../../de/d10/classfeatures_1_1_run_button_feature.html#ada33a09e0a0259486754b597f2d7b0c7" target="_top" xlink:title="features.RunButtonFeature.\lRunButtonFeature">
<polygon fill="white" stroke="black" points="975,-849 975,-879 1123,-879 1123,-849 975,-849"/>
<text text-anchor="start" x="983" y="-867" font-family="Helvetica,sans-Serif" font-size="10.00">features.RunButtonFeature.</text>
<text text-anchor="middle" x="1049" y="-856" font-family="Helvetica,sans-Serif" font-size="10.00">RunButtonFeature</text>
</a>
</g>
</g>
<!-- Node5&#45;&gt;Node9 -->
<g id="edge8" class="edge"><title>Node5&#45;&gt;Node9</title>
<path fill="none" stroke="midnightblue" d="M938.399,-864C950.649,-864 963.034,-864 974.851,-864"/>
<polygon fill="midnightblue" stroke="midnightblue" points="938.158,-860.5 928.158,-864 938.157,-867.5 938.158,-860.5"/>
</g>
<!-- Node10 -->
<g id="node10" class="node"><title>Node10</title>
<g id="a_node10"><a xlink:href="../../d3/de0/classmain_application_1_1_g_u_i.html#a60b2e396c945ac173bfd82f207f42000" target="_top" xlink:title="mainApplication.GUI.initiate\lKeyPress">
<polygon fill="white" stroke="black" points="974.5,-800 974.5,-830 1123.5,-830 1123.5,-800 974.5,-800"/>
<text text-anchor="start" x="982.5" y="-818" font-family="Helvetica,sans-Serif" font-size="10.00">mainApplication.GUI.initiate</text>
<text text-anchor="middle" x="1049" y="-807" font-family="Helvetica,sans-Serif" font-size="10.00">KeyPress</text>
</a>
</g>
</g>
<!-- Node5&#45;&gt;Node10 -->
<g id="edge9" class="edge"><title>Node5&#45;&gt;Node10</title>
<path fill="none" stroke="midnightblue" d="M915.812,-846.596C938.49,-841.176 963.289,-835.248 985.219,-830.006"/>
<polygon fill="midnightblue" stroke="midnightblue" points="914.812,-843.236 905.9,-848.965 916.44,-850.045 914.812,-843.236"/>
</g>
<!-- Node14 -->
<g id="node14" class="node"><title>Node14</title>
<g id="a_node14"><a xlink:href="../../d3/d04/classmain_application_1_1_g_u_i_shell.html#af2f106fa7786f13ccc0202db53b559b9" target="_top" xlink:title="mainApplication.GUIShell.create\lOpenButton">
<polygon fill="white" stroke="black" points="1362,-753 1362,-783 1532,-783 1532,-753 1362,-753"/>
<text text-anchor="start" x="1370" y="-771" font-family="Helvetica,sans-Serif" font-size="10.00">mainApplication.GUIShell.create</text>
<text text-anchor="middle" x="1447" y="-760" font-family="Helvetica,sans-Serif" font-size="10.00">OpenButton</text>
</a>
</g>
</g>
<!-- Node5&#45;&gt;Node14 -->
<g id="edge16" class="edge"><title>Node5&#45;&gt;Node14</title>
<path fill="none" stroke="midnightblue" d="M918.971,-844.512C922.107,-842.823 925.133,-840.99 928,-839 949.908,-823.796 940.44,-803.491 964,-791 1093.9,-722.132 1272.22,-736.879 1371.53,-752.963"/>
<polygon fill="midnightblue" stroke="midnightblue" points="917.371,-841.398 909.891,-848.901 920.417,-847.701 917.371,-841.398"/>
</g>
<!-- Node7 -->
<g id="node7" class="node"><title>Node7</title>
<g id="a_node7"><a xlink:href="../../d4/d3f/classcomponents_1_1_vars_tab.html#a1e48c3f7ead529596e018a72cd6ef159" target="_top" xlink:title="components.VarsTab.VarsTab">
<polygon fill="white" stroke="black" points="1170,-952.5 1170,-971.5 1326,-971.5 1326,-952.5 1170,-952.5"/>
<text text-anchor="middle" x="1248" y="-959.5" font-family="Helvetica,sans-Serif" font-size="10.00">components.VarsTab.VarsTab</text>
</a>
</g>
</g>
<!-- Node6&#45;&gt;Node7 -->
<g id="edge6" class="edge"><title>Node6&#45;&gt;Node7</title>
<path fill="none" stroke="midnightblue" d="M1134.46,-962C1146.23,-962 1158.28,-962 1169.92,-962"/>
<polygon fill="midnightblue" stroke="midnightblue" points="1134.2,-958.5 1124.2,-962 1134.2,-965.5 1134.2,-958.5"/>
</g>
<!-- Node11 -->
<g id="node11" class="node"><title>Node11</title>
<g id="a_node11"><a xlink:href="../../d3/de0/classmain_application_1_1_g_u_i.html#af6bd387013dbd1d1daf030117da66c0e" target="_top" xlink:title="mainApplication.GUI.initiate">
<polygon fill="white" stroke="black" points="1173.5,-806.5 1173.5,-825.5 1322.5,-825.5 1322.5,-806.5 1173.5,-806.5"/>
<text text-anchor="middle" x="1248" y="-813.5" font-family="Helvetica,sans-Serif" font-size="10.00">mainApplication.GUI.initiate</text>
</a>
</g>
</g>
<!-- Node10&#45;&gt;Node11 -->
<g id="edge10" class="edge"><title>Node10&#45;&gt;Node11</title>
<path fill="none" stroke="midnightblue" d="M1133.66,-815.425C1146.89,-815.492 1160.48,-815.561 1173.45,-815.627"/>
<polygon fill="midnightblue" stroke="midnightblue" points="1133.65,-811.925 1123.64,-815.374 1133.62,-818.925 1133.65,-811.925"/>
</g>
<!-- Node12 -->
<g id="node12" class="node"><title>Node12</title>
<g id="a_node12"><a xlink:href="../../d3/d04/classmain_application_1_1_g_u_i_shell.html#ac525a3e483dbe24e5f9f0257fe54521d" target="_top" xlink:title="mainApplication.GUIShell.\lGUIShell">
<polygon fill="white" stroke="black" points="1568,-802 1568,-832 1708,-832 1708,-802 1568,-802"/>
<text text-anchor="start" x="1576" y="-820" font-family="Helvetica,sans-Serif" font-size="10.00">mainApplication.GUIShell.</text>
<text text-anchor="middle" x="1638" y="-809" font-family="Helvetica,sans-Serif" font-size="10.00">GUIShell</text>
</a>
</g>
</g>
<!-- Node11&#45;&gt;Node12 -->
<g id="edge11" class="edge"><title>Node11&#45;&gt;Node12</title>
<path fill="none" stroke="midnightblue" d="M1292.63,-827.979C1313.45,-833.096 1338.83,-838.467 1362,-841 1437.11,-849.209 1456.92,-849.471 1532,-841 1548.35,-839.155 1565.87,-835.743 1581.82,-832.058"/>
<polygon fill="midnightblue" stroke="midnightblue" points="1293.35,-824.552 1282.8,-825.5 1291.64,-831.339 1293.35,-824.552"/>
</g>
<!-- Node13 -->
<g id="node13" class="node"><title>Node13</title>
<g id="a_node13"><a xlink:href="../../d3/d04/classmain_application_1_1_g_u_i_shell.html#a9df214dfffdce7a39bc6ac5e84ca1f0f" target="_top" xlink:title="mainApplication.GUIShell.create\lNewButton">
<polygon fill="white" stroke="black" points="1362,-802 1362,-832 1532,-832 1532,-802 1362,-802"/>
<text text-anchor="start" x="1370" y="-820" font-family="Helvetica,sans-Serif" font-size="10.00">mainApplication.GUIShell.create</text>
<text text-anchor="middle" x="1447" y="-809" font-family="Helvetica,sans-Serif" font-size="10.00">NewButton</text>
</a>
</g>
</g>
<!-- Node11&#45;&gt;Node13 -->
<g id="edge12" class="edge"><title>Node11&#45;&gt;Node13</title>
<path fill="none" stroke="midnightblue" d="M1332.93,-816.426C1342.51,-816.475 1352.27,-816.524 1361.85,-816.573"/>
<polygon fill="midnightblue" stroke="midnightblue" points="1332.65,-812.925 1322.64,-816.374 1332.62,-819.925 1332.65,-812.925"/>
</g>
<!-- Node11&#45;&gt;Node14 -->
<g id="edge14" class="edge"><title>Node11&#45;&gt;Node14</title>
<path fill="none" stroke="midnightblue" d="M1298.4,-803.964C1324.4,-797.628 1356.54,-789.798 1384.18,-783.063"/>
<polygon fill="midnightblue" stroke="midnightblue" points="1297.28,-800.634 1288.39,-806.402 1298.94,-807.435 1297.28,-800.634"/>
</g>
<!-- Node13&#45;&gt;Node12 -->
<g id="edge13" class="edge"><title>Node13&#45;&gt;Node12</title>
<path fill="none" stroke="midnightblue" d="M1542.36,-817C1550.96,-817 1559.57,-817 1567.9,-817"/>
<polygon fill="midnightblue" stroke="midnightblue" points="1542.27,-813.5 1532.27,-817 1542.27,-820.5 1542.27,-813.5"/>
</g>
<!-- Node14&#45;&gt;Node12 -->
<g id="edge15" class="edge"><title>Node14&#45;&gt;Node12</title>
<path fill="none" stroke="midnightblue" d="M1515.69,-785.55C1536.45,-790.931 1559.08,-796.799 1579.12,-801.994"/>
<polygon fill="midnightblue" stroke="midnightblue" points="1516.55,-782.156 1505.99,-783.035 1514.79,-788.932 1516.55,-782.156"/>
</g>
</g>
</svg>
