<?xml version="1.0" encoding="UTF-8" standalone="no"?>
<!DOCTYPE svg PUBLIC "-//W3C//DTD SVG 1.1//EN"
 "http://www.w3.org/Graphics/SVG/1.1/DTD/svg11.dtd">
<!-- Generated by graphviz version 2.36.0 (20140111.2315)
 -->
<!-- Title: command.Command.isList Pages: 1 -->
<svg width="1452pt" height="985pt"
 viewBox="0.00 0.00 1452.00 985.00" xmlns="http://www.w3.org/2000/svg" xmlns:xlink="http://www.w3.org/1999/xlink">
<g id="graph0" class="graph" transform="scale(1 1) rotate(0) translate(4 981)">
<title>command.Command.isList</title>
<polygon fill="white" stroke="none" points="-4,4 -4,-981 1448,-981 1448,4 -4,4"/>
<!-- Node1 -->
<g id="node1" class="node"><title>Node1</title>
<polygon fill="#bfbfbf" stroke="black" points="0,-418.5 0,-437.5 146,-437.5 146,-418.5 0,-418.5"/>
<text text-anchor="middle" x="73" y="-425.5" font-family="Helvetica,sans-Serif" font-size="10.00">command.Command.isList</text>
</g>
<!-- Node2 -->
<g id="node2" class="node"><title>Node2</title>
<g id="a_node2"><a xlink:href="../../d6/d95/classparser_1_1_parser.html#a2fe30e8a728e36fd2626587f059c4b95" target="_top" xlink:title="parser.Parser.makeTree">
<polygon fill="white" stroke="black" points="182,-418.5 182,-437.5 310,-437.5 310,-418.5 182,-418.5"/>
<text text-anchor="middle" x="246" y="-425.5" font-family="Helvetica,sans-Serif" font-size="10.00">parser.Parser.makeTree</text>
</a>
</g>
</g>
<!-- Node1&#45;&gt;Node2 -->
<g id="edge1" class="edge"><title>Node1&#45;&gt;Node2</title>
<path fill="none" stroke="midnightblue" d="M156.099,-428C164.717,-428 173.382,-428 181.742,-428"/>
<polygon fill="midnightblue" stroke="midnightblue" points="156.024,-424.5 146.024,-428 156.024,-431.5 156.024,-424.5"/>
</g>
<!-- Node3 -->
<g id="node3" class="node"><title>Node3</title>
<g id="a_node3"><a xlink:href="../../d6/d95/classparser_1_1_parser.html#a5e98fdfffe49478864dc1b22371d6cb1" target="_top" xlink:title="parser.Parser.parse">
<polygon fill="white" stroke="black" points="346.5,-418.5 346.5,-437.5 455.5,-437.5 455.5,-418.5 346.5,-418.5"/>
<text text-anchor="middle" x="401" y="-425.5" font-family="Helvetica,sans-Serif" font-size="10.00">parser.Parser.parse</text>
</a>
</g>
</g>
<!-- Node2&#45;&gt;Node3 -->
<g id="edge2" class="edge"><title>Node2&#45;&gt;Node3</title>
<path fill="none" stroke="midnightblue" d="M320.335,-428C329.087,-428 337.894,-428 346.297,-428"/>
<polygon fill="midnightblue" stroke="midnightblue" points="320.114,-424.5 310.114,-428 320.114,-431.5 320.114,-424.5"/>
</g>
<!-- Node4 -->
<g id="node4" class="node"><title>Node4</title>
<g id="a_node4"><a xlink:href="../../d7/da1/classmain_application_1_1_controller.html#a6e9afc2e53e6adb01a2b73794a319b63" target="_top" xlink:title="mainApplication.Controller.parse\lAndEvaluate">
<polygon fill="white" stroke="black" points="492,-849 492,-879 664,-879 664,-849 492,-849"/>
<text text-anchor="start" x="500" y="-867" font-family="Helvetica,sans-Serif" font-size="10.00">mainApplication.Controller.parse</text>
<text text-anchor="middle" x="578" y="-856" font-family="Helvetica,sans-Serif" font-size="10.00">AndEvaluate</text>
</a>
</g>
</g>
<!-- Node3&#45;&gt;Node4 -->
<g id="edge3" class="edge"><title>Node3&#45;&gt;Node4</title>
<path fill="none" stroke="midnightblue" d="M403.698,-447.815C410.424,-521.79 437.521,-780.54 492,-839 495.565,-842.826 499.683,-846.077 504.144,-848.838"/>
<polygon fill="midnightblue" stroke="midnightblue" points="407.161,-447.241 402.793,-437.588 400.188,-447.858 407.161,-447.241"/>
</g>
<!-- Node14 -->
<g id="node14" class="node"><title>Node14</title>
<g id="a_node14"><a xlink:href="../../d8/dc3/classparser_1_1_test_model.html#ab542659caca299017b423f7b3b3f648a" target="_top" xlink:title="parser.TestModel.testPosition">
<polygon fill="white" stroke="black" points="500,-810.5 500,-829.5 656,-829.5 656,-810.5 500,-810.5"/>
<text text-anchor="middle" x="578" y="-817.5" font-family="Helvetica,sans-Serif" font-size="10.00">parser.TestModel.testPosition</text>
</a>
</g>
</g>
<!-- Node3&#45;&gt;Node14 -->
<g id="edge16" class="edge"><title>Node3&#45;&gt;Node14</title>
<path fill="none" stroke="midnightblue" d="M404.077,-447.805C411.772,-517.389 440.88,-749.2 492,-800 496.301,-804.274 501.334,-807.701 506.764,-810.441"/>
<polygon fill="midnightblue" stroke="midnightblue" points="407.545,-447.318 402.991,-437.752 400.586,-448.07 407.545,-447.318"/>
</g>
<!-- Node15 -->
<g id="node15" class="node"><title>Node15</title>
<g id="a_node15"><a xlink:href="../../d8/dc3/classparser_1_1_test_model.html#ac4fd1124818e321c4a686cc1cf973254" target="_top" xlink:title="parser.TestModel.testParse\lException">
<polygon fill="white" stroke="black" points="505.5,-761 505.5,-791 650.5,-791 650.5,-761 505.5,-761"/>
<text text-anchor="start" x="513.5" y="-779" font-family="Helvetica,sans-Serif" font-size="10.00">parser.TestModel.testParse</text>
<text text-anchor="middle" x="578" y="-768" font-family="Helvetica,sans-Serif" font-size="10.00">Exception</text>
</a>
</g>
</g>
<!-- Node3&#45;&gt;Node15 -->
<g id="edge17" class="edge"><title>Node3&#45;&gt;Node15</title>
<path fill="none" stroke="midnightblue" d="M401.351,-447.802C400.644,-503.708 406.537,-664.305 492,-751 495.888,-754.944 500.363,-758.272 505.183,-761.081"/>
<polygon fill="midnightblue" stroke="midnightblue" points="404.856,-447.6 401.576,-437.526 397.858,-447.447 404.856,-447.6"/>
</g>
<!-- Node16 -->
<g id="node16" class="node"><title>Node16</title>
<g id="a_node16"><a xlink:href="../../d8/dc3/classparser_1_1_test_model.html#a023bd16aca0a843ec8f4772c96ec2ffb" target="_top" xlink:title="parser.TestModel.testWrite">
<polygon fill="white" stroke="black" points="507,-722.5 507,-741.5 649,-741.5 649,-722.5 507,-722.5"/>
<text text-anchor="middle" x="578" y="-729.5" font-family="Helvetica,sans-Serif" font-size="10.00">parser.TestModel.testWrite</text>
</a>
</g>
</g>
<!-- Node3&#45;&gt;Node16 -->
<g id="edge18" class="edge"><title>Node3&#45;&gt;Node16</title>
<path fill="none" stroke="midnightblue" d="M401.94,-447.803C402.919,-499.695 413.091,-640.599 492,-713 496.345,-716.987 501.339,-720.2 506.684,-722.783"/>
<polygon fill="midnightblue" stroke="midnightblue" points="405.438,-447.594 401.849,-437.625 398.438,-447.656 405.438,-447.594"/>
</g>
<!-- Node17 -->
<g id="node17" class="node"><title>Node17</title>
<g id="a_node17"><a xlink:href="../../de/d33/classparser_1_1_test_parser.html#a2211bce31efddb4c523112a488c02e92" target="_top" xlink:title="parser.TestParser.TestSum">
<polygon fill="white" stroke="black" points="507,-684.5 507,-703.5 649,-703.5 649,-684.5 507,-684.5"/>
<text text-anchor="middle" x="578" y="-691.5" font-family="Helvetica,sans-Serif" font-size="10.00">parser.TestParser.TestSum</text>
</a>
</g>
</g>
<!-- Node3&#45;&gt;Node17 -->
<g id="edge19" class="edge"><title>Node3&#45;&gt;Node17</title>
<path fill="none" stroke="midnightblue" d="M403.036,-447.668C406.618,-494.631 422.461,-613.93 492,-675 496.431,-678.891 501.485,-682.038 506.869,-684.577"/>
<polygon fill="midnightblue" stroke="midnightblue" points="406.522,-447.35 402.376,-437.6 399.537,-447.807 406.522,-447.35"/>
</g>
<!-- Node18 -->
<g id="node18" class="node"><title>Node18</title>
<g id="a_node18"><a xlink:href="../../de/d33/classparser_1_1_test_parser.html#ae799f71307e31127e497d20afdc506ec" target="_top" xlink:title="parser.TestParser.TestDif">
<polygon fill="white" stroke="black" points="512,-646.5 512,-665.5 644,-665.5 644,-646.5 512,-646.5"/>
<text text-anchor="middle" x="578" y="-653.5" font-family="Helvetica,sans-Serif" font-size="10.00">parser.TestParser.TestDif</text>
</a>
</g>
</g>
<!-- Node3&#45;&gt;Node18 -->
<g id="edge20" class="edge"><title>Node3&#45;&gt;Node18</title>
<path fill="none" stroke="midnightblue" d="M404.505,-447.726C410.901,-489.496 431.816,-587.121 492,-637 497.821,-641.824 504.611,-645.489 511.769,-648.263"/>
<polygon fill="midnightblue" stroke="midnightblue" points="407.957,-447.137 403.093,-437.725 401.026,-448.116 407.957,-447.137"/>
</g>
<!-- Node19 -->
<g id="node19" class="node"><title>Node19</title>
<g id="a_node19"><a xlink:href="../../de/d33/classparser_1_1_test_parser.html#a8844bf15d0fe9e809fb466cb35b0ae20" target="_top" xlink:title="parser.TestParser.TestProd">
<polygon fill="white" stroke="black" points="507.5,-608.5 507.5,-627.5 648.5,-627.5 648.5,-608.5 507.5,-608.5"/>
<text text-anchor="middle" x="578" y="-615.5" font-family="Helvetica,sans-Serif" font-size="10.00">parser.TestParser.TestProd</text>
</a>
</g>
</g>
<!-- Node3&#45;&gt;Node19 -->
<g id="edge21" class="edge"><title>Node3&#45;&gt;Node19</title>
<path fill="none" stroke="midnightblue" d="M406.453,-447.31C415.764,-483.142 440.81,-559.833 492,-599 497.044,-602.859 502.721,-605.964 508.687,-608.457"/>
<polygon fill="midnightblue" stroke="midnightblue" points="409.848,-446.46 404.056,-437.588 403.051,-448.135 409.848,-446.46"/>
</g>
<!-- Node20 -->
<g id="node20" class="node"><title>Node20</title>
<g id="a_node20"><a xlink:href="../../de/d33/classparser_1_1_test_parser.html#a9bcfbde1999d45577d42211fcd593121" target="_top" xlink:title="parser.TestParser.TestQuotient">
<polygon fill="white" stroke="black" points="497.5,-570.5 497.5,-589.5 658.5,-589.5 658.5,-570.5 497.5,-570.5"/>
<text text-anchor="middle" x="578" y="-577.5" font-family="Helvetica,sans-Serif" font-size="10.00">parser.TestParser.TestQuotient</text>
</a>
</g>
</g>
<!-- Node3&#45;&gt;Node20 -->
<g id="edge22" class="edge"><title>Node3&#45;&gt;Node20</title>
<path fill="none" stroke="midnightblue" d="M409.399,-447.045C421.817,-476.372 449.722,-532.207 492,-561 497.624,-564.83 503.897,-567.901 510.418,-570.361"/>
<polygon fill="midnightblue" stroke="midnightblue" points="412.54,-445.48 405.526,-437.539 406.057,-448.12 412.54,-445.48"/>
</g>
<!-- Node21 -->
<g id="node21" class="node"><title>Node21</title>
<g id="a_node21"><a xlink:href="../../de/d33/classparser_1_1_test_parser.html#acd110a622f9ac5ef4b4246ea997ec102" target="_top" xlink:title="parser.TestParser.TestRemainder">
<polygon fill="white" stroke="black" points="493,-532.5 493,-551.5 663,-551.5 663,-532.5 493,-532.5"/>
<text text-anchor="middle" x="578" y="-539.5" font-family="Helvetica,sans-Serif" font-size="10.00">parser.TestParser.TestRemainder</text>
</a>
</g>
</g>
<!-- Node3&#45;&gt;Node21 -->
<g id="edge23" class="edge"><title>Node3&#45;&gt;Node21</title>
<path fill="none" stroke="midnightblue" d="M413.867,-445.933C429.238,-467.669 458.113,-503.77 492,-523 498.839,-526.881 506.406,-529.969 514.124,-532.426"/>
<polygon fill="midnightblue" stroke="midnightblue" points="416.68,-443.846 408.132,-437.588 410.912,-447.811 416.68,-443.846"/>
</g>
<!-- Node22 -->
<g id="node22" class="node"><title>Node22</title>
<g id="a_node22"><a xlink:href="../../de/d33/classparser_1_1_test_parser.html#af2b64ced840e8e10f33f74dce480218a" target="_top" xlink:title="parser.TestParser.TestMinus">
<polygon fill="white" stroke="black" points="504.5,-494.5 504.5,-513.5 651.5,-513.5 651.5,-494.5 504.5,-494.5"/>
<text text-anchor="middle" x="578" y="-501.5" font-family="Helvetica,sans-Serif" font-size="10.00">parser.TestParser.TestMinus</text>
</a>
</g>
</g>
<!-- Node3&#45;&gt;Node22 -->
<g id="edge24" class="edge"><title>Node3&#45;&gt;Node22</title>
<path fill="none" stroke="midnightblue" d="M422.371,-443.802C439.916,-456.678 466.386,-474.404 492,-485 501.222,-488.815 511.339,-491.926 521.276,-494.442"/>
<polygon fill="midnightblue" stroke="midnightblue" points="424.163,-440.771 414.062,-437.575 419.965,-446.373 424.163,-440.771"/>
</g>
<!-- Node23 -->
<g id="node23" class="node"><title>Node23</title>
<g id="a_node23"><a xlink:href="../../de/d33/classparser_1_1_test_parser.html#ac13478be4d51a5b8db30db117f6098c8" target="_top" xlink:title="parser.TestParser.TestRandom">
<polygon fill="white" stroke="black" points="498.5,-456.5 498.5,-475.5 657.5,-475.5 657.5,-456.5 498.5,-456.5"/>
<text text-anchor="middle" x="578" y="-463.5" font-family="Helvetica,sans-Serif" font-size="10.00">parser.TestParser.TestRandom</text>
</a>
</g>
</g>
<!-- Node3&#45;&gt;Node23 -->
<g id="edge25" class="edge"><title>Node3&#45;&gt;Node23</title>
<path fill="none" stroke="midnightblue" d="M456.124,-439.753C480.869,-445.126 509.803,-451.409 533.158,-456.48"/>
<polygon fill="midnightblue" stroke="midnightblue" points="456.675,-436.291 446.16,-437.589 455.189,-443.131 456.675,-436.291"/>
</g>
<!-- Node24 -->
<g id="node24" class="node"><title>Node24</title>
<g id="a_node24"><a xlink:href="../../de/d33/classparser_1_1_test_parser.html#aa7724ec4a132ca195c3bd3ee1c81ad73" target="_top" xlink:title="parser.TestParser.TestTrig">
<polygon fill="white" stroke="black" points="510.5,-418.5 510.5,-437.5 645.5,-437.5 645.5,-418.5 510.5,-418.5"/>
<text text-anchor="middle" x="578" y="-425.5" font-family="Helvetica,sans-Serif" font-size="10.00">parser.TestParser.TestTrig</text>
</a>
</g>
</g>
<!-- Node3&#45;&gt;Node24 -->
<g id="edge26" class="edge"><title>Node3&#45;&gt;Node24</title>
<path fill="none" stroke="midnightblue" d="M466.204,-428C480.562,-428 495.822,-428 510.279,-428"/>
<polygon fill="midnightblue" stroke="midnightblue" points="465.934,-424.5 455.934,-428 465.934,-431.5 465.934,-424.5"/>
</g>
<!-- Node25 -->
<g id="node25" class="node"><title>Node25</title>
<g id="a_node25"><a xlink:href="../../de/d33/classparser_1_1_test_parser.html#ada92f24240fae7dfec207bad127e31e7" target="_top" xlink:title="parser.TestParser.TestPow">
<polygon fill="white" stroke="black" points="509,-380.5 509,-399.5 647,-399.5 647,-380.5 509,-380.5"/>
<text text-anchor="middle" x="578" y="-387.5" font-family="Helvetica,sans-Serif" font-size="10.00">parser.TestParser.TestPow</text>
</a>
</g>
</g>
<!-- Node3&#45;&gt;Node25 -->
<g id="edge27" class="edge"><title>Node3&#45;&gt;Node25</title>
<path fill="none" stroke="midnightblue" d="M456.124,-416.247C480.869,-410.874 509.803,-404.591 533.158,-399.52"/>
<polygon fill="midnightblue" stroke="midnightblue" points="455.189,-412.869 446.16,-418.411 456.675,-419.709 455.189,-412.869"/>
</g>
<!-- Node26 -->
<g id="node26" class="node"><title>Node26</title>
<g id="a_node26"><a xlink:href="../../de/d33/classparser_1_1_test_parser.html#a3f8cee68556948d08c53a574a72c8356" target="_top" xlink:title="parser.TestParser.TestBoolean">
<polygon fill="white" stroke="black" points="499,-342.5 499,-361.5 657,-361.5 657,-342.5 499,-342.5"/>
<text text-anchor="middle" x="578" y="-349.5" font-family="Helvetica,sans-Serif" font-size="10.00">parser.TestParser.TestBoolean</text>
</a>
</g>
</g>
<!-- Node3&#45;&gt;Node26 -->
<g id="edge28" class="edge"><title>Node3&#45;&gt;Node26</title>
<path fill="none" stroke="midnightblue" d="M422.371,-412.198C439.916,-399.322 466.386,-381.596 492,-371 501.222,-367.185 511.339,-364.074 521.276,-361.558"/>
<polygon fill="midnightblue" stroke="midnightblue" points="419.965,-409.627 414.062,-418.425 424.163,-415.229 419.965,-409.627"/>
</g>
<!-- Node27 -->
<g id="node27" class="node"><title>Node27</title>
<g id="a_node27"><a xlink:href="../../de/d33/classparser_1_1_test_parser.html#a39be8e4aca3871ce6f29a482a52bcd71" target="_top" xlink:title="parser.TestParser.TestIf">
<polygon fill="white" stroke="black" points="515.5,-304.5 515.5,-323.5 640.5,-323.5 640.5,-304.5 515.5,-304.5"/>
<text text-anchor="middle" x="578" y="-311.5" font-family="Helvetica,sans-Serif" font-size="10.00">parser.TestParser.TestIf</text>
</a>
</g>
</g>
<!-- Node3&#45;&gt;Node27 -->
<g id="edge29" class="edge"><title>Node3&#45;&gt;Node27</title>
<path fill="none" stroke="midnightblue" d="M413.867,-410.067C429.238,-388.331 458.113,-352.23 492,-333 499.233,-328.895 507.282,-325.677 515.461,-323.155"/>
<polygon fill="midnightblue" stroke="midnightblue" points="410.912,-408.189 408.132,-418.412 416.68,-412.154 410.912,-408.189"/>
</g>
<!-- Node28 -->
<g id="node28" class="node"><title>Node28</title>
<g id="a_node28"><a xlink:href="../../de/d33/classparser_1_1_test_parser.html#ac22ad278ed612557e83ed90884fedff4" target="_top" xlink:title="parser.TestParser.TestIfElse">
<polygon fill="white" stroke="black" points="506,-266.5 506,-285.5 650,-285.5 650,-266.5 506,-266.5"/>
<text text-anchor="middle" x="578" y="-273.5" font-family="Helvetica,sans-Serif" font-size="10.00">parser.TestParser.TestIfElse</text>
</a>
</g>
</g>
<!-- Node3&#45;&gt;Node28 -->
<g id="edge30" class="edge"><title>Node3&#45;&gt;Node28</title>
<path fill="none" stroke="midnightblue" d="M409.399,-408.955C421.817,-379.628 449.722,-323.793 492,-295 497.624,-291.17 503.897,-288.099 510.418,-285.639"/>
<polygon fill="midnightblue" stroke="midnightblue" points="406.057,-407.88 405.526,-418.461 412.54,-410.52 406.057,-407.88"/>
</g>
<!-- Node29 -->
<g id="node29" class="node"><title>Node29</title>
<g id="a_node29"><a xlink:href="../../de/d33/classparser_1_1_test_parser.html#aac27b9d8c48ae78dd9252dd65be9aeea" target="_top" xlink:title="parser.TestParser.TestSum2">
<polygon fill="white" stroke="black" points="504,-228.5 504,-247.5 652,-247.5 652,-228.5 504,-228.5"/>
<text text-anchor="middle" x="578" y="-235.5" font-family="Helvetica,sans-Serif" font-size="10.00">parser.TestParser.TestSum2</text>
</a>
</g>
</g>
<!-- Node3&#45;&gt;Node29 -->
<g id="edge31" class="edge"><title>Node3&#45;&gt;Node29</title>
<path fill="none" stroke="midnightblue" d="M406.453,-408.69C415.764,-372.858 440.81,-296.167 492,-257 497.044,-253.141 502.721,-250.036 508.687,-247.543"/>
<polygon fill="midnightblue" stroke="midnightblue" points="403.051,-407.865 404.056,-418.412 409.848,-409.54 403.051,-407.865"/>
</g>
<!-- Node30 -->
<g id="node30" class="node"><title>Node30</title>
<g id="a_node30"><a xlink:href="../../de/d33/classparser_1_1_test_parser.html#a616e3d3359a2feaf24149915c6aea8c8" target="_top" xlink:title="parser.TestParser.TestForward">
<polygon fill="white" stroke="black" points="499.5,-190.5 499.5,-209.5 656.5,-209.5 656.5,-190.5 499.5,-190.5"/>
<text text-anchor="middle" x="578" y="-197.5" font-family="Helvetica,sans-Serif" font-size="10.00">parser.TestParser.TestForward</text>
</a>
</g>
</g>
<!-- Node3&#45;&gt;Node30 -->
<g id="edge32" class="edge"><title>Node3&#45;&gt;Node30</title>
<path fill="none" stroke="midnightblue" d="M404.505,-408.274C410.901,-366.504 431.816,-268.879 492,-219 496.657,-215.14 501.934,-212.023 507.523,-209.51"/>
<polygon fill="midnightblue" stroke="midnightblue" points="401.026,-407.884 403.093,-418.275 407.957,-408.863 401.026,-407.884"/>
</g>
<!-- Node31 -->
<g id="node31" class="node"><title>Node31</title>
<g id="a_node31"><a xlink:href="../../de/d33/classparser_1_1_test_parser.html#a914384055dd7ca9ea5c617ab0bb5e0c0" target="_top" xlink:title="parser.TestParser.TestMake">
<polygon fill="white" stroke="black" points="505.5,-152.5 505.5,-171.5 650.5,-171.5 650.5,-152.5 505.5,-152.5"/>
<text text-anchor="middle" x="578" y="-159.5" font-family="Helvetica,sans-Serif" font-size="10.00">parser.TestParser.TestMake</text>
</a>
</g>
</g>
<!-- Node3&#45;&gt;Node31 -->
<g id="edge33" class="edge"><title>Node3&#45;&gt;Node31</title>
<path fill="none" stroke="midnightblue" d="M403.036,-408.332C406.618,-361.369 422.461,-242.07 492,-181 496.317,-177.208 501.226,-174.124 506.455,-171.62"/>
<polygon fill="midnightblue" stroke="midnightblue" points="399.537,-408.193 402.376,-418.4 406.522,-408.65 399.537,-408.193"/>
</g>
<!-- Node32 -->
<g id="node32" class="node"><title>Node32</title>
<g id="a_node32"><a xlink:href="../../de/d33/classparser_1_1_test_parser.html#a7861269b842fcf079433cbe0a933e8db" target="_top" xlink:title="parser.TestParser.TestRepeat">
<polygon fill="white" stroke="black" points="502,-114.5 502,-133.5 654,-133.5 654,-114.5 502,-114.5"/>
<text text-anchor="middle" x="578" y="-121.5" font-family="Helvetica,sans-Serif" font-size="10.00">parser.TestParser.TestRepeat</text>
</a>
</g>
</g>
<!-- Node3&#45;&gt;Node32 -->
<g id="edge34" class="edge"><title>Node3&#45;&gt;Node32</title>
<path fill="none" stroke="midnightblue" d="M401.94,-408.197C402.919,-356.305 413.091,-215.401 492,-143 496.122,-139.218 500.829,-136.132 505.864,-133.62"/>
<polygon fill="midnightblue" stroke="midnightblue" points="398.438,-408.344 401.849,-418.375 405.438,-408.406 398.438,-408.344"/>
</g>
<!-- Node33 -->
<g id="node33" class="node"><title>Node33</title>
<g id="a_node33"><a xlink:href="../../de/d33/classparser_1_1_test_parser.html#ad6cc42523d881f5a69c5cf307364ce38" target="_top" xlink:title="parser.TestParser.TestFor">
<polygon fill="white" stroke="black" points="511,-76.5 511,-95.5 645,-95.5 645,-76.5 511,-76.5"/>
<text text-anchor="middle" x="578" y="-83.5" font-family="Helvetica,sans-Serif" font-size="10.00">parser.TestParser.TestFor</text>
</a>
</g>
</g>
<!-- Node3&#45;&gt;Node33 -->
<g id="edge35" class="edge"><title>Node3&#45;&gt;Node33</title>
<path fill="none" stroke="midnightblue" d="M404.806,-408.36C414.244,-345.045 446.8,-147.916 492,-105 497.373,-99.8983 503.804,-96.0535 510.69,-93.1714"/>
<polygon fill="midnightblue" stroke="midnightblue" points="401.343,-407.854 403.359,-418.256 408.269,-408.868 401.343,-407.854"/>
</g>
<!-- Node34 -->
<g id="node34" class="node"><title>Node34</title>
<g id="a_node34"><a xlink:href="../../de/d33/classparser_1_1_test_parser.html#a93efc93146678909fa1c24a6727460ae" target="_top" xlink:title="parser.TestParser.TestTo">
<polygon fill="white" stroke="black" points="513.5,-38.5 513.5,-57.5 642.5,-57.5 642.5,-38.5 513.5,-38.5"/>
<text text-anchor="middle" x="578" y="-45.5" font-family="Helvetica,sans-Serif" font-size="10.00">parser.TestParser.TestTo</text>
</a>
</g>
</g>
<!-- Node3&#45;&gt;Node34 -->
<g id="edge36" class="edge"><title>Node3&#45;&gt;Node34</title>
<path fill="none" stroke="midnightblue" d="M404.248,-407.886C412.325,-339.235 442.073,-115.722 492,-67 497.952,-61.1915 505.27,-57.0018 513.092,-54.0035"/>
<polygon fill="midnightblue" stroke="midnightblue" points="400.729,-407.848 403.064,-418.182 407.684,-408.647 400.729,-407.848"/>
</g>
<!-- Node35 -->
<g id="node35" class="node"><title>Node35</title>
<g id="a_node35"><a xlink:href="../../de/d33/classparser_1_1_test_parser.html#a3ab06721c75424d63da6d4380ae7ad5e" target="_top" xlink:title="parser.TestParser.TestRecursion">
<polygon fill="white" stroke="black" points="495.5,-0.5 495.5,-19.5 660.5,-19.5 660.5,-0.5 495.5,-0.5"/>
<text text-anchor="middle" x="578" y="-7.5" font-family="Helvetica,sans-Serif" font-size="10.00">parser.TestParser.TestRecursion</text>
</a>
</g>
</g>
<!-- Node3&#45;&gt;Node35 -->
<g id="edge37" class="edge"><title>Node3&#45;&gt;Node35</title>
<path fill="none" stroke="midnightblue" d="M403.71,-408.172C410.393,-335.309 437.135,-83.7589 492,-29 495.746,-25.2613 500.056,-22.1898 504.707,-19.6729"/>
<polygon fill="midnightblue" stroke="midnightblue" points="400.211,-408.003 402.808,-418.274 407.183,-408.625 400.211,-408.003"/>
</g>
<!-- Node5 -->
<g id="node5" class="node"><title>Node5</title>
<g id="a_node5"><a xlink:href="../../d4/d3f/classcomponents_1_1_vars_tab.html#aa51dee8d24322ee37e4399858794ee8b" target="_top" xlink:title="components.VarsTab.setTab\lEditable">
<polygon fill="white" stroke="black" points="710,-947 710,-977 860,-977 860,-947 710,-947"/>
<text text-anchor="start" x="718" y="-965" font-family="Helvetica,sans-Serif" font-size="10.00">components.VarsTab.setTab</text>
<text text-anchor="middle" x="785" y="-954" font-family="Helvetica,sans-Serif" font-size="10.00">Editable</text>
</a>
</g>
</g>
<!-- Node4&#45;&gt;Node5 -->
<g id="edge4" class="edge"><title>Node4&#45;&gt;Node5</title>
<path fill="none" stroke="midnightblue" d="M608.958,-885.023C632.763,-900.987 667.366,-922.581 700,-937 708.35,-940.69 717.401,-944.023 726.365,-946.965"/>
<polygon fill="midnightblue" stroke="midnightblue" points="610.63,-881.928 600.39,-879.207 606.698,-887.719 610.63,-881.928"/>
</g>
<!-- Node7 -->
<g id="node7" class="node"><title>Node7</title>
<g id="a_node7"><a xlink:href="../../dd/dca/classfeatures_1_1_pen_width_slider_feature.html#aac6e7c0d0c6f5e1afde3d8a3c8e788e6" target="_top" xlink:title="features.PenWidthSliderFeature.\lPenWidthSliderFeature">
<polygon fill="white" stroke="black" points="700,-898 700,-928 870,-928 870,-898 700,-898"/>
<text text-anchor="start" x="708" y="-916" font-family="Helvetica,sans-Serif" font-size="10.00">features.PenWidthSliderFeature.</text>
<text text-anchor="middle" x="785" y="-905" font-family="Helvetica,sans-Serif" font-size="10.00">PenWidthSliderFeature</text>
</a>
</g>
</g>
<!-- Node4&#45;&gt;Node7 -->
<g id="edge6" class="edge"><title>Node4&#45;&gt;Node7</title>
<path fill="none" stroke="midnightblue" d="M651.812,-881.404C674.49,-886.824 699.289,-892.752 721.219,-897.994"/>
<polygon fill="midnightblue" stroke="midnightblue" points="652.44,-877.955 641.9,-879.035 650.812,-884.764 652.44,-877.955"/>
</g>
<!-- Node8 -->
<g id="node8" class="node"><title>Node8</title>
<g id="a_node8"><a xlink:href="../../de/d10/classfeatures_1_1_run_button_feature.html#ada33a09e0a0259486754b597f2d7b0c7" target="_top" xlink:title="features.RunButtonFeature.\lRunButtonFeature">
<polygon fill="white" stroke="black" points="711,-849 711,-879 859,-879 859,-849 711,-849"/>
<text text-anchor="start" x="719" y="-867" font-family="Helvetica,sans-Serif" font-size="10.00">features.RunButtonFeature.</text>
<text text-anchor="middle" x="785" y="-856" font-family="Helvetica,sans-Serif" font-size="10.00">RunButtonFeature</text>
</a>
</g>
</g>
<!-- Node4&#45;&gt;Node8 -->
<g id="edge7" class="edge"><title>Node4&#45;&gt;Node8</title>
<path fill="none" stroke="midnightblue" d="M674.399,-864C686.649,-864 699.034,-864 710.851,-864"/>
<polygon fill="midnightblue" stroke="midnightblue" points="674.158,-860.5 664.158,-864 674.157,-867.5 674.158,-860.5"/>
</g>
<!-- Node9 -->
<g id="node9" class="node"><title>Node9</title>
<g id="a_node9"><a xlink:href="../../d3/de0/classmain_application_1_1_g_u_i.html#a60b2e396c945ac173bfd82f207f42000" target="_top" xlink:title="mainApplication.GUI.initiate\lKeyPress">
<polygon fill="white" stroke="black" points="710.5,-800 710.5,-830 859.5,-830 859.5,-800 710.5,-800"/>
<text text-anchor="start" x="718.5" y="-818" font-family="Helvetica,sans-Serif" font-size="10.00">mainApplication.GUI.initiate</text>
<text text-anchor="middle" x="785" y="-807" font-family="Helvetica,sans-Serif" font-size="10.00">KeyPress</text>
</a>
</g>
</g>
<!-- Node4&#45;&gt;Node9 -->
<g id="edge8" class="edge"><title>Node4&#45;&gt;Node9</title>
<path fill="none" stroke="midnightblue" d="M651.812,-846.596C674.49,-841.176 699.289,-835.248 721.219,-830.006"/>
<polygon fill="midnightblue" stroke="midnightblue" points="650.812,-843.236 641.9,-848.965 652.44,-850.045 650.812,-843.236"/>
</g>
<!-- Node13 -->
<g id="node13" class="node"><title>Node13</title>
<g id="a_node13"><a xlink:href="../../d3/d04/classmain_application_1_1_g_u_i_shell.html#af2f106fa7786f13ccc0202db53b559b9" target="_top" xlink:title="mainApplication.GUIShell.create\lOpenButton">
<polygon fill="white" stroke="black" points="1098,-753 1098,-783 1268,-783 1268,-753 1098,-753"/>
<text text-anchor="start" x="1106" y="-771" font-family="Helvetica,sans-Serif" font-size="10.00">mainApplication.GUIShell.create</text>
<text text-anchor="middle" x="1183" y="-760" font-family="Helvetica,sans-Serif" font-size="10.00">OpenButton</text>
</a>
</g>
</g>
<!-- Node4&#45;&gt;Node13 -->
<g id="edge15" class="edge"><title>Node4&#45;&gt;Node13</title>
<path fill="none" stroke="midnightblue" d="M654.971,-844.512C658.107,-842.823 661.133,-840.99 664,-839 685.908,-823.796 676.44,-803.491 700,-791 829.9,-722.132 1008.22,-736.879 1107.53,-752.963"/>
<polygon fill="midnightblue" stroke="midnightblue" points="653.371,-841.398 645.891,-848.901 656.417,-847.701 653.371,-841.398"/>
</g>
<!-- Node6 -->
<g id="node6" class="node"><title>Node6</title>
<g id="a_node6"><a xlink:href="../../d4/d3f/classcomponents_1_1_vars_tab.html#a1e48c3f7ead529596e018a72cd6ef159" target="_top" xlink:title="components.VarsTab.VarsTab">
<polygon fill="white" stroke="black" points="906,-952.5 906,-971.5 1062,-971.5 1062,-952.5 906,-952.5"/>
<text text-anchor="middle" x="984" y="-959.5" font-family="Helvetica,sans-Serif" font-size="10.00">components.VarsTab.VarsTab</text>
</a>
</g>
</g>
<!-- Node5&#45;&gt;Node6 -->
<g id="edge5" class="edge"><title>Node5&#45;&gt;Node6</title>
<path fill="none" stroke="midnightblue" d="M870.458,-962C882.235,-962 894.285,-962 905.916,-962"/>
<polygon fill="midnightblue" stroke="midnightblue" points="870.197,-958.5 860.197,-962 870.197,-965.5 870.197,-958.5"/>
</g>
<!-- Node10 -->
<g id="node10" class="node"><title>Node10</title>
<g id="a_node10"><a xlink:href="../../d3/de0/classmain_application_1_1_g_u_i.html#af6bd387013dbd1d1daf030117da66c0e" target="_top" xlink:title="mainApplication.GUI.initiate">
<polygon fill="white" stroke="black" points="909.5,-806.5 909.5,-825.5 1058.5,-825.5 1058.5,-806.5 909.5,-806.5"/>
<text text-anchor="middle" x="984" y="-813.5" font-family="Helvetica,sans-Serif" font-size="10.00">mainApplication.GUI.initiate</text>
</a>
</g>
</g>
<!-- Node9&#45;&gt;Node10 -->
<g id="edge9" class="edge"><title>Node9&#45;&gt;Node10</title>
<path fill="none" stroke="midnightblue" d="M869.662,-815.425C882.889,-815.492 896.48,-815.561 909.454,-815.627"/>
<polygon fill="midnightblue" stroke="midnightblue" points="869.653,-811.925 859.636,-815.374 869.618,-818.925 869.653,-811.925"/>
</g>
<!-- Node11 -->
<g id="node11" class="node"><title>Node11</title>
<g id="a_node11"><a xlink:href="../../d3/d04/classmain_application_1_1_g_u_i_shell.html#ac525a3e483dbe24e5f9f0257fe54521d" target="_top" xlink:title="mainApplication.GUIShell.\lGUIShell">
<polygon fill="white" stroke="black" points="1304,-802 1304,-832 1444,-832 1444,-802 1304,-802"/>
<text text-anchor="start" x="1312" y="-820" font-family="Helvetica,sans-Serif" font-size="10.00">mainApplication.GUIShell.</text>
<text text-anchor="middle" x="1374" y="-809" font-family="Helvetica,sans-Serif" font-size="10.00">GUIShell</text>
</a>
</g>
</g>
<!-- Node10&#45;&gt;Node11 -->
<g id="edge10" class="edge"><title>Node10&#45;&gt;Node11</title>
<path fill="none" stroke="midnightblue" d="M1028.63,-827.979C1049.45,-833.096 1074.83,-838.467 1098,-841 1173.11,-849.209 1192.92,-849.471 1268,-841 1284.35,-839.155 1301.87,-835.743 1317.82,-832.058"/>
<polygon fill="midnightblue" stroke="midnightblue" points="1029.35,-824.552 1018.8,-825.5 1027.64,-831.339 1029.35,-824.552"/>
</g>
<!-- Node12 -->
<g id="node12" class="node"><title>Node12</title>
<g id="a_node12"><a xlink:href="../../d3/d04/classmain_application_1_1_g_u_i_shell.html#a9df214dfffdce7a39bc6ac5e84ca1f0f" target="_top" xlink:title="mainApplication.GUIShell.create\lNewButton">
<polygon fill="white" stroke="black" points="1098,-802 1098,-832 1268,-832 1268,-802 1098,-802"/>
<text text-anchor="start" x="1106" y="-820" font-family="Helvetica,sans-Serif" font-size="10.00">mainApplication.GUIShell.create</text>
<text text-anchor="middle" x="1183" y="-809" font-family="Helvetica,sans-Serif" font-size="10.00">NewButton</text>
</a>
</g>
</g>
<!-- Node10&#45;&gt;Node12 -->
<g id="edge11" class="edge"><title>Node10&#45;&gt;Node12</title>
<path fill="none" stroke="midnightblue" d="M1068.93,-816.426C1078.51,-816.475 1088.27,-816.524 1097.85,-816.573"/>
<polygon fill="midnightblue" stroke="midnightblue" points="1068.65,-812.925 1058.64,-816.374 1068.62,-819.925 1068.65,-812.925"/>
</g>
<!-- Node10&#45;&gt;Node13 -->
<g id="edge13" class="edge"><title>Node10&#45;&gt;Node13</title>
<path fill="none" stroke="midnightblue" d="M1034.4,-803.964C1060.4,-797.628 1092.54,-789.798 1120.18,-783.063"/>
<polygon fill="midnightblue" stroke="midnightblue" points="1033.28,-800.634 1024.39,-806.402 1034.94,-807.435 1033.28,-800.634"/>
</g>
<!-- Node12&#45;&gt;Node11 -->
<g id="edge12" class="edge"><title>Node12&#45;&gt;Node11</title>
<path fill="none" stroke="midnightblue" d="M1278.36,-817C1286.96,-817 1295.57,-817 1303.9,-817"/>
<polygon fill="midnightblue" stroke="midnightblue" points="1278.27,-813.5 1268.27,-817 1278.27,-820.5 1278.27,-813.5"/>
</g>
<!-- Node13&#45;&gt;Node11 -->
<g id="edge14" class="edge"><title>Node13&#45;&gt;Node11</title>
<path fill="none" stroke="midnightblue" d="M1251.69,-785.55C1272.45,-790.931 1295.08,-796.799 1315.12,-801.994"/>
<polygon fill="midnightblue" stroke="midnightblue" points="1252.55,-782.156 1241.99,-783.035 1250.79,-788.932 1252.55,-782.156"/>
</g>
</g>
</svg>
