<?xml version="1.0" encoding="UTF-8" standalone="no"?>
<!DOCTYPE svg PUBLIC "-//W3C//DTD SVG 1.1//EN"
 "http://www.w3.org/Graphics/SVG/1.1/DTD/svg11.dtd">
<!-- Generated by graphviz version 2.36.0 (20140111.2315)
 -->
<!-- Title: command.Command.execute Pages: 1 -->
<svg width="502pt" height="87pt"
 viewBox="0.00 0.00 502.00 87.00" xmlns="http://www.w3.org/2000/svg" xmlns:xlink="http://www.w3.org/1999/xlink">
<g id="graph0" class="graph" transform="scale(1 1) rotate(0) translate(4 83)">
<title>command.Command.execute</title>
<polygon fill="white" stroke="none" points="-4,4 -4,-83 498,-83 498,4 -4,4"/>
<!-- Node1 -->
<g id="node1" class="node"><title>Node1</title>
<polygon fill="#bfbfbf" stroke="black" points="0,-29.5 0,-48.5 160,-48.5 160,-29.5 0,-29.5"/>
<text text-anchor="middle" x="80" y="-36.5" font-family="Helvetica,sans-Serif" font-size="10.00">command.Command.execute</text>
</g>
<!-- Node2 -->
<g id="node2" class="node"><title>Node2</title>
<g id="a_node2"><a xlink:href="../../d3/dcc/classparser_1_1_node.html#aa3463239abced8412cd45b968292a1a2" target="_top" xlink:title="parser.Node.evaluate">
<polygon fill="white" stroke="black" points="196.5,-29.5 196.5,-48.5 315.5,-48.5 315.5,-29.5 196.5,-29.5"/>
<text text-anchor="middle" x="256" y="-36.5" font-family="Helvetica,sans-Serif" font-size="10.00">parser.Node.evaluate</text>
</a>
</g>
</g>
<!-- Node1&#45;&gt;Node2 -->
<g id="edge1" class="edge"><title>Node1&#45;&gt;Node2</title>
<path fill="none" stroke="midnightblue" d="M170.151,-39C179.052,-39 187.923,-39 196.391,-39"/>
<polygon fill="midnightblue" stroke="midnightblue" points="170.108,-35.5001 160.108,-39 170.108,-42.5001 170.108,-35.5001"/>
</g>
<!-- Node3 -->
<g id="node3" class="node"><title>Node3</title>
<g id="a_node3"><a xlink:href="../../d8/dc3/classparser_1_1_test_model.html#a8f18e9d826aa2691f30cefddb8eed34e" target="_top" xlink:title="parser.TestModel.testSum\lCommand">
<polygon fill="white" stroke="black" points="352.5,-49 352.5,-79 493.5,-79 493.5,-49 352.5,-49"/>
<text text-anchor="start" x="360.5" y="-67" font-family="Helvetica,sans-Serif" font-size="10.00">parser.TestModel.testSum</text>
<text text-anchor="middle" x="423" y="-56" font-family="Helvetica,sans-Serif" font-size="10.00">Command</text>
</a>
</g>
</g>
<!-- Node2&#45;&gt;Node3 -->
<g id="edge2" class="edge"><title>Node2&#45;&gt;Node3</title>
<path fill="none" stroke="midnightblue" d="M325.788,-49.4224C334.538,-50.7481 343.499,-52.106 352.264,-53.434"/>
<polygon fill="midnightblue" stroke="midnightblue" points="326.049,-45.9221 315.637,-47.8845 325,-52.8431 326.049,-45.9221"/>
</g>
<!-- Node4 -->
<g id="node4" class="node"><title>Node4</title>
<g id="a_node4"><a xlink:href="../../d8/dc3/classparser_1_1_test_model.html#ae8f0f042085f7d6a5a82b3057cb41e4f" target="_top" xlink:title="parser.TestModel.testLess\lCommand">
<polygon fill="white" stroke="black" points="353,-0 353,-30 493,-30 493,-0 353,-0"/>
<text text-anchor="start" x="361" y="-18" font-family="Helvetica,sans-Serif" font-size="10.00">parser.TestModel.testLess</text>
<text text-anchor="middle" x="423" y="-7" font-family="Helvetica,sans-Serif" font-size="10.00">Command</text>
</a>
</g>
</g>
<!-- Node2&#45;&gt;Node4 -->
<g id="edge3" class="edge"><title>Node2&#45;&gt;Node4</title>
<path fill="none" stroke="midnightblue" d="M325.658,-29.0133C334.64,-27.707 343.846,-26.3678 352.836,-25.0603"/>
<polygon fill="midnightblue" stroke="midnightblue" points="325.029,-25.5679 315.637,-30.4709 326.037,-32.495 325.029,-25.5679"/>
</g>
</g>
</svg>
