<?xml version="1.0" encoding="UTF-8" standalone="no"?>
<!DOCTYPE svg PUBLIC "-//W3C//DTD SVG 1.1//EN"
 "http://www.w3.org/Graphics/SVG/1.1/DTD/svg11.dtd">
<!-- Generated by graphviz version 2.36.0 (20140111.2315)
 -->
<!-- Title: command.Command.getNumInputs Pages: 1 -->
<svg width="598pt" height="47pt"
 viewBox="0.00 0.00 598.00 47.00" xmlns="http://www.w3.org/2000/svg" xmlns:xlink="http://www.w3.org/1999/xlink">
<g id="graph0" class="graph" transform="scale(1 1) rotate(0) translate(4 43)">
<title>command.Command.getNumInputs</title>
<polygon fill="white" stroke="none" points="-4,4 -4,-43 594,-43 594,4 -4,4"/>
<!-- Node1 -->
<g id="node1" class="node"><title>Node1</title>
<polygon fill="#bfbfbf" stroke="black" points="0,-0.5 0,-19.5 190,-19.5 190,-0.5 0,-0.5"/>
<text text-anchor="middle" x="95" y="-7.5" font-family="Helvetica,sans-Serif" font-size="10.00">command.Command.getNumInputs</text>
</g>
<!-- Node2 -->
<g id="node2" class="node"><title>Node2</title>
<g id="a_node2"><a xlink:href="../../d7/d35/classcommand_1_1_command.html#a30463654f906e5bcf507ab33bd5d8bff" target="_top" xlink:title="command.Command.checkListExit">
<polygon fill="white" stroke="black" points="226.5,-19.5 226.5,-38.5 409.5,-38.5 409.5,-19.5 226.5,-19.5"/>
<text text-anchor="middle" x="318" y="-26.5" font-family="Helvetica,sans-Serif" font-size="10.00">command.Command.checkListExit</text>
</a>
</g>
</g>
<!-- Node1&#45;&gt;Node2 -->
<g id="edge1" class="edge"><title>Node1&#45;&gt;Node2</title>
<path fill="none" stroke="midnightblue" d="M190.044,-18.0853C198.657,-18.8257 207.407,-19.5779 216.077,-20.3233"/>
<polygon fill="midnightblue" stroke="midnightblue" points="215.942,-23.8246 226.205,-21.1941 216.542,-16.8503 215.942,-23.8246"/>
</g>
<!-- Node3 -->
<g id="node3" class="node"><title>Node3</title>
<g id="a_node3"><a xlink:href="../../d3/dcc/classparser_1_1_node.html#a7dfaaf7e60998705460f304c5d56ca6f" target="_top" xlink:title="parser.Node.getCommand">
<polygon fill="white" stroke="black" points="446,-0.5 446,-19.5 590,-19.5 590,-0.5 446,-0.5"/>
<text text-anchor="middle" x="518" y="-7.5" font-family="Helvetica,sans-Serif" font-size="10.00">parser.Node.getCommand</text>
</a>
</g>
</g>
<!-- Node1&#45;&gt;Node3 -->
<g id="edge3" class="edge"><title>Node1&#45;&gt;Node3</title>
<path fill="none" stroke="midnightblue" d="M190.218,-10C264.031,-10 365.64,-10 435.87,-10"/>
<polygon fill="midnightblue" stroke="midnightblue" points="435.997,-13.5001 445.997,-10 435.997,-6.5001 435.997,-13.5001"/>
</g>
<!-- Node2&#45;&gt;Node3 -->
<g id="edge2" class="edge"><title>Node2&#45;&gt;Node3</title>
<path fill="none" stroke="midnightblue" d="M409.598,-20.3063C418.307,-19.4705 427.104,-18.6264 435.716,-17.8"/>
<polygon fill="midnightblue" stroke="midnightblue" points="436.105,-21.2789 445.725,-16.8396 435.436,-14.3109 436.105,-21.2789"/>
</g>
</g>
</svg>
