<?xml version="1.0" encoding="UTF-8" standalone="no"?>
<!DOCTYPE svg PUBLIC "-//W3C//DTD SVG 1.1//EN"
 "http://www.w3.org/Graphics/SVG/1.1/DTD/svg11.dtd">
<!-- Generated by graphviz version 2.36.0 (20140111.2315)
 -->
<!-- Title: properties.StageProperties.setClear Pages: 1 -->
<svg width="610pt" height="66pt"
 viewBox="0.00 0.00 610.00 66.00" xmlns="http://www.w3.org/2000/svg" xmlns:xlink="http://www.w3.org/1999/xlink">
<g id="graph0" class="graph" transform="scale(1 1) rotate(0) translate(4 62)">
<title>properties.StageProperties.setClear</title>
<polygon fill="white" stroke="none" points="-4,4 -4,-62 606,-62 606,4 -4,4"/>
<!-- Node1 -->
<g id="node1" class="node"><title>Node1</title>
<polygon fill="#bfbfbf" stroke="black" points="0,-14 0,-44 164,-44 164,-14 0,-14"/>
<text text-anchor="start" x="8" y="-32" font-family="Helvetica,sans-Serif" font-size="10.00">properties.StageProperties.set</text>
<text text-anchor="middle" x="82" y="-21" font-family="Helvetica,sans-Serif" font-size="10.00">Clear</text>
</g>
<!-- Node2 -->
<g id="node2" class="node"><title>Node2</title>
<g id="a_node2"><a xlink:href="../../de/d19/classworkspace_1_1_workspace.html#a645b162e34e52069e1a18fa5c57daa41" target="_top" xlink:title="workspace.Workspace.clear">
<polygon fill="white" stroke="black" points="200.5,-19.5 200.5,-38.5 347.5,-38.5 347.5,-19.5 200.5,-19.5"/>
<text text-anchor="middle" x="274" y="-26.5" font-family="Helvetica,sans-Serif" font-size="10.00">workspace.Workspace.clear</text>
</a>
</g>
</g>
<!-- Node1&#45;&gt;Node2 -->
<g id="edge1" class="edge"><title>Node1&#45;&gt;Node2</title>
<path fill="none" stroke="midnightblue" d="M174.31,-29C183.014,-29 191.759,-29 200.253,-29"/>
<polygon fill="midnightblue" stroke="midnightblue" points="174.128,-25.5001 164.128,-29 174.128,-32.5001 174.128,-25.5001"/>
</g>
<!-- Node3 -->
<g id="node3" class="node"><title>Node3</title>
<g id="a_node3"><a xlink:href="../../d5/d9e/classcommand_1_1_clear_screen_command.html#a5860aeadd96cfbade9a5ea48d7ae60fc" target="_top" xlink:title="command.ClearScreenCommand.execute">
<polygon fill="white" stroke="black" points="384,-38.5 384,-57.5 602,-57.5 602,-38.5 384,-38.5"/>
<text text-anchor="middle" x="493" y="-45.5" font-family="Helvetica,sans-Serif" font-size="10.00">command.ClearScreenCommand.execute</text>
</a>
</g>
</g>
<!-- Node2&#45;&gt;Node3 -->
<g id="edge2" class="edge"><title>Node2&#45;&gt;Node3</title>
<path fill="none" stroke="midnightblue" d="M357.571,-36.2297C366.202,-36.9854 375.065,-37.7615 383.925,-38.5372"/>
<polygon fill="midnightblue" stroke="midnightblue" points="357.827,-32.7388 347.56,-35.3531 357.216,-39.7121 357.827,-32.7388"/>
</g>
<!-- Node4 -->
<g id="node4" class="node"><title>Node4</title>
<g id="a_node4"><a xlink:href="../../d7/da1/classmain_application_1_1_controller.html#a0ce45e0f09c24ab78746a0d3bce7550f" target="_top" xlink:title="mainApplication.Controller.clear">
<polygon fill="white" stroke="black" points="409,-0.5 409,-19.5 577,-19.5 577,-0.5 409,-0.5"/>
<text text-anchor="middle" x="493" y="-7.5" font-family="Helvetica,sans-Serif" font-size="10.00">mainApplication.Controller.clear</text>
</a>
</g>
</g>
<!-- Node2&#45;&gt;Node4 -->
<g id="edge3" class="edge"><title>Node2&#45;&gt;Node4</title>
<path fill="none" stroke="midnightblue" d="M357.802,-21.7501C374.454,-20.2921 391.963,-18.759 408.634,-17.2994"/>
<polygon fill="midnightblue" stroke="midnightblue" points="357.216,-18.2879 347.56,-22.6469 357.827,-25.2612 357.216,-18.2879"/>
</g>
</g>
</svg>
