<?xml version="1.0" encoding="UTF-8" standalone="no"?>
<!DOCTYPE svg PUBLIC "-//W3C//DTD SVG 1.1//EN"
 "http://www.w3.org/Graphics/SVG/1.1/DTD/svg11.dtd">
<!-- Generated by graphviz version 2.36.0 (20140111.2315)
 -->
<!-- Title: workspace.Workspace.changeBackground Pages: 1 -->
<svg width="404pt" height="87pt"
 viewBox="0.00 0.00 404.00 87.00" xmlns="http://www.w3.org/2000/svg" xmlns:xlink="http://www.w3.org/1999/xlink">
<g id="graph0" class="graph" transform="scale(1 1) rotate(0) translate(4 83)">
<title>workspace.Workspace.changeBackground</title>
<polygon fill="white" stroke="none" points="-4,4 -4,-83 400,-83 400,4 -4,4"/>
<!-- Node1 -->
<g id="node1" class="node"><title>Node1</title>
<polygon fill="#bfbfbf" stroke="black" points="0.5,-24 0.5,-54 159.5,-54 159.5,-24 0.5,-24"/>
<text text-anchor="start" x="8.5" y="-42" font-family="Helvetica,sans-Serif" font-size="10.00">workspace.Workspace.change</text>
<text text-anchor="middle" x="80" y="-31" font-family="Helvetica,sans-Serif" font-size="10.00">Background</text>
</g>
<!-- Node2 -->
<g id="node2" class="node"><title>Node2</title>
<g id="a_node2"><a xlink:href="../../de/d19/classworkspace_1_1_workspace.html#a197988cb471cd86b0a164f735a366be7" target="_top" xlink:title="workspace.Workspace.setChangedand\lNotify">
<polygon fill="white" stroke="black" points="196,-49 196,-79 396,-79 396,-49 196,-49"/>
<text text-anchor="start" x="204" y="-67" font-family="Helvetica,sans-Serif" font-size="10.00">workspace.Workspace.setChangedand</text>
<text text-anchor="middle" x="296" y="-56" font-family="Helvetica,sans-Serif" font-size="10.00">Notify</text>
</a>
</g>
</g>
<!-- Node1&#45;&gt;Node2 -->
<g id="edge1" class="edge"><title>Node1&#45;&gt;Node2</title>
<path fill="none" stroke="midnightblue" d="M159.774,-48.2026C168.169,-49.1832 176.813,-50.1931 185.479,-51.2055"/>
<polygon fill="midnightblue" stroke="midnightblue" points="185.31,-54.7095 195.649,-52.3935 186.122,-47.7568 185.31,-54.7095"/>
</g>
<!-- Node3 -->
<g id="node3" class="node"><title>Node3</title>
<g id="a_node3"><a xlink:href="../../de/d1c/classproperties_1_1_stage_properties.html#a5c51c0269becdf37eb7a595a099fa310" target="_top" xlink:title="properties.StageProperties.set\lIndex">
<polygon fill="white" stroke="black" points="214,-0 214,-30 378,-30 378,-0 214,-0"/>
<text text-anchor="start" x="222" y="-18" font-family="Helvetica,sans-Serif" font-size="10.00">properties.StageProperties.set</text>
<text text-anchor="middle" x="296" y="-7" font-family="Helvetica,sans-Serif" font-size="10.00">Index</text>
</a>
</g>
</g>
<!-- Node1&#45;&gt;Node3 -->
<g id="edge2" class="edge"><title>Node1&#45;&gt;Node3</title>
<path fill="none" stroke="midnightblue" d="M159.774,-30.1655C174.105,-28.5583 189.163,-26.8695 203.817,-25.2261"/>
<polygon fill="midnightblue" stroke="midnightblue" points="204.336,-28.69 213.884,-24.0972 203.556,-21.7336 204.336,-28.69"/>
</g>
</g>
</svg>
