<?xml version="1.0" encoding="UTF-8" standalone="no"?>
<!DOCTYPE svg PUBLIC "-//W3C//DTD SVG 1.1//EN"
 "http://www.w3.org/Graphics/SVG/1.1/DTD/svg11.dtd">
<!-- Generated by graphviz version 2.36.0 (20140111.2315)
 -->
<!-- Title: workspace.Workspace.createTurtle Pages: 1 -->
<svg width="1044pt" height="228pt"
 viewBox="0.00 0.00 1044.00 228.00" xmlns="http://www.w3.org/2000/svg" xmlns:xlink="http://www.w3.org/1999/xlink">
<g id="graph0" class="graph" transform="scale(1 1) rotate(0) translate(4 224)">
<title>workspace.Workspace.createTurtle</title>
<polygon fill="white" stroke="none" points="-4,4 -4,-224 1040,-224 1040,4 -4,4"/>
<!-- Node1 -->
<g id="node1" class="node"><title>Node1</title>
<polygon fill="#bfbfbf" stroke="black" points="0.5,-71 0.5,-101 155.5,-101 155.5,-71 0.5,-71"/>
<text text-anchor="start" x="8.5" y="-89" font-family="Helvetica,sans-Serif" font-size="10.00">workspace.Workspace.create</text>
<text text-anchor="middle" x="78" y="-78" font-family="Helvetica,sans-Serif" font-size="10.00">Turtle</text>
</g>
<!-- Node2 -->
<g id="node2" class="node"><title>Node2</title>
<g id="a_node2"><a xlink:href="../../de/d19/classworkspace_1_1_workspace.html#a645b162e34e52069e1a18fa5c57daa41" target="_top" xlink:title="workspace.Workspace.clear">
<polygon fill="white" stroke="black" points="222.5,-164.5 222.5,-183.5 369.5,-183.5 369.5,-164.5 222.5,-164.5"/>
<text text-anchor="middle" x="296" y="-171.5" font-family="Helvetica,sans-Serif" font-size="10.00">workspace.Workspace.clear</text>
</a>
</g>
</g>
<!-- Node1&#45;&gt;Node2 -->
<g id="edge1" class="edge"><title>Node1&#45;&gt;Node2</title>
<path fill="none" stroke="midnightblue" d="M107.335,-106.902C129.36,-122.168 161.244,-142.185 192,-154 203.308,-158.344 215.691,-161.78 227.828,-164.488"/>
<polygon fill="midnightblue" stroke="midnightblue" points="109.3,-104.005 99.1103,-101.104 105.267,-109.726 109.3,-104.005"/>
</g>
<!-- Node5 -->
<g id="node5" class="node"><title>Node5</title>
<g id="a_node5"><a xlink:href="../../d7/da1/classmain_application_1_1_controller.html#a14cb8c148061cb04d6968d56f26e4c82" target="_top" xlink:title="mainApplication.Controller.create\lWorkspace">
<polygon fill="white" stroke="black" points="208,-115 208,-145 384,-145 384,-115 208,-115"/>
<text text-anchor="start" x="216" y="-133" font-family="Helvetica,sans-Serif" font-size="10.00">mainApplication.Controller.create</text>
<text text-anchor="middle" x="296" y="-122" font-family="Helvetica,sans-Serif" font-size="10.00">Workspace</text>
</a>
</g>
</g>
<!-- Node1&#45;&gt;Node5 -->
<g id="edge4" class="edge"><title>Node1&#45;&gt;Node5</title>
<path fill="none" stroke="midnightblue" d="M162.709,-103.052C182.007,-106.983 202.396,-111.136 221.235,-114.974"/>
<polygon fill="midnightblue" stroke="midnightblue" points="163.228,-99.5858 152.731,-101.019 161.831,-106.445 163.228,-99.5858"/>
</g>
<!-- Node10 -->
<g id="node10" class="node"><title>Node10</title>
<g id="a_node10"><a xlink:href="../../db/d0a/classcommand_1_1_base_multi_turtle_command.html#a18475dfa4cad362fd566082a1cba7f59" target="_top" xlink:title="command.BaseMultiTurtleCommand.tell">
<polygon fill="white" stroke="black" points="192,-76.5 192,-95.5 400,-95.5 400,-76.5 192,-76.5"/>
<text text-anchor="middle" x="296" y="-83.5" font-family="Helvetica,sans-Serif" font-size="10.00">command.BaseMultiTurtleCommand.tell</text>
</a>
</g>
</g>
<!-- Node1&#45;&gt;Node10 -->
<g id="edge11" class="edge"><title>Node1&#45;&gt;Node10</title>
<path fill="none" stroke="midnightblue" d="M165.975,-86C174.432,-86 183.069,-86 191.666,-86"/>
<polygon fill="midnightblue" stroke="midnightblue" points="165.762,-82.5001 155.762,-86 165.762,-89.5001 165.762,-82.5001"/>
</g>
<!-- Node14 -->
<g id="node14" class="node"><title>Node14</title>
<g id="a_node14"><a xlink:href="../../de/d33/classparser_1_1_test_parser.html#a616e3d3359a2feaf24149915c6aea8c8" target="_top" xlink:title="parser.TestParser.TestForward">
<polygon fill="white" stroke="black" points="217.5,-38.5 217.5,-57.5 374.5,-57.5 374.5,-38.5 217.5,-38.5"/>
<text text-anchor="middle" x="296" y="-45.5" font-family="Helvetica,sans-Serif" font-size="10.00">parser.TestParser.TestForward</text>
</a>
</g>
</g>
<!-- Node1&#45;&gt;Node14 -->
<g id="edge15" class="edge"><title>Node1&#45;&gt;Node14</title>
<path fill="none" stroke="midnightblue" d="M165.766,-70.7357C191.137,-66.2722 218.136,-61.5223 240.86,-57.5246"/>
<polygon fill="midnightblue" stroke="midnightblue" points="165.004,-67.3158 155.762,-72.4956 166.217,-74.21 165.004,-67.3158"/>
</g>
<!-- Node15 -->
<g id="node15" class="node"><title>Node15</title>
<g id="a_node15"><a xlink:href="../../de/d33/classparser_1_1_test_parser.html#a93efc93146678909fa1c24a6727460ae" target="_top" xlink:title="parser.TestParser.TestTo">
<polygon fill="white" stroke="black" points="231.5,-0.5 231.5,-19.5 360.5,-19.5 360.5,-0.5 231.5,-0.5"/>
<text text-anchor="middle" x="296" y="-7.5" font-family="Helvetica,sans-Serif" font-size="10.00">parser.TestParser.TestTo</text>
</a>
</g>
</g>
<!-- Node1&#45;&gt;Node15 -->
<g id="edge16" class="edge"><title>Node1&#45;&gt;Node15</title>
<path fill="none" stroke="midnightblue" d="M112.58,-65.8697C134.499,-53.5444 164.122,-38.3871 192,-29 204.494,-24.793 218.172,-21.445 231.362,-18.8069"/>
<polygon fill="midnightblue" stroke="midnightblue" points="110.63,-62.9525 103.685,-70.9535 114.104,-69.0299 110.63,-62.9525"/>
</g>
<!-- Node3 -->
<g id="node3" class="node"><title>Node3</title>
<g id="a_node3"><a xlink:href="../../d7/da1/classmain_application_1_1_controller.html#a0ce45e0f09c24ab78746a0d3bce7550f" target="_top" xlink:title="mainApplication.Controller.clear">
<polygon fill="white" stroke="black" points="461,-200.5 461,-219.5 629,-219.5 629,-200.5 461,-200.5"/>
<text text-anchor="middle" x="545" y="-207.5" font-family="Helvetica,sans-Serif" font-size="10.00">mainApplication.Controller.clear</text>
</a>
</g>
</g>
<!-- Node2&#45;&gt;Node3 -->
<g id="edge2" class="edge"><title>Node2&#45;&gt;Node3</title>
<path fill="none" stroke="midnightblue" d="M372.52,-185.007C406.343,-189.937 445.851,-195.695 478.415,-200.441"/>
<polygon fill="midnightblue" stroke="midnightblue" points="372.62,-181.485 362.219,-183.506 371.61,-188.411 372.62,-181.485"/>
</g>
<!-- Node4 -->
<g id="node4" class="node"><title>Node4</title>
<g id="a_node4"><a xlink:href="../../d5/d9e/classcommand_1_1_clear_screen_command.html#a5860aeadd96cfbade9a5ea48d7ae60fc" target="_top" xlink:title="command.ClearScreenCommand.execute">
<polygon fill="white" stroke="black" points="436,-162.5 436,-181.5 654,-181.5 654,-162.5 436,-162.5"/>
<text text-anchor="middle" x="545" y="-169.5" font-family="Helvetica,sans-Serif" font-size="10.00">command.ClearScreenCommand.execute</text>
</a>
</g>
</g>
<!-- Node2&#45;&gt;Node4 -->
<g id="edge3" class="edge"><title>Node2&#45;&gt;Node4</title>
<path fill="none" stroke="midnightblue" d="M380.1,-173.327C397.909,-173.183 416.978,-173.029 435.584,-172.878"/>
<polygon fill="midnightblue" stroke="midnightblue" points="379.744,-169.83 369.772,-173.411 379.8,-176.83 379.744,-169.83"/>
</g>
<!-- Node6 -->
<g id="node6" class="node"><title>Node6</title>
<g id="a_node6"><a xlink:href="../../d3/de0/classmain_application_1_1_g_u_i.html#af6bd387013dbd1d1daf030117da66c0e" target="_top" xlink:title="mainApplication.GUI.initiate">
<polygon fill="white" stroke="black" points="470.5,-121.5 470.5,-140.5 619.5,-140.5 619.5,-121.5 470.5,-121.5"/>
<text text-anchor="middle" x="545" y="-128.5" font-family="Helvetica,sans-Serif" font-size="10.00">mainApplication.GUI.initiate</text>
</a>
</g>
</g>
<!-- Node5&#45;&gt;Node6 -->
<g id="edge5" class="edge"><title>Node5&#45;&gt;Node6</title>
<path fill="none" stroke="midnightblue" d="M394.099,-130.393C419.485,-130.496 446.432,-130.605 470.374,-130.702"/>
<polygon fill="midnightblue" stroke="midnightblue" points="394.097,-126.893 384.083,-130.353 394.069,-133.893 394.097,-126.893"/>
</g>
<!-- Node7 -->
<g id="node7" class="node"><title>Node7</title>
<g id="a_node7"><a xlink:href="../../d3/d04/classmain_application_1_1_g_u_i_shell.html#a9df214dfffdce7a39bc6ac5e84ca1f0f" target="_top" xlink:title="mainApplication.GUIShell.create\lNewButton">
<polygon fill="white" stroke="black" points="690,-160 690,-190 860,-190 860,-160 690,-160"/>
<text text-anchor="start" x="698" y="-178" font-family="Helvetica,sans-Serif" font-size="10.00">mainApplication.GUIShell.create</text>
<text text-anchor="middle" x="775" y="-167" font-family="Helvetica,sans-Serif" font-size="10.00">NewButton</text>
</a>
</g>
</g>
<!-- Node6&#45;&gt;Node7 -->
<g id="edge6" class="edge"><title>Node6&#45;&gt;Node7</title>
<path fill="none" stroke="midnightblue" d="M605.387,-142.461C633.033,-147.796 666.289,-154.214 695.934,-159.935"/>
<polygon fill="midnightblue" stroke="midnightblue" points="605.955,-139.006 595.473,-140.547 604.628,-145.879 605.955,-139.006"/>
</g>
<!-- Node8 -->
<g id="node8" class="node"><title>Node8</title>
<g id="a_node8"><a xlink:href="../../d3/d04/classmain_application_1_1_g_u_i_shell.html#ac525a3e483dbe24e5f9f0257fe54521d" target="_top" xlink:title="mainApplication.GUIShell.\lGUIShell">
<polygon fill="white" stroke="black" points="896,-116 896,-146 1036,-146 1036,-116 896,-116"/>
<text text-anchor="start" x="904" y="-134" font-family="Helvetica,sans-Serif" font-size="10.00">mainApplication.GUIShell.</text>
<text text-anchor="middle" x="966" y="-123" font-family="Helvetica,sans-Serif" font-size="10.00">GUIShell</text>
</a>
</g>
</g>
<!-- Node6&#45;&gt;Node8 -->
<g id="edge10" class="edge"><title>Node6&#45;&gt;Node8</title>
<path fill="none" stroke="midnightblue" d="M630.235,-131C708.336,-131 823.142,-131 895.965,-131"/>
<polygon fill="midnightblue" stroke="midnightblue" points="629.944,-127.5 619.944,-131 629.944,-134.5 629.944,-127.5"/>
</g>
<!-- Node9 -->
<g id="node9" class="node"><title>Node9</title>
<g id="a_node9"><a xlink:href="../../d3/d04/classmain_application_1_1_g_u_i_shell.html#af2f106fa7786f13ccc0202db53b559b9" target="_top" xlink:title="mainApplication.GUIShell.create\lOpenButton">
<polygon fill="white" stroke="black" points="690,-72 690,-102 860,-102 860,-72 690,-72"/>
<text text-anchor="start" x="698" y="-90" font-family="Helvetica,sans-Serif" font-size="10.00">mainApplication.GUIShell.create</text>
<text text-anchor="middle" x="775" y="-79" font-family="Helvetica,sans-Serif" font-size="10.00">OpenButton</text>
</a>
</g>
</g>
<!-- Node6&#45;&gt;Node9 -->
<g id="edge8" class="edge"><title>Node6&#45;&gt;Node9</title>
<path fill="none" stroke="midnightblue" d="M612.072,-119.714C625.937,-117.251 640.46,-114.601 654,-112 670.092,-108.909 687.36,-105.416 703.641,-102.042"/>
<polygon fill="midnightblue" stroke="midnightblue" points="611.355,-116.286 602.115,-121.471 612.571,-123.18 611.355,-116.286"/>
</g>
<!-- Node7&#45;&gt;Node8 -->
<g id="edge7" class="edge"><title>Node7&#45;&gt;Node8</title>
<path fill="none" stroke="midnightblue" d="M850.642,-157.623C867.112,-153.789 884.425,-149.758 900.456,-146.026"/>
<polygon fill="midnightblue" stroke="midnightblue" points="849.46,-154.304 840.514,-159.981 851.048,-161.122 849.46,-154.304"/>
</g>
<!-- Node9&#45;&gt;Node8 -->
<g id="edge9" class="edge"><title>Node9&#45;&gt;Node8</title>
<path fill="none" stroke="midnightblue" d="M850.642,-104.377C867.112,-108.211 884.425,-112.242 900.456,-115.974"/>
<polygon fill="midnightblue" stroke="midnightblue" points="851.048,-100.878 840.514,-102.019 849.46,-107.696 851.048,-100.878"/>
</g>
<!-- Node11 -->
<g id="node11" class="node"><title>Node11</title>
<g id="a_node11"><a xlink:href="../../db/d24/classcommand_1_1_ask_command.html#a512723f6475d7ed90cb6639c5eec3adb" target="_top" xlink:title="command.AskCommand.execute">
<polygon fill="white" stroke="black" points="456.5,-83.5 456.5,-102.5 633.5,-102.5 633.5,-83.5 456.5,-83.5"/>
<text text-anchor="middle" x="545" y="-90.5" font-family="Helvetica,sans-Serif" font-size="10.00">command.AskCommand.execute</text>
</a>
</g>
</g>
<!-- Node10&#45;&gt;Node11 -->
<g id="edge12" class="edge"><title>Node10&#45;&gt;Node11</title>
<path fill="none" stroke="midnightblue" d="M410.418,-89.2143C425.847,-89.6515 441.488,-90.0948 456.368,-90.5165"/>
<polygon fill="midnightblue" stroke="midnightblue" points="410.414,-85.7129 400.319,-88.9281 410.216,-92.71 410.414,-85.7129"/>
</g>
<!-- Node12 -->
<g id="node12" class="node"><title>Node12</title>
<g id="a_node12"><a xlink:href="../../d6/de2/classcommand_1_1_tell_command.html#ad12c8eb44a4dc930037355278c0aee33" target="_top" xlink:title="command.TellCommand.execute">
<polygon fill="white" stroke="black" points="458,-45.5 458,-64.5 632,-64.5 632,-45.5 458,-45.5"/>
<text text-anchor="middle" x="545" y="-52.5" font-family="Helvetica,sans-Serif" font-size="10.00">command.TellCommand.execute</text>
</a>
</g>
</g>
<!-- Node10&#45;&gt;Node12 -->
<g id="edge13" class="edge"><title>Node10&#45;&gt;Node12</title>
<path fill="none" stroke="midnightblue" d="M382.848,-75.2256C410.531,-71.7512 441.004,-67.9266 467.931,-64.5471"/>
<polygon fill="midnightblue" stroke="midnightblue" points="382.273,-71.7702 372.787,-76.4883 383.145,-78.7157 382.273,-71.7702"/>
</g>
<!-- Node13 -->
<g id="node13" class="node"><title>Node13</title>
<g id="a_node13"><a xlink:href="../../dc/daf/classcommand_1_1_ask_with_command.html#aa8274e05370a4e3f6ad3e2d7e86ec7f0" target="_top" xlink:title="command.AskWithCommand.execute">
<polygon fill="white" stroke="black" points="446.5,-7.5 446.5,-26.5 643.5,-26.5 643.5,-7.5 446.5,-7.5"/>
<text text-anchor="middle" x="545" y="-14.5" font-family="Helvetica,sans-Serif" font-size="10.00">command.AskWithCommand.execute</text>
</a>
</g>
</g>
<!-- Node10&#45;&gt;Node13 -->
<g id="edge14" class="edge"><title>Node10&#45;&gt;Node13</title>
<path fill="none" stroke="midnightblue" d="M383.674,-73.5381C389.307,-71.656 394.799,-69.4908 400,-67 419.043,-57.8794 416.919,-45.0418 436,-36 444.172,-32.1276 453.029,-29.038 462.037,-26.5742"/>
<polygon fill="midnightblue" stroke="midnightblue" points="382.643,-70.1933 374.09,-76.4458 384.676,-76.8918 382.643,-70.1933"/>
</g>
</g>
</svg>
