<?xml version="1.0" encoding="UTF-8" standalone="no"?>
<!DOCTYPE svg PUBLIC "-//W3C//DTD SVG 1.1//EN"
 "http://www.w3.org/Graphics/SVG/1.1/DTD/svg11.dtd">
<!-- Generated by graphviz version 2.36.0 (20140111.2315)
 -->
<!-- Title: workspace.Workspace.setChangedandNotify Pages: 1 -->
<svg width="658pt" height="115pt"
 viewBox="0.00 0.00 658.00 115.00" xmlns="http://www.w3.org/2000/svg" xmlns:xlink="http://www.w3.org/1999/xlink">
<g id="graph0" class="graph" transform="scale(1 1) rotate(0) translate(4 111)">
<title>workspace.Workspace.setChangedandNotify</title>
<polygon fill="white" stroke="none" points="-4,4 -4,-111 654,-111 654,4 -4,4"/>
<!-- Node1 -->
<g id="node1" class="node"><title>Node1</title>
<polygon fill="#bfbfbf" stroke="black" points="0,-33 0,-63 200,-63 200,-33 0,-33"/>
<text text-anchor="start" x="8" y="-51" font-family="Helvetica,sans-Serif" font-size="10.00">workspace.Workspace.setChangedand</text>
<text text-anchor="middle" x="100" y="-40" font-family="Helvetica,sans-Serif" font-size="10.00">Notify</text>
</g>
<!-- Node2 -->
<g id="node2" class="node"><title>Node2</title>
<g id="a_node2"><a xlink:href="../../de/d19/classworkspace_1_1_workspace.html#a22210b60c4b2dd4fa22224f8b260e96b" target="_top" xlink:title="workspace.Workspace.change\lBackground">
<polygon fill="white" stroke="black" points="236.5,-77 236.5,-107 395.5,-107 395.5,-77 236.5,-77"/>
<text text-anchor="start" x="244.5" y="-95" font-family="Helvetica,sans-Serif" font-size="10.00">workspace.Workspace.change</text>
<text text-anchor="middle" x="316" y="-84" font-family="Helvetica,sans-Serif" font-size="10.00">Background</text>
</a>
</g>
</g>
<!-- Node1&#45;&gt;Node2 -->
<g id="edge1" class="edge"><title>Node1&#45;&gt;Node2</title>
<path fill="none" stroke="midnightblue" d="M183.934,-65.0518C203.053,-68.9829 223.253,-73.1362 241.918,-76.9738"/>
<polygon fill="midnightblue" stroke="midnightblue" points="184.548,-61.605 174.048,-63.0192 183.138,-68.4616 184.548,-61.605"/>
</g>
<!-- Node3 -->
<g id="node3" class="node"><title>Node3</title>
<g id="a_node3"><a xlink:href="../../de/d19/classworkspace_1_1_workspace.html#a645b162e34e52069e1a18fa5c57daa41" target="_top" xlink:title="workspace.Workspace.clear">
<polygon fill="white" stroke="black" points="242.5,-38.5 242.5,-57.5 389.5,-57.5 389.5,-38.5 242.5,-38.5"/>
<text text-anchor="middle" x="316" y="-45.5" font-family="Helvetica,sans-Serif" font-size="10.00">workspace.Workspace.clear</text>
</a>
</g>
</g>
<!-- Node1&#45;&gt;Node3 -->
<g id="edge2" class="edge"><title>Node1&#45;&gt;Node3</title>
<path fill="none" stroke="midnightblue" d="M210.181,-48C221.087,-48 231.962,-48 242.355,-48"/>
<polygon fill="midnightblue" stroke="midnightblue" points="210.169,-44.5001 200.169,-48 210.169,-51.5001 210.169,-44.5001"/>
</g>
<!-- Node6 -->
<g id="node6" class="node"><title>Node6</title>
<g id="a_node6"><a xlink:href="../../de/d19/classworkspace_1_1_workspace.html#a1db45ff8759374a67f29ae86256f7777" target="_top" xlink:title="workspace.Workspace.update">
<polygon fill="white" stroke="black" points="237,-0.5 237,-19.5 395,-19.5 395,-0.5 237,-0.5"/>
<text text-anchor="middle" x="316" y="-7.5" font-family="Helvetica,sans-Serif" font-size="10.00">workspace.Workspace.update</text>
</a>
</g>
</g>
<!-- Node1&#45;&gt;Node6 -->
<g id="edge5" class="edge"><title>Node1&#45;&gt;Node6</title>
<path fill="none" stroke="midnightblue" d="M195.549,-31.2109C218.149,-27.1979 241.5,-23.0515 261.495,-19.5009"/>
<polygon fill="midnightblue" stroke="midnightblue" points="194.812,-27.7869 185.578,-32.9814 196.036,-34.6791 194.812,-27.7869"/>
</g>
<!-- Node4 -->
<g id="node4" class="node"><title>Node4</title>
<g id="a_node4"><a xlink:href="../../d7/da1/classmain_application_1_1_controller.html#a0ce45e0f09c24ab78746a0d3bce7550f" target="_top" xlink:title="mainApplication.Controller.clear">
<polygon fill="white" stroke="black" points="457,-57.5 457,-76.5 625,-76.5 625,-57.5 457,-57.5"/>
<text text-anchor="middle" x="541" y="-64.5" font-family="Helvetica,sans-Serif" font-size="10.00">mainApplication.Controller.clear</text>
</a>
</g>
</g>
<!-- Node3&#45;&gt;Node4 -->
<g id="edge3" class="edge"><title>Node3&#45;&gt;Node4</title>
<path fill="none" stroke="midnightblue" d="M399.925,-55.0654C418.549,-56.6522 438.314,-58.3362 456.944,-59.9235"/>
<polygon fill="midnightblue" stroke="midnightblue" points="399.971,-51.5567 389.71,-54.195 399.377,-58.5314 399.971,-51.5567"/>
</g>
<!-- Node5 -->
<g id="node5" class="node"><title>Node5</title>
<g id="a_node5"><a xlink:href="../../d5/d9e/classcommand_1_1_clear_screen_command.html#a5860aeadd96cfbade9a5ea48d7ae60fc" target="_top" xlink:title="command.ClearScreenCommand.execute">
<polygon fill="white" stroke="black" points="432,-19.5 432,-38.5 650,-38.5 650,-19.5 432,-19.5"/>
<text text-anchor="middle" x="541" y="-26.5" font-family="Helvetica,sans-Serif" font-size="10.00">command.ClearScreenCommand.execute</text>
</a>
</g>
</g>
<!-- Node3&#45;&gt;Node5 -->
<g id="edge4" class="edge"><title>Node3&#45;&gt;Node5</title>
<path fill="none" stroke="midnightblue" d="M399.962,-40.9315C410.346,-40.0467 421.085,-39.1318 431.783,-38.2203"/>
<polygon fill="midnightblue" stroke="midnightblue" points="399.377,-37.4686 389.71,-41.805 399.971,-44.4433 399.377,-37.4686"/>
</g>
</g>
</svg>
