<?xml version="1.0" encoding="UTF-8" standalone="no"?>
<!DOCTYPE svg PUBLIC "-//W3C//DTD SVG 1.1//EN"
 "http://www.w3.org/Graphics/SVG/1.1/DTD/svg11.dtd">
<!-- Generated by graphviz version 2.36.0 (20140111.2315)
 -->
<!-- Title: workspace.Workspace.writeMem Pages: 1 -->
<svg width="788pt" height="71pt"
 viewBox="0.00 0.00 788.00 71.00" xmlns="http://www.w3.org/2000/svg" xmlns:xlink="http://www.w3.org/1999/xlink">
<g id="graph0" class="graph" transform="scale(1 1) rotate(0) translate(4 67)">
<title>workspace.Workspace.writeMem</title>
<polygon fill="white" stroke="none" points="-4,4 -4,-67 784,-67 784,4 -4,4"/>
<!-- Node1 -->
<g id="node1" class="node"><title>Node1</title>
<polygon fill="#bfbfbf" stroke="black" points="0,-19.5 0,-38.5 170,-38.5 170,-19.5 0,-19.5"/>
<text text-anchor="middle" x="85" y="-26.5" font-family="Helvetica,sans-Serif" font-size="10.00">workspace.Workspace.writeMem</text>
</g>
<!-- Node2 -->
<g id="node2" class="node"><title>Node2</title>
<g id="a_node2"><a xlink:href="../../d7/da1/classmain_application_1_1_controller.html#ae6de41a0b39ca44633f5d6205edd6ddb" target="_top" xlink:title="mainApplication.Controller.saveMem">
<polygon fill="white" stroke="black" points="206.5,-38.5 206.5,-57.5 397.5,-57.5 397.5,-38.5 206.5,-38.5"/>
<text text-anchor="middle" x="302" y="-45.5" font-family="Helvetica,sans-Serif" font-size="10.00">mainApplication.Controller.saveMem</text>
</a>
</g>
</g>
<!-- Node1&#45;&gt;Node2 -->
<g id="edge1" class="edge"><title>Node1&#45;&gt;Node2</title>
<path fill="none" stroke="midnightblue" d="M180.167,-37.3217C188.844,-38.0885 197.639,-38.8658 206.321,-39.633"/>
<polygon fill="midnightblue" stroke="midnightblue" points="180.318,-33.8215 170.048,-36.4275 179.701,-40.7943 180.318,-33.8215"/>
</g>
<!-- Node5 -->
<g id="node5" class="node"><title>Node5</title>
<g id="a_node5"><a xlink:href="../../d8/dc3/classparser_1_1_test_model.html#a023bd16aca0a843ec8f4772c96ec2ffb" target="_top" xlink:title="parser.TestModel.testWrite">
<polygon fill="white" stroke="black" points="231,-0.5 231,-19.5 373,-19.5 373,-0.5 231,-0.5"/>
<text text-anchor="middle" x="302" y="-7.5" font-family="Helvetica,sans-Serif" font-size="10.00">parser.TestModel.testWrite</text>
</a>
</g>
</g>
<!-- Node1&#45;&gt;Node5 -->
<g id="edge4" class="edge"><title>Node1&#45;&gt;Node5</title>
<path fill="none" stroke="midnightblue" d="M180.041,-20.6894C197.125,-19.1797 214.67,-17.6292 230.913,-16.1937"/>
<polygon fill="midnightblue" stroke="midnightblue" points="179.701,-17.2057 170.048,-21.5725 180.318,-24.1785 179.701,-17.2057"/>
</g>
<!-- Node3 -->
<g id="node3" class="node"><title>Node3</title>
<g id="a_node3"><a xlink:href="../../d3/d04/classmain_application_1_1_g_u_i_shell.html#a549d0a037ecb8f4823d9878e4b602f0d" target="_top" xlink:title="mainApplication.GUIShell.create\lSaveButton">
<polygon fill="white" stroke="black" points="434,-33 434,-63 604,-63 604,-33 434,-33"/>
<text text-anchor="start" x="442" y="-51" font-family="Helvetica,sans-Serif" font-size="10.00">mainApplication.GUIShell.create</text>
<text text-anchor="middle" x="519" y="-40" font-family="Helvetica,sans-Serif" font-size="10.00">SaveButton</text>
</a>
</g>
</g>
<!-- Node2&#45;&gt;Node3 -->
<g id="edge2" class="edge"><title>Node2&#45;&gt;Node3</title>
<path fill="none" stroke="midnightblue" d="M407.824,-48C416.542,-48 425.283,-48 433.819,-48"/>
<polygon fill="midnightblue" stroke="midnightblue" points="407.615,-44.5001 397.615,-48 407.615,-51.5001 407.615,-44.5001"/>
</g>
<!-- Node4 -->
<g id="node4" class="node"><title>Node4</title>
<g id="a_node4"><a xlink:href="../../d3/d04/classmain_application_1_1_g_u_i_shell.html#ac525a3e483dbe24e5f9f0257fe54521d" target="_top" xlink:title="mainApplication.GUIShell.\lGUIShell">
<polygon fill="white" stroke="black" points="640,-33 640,-63 780,-63 780,-33 640,-33"/>
<text text-anchor="start" x="648" y="-51" font-family="Helvetica,sans-Serif" font-size="10.00">mainApplication.GUIShell.</text>
<text text-anchor="middle" x="710" y="-40" font-family="Helvetica,sans-Serif" font-size="10.00">GUIShell</text>
</a>
</g>
</g>
<!-- Node3&#45;&gt;Node4 -->
<g id="edge3" class="edge"><title>Node3&#45;&gt;Node4</title>
<path fill="none" stroke="midnightblue" d="M614.359,-48C622.965,-48 631.572,-48 639.896,-48"/>
<polygon fill="midnightblue" stroke="midnightblue" points="614.274,-44.5001 604.274,-48 614.274,-51.5001 614.274,-44.5001"/>
</g>
</g>
</svg>
