<?xml version="1.0" encoding="UTF-8" standalone="no"?>
<!DOCTYPE svg PUBLIC "-//W3C//DTD SVG 1.1//EN"
 "http://www.w3.org/Graphics/SVG/1.1/DTD/svg11.dtd">
<!-- Generated by graphviz version 2.36.0 (20140111.2315)
 -->
<!-- Title: workspace.Workspace.clear Pages: 1 -->
<svg width="410pt" height="66pt"
 viewBox="0.00 0.00 410.00 66.00" xmlns="http://www.w3.org/2000/svg" xmlns:xlink="http://www.w3.org/1999/xlink">
<g id="graph0" class="graph" transform="scale(1 1) rotate(0) translate(4 62)">
<title>workspace.Workspace.clear</title>
<polygon fill="white" stroke="none" points="-4,4 -4,-62 406,-62 406,4 -4,4"/>
<!-- Node1 -->
<g id="node1" class="node"><title>Node1</title>
<polygon fill="#bfbfbf" stroke="black" points="0.5,-19.5 0.5,-38.5 147.5,-38.5 147.5,-19.5 0.5,-19.5"/>
<text text-anchor="middle" x="74" y="-26.5" font-family="Helvetica,sans-Serif" font-size="10.00">workspace.Workspace.clear</text>
</g>
<!-- Node2 -->
<g id="node2" class="node"><title>Node2</title>
<g id="a_node2"><a xlink:href="../../d7/da1/classmain_application_1_1_controller.html#a0ce45e0f09c24ab78746a0d3bce7550f" target="_top" xlink:title="mainApplication.Controller.clear">
<polygon fill="white" stroke="black" points="209,-38.5 209,-57.5 377,-57.5 377,-38.5 209,-38.5"/>
<text text-anchor="middle" x="293" y="-45.5" font-family="Helvetica,sans-Serif" font-size="10.00">mainApplication.Controller.clear</text>
</a>
</g>
</g>
<!-- Node1&#45;&gt;Node2 -->
<g id="edge1" class="edge"><title>Node1&#45;&gt;Node2</title>
<path fill="none" stroke="midnightblue" d="M157.802,-36.2499C174.454,-37.7079 191.963,-39.241 208.634,-40.7006"/>
<polygon fill="midnightblue" stroke="midnightblue" points="157.827,-32.7388 147.56,-35.3531 157.216,-39.7121 157.827,-32.7388"/>
</g>
<!-- Node3 -->
<g id="node3" class="node"><title>Node3</title>
<g id="a_node3"><a xlink:href="../../d5/d9e/classcommand_1_1_clear_screen_command.html#a5860aeadd96cfbade9a5ea48d7ae60fc" target="_top" xlink:title="command.ClearScreenCommand.execute">
<polygon fill="white" stroke="black" points="184,-0.5 184,-19.5 402,-19.5 402,-0.5 184,-0.5"/>
<text text-anchor="middle" x="293" y="-7.5" font-family="Helvetica,sans-Serif" font-size="10.00">command.ClearScreenCommand.execute</text>
</a>
</g>
</g>
<!-- Node1&#45;&gt;Node3 -->
<g id="edge2" class="edge"><title>Node1&#45;&gt;Node3</title>
<path fill="none" stroke="midnightblue" d="M157.571,-21.7703C166.202,-21.0146 175.065,-20.2385 183.925,-19.4628"/>
<polygon fill="midnightblue" stroke="midnightblue" points="157.216,-18.2879 147.56,-22.6469 157.827,-25.2612 157.216,-18.2879"/>
</g>
</g>
</svg>
