<?xml version="1.0" encoding="UTF-8" standalone="no"?>
<!DOCTYPE svg PUBLIC "-//W3C//DTD SVG 1.1//EN"
 "http://www.w3.org/Graphics/SVG/1.1/DTD/svg11.dtd">
<!-- Generated by graphviz version 2.36.0 (20140111.2315)
 -->
<!-- Title: workspace.Workspace.evaluate Pages: 1 -->
<svg width="1162pt" height="229pt"
 viewBox="0.00 0.00 1162.00 229.00" xmlns="http://www.w3.org/2000/svg" xmlns:xlink="http://www.w3.org/1999/xlink">
<g id="graph0" class="graph" transform="scale(1 1) rotate(0) translate(4 225)">
<title>workspace.Workspace.evaluate</title>
<polygon fill="white" stroke="none" points="-4,4 -4,-225 1158,-225 1158,4 -4,4"/>
<!-- Node1 -->
<g id="node1" class="node"><title>Node1</title>
<polygon fill="#bfbfbf" stroke="black" points="0.5,-103.5 0.5,-122.5 165.5,-122.5 165.5,-103.5 0.5,-103.5"/>
<text text-anchor="middle" x="83" y="-110.5" font-family="Helvetica,sans-Serif" font-size="10.00">workspace.Workspace.evaluate</text>
</g>
<!-- Node2 -->
<g id="node2" class="node"><title>Node2</title>
<g id="a_node2"><a xlink:href="../../d7/da1/classmain_application_1_1_controller.html#a6e9afc2e53e6adb01a2b73794a319b63" target="_top" xlink:title="mainApplication.Controller.parse\lAndEvaluate">
<polygon fill="white" stroke="black" points="202,-98 202,-128 374,-128 374,-98 202,-98"/>
<text text-anchor="start" x="210" y="-116" font-family="Helvetica,sans-Serif" font-size="10.00">mainApplication.Controller.parse</text>
<text text-anchor="middle" x="288" y="-105" font-family="Helvetica,sans-Serif" font-size="10.00">AndEvaluate</text>
</a>
</g>
</g>
<!-- Node1&#45;&gt;Node2 -->
<g id="edge1" class="edge"><title>Node1&#45;&gt;Node2</title>
<path fill="none" stroke="midnightblue" d="M175.804,-113C184.47,-113 193.231,-113 201.831,-113"/>
<polygon fill="midnightblue" stroke="midnightblue" points="175.69,-109.5 165.69,-113 175.69,-116.5 175.69,-109.5"/>
</g>
<!-- Node3 -->
<g id="node3" class="node"><title>Node3</title>
<g id="a_node3"><a xlink:href="../../d3/d04/classmain_application_1_1_g_u_i_shell.html#af2f106fa7786f13ccc0202db53b559b9" target="_top" xlink:title="mainApplication.GUIShell.create\lOpenButton">
<polygon fill="white" stroke="black" points="808,-191 808,-221 978,-221 978,-191 808,-191"/>
<text text-anchor="start" x="816" y="-209" font-family="Helvetica,sans-Serif" font-size="10.00">mainApplication.GUIShell.create</text>
<text text-anchor="middle" x="893" y="-198" font-family="Helvetica,sans-Serif" font-size="10.00">OpenButton</text>
</a>
</g>
</g>
<!-- Node2&#45;&gt;Node3 -->
<g id="edge2" class="edge"><title>Node2&#45;&gt;Node3</title>
<path fill="none" stroke="midnightblue" d="M315.276,-134.242C338.608,-151.723 374.428,-175.301 410,-186 544.541,-226.465 709.723,-222.487 807.619,-214.935"/>
<polygon fill="midnightblue" stroke="midnightblue" points="317.337,-131.412 307.269,-128.113 313.082,-136.97 317.337,-131.412"/>
</g>
<!-- Node5 -->
<g id="node5" class="node"><title>Node5</title>
<g id="a_node5"><a xlink:href="../../d3/de0/classmain_application_1_1_g_u_i.html#a60b2e396c945ac173bfd82f207f42000" target="_top" xlink:title="mainApplication.GUI.initiate\lKeyPress">
<polygon fill="white" stroke="black" points="420.5,-147 420.5,-177 569.5,-177 569.5,-147 420.5,-147"/>
<text text-anchor="start" x="428.5" y="-165" font-family="Helvetica,sans-Serif" font-size="10.00">mainApplication.GUI.initiate</text>
<text text-anchor="middle" x="495" y="-154" font-family="Helvetica,sans-Serif" font-size="10.00">KeyPress</text>
</a>
</g>
</g>
<!-- Node2&#45;&gt;Node5 -->
<g id="edge4" class="edge"><title>Node2&#45;&gt;Node5</title>
<path fill="none" stroke="midnightblue" d="M361.812,-130.404C384.49,-135.824 409.289,-141.752 431.219,-146.994"/>
<polygon fill="midnightblue" stroke="midnightblue" points="362.44,-126.955 351.9,-128.035 360.812,-133.764 362.44,-126.955"/>
</g>
<!-- Node8 -->
<g id="node8" class="node"><title>Node8</title>
<g id="a_node8"><a xlink:href="../../dd/dca/classfeatures_1_1_pen_width_slider_feature.html#aac6e7c0d0c6f5e1afde3d8a3c8e788e6" target="_top" xlink:title="features.PenWidthSliderFeature.\lPenWidthSliderFeature">
<polygon fill="white" stroke="black" points="410,-98 410,-128 580,-128 580,-98 410,-98"/>
<text text-anchor="start" x="418" y="-116" font-family="Helvetica,sans-Serif" font-size="10.00">features.PenWidthSliderFeature.</text>
<text text-anchor="middle" x="495" y="-105" font-family="Helvetica,sans-Serif" font-size="10.00">PenWidthSliderFeature</text>
</a>
</g>
</g>
<!-- Node2&#45;&gt;Node8 -->
<g id="edge10" class="edge"><title>Node2&#45;&gt;Node8</title>
<path fill="none" stroke="midnightblue" d="M384.428,-113C392.887,-113 401.411,-113 409.767,-113"/>
<polygon fill="midnightblue" stroke="midnightblue" points="384.158,-109.5 374.158,-113 384.157,-116.5 384.158,-109.5"/>
</g>
<!-- Node9 -->
<g id="node9" class="node"><title>Node9</title>
<g id="a_node9"><a xlink:href="../../de/d10/classfeatures_1_1_run_button_feature.html#ada33a09e0a0259486754b597f2d7b0c7" target="_top" xlink:title="features.RunButtonFeature.\lRunButtonFeature">
<polygon fill="white" stroke="black" points="421,-49 421,-79 569,-79 569,-49 421,-49"/>
<text text-anchor="start" x="429" y="-67" font-family="Helvetica,sans-Serif" font-size="10.00">features.RunButtonFeature.</text>
<text text-anchor="middle" x="495" y="-56" font-family="Helvetica,sans-Serif" font-size="10.00">RunButtonFeature</text>
</a>
</g>
</g>
<!-- Node2&#45;&gt;Node9 -->
<g id="edge11" class="edge"><title>Node2&#45;&gt;Node9</title>
<path fill="none" stroke="midnightblue" d="M361.812,-95.5962C384.49,-90.1757 409.289,-84.248 431.219,-79.0062"/>
<polygon fill="midnightblue" stroke="midnightblue" points="360.812,-92.2364 351.9,-97.9654 362.44,-99.0447 360.812,-92.2364"/>
</g>
<!-- Node10 -->
<g id="node10" class="node"><title>Node10</title>
<g id="a_node10"><a xlink:href="../../d4/d3f/classcomponents_1_1_vars_tab.html#aa51dee8d24322ee37e4399858794ee8b" target="_top" xlink:title="components.VarsTab.setTab\lEditable">
<polygon fill="white" stroke="black" points="420,-0 420,-30 570,-30 570,-0 420,-0"/>
<text text-anchor="start" x="428" y="-18" font-family="Helvetica,sans-Serif" font-size="10.00">components.VarsTab.setTab</text>
<text text-anchor="middle" x="495" y="-7" font-family="Helvetica,sans-Serif" font-size="10.00">Editable</text>
</a>
</g>
</g>
<!-- Node2&#45;&gt;Node10 -->
<g id="edge12" class="edge"><title>Node2&#45;&gt;Node10</title>
<path fill="none" stroke="midnightblue" d="M318.124,-92.0742C341.9,-75.7739 376.865,-53.5431 410,-39 417.5,-35.7084 425.573,-32.7375 433.644,-30.0986"/>
<polygon fill="midnightblue" stroke="midnightblue" points="316.114,-89.2087 309.895,-97.7861 320.106,-94.9592 316.114,-89.2087"/>
</g>
<!-- Node4 -->
<g id="node4" class="node"><title>Node4</title>
<g id="a_node4"><a xlink:href="../../d3/d04/classmain_application_1_1_g_u_i_shell.html#ac525a3e483dbe24e5f9f0257fe54521d" target="_top" xlink:title="mainApplication.GUIShell.\lGUIShell">
<polygon fill="white" stroke="black" points="1014,-147 1014,-177 1154,-177 1154,-147 1014,-147"/>
<text text-anchor="start" x="1022" y="-165" font-family="Helvetica,sans-Serif" font-size="10.00">mainApplication.GUIShell.</text>
<text text-anchor="middle" x="1084" y="-154" font-family="Helvetica,sans-Serif" font-size="10.00">GUIShell</text>
</a>
</g>
</g>
<!-- Node3&#45;&gt;Node4 -->
<g id="edge3" class="edge"><title>Node3&#45;&gt;Node4</title>
<path fill="none" stroke="midnightblue" d="M968.642,-188.623C985.112,-184.789 1002.43,-180.758 1018.46,-177.026"/>
<polygon fill="midnightblue" stroke="midnightblue" points="967.46,-185.304 958.514,-190.981 969.048,-192.122 967.46,-185.304"/>
</g>
<!-- Node6 -->
<g id="node6" class="node"><title>Node6</title>
<g id="a_node6"><a xlink:href="../../d3/de0/classmain_application_1_1_g_u_i.html#af6bd387013dbd1d1daf030117da66c0e" target="_top" xlink:title="mainApplication.GUI.initiate">
<polygon fill="white" stroke="black" points="619.5,-152.5 619.5,-171.5 768.5,-171.5 768.5,-152.5 619.5,-152.5"/>
<text text-anchor="middle" x="694" y="-159.5" font-family="Helvetica,sans-Serif" font-size="10.00">mainApplication.GUI.initiate</text>
</a>
</g>
</g>
<!-- Node5&#45;&gt;Node6 -->
<g id="edge5" class="edge"><title>Node5&#45;&gt;Node6</title>
<path fill="none" stroke="midnightblue" d="M579.662,-162C592.889,-162 606.48,-162 619.454,-162"/>
<polygon fill="midnightblue" stroke="midnightblue" points="579.636,-158.5 569.636,-162 579.636,-165.5 579.636,-158.5"/>
</g>
<!-- Node6&#45;&gt;Node3 -->
<g id="edge8" class="edge"><title>Node6&#45;&gt;Node3</title>
<path fill="none" stroke="midnightblue" d="M747.574,-173.742C771.206,-179.021 799.383,-185.314 824.548,-190.935"/>
<polygon fill="midnightblue" stroke="midnightblue" points="748.269,-170.311 737.746,-171.547 746.743,-177.143 748.269,-170.311"/>
</g>
<!-- Node6&#45;&gt;Node4 -->
<g id="edge9" class="edge"><title>Node6&#45;&gt;Node4</title>
<path fill="none" stroke="midnightblue" d="M779.041,-162C849.287,-162 948.249,-162 1013.94,-162"/>
<polygon fill="midnightblue" stroke="midnightblue" points="778.893,-158.5 768.893,-162 778.893,-165.5 778.893,-158.5"/>
</g>
<!-- Node7 -->
<g id="node7" class="node"><title>Node7</title>
<g id="a_node7"><a xlink:href="../../d3/d04/classmain_application_1_1_g_u_i_shell.html#a9df214dfffdce7a39bc6ac5e84ca1f0f" target="_top" xlink:title="mainApplication.GUIShell.create\lNewButton">
<polygon fill="white" stroke="black" points="808,-103 808,-133 978,-133 978,-103 808,-103"/>
<text text-anchor="start" x="816" y="-121" font-family="Helvetica,sans-Serif" font-size="10.00">mainApplication.GUIShell.create</text>
<text text-anchor="middle" x="893" y="-110" font-family="Helvetica,sans-Serif" font-size="10.00">NewButton</text>
</a>
</g>
</g>
<!-- Node6&#45;&gt;Node7 -->
<g id="edge6" class="edge"><title>Node6&#45;&gt;Node7</title>
<path fill="none" stroke="midnightblue" d="M747.574,-150.258C771.206,-144.979 799.383,-138.686 824.548,-133.065"/>
<polygon fill="midnightblue" stroke="midnightblue" points="746.743,-146.857 737.746,-152.453 748.269,-153.689 746.743,-146.857"/>
</g>
<!-- Node7&#45;&gt;Node4 -->
<g id="edge7" class="edge"><title>Node7&#45;&gt;Node4</title>
<path fill="none" stroke="midnightblue" d="M968.642,-135.377C985.112,-139.211 1002.43,-143.242 1018.46,-146.974"/>
<polygon fill="midnightblue" stroke="midnightblue" points="969.048,-131.878 958.514,-133.019 967.46,-138.696 969.048,-131.878"/>
</g>
<!-- Node11 -->
<g id="node11" class="node"><title>Node11</title>
<g id="a_node11"><a xlink:href="../../d4/d3f/classcomponents_1_1_vars_tab.html#a1e48c3f7ead529596e018a72cd6ef159" target="_top" xlink:title="components.VarsTab.VarsTab">
<polygon fill="white" stroke="black" points="616,-5.5 616,-24.5 772,-24.5 772,-5.5 616,-5.5"/>
<text text-anchor="middle" x="694" y="-12.5" font-family="Helvetica,sans-Serif" font-size="10.00">components.VarsTab.VarsTab</text>
</a>
</g>
</g>
<!-- Node10&#45;&gt;Node11 -->
<g id="edge13" class="edge"><title>Node10&#45;&gt;Node11</title>
<path fill="none" stroke="midnightblue" d="M580.458,-15C592.235,-15 604.285,-15 615.916,-15"/>
<polygon fill="midnightblue" stroke="midnightblue" points="580.197,-11.5001 570.197,-15 580.197,-18.5001 580.197,-11.5001"/>
</g>
</g>
</svg>
