<?xml version="1.0" encoding="UTF-8" standalone="no"?>
<!DOCTYPE svg PUBLIC "-//W3C//DTD SVG 1.1//EN"
 "http://www.w3.org/Graphics/SVG/1.1/DTD/svg11.dtd">
<!-- Generated by graphviz version 2.36.0 (20140111.2315)
 -->
<!-- Title: workspace.Workspace.getVariables Pages: 1 -->
<svg width="1030pt" height="240pt"
 viewBox="0.00 0.00 1030.00 240.00" xmlns="http://www.w3.org/2000/svg" xmlns:xlink="http://www.w3.org/1999/xlink">
<g id="graph0" class="graph" transform="scale(1 1) rotate(0) translate(4 236)">
<title>workspace.Workspace.getVariables</title>
<polygon fill="white" stroke="none" points="-4,4 -4,-236 1026,-236 1026,4 -4,4"/>
<!-- Node1 -->
<g id="node1" class="node"><title>Node1</title>
<polygon fill="#bfbfbf" stroke="black" points="0.5,-117.5 0.5,-136.5 183.5,-136.5 183.5,-117.5 0.5,-117.5"/>
<text text-anchor="middle" x="92" y="-124.5" font-family="Helvetica,sans-Serif" font-size="10.00">workspace.Workspace.getVariables</text>
</g>
<!-- Node2 -->
<g id="node2" class="node"><title>Node2</title>
<g id="a_node2"><a xlink:href="../../d7/da1/classmain_application_1_1_controller.html#a133505f3ac4d32291a6017ba7f367fb9" target="_top" xlink:title="mainApplication.Controller.get\lVariables">
<polygon fill="white" stroke="black" points="220.5,-153 220.5,-183 381.5,-183 381.5,-153 220.5,-153"/>
<text text-anchor="start" x="228.5" y="-171" font-family="Helvetica,sans-Serif" font-size="10.00">mainApplication.Controller.get</text>
<text text-anchor="middle" x="301" y="-160" font-family="Helvetica,sans-Serif" font-size="10.00">Variables</text>
</a>
</g>
</g>
<!-- Node1&#45;&gt;Node2 -->
<g id="edge1" class="edge"><title>Node1&#45;&gt;Node2</title>
<path fill="none" stroke="midnightblue" d="M151.107,-138.509C173.677,-142.979 199.838,-148.161 223.876,-152.922"/>
<polygon fill="midnightblue" stroke="midnightblue" points="151.5,-135.019 141.01,-136.509 150.14,-141.886 151.5,-135.019"/>
</g>
<!-- Node8 -->
<g id="node8" class="node"><title>Node8</title>
<g id="a_node8"><a xlink:href="../../dd/d2f/classcommand_1_1_base_make_variable_command.html#af8d8e775391c0724b7a80ceb1bae6639" target="_top" xlink:title="command.BaseMakeVariable\lCommand.makeVariable">
<polygon fill="white" stroke="black" points="223,-71 223,-101 379,-101 379,-71 223,-71"/>
<text text-anchor="start" x="231" y="-89" font-family="Helvetica,sans-Serif" font-size="10.00">command.BaseMakeVariable</text>
<text text-anchor="middle" x="301" y="-78" font-family="Helvetica,sans-Serif" font-size="10.00">Command.makeVariable</text>
</a>
</g>
</g>
<!-- Node1&#45;&gt;Node8 -->
<g id="edge7" class="edge"><title>Node1&#45;&gt;Node8</title>
<path fill="none" stroke="midnightblue" d="M151.107,-115.491C173.677,-111.021 199.838,-105.839 223.876,-101.078"/>
<polygon fill="midnightblue" stroke="midnightblue" points="150.14,-112.114 141.01,-117.491 151.5,-118.981 150.14,-112.114"/>
</g>
<!-- Node3 -->
<g id="node3" class="node"><title>Node3</title>
<g id="a_node3"><a xlink:href="../../d4/d3f/classcomponents_1_1_vars_tab.html#aa51dee8d24322ee37e4399858794ee8b" target="_top" xlink:title="components.VarsTab.setTab\lEditable">
<polygon fill="white" stroke="black" points="444,-202 444,-232 594,-232 594,-202 444,-202"/>
<text text-anchor="start" x="452" y="-220" font-family="Helvetica,sans-Serif" font-size="10.00">components.VarsTab.setTab</text>
<text text-anchor="middle" x="519" y="-209" font-family="Helvetica,sans-Serif" font-size="10.00">Editable</text>
</a>
</g>
</g>
<!-- Node2&#45;&gt;Node3 -->
<g id="edge2" class="edge"><title>Node2&#45;&gt;Node3</title>
<path fill="none" stroke="midnightblue" d="M378.077,-185.258C402.144,-190.718 428.536,-196.705 451.85,-201.994"/>
<polygon fill="midnightblue" stroke="midnightblue" points="378.802,-181.834 368.275,-183.035 377.253,-188.66 378.802,-181.834"/>
</g>
<!-- Node5 -->
<g id="node5" class="node"><title>Node5</title>
<g id="a_node5"><a xlink:href="../../de/d10/classfeatures_1_1_run_button_feature.html#a7516c5daca232e22a89ef380f60d2272" target="_top" xlink:title="features.RunButtonFeature.update\lPanes">
<polygon fill="white" stroke="black" points="428,-153 428,-183 610,-183 610,-153 428,-153"/>
<text text-anchor="start" x="436" y="-171" font-family="Helvetica,sans-Serif" font-size="10.00">features.RunButtonFeature.update</text>
<text text-anchor="middle" x="519" y="-160" font-family="Helvetica,sans-Serif" font-size="10.00">Panes</text>
</a>
</g>
</g>
<!-- Node2&#45;&gt;Node5 -->
<g id="edge4" class="edge"><title>Node2&#45;&gt;Node5</title>
<path fill="none" stroke="midnightblue" d="M391.837,-168C403.694,-168 415.852,-168 427.716,-168"/>
<polygon fill="midnightblue" stroke="midnightblue" points="391.51,-164.5 381.51,-168 391.51,-171.5 391.51,-164.5"/>
</g>
<!-- Node4 -->
<g id="node4" class="node"><title>Node4</title>
<g id="a_node4"><a xlink:href="../../d4/d3f/classcomponents_1_1_vars_tab.html#a1e48c3f7ead529596e018a72cd6ef159" target="_top" xlink:title="components.VarsTab.VarsTab">
<polygon fill="white" stroke="black" points="669,-207.5 669,-226.5 825,-226.5 825,-207.5 669,-207.5"/>
<text text-anchor="middle" x="747" y="-214.5" font-family="Helvetica,sans-Serif" font-size="10.00">components.VarsTab.VarsTab</text>
</a>
</g>
</g>
<!-- Node3&#45;&gt;Node4 -->
<g id="edge3" class="edge"><title>Node3&#45;&gt;Node4</title>
<path fill="none" stroke="midnightblue" d="M604.246,-217C625.38,-217 647.952,-217 668.727,-217"/>
<polygon fill="midnightblue" stroke="midnightblue" points="604.001,-213.5 594.001,-217 604.001,-220.5 604.001,-213.5"/>
</g>
<!-- Node6 -->
<g id="node6" class="node"><title>Node6</title>
<g id="a_node6"><a xlink:href="../../de/d10/classfeatures_1_1_run_button_feature.html#aafdb4dfb72af2439264ef4a329b35c41" target="_top" xlink:title="features.RunButtonFeature.update">
<polygon fill="white" stroke="black" points="656,-158.5 656,-177.5 838,-177.5 838,-158.5 656,-158.5"/>
<text text-anchor="middle" x="747" y="-165.5" font-family="Helvetica,sans-Serif" font-size="10.00">features.RunButtonFeature.update</text>
</a>
</g>
</g>
<!-- Node5&#45;&gt;Node6 -->
<g id="edge5" class="edge"><title>Node5&#45;&gt;Node6</title>
<path fill="none" stroke="midnightblue" d="M620.563,-168C632.316,-168 644.249,-168 655.848,-168"/>
<polygon fill="midnightblue" stroke="midnightblue" points="620.296,-164.5 610.296,-168 620.295,-171.5 620.296,-164.5"/>
</g>
<!-- Node7 -->
<g id="node7" class="node"><title>Node7</title>
<g id="a_node7"><a xlink:href="../../de/d10/classfeatures_1_1_run_button_feature.html#ada33a09e0a0259486754b597f2d7b0c7" target="_top" xlink:title="features.RunButtonFeature.\lRunButtonFeature">
<polygon fill="white" stroke="black" points="874,-153 874,-183 1022,-183 1022,-153 874,-153"/>
<text text-anchor="start" x="882" y="-171" font-family="Helvetica,sans-Serif" font-size="10.00">features.RunButtonFeature.</text>
<text text-anchor="middle" x="948" y="-160" font-family="Helvetica,sans-Serif" font-size="10.00">RunButtonFeature</text>
</a>
</g>
</g>
<!-- Node6&#45;&gt;Node7 -->
<g id="edge6" class="edge"><title>Node6&#45;&gt;Node7</title>
<path fill="none" stroke="midnightblue" d="M848.277,-168C856.884,-168 865.484,-168 873.818,-168"/>
<polygon fill="midnightblue" stroke="midnightblue" points="848.184,-164.5 838.184,-168 848.184,-171.5 848.184,-164.5"/>
</g>
<!-- Node9 -->
<g id="node9" class="node"><title>Node9</title>
<g id="a_node9"><a xlink:href="../../d4/d11/classcommand_1_1_repeat_command.html#a034c19694b9804a38754600aca37172f" target="_top" xlink:title="command.RepeatCommand.execute">
<polygon fill="white" stroke="black" points="422.5,-114.5 422.5,-133.5 615.5,-133.5 615.5,-114.5 422.5,-114.5"/>
<text text-anchor="middle" x="519" y="-121.5" font-family="Helvetica,sans-Serif" font-size="10.00">command.RepeatCommand.execute</text>
</a>
</g>
</g>
<!-- Node8&#45;&gt;Node9 -->
<g id="edge8" class="edge"><title>Node8&#45;&gt;Node9</title>
<path fill="none" stroke="midnightblue" d="M389.017,-101.308C414.248,-105.747 441.069,-110.466 463.68,-114.444"/>
<polygon fill="midnightblue" stroke="midnightblue" points="389.521,-97.8436 379.066,-99.5579 388.308,-104.738 389.521,-97.8436"/>
</g>
<!-- Node10 -->
<g id="node10" class="node"><title>Node10</title>
<g id="a_node10"><a xlink:href="../../da/dfa/classcommand_1_1_do_times_command.html#a3565aa2ee70c74e5045ce3139730a88b" target="_top" xlink:title="command.DoTimesCommand.execute">
<polygon fill="white" stroke="black" points="418,-76.5 418,-95.5 620,-95.5 620,-76.5 418,-76.5"/>
<text text-anchor="middle" x="519" y="-83.5" font-family="Helvetica,sans-Serif" font-size="10.00">command.DoTimesCommand.execute</text>
</a>
</g>
</g>
<!-- Node8&#45;&gt;Node10 -->
<g id="edge9" class="edge"><title>Node8&#45;&gt;Node10</title>
<path fill="none" stroke="midnightblue" d="M389.222,-86C398.675,-86 408.349,-86 417.938,-86"/>
<polygon fill="midnightblue" stroke="midnightblue" points="389.066,-82.5001 379.066,-86 389.066,-89.5001 389.066,-82.5001"/>
</g>
<!-- Node11 -->
<g id="node11" class="node"><title>Node11</title>
<g id="a_node11"><a xlink:href="../../dc/da4/classcommand_1_1_stored_command.html#af713db09f85ae986a0707559209972b1" target="_top" xlink:title="command.StoredCommand.execute">
<polygon fill="white" stroke="black" points="423,-38.5 423,-57.5 615,-57.5 615,-38.5 423,-38.5"/>
<text text-anchor="middle" x="519" y="-45.5" font-family="Helvetica,sans-Serif" font-size="10.00">command.StoredCommand.execute</text>
</a>
</g>
</g>
<!-- Node8&#45;&gt;Node11 -->
<g id="edge10" class="edge"><title>Node8&#45;&gt;Node11</title>
<path fill="none" stroke="midnightblue" d="M389.017,-70.6915C414.248,-66.2527 441.069,-61.5342 463.68,-57.5563"/>
<polygon fill="midnightblue" stroke="midnightblue" points="388.308,-67.2623 379.066,-72.4421 389.521,-74.1564 388.308,-67.2623"/>
</g>
<!-- Node12 -->
<g id="node12" class="node"><title>Node12</title>
<g id="a_node12"><a xlink:href="../../dc/d6b/classcommand_1_1_for_command.html#ae306431af6940bd5ba38cc71696cae06" target="_top" xlink:title="command.ForCommand.execute">
<polygon fill="white" stroke="black" points="431.5,-0.5 431.5,-19.5 606.5,-19.5 606.5,-0.5 431.5,-0.5"/>
<text text-anchor="middle" x="519" y="-7.5" font-family="Helvetica,sans-Serif" font-size="10.00">command.ForCommand.execute</text>
</a>
</g>
</g>
<!-- Node8&#45;&gt;Node12 -->
<g id="edge11" class="edge"><title>Node8&#45;&gt;Node12</title>
<path fill="none" stroke="midnightblue" d="M336.698,-65.8785C359.219,-53.6014 389.566,-38.4936 418,-29 429.398,-25.1943 441.797,-22.0699 453.86,-19.5332"/>
<polygon fill="midnightblue" stroke="midnightblue" points="334.915,-62.8649 327.861,-70.7697 338.305,-68.9894 334.915,-62.8649"/>
</g>
</g>
</svg>
