<?xml version="1.0" encoding="UTF-8" standalone="no"?>
<!DOCTYPE svg PUBLIC "-//W3C//DTD SVG 1.1//EN"
 "http://www.w3.org/Graphics/SVG/1.1/DTD/svg11.dtd">
<!-- Generated by graphviz version 2.36.0 (20140111.2315)
 -->
<!-- Title: parser.Parser Pages: 1 -->
<svg width="236pt" height="106pt"
 viewBox="0.00 0.00 236.00 106.00" xmlns="http://www.w3.org/2000/svg" xmlns:xlink="http://www.w3.org/1999/xlink">
<g id="graph0" class="graph" transform="scale(1 1) rotate(0) translate(4 102)">
<title>parser.Parser</title>
<polygon fill="white" stroke="none" points="-4,4 -4,-102 232,-102 232,4 -4,4"/>
<!-- Node1 -->
<g id="node1" class="node"><title>Node1</title>
<polygon fill="#bfbfbf" stroke="black" points="67,-0.5 67,-19.5 147,-19.5 147,-0.5 67,-0.5"/>
<text text-anchor="middle" x="107" y="-7.5" font-family="Helvetica,sans-Serif" font-size="10.00">parser.Parser</text>
</g>
<!-- Node2 -->
<g id="node2" class="node"><title>Node2</title>
<polygon fill="white" stroke="#bfbfbf" points="-0.5,-78.5 -0.5,-97.5 92.5,-97.5 92.5,-78.5 -0.5,-78.5"/>
<text text-anchor="middle" x="46" y="-85.5" font-family="Helvetica,sans-Serif" font-size="10.00">ResourceBundle</text>
</g>
<!-- Node2&#45;&gt;Node1 -->
<g id="edge1" class="edge"><title>Node2&#45;&gt;Node1</title>
<path fill="none" stroke="#9a32cd" stroke-dasharray="5,2" d="M53.2332,-69.141C57.7375,-59.3225 64.165,-47.2873 72,-38 78.0372,-30.8437 86.2691,-24.3763 93.2327,-19.5664"/>
<polygon fill="#9a32cd" stroke="#9a32cd" points="50.0026,-67.7938 49.2571,-78.3624 56.4306,-70.5655 50.0026,-67.7938"/>
<text text-anchor="middle" x="109" y="-52" font-family="Helvetica,sans-Serif" font-size="10.00"> myCommands</text>
<text text-anchor="middle" x="109" y="-41" font-family="Helvetica,sans-Serif" font-size="10.00">myLanguage</text>
</g>
<!-- Node3 -->
<g id="node3" class="node"><title>Node3</title>
<polygon fill="white" stroke="#bfbfbf" points="111,-78.5 111,-97.5 225,-97.5 225,-78.5 111,-78.5"/>
<text text-anchor="middle" x="168" y="-85.5" font-family="Helvetica,sans-Serif" font-size="10.00">List&lt; parser.Node &gt;</text>
</g>
<!-- Node3&#45;&gt;Node1 -->
<g id="edge2" class="edge"><title>Node3&#45;&gt;Node1</title>
<path fill="none" stroke="#9a32cd" stroke-dasharray="5,2" d="M162.454,-68.6429C158.859,-58.8257 153.443,-46.9517 146,-38 139.787,-30.528 131.016,-24.2077 123.365,-19.565"/>
<polygon fill="#9a32cd" stroke="#9a32cd" points="159.173,-69.8689 165.651,-78.2527 165.815,-67.6592 159.173,-69.8689"/>
<text text-anchor="middle" x="193.5" y="-46.5" font-family="Helvetica,sans-Serif" font-size="10.00"> myTreeHeads</text>
</g>
</g>
</svg>
