<?xml version="1.0" encoding="UTF-8" standalone="no"?>
<!DOCTYPE svg PUBLIC "-//W3C//DTD SVG 1.1//EN"
 "http://www.w3.org/Graphics/SVG/1.1/DTD/svg11.dtd">
<!-- Generated by graphviz version 2.36.0 (20140111.2315)
 -->
<!-- Title: components.CenterPane Pages: 1 -->
<svg width="165pt" height="84pt"
 viewBox="0.00 0.00 165.00 84.00" xmlns="http://www.w3.org/2000/svg" xmlns:xlink="http://www.w3.org/1999/xlink">
<g id="graph0" class="graph" transform="scale(1 1) rotate(0) translate(4 80)">
<title>components.CenterPane</title>
<polygon fill="white" stroke="none" points="-4,4 -4,-80 161,-80 161,4 -4,4"/>
<!-- Node1 -->
<g id="node1" class="node"><title>Node1</title>
<polygon fill="#bfbfbf" stroke="black" points="-0.5,-0.5 -0.5,-19.5 134.5,-19.5 134.5,-0.5 -0.5,-0.5"/>
<text text-anchor="middle" x="67" y="-7.5" font-family="Helvetica,sans-Serif" font-size="10.00">components.CenterPane</text>
</g>
<!-- Node2 -->
<g id="node2" class="node"><title>Node2</title>
<polygon fill="white" stroke="#bfbfbf" points="4,-56.5 4,-75.5 44,-75.5 44,-56.5 4,-56.5"/>
<text text-anchor="middle" x="24" y="-63.5" font-family="Helvetica,sans-Serif" font-size="10.00">Pane</text>
</g>
<!-- Node2&#45;&gt;Node1 -->
<g id="edge1" class="edge"><title>Node2&#45;&gt;Node1</title>
<path fill="none" stroke="midnightblue" d="M37.4224,-48.144C44.9142,-38.7357 53.9371,-27.4046 60.0315,-19.7511"/>
<polygon fill="midnightblue" stroke="midnightblue" points="34.5919,-46.0799 31.1006,-56.083 40.0679,-50.4404 34.5919,-46.0799"/>
</g>
<!-- Node3 -->
<g id="node3" class="node"><title>Node3</title>
<g id="a_node3"><a xlink:href="../../d2/dfc/interfacefeatures_1_1_feature.html" target="_top" xlink:title="features.Feature">
<polygon fill="white" stroke="black" points="62.5,-56.5 62.5,-75.5 157.5,-75.5 157.5,-56.5 62.5,-56.5"/>
<text text-anchor="middle" x="110" y="-63.5" font-family="Helvetica,sans-Serif" font-size="10.00">features.Feature</text>
</a>
</g>
</g>
<!-- Node3&#45;&gt;Node1 -->
<g id="edge2" class="edge"><title>Node3&#45;&gt;Node1</title>
<path fill="none" stroke="midnightblue" d="M96.5776,-48.144C89.0858,-38.7357 80.0629,-27.4046 73.9685,-19.7511"/>
<polygon fill="midnightblue" stroke="midnightblue" points="93.9321,-50.4404 102.899,-56.083 99.4081,-46.0799 93.9321,-50.4404"/>
</g>
</g>
</svg>
