<?xml version="1.0" encoding="UTF-8" standalone="no"?>
<!DOCTYPE svg PUBLIC "-//W3C//DTD SVG 1.1//EN"
 "http://www.w3.org/Graphics/SVG/1.1/DTD/svg11.dtd">
<!-- Generated by graphviz version 2.36.0 (20140111.2315)
 -->
<!-- Title: features.ToggleGridButtonFeature Pages: 1 -->
<svg width="170pt" height="96pt"
 viewBox="0.00 0.00 170.00 96.00" xmlns="http://www.w3.org/2000/svg" xmlns:xlink="http://www.w3.org/1999/xlink">
<g id="graph0" class="graph" transform="scale(1 1) rotate(0) translate(4 92)">
<title>features.ToggleGridButtonFeature</title>
<polygon fill="white" stroke="none" points="-4,4 -4,-92 166,-92 166,4 -4,4"/>
<!-- Node1 -->
<g id="node1" class="node"><title>Node1</title>
<polygon fill="#bfbfbf" stroke="black" points="-0.5,-1 -0.5,-31 140.5,-31 140.5,-1 -0.5,-1"/>
<text text-anchor="start" x="7.5" y="-19" font-family="Helvetica,sans-Serif" font-size="10.00">features.ToggleGridButton</text>
<text text-anchor="middle" x="70" y="-8" font-family="Helvetica,sans-Serif" font-size="10.00">Feature</text>
</g>
<!-- Node2 -->
<g id="node2" class="node"><title>Node2</title>
<polygon fill="white" stroke="#bfbfbf" points="0.5,-68.5 0.5,-87.5 49.5,-87.5 49.5,-68.5 0.5,-68.5"/>
<text text-anchor="middle" x="25" y="-75.5" font-family="Helvetica,sans-Serif" font-size="10.00">Button</text>
</g>
<!-- Node2&#45;&gt;Node1 -->
<g id="edge1" class="edge"><title>Node2&#45;&gt;Node1</title>
<path fill="none" stroke="midnightblue" d="M37.4566,-60.3912C44.3483,-51.2023 52.8216,-39.9045 59.3944,-31.1408"/>
<polygon fill="midnightblue" stroke="midnightblue" points="34.6474,-58.3034 31.4474,-68.4035 40.2474,-62.5035 34.6474,-58.3034"/>
</g>
<!-- Node3 -->
<g id="node3" class="node"><title>Node3</title>
<g id="a_node3"><a xlink:href="../../d2/dfc/interfacefeatures_1_1_feature.html" target="_top" xlink:title="features.Feature">
<polygon fill="white" stroke="black" points="67.5,-68.5 67.5,-87.5 162.5,-87.5 162.5,-68.5 67.5,-68.5"/>
<text text-anchor="middle" x="115" y="-75.5" font-family="Helvetica,sans-Serif" font-size="10.00">features.Feature</text>
</a>
</g>
</g>
<!-- Node3&#45;&gt;Node1 -->
<g id="edge2" class="edge"><title>Node3&#45;&gt;Node1</title>
<path fill="none" stroke="midnightblue" d="M102.543,-60.3912C95.6517,-51.2023 87.1784,-39.9045 80.6056,-31.1408"/>
<polygon fill="midnightblue" stroke="midnightblue" points="99.7526,-62.5035 108.553,-68.4035 105.353,-58.3034 99.7526,-62.5035"/>
</g>
</g>
</svg>
