<?xml version="1.0" encoding="UTF-8" standalone="no"?>
<!DOCTYPE svg PUBLIC "-//W3C//DTD SVG 1.1//EN"
 "http://www.w3.org/Graphics/SVG/1.1/DTD/svg11.dtd">
<!-- Generated by graphviz version 2.36.0 (20140111.2315)
 -->
<!-- Title: components.InfoTab Pages: 1 -->
<svg width="422pt" height="218pt"
 viewBox="0.00 0.00 422.00 218.00" xmlns="http://www.w3.org/2000/svg" xmlns:xlink="http://www.w3.org/1999/xlink">
<g id="graph0" class="graph" transform="scale(1 1) rotate(0) translate(4 214)">
<title>components.InfoTab</title>
<polygon fill="white" stroke="none" points="-4,4 -4,-214 418,-214 418,4 -4,4"/>
<!-- Node1 -->
<g id="node1" class="node"><title>Node1</title>
<polygon fill="#bfbfbf" stroke="black" points="132.5,-95.5 132.5,-114.5 245.5,-114.5 245.5,-95.5 132.5,-95.5"/>
<text text-anchor="middle" x="189" y="-102.5" font-family="Helvetica,sans-Serif" font-size="10.00">components.InfoTab</text>
</g>
<!-- Node4 -->
<g id="node4" class="node"><title>Node4</title>
<g id="a_node4"><a xlink:href="../../da/d83/classcomponents_1_1_colors_tab.html" target="_top" xlink:title="components.ColorsTab">
<polygon fill="white" stroke="black" points="285.5,-190.5 285.5,-209.5 410.5,-209.5 410.5,-190.5 285.5,-190.5"/>
<text text-anchor="middle" x="348" y="-197.5" font-family="Helvetica,sans-Serif" font-size="10.00">components.ColorsTab</text>
</a>
</g>
</g>
<!-- Node1&#45;&gt;Node4 -->
<g id="edge3" class="edge"><title>Node1&#45;&gt;Node4</title>
<path fill="none" stroke="midnightblue" d="M206.056,-121.806C223.323,-138.969 252.316,-165.266 282,-181 289.168,-184.799 297.193,-187.931 305.094,-190.479"/>
<polygon fill="midnightblue" stroke="midnightblue" points="208.5,-119.299 198.988,-114.633 203.514,-124.212 208.5,-119.299"/>
</g>
<!-- Node5 -->
<g id="node5" class="node"><title>Node5</title>
<g id="a_node5"><a xlink:href="../../d1/dfd/classcomponents_1_1_history_tab.html" target="_top" xlink:title="components.HistoryTab">
<polygon fill="white" stroke="black" points="283.5,-152.5 283.5,-171.5 412.5,-171.5 412.5,-152.5 283.5,-152.5"/>
<text text-anchor="middle" x="348" y="-159.5" font-family="Helvetica,sans-Serif" font-size="10.00">components.HistoryTab</text>
</a>
</g>
</g>
<!-- Node1&#45;&gt;Node5 -->
<g id="edge4" class="edge"><title>Node1&#45;&gt;Node5</title>
<path fill="none" stroke="midnightblue" d="M220.597,-118.605C238.345,-126.252 261.229,-135.698 282,-143 291.539,-146.353 302.004,-149.598 311.697,-152.428"/>
<polygon fill="midnightblue" stroke="midnightblue" points="221.877,-115.345 211.311,-114.566 219.085,-121.764 221.877,-115.345"/>
</g>
<!-- Node6 -->
<g id="node6" class="node"><title>Node6</title>
<g id="a_node6"><a xlink:href="../../dc/db7/classcomponents_1_1_images_tab.html" target="_top" xlink:title="components.ImagesTab">
<polygon fill="white" stroke="black" points="282.5,-114.5 282.5,-133.5 413.5,-133.5 413.5,-114.5 282.5,-114.5"/>
<text text-anchor="middle" x="348" y="-121.5" font-family="Helvetica,sans-Serif" font-size="10.00">components.ImagesTab</text>
</a>
</g>
</g>
<!-- Node1&#45;&gt;Node6 -->
<g id="edge5" class="edge"><title>Node1&#45;&gt;Node6</title>
<path fill="none" stroke="midnightblue" d="M255.911,-112.976C264.634,-114.032 273.571,-115.114 282.275,-116.167"/>
<polygon fill="midnightblue" stroke="midnightblue" points="256.142,-109.479 245.794,-111.752 255.301,-116.428 256.142,-109.479"/>
</g>
<!-- Node7 -->
<g id="node7" class="node"><title>Node7</title>
<g id="a_node7"><a xlink:href="../../d1/de7/classcomponents_1_1_saved_tab.html" target="_top" xlink:title="components.SavedTab">
<polygon fill="white" stroke="black" points="285.5,-76.5 285.5,-95.5 410.5,-95.5 410.5,-76.5 285.5,-76.5"/>
<text text-anchor="middle" x="348" y="-83.5" font-family="Helvetica,sans-Serif" font-size="10.00">components.SavedTab</text>
</a>
</g>
</g>
<!-- Node1&#45;&gt;Node7 -->
<g id="edge6" class="edge"><title>Node1&#45;&gt;Node7</title>
<path fill="none" stroke="midnightblue" d="M255.828,-97.0336C265.574,-95.8541 275.588,-94.6422 285.247,-93.4733"/>
<polygon fill="midnightblue" stroke="midnightblue" points="255.301,-93.5717 245.794,-98.2478 256.142,-100.521 255.301,-93.5717"/>
</g>
<!-- Node8 -->
<g id="node8" class="node"><title>Node8</title>
<g id="a_node8"><a xlink:href="../../d6/d82/classcomponents_1_1_turtles_tab.html" target="_top" xlink:title="components.TurtlesTab">
<polygon fill="white" stroke="black" points="285,-38.5 285,-57.5 411,-57.5 411,-38.5 285,-38.5"/>
<text text-anchor="middle" x="348" y="-45.5" font-family="Helvetica,sans-Serif" font-size="10.00">components.TurtlesTab</text>
</a>
</g>
</g>
<!-- Node1&#45;&gt;Node8 -->
<g id="edge7" class="edge"><title>Node1&#45;&gt;Node8</title>
<path fill="none" stroke="midnightblue" d="M220.597,-91.3951C238.345,-83.7477 261.229,-74.3018 282,-67 291.539,-63.6468 302.004,-60.4023 311.697,-57.5719"/>
<polygon fill="midnightblue" stroke="midnightblue" points="219.085,-88.2357 211.311,-95.4335 221.877,-94.6549 219.085,-88.2357"/>
</g>
<!-- Node9 -->
<g id="node9" class="node"><title>Node9</title>
<g id="a_node9"><a xlink:href="../../d4/d3f/classcomponents_1_1_vars_tab.html" target="_top" xlink:title="components.VarsTab">
<polygon fill="white" stroke="black" points="290,-0.5 290,-19.5 406,-19.5 406,-0.5 290,-0.5"/>
<text text-anchor="middle" x="348" y="-7.5" font-family="Helvetica,sans-Serif" font-size="10.00">components.VarsTab</text>
</a>
</g>
</g>
<!-- Node1&#45;&gt;Node9 -->
<g id="edge8" class="edge"><title>Node1&#45;&gt;Node9</title>
<path fill="none" stroke="midnightblue" d="M206.056,-88.1945C223.323,-71.0308 252.316,-44.7345 282,-29 289.168,-25.2007 297.193,-22.0691 305.094,-19.5214"/>
<polygon fill="midnightblue" stroke="midnightblue" points="203.514,-85.7878 198.988,-95.3671 208.5,-90.7013 203.514,-85.7878"/>
</g>
<!-- Node2 -->
<g id="node2" class="node"><title>Node2</title>
<polygon fill="white" stroke="#bfbfbf" points="32,-114.5 32,-133.5 64,-133.5 64,-114.5 32,-114.5"/>
<text text-anchor="middle" x="48" y="-121.5" font-family="Helvetica,sans-Serif" font-size="10.00">Tab</text>
</g>
<!-- Node2&#45;&gt;Node1 -->
<g id="edge1" class="edge"><title>Node2&#45;&gt;Node1</title>
<path fill="none" stroke="midnightblue" d="M74.4068,-120.527C90.6205,-118.311 112.288,-115.349 132.351,-112.607"/>
<polygon fill="midnightblue" stroke="midnightblue" points="73.5739,-117.108 64.14,-121.93 74.5219,-124.044 73.5739,-117.108"/>
</g>
<!-- Node3 -->
<g id="node3" class="node"><title>Node3</title>
<g id="a_node3"><a xlink:href="../../d2/dfc/interfacefeatures_1_1_feature.html" target="_top" xlink:title="features.Feature">
<polygon fill="white" stroke="black" points="0.5,-76.5 0.5,-95.5 95.5,-95.5 95.5,-76.5 0.5,-76.5"/>
<text text-anchor="middle" x="48" y="-83.5" font-family="Helvetica,sans-Serif" font-size="10.00">features.Feature</text>
</a>
</g>
</g>
<!-- Node3&#45;&gt;Node1 -->
<g id="edge2" class="edge"><title>Node3&#45;&gt;Node1</title>
<path fill="none" stroke="midnightblue" d="M105.716,-93.7525C114.409,-94.9408 123.378,-96.1668 132.055,-97.3528"/>
<polygon fill="midnightblue" stroke="midnightblue" points="106.054,-90.2662 95.6717,-92.3796 105.105,-97.2017 106.054,-90.2662"/>
</g>
</g>
</svg>
