<?xml version="1.0" encoding="UTF-8" standalone="no"?>
<!DOCTYPE svg PUBLIC "-//W3C//DTD SVG 1.1//EN"
 "http://www.w3.org/Graphics/SVG/1.1/DTD/svg11.dtd">
<!-- Generated by graphviz version 2.36.0 (20140111.2315)
 -->
<!-- Title: features.PenWidthSliderFeature Pages: 1 -->
<svg width="182pt" height="84pt"
 viewBox="0.00 0.00 182.00 84.00" xmlns="http://www.w3.org/2000/svg" xmlns:xlink="http://www.w3.org/1999/xlink">
<g id="graph0" class="graph" transform="scale(1 1) rotate(0) translate(4 80)">
<title>features.PenWidthSliderFeature</title>
<polygon fill="white" stroke="none" points="-4,4 -4,-80 178,-80 178,4 -4,4"/>
<!-- Node1 -->
<g id="node1" class="node"><title>Node1</title>
<polygon fill="#bfbfbf" stroke="black" points="-0.5,-0.5 -0.5,-19.5 166.5,-19.5 166.5,-0.5 -0.5,-0.5"/>
<text text-anchor="middle" x="83" y="-7.5" font-family="Helvetica,sans-Serif" font-size="10.00">features.PenWidthSliderFeature</text>
</g>
<!-- Node2 -->
<g id="node2" class="node"><title>Node2</title>
<polygon fill="white" stroke="#bfbfbf" points="17,-56.5 17,-75.5 61,-75.5 61,-56.5 17,-56.5"/>
<text text-anchor="middle" x="39" y="-63.5" font-family="Helvetica,sans-Serif" font-size="10.00">Slider</text>
</g>
<!-- Node2&#45;&gt;Node1 -->
<g id="edge1" class="edge"><title>Node2&#45;&gt;Node1</title>
<path fill="none" stroke="midnightblue" d="M52.7345,-48.144C60.4005,-38.7357 69.6333,-27.4046 75.8695,-19.7511"/>
<polygon fill="midnightblue" stroke="midnightblue" points="49.8691,-46.1198 46.2657,-56.083 55.2958,-50.5415 49.8691,-46.1198"/>
</g>
<!-- Node3 -->
<g id="node3" class="node"><title>Node3</title>
<g id="a_node3"><a xlink:href="../../d2/dfc/interfacefeatures_1_1_feature.html" target="_top" xlink:title="features.Feature">
<polygon fill="white" stroke="black" points="79.5,-56.5 79.5,-75.5 174.5,-75.5 174.5,-56.5 79.5,-56.5"/>
<text text-anchor="middle" x="127" y="-63.5" font-family="Helvetica,sans-Serif" font-size="10.00">features.Feature</text>
</a>
</g>
</g>
<!-- Node3&#45;&gt;Node1 -->
<g id="edge2" class="edge"><title>Node3&#45;&gt;Node1</title>
<path fill="none" stroke="midnightblue" d="M113.265,-48.144C105.599,-38.7357 96.3667,-27.4046 90.1305,-19.7511"/>
<polygon fill="midnightblue" stroke="midnightblue" points="110.704,-50.5415 119.734,-56.083 116.131,-46.1198 110.704,-50.5415"/>
</g>
</g>
</svg>
