<?xml version="1.0" encoding="UTF-8" standalone="no"?>
<!DOCTYPE svg PUBLIC "-//W3C//DTD SVG 1.1//EN"
 "http://www.w3.org/Graphics/SVG/1.1/DTD/svg11.dtd">
<!-- Generated by graphviz version 2.36.0 (20140111.2315)
 -->
<!-- Title: parser.CommandFactory.createCommand Pages: 1 -->
<!--zoomable 980 -->
<svg id="main" version="1.1" xmlns="http://www.w3.org/2000/svg" xmlns:xlink="http://www.w3.org/1999/xlink" xml:space="preserve" onload="init(evt)">
<style type="text/css"><![CDATA[
.edge:hover path { stroke: red; }
.edge:hover polygon { stroke: red; fill: red; }
]]></style>
<script type="text/javascript"><![CDATA[
var edges = document.getElementsByTagName('g');
if (edges && edges.length) {
  for (var i=0;i<edges.length;i++) {
    if (edges[i].id.substr(0,4)=='edge') {
      edges[i].setAttribute('class','edge');
    }
  }
}
]]></script>
        <defs>
                <circle id="rim" cx="0" cy="0" r="7"/>
                <circle id="rim2" cx="0" cy="0" r="3.5"/>
                <g id="zoomPlus">
                        <use xlink:href="#rim" fill="#404040">
                                <set attributeName="fill" to="#808080" begin="zoomplus.mouseover" end="zoomplus.mouseout"/>
                        </use>
                        <path d="M-4,0h8M0,-4v8" fill="none" stroke="white" stroke-width="1.5" pointer-events="none"/>
                </g>
                <g id="zoomMin">
                        <use xlink:href="#rim" fill="#404040">
                                <set attributeName="fill" to="#808080" begin="zoomminus.mouseover" end="zoomminus.mouseout"/>
                        </use>
                        <path d="M-4,0h8" fill="none" stroke="white" stroke-width="1.5" pointer-events="none"/>
                </g>
                <g id="dirArrow">
                        <path fill="none" stroke="white" stroke-width="1.5" d="M0,-3.0v7 M-2.5,-0.5L0,-3.0L2.5,-0.5"/>
                </g>
               <g id="resetDef">
                       <use xlink:href="#rim2" fill="#404040">
                               <set attributeName="fill" to="#808080" begin="reset.mouseover" end="reset.mouseout"/>
                       </use>
               </g>
        </defs>

<script type="text/javascript">
var viewWidth = 1644;
var viewHeight = 980;
var sectionId = 'dynsection-1';
</script>
<script xlink:href="../../svgpan.js"/>
<svg id="graph" class="graph">
<g id="viewport">
<title>parser.CommandFactory.createCommand</title>
<polygon fill="white" stroke="none" points="-4,4 -4,-976 1640,-976 1640,4 -4,4"/>
<!-- Node1 -->
<g id="node1" class="node"><title>Node1</title>
<polygon fill="#bfbfbf" stroke="black" points="0.5,-413 0.5,-443 167.5,-443 167.5,-413 0.5,-413"/>
<text text-anchor="start" x="8.5" y="-431" font-family="Helvetica,sans-Serif" font-size="10.00">parser.CommandFactory.create</text>
<text text-anchor="middle" x="84" y="-420" font-family="Helvetica,sans-Serif" font-size="10.00">Command</text>
</g>
<!-- Node2 -->
<g id="node2" class="node"><title>Node2</title>
<g id="a_node2"><a xlink:href="../../d6/d95/classparser_1_1_parser.html#ad5386cfbaf84af60512e31503fda19ed" target="_top" xlink:title="parser.Parser.makeNode">
<polygon fill="white" stroke="black" points="204,-418.5 204,-437.5 338,-437.5 338,-418.5 204,-418.5"/>
<text text-anchor="middle" x="271" y="-425.5" font-family="Helvetica,sans-Serif" font-size="10.00">parser.Parser.makeNode</text>
</a>
</g>
</g>
<!-- Node1&#45;&gt;Node2 -->
<g id="edge1" class="edge"><title>Node1&#45;&gt;Node2</title>
<path fill="none" stroke="midnightblue" d="M178.023,-428C186.779,-428 195.528,-428 203.958,-428"/>
<polygon fill="midnightblue" stroke="midnightblue" points="177.76,-424.5 167.76,-428 177.76,-431.5 177.76,-424.5"/>
</g>
<!-- Node3 -->
<g id="node3" class="node"><title>Node3</title>
<g id="a_node3"><a xlink:href="../../d6/d95/classparser_1_1_parser.html#a2fe30e8a728e36fd2626587f059c4b95" target="_top" xlink:title="parser.Parser.makeTree">
<polygon fill="white" stroke="black" points="374,-418.5 374,-437.5 502,-437.5 502,-418.5 374,-418.5"/>
<text text-anchor="middle" x="438" y="-425.5" font-family="Helvetica,sans-Serif" font-size="10.00">parser.Parser.makeTree</text>
</a>
</g>
</g>
<!-- Node2&#45;&gt;Node3 -->
<g id="edge2" class="edge"><title>Node2&#45;&gt;Node3</title>
<path fill="none" stroke="midnightblue" d="M348.437,-428C356.917,-428 365.482,-428 373.773,-428"/>
<polygon fill="midnightblue" stroke="midnightblue" points="348.161,-424.5 338.161,-428 348.161,-431.5 348.161,-424.5"/>
</g>
<!-- Node4 -->
<g id="node4" class="node"><title>Node4</title>
<g id="a_node4"><a xlink:href="../../d6/d95/classparser_1_1_parser.html#a5e98fdfffe49478864dc1b22371d6cb1" target="_top" xlink:title="parser.Parser.parse">
<polygon fill="white" stroke="black" points="538.5,-418.5 538.5,-437.5 647.5,-437.5 647.5,-418.5 538.5,-418.5"/>
<text text-anchor="middle" x="593" y="-425.5" font-family="Helvetica,sans-Serif" font-size="10.00">parser.Parser.parse</text>
</a>
</g>
</g>
<!-- Node3&#45;&gt;Node4 -->
<g id="edge3" class="edge"><title>Node3&#45;&gt;Node4</title>
<path fill="none" stroke="midnightblue" d="M512.335,-428C521.087,-428 529.894,-428 538.297,-428"/>
<polygon fill="midnightblue" stroke="midnightblue" points="512.114,-424.5 502.114,-428 512.114,-431.5 512.114,-424.5"/>
</g>
<!-- Node5 -->
<g id="node5" class="node"><title>Node5</title>
<g id="a_node5"><a xlink:href="../../d7/da1/classmain_application_1_1_controller.html#a6e9afc2e53e6adb01a2b73794a319b63" target="_top" xlink:title="mainApplication.Controller.parse\lAndEvaluate">
<polygon fill="white" stroke="black" points="684,-849 684,-879 856,-879 856,-849 684,-849"/>
<text text-anchor="start" x="692" y="-867" font-family="Helvetica,sans-Serif" font-size="10.00">mainApplication.Controller.parse</text>
<text text-anchor="middle" x="770" y="-856" font-family="Helvetica,sans-Serif" font-size="10.00">AndEvaluate</text>
</a>
</g>
</g>
<!-- Node4&#45;&gt;Node5 -->
<g id="edge4" class="edge"><title>Node4&#45;&gt;Node5</title>
<path fill="none" stroke="midnightblue" d="M595.698,-447.815C602.424,-521.79 629.521,-780.54 684,-839 687.565,-842.826 691.683,-846.077 696.144,-848.838"/>
<polygon fill="midnightblue" stroke="midnightblue" points="599.161,-447.241 594.793,-437.588 592.188,-447.858 599.161,-447.241"/>
</g>
<!-- Node15 -->
<g id="node15" class="node"><title>Node15</title>
<g id="a_node15"><a xlink:href="../../d8/dc3/classparser_1_1_test_model.html#ab542659caca299017b423f7b3b3f648a" target="_top" xlink:title="parser.TestModel.testPosition">
<polygon fill="white" stroke="black" points="692,-810.5 692,-829.5 848,-829.5 848,-810.5 692,-810.5"/>
<text text-anchor="middle" x="770" y="-817.5" font-family="Helvetica,sans-Serif" font-size="10.00">parser.TestModel.testPosition</text>
</a>
</g>
</g>
<!-- Node4&#45;&gt;Node15 -->
<g id="edge17" class="edge"><title>Node4&#45;&gt;Node15</title>
<path fill="none" stroke="midnightblue" d="M596.077,-447.805C603.772,-517.389 632.88,-749.2 684,-800 688.301,-804.274 693.334,-807.701 698.764,-810.441"/>
<polygon fill="midnightblue" stroke="midnightblue" points="599.545,-447.318 594.991,-437.752 592.586,-448.07 599.545,-447.318"/>
</g>
<!-- Node16 -->
<g id="node16" class="node"><title>Node16</title>
<g id="a_node16"><a xlink:href="../../d8/dc3/classparser_1_1_test_model.html#ac4fd1124818e321c4a686cc1cf973254" target="_top" xlink:title="parser.TestModel.testParse\lException">
<polygon fill="white" stroke="black" points="697.5,-761 697.5,-791 842.5,-791 842.5,-761 697.5,-761"/>
<text text-anchor="start" x="705.5" y="-779" font-family="Helvetica,sans-Serif" font-size="10.00">parser.TestModel.testParse</text>
<text text-anchor="middle" x="770" y="-768" font-family="Helvetica,sans-Serif" font-size="10.00">Exception</text>
</a>
</g>
</g>
<!-- Node4&#45;&gt;Node16 -->
<g id="edge18" class="edge"><title>Node4&#45;&gt;Node16</title>
<path fill="none" stroke="midnightblue" d="M593.351,-447.802C592.644,-503.708 598.537,-664.305 684,-751 687.888,-754.944 692.363,-758.272 697.183,-761.081"/>
<polygon fill="midnightblue" stroke="midnightblue" points="596.856,-447.6 593.576,-437.526 589.858,-447.447 596.856,-447.6"/>
</g>
<!-- Node17 -->
<g id="node17" class="node"><title>Node17</title>
<g id="a_node17"><a xlink:href="../../d8/dc3/classparser_1_1_test_model.html#a023bd16aca0a843ec8f4772c96ec2ffb" target="_top" xlink:title="parser.TestModel.testWrite">
<polygon fill="white" stroke="black" points="699,-722.5 699,-741.5 841,-741.5 841,-722.5 699,-722.5"/>
<text text-anchor="middle" x="770" y="-729.5" font-family="Helvetica,sans-Serif" font-size="10.00">parser.TestModel.testWrite</text>
</a>
</g>
</g>
<!-- Node4&#45;&gt;Node17 -->
<g id="edge19" class="edge"><title>Node4&#45;&gt;Node17</title>
<path fill="none" stroke="midnightblue" d="M593.94,-447.803C594.919,-499.695 605.091,-640.599 684,-713 688.345,-716.987 693.339,-720.2 698.684,-722.783"/>
<polygon fill="midnightblue" stroke="midnightblue" points="597.438,-447.594 593.849,-437.625 590.438,-447.656 597.438,-447.594"/>
</g>
<!-- Node18 -->
<g id="node18" class="node"><title>Node18</title>
<g id="a_node18"><a xlink:href="../../de/d33/classparser_1_1_test_parser.html#a2211bce31efddb4c523112a488c02e92" target="_top" xlink:title="parser.TestParser.TestSum">
<polygon fill="white" stroke="black" points="699,-684.5 699,-703.5 841,-703.5 841,-684.5 699,-684.5"/>
<text text-anchor="middle" x="770" y="-691.5" font-family="Helvetica,sans-Serif" font-size="10.00">parser.TestParser.TestSum</text>
</a>
</g>
</g>
<!-- Node4&#45;&gt;Node18 -->
<g id="edge20" class="edge"><title>Node4&#45;&gt;Node18</title>
<path fill="none" stroke="midnightblue" d="M595.036,-447.668C598.618,-494.631 614.461,-613.93 684,-675 688.431,-678.891 693.485,-682.038 698.869,-684.577"/>
<polygon fill="midnightblue" stroke="midnightblue" points="598.522,-447.35 594.376,-437.6 591.537,-447.807 598.522,-447.35"/>
</g>
<!-- Node19 -->
<g id="node19" class="node"><title>Node19</title>
<g id="a_node19"><a xlink:href="../../de/d33/classparser_1_1_test_parser.html#ae799f71307e31127e497d20afdc506ec" target="_top" xlink:title="parser.TestParser.TestDif">
<polygon fill="white" stroke="black" points="704,-646.5 704,-665.5 836,-665.5 836,-646.5 704,-646.5"/>
<text text-anchor="middle" x="770" y="-653.5" font-family="Helvetica,sans-Serif" font-size="10.00">parser.TestParser.TestDif</text>
</a>
</g>
</g>
<!-- Node4&#45;&gt;Node19 -->
<g id="edge21" class="edge"><title>Node4&#45;&gt;Node19</title>
<path fill="none" stroke="midnightblue" d="M596.505,-447.726C602.901,-489.496 623.816,-587.121 684,-637 689.821,-641.824 696.611,-645.489 703.769,-648.263"/>
<polygon fill="midnightblue" stroke="midnightblue" points="599.957,-447.137 595.093,-437.725 593.026,-448.116 599.957,-447.137"/>
</g>
<!-- Node20 -->
<g id="node20" class="node"><title>Node20</title>
<g id="a_node20"><a xlink:href="../../de/d33/classparser_1_1_test_parser.html#a8844bf15d0fe9e809fb466cb35b0ae20" target="_top" xlink:title="parser.TestParser.TestProd">
<polygon fill="white" stroke="black" points="699.5,-608.5 699.5,-627.5 840.5,-627.5 840.5,-608.5 699.5,-608.5"/>
<text text-anchor="middle" x="770" y="-615.5" font-family="Helvetica,sans-Serif" font-size="10.00">parser.TestParser.TestProd</text>
</a>
</g>
</g>
<!-- Node4&#45;&gt;Node20 -->
<g id="edge22" class="edge"><title>Node4&#45;&gt;Node20</title>
<path fill="none" stroke="midnightblue" d="M598.453,-447.31C607.764,-483.142 632.81,-559.833 684,-599 689.044,-602.859 694.721,-605.964 700.687,-608.457"/>
<polygon fill="midnightblue" stroke="midnightblue" points="601.848,-446.46 596.056,-437.588 595.051,-448.135 601.848,-446.46"/>
</g>
<!-- Node21 -->
<g id="node21" class="node"><title>Node21</title>
<g id="a_node21"><a xlink:href="../../de/d33/classparser_1_1_test_parser.html#a9bcfbde1999d45577d42211fcd593121" target="_top" xlink:title="parser.TestParser.TestQuotient">
<polygon fill="white" stroke="black" points="689.5,-570.5 689.5,-589.5 850.5,-589.5 850.5,-570.5 689.5,-570.5"/>
<text text-anchor="middle" x="770" y="-577.5" font-family="Helvetica,sans-Serif" font-size="10.00">parser.TestParser.TestQuotient</text>
</a>
</g>
</g>
<!-- Node4&#45;&gt;Node21 -->
<g id="edge23" class="edge"><title>Node4&#45;&gt;Node21</title>
<path fill="none" stroke="midnightblue" d="M601.399,-447.045C613.817,-476.372 641.722,-532.207 684,-561 689.624,-564.83 695.897,-567.901 702.418,-570.361"/>
<polygon fill="midnightblue" stroke="midnightblue" points="604.54,-445.48 597.526,-437.539 598.057,-448.12 604.54,-445.48"/>
</g>
<!-- Node22 -->
<g id="node22" class="node"><title>Node22</title>
<g id="a_node22"><a xlink:href="../../de/d33/classparser_1_1_test_parser.html#acd110a622f9ac5ef4b4246ea997ec102" target="_top" xlink:title="parser.TestParser.TestRemainder">
<polygon fill="white" stroke="black" points="685,-532.5 685,-551.5 855,-551.5 855,-532.5 685,-532.5"/>
<text text-anchor="middle" x="770" y="-539.5" font-family="Helvetica,sans-Serif" font-size="10.00">parser.TestParser.TestRemainder</text>
</a>
</g>
</g>
<!-- Node4&#45;&gt;Node22 -->
<g id="edge24" class="edge"><title>Node4&#45;&gt;Node22</title>
<path fill="none" stroke="midnightblue" d="M605.867,-445.933C621.238,-467.669 650.113,-503.77 684,-523 690.839,-526.881 698.406,-529.969 706.124,-532.426"/>
<polygon fill="midnightblue" stroke="midnightblue" points="608.68,-443.846 600.132,-437.588 602.912,-447.811 608.68,-443.846"/>
</g>
<!-- Node23 -->
<g id="node23" class="node"><title>Node23</title>
<g id="a_node23"><a xlink:href="../../de/d33/classparser_1_1_test_parser.html#af2b64ced840e8e10f33f74dce480218a" target="_top" xlink:title="parser.TestParser.TestMinus">
<polygon fill="white" stroke="black" points="696.5,-494.5 696.5,-513.5 843.5,-513.5 843.5,-494.5 696.5,-494.5"/>
<text text-anchor="middle" x="770" y="-501.5" font-family="Helvetica,sans-Serif" font-size="10.00">parser.TestParser.TestMinus</text>
</a>
</g>
</g>
<!-- Node4&#45;&gt;Node23 -->
<g id="edge25" class="edge"><title>Node4&#45;&gt;Node23</title>
<path fill="none" stroke="midnightblue" d="M614.371,-443.802C631.916,-456.678 658.386,-474.404 684,-485 693.222,-488.815 703.339,-491.926 713.276,-494.442"/>
<polygon fill="midnightblue" stroke="midnightblue" points="616.163,-440.771 606.062,-437.575 611.965,-446.373 616.163,-440.771"/>
</g>
<!-- Node24 -->
<g id="node24" class="node"><title>Node24</title>
<g id="a_node24"><a xlink:href="../../de/d33/classparser_1_1_test_parser.html#ac13478be4d51a5b8db30db117f6098c8" target="_top" xlink:title="parser.TestParser.TestRandom">
<polygon fill="white" stroke="black" points="690.5,-456.5 690.5,-475.5 849.5,-475.5 849.5,-456.5 690.5,-456.5"/>
<text text-anchor="middle" x="770" y="-463.5" font-family="Helvetica,sans-Serif" font-size="10.00">parser.TestParser.TestRandom</text>
</a>
</g>
</g>
<!-- Node4&#45;&gt;Node24 -->
<g id="edge26" class="edge"><title>Node4&#45;&gt;Node24</title>
<path fill="none" stroke="midnightblue" d="M648.124,-439.753C672.869,-445.126 701.803,-451.409 725.158,-456.48"/>
<polygon fill="midnightblue" stroke="midnightblue" points="648.675,-436.291 638.16,-437.589 647.189,-443.131 648.675,-436.291"/>
</g>
<!-- Node25 -->
<g id="node25" class="node"><title>Node25</title>
<g id="a_node25"><a xlink:href="../../de/d33/classparser_1_1_test_parser.html#aa7724ec4a132ca195c3bd3ee1c81ad73" target="_top" xlink:title="parser.TestParser.TestTrig">
<polygon fill="white" stroke="black" points="702.5,-418.5 702.5,-437.5 837.5,-437.5 837.5,-418.5 702.5,-418.5"/>
<text text-anchor="middle" x="770" y="-425.5" font-family="Helvetica,sans-Serif" font-size="10.00">parser.TestParser.TestTrig</text>
</a>
</g>
</g>
<!-- Node4&#45;&gt;Node25 -->
<g id="edge27" class="edge"><title>Node4&#45;&gt;Node25</title>
<path fill="none" stroke="midnightblue" d="M658.204,-428C672.562,-428 687.822,-428 702.279,-428"/>
<polygon fill="midnightblue" stroke="midnightblue" points="657.934,-424.5 647.934,-428 657.934,-431.5 657.934,-424.5"/>
</g>
<!-- Node26 -->
<g id="node26" class="node"><title>Node26</title>
<g id="a_node26"><a xlink:href="../../de/d33/classparser_1_1_test_parser.html#ada92f24240fae7dfec207bad127e31e7" target="_top" xlink:title="parser.TestParser.TestPow">
<polygon fill="white" stroke="black" points="701,-380.5 701,-399.5 839,-399.5 839,-380.5 701,-380.5"/>
<text text-anchor="middle" x="770" y="-387.5" font-family="Helvetica,sans-Serif" font-size="10.00">parser.TestParser.TestPow</text>
</a>
</g>
</g>
<!-- Node4&#45;&gt;Node26 -->
<g id="edge28" class="edge"><title>Node4&#45;&gt;Node26</title>
<path fill="none" stroke="midnightblue" d="M648.124,-416.247C672.869,-410.874 701.803,-404.591 725.158,-399.52"/>
<polygon fill="midnightblue" stroke="midnightblue" points="647.189,-412.869 638.16,-418.411 648.675,-419.709 647.189,-412.869"/>
</g>
<!-- Node27 -->
<g id="node27" class="node"><title>Node27</title>
<g id="a_node27"><a xlink:href="../../de/d33/classparser_1_1_test_parser.html#a3f8cee68556948d08c53a574a72c8356" target="_top" xlink:title="parser.TestParser.TestBoolean">
<polygon fill="white" stroke="black" points="691,-342.5 691,-361.5 849,-361.5 849,-342.5 691,-342.5"/>
<text text-anchor="middle" x="770" y="-349.5" font-family="Helvetica,sans-Serif" font-size="10.00">parser.TestParser.TestBoolean</text>
</a>
</g>
</g>
<!-- Node4&#45;&gt;Node27 -->
<g id="edge29" class="edge"><title>Node4&#45;&gt;Node27</title>
<path fill="none" stroke="midnightblue" d="M614.371,-412.198C631.916,-399.322 658.386,-381.596 684,-371 693.222,-367.185 703.339,-364.074 713.276,-361.558"/>
<polygon fill="midnightblue" stroke="midnightblue" points="611.965,-409.627 606.062,-418.425 616.163,-415.229 611.965,-409.627"/>
</g>
<!-- Node28 -->
<g id="node28" class="node"><title>Node28</title>
<g id="a_node28"><a xlink:href="../../de/d33/classparser_1_1_test_parser.html#a39be8e4aca3871ce6f29a482a52bcd71" target="_top" xlink:title="parser.TestParser.TestIf">
<polygon fill="white" stroke="black" points="707.5,-304.5 707.5,-323.5 832.5,-323.5 832.5,-304.5 707.5,-304.5"/>
<text text-anchor="middle" x="770" y="-311.5" font-family="Helvetica,sans-Serif" font-size="10.00">parser.TestParser.TestIf</text>
</a>
</g>
</g>
<!-- Node4&#45;&gt;Node28 -->
<g id="edge30" class="edge"><title>Node4&#45;&gt;Node28</title>
<path fill="none" stroke="midnightblue" d="M605.867,-410.067C621.238,-388.331 650.113,-352.23 684,-333 691.233,-328.895 699.282,-325.677 707.461,-323.155"/>
<polygon fill="midnightblue" stroke="midnightblue" points="602.912,-408.189 600.132,-418.412 608.68,-412.154 602.912,-408.189"/>
</g>
<!-- Node29 -->
<g id="node29" class="node"><title>Node29</title>
<g id="a_node29"><a xlink:href="../../de/d33/classparser_1_1_test_parser.html#ac22ad278ed612557e83ed90884fedff4" target="_top" xlink:title="parser.TestParser.TestIfElse">
<polygon fill="white" stroke="black" points="698,-266.5 698,-285.5 842,-285.5 842,-266.5 698,-266.5"/>
<text text-anchor="middle" x="770" y="-273.5" font-family="Helvetica,sans-Serif" font-size="10.00">parser.TestParser.TestIfElse</text>
</a>
</g>
</g>
<!-- Node4&#45;&gt;Node29 -->
<g id="edge31" class="edge"><title>Node4&#45;&gt;Node29</title>
<path fill="none" stroke="midnightblue" d="M601.399,-408.955C613.817,-379.628 641.722,-323.793 684,-295 689.624,-291.17 695.897,-288.099 702.418,-285.639"/>
<polygon fill="midnightblue" stroke="midnightblue" points="598.057,-407.88 597.526,-418.461 604.54,-410.52 598.057,-407.88"/>
</g>
<!-- Node30 -->
<g id="node30" class="node"><title>Node30</title>
<g id="a_node30"><a xlink:href="../../de/d33/classparser_1_1_test_parser.html#aac27b9d8c48ae78dd9252dd65be9aeea" target="_top" xlink:title="parser.TestParser.TestSum2">
<polygon fill="white" stroke="black" points="696,-228.5 696,-247.5 844,-247.5 844,-228.5 696,-228.5"/>
<text text-anchor="middle" x="770" y="-235.5" font-family="Helvetica,sans-Serif" font-size="10.00">parser.TestParser.TestSum2</text>
</a>
</g>
</g>
<!-- Node4&#45;&gt;Node30 -->
<g id="edge32" class="edge"><title>Node4&#45;&gt;Node30</title>
<path fill="none" stroke="midnightblue" d="M598.453,-408.69C607.764,-372.858 632.81,-296.167 684,-257 689.044,-253.141 694.721,-250.036 700.687,-247.543"/>
<polygon fill="midnightblue" stroke="midnightblue" points="595.051,-407.865 596.056,-418.412 601.848,-409.54 595.051,-407.865"/>
</g>
<!-- Node31 -->
<g id="node31" class="node"><title>Node31</title>
<g id="a_node31"><a xlink:href="../../de/d33/classparser_1_1_test_parser.html#a616e3d3359a2feaf24149915c6aea8c8" target="_top" xlink:title="parser.TestParser.TestForward">
<polygon fill="white" stroke="black" points="691.5,-190.5 691.5,-209.5 848.5,-209.5 848.5,-190.5 691.5,-190.5"/>
<text text-anchor="middle" x="770" y="-197.5" font-family="Helvetica,sans-Serif" font-size="10.00">parser.TestParser.TestForward</text>
</a>
</g>
</g>
<!-- Node4&#45;&gt;Node31 -->
<g id="edge33" class="edge"><title>Node4&#45;&gt;Node31</title>
<path fill="none" stroke="midnightblue" d="M596.505,-408.274C602.901,-366.504 623.816,-268.879 684,-219 688.657,-215.14 693.934,-212.023 699.523,-209.51"/>
<polygon fill="midnightblue" stroke="midnightblue" points="593.026,-407.884 595.093,-418.275 599.957,-408.863 593.026,-407.884"/>
</g>
<!-- Node32 -->
<g id="node32" class="node"><title>Node32</title>
<g id="a_node32"><a xlink:href="../../de/d33/classparser_1_1_test_parser.html#a914384055dd7ca9ea5c617ab0bb5e0c0" target="_top" xlink:title="parser.TestParser.TestMake">
<polygon fill="white" stroke="black" points="697.5,-152.5 697.5,-171.5 842.5,-171.5 842.5,-152.5 697.5,-152.5"/>
<text text-anchor="middle" x="770" y="-159.5" font-family="Helvetica,sans-Serif" font-size="10.00">parser.TestParser.TestMake</text>
</a>
</g>
</g>
<!-- Node4&#45;&gt;Node32 -->
<g id="edge34" class="edge"><title>Node4&#45;&gt;Node32</title>
<path fill="none" stroke="midnightblue" d="M595.036,-408.332C598.618,-361.369 614.461,-242.07 684,-181 688.317,-177.208 693.226,-174.124 698.455,-171.62"/>
<polygon fill="midnightblue" stroke="midnightblue" points="591.537,-408.193 594.376,-418.4 598.522,-408.65 591.537,-408.193"/>
</g>
<!-- Node33 -->
<g id="node33" class="node"><title>Node33</title>
<g id="a_node33"><a xlink:href="../../de/d33/classparser_1_1_test_parser.html#a7861269b842fcf079433cbe0a933e8db" target="_top" xlink:title="parser.TestParser.TestRepeat">
<polygon fill="white" stroke="black" points="694,-114.5 694,-133.5 846,-133.5 846,-114.5 694,-114.5"/>
<text text-anchor="middle" x="770" y="-121.5" font-family="Helvetica,sans-Serif" font-size="10.00">parser.TestParser.TestRepeat</text>
</a>
</g>
</g>
<!-- Node4&#45;&gt;Node33 -->
<g id="edge35" class="edge"><title>Node4&#45;&gt;Node33</title>
<path fill="none" stroke="midnightblue" d="M593.94,-408.197C594.919,-356.305 605.091,-215.401 684,-143 688.122,-139.218 692.829,-136.132 697.864,-133.62"/>
<polygon fill="midnightblue" stroke="midnightblue" points="590.438,-408.344 593.849,-418.375 597.438,-408.406 590.438,-408.344"/>
</g>
<!-- Node34 -->
<g id="node34" class="node"><title>Node34</title>
<g id="a_node34"><a xlink:href="../../de/d33/classparser_1_1_test_parser.html#ad6cc42523d881f5a69c5cf307364ce38" target="_top" xlink:title="parser.TestParser.TestFor">
<polygon fill="white" stroke="black" points="703,-76.5 703,-95.5 837,-95.5 837,-76.5 703,-76.5"/>
<text text-anchor="middle" x="770" y="-83.5" font-family="Helvetica,sans-Serif" font-size="10.00">parser.TestParser.TestFor</text>
</a>
</g>
</g>
<!-- Node4&#45;&gt;Node34 -->
<g id="edge36" class="edge"><title>Node4&#45;&gt;Node34</title>
<path fill="none" stroke="midnightblue" d="M596.806,-408.36C606.244,-345.045 638.8,-147.916 684,-105 689.373,-99.8983 695.804,-96.0535 702.69,-93.1714"/>
<polygon fill="midnightblue" stroke="midnightblue" points="593.343,-407.854 595.359,-418.256 600.269,-408.868 593.343,-407.854"/>
</g>
<!-- Node35 -->
<g id="node35" class="node"><title>Node35</title>
<g id="a_node35"><a xlink:href="../../de/d33/classparser_1_1_test_parser.html#a93efc93146678909fa1c24a6727460ae" target="_top" xlink:title="parser.TestParser.TestTo">
<polygon fill="white" stroke="black" points="705.5,-38.5 705.5,-57.5 834.5,-57.5 834.5,-38.5 705.5,-38.5"/>
<text text-anchor="middle" x="770" y="-45.5" font-family="Helvetica,sans-Serif" font-size="10.00">parser.TestParser.TestTo</text>
</a>
</g>
</g>
<!-- Node4&#45;&gt;Node35 -->
<g id="edge37" class="edge"><title>Node4&#45;&gt;Node35</title>
<path fill="none" stroke="midnightblue" d="M596.248,-407.886C604.325,-339.235 634.073,-115.722 684,-67 689.952,-61.1915 697.27,-57.0018 705.092,-54.0035"/>
<polygon fill="midnightblue" stroke="midnightblue" points="592.729,-407.848 595.064,-418.182 599.684,-408.647 592.729,-407.848"/>
</g>
<!-- Node36 -->
<g id="node36" class="node"><title>Node36</title>
<g id="a_node36"><a xlink:href="../../de/d33/classparser_1_1_test_parser.html#a3ab06721c75424d63da6d4380ae7ad5e" target="_top" xlink:title="parser.TestParser.TestRecursion">
<polygon fill="white" stroke="black" points="687.5,-0.5 687.5,-19.5 852.5,-19.5 852.5,-0.5 687.5,-0.5"/>
<text text-anchor="middle" x="770" y="-7.5" font-family="Helvetica,sans-Serif" font-size="10.00">parser.TestParser.TestRecursion</text>
</a>
</g>
</g>
<!-- Node4&#45;&gt;Node36 -->
<g id="edge38" class="edge"><title>Node4&#45;&gt;Node36</title>
<path fill="none" stroke="midnightblue" d="M595.71,-408.172C602.393,-335.309 629.135,-83.7589 684,-29 687.746,-25.2613 692.056,-22.1898 696.707,-19.6729"/>
<polygon fill="midnightblue" stroke="midnightblue" points="592.211,-408.003 594.808,-418.274 599.183,-408.625 592.211,-408.003"/>
</g>
<!-- Node6 -->
<g id="node6" class="node"><title>Node6</title>
<g id="a_node6"><a xlink:href="../../d3/d04/classmain_application_1_1_g_u_i_shell.html#af2f106fa7786f13ccc0202db53b559b9" target="_top" xlink:title="mainApplication.GUIShell.create\lOpenButton">
<polygon fill="white" stroke="black" points="1290,-942 1290,-972 1460,-972 1460,-942 1290,-942"/>
<text text-anchor="start" x="1298" y="-960" font-family="Helvetica,sans-Serif" font-size="10.00">mainApplication.GUIShell.create</text>
<text text-anchor="middle" x="1375" y="-949" font-family="Helvetica,sans-Serif" font-size="10.00">OpenButton</text>
</a>
</g>
</g>
<!-- Node5&#45;&gt;Node6 -->
<g id="edge5" class="edge"><title>Node5&#45;&gt;Node6</title>
<path fill="none" stroke="midnightblue" d="M797.276,-885.242C820.608,-902.723 856.428,-926.301 892,-937 1026.54,-977.465 1191.72,-973.487 1289.62,-965.935"/>
<polygon fill="midnightblue" stroke="midnightblue" points="799.337,-882.412 789.269,-879.113 795.082,-887.97 799.337,-882.412"/>
</g>
<!-- Node8 -->
<g id="node8" class="node"><title>Node8</title>
<g id="a_node8"><a xlink:href="../../d3/de0/classmain_application_1_1_g_u_i.html#a60b2e396c945ac173bfd82f207f42000" target="_top" xlink:title="mainApplication.GUI.initiate\lKeyPress">
<polygon fill="white" stroke="black" points="902.5,-898 902.5,-928 1051.5,-928 1051.5,-898 902.5,-898"/>
<text text-anchor="start" x="910.5" y="-916" font-family="Helvetica,sans-Serif" font-size="10.00">mainApplication.GUI.initiate</text>
<text text-anchor="middle" x="977" y="-905" font-family="Helvetica,sans-Serif" font-size="10.00">KeyPress</text>
</a>
</g>
</g>
<!-- Node5&#45;&gt;Node8 -->
<g id="edge7" class="edge"><title>Node5&#45;&gt;Node8</title>
<path fill="none" stroke="midnightblue" d="M843.812,-881.404C866.49,-886.824 891.289,-892.752 913.219,-897.994"/>
<polygon fill="midnightblue" stroke="midnightblue" points="844.44,-877.955 833.9,-879.035 842.812,-884.764 844.44,-877.955"/>
</g>
<!-- Node11 -->
<g id="node11" class="node"><title>Node11</title>
<g id="a_node11"><a xlink:href="../../dd/dca/classfeatures_1_1_pen_width_slider_feature.html#aac6e7c0d0c6f5e1afde3d8a3c8e788e6" target="_top" xlink:title="features.PenWidthSliderFeature.\lPenWidthSliderFeature">
<polygon fill="white" stroke="black" points="892,-849 892,-879 1062,-879 1062,-849 892,-849"/>
<text text-anchor="start" x="900" y="-867" font-family="Helvetica,sans-Serif" font-size="10.00">features.PenWidthSliderFeature.</text>
<text text-anchor="middle" x="977" y="-856" font-family="Helvetica,sans-Serif" font-size="10.00">PenWidthSliderFeature</text>
</a>
</g>
</g>
<!-- Node5&#45;&gt;Node11 -->
<g id="edge13" class="edge"><title>Node5&#45;&gt;Node11</title>
<path fill="none" stroke="midnightblue" d="M866.428,-864C874.887,-864 883.411,-864 891.767,-864"/>
<polygon fill="midnightblue" stroke="midnightblue" points="866.158,-860.5 856.158,-864 866.157,-867.5 866.158,-860.5"/>
</g>
<!-- Node12 -->
<g id="node12" class="node"><title>Node12</title>
<g id="a_node12"><a xlink:href="../../de/d10/classfeatures_1_1_run_button_feature.html#ada33a09e0a0259486754b597f2d7b0c7" target="_top" xlink:title="features.RunButtonFeature.\lRunButtonFeature">
<polygon fill="white" stroke="black" points="903,-800 903,-830 1051,-830 1051,-800 903,-800"/>
<text text-anchor="start" x="911" y="-818" font-family="Helvetica,sans-Serif" font-size="10.00">features.RunButtonFeature.</text>
<text text-anchor="middle" x="977" y="-807" font-family="Helvetica,sans-Serif" font-size="10.00">RunButtonFeature</text>
</a>
</g>
</g>
<!-- Node5&#45;&gt;Node12 -->
<g id="edge14" class="edge"><title>Node5&#45;&gt;Node12</title>
<path fill="none" stroke="midnightblue" d="M843.812,-846.596C866.49,-841.176 891.289,-835.248 913.219,-830.006"/>
<polygon fill="midnightblue" stroke="midnightblue" points="842.812,-843.236 833.9,-848.965 844.44,-850.045 842.812,-843.236"/>
</g>
<!-- Node13 -->
<g id="node13" class="node"><title>Node13</title>
<g id="a_node13"><a xlink:href="../../d4/d3f/classcomponents_1_1_vars_tab.html#aa51dee8d24322ee37e4399858794ee8b" target="_top" xlink:title="components.VarsTab.setTab\lEditable">
<polygon fill="white" stroke="black" points="902,-751 902,-781 1052,-781 1052,-751 902,-751"/>
<text text-anchor="start" x="910" y="-769" font-family="Helvetica,sans-Serif" font-size="10.00">components.VarsTab.setTab</text>
<text text-anchor="middle" x="977" y="-758" font-family="Helvetica,sans-Serif" font-size="10.00">Editable</text>
</a>
</g>
</g>
<!-- Node5&#45;&gt;Node13 -->
<g id="edge15" class="edge"><title>Node5&#45;&gt;Node13</title>
<path fill="none" stroke="midnightblue" d="M846.971,-844.512C850.107,-842.823 853.133,-840.99 856,-839 877.908,-823.796 870.117,-806.239 892,-791 897.494,-787.174 903.581,-783.925 909.894,-781.167"/>
<polygon fill="midnightblue" stroke="midnightblue" points="845.371,-841.398 837.891,-848.901 848.417,-847.701 845.371,-841.398"/>
</g>
<!-- Node7 -->
<g id="node7" class="node"><title>Node7</title>
<g id="a_node7"><a xlink:href="../../d3/d04/classmain_application_1_1_g_u_i_shell.html#ac525a3e483dbe24e5f9f0257fe54521d" target="_top" xlink:title="mainApplication.GUIShell.\lGUIShell">
<polygon fill="white" stroke="black" points="1496,-898 1496,-928 1636,-928 1636,-898 1496,-898"/>
<text text-anchor="start" x="1504" y="-916" font-family="Helvetica,sans-Serif" font-size="10.00">mainApplication.GUIShell.</text>
<text text-anchor="middle" x="1566" y="-905" font-family="Helvetica,sans-Serif" font-size="10.00">GUIShell</text>
</a>
</g>
</g>
<!-- Node6&#45;&gt;Node7 -->
<g id="edge6" class="edge"><title>Node6&#45;&gt;Node7</title>
<path fill="none" stroke="midnightblue" d="M1450.64,-939.623C1467.11,-935.789 1484.43,-931.758 1500.46,-928.026"/>
<polygon fill="midnightblue" stroke="midnightblue" points="1449.46,-936.304 1440.51,-941.981 1451.05,-943.122 1449.46,-936.304"/>
</g>
<!-- Node9 -->
<g id="node9" class="node"><title>Node9</title>
<g id="a_node9"><a xlink:href="../../d3/de0/classmain_application_1_1_g_u_i.html#af6bd387013dbd1d1daf030117da66c0e" target="_top" xlink:title="mainApplication.GUI.initiate">
<polygon fill="white" stroke="black" points="1101.5,-903.5 1101.5,-922.5 1250.5,-922.5 1250.5,-903.5 1101.5,-903.5"/>
<text text-anchor="middle" x="1176" y="-910.5" font-family="Helvetica,sans-Serif" font-size="10.00">mainApplication.GUI.initiate</text>
</a>
</g>
</g>
<!-- Node8&#45;&gt;Node9 -->
<g id="edge8" class="edge"><title>Node8&#45;&gt;Node9</title>
<path fill="none" stroke="midnightblue" d="M1061.66,-913C1074.89,-913 1088.48,-913 1101.45,-913"/>
<polygon fill="midnightblue" stroke="midnightblue" points="1061.64,-909.5 1051.64,-913 1061.64,-916.5 1061.64,-909.5"/>
</g>
<!-- Node9&#45;&gt;Node6 -->
<g id="edge11" class="edge"><title>Node9&#45;&gt;Node6</title>
<path fill="none" stroke="midnightblue" d="M1229.57,-924.742C1253.21,-930.021 1281.38,-936.314 1306.55,-941.935"/>
<polygon fill="midnightblue" stroke="midnightblue" points="1230.27,-921.311 1219.75,-922.547 1228.74,-928.143 1230.27,-921.311"/>
</g>
<!-- Node9&#45;&gt;Node7 -->
<g id="edge12" class="edge"><title>Node9&#45;&gt;Node7</title>
<path fill="none" stroke="midnightblue" d="M1261.04,-913C1331.29,-913 1430.25,-913 1495.94,-913"/>
<polygon fill="midnightblue" stroke="midnightblue" points="1260.89,-909.5 1250.89,-913 1260.89,-916.5 1260.89,-909.5"/>
</g>
<!-- Node10 -->
<g id="node10" class="node"><title>Node10</title>
<g id="a_node10"><a xlink:href="../../d3/d04/classmain_application_1_1_g_u_i_shell.html#a9df214dfffdce7a39bc6ac5e84ca1f0f" target="_top" xlink:title="mainApplication.GUIShell.create\lNewButton">
<polygon fill="white" stroke="black" points="1290,-854 1290,-884 1460,-884 1460,-854 1290,-854"/>
<text text-anchor="start" x="1298" y="-872" font-family="Helvetica,sans-Serif" font-size="10.00">mainApplication.GUIShell.create</text>
<text text-anchor="middle" x="1375" y="-861" font-family="Helvetica,sans-Serif" font-size="10.00">NewButton</text>
</a>
</g>
</g>
<!-- Node9&#45;&gt;Node10 -->
<g id="edge9" class="edge"><title>Node9&#45;&gt;Node10</title>
<path fill="none" stroke="midnightblue" d="M1229.57,-901.258C1253.21,-895.979 1281.38,-889.686 1306.55,-884.065"/>
<polygon fill="midnightblue" stroke="midnightblue" points="1228.74,-897.857 1219.75,-903.453 1230.27,-904.689 1228.74,-897.857"/>
</g>
<!-- Node10&#45;&gt;Node7 -->
<g id="edge10" class="edge"><title>Node10&#45;&gt;Node7</title>
<path fill="none" stroke="midnightblue" d="M1450.64,-886.377C1467.11,-890.211 1484.43,-894.242 1500.46,-897.974"/>
<polygon fill="midnightblue" stroke="midnightblue" points="1451.05,-882.878 1440.51,-884.019 1449.46,-889.696 1451.05,-882.878"/>
</g>
<!-- Node14 -->
<g id="node14" class="node"><title>Node14</title>
<g id="a_node14"><a xlink:href="../../d4/d3f/classcomponents_1_1_vars_tab.html#a1e48c3f7ead529596e018a72cd6ef159" target="_top" xlink:title="components.VarsTab.VarsTab">
<polygon fill="white" stroke="black" points="1098,-756.5 1098,-775.5 1254,-775.5 1254,-756.5 1098,-756.5"/>
<text text-anchor="middle" x="1176" y="-763.5" font-family="Helvetica,sans-Serif" font-size="10.00">components.VarsTab.VarsTab</text>
</a>
</g>
</g>
<!-- Node13&#45;&gt;Node14 -->
<g id="edge16" class="edge"><title>Node13&#45;&gt;Node14</title>
<path fill="none" stroke="midnightblue" d="M1062.46,-766C1074.23,-766 1086.28,-766 1097.92,-766"/>
<polygon fill="midnightblue" stroke="midnightblue" points="1062.2,-762.5 1052.2,-766 1062.2,-769.5 1062.2,-762.5"/>
</g>
</g>
</svg>
        <g id="navigator" transform="translate(0 0)" fill="#404254">
                <rect fill="#f2f5e9" fill-opacity="0.5" stroke="#606060" stroke-width=".5" x="0" y="0" width="60" height="60"/>
                <use id="zoomplus" xlink:href="#zoomPlus" x="17" y="9" onmousedown="handleZoom(evt,'in')"/>
                <use id="zoomminus" xlink:href="#zoomMin" x="42" y="9" onmousedown="handleZoom(evt,'out')"/>
                <use id="reset" xlink:href="#resetDef" x="30" y="36" onmousedown="handleReset()"/>
                <g id="arrowUp" xlink:href="#dirArrow" transform="translate(30 24)" onmousedown="handlePan(0,-1)">
                  <use xlink:href="#rim" fill="#404040">
                        <set attributeName="fill" to="#808080" begin="arrowUp.mouseover" end="arrowUp.mouseout"/>
                  </use>
                  <path fill="none" stroke="white" stroke-width="1.5" d="M0,-3.0v7 M-2.5,-0.5L0,-3.0L2.5,-0.5"/>
                </g>
                <g id="arrowRight" xlink:href="#dirArrow" transform="rotate(90) translate(36 -43)" onmousedown="handlePan(1,0)">
                  <use xlink:href="#rim" fill="#404040">
                        <set attributeName="fill" to="#808080" begin="arrowRight.mouseover" end="arrowRight.mouseout"/>
                  </use>
                  <path fill="none" stroke="white" stroke-width="1.5" d="M0,-3.0v7 M-2.5,-0.5L0,-3.0L2.5,-0.5"/>
                </g>
                <g id="arrowDown" xlink:href="#dirArrow" transform="rotate(180) translate(-30 -48)" onmousedown="handlePan(0,1)">
                  <use xlink:href="#rim" fill="#404040">
                        <set attributeName="fill" to="#808080" begin="arrowDown.mouseover" end="arrowDown.mouseout"/>
                  </use>
                  <path fill="none" stroke="white" stroke-width="1.5" d="M0,-3.0v7 M-2.5,-0.5L0,-3.0L2.5,-0.5"/>
                </g>
                <g id="arrowLeft" xlink:href="#dirArrow" transform="rotate(270) translate(-36 17)" onmousedown="handlePan(-1,0)">
                  <use xlink:href="#rim" fill="#404040">
                        <set attributeName="fill" to="#808080" begin="arrowLeft.mouseover" end="arrowLeft.mouseout"/>
                  </use>
                  <path fill="none" stroke="white" stroke-width="1.5" d="M0,-3.0v7 M-2.5,-0.5L0,-3.0L2.5,-0.5"/>
                </g>
        </g>
        <svg viewBox="0 0 15 15" width="100%" height="30px" preserveAspectRatio="xMaxYMin meet">
         <g id="arrow_out" transform="scale(0.3 0.3)">
          <a xlink:href="classparser_1_1_command_factory_a6907bbeefbe406c17766a1e350fc359f_icgraph_org.svg" target="_base">
           <rect id="button" ry="5" rx="5" y="6" x="6" height="38" width="38"
                fill="#f2f5e9" fill-opacity="0.5" stroke="#606060" stroke-width="1.0"/>
           <path id="arrow"
             d="M 11.500037,31.436501 C 11.940474,20.09759 22.043105,11.32322 32.158766,21.979434 L 37.068811,17.246167 C 37.068811,17.246167 37.088388,32 37.088388,32 L 22.160133,31.978069 C 22.160133,31.978069 26.997745,27.140456 26.997745,27.140456 C 18.528582,18.264221 13.291696,25.230495 11.500037,31.436501 z"
             style="fill:#404040;"/>
          </a>
         </g>
        </svg>
</svg>
