<?xml version="1.0" encoding="UTF-8" standalone="no"?>
<!DOCTYPE svg PUBLIC "-//W3C//DTD SVG 1.1//EN"
 "http://www.w3.org/Graphics/SVG/1.1/DTD/svg11.dtd">
<!-- Generated by graphviz version 2.36.0 (20140111.2315)
 -->
<!-- Title: command.BackCommand Pages: 1 -->
<svg width="293pt" height="140pt"
 viewBox="0.00 0.00 293.00 140.00" xmlns="http://www.w3.org/2000/svg" xmlns:xlink="http://www.w3.org/1999/xlink">
<g id="graph0" class="graph" transform="scale(1 1) rotate(0) translate(4 136)">
<title>command.BackCommand</title>
<polygon fill="white" stroke="none" points="-4,4 -4,-136 289,-136 289,4 -4,4"/>
<!-- Node1 -->
<g id="node1" class="node"><title>Node1</title>
<polygon fill="#bfbfbf" stroke="black" points="64,-0.5 64,-19.5 206,-19.5 206,-0.5 64,-0.5"/>
<text text-anchor="middle" x="135" y="-7.5" font-family="Helvetica,sans-Serif" font-size="10.00">command.BackCommand</text>
</g>
<!-- Node2 -->
<g id="node2" class="node"><title>Node2</title>
<g id="a_node2"><a xlink:href="../../d5/da3/classcommand_1_1_move_command.html" target="_top" xlink:title="command.MoveCommand">
<polygon fill="white" stroke="black" points="63,-56.5 63,-75.5 207,-75.5 207,-56.5 63,-56.5"/>
<text text-anchor="middle" x="135" y="-63.5" font-family="Helvetica,sans-Serif" font-size="10.00">command.MoveCommand</text>
</a>
</g>
</g>
<!-- Node2&#45;&gt;Node1 -->
<g id="edge1" class="edge"><title>Node2&#45;&gt;Node1</title>
<path fill="none" stroke="midnightblue" d="M135,-45.8045C135,-36.9102 135,-26.7798 135,-19.7511"/>
<polygon fill="midnightblue" stroke="midnightblue" points="131.5,-46.083 135,-56.083 138.5,-46.083 131.5,-46.083"/>
</g>
<!-- Node3 -->
<g id="node3" class="node"><title>Node3</title>
<g id="a_node3"><a xlink:href="../../d7/d35/classcommand_1_1_command.html" target="_top" xlink:title="command.Command">
<polygon fill="white" stroke="black" points="-0.5,-112.5 -0.5,-131.5 118.5,-131.5 118.5,-112.5 -0.5,-112.5"/>
<text text-anchor="middle" x="59" y="-119.5" font-family="Helvetica,sans-Serif" font-size="10.00">command.Command</text>
</a>
</g>
</g>
<!-- Node3&#45;&gt;Node2 -->
<g id="edge2" class="edge"><title>Node3&#45;&gt;Node2</title>
<path fill="none" stroke="midnightblue" d="M79.5758,-106.38C93.312,-96.6204 110.925,-84.1057 122.567,-75.8339"/>
<polygon fill="midnightblue" stroke="midnightblue" points="77.3353,-103.679 71.2107,-112.324 81.3898,-109.385 77.3353,-103.679"/>
</g>
<!-- Node4 -->
<g id="node4" class="node"><title>Node4</title>
<g id="a_node4"><a xlink:href="../../d0/d0e/interfacecommand_1_1_position_interface.html" target="_top" xlink:title="command.PositionInterface">
<polygon fill="white" stroke="black" points="137,-112.5 137,-131.5 285,-131.5 285,-112.5 137,-112.5"/>
<text text-anchor="middle" x="211" y="-119.5" font-family="Helvetica,sans-Serif" font-size="10.00">command.PositionInterface</text>
</a>
</g>
</g>
<!-- Node4&#45;&gt;Node2 -->
<g id="edge3" class="edge"><title>Node4&#45;&gt;Node2</title>
<path fill="none" stroke="midnightblue" d="M190.424,-106.38C176.688,-96.6204 159.075,-84.1057 147.433,-75.8339"/>
<polygon fill="midnightblue" stroke="midnightblue" points="188.61,-109.385 198.789,-112.324 192.665,-103.679 188.61,-109.385"/>
</g>
</g>
</svg>
