<?xml version="1.0" encoding="UTF-8" standalone="no"?>
<!DOCTYPE svg PUBLIC "-//W3C//DTD SVG 1.1//EN"
 "http://www.w3.org/Graphics/SVG/1.1/DTD/svg11.dtd">
<!-- Generated by graphviz version 2.36.0 (20140111.2315)
 -->
<!-- Title: components.InfoPane Pages: 1 -->
<svg width="273pt" height="140pt"
 viewBox="0.00 0.00 273.00 140.00" xmlns="http://www.w3.org/2000/svg" xmlns:xlink="http://www.w3.org/1999/xlink">
<g id="graph0" class="graph" transform="scale(1 1) rotate(0) translate(4 136)">
<title>components.InfoPane</title>
<polygon fill="white" stroke="none" points="-4,4 -4,-136 269,-136 269,4 -4,4"/>
<!-- Node1 -->
<g id="node1" class="node"><title>Node1</title>
<polygon fill="#bfbfbf" stroke="black" points="71,-56.5 71,-75.5 191,-75.5 191,-56.5 71,-56.5"/>
<text text-anchor="middle" x="131" y="-63.5" font-family="Helvetica,sans-Serif" font-size="10.00">components.InfoPane</text>
</g>
<!-- Node4 -->
<g id="node4" class="node"><title>Node4</title>
<g id="a_node4"><a xlink:href="../../db/d9a/classcomponents_1_1_left_pane.html" target="_top" xlink:title="components.LeftPane">
<polygon fill="white" stroke="black" points="-0.5,-0.5 -0.5,-19.5 120.5,-19.5 120.5,-0.5 -0.5,-0.5"/>
<text text-anchor="middle" x="60" y="-7.5" font-family="Helvetica,sans-Serif" font-size="10.00">components.LeftPane</text>
</a>
</g>
</g>
<!-- Node1&#45;&gt;Node4 -->
<g id="edge3" class="edge"><title>Node1&#45;&gt;Node4</title>
<path fill="none" stroke="midnightblue" d="M111.41,-50.1008C98.6324,-40.3824 82.3873,-28.0269 71.6149,-19.8339"/>
<polygon fill="midnightblue" stroke="midnightblue" points="109.514,-53.0561 119.593,-56.324 113.752,-47.4844 109.514,-53.0561"/>
</g>
<!-- Node5 -->
<g id="node5" class="node"><title>Node5</title>
<g id="a_node5"><a xlink:href="../../d5/d01/classcomponents_1_1_right_pane.html" target="_top" xlink:title="components.RightPane">
<polygon fill="white" stroke="black" points="138.5,-0.5 138.5,-19.5 265.5,-19.5 265.5,-0.5 138.5,-0.5"/>
<text text-anchor="middle" x="202" y="-7.5" font-family="Helvetica,sans-Serif" font-size="10.00">components.RightPane</text>
</a>
</g>
</g>
<!-- Node1&#45;&gt;Node5 -->
<g id="edge4" class="edge"><title>Node1&#45;&gt;Node5</title>
<path fill="none" stroke="midnightblue" d="M150.59,-50.1008C163.368,-40.3824 179.613,-28.0269 190.385,-19.8339"/>
<polygon fill="midnightblue" stroke="midnightblue" points="148.248,-47.4844 142.407,-56.324 152.486,-53.0561 148.248,-47.4844"/>
</g>
<!-- Node2 -->
<g id="node2" class="node"><title>Node2</title>
<polygon fill="white" stroke="#bfbfbf" points="53,-112.5 53,-131.5 113,-131.5 113,-112.5 53,-112.5"/>
<text text-anchor="middle" x="83" y="-119.5" font-family="Helvetica,sans-Serif" font-size="10.00">FlowPane</text>
</g>
<!-- Node2&#45;&gt;Node1 -->
<g id="edge1" class="edge"><title>Node2&#45;&gt;Node1</title>
<path fill="none" stroke="midnightblue" d="M97.7277,-104.431C106.14,-94.9673 116.349,-83.4827 123.221,-75.7511"/>
<polygon fill="midnightblue" stroke="midnightblue" points="94.954,-102.284 90.9262,-112.083 100.186,-106.934 94.954,-102.284"/>
</g>
<!-- Node3 -->
<g id="node3" class="node"><title>Node3</title>
<g id="a_node3"><a xlink:href="../../d2/dfc/interfacefeatures_1_1_feature.html" target="_top" xlink:title="features.Feature">
<polygon fill="white" stroke="black" points="131.5,-112.5 131.5,-131.5 226.5,-131.5 226.5,-112.5 131.5,-112.5"/>
<text text-anchor="middle" x="179" y="-119.5" font-family="Helvetica,sans-Serif" font-size="10.00">features.Feature</text>
</a>
</g>
</g>
<!-- Node3&#45;&gt;Node1 -->
<g id="edge2" class="edge"><title>Node3&#45;&gt;Node1</title>
<path fill="none" stroke="midnightblue" d="M164.272,-104.431C155.86,-94.9673 145.651,-83.4827 138.779,-75.7511"/>
<polygon fill="midnightblue" stroke="midnightblue" points="161.814,-106.934 171.074,-112.083 167.046,-102.284 161.814,-106.934"/>
</g>
</g>
</svg>
