<?xml version="1.0" encoding="UTF-8" standalone="no"?>
<!DOCTYPE svg PUBLIC "-//W3C//DTD SVG 1.1//EN"
 "http://www.w3.org/Graphics/SVG/1.1/DTD/svg11.dtd">
<!-- Generated by graphviz version 2.36.0 (20140111.2315)
 -->
<!-- Title: features.LanguageComboFeature Pages: 1 -->
<svg width="247pt" height="96pt"
 viewBox="0.00 0.00 247.00 96.00" xmlns="http://www.w3.org/2000/svg" xmlns:xlink="http://www.w3.org/1999/xlink">
<g id="graph0" class="graph" transform="scale(1 1) rotate(0) translate(4 92)">
<title>features.LanguageComboFeature</title>
<polygon fill="white" stroke="none" points="-4,4 -4,-92 243,-92 243,4 -4,4"/>
<!-- Node1 -->
<g id="node1" class="node"><title>Node1</title>
<polygon fill="#bfbfbf" stroke="black" points="38.5,-0.5 38.5,-19.5 215.5,-19.5 215.5,-0.5 38.5,-0.5"/>
<text text-anchor="middle" x="127" y="-7.5" font-family="Helvetica,sans-Serif" font-size="10.00">features.LanguageComboFeature</text>
</g>
<!-- Node2 -->
<g id="node2" class="node"><title>Node2</title>
<polygon fill="white" stroke="#bfbfbf" points="0,-57 0,-87 126,-87 126,-57 0,-57"/>
<text text-anchor="start" x="8" y="-75" font-family="Helvetica,sans-Serif" font-size="10.00">javafx::scene::control</text>
<text text-anchor="middle" x="63" y="-64" font-family="Helvetica,sans-Serif" font-size="10.00">::ComboBox&lt; String &gt;</text>
</g>
<!-- Node2&#45;&gt;Node1 -->
<g id="edge1" class="edge"><title>Node2&#45;&gt;Node1</title>
<path fill="none" stroke="midnightblue" d="M85.4837,-49.9216C96.5432,-39.5533 109.271,-27.6209 117.687,-19.7305"/>
<polygon fill="midnightblue" stroke="midnightblue" points="83.0687,-47.388 78.1671,-56.7808 87.8563,-52.4948 83.0687,-47.388"/>
</g>
<!-- Node3 -->
<g id="node3" class="node"><title>Node3</title>
<g id="a_node3"><a xlink:href="../../d2/dfc/interfacefeatures_1_1_feature.html" target="_top" xlink:title="features.Feature">
<polygon fill="white" stroke="black" points="144.5,-62.5 144.5,-81.5 239.5,-81.5 239.5,-62.5 144.5,-62.5"/>
<text text-anchor="middle" x="192" y="-69.5" font-family="Helvetica,sans-Serif" font-size="10.00">features.Feature</text>
</a>
</g>
</g>
<!-- Node3&#45;&gt;Node1 -->
<g id="edge2" class="edge"><title>Node3&#45;&gt;Node1</title>
<path fill="none" stroke="midnightblue" d="M175.231,-55.5206C162.838,-44.0815 146.425,-28.9305 136.296,-19.5806"/>
<polygon fill="midnightblue" stroke="midnightblue" points="172.965,-58.1925 182.687,-62.4035 177.713,-53.0488 172.965,-58.1925"/>
</g>
</g>
</svg>
