<?xml version="1.0" encoding="UTF-8" standalone="no"?>
<!DOCTYPE svg PUBLIC "-//W3C//DTD SVG 1.1//EN"
 "http://www.w3.org/Graphics/SVG/1.1/DTD/svg11.dtd">
<!-- Generated by graphviz version 2.36.0 (20140111.2315)
 -->
<!-- Title: components.CenterPane Pages: 1 -->
<!--zoomable 296 -->
<svg id="main" version="1.1" xmlns="http://www.w3.org/2000/svg" xmlns:xlink="http://www.w3.org/1999/xlink" xml:space="preserve" onload="init(evt)">
<style type="text/css"><![CDATA[
.edge:hover path { stroke: red; }
.edge:hover polygon { stroke: red; fill: red; }
]]></style>
<script type="text/javascript"><![CDATA[
var edges = document.getElementsByTagName('g');
if (edges && edges.length) {
  for (var i=0;i<edges.length;i++) {
    if (edges[i].id.substr(0,4)=='edge') {
      edges[i].setAttribute('class','edge');
    }
  }
}
]]></script>
        <defs>
                <circle id="rim" cx="0" cy="0" r="7"/>
                <circle id="rim2" cx="0" cy="0" r="3.5"/>
                <g id="zoomPlus">
                        <use xlink:href="#rim" fill="#404040">
                                <set attributeName="fill" to="#808080" begin="zoomplus.mouseover" end="zoomplus.mouseout"/>
                        </use>
                        <path d="M-4,0h8M0,-4v8" fill="none" stroke="white" stroke-width="1.5" pointer-events="none"/>
                </g>
                <g id="zoomMin">
                        <use xlink:href="#rim" fill="#404040">
                                <set attributeName="fill" to="#808080" begin="zoomminus.mouseover" end="zoomminus.mouseout"/>
                        </use>
                        <path d="M-4,0h8" fill="none" stroke="white" stroke-width="1.5" pointer-events="none"/>
                </g>
                <g id="dirArrow">
                        <path fill="none" stroke="white" stroke-width="1.5" d="M0,-3.0v7 M-2.5,-0.5L0,-3.0L2.5,-0.5"/>
                </g>
               <g id="resetDef">
                       <use xlink:href="#rim2" fill="#404040">
                               <set attributeName="fill" to="#808080" begin="reset.mouseover" end="reset.mouseout"/>
                       </use>
               </g>
        </defs>

<script type="text/javascript">
var viewWidth = 674;
var viewHeight = 296;
var sectionId = 'dynsection-1';
</script>
<script xlink:href="../../svgpan.js"/>
<svg id="graph" class="graph">
<g id="viewport">
<title>components.CenterPane</title>
<polygon fill="white" stroke="none" points="-4,4 -4,-292 670,-292 670,4 -4,4"/>
<!-- Node1 -->
<g id="node1" class="node"><title>Node1</title>
<polygon fill="#bfbfbf" stroke="black" points="245.5,-76.5 245.5,-95.5 380.5,-95.5 380.5,-76.5 245.5,-76.5"/>
<text text-anchor="middle" x="313" y="-83.5" font-family="Helvetica,sans-Serif" font-size="10.00">components.CenterPane</text>
</g>
<!-- Node5 -->
<g id="node5" class="node"><title>Node5</title>
<g id="a_node5"><a xlink:href="../../d6/d68/classcomponents_1_1_turtle_manager.html" target="_top" xlink:title="components.TurtleManager">
<polygon fill="white" stroke="black" points="518.5,-161.5 518.5,-180.5 665.5,-180.5 665.5,-161.5 518.5,-161.5"/>
<text text-anchor="middle" x="592" y="-168.5" font-family="Helvetica,sans-Serif" font-size="10.00">components.TurtleManager</text>
</a>
</g>
</g>
<!-- Node1&#45;&gt;Node5 -->
<g id="edge11" class="edge"><title>Node1&#45;&gt;Node5</title>
<path fill="none" stroke="#9a32cd" stroke-dasharray="5,2" d="M362.495,-98.0209C400.237,-107.683 453.789,-122.065 500,-137 523.109,-144.469 549.013,-154.293 567.257,-161.459"/>
<polygon fill="#9a32cd" stroke="#9a32cd" points="363.326,-94.621 352.772,-95.5467 361.6,-101.405 363.326,-94.621"/>
<text text-anchor="middle" x="457" y="-140" font-family="Helvetica,sans-Serif" font-size="10.00"> myCenterPane</text>
</g>
<!-- Node2 -->
<g id="node2" class="node"><title>Node2</title>
<polygon fill="white" stroke="#bfbfbf" points="42,-114.5 42,-133.5 82,-133.5 82,-114.5 42,-114.5"/>
<text text-anchor="middle" x="62" y="-121.5" font-family="Helvetica,sans-Serif" font-size="10.00">Pane</text>
</g>
<!-- Node2&#45;&gt;Node1 -->
<g id="edge1" class="edge"><title>Node2&#45;&gt;Node1</title>
<path fill="none" stroke="midnightblue" d="M92.1239,-119.555C130.56,-113.69 199.238,-103.209 249.642,-95.5165"/>
<polygon fill="midnightblue" stroke="midnightblue" points="91.4827,-116.113 82.1252,-121.081 92.5388,-123.033 91.4827,-116.113"/>
</g>
<!-- Node3 -->
<g id="node3" class="node"><title>Node3</title>
<g id="a_node3"><a xlink:href="../../d2/dfc/interfacefeatures_1_1_feature.html" target="_top" xlink:title="features.Feature">
<polygon fill="white" stroke="black" points="14.5,-76.5 14.5,-95.5 109.5,-95.5 109.5,-76.5 14.5,-76.5"/>
<text text-anchor="middle" x="62" y="-83.5" font-family="Helvetica,sans-Serif" font-size="10.00">features.Feature</text>
</a>
</g>
</g>
<!-- Node3&#45;&gt;Node1 -->
<g id="edge2" class="edge"><title>Node3&#45;&gt;Node1</title>
<path fill="none" stroke="midnightblue" d="M119.76,-86C157.152,-86 206.263,-86 245.487,-86"/>
<polygon fill="midnightblue" stroke="midnightblue" points="119.543,-82.5001 109.543,-86 119.543,-89.5001 119.543,-82.5001"/>
</g>
<!-- Node4 -->
<g id="node4" class="node"><title>Node4</title>
<polygon fill="white" stroke="#bfbfbf" points="0,-38.5 0,-57.5 124,-57.5 124,-38.5 0,-38.5"/>
<text text-anchor="middle" x="62" y="-45.5" font-family="Helvetica,sans-Serif" font-size="10.00">Map&lt; Integer, Color &gt;</text>
</g>
<!-- Node4&#45;&gt;Node1 -->
<g id="edge3" class="edge"><title>Node4&#45;&gt;Node1</title>
<path fill="none" stroke="#9a32cd" stroke-dasharray="5,2" d="M134.295,-58.8803C170.727,-64.4403 214.646,-71.1428 249.707,-76.4934"/>
<polygon fill="#9a32cd" stroke="#9a32cd" points="134.645,-55.3933 124.231,-57.3445 133.589,-62.3132 134.645,-55.3933"/>
<text text-anchor="middle" x="177" y="-74" font-family="Helvetica,sans-Serif" font-size="10.00"> colorsMap</text>
</g>
<!-- Node5&#45;&gt;Node1 -->
<g id="edge4" class="edge"><title>Node5&#45;&gt;Node1</title>
<path fill="none" stroke="#9a32cd" stroke-dasharray="5,2" d="M578.324,-153.103C562.633,-132.66 533.804,-100.322 500,-87 457.188,-70.1285 404.406,-71.7298 366.019,-76.4662"/>
<polygon fill="#9a32cd" stroke="#9a32cd" points="575.633,-155.349 584.401,-161.297 581.256,-151.179 575.633,-155.349"/>
<text text-anchor="middle" x="457" y="-90" font-family="Helvetica,sans-Serif" font-size="10.00"> myTurtleManager</text>
</g>
<!-- Node6 -->
<g id="node6" class="node"><title>Node6</title>
<polygon fill="white" stroke="#bfbfbf" points="230.5,-258 230.5,-288 395.5,-288 395.5,-258 230.5,-258"/>
<text text-anchor="start" x="238.5" y="-276" font-family="Helvetica,sans-Serif" font-size="10.00">Map&lt; Integer, features.Display</text>
<text text-anchor="middle" x="313" y="-265" font-family="Helvetica,sans-Serif" font-size="10.00">Turtle &gt;</text>
</g>
<!-- Node6&#45;&gt;Node5 -->
<g id="edge5" class="edge"><title>Node6&#45;&gt;Node5</title>
<path fill="none" stroke="#9a32cd" stroke-dasharray="5,2" d="M405.384,-257.76C436.151,-250.969 470.213,-241.589 500,-229 530.372,-216.164 561.994,-193.563 578.792,-180.692"/>
<polygon fill="#9a32cd" stroke="#9a32cd" points="404.565,-254.356 395.52,-259.874 406.032,-261.201 404.565,-254.356"/>
<text text-anchor="middle" x="457" y="-258" font-family="Helvetica,sans-Serif" font-size="10.00"> myTurtleMap</text>
</g>
<!-- Node7 -->
<g id="node7" class="node"><title>Node7</title>
<polygon fill="white" stroke="#bfbfbf" points="237.5,-219.5 237.5,-238.5 388.5,-238.5 388.5,-219.5 237.5,-219.5"/>
<text text-anchor="middle" x="313" y="-226.5" font-family="Helvetica,sans-Serif" font-size="10.00">Map&lt; Integer, ImageView &gt;</text>
</g>
<!-- Node7&#45;&gt;Node5 -->
<g id="edge6" class="edge"><title>Node7&#45;&gt;Node5</title>
<path fill="none" stroke="#9a32cd" stroke-dasharray="5,2" d="M398.446,-217.909C430.447,-213.045 467.089,-206.678 500,-199 521.57,-193.968 545.492,-186.532 563.394,-180.588"/>
<polygon fill="#9a32cd" stroke="#9a32cd" points="397.603,-214.496 388.23,-219.435 398.637,-221.419 397.603,-214.496"/>
<text text-anchor="middle" x="457" y="-217" font-family="Helvetica,sans-Serif" font-size="10.00"> myImageMap</text>
</g>
<!-- Node8 -->
<g id="node8" class="node"><title>Node8</title>
<g id="a_node8"><a xlink:href="../../d9/d58/classcomponents_1_1_bottom_pane.html" target="_top" xlink:title="components.BottomPane">
<polygon fill="white" stroke="black" points="243.5,-181.5 243.5,-200.5 382.5,-200.5 382.5,-181.5 243.5,-181.5"/>
<text text-anchor="middle" x="313" y="-188.5" font-family="Helvetica,sans-Serif" font-size="10.00">components.BottomPane</text>
</a>
</g>
</g>
<!-- Node8&#45;&gt;Node5 -->
<g id="edge7" class="edge"><title>Node8&#45;&gt;Node5</title>
<path fill="none" stroke="#9a32cd" stroke-dasharray="5,2" d="M392.923,-185.302C432.314,-182.457 479.649,-179.04 518.167,-176.259"/>
<polygon fill="#9a32cd" stroke="#9a32cd" points="392.55,-181.819 382.828,-186.03 393.054,-188.801 392.55,-181.819"/>
<text text-anchor="middle" x="457" y="-187" font-family="Helvetica,sans-Serif" font-size="10.00"> myBottomPane</text>
</g>
<!-- Node9 -->
<g id="node9" class="node"><title>Node9</title>
<polygon fill="white" stroke="#bfbfbf" points="41,-228.5 41,-247.5 83,-247.5 83,-228.5 41,-228.5"/>
<text text-anchor="middle" x="62" y="-235.5" font-family="Helvetica,sans-Serif" font-size="10.00">HBox</text>
</g>
<!-- Node9&#45;&gt;Node8 -->
<g id="edge8" class="edge"><title>Node9&#45;&gt;Node8</title>
<path fill="none" stroke="midnightblue" d="M93.1763,-233.046C123.315,-228.024 170.94,-219.891 212,-212 230.466,-208.451 250.785,-204.241 268.256,-200.525"/>
<polygon fill="midnightblue" stroke="midnightblue" points="92.5768,-229.597 83.2844,-234.687 93.7224,-236.503 92.5768,-229.597"/>
</g>
<!-- Node10 -->
<g id="node10" class="node"><title>Node10</title>
<polygon fill="white" stroke="#bfbfbf" points="41,-190.5 41,-209.5 83,-209.5 83,-190.5 41,-190.5"/>
<text text-anchor="middle" x="62" y="-197.5" font-family="Helvetica,sans-Serif" font-size="10.00">Label</text>
</g>
<!-- Node10&#45;&gt;Node8 -->
<g id="edge9" class="edge"><title>Node10&#45;&gt;Node8</title>
<path fill="none" stroke="#9a32cd" stroke-dasharray="5,2" d="M93.5473,-198.896C130.652,-197.555 194.363,-195.252 243.436,-193.478"/>
<polygon fill="#9a32cd" stroke="#9a32cd" points="93.2437,-195.404 83.3767,-199.263 93.4966,-202.4 93.2437,-195.404"/>
<text text-anchor="middle" x="177" y="-200" font-family="Helvetica,sans-Serif" font-size="10.00"> myErrors</text>
</g>
<!-- Node11 -->
<g id="node11" class="node"><title>Node11</title>
<polygon fill="white" stroke="#bfbfbf" points="33,-152.5 33,-171.5 91,-171.5 91,-152.5 33,-152.5"/>
<text text-anchor="middle" x="62" y="-159.5" font-family="Helvetica,sans-Serif" font-size="10.00">TextArea</text>
</g>
<!-- Node11&#45;&gt;Node8 -->
<g id="edge10" class="edge"><title>Node11&#45;&gt;Node8</title>
<path fill="none" stroke="#9a32cd" stroke-dasharray="5,2" d="M101.095,-166.285C131.205,-169.686 174.295,-174.587 212,-179 222.16,-180.189 232.898,-181.461 243.42,-182.717"/>
<polygon fill="#9a32cd" stroke="#9a32cd" points="101.346,-162.791 91.0166,-165.147 100.561,-169.747 101.346,-162.791"/>
<text text-anchor="middle" x="177" y="-182" font-family="Helvetica,sans-Serif" font-size="10.00"> myCommand</text>
</g>
<!-- Node12 -->
<g id="node12" class="node"><title>Node12</title>
<polygon fill="white" stroke="#bfbfbf" points="292.5,-143.5 292.5,-162.5 333.5,-162.5 333.5,-143.5 292.5,-143.5"/>
<text text-anchor="middle" x="313" y="-150.5" font-family="Helvetica,sans-Serif" font-size="10.00">Color</text>
</g>
<!-- Node12&#45;&gt;Node5 -->
<g id="edge12" class="edge"><title>Node12&#45;&gt;Node5</title>
<path fill="none" stroke="#9a32cd" stroke-dasharray="5,2" d="M343.637,-152.137C380.402,-151.375 444.961,-151.047 500,-156 513.555,-157.22 528.141,-159.283 541.579,-161.496"/>
<polygon fill="#9a32cd" stroke="#9a32cd" points="343.514,-148.639 333.599,-152.371 343.677,-155.637 343.514,-148.639"/>
<text text-anchor="middle" x="457" y="-159" font-family="Helvetica,sans-Serif" font-size="10.00"> testC</text>
</g>
<!-- Node13 -->
<g id="node13" class="node"><title>Node13</title>
<polygon fill="white" stroke="#bfbfbf" points="32.5,-0.5 32.5,-19.5 91.5,-19.5 91.5,-0.5 32.5,-0.5"/>
<text text-anchor="middle" x="62" y="-7.5" font-family="Helvetica,sans-Serif" font-size="10.00">GridPane</text>
</g>
<!-- Node13&#45;&gt;Node1 -->
<g id="edge13" class="edge"><title>Node13&#45;&gt;Node1</title>
<path fill="none" stroke="#9a32cd" stroke-dasharray="5,2" d="M101.784,-17.7728C132.104,-24.2313 175.146,-34.2438 212,-46 239.612,-54.8079 270.447,-67.6137 290.479,-76.3473"/>
<polygon fill="#9a32cd" stroke="#9a32cd" points="102.127,-14.2685 91.6216,-15.6395 100.689,-21.1192 102.127,-14.2685"/>
<text text-anchor="middle" x="177" y="-49" font-family="Helvetica,sans-Serif" font-size="10.00"> referenceGrid</text>
</g>
</g>
</svg>
        <g id="navigator" transform="translate(0 0)" fill="#404254">
                <rect fill="#f2f5e9" fill-opacity="0.5" stroke="#606060" stroke-width=".5" x="0" y="0" width="60" height="60"/>
                <use id="zoomplus" xlink:href="#zoomPlus" x="17" y="9" onmousedown="handleZoom(evt,'in')"/>
                <use id="zoomminus" xlink:href="#zoomMin" x="42" y="9" onmousedown="handleZoom(evt,'out')"/>
                <use id="reset" xlink:href="#resetDef" x="30" y="36" onmousedown="handleReset()"/>
                <g id="arrowUp" xlink:href="#dirArrow" transform="translate(30 24)" onmousedown="handlePan(0,-1)">
                  <use xlink:href="#rim" fill="#404040">
                        <set attributeName="fill" to="#808080" begin="arrowUp.mouseover" end="arrowUp.mouseout"/>
                  </use>
                  <path fill="none" stroke="white" stroke-width="1.5" d="M0,-3.0v7 M-2.5,-0.5L0,-3.0L2.5,-0.5"/>
                </g>
                <g id="arrowRight" xlink:href="#dirArrow" transform="rotate(90) translate(36 -43)" onmousedown="handlePan(1,0)">
                  <use xlink:href="#rim" fill="#404040">
                        <set attributeName="fill" to="#808080" begin="arrowRight.mouseover" end="arrowRight.mouseout"/>
                  </use>
                  <path fill="none" stroke="white" stroke-width="1.5" d="M0,-3.0v7 M-2.5,-0.5L0,-3.0L2.5,-0.5"/>
                </g>
                <g id="arrowDown" xlink:href="#dirArrow" transform="rotate(180) translate(-30 -48)" onmousedown="handlePan(0,1)">
                  <use xlink:href="#rim" fill="#404040">
                        <set attributeName="fill" to="#808080" begin="arrowDown.mouseover" end="arrowDown.mouseout"/>
                  </use>
                  <path fill="none" stroke="white" stroke-width="1.5" d="M0,-3.0v7 M-2.5,-0.5L0,-3.0L2.5,-0.5"/>
                </g>
                <g id="arrowLeft" xlink:href="#dirArrow" transform="rotate(270) translate(-36 17)" onmousedown="handlePan(-1,0)">
                  <use xlink:href="#rim" fill="#404040">
                        <set attributeName="fill" to="#808080" begin="arrowLeft.mouseover" end="arrowLeft.mouseout"/>
                  </use>
                  <path fill="none" stroke="white" stroke-width="1.5" d="M0,-3.0v7 M-2.5,-0.5L0,-3.0L2.5,-0.5"/>
                </g>
        </g>
        <svg viewBox="0 0 15 15" width="100%" height="30px" preserveAspectRatio="xMaxYMin meet">
         <g id="arrow_out" transform="scale(0.3 0.3)">
          <a xlink:href="classcomponents_1_1_center_pane__coll__graph_org.svg" target="_base">
           <rect id="button" ry="5" rx="5" y="6" x="6" height="38" width="38"
                fill="#f2f5e9" fill-opacity="0.5" stroke="#606060" stroke-width="1.0"/>
           <path id="arrow"
             d="M 11.500037,31.436501 C 11.940474,20.09759 22.043105,11.32322 32.158766,21.979434 L 37.068811,17.246167 C 37.068811,17.246167 37.088388,32 37.088388,32 L 22.160133,31.978069 C 22.160133,31.978069 26.997745,27.140456 26.997745,27.140456 C 18.528582,18.264221 13.291696,25.230495 11.500037,31.436501 z"
             style="fill:#404040;"/>
          </a>
         </g>
        </svg>
</svg>
