<?xml version="1.0" encoding="UTF-8" standalone="no"?>
<!DOCTYPE svg PUBLIC "-//W3C//DTD SVG 1.1//EN"
 "http://www.w3.org/Graphics/SVG/1.1/DTD/svg11.dtd">
<!-- Generated by graphviz version 2.36.0 (20140111.2315)
 -->
<!-- Title: command.HeadingCommand.execute Pages: 1 -->
<svg width="548pt" height="28pt"
 viewBox="0.00 0.00 548.00 28.00" xmlns="http://www.w3.org/2000/svg" xmlns:xlink="http://www.w3.org/1999/xlink">
<g id="graph0" class="graph" transform="scale(1 1) rotate(0) translate(4 24)">
<title>command.HeadingCommand.execute</title>
<polygon fill="white" stroke="none" points="-4,4 -4,-24 544,-24 544,4 -4,4"/>
<!-- Node1 -->
<g id="node1" class="node"><title>Node1</title>
<polygon fill="#bfbfbf" stroke="black" points="0,-0.5 0,-19.5 200,-19.5 200,-0.5 0,-0.5"/>
<text text-anchor="middle" x="100" y="-7.5" font-family="Helvetica,sans-Serif" font-size="10.00">command.HeadingCommand.execute</text>
</g>
<!-- Node2 -->
<g id="node2" class="node"><title>Node2</title>
<g id="a_node2"><a xlink:href="../../d4/d4a/classactor_1_1_turtle.html#ac14c312749b99c1dc8619a8feab8d283" target="_top" xlink:title="actor.Turtle.getAngle">
<polygon fill="white" stroke="black" points="236.5,-0.5 236.5,-19.5 351.5,-19.5 351.5,-0.5 236.5,-0.5"/>
<text text-anchor="middle" x="294" y="-7.5" font-family="Helvetica,sans-Serif" font-size="10.00">actor.Turtle.getAngle</text>
</a>
</g>
</g>
<!-- Node1&#45;&gt;Node2 -->
<g id="edge1" class="edge"><title>Node1&#45;&gt;Node2</title>
<path fill="none" stroke="midnightblue" d="M200.093,-10C208.959,-10 217.789,-10 226.282,-10"/>
<polygon fill="midnightblue" stroke="midnightblue" points="226.452,-13.5001 236.452,-10 226.452,-6.5001 226.452,-13.5001"/>
</g>
<!-- Node3 -->
<g id="node3" class="node"><title>Node3</title>
<g id="a_node3"><a xlink:href="../../da/d54/classproperties_1_1_position.html#a5dff002fabbc5e7be1a50f5eff9b2879" target="_top" xlink:title="properties.Position.getAngle">
<polygon fill="white" stroke="black" points="388,-0.5 388,-19.5 540,-19.5 540,-0.5 388,-0.5"/>
<text text-anchor="middle" x="464" y="-7.5" font-family="Helvetica,sans-Serif" font-size="10.00">properties.Position.getAngle</text>
</a>
</g>
</g>
<!-- Node2&#45;&gt;Node3 -->
<g id="edge2" class="edge"><title>Node2&#45;&gt;Node3</title>
<path fill="none" stroke="midnightblue" d="M351.877,-10C360.156,-10 368.828,-10 377.522,-10"/>
<polygon fill="midnightblue" stroke="midnightblue" points="377.715,-13.5001 387.715,-10 377.715,-6.5001 377.715,-13.5001"/>
</g>
</g>
</svg>
