<?xml version="1.0" encoding="UTF-8" standalone="no"?>
<!DOCTYPE svg PUBLIC "-//W3C//DTD SVG 1.1//EN"
 "http://www.w3.org/Graphics/SVG/1.1/DTD/svg11.dtd">
<!-- Generated by graphviz version 2.36.0 (20140111.2315)
 -->
<!-- Title: command.BaseMakeVariableCommand Pages: 1 -->
<svg width="168pt" height="152pt"
 viewBox="0.00 0.00 168.00 152.00" xmlns="http://www.w3.org/2000/svg" xmlns:xlink="http://www.w3.org/1999/xlink">
<g id="graph0" class="graph" transform="scale(1 1) rotate(0) translate(4 148)">
<title>command.BaseMakeVariableCommand</title>
<polygon fill="white" stroke="none" points="-4,4 -4,-148 164,-148 164,4 -4,4"/>
<!-- Node1 -->
<g id="node1" class="node"><title>Node1</title>
<polygon fill="#bfbfbf" stroke="black" points="2,-1 2,-31 158,-31 158,-1 2,-1"/>
<text text-anchor="start" x="10" y="-19" font-family="Helvetica,sans-Serif" font-size="10.00">command.BaseMakeVariable</text>
<text text-anchor="middle" x="80" y="-8" font-family="Helvetica,sans-Serif" font-size="10.00">Command</text>
</g>
<!-- Node2 -->
<g id="node2" class="node"><title>Node2</title>
<g id="a_node2"><a xlink:href="../../d7/d29/classcommand_1_1_basic_list_command.html" target="_top" xlink:title="command.BasicListCommand">
<polygon fill="white" stroke="black" points="-0.5,-68.5 -0.5,-87.5 160.5,-87.5 160.5,-68.5 -0.5,-68.5"/>
<text text-anchor="middle" x="80" y="-75.5" font-family="Helvetica,sans-Serif" font-size="10.00">command.BasicListCommand</text>
</a>
</g>
</g>
<!-- Node2&#45;&gt;Node1 -->
<g id="edge1" class="edge"><title>Node2&#45;&gt;Node1</title>
<path fill="none" stroke="midnightblue" d="M80,-58.3707C80,-49.5849 80,-39.2721 80,-31.1408"/>
<polygon fill="midnightblue" stroke="midnightblue" points="76.5001,-58.4034 80,-68.4035 83.5001,-58.4035 76.5001,-58.4034"/>
</g>
<!-- Node3 -->
<g id="node3" class="node"><title>Node3</title>
<g id="a_node3"><a xlink:href="../../d7/d35/classcommand_1_1_command.html" target="_top" xlink:title="command.Command">
<polygon fill="white" stroke="black" points="20.5,-124.5 20.5,-143.5 139.5,-143.5 139.5,-124.5 20.5,-124.5"/>
<text text-anchor="middle" x="80" y="-131.5" font-family="Helvetica,sans-Serif" font-size="10.00">command.Command</text>
</a>
</g>
</g>
<!-- Node3&#45;&gt;Node2 -->
<g id="edge2" class="edge"><title>Node3&#45;&gt;Node2</title>
<path fill="none" stroke="midnightblue" d="M80,-113.805C80,-104.91 80,-94.7798 80,-87.7511"/>
<polygon fill="midnightblue" stroke="midnightblue" points="76.5001,-114.083 80,-124.083 83.5001,-114.083 76.5001,-114.083"/>
</g>
</g>
</svg>
