<?xml version="1.0" encoding="UTF-8" standalone="no"?>
<!DOCTYPE svg PUBLIC "-//W3C//DTD SVG 1.1//EN"
 "http://www.w3.org/Graphics/SVG/1.1/DTD/svg11.dtd">
<!-- Generated by graphviz version 2.36.0 (20140111.2315)
 -->
<!-- Title: properties.TurtleProperties.TurtleProperties Pages: 1 -->
<svg width="316pt" height="180pt"
 viewBox="0.00 0.00 316.00 180.00" xmlns="http://www.w3.org/2000/svg" xmlns:xlink="http://www.w3.org/1999/xlink">
<g id="graph0" class="graph" transform="scale(1 1) rotate(0) translate(4 176)">
<title>properties.TurtleProperties.TurtleProperties</title>
<polygon fill="white" stroke="none" points="-4,4 -4,-176 312,-176 312,4 -4,4"/>
<!-- Node1 -->
<g id="node1" class="node"><title>Node1</title>
<polygon fill="#bfbfbf" stroke="black" points="0,-71 0,-101 146,-101 146,-71 0,-71"/>
<text text-anchor="start" x="8" y="-89" font-family="Helvetica,sans-Serif" font-size="10.00">properties.TurtleProperties.</text>
<text text-anchor="middle" x="73" y="-78" font-family="Helvetica,sans-Serif" font-size="10.00">TurtleProperties</text>
</g>
<!-- Node2 -->
<g id="node2" class="node"><title>Node2</title>
<g id="a_node2"><a xlink:href="../../d4/d4a/classactor_1_1_turtle.html#aeec77465f9668364231c328b9093a76c" target="_top" xlink:title="actor.Turtle.getID">
<polygon fill="white" stroke="black" points="196,-152.5 196,-171.5 294,-171.5 294,-152.5 196,-152.5"/>
<text text-anchor="middle" x="245" y="-159.5" font-family="Helvetica,sans-Serif" font-size="10.00">actor.Turtle.getID</text>
</a>
</g>
</g>
<!-- Node1&#45;&gt;Node2 -->
<g id="edge1" class="edge"><title>Node1&#45;&gt;Node2</title>
<path fill="none" stroke="midnightblue" d="M99.5268,-101.232C121.005,-113.615 152.8,-130.946 182,-143 187.467,-145.257 193.3,-147.387 199.12,-149.348"/>
<polygon fill="midnightblue" stroke="midnightblue" points="198.243,-152.743 208.835,-152.481 200.392,-146.081 198.243,-152.743"/>
</g>
<!-- Node3 -->
<g id="node3" class="node"><title>Node3</title>
<g id="a_node3"><a xlink:href="../../d4/d4a/classactor_1_1_turtle.html#ae431de4e8d24c665f1f49ea5bd77ca09" target="_top" xlink:title="actor.Turtle.getPen">
<polygon fill="white" stroke="black" points="192,-114.5 192,-133.5 298,-133.5 298,-114.5 192,-114.5"/>
<text text-anchor="middle" x="245" y="-121.5" font-family="Helvetica,sans-Serif" font-size="10.00">actor.Turtle.getPen</text>
</a>
</g>
</g>
<!-- Node1&#45;&gt;Node3 -->
<g id="edge2" class="edge"><title>Node1&#45;&gt;Node3</title>
<path fill="none" stroke="midnightblue" d="M141.189,-101.019C157.785,-104.728 175.331,-108.65 191.137,-112.184"/>
<polygon fill="midnightblue" stroke="midnightblue" points="190.723,-115.677 201.246,-114.443 192.25,-108.846 190.723,-115.677"/>
</g>
<!-- Node4 -->
<g id="node4" class="node"><title>Node4</title>
<g id="a_node4"><a xlink:href="../../d4/d4a/classactor_1_1_turtle.html#ab6166eee34863bdaa71b57814c365fe3" target="_top" xlink:title="actor.Turtle.getPosition">
<polygon fill="white" stroke="black" points="182.5,-76.5 182.5,-95.5 307.5,-95.5 307.5,-76.5 182.5,-76.5"/>
<text text-anchor="middle" x="245" y="-83.5" font-family="Helvetica,sans-Serif" font-size="10.00">actor.Turtle.getPosition</text>
</a>
</g>
</g>
<!-- Node1&#45;&gt;Node4 -->
<g id="edge3" class="edge"><title>Node1&#45;&gt;Node4</title>
<path fill="none" stroke="midnightblue" d="M146.095,-86C154.746,-86 163.579,-86 172.226,-86"/>
<polygon fill="midnightblue" stroke="midnightblue" points="172.267,-89.5001 182.267,-86 172.267,-82.5001 172.267,-89.5001"/>
</g>
<!-- Node5 -->
<g id="node5" class="node"><title>Node5</title>
<g id="a_node5"><a xlink:href="../../d4/d4a/classactor_1_1_turtle.html#a1bde4a1c1524a6e2bd1f2c05ffdd5732" target="_top" xlink:title="actor.Turtle.getShape">
<polygon fill="white" stroke="black" points="185.5,-38.5 185.5,-57.5 304.5,-57.5 304.5,-38.5 185.5,-38.5"/>
<text text-anchor="middle" x="245" y="-45.5" font-family="Helvetica,sans-Serif" font-size="10.00">actor.Turtle.getShape</text>
</a>
</g>
</g>
<!-- Node1&#45;&gt;Node5 -->
<g id="edge4" class="edge"><title>Node1&#45;&gt;Node5</title>
<path fill="none" stroke="midnightblue" d="M141.189,-70.9814C157.785,-67.2715 175.331,-63.3496 191.137,-59.8164"/>
<polygon fill="midnightblue" stroke="midnightblue" points="192.25,-63.1541 201.246,-57.5568 190.723,-56.3226 192.25,-63.1541"/>
</g>
<!-- Node6 -->
<g id="node6" class="node"><title>Node6</title>
<g id="a_node6"><a xlink:href="../../d4/d4a/classactor_1_1_turtle.html#a1295afe28e780a51dbe296868fbe6e0e" target="_top" xlink:title="actor.Turtle.isShowing">
<polygon fill="white" stroke="black" points="185.5,-0.5 185.5,-19.5 304.5,-19.5 304.5,-0.5 185.5,-0.5"/>
<text text-anchor="middle" x="245" y="-7.5" font-family="Helvetica,sans-Serif" font-size="10.00">actor.Turtle.isShowing</text>
</a>
</g>
</g>
<!-- Node1&#45;&gt;Node6 -->
<g id="edge5" class="edge"><title>Node1&#45;&gt;Node6</title>
<path fill="none" stroke="midnightblue" d="M99.5268,-70.768C121.005,-58.3855 152.8,-41.0537 182,-29 187.467,-26.7434 193.3,-24.6129 199.12,-22.6517"/>
<polygon fill="midnightblue" stroke="midnightblue" points="200.392,-25.9193 208.835,-19.5187 198.243,-19.2571 200.392,-25.9193"/>
</g>
</g>
</svg>
