<?xml version="1.0" encoding="UTF-8" standalone="no"?>
<!DOCTYPE svg PUBLIC "-//W3C//DTD SVG 1.1//EN"
 "http://www.w3.org/Graphics/SVG/1.1/DTD/svg11.dtd">
<!-- Generated by graphviz version 2.36.0 (20140111.2315)
 -->
<!-- Title: components.RightPane Pages: 1 -->
<svg width="351pt" height="154pt"
 viewBox="0.00 0.00 351.00 154.00" xmlns="http://www.w3.org/2000/svg" xmlns:xlink="http://www.w3.org/1999/xlink">
<g id="graph0" class="graph" transform="scale(1 1) rotate(0) translate(4 150)">
<title>components.RightPane</title>
<polygon fill="white" stroke="none" points="-4,4 -4,-150 347,-150 347,4 -4,4"/>
<!-- Node1 -->
<g id="node1" class="node"><title>Node1</title>
<polygon fill="#bfbfbf" stroke="black" points="183.5,-0.5 183.5,-19.5 310.5,-19.5 310.5,-0.5 183.5,-0.5"/>
<text text-anchor="middle" x="247" y="-7.5" font-family="Helvetica,sans-Serif" font-size="10.00">components.RightPane</text>
</g>
<!-- Node2 -->
<g id="node2" class="node"><title>Node2</title>
<g id="a_node2"><a xlink:href="../../db/d7f/classcomponents_1_1_info_pane.html" target="_top" xlink:title="components.InfoPane">
<polygon fill="white" stroke="black" points="107,-58.5 107,-77.5 227,-77.5 227,-58.5 107,-58.5"/>
<text text-anchor="middle" x="167" y="-65.5" font-family="Helvetica,sans-Serif" font-size="10.00">components.InfoPane</text>
</a>
</g>
</g>
<!-- Node2&#45;&gt;Node1 -->
<g id="edge1" class="edge"><title>Node2&#45;&gt;Node1</title>
<path fill="none" stroke="midnightblue" d="M187.722,-52.4949C202.632,-42.0575 222.24,-28.3321 234.735,-19.5852"/>
<polygon fill="midnightblue" stroke="midnightblue" points="185.335,-49.8928 179.15,-58.4948 189.35,-55.6275 185.335,-49.8928"/>
</g>
<!-- Node3 -->
<g id="node3" class="node"><title>Node3</title>
<polygon fill="white" stroke="#bfbfbf" points="0,-126.5 0,-145.5 60,-145.5 60,-126.5 0,-126.5"/>
<text text-anchor="middle" x="30" y="-133.5" font-family="Helvetica,sans-Serif" font-size="10.00">FlowPane</text>
</g>
<!-- Node3&#45;&gt;Node2 -->
<g id="edge2" class="edge"><title>Node3&#45;&gt;Node2</title>
<path fill="none" stroke="midnightblue" d="M57.271,-121.862C84.5428,-108.724 125.699,-88.8969 149.085,-77.6305"/>
<polygon fill="midnightblue" stroke="midnightblue" points="55.4004,-118.878 47.9104,-126.372 58.4385,-125.185 55.4004,-118.878"/>
</g>
<!-- Node4 -->
<g id="node4" class="node"><title>Node4</title>
<g id="a_node4"><a xlink:href="../../d2/dfc/interfacefeatures_1_1_feature.html" target="_top" xlink:title="features.Feature">
<polygon fill="white" stroke="black" points="248.5,-126.5 248.5,-145.5 343.5,-145.5 343.5,-126.5 248.5,-126.5"/>
<text text-anchor="middle" x="296" y="-133.5" font-family="Helvetica,sans-Serif" font-size="10.00">features.Feature</text>
</a>
</g>
</g>
<!-- Node4&#45;&gt;Node1 -->
<g id="edge5" class="edge"><title>Node4&#45;&gt;Node1</title>
<path fill="none" stroke="midnightblue" d="M288.902,-117.037C278.193,-89.9381 258.318,-39.641 250.392,-19.5827"/>
<polygon fill="midnightblue" stroke="midnightblue" points="285.702,-118.463 292.632,-126.477 292.212,-115.89 285.702,-118.463"/>
</g>
<!-- Node4&#45;&gt;Node2 -->
<g id="edge3" class="edge"><title>Node4&#45;&gt;Node2</title>
<path fill="none" stroke="midnightblue" d="M269.983,-121.689C244.303,-108.55 205.793,-88.8475 183.869,-77.6305"/>
<polygon fill="midnightblue" stroke="midnightblue" points="268.639,-124.933 279.136,-126.372 271.827,-118.701 268.639,-124.933"/>
</g>
<!-- Node5 -->
<g id="node5" class="node"><title>Node5</title>
<polygon fill="white" stroke="#bfbfbf" points="78,-126.5 78,-145.5 230,-145.5 230,-126.5 78,-126.5"/>
<text text-anchor="middle" x="154" y="-133.5" font-family="Helvetica,sans-Serif" font-size="10.00">List&lt; components.InfoTab &gt;</text>
</g>
<!-- Node5&#45;&gt;Node2 -->
<g id="edge4" class="edge"><title>Node5&#45;&gt;Node2</title>
<path fill="none" stroke="#9a32cd" stroke-dasharray="5,2" d="M157.659,-116.425C160.146,-103.798 163.324,-87.6623 165.259,-77.8411"/>
<polygon fill="#9a32cd" stroke="#9a32cd" points="154.198,-115.884 155.7,-126.372 161.066,-117.237 154.198,-115.884"/>
<text text-anchor="middle" x="182" y="-99.5" font-family="Helvetica,sans-Serif" font-size="10.00"> myTabs</text>
</g>
</g>
</svg>
