<?xml version="1.0" encoding="UTF-8" standalone="no"?>
<!DOCTYPE svg PUBLIC "-//W3C//DTD SVG 1.1//EN"
 "http://www.w3.org/Graphics/SVG/1.1/DTD/svg11.dtd">
<!-- Generated by graphviz version 2.36.0 (20140111.2315)
 -->
<!-- Title: command.ClearScreenCommand.execute Pages: 1 -->
<svg width="852pt" height="136pt"
 viewBox="0.00 0.00 852.00 136.00" xmlns="http://www.w3.org/2000/svg" xmlns:xlink="http://www.w3.org/1999/xlink">
<g id="graph0" class="graph" transform="scale(1 1) rotate(0) translate(4 132)">
<title>command.ClearScreenCommand.execute</title>
<polygon fill="white" stroke="none" points="-4,4 -4,-132 848,-132 848,4 -4,4"/>
<!-- Node1 -->
<g id="node1" class="node"><title>Node1</title>
<polygon fill="#bfbfbf" stroke="black" points="0,-35.5 0,-54.5 218,-54.5 218,-35.5 0,-35.5"/>
<text text-anchor="middle" x="109" y="-42.5" font-family="Helvetica,sans-Serif" font-size="10.00">command.ClearScreenCommand.execute</text>
</g>
<!-- Node2 -->
<g id="node2" class="node"><title>Node2</title>
<g id="a_node2"><a xlink:href="../../de/d19/classworkspace_1_1_workspace.html#a645b162e34e52069e1a18fa5c57daa41" target="_top" xlink:title="workspace.Workspace.clear">
<polygon fill="white" stroke="black" points="265.5,-54.5 265.5,-73.5 412.5,-73.5 412.5,-54.5 265.5,-54.5"/>
<text text-anchor="middle" x="339" y="-61.5" font-family="Helvetica,sans-Serif" font-size="10.00">workspace.Workspace.clear</text>
</a>
</g>
</g>
<!-- Node1&#45;&gt;Node2 -->
<g id="edge1" class="edge"><title>Node1&#45;&gt;Node2</title>
<path fill="none" stroke="midnightblue" d="M218.324,-54.027C230.802,-55.0668 243.37,-56.1141 255.429,-57.1191"/>
<polygon fill="midnightblue" stroke="midnightblue" points="255.169,-60.6095 265.425,-57.9521 255.751,-53.6337 255.169,-60.6095"/>
</g>
<!-- Node7 -->
<g id="node7" class="node"><title>Node7</title>
<g id="a_node7"><a xlink:href="../../de/d19/classworkspace_1_1_workspace.html#aaea1cb2eb261be3e966bb85bc2bfbd51" target="_top" xlink:title="workspace.Workspace.getTurtles">
<polygon fill="white" stroke="black" points="254,-16.5 254,-35.5 424,-35.5 424,-16.5 254,-16.5"/>
<text text-anchor="middle" x="339" y="-23.5" font-family="Helvetica,sans-Serif" font-size="10.00">workspace.Workspace.getTurtles</text>
</a>
</g>
</g>
<!-- Node1&#45;&gt;Node7 -->
<g id="edge6" class="edge"><title>Node1&#45;&gt;Node7</title>
<path fill="none" stroke="midnightblue" d="M218.324,-35.973C226.82,-35.265 235.357,-34.5536 243.747,-33.8544"/>
<polygon fill="midnightblue" stroke="midnightblue" points="244.221,-37.3272 253.896,-33.0087 243.639,-30.3513 244.221,-37.3272"/>
</g>
<!-- Node3 -->
<g id="node3" class="node"><title>Node3</title>
<g id="a_node3"><a xlink:href="../../de/d1c/classproperties_1_1_stage_properties.html#a872541d70d9ae0b1a8d1c8cb909c34f8" target="_top" xlink:title="properties.StageProperties.set\lClear">
<polygon fill="white" stroke="black" points="478,-98 478,-128 642,-128 642,-98 478,-98"/>
<text text-anchor="start" x="486" y="-116" font-family="Helvetica,sans-Serif" font-size="10.00">properties.StageProperties.set</text>
<text text-anchor="middle" x="560" y="-105" font-family="Helvetica,sans-Serif" font-size="10.00">Clear</text>
</a>
</g>
</g>
<!-- Node2&#45;&gt;Node3 -->
<g id="edge2" class="edge"><title>Node2&#45;&gt;Node3</title>
<path fill="none" stroke="midnightblue" d="M382.485,-73.5058C410.554,-79.786 448.168,-88.2021 481.462,-95.6513"/>
<polygon fill="midnightblue" stroke="midnightblue" points="481.118,-99.1607 491.641,-97.9287 482.646,-92.3296 481.118,-99.1607"/>
</g>
<!-- Node4 -->
<g id="node4" class="node"><title>Node4</title>
<g id="a_node4"><a xlink:href="../../de/d19/classworkspace_1_1_workspace.html#a197988cb471cd86b0a164f735a366be7" target="_top" xlink:title="workspace.Workspace.setChangedand\lNotify">
<polygon fill="white" stroke="black" points="460,-49 460,-79 660,-79 660,-49 460,-49"/>
<text text-anchor="start" x="468" y="-67" font-family="Helvetica,sans-Serif" font-size="10.00">workspace.Workspace.setChangedand</text>
<text text-anchor="middle" x="560" y="-56" font-family="Helvetica,sans-Serif" font-size="10.00">Notify</text>
</a>
</g>
</g>
<!-- Node2&#45;&gt;Node4 -->
<g id="edge3" class="edge"><title>Node2&#45;&gt;Node4</title>
<path fill="none" stroke="midnightblue" d="M412.62,-64C424.507,-64 437.052,-64 449.594,-64"/>
<polygon fill="midnightblue" stroke="midnightblue" points="449.641,-67.5001 459.641,-64 449.641,-60.5001 449.641,-67.5001"/>
</g>
<!-- Node5 -->
<g id="node5" class="node"><title>Node5</title>
<g id="a_node5"><a xlink:href="../../de/d19/classworkspace_1_1_workspace.html#aecaf73d3c2b2008aac032adc4a4f759f" target="_top" xlink:title="workspace.Workspace.create\lTurtle">
<polygon fill="white" stroke="black" points="482.5,-0 482.5,-30 637.5,-30 637.5,-0 482.5,-0"/>
<text text-anchor="start" x="490.5" y="-18" font-family="Helvetica,sans-Serif" font-size="10.00">workspace.Workspace.create</text>
<text text-anchor="middle" x="560" y="-7" font-family="Helvetica,sans-Serif" font-size="10.00">Turtle</text>
</a>
</g>
</g>
<!-- Node2&#45;&gt;Node5 -->
<g id="edge4" class="edge"><title>Node2&#45;&gt;Node5</title>
<path fill="none" stroke="midnightblue" d="M382.485,-54.4942C410.554,-48.214 448.168,-39.7979 481.462,-32.3487"/>
<polygon fill="midnightblue" stroke="midnightblue" points="482.646,-35.6704 491.641,-30.0713 481.118,-28.8393 482.646,-35.6704"/>
</g>
<!-- Node6 -->
<g id="node6" class="node"><title>Node6</title>
<g id="a_node6"><a xlink:href="../../d4/d4a/classactor_1_1_turtle.html#aef4e04d5061408a3d5c35eb27cc7f96f" target="_top" xlink:title="actor.Turtle.setChangedand\lNotify">
<polygon fill="white" stroke="black" points="696,-0 696,-30 844,-30 844,-0 696,-0"/>
<text text-anchor="start" x="704" y="-18" font-family="Helvetica,sans-Serif" font-size="10.00">actor.Turtle.setChangedand</text>
<text text-anchor="middle" x="770" y="-7" font-family="Helvetica,sans-Serif" font-size="10.00">Notify</text>
</a>
</g>
</g>
<!-- Node5&#45;&gt;Node6 -->
<g id="edge5" class="edge"><title>Node5&#45;&gt;Node6</title>
<path fill="none" stroke="midnightblue" d="M637.565,-15C653.149,-15 669.617,-15 685.43,-15"/>
<polygon fill="midnightblue" stroke="midnightblue" points="685.71,-18.5001 695.71,-15 685.71,-11.5001 685.71,-18.5001"/>
</g>
</g>
</svg>
