<?xml version="1.0" encoding="UTF-8" standalone="no"?>
<!DOCTYPE svg PUBLIC "-//W3C//DTD SVG 1.1//EN"
 "http://www.w3.org/Graphics/SVG/1.1/DTD/svg11.dtd">
<!-- Generated by graphviz version 2.36.0 (20140111.2315)
 -->
<!-- Title: components.RightPane Pages: 1 -->
<svg width="203pt" height="140pt"
 viewBox="0.00 0.00 203.00 140.00" xmlns="http://www.w3.org/2000/svg" xmlns:xlink="http://www.w3.org/1999/xlink">
<g id="graph0" class="graph" transform="scale(1 1) rotate(0) translate(4 136)">
<title>components.RightPane</title>
<polygon fill="white" stroke="none" points="-4,4 -4,-136 199,-136 199,4 -4,4"/>
<!-- Node1 -->
<g id="node1" class="node"><title>Node1</title>
<polygon fill="#bfbfbf" stroke="black" points="40.5,-0.5 40.5,-19.5 167.5,-19.5 167.5,-0.5 40.5,-0.5"/>
<text text-anchor="middle" x="104" y="-7.5" font-family="Helvetica,sans-Serif" font-size="10.00">components.RightPane</text>
</g>
<!-- Node2 -->
<g id="node2" class="node"><title>Node2</title>
<g id="a_node2"><a xlink:href="../../db/d7f/classcomponents_1_1_info_pane.html" target="_top" xlink:title="components.InfoPane">
<polygon fill="white" stroke="black" points="0,-56.5 0,-75.5 120,-75.5 120,-56.5 0,-56.5"/>
<text text-anchor="middle" x="60" y="-63.5" font-family="Helvetica,sans-Serif" font-size="10.00">components.InfoPane</text>
</a>
</g>
</g>
<!-- Node2&#45;&gt;Node1 -->
<g id="edge1" class="edge"><title>Node2&#45;&gt;Node1</title>
<path fill="none" stroke="midnightblue" d="M73.7345,-48.144C81.4005,-38.7357 90.6333,-27.4046 96.8695,-19.7511"/>
<polygon fill="midnightblue" stroke="midnightblue" points="70.8691,-46.1198 67.2657,-56.083 76.2958,-50.5415 70.8691,-46.1198"/>
</g>
<!-- Node3 -->
<g id="node3" class="node"><title>Node3</title>
<polygon fill="white" stroke="#bfbfbf" points="22,-112.5 22,-131.5 82,-131.5 82,-112.5 22,-112.5"/>
<text text-anchor="middle" x="52" y="-119.5" font-family="Helvetica,sans-Serif" font-size="10.00">FlowPane</text>
</g>
<!-- Node3&#45;&gt;Node2 -->
<g id="edge2" class="edge"><title>Node3&#45;&gt;Node2</title>
<path fill="none" stroke="midnightblue" d="M54.7999,-102.101C56.128,-93.1357 57.6507,-82.8579 58.7035,-75.7511"/>
<polygon fill="midnightblue" stroke="midnightblue" points="51.3244,-101.678 53.321,-112.083 58.2488,-102.704 51.3244,-101.678"/>
</g>
<!-- Node4 -->
<g id="node4" class="node"><title>Node4</title>
<g id="a_node4"><a xlink:href="../../d2/dfc/interfacefeatures_1_1_feature.html" target="_top" xlink:title="features.Feature">
<polygon fill="white" stroke="black" points="100.5,-112.5 100.5,-131.5 195.5,-131.5 195.5,-112.5 100.5,-112.5"/>
<text text-anchor="middle" x="148" y="-119.5" font-family="Helvetica,sans-Serif" font-size="10.00">features.Feature</text>
</a>
</g>
</g>
<!-- Node4&#45;&gt;Node1 -->
<g id="edge4" class="edge"><title>Node4&#45;&gt;Node1</title>
<path fill="none" stroke="midnightblue" d="M143.361,-102.634C139.783,-89.4314 134.377,-71.3298 128,-56 122.559,-42.92 114.544,-28.6119 109.298,-19.7202"/>
<polygon fill="midnightblue" stroke="midnightblue" points="139.999,-103.615 145.917,-112.403 146.771,-101.843 139.999,-103.615"/>
</g>
<!-- Node4&#45;&gt;Node2 -->
<g id="edge3" class="edge"><title>Node4&#45;&gt;Node2</title>
<path fill="none" stroke="midnightblue" d="M125.023,-106.901C108.887,-96.9986 87.8187,-84.0705 74.1036,-75.6545"/>
<polygon fill="midnightblue" stroke="midnightblue" points="123.507,-110.077 133.861,-112.324 127.169,-104.111 123.507,-110.077"/>
</g>
</g>
</svg>
