<?xml version="1.0" encoding="UTF-8" standalone="no"?>
<!DOCTYPE svg PUBLIC "-//W3C//DTD SVG 1.1//EN"
 "http://www.w3.org/Graphics/SVG/1.1/DTD/svg11.dtd">
<!-- Generated by graphviz version 2.36.0 (20140111.2315)
 -->
<!-- Title: command.RepeatCommand.execute Pages: 1 -->
<svg width="650pt" height="136pt"
 viewBox="0.00 0.00 650.00 136.00" xmlns="http://www.w3.org/2000/svg" xmlns:xlink="http://www.w3.org/1999/xlink">
<g id="graph0" class="graph" transform="scale(1 1) rotate(0) translate(4 132)">
<title>command.RepeatCommand.execute</title>
<polygon fill="white" stroke="none" points="-4,4 -4,-132 646,-132 646,4 -4,4"/>
<!-- Node1 -->
<g id="node1" class="node"><title>Node1</title>
<polygon fill="#bfbfbf" stroke="black" points="0.5,-54.5 0.5,-73.5 193.5,-73.5 193.5,-54.5 0.5,-54.5"/>
<text text-anchor="middle" x="97" y="-61.5" font-family="Helvetica,sans-Serif" font-size="10.00">command.RepeatCommand.execute</text>
</g>
<!-- Node2 -->
<g id="node2" class="node"><title>Node2</title>
<g id="a_node2"><a xlink:href="../../d7/d29/classcommand_1_1_basic_list_command.html#ae4c4456d483b7dd5f6e88dfb7dace4c1" target="_top" xlink:title="command.BasicListCommand.check\lListException">
<polygon fill="white" stroke="black" points="230.5,-98 230.5,-128 421.5,-128 421.5,-98 230.5,-98"/>
<text text-anchor="start" x="238.5" y="-116" font-family="Helvetica,sans-Serif" font-size="10.00">command.BasicListCommand.check</text>
<text text-anchor="middle" x="326" y="-105" font-family="Helvetica,sans-Serif" font-size="10.00">ListException</text>
</a>
</g>
</g>
<!-- Node1&#45;&gt;Node2 -->
<g id="edge1" class="edge"><title>Node1&#45;&gt;Node2</title>
<path fill="none" stroke="midnightblue" d="M142.037,-73.5058C171.257,-79.8131 210.456,-88.2747 245.076,-95.7476"/>
<polygon fill="midnightblue" stroke="midnightblue" points="244.667,-99.2399 255.18,-97.9287 246.144,-92.3974 244.667,-99.2399"/>
</g>
<!-- Node4 -->
<g id="node4" class="node"><title>Node4</title>
<g id="a_node4"><a xlink:href="../../d7/d29/classcommand_1_1_basic_list_command.html#a36b32271a84890af875a576eaf608aa3" target="_top" xlink:title="command.BasicListCommand.get\lBracketIndex">
<polygon fill="white" stroke="black" points="236.5,-49 236.5,-79 415.5,-79 415.5,-49 236.5,-49"/>
<text text-anchor="start" x="244.5" y="-67" font-family="Helvetica,sans-Serif" font-size="10.00">command.BasicListCommand.get</text>
<text text-anchor="middle" x="326" y="-56" font-family="Helvetica,sans-Serif" font-size="10.00">BracketIndex</text>
</a>
</g>
</g>
<!-- Node1&#45;&gt;Node4 -->
<g id="edge3" class="edge"><title>Node1&#45;&gt;Node4</title>
<path fill="none" stroke="midnightblue" d="M193.611,-64C204.354,-64 215.316,-64 226.1,-64"/>
<polygon fill="midnightblue" stroke="midnightblue" points="226.371,-67.5001 236.371,-64 226.371,-60.5001 226.371,-67.5001"/>
</g>
<!-- Node5 -->
<g id="node5" class="node"><title>Node5</title>
<g id="a_node5"><a xlink:href="../../dd/d2f/classcommand_1_1_base_make_variable_command.html#af8d8e775391c0724b7a80ceb1bae6639" target="_top" xlink:title="command.BaseMakeVariable\lCommand.makeVariable">
<polygon fill="white" stroke="black" points="248,-0 248,-30 404,-30 404,-0 248,-0"/>
<text text-anchor="start" x="256" y="-18" font-family="Helvetica,sans-Serif" font-size="10.00">command.BaseMakeVariable</text>
<text text-anchor="middle" x="326" y="-7" font-family="Helvetica,sans-Serif" font-size="10.00">Command.makeVariable</text>
</a>
</g>
</g>
<!-- Node1&#45;&gt;Node5 -->
<g id="edge4" class="edge"><title>Node1&#45;&gt;Node5</title>
<path fill="none" stroke="midnightblue" d="M142.037,-54.4942C171.257,-48.1869 210.456,-39.7253 245.076,-32.2524"/>
<polygon fill="midnightblue" stroke="midnightblue" points="246.144,-35.6026 255.18,-30.0713 244.667,-28.7601 246.144,-35.6026"/>
</g>
<!-- Node3 -->
<g id="node3" class="node"><title>Node3</title>
<g id="a_node3"><a xlink:href="../../d7/d35/classcommand_1_1_command.html#ac2df873d4926bc6e08dba8c6272cff7e" target="_top" xlink:title="command.Command.toString">
<polygon fill="white" stroke="black" points="470,-103.5 470,-122.5 630,-122.5 630,-103.5 470,-103.5"/>
<text text-anchor="middle" x="550" y="-110.5" font-family="Helvetica,sans-Serif" font-size="10.00">command.Command.toString</text>
</a>
</g>
</g>
<!-- Node2&#45;&gt;Node3 -->
<g id="edge2" class="edge"><title>Node2&#45;&gt;Node3</title>
<path fill="none" stroke="midnightblue" d="M421.792,-113C434.313,-113 447.116,-113 459.544,-113"/>
<polygon fill="midnightblue" stroke="midnightblue" points="459.881,-116.5 469.881,-113 459.881,-109.5 459.881,-116.5"/>
</g>
<!-- Node6 -->
<g id="node6" class="node"><title>Node6</title>
<g id="a_node6"><a xlink:href="../../de/d19/classworkspace_1_1_workspace.html#a85d7692f63e805af8424da4116f233fa" target="_top" xlink:title="workspace.Workspace.getVariables">
<polygon fill="white" stroke="black" points="458.5,-5.5 458.5,-24.5 641.5,-24.5 641.5,-5.5 458.5,-5.5"/>
<text text-anchor="middle" x="550" y="-12.5" font-family="Helvetica,sans-Serif" font-size="10.00">workspace.Workspace.getVariables</text>
</a>
</g>
</g>
<!-- Node5&#45;&gt;Node6 -->
<g id="edge5" class="edge"><title>Node5&#45;&gt;Node6</title>
<path fill="none" stroke="midnightblue" d="M404.022,-15C418.267,-15 433.338,-15 448.166,-15"/>
<polygon fill="midnightblue" stroke="midnightblue" points="448.379,-18.5001 458.379,-15 448.379,-11.5001 448.379,-18.5001"/>
</g>
</g>
</svg>
