<?xml version="1.0" encoding="UTF-8" standalone="no"?>
<!DOCTYPE svg PUBLIC "-//W3C//DTD SVG 1.1//EN"
 "http://www.w3.org/Graphics/SVG/1.1/DTD/svg11.dtd">
<!-- Generated by graphviz version 2.36.0 (20140111.2315)
 -->
<!-- Title: features.RunButtonFeature Pages: 1 -->
<!--zoomable 769 -->
<svg id="main" version="1.1" xmlns="http://www.w3.org/2000/svg" xmlns:xlink="http://www.w3.org/1999/xlink" xml:space="preserve" onload="init(evt)">
<style type="text/css"><![CDATA[
.edge:hover path { stroke: red; }
.edge:hover polygon { stroke: red; fill: red; }
]]></style>
<script type="text/javascript"><![CDATA[
var edges = document.getElementsByTagName('g');
if (edges && edges.length) {
  for (var i=0;i<edges.length;i++) {
    if (edges[i].id.substr(0,4)=='edge') {
      edges[i].setAttribute('class','edge');
    }
  }
}
]]></script>
        <defs>
                <circle id="rim" cx="0" cy="0" r="7"/>
                <circle id="rim2" cx="0" cy="0" r="3.5"/>
                <g id="zoomPlus">
                        <use xlink:href="#rim" fill="#404040">
                                <set attributeName="fill" to="#808080" begin="zoomplus.mouseover" end="zoomplus.mouseout"/>
                        </use>
                        <path d="M-4,0h8M0,-4v8" fill="none" stroke="white" stroke-width="1.5" pointer-events="none"/>
                </g>
                <g id="zoomMin">
                        <use xlink:href="#rim" fill="#404040">
                                <set attributeName="fill" to="#808080" begin="zoomminus.mouseover" end="zoomminus.mouseout"/>
                        </use>
                        <path d="M-4,0h8" fill="none" stroke="white" stroke-width="1.5" pointer-events="none"/>
                </g>
                <g id="dirArrow">
                        <path fill="none" stroke="white" stroke-width="1.5" d="M0,-3.0v7 M-2.5,-0.5L0,-3.0L2.5,-0.5"/>
                </g>
               <g id="resetDef">
                       <use xlink:href="#rim2" fill="#404040">
                               <set attributeName="fill" to="#808080" begin="reset.mouseover" end="reset.mouseout"/>
                       </use>
               </g>
        </defs>

<script type="text/javascript">
var viewWidth = 990;
var viewHeight = 769;
var sectionId = 'dynsection-1';
</script>
<script xlink:href="../../svgpan.js"/>
<svg id="graph" class="graph">
<g id="viewport">
<title>features.RunButtonFeature</title>
<polygon fill="white" stroke="none" points="-4,4 -4,-765 986,-765 986,4 -4,4"/>
<!-- Node1 -->
<g id="node1" class="node"><title>Node1</title>
<polygon fill="#bfbfbf" stroke="black" points="836.5,-593.5 836.5,-612.5 981.5,-612.5 981.5,-593.5 836.5,-593.5"/>
<text text-anchor="middle" x="909" y="-600.5" font-family="Helvetica,sans-Serif" font-size="10.00">features.RunButtonFeature</text>
</g>
<!-- Node2 -->
<g id="node2" class="node"><title>Node2</title>
<polygon fill="white" stroke="#bfbfbf" points="635.5,-698.5 635.5,-717.5 684.5,-717.5 684.5,-698.5 635.5,-698.5"/>
<text text-anchor="middle" x="660" y="-705.5" font-family="Helvetica,sans-Serif" font-size="10.00">Button</text>
</g>
<!-- Node2&#45;&gt;Node1 -->
<g id="edge1" class="edge"><title>Node2&#45;&gt;Node1</title>
<path fill="none" stroke="midnightblue" d="M694.722,-713.346C727.76,-717.003 778.727,-718.339 818,-700 859.214,-680.755 890.513,-633.254 902.581,-612.718"/>
<polygon fill="midnightblue" stroke="midnightblue" points="695.017,-709.856 684.663,-712.099 694.156,-716.802 695.017,-709.856"/>
</g>
<!-- Node2&#45;&gt;Node1 -->
<g id="edge17" class="edge"><title>Node2&#45;&gt;Node1</title>
<path fill="none" stroke="#9a32cd" stroke-dasharray="5,2" d="M694.552,-701.197C727.06,-693.913 777.282,-680.805 818,-662 847.853,-648.213 879.197,-625.497 895.872,-612.645"/>
<polygon fill="#9a32cd" stroke="#9a32cd" points="693.678,-697.806 684.654,-703.358 695.17,-704.645 693.678,-697.806"/>
<text text-anchor="middle" x="785" y="-688" font-family="Helvetica,sans-Serif" font-size="10.00"> myButton</text>
</g>
<!-- Node3 -->
<g id="node3" class="node"><title>Node3</title>
<g id="a_node3"><a xlink:href="../../d2/dfc/interfacefeatures_1_1_feature.html" target="_top" xlink:title="features.Feature">
<polygon fill="white" stroke="black" points="35.5,-615.5 35.5,-634.5 130.5,-634.5 130.5,-615.5 35.5,-615.5"/>
<text text-anchor="middle" x="83" y="-622.5" font-family="Helvetica,sans-Serif" font-size="10.00">features.Feature</text>
</a>
</g>
</g>
<!-- Node3&#45;&gt;Node1 -->
<g id="edge2" class="edge"><title>Node3&#45;&gt;Node1</title>
<path fill="none" stroke="midnightblue" d="M140.654,-622.707C154.81,-622.142 169.959,-621.543 184,-621 362.658,-614.094 407.258,-610.167 586,-606 672.071,-603.994 771.112,-603.316 836.372,-603.094"/>
<polygon fill="midnightblue" stroke="midnightblue" points="140.403,-619.214 130.552,-623.112 140.684,-626.209 140.403,-619.214"/>
</g>
<!-- Node18 -->
<g id="node18" class="node"><title>Node18</title>
<g id="a_node18"><a xlink:href="../../d5/d01/classcomponents_1_1_right_pane.html" target="_top" xlink:title="components.RightPane">
<polygon fill="white" stroke="black" points="596.5,-615.5 596.5,-634.5 723.5,-634.5 723.5,-615.5 596.5,-615.5"/>
<text text-anchor="middle" x="660" y="-622.5" font-family="Helvetica,sans-Serif" font-size="10.00">components.RightPane</text>
</a>
</g>
</g>
<!-- Node3&#45;&gt;Node18 -->
<g id="edge23" class="edge"><title>Node3&#45;&gt;Node18</title>
<path fill="none" stroke="midnightblue" d="M140.617,-625C248.641,-625 483.42,-625 596.137,-625"/>
<polygon fill="midnightblue" stroke="midnightblue" points="140.568,-621.5 130.568,-625 140.568,-628.5 140.568,-621.5"/>
</g>
<!-- Node19 -->
<g id="node19" class="node"><title>Node19</title>
<g id="a_node19"><a xlink:href="../../db/d7f/classcomponents_1_1_info_pane.html" target="_top" xlink:title="components.InfoPane">
<polygon fill="white" stroke="black" points="321,-703.5 321,-722.5 441,-722.5 441,-703.5 321,-703.5"/>
<text text-anchor="middle" x="381" y="-710.5" font-family="Helvetica,sans-Serif" font-size="10.00">components.InfoPane</text>
</a>
</g>
</g>
<!-- Node3&#45;&gt;Node19 -->
<g id="edge21" class="edge"><title>Node3&#45;&gt;Node19</title>
<path fill="none" stroke="midnightblue" d="M109.024,-639.531C128.796,-650.447 157.4,-665.007 184,-674 228.7,-689.112 281.222,-699.174 320.641,-705.287"/>
<polygon fill="midnightblue" stroke="midnightblue" points="110.507,-636.35 100.074,-634.505 107.079,-642.454 110.507,-636.35"/>
</g>
<!-- Node22 -->
<g id="node22" class="node"><title>Node22</title>
<g id="a_node22"><a xlink:href="../../da/d5b/classcomponents_1_1_center_pane.html" target="_top" xlink:title="components.CenterPane">
<polygon fill="white" stroke="black" points="313.5,-377.5 313.5,-396.5 448.5,-396.5 448.5,-377.5 313.5,-377.5"/>
<text text-anchor="middle" x="381" y="-384.5" font-family="Helvetica,sans-Serif" font-size="10.00">components.CenterPane</text>
</a>
</g>
</g>
<!-- Node3&#45;&gt;Node22 -->
<g id="edge26" class="edge"><title>Node3&#45;&gt;Node22</title>
<path fill="none" stroke="midnightblue" d="M109.378,-610.466C129.294,-599.391 157.919,-584.19 184,-573 225.462,-555.21 250.799,-574.392 280,-540 310.929,-503.574 270.654,-473.187 298,-434 310.583,-415.969 332.46,-403.936 350.454,-396.563"/>
<polygon fill="midnightblue" stroke="midnightblue" points="107.622,-607.438 100.616,-615.386 111.049,-613.542 107.622,-607.438"/>
</g>
<!-- Node32 -->
<g id="node32" class="node"><title>Node32</title>
<g id="a_node32"><a xlink:href="../../db/d9a/classcomponents_1_1_left_pane.html" target="_top" xlink:title="components.LeftPane">
<polygon fill="white" stroke="black" points="599.5,-653.5 599.5,-672.5 720.5,-672.5 720.5,-653.5 599.5,-653.5"/>
<text text-anchor="middle" x="660" y="-660.5" font-family="Helvetica,sans-Serif" font-size="10.00">components.LeftPane</text>
</a>
</g>
</g>
<!-- Node3&#45;&gt;Node32 -->
<g id="edge40" class="edge"><title>Node3&#45;&gt;Node32</title>
<path fill="none" stroke="midnightblue" d="M140.763,-633.837C154.862,-635.786 169.957,-637.665 184,-639 332.987,-653.165 509.112,-659.303 599.263,-661.679"/>
<polygon fill="midnightblue" stroke="midnightblue" points="141.095,-630.349 130.703,-632.412 140.113,-637.28 141.095,-630.349"/>
</g>
<!-- Node4 -->
<g id="node4" class="node"><title>Node4</title>
<g id="a_node4"><a xlink:href="../../d7/da1/classmain_application_1_1_controller.html" target="_top" xlink:title="mainApplication.Controller">
<polygon fill="white" stroke="black" points="588.5,-227.5 588.5,-246.5 731.5,-246.5 731.5,-227.5 588.5,-227.5"/>
<text text-anchor="middle" x="660" y="-234.5" font-family="Helvetica,sans-Serif" font-size="10.00">mainApplication.Controller</text>
</a>
</g>
</g>
<!-- Node4&#45;&gt;Node1 -->
<g id="edge3" class="edge"><title>Node4&#45;&gt;Node1</title>
<path fill="none" stroke="#9a32cd" stroke-dasharray="5,2" d="M699.783,-250.245C735.329,-264.275 787.002,-289.738 818,-328 887.569,-413.873 904.033,-555.246 907.288,-593.309"/>
<polygon fill="#9a32cd" stroke="#9a32cd" points="700.806,-246.889 690.215,-246.59 698.308,-253.429 700.806,-246.889"/>
<text text-anchor="middle" x="785" y="-331" font-family="Helvetica,sans-Serif" font-size="10.00"> myController</text>
</g>
<!-- Node5 -->
<g id="node5" class="node"><title>Node5</title>
<g id="a_node5"><a xlink:href="../../d6/d95/classparser_1_1_parser.html" target="_top" xlink:title="parser.Parser">
<polygon fill="white" stroke="black" points="341,-38.5 341,-57.5 421,-57.5 421,-38.5 341,-38.5"/>
<text text-anchor="middle" x="381" y="-45.5" font-family="Helvetica,sans-Serif" font-size="10.00">parser.Parser</text>
</a>
</g>
</g>
<!-- Node5&#45;&gt;Node4 -->
<g id="edge4" class="edge"><title>Node5&#45;&gt;Node4</title>
<path fill="none" stroke="#9a32cd" stroke-dasharray="5,2" d="M404.49,-63.3453C459.56,-100.92 599.94,-196.703 644.911,-227.387"/>
<polygon fill="#9a32cd" stroke="#9a32cd" points="406.35,-60.3774 396.117,-57.6324 402.405,-66.1597 406.35,-60.3774"/>
<text text-anchor="middle" x="525" y="-174" font-family="Helvetica,sans-Serif" font-size="10.00"> myParser</text>
</g>
<!-- Node6 -->
<g id="node6" class="node"><title>Node6</title>
<polygon fill="white" stroke="#bfbfbf" points="36.5,-38.5 36.5,-57.5 129.5,-57.5 129.5,-38.5 36.5,-38.5"/>
<text text-anchor="middle" x="83" y="-45.5" font-family="Helvetica,sans-Serif" font-size="10.00">ResourceBundle</text>
</g>
<!-- Node6&#45;&gt;Node5 -->
<g id="edge5" class="edge"><title>Node6&#45;&gt;Node5</title>
<path fill="none" stroke="#9a32cd" stroke-dasharray="5,2" d="M139.818,-48C198.557,-48 289.484,-48 340.967,-48"/>
<polygon fill="#9a32cd" stroke="#9a32cd" points="139.601,-44.5001 129.601,-48 139.601,-51.5001 139.601,-44.5001"/>
<text text-anchor="middle" x="232" y="-62" font-family="Helvetica,sans-Serif" font-size="10.00"> myCommands</text>
<text text-anchor="middle" x="232" y="-51" font-family="Helvetica,sans-Serif" font-size="10.00">myLanguage</text>
</g>
<!-- Node7 -->
<g id="node7" class="node"><title>Node7</title>
<polygon fill="white" stroke="#bfbfbf" points="26,-0.5 26,-19.5 140,-19.5 140,-0.5 26,-0.5"/>
<text text-anchor="middle" x="83" y="-7.5" font-family="Helvetica,sans-Serif" font-size="10.00">List&lt; parser.Node &gt;</text>
</g>
<!-- Node7&#45;&gt;Node5 -->
<g id="edge6" class="edge"><title>Node7&#45;&gt;Node5</title>
<path fill="none" stroke="#9a32cd" stroke-dasharray="5,2" d="M150.656,-17.285C188.605,-21.567 237.008,-27.2546 280,-33 300.011,-35.6742 322.223,-38.9728 340.62,-41.7951"/>
<polygon fill="#9a32cd" stroke="#9a32cd" points="150.571,-13.7536 140.243,-16.1157 149.79,-20.7099 150.571,-13.7536"/>
<text text-anchor="middle" x="232" y="-36" font-family="Helvetica,sans-Serif" font-size="10.00"> myTreeHeads</text>
</g>
<!-- Node8 -->
<g id="node8" class="node"><title>Node8</title>
<polygon fill="white" stroke="#bfbfbf" points="301,-245.5 301,-264.5 461,-264.5 461,-245.5 301,-245.5"/>
<text text-anchor="middle" x="381" y="-252.5" font-family="Helvetica,sans-Serif" font-size="10.00">List&lt; workspace.Workspace &gt;</text>
</g>
<!-- Node8&#45;&gt;Node4 -->
<g id="edge7" class="edge"><title>Node8&#45;&gt;Node4</title>
<path fill="none" stroke="#9a32cd" stroke-dasharray="5,2" d="M471.04,-249.214C509.015,-246.746 552.701,-243.908 588.394,-241.588"/>
<polygon fill="#9a32cd" stroke="#9a32cd" points="470.758,-245.725 461.006,-249.866 471.212,-252.71 470.758,-245.725"/>
<text text-anchor="middle" x="525" y="-252" font-family="Helvetica,sans-Serif" font-size="10.00"> myWorkspaces</text>
</g>
<!-- Node9 -->
<g id="node9" class="node"><title>Node9</title>
<g id="a_node9"><a xlink:href="../../de/d19/classworkspace_1_1_workspace.html" target="_top" xlink:title="workspace.Workspace">
<polygon fill="white" stroke="black" points="320.5,-207.5 320.5,-226.5 441.5,-226.5 441.5,-207.5 320.5,-207.5"/>
<text text-anchor="middle" x="381" y="-214.5" font-family="Helvetica,sans-Serif" font-size="10.00">workspace.Workspace</text>
</a>
</g>
</g>
<!-- Node9&#45;&gt;Node4 -->
<g id="edge8" class="edge"><title>Node9&#45;&gt;Node4</title>
<path fill="none" stroke="#9a32cd" stroke-dasharray="5,2" d="M452.002,-221.13C486.876,-223.286 529.677,-226.08 568,-229 574.642,-229.506 581.554,-230.062 588.468,-230.636"/>
<polygon fill="#9a32cd" stroke="#9a32cd" points="452.113,-217.631 441.918,-220.511 451.684,-224.617 452.113,-217.631"/>
<text text-anchor="middle" x="525" y="-232" font-family="Helvetica,sans-Serif" font-size="10.00"> myActiveWS</text>
</g>
<!-- Node10 -->
<g id="node10" class="node"><title>Node10</title>
<polygon fill="white" stroke="#bfbfbf" points="47.5,-245.5 47.5,-264.5 118.5,-264.5 118.5,-245.5 47.5,-245.5"/>
<text text-anchor="middle" x="83" y="-252.5" font-family="Helvetica,sans-Serif" font-size="10.00">Observable</text>
</g>
<!-- Node10&#45;&gt;Node9 -->
<g id="edge9" class="edge"><title>Node10&#45;&gt;Node9</title>
<path fill="none" stroke="midnightblue" d="M128.88,-249.728C168.625,-245.005 228.204,-237.796 280,-231 293.036,-229.289 307.017,-227.38 320.27,-225.534"/>
<polygon fill="midnightblue" stroke="midnightblue" points="128.238,-246.279 118.72,-250.932 129.062,-253.23 128.238,-246.279"/>
</g>
<!-- Node11 -->
<g id="node11" class="node"><title>Node11</title>
<polygon fill="white" stroke="#bfbfbf" points="53,-207.5 53,-226.5 113,-226.5 113,-207.5 53,-207.5"/>
<text text-anchor="middle" x="83" y="-214.5" font-family="Helvetica,sans-Serif" font-size="10.00">Observer</text>
</g>
<!-- Node11&#45;&gt;Node9 -->
<g id="edge10" class="edge"><title>Node11&#45;&gt;Node9</title>
<path fill="none" stroke="midnightblue" d="M123.352,-217C173.742,-217 261.541,-217 320.214,-217"/>
<polygon fill="midnightblue" stroke="midnightblue" points="123.192,-213.5 113.192,-217 123.192,-220.5 123.192,-213.5"/>
</g>
<!-- Node12 -->
<g id="node12" class="node"><title>Node12</title>
<polygon fill="white" stroke="#bfbfbf" points="21,-326.5 21,-345.5 145,-345.5 145,-326.5 21,-326.5"/>
<text text-anchor="middle" x="83" y="-333.5" font-family="Helvetica,sans-Serif" font-size="10.00">Map&lt; Integer, Color &gt;</text>
</g>
<!-- Node12&#45;&gt;Node9 -->
<g id="edge11" class="edge"><title>Node12&#45;&gt;Node9</title>
<path fill="none" stroke="#9a32cd" stroke-dasharray="5,2" d="M155.234,-338.615C196.447,-336.332 246.603,-326.514 280,-296 300.553,-277.221 277.696,-255.049 298,-236 304.288,-230.101 312.033,-225.912 320.229,-222.958"/>
<polygon fill="#9a32cd" stroke="#9a32cd" points="155.081,-335.118 145.236,-339.033 155.374,-342.112 155.081,-335.118"/>
<text text-anchor="middle" x="232" y="-339" font-family="Helvetica,sans-Serif" font-size="10.00"> myColors</text>
</g>
<!-- Node12&#45;&gt;Node22 -->
<g id="edge27" class="edge"><title>Node12&#45;&gt;Node22</title>
<path fill="none" stroke="#9a32cd" stroke-dasharray="5,2" d="M155.314,-345.951C192.553,-351.39 238.822,-358.531 280,-366 298.851,-369.419 319.595,-373.691 337.279,-377.488"/>
<polygon fill="#9a32cd" stroke="#9a32cd" points="155.461,-342.435 145.062,-344.462 154.456,-349.363 155.461,-342.435"/>
<text text-anchor="middle" x="232" y="-369" font-family="Helvetica,sans-Serif" font-size="10.00"> colorsMap</text>
</g>
<!-- Node13 -->
<g id="node13" class="node"><title>Node13</title>
<polygon fill="white" stroke="#bfbfbf" points="0,-158 0,-188 166,-188 166,-158 0,-158"/>
<text text-anchor="start" x="8" y="-176" font-family="Helvetica,sans-Serif" font-size="10.00">Map&lt; String, parser.Command</text>
<text text-anchor="middle" x="83" y="-165" font-family="Helvetica,sans-Serif" font-size="10.00">Object &gt;</text>
</g>
<!-- Node13&#45;&gt;Node9 -->
<g id="edge12" class="edge"><title>Node13&#45;&gt;Node9</title>
<path fill="none" stroke="#9a32cd" stroke-dasharray="5,2" d="M176.05,-186.581C208.861,-191.432 246.084,-196.947 280,-202 293.023,-203.94 306.998,-206.031 320.25,-208.018"/>
<polygon fill="#9a32cd" stroke="#9a32cd" points="176.422,-183.098 166.017,-185.098 175.398,-190.023 176.422,-183.098"/>
<text text-anchor="middle" x="232" y="-205" font-family="Helvetica,sans-Serif" font-size="10.00"> myCommands</text>
</g>
<!-- Node14 -->
<g id="node14" class="node"><title>Node14</title>
<g id="a_node14"><a xlink:href="../../de/d1c/classproperties_1_1_stage_properties.html" target="_top" xlink:title="properties.StageProperties">
<polygon fill="white" stroke="black" points="10,-119.5 10,-138.5 156,-138.5 156,-119.5 10,-119.5"/>
<text text-anchor="middle" x="83" y="-126.5" font-family="Helvetica,sans-Serif" font-size="10.00">properties.StageProperties</text>
</a>
</g>
</g>
<!-- Node14&#45;&gt;Node9 -->
<g id="edge13" class="edge"><title>Node14&#45;&gt;Node9</title>
<path fill="none" stroke="#9a32cd" stroke-dasharray="5,2" d="M147.629,-140.58C186.367,-148.374 236.59,-159.812 280,-174 308.741,-183.393 340.618,-197.842 360.484,-207.357"/>
<polygon fill="#9a32cd" stroke="#9a32cd" points="148.022,-137.09 137.532,-138.579 146.661,-143.956 148.022,-137.09"/>
<text text-anchor="middle" x="232" y="-177" font-family="Helvetica,sans-Serif" font-size="10.00"> myStageProperties</text>
</g>
<!-- Node15 -->
<g id="node15" class="node"><title>Node15</title>
<polygon fill="white" stroke="#bfbfbf" points="19,-81.5 19,-100.5 147,-100.5 147,-81.5 19,-81.5"/>
<text text-anchor="middle" x="83" y="-88.5" font-family="Helvetica,sans-Serif" font-size="10.00">Map&lt; String, Double &gt;</text>
</g>
<!-- Node15&#45;&gt;Node9 -->
<g id="edge14" class="edge"><title>Node15&#45;&gt;Node9</title>
<path fill="none" stroke="#9a32cd" stroke-dasharray="5,2" d="M157.412,-98.6649C195.439,-104.691 241.783,-115.333 280,-134 318.721,-152.914 355.329,-189.807 371.422,-207.323"/>
<polygon fill="#9a32cd" stroke="#9a32cd" points="157.839,-95.1897 147.428,-97.1576 156.794,-102.111 157.839,-95.1897"/>
<text text-anchor="middle" x="232" y="-137" font-family="Helvetica,sans-Serif" font-size="10.00"> myVariables</text>
</g>
<!-- Node16 -->
<g id="node16" class="node"><title>Node16</title>
<polygon fill="white" stroke="#bfbfbf" points="7,-283.5 7,-302.5 159,-302.5 159,-283.5 7,-283.5"/>
<text text-anchor="middle" x="83" y="-290.5" font-family="Helvetica,sans-Serif" font-size="10.00">Map&lt; Integer, actor.Turtle &gt;</text>
</g>
<!-- Node16&#45;&gt;Node9 -->
<g id="edge15" class="edge"><title>Node16&#45;&gt;Node9</title>
<path fill="none" stroke="#9a32cd" stroke-dasharray="5,2" d="M169.253,-283.893C204.784,-277.804 245.677,-267.703 280,-251 289.364,-246.443 288.674,-240.634 298,-236 305.721,-232.163 314.239,-229.085 322.775,-226.621"/>
<polygon fill="#9a32cd" stroke="#9a32cd" points="168.687,-280.439 159.383,-285.506 169.817,-287.347 168.687,-280.439"/>
<text text-anchor="middle" x="232" y="-284" font-family="Helvetica,sans-Serif" font-size="10.00"> myTurtles</text>
</g>
<!-- Node17 -->
<g id="node17" class="node"><title>Node17</title>
<polygon fill="white" stroke="#bfbfbf" points="305.5,-529.5 305.5,-548.5 456.5,-548.5 456.5,-529.5 305.5,-529.5"/>
<text text-anchor="middle" x="381" y="-536.5" font-family="Helvetica,sans-Serif" font-size="10.00">Map&lt; Integer, ImageView &gt;</text>
</g>
<!-- Node17&#45;&gt;Node1 -->
<g id="edge16" class="edge"><title>Node17&#45;&gt;Node1</title>
<path fill="none" stroke="#9a32cd" stroke-dasharray="5,2" d="M466.688,-538.239C555.362,-539.145 698.125,-545.44 818,-573 840.633,-578.203 865.636,-586.776 883.533,-593.427"/>
<polygon fill="#9a32cd" stroke="#9a32cd" points="466.709,-534.739 456.681,-538.157 466.652,-541.739 466.709,-534.739"/>
<text text-anchor="middle" x="660" y="-561" font-family="Helvetica,sans-Serif" font-size="10.00"> myImageMap</text>
</g>
<!-- Node24 -->
<g id="node24" class="node"><title>Node24</title>
<g id="a_node24"><a xlink:href="../../d6/d68/classcomponents_1_1_turtle_manager.html" target="_top" xlink:title="components.TurtleManager">
<polygon fill="white" stroke="black" points="586.5,-427.5 586.5,-446.5 733.5,-446.5 733.5,-427.5 586.5,-427.5"/>
<text text-anchor="middle" x="660" y="-434.5" font-family="Helvetica,sans-Serif" font-size="10.00">components.TurtleManager</text>
</a>
</g>
</g>
<!-- Node17&#45;&gt;Node24 -->
<g id="edge30" class="edge"><title>Node17&#45;&gt;Node24</title>
<path fill="none" stroke="#9a32cd" stroke-dasharray="5,2" d="M447.495,-527.402C483.84,-519.751 529.372,-508.131 568,-492 597.64,-479.623 629.028,-458.662 646.095,-446.504"/>
<polygon fill="#9a32cd" stroke="#9a32cd" points="446.592,-524.014 437.501,-529.455 448,-530.871 446.592,-524.014"/>
<text text-anchor="middle" x="525" y="-523" font-family="Helvetica,sans-Serif" font-size="10.00"> myImageMap</text>
</g>
<!-- Node18&#45;&gt;Node1 -->
<g id="edge18" class="edge"><title>Node18&#45;&gt;Node1</title>
<path fill="none" stroke="#9a32cd" stroke-dasharray="5,2" d="M733.922,-618.505C766.213,-615.629 804.08,-612.256 836.236,-609.392"/>
<polygon fill="#9a32cd" stroke="#9a32cd" points="733.298,-615.047 723.648,-619.42 733.919,-622.019 733.298,-615.047"/>
<text text-anchor="middle" x="785" y="-620" font-family="Helvetica,sans-Serif" font-size="10.00"> myRightPane</text>
</g>
<!-- Node19&#45;&gt;Node18 -->
<g id="edge19" class="edge"><title>Node19&#45;&gt;Node18</title>
<path fill="none" stroke="midnightblue" d="M417.652,-700.077C458.175,-685.59 526.431,-661.801 586,-644 597.042,-640.7 609.118,-637.424 620.214,-634.545"/>
<polygon fill="midnightblue" stroke="midnightblue" points="416.445,-696.791 408.214,-703.462 418.809,-703.38 416.445,-696.791"/>
</g>
<!-- Node19&#45;&gt;Node32 -->
<g id="edge39" class="edge"><title>Node19&#45;&gt;Node32</title>
<path fill="none" stroke="midnightblue" d="M451.664,-714.801C487.151,-713.964 530.591,-710.209 568,-699 576.767,-696.373 577.661,-692.77 586,-689 599.73,-682.792 615.419,-677.04 628.724,-672.532"/>
<polygon fill="midnightblue" stroke="midnightblue" points="451.342,-711.305 441.401,-714.967 451.456,-718.304 451.342,-711.305"/>
</g>
<!-- Node20 -->
<g id="node20" class="node"><title>Node20</title>
<polygon fill="white" stroke="#bfbfbf" points="53,-703.5 53,-722.5 113,-722.5 113,-703.5 53,-703.5"/>
<text text-anchor="middle" x="83" y="-710.5" font-family="Helvetica,sans-Serif" font-size="10.00">FlowPane</text>
</g>
<!-- Node20&#45;&gt;Node19 -->
<g id="edge20" class="edge"><title>Node20&#45;&gt;Node19</title>
<path fill="none" stroke="midnightblue" d="M123.385,-713C173.944,-713 262.127,-713 320.787,-713"/>
<polygon fill="midnightblue" stroke="midnightblue" points="123.192,-709.5 113.192,-713 123.192,-716.5 123.192,-709.5"/>
</g>
<!-- Node21 -->
<g id="node21" class="node"><title>Node21</title>
<polygon fill="white" stroke="#bfbfbf" points="7,-741.5 7,-760.5 159,-760.5 159,-741.5 7,-741.5"/>
<text text-anchor="middle" x="83" y="-748.5" font-family="Helvetica,sans-Serif" font-size="10.00">List&lt; components.InfoTab &gt;</text>
</g>
<!-- Node21&#45;&gt;Node19 -->
<g id="edge22" class="edge"><title>Node21&#45;&gt;Node19</title>
<path fill="none" stroke="#9a32cd" stroke-dasharray="5,2" d="M169.434,-740.863C203.807,-736.7 243.804,-731.749 280,-727 293.21,-725.267 307.39,-723.329 320.8,-721.46"/>
<polygon fill="#9a32cd" stroke="#9a32cd" points="168.936,-737.398 159.428,-742.072 169.776,-744.347 168.936,-737.398"/>
<text text-anchor="middle" x="232" y="-741" font-family="Helvetica,sans-Serif" font-size="10.00"> myTabs</text>
</g>
<!-- Node22&#45;&gt;Node1 -->
<g id="edge24" class="edge"><title>Node22&#45;&gt;Node1</title>
<path fill="none" stroke="#9a32cd" stroke-dasharray="5,2" d="M437.186,-375.792C510.32,-363.973 640.933,-353.65 734,-407 818.873,-455.653 883.915,-560.83 902.571,-593.272"/>
<polygon fill="#9a32cd" stroke="#9a32cd" points="436.539,-372.352 427.258,-377.463 437.701,-379.255 436.539,-372.352"/>
<text text-anchor="middle" x="660" y="-410" font-family="Helvetica,sans-Serif" font-size="10.00"> myCenterPane</text>
</g>
<!-- Node22&#45;&gt;Node24 -->
<g id="edge35" class="edge"><title>Node22&#45;&gt;Node24</title>
<path fill="none" stroke="#9a32cd" stroke-dasharray="5,2" d="M444.842,-398.343C493.459,-407.119 560.02,-419.134 605.972,-427.428"/>
<polygon fill="#9a32cd" stroke="#9a32cd" points="445.216,-394.854 434.754,-396.522 443.973,-401.743 445.216,-394.854"/>
<text text-anchor="middle" x="525" y="-423" font-family="Helvetica,sans-Serif" font-size="10.00"> myCenterPane</text>
</g>
<!-- Node23 -->
<g id="node23" class="node"><title>Node23</title>
<polygon fill="white" stroke="#bfbfbf" points="63,-405.5 63,-424.5 103,-424.5 103,-405.5 63,-405.5"/>
<text text-anchor="middle" x="83" y="-412.5" font-family="Helvetica,sans-Serif" font-size="10.00">Pane</text>
</g>
<!-- Node23&#45;&gt;Node22 -->
<g id="edge25" class="edge"><title>Node23&#45;&gt;Node22</title>
<path fill="none" stroke="midnightblue" d="M113.661,-412.931C152.078,-410.17 221.103,-404.936 280,-399 290.786,-397.913 302.214,-396.649 313.339,-395.357"/>
<polygon fill="midnightblue" stroke="midnightblue" points="112.944,-409.473 103.218,-413.674 113.442,-416.455 112.944,-409.473"/>
</g>
<!-- Node24&#45;&gt;Node22 -->
<g id="edge28" class="edge"><title>Node24&#45;&gt;Node22</title>
<path fill="none" stroke="#9a32cd" stroke-dasharray="5,2" d="M637.936,-421.395C620.28,-409.343 593.872,-393.639 568,-387 529.372,-377.087 484.726,-376.738 448.858,-379.033"/>
<polygon fill="#9a32cd" stroke="#9a32cd" points="636.131,-424.403 646.323,-427.296 640.159,-418.679 636.131,-424.403"/>
<text text-anchor="middle" x="525" y="-390" font-family="Helvetica,sans-Serif" font-size="10.00"> myTurtleManager</text>
</g>
<!-- Node25 -->
<g id="node25" class="node"><title>Node25</title>
<polygon fill="white" stroke="#bfbfbf" points="298.5,-312 298.5,-342 463.5,-342 463.5,-312 298.5,-312"/>
<text text-anchor="start" x="306.5" y="-330" font-family="Helvetica,sans-Serif" font-size="10.00">Map&lt; Integer, features.Display</text>
<text text-anchor="middle" x="381" y="-319" font-family="Helvetica,sans-Serif" font-size="10.00">Turtle &gt;</text>
</g>
<!-- Node25&#45;&gt;Node24 -->
<g id="edge29" class="edge"><title>Node25&#45;&gt;Node24</title>
<path fill="none" stroke="#9a32cd" stroke-dasharray="5,2" d="M473.813,-335.64C504.76,-340.903 538.824,-349.373 568,-363 602.501,-379.114 635.154,-411.172 650.25,-427.282"/>
<polygon fill="#9a32cd" stroke="#9a32cd" points="474.315,-332.176 463.886,-334.041 473.202,-339.086 474.315,-332.176"/>
<text text-anchor="middle" x="525" y="-366" font-family="Helvetica,sans-Serif" font-size="10.00"> myTurtleMap</text>
</g>
<!-- Node26 -->
<g id="node26" class="node"><title>Node26</title>
<g id="a_node26"><a xlink:href="../../d9/d58/classcomponents_1_1_bottom_pane.html" target="_top" xlink:title="components.BottomPane">
<polygon fill="white" stroke="black" points="311.5,-443.5 311.5,-462.5 450.5,-462.5 450.5,-443.5 311.5,-443.5"/>
<text text-anchor="middle" x="381" y="-450.5" font-family="Helvetica,sans-Serif" font-size="10.00">components.BottomPane</text>
</a>
</g>
</g>
<!-- Node26&#45;&gt;Node24 -->
<g id="edge31" class="edge"><title>Node26&#45;&gt;Node24</title>
<path fill="none" stroke="#9a32cd" stroke-dasharray="5,2" d="M460.923,-448.441C500.314,-446.166 547.649,-443.432 586.167,-441.207"/>
<polygon fill="#9a32cd" stroke="#9a32cd" points="460.609,-444.953 450.828,-449.024 461.013,-451.942 460.609,-444.953"/>
<text text-anchor="middle" x="525" y="-450" font-family="Helvetica,sans-Serif" font-size="10.00"> myBottomPane</text>
</g>
<!-- Node27 -->
<g id="node27" class="node"><title>Node27</title>
<polygon fill="white" stroke="#bfbfbf" points="62,-443.5 62,-462.5 104,-462.5 104,-443.5 62,-443.5"/>
<text text-anchor="middle" x="83" y="-450.5" font-family="Helvetica,sans-Serif" font-size="10.00">HBox</text>
</g>
<!-- Node27&#45;&gt;Node26 -->
<g id="edge32" class="edge"><title>Node27&#45;&gt;Node26</title>
<path fill="none" stroke="midnightblue" d="M114.584,-453C160.707,-453 249.261,-453 311.355,-453"/>
<polygon fill="midnightblue" stroke="midnightblue" points="114.345,-449.5 104.345,-453 114.345,-456.5 114.345,-449.5"/>
</g>
<!-- Node28 -->
<g id="node28" class="node"><title>Node28</title>
<polygon fill="white" stroke="#bfbfbf" points="62,-519.5 62,-538.5 104,-538.5 104,-519.5 62,-519.5"/>
<text text-anchor="middle" x="83" y="-526.5" font-family="Helvetica,sans-Serif" font-size="10.00">Label</text>
</g>
<!-- Node28&#45;&gt;Node26 -->
<g id="edge33" class="edge"><title>Node28&#45;&gt;Node26</title>
<path fill="none" stroke="#9a32cd" stroke-dasharray="5,2" d="M114.233,-529.906C154.743,-529.782 227.6,-524.765 280,-494 290.895,-487.604 287.272,-478.672 298,-472 304.205,-468.141 311.114,-465.065 318.215,-462.613"/>
<polygon fill="#9a32cd" stroke="#9a32cd" points="114.21,-526.406 104.186,-529.837 114.161,-533.405 114.21,-526.406"/>
<text text-anchor="middle" x="232" y="-528" font-family="Helvetica,sans-Serif" font-size="10.00"> myErrors</text>
</g>
<!-- Node29 -->
<g id="node29" class="node"><title>Node29</title>
<polygon fill="white" stroke="#bfbfbf" points="54,-481.5 54,-500.5 112,-500.5 112,-481.5 54,-481.5"/>
<text text-anchor="middle" x="83" y="-488.5" font-family="Helvetica,sans-Serif" font-size="10.00">TextArea</text>
</g>
<!-- Node29&#45;&gt;Node26 -->
<g id="edge34" class="edge"><title>Node29&#45;&gt;Node26</title>
<path fill="none" stroke="#9a32cd" stroke-dasharray="5,2" d="M122.256,-486.513C161.78,-481.832 225.24,-474.185 280,-467 290.69,-465.597 302.014,-464.061 313.052,-462.535"/>
<polygon fill="#9a32cd" stroke="#9a32cd" points="121.778,-483.046 112.258,-487.695 122.599,-489.997 121.778,-483.046"/>
<text text-anchor="middle" x="232" y="-482" font-family="Helvetica,sans-Serif" font-size="10.00"> myCommand</text>
</g>
<!-- Node30 -->
<g id="node30" class="node"><title>Node30</title>
<polygon fill="white" stroke="#bfbfbf" points="360.5,-481.5 360.5,-500.5 401.5,-500.5 401.5,-481.5 360.5,-481.5"/>
<text text-anchor="middle" x="381" y="-488.5" font-family="Helvetica,sans-Serif" font-size="10.00">Color</text>
</g>
<!-- Node30&#45;&gt;Node24 -->
<g id="edge36" class="edge"><title>Node30&#45;&gt;Node24</title>
<path fill="none" stroke="#9a32cd" stroke-dasharray="5,2" d="M411.757,-487.419C448.642,-482.738 513.323,-473.733 568,-462 588.024,-457.703 610.189,-451.642 627.631,-446.564"/>
<polygon fill="#9a32cd" stroke="#9a32cd" points="411.172,-483.965 401.683,-488.677 412.04,-490.911 411.172,-483.965"/>
<text text-anchor="middle" x="525" y="-480" font-family="Helvetica,sans-Serif" font-size="10.00"> testC</text>
</g>
<!-- Node31 -->
<g id="node31" class="node"><title>Node31</title>
<polygon fill="white" stroke="#bfbfbf" points="53.5,-367.5 53.5,-386.5 112.5,-386.5 112.5,-367.5 53.5,-367.5"/>
<text text-anchor="middle" x="83" y="-374.5" font-family="Helvetica,sans-Serif" font-size="10.00">GridPane</text>
</g>
<!-- Node31&#45;&gt;Node22 -->
<g id="edge37" class="edge"><title>Node31&#45;&gt;Node22</title>
<path fill="none" stroke="#9a32cd" stroke-dasharray="5,2" d="M122.697,-378.307C171.023,-379.94 254.478,-382.759 313.214,-384.744"/>
<polygon fill="#9a32cd" stroke="#9a32cd" points="122.763,-374.808 112.651,-377.968 122.527,-381.804 122.763,-374.808"/>
<text text-anchor="middle" x="232" y="-387" font-family="Helvetica,sans-Serif" font-size="10.00"> referenceGrid</text>
</g>
<!-- Node32&#45;&gt;Node1 -->
<g id="edge38" class="edge"><title>Node32&#45;&gt;Node1</title>
<path fill="none" stroke="#9a32cd" stroke-dasharray="5,2" d="M727.772,-651.597C755.807,-646.349 788.656,-639.597 818,-632 839.454,-626.446 863.309,-618.685 881.067,-612.589"/>
<polygon fill="#9a32cd" stroke="#9a32cd" points="726.874,-648.203 717.676,-653.461 728.145,-655.087 726.874,-648.203"/>
<text text-anchor="middle" x="785" y="-650" font-family="Helvetica,sans-Serif" font-size="10.00"> myLeftPane</text>
</g>
</g>
</svg>
        <g id="navigator" transform="translate(0 0)" fill="#404254">
                <rect fill="#f2f5e9" fill-opacity="0.5" stroke="#606060" stroke-width=".5" x="0" y="0" width="60" height="60"/>
                <use id="zoomplus" xlink:href="#zoomPlus" x="17" y="9" onmousedown="handleZoom(evt,'in')"/>
                <use id="zoomminus" xlink:href="#zoomMin" x="42" y="9" onmousedown="handleZoom(evt,'out')"/>
                <use id="reset" xlink:href="#resetDef" x="30" y="36" onmousedown="handleReset()"/>
                <g id="arrowUp" xlink:href="#dirArrow" transform="translate(30 24)" onmousedown="handlePan(0,-1)">
                  <use xlink:href="#rim" fill="#404040">
                        <set attributeName="fill" to="#808080" begin="arrowUp.mouseover" end="arrowUp.mouseout"/>
                  </use>
                  <path fill="none" stroke="white" stroke-width="1.5" d="M0,-3.0v7 M-2.5,-0.5L0,-3.0L2.5,-0.5"/>
                </g>
                <g id="arrowRight" xlink:href="#dirArrow" transform="rotate(90) translate(36 -43)" onmousedown="handlePan(1,0)">
                  <use xlink:href="#rim" fill="#404040">
                        <set attributeName="fill" to="#808080" begin="arrowRight.mouseover" end="arrowRight.mouseout"/>
                  </use>
                  <path fill="none" stroke="white" stroke-width="1.5" d="M0,-3.0v7 M-2.5,-0.5L0,-3.0L2.5,-0.5"/>
                </g>
                <g id="arrowDown" xlink:href="#dirArrow" transform="rotate(180) translate(-30 -48)" onmousedown="handlePan(0,1)">
                  <use xlink:href="#rim" fill="#404040">
                        <set attributeName="fill" to="#808080" begin="arrowDown.mouseover" end="arrowDown.mouseout"/>
                  </use>
                  <path fill="none" stroke="white" stroke-width="1.5" d="M0,-3.0v7 M-2.5,-0.5L0,-3.0L2.5,-0.5"/>
                </g>
                <g id="arrowLeft" xlink:href="#dirArrow" transform="rotate(270) translate(-36 17)" onmousedown="handlePan(-1,0)">
                  <use xlink:href="#rim" fill="#404040">
                        <set attributeName="fill" to="#808080" begin="arrowLeft.mouseover" end="arrowLeft.mouseout"/>
                  </use>
                  <path fill="none" stroke="white" stroke-width="1.5" d="M0,-3.0v7 M-2.5,-0.5L0,-3.0L2.5,-0.5"/>
                </g>
        </g>
        <svg viewBox="0 0 15 15" width="100%" height="30px" preserveAspectRatio="xMaxYMin meet">
         <g id="arrow_out" transform="scale(0.3 0.3)">
          <a xlink:href="classfeatures_1_1_run_button_feature__coll__graph_org.svg" target="_base">
           <rect id="button" ry="5" rx="5" y="6" x="6" height="38" width="38"
                fill="#f2f5e9" fill-opacity="0.5" stroke="#606060" stroke-width="1.0"/>
           <path id="arrow"
             d="M 11.500037,31.436501 C 11.940474,20.09759 22.043105,11.32322 32.158766,21.979434 L 37.068811,17.246167 C 37.068811,17.246167 37.088388,32 37.088388,32 L 22.160133,31.978069 C 22.160133,31.978069 26.997745,27.140456 26.997745,27.140456 C 18.528582,18.264221 13.291696,25.230495 11.500037,31.436501 z"
             style="fill:#404040;"/>
          </a>
         </g>
        </svg>
</svg>
