<?xml version="1.0" encoding="UTF-8" standalone="no"?>
<!DOCTYPE svg PUBLIC "-//W3C//DTD SVG 1.1//EN"
 "http://www.w3.org/Graphics/SVG/1.1/DTD/svg11.dtd">
<!-- Generated by graphviz version 2.36.0 (20140111.2315)
 -->
<!-- Title: components.BottomPane Pages: 1 -->
<svg width="216pt" height="96pt"
 viewBox="0.00 0.00 216.00 96.00" xmlns="http://www.w3.org/2000/svg" xmlns:xlink="http://www.w3.org/1999/xlink">
<g id="graph0" class="graph" transform="scale(1 1) rotate(0) translate(4 92)">
<title>components.BottomPane</title>
<polygon fill="white" stroke="none" points="-4,4 -4,-92 212,-92 212,4 -4,4"/>
<!-- Node1 -->
<g id="node1" class="node"><title>Node1</title>
<polygon fill="#bfbfbf" stroke="black" points="11.5,-0.5 11.5,-19.5 150.5,-19.5 150.5,-0.5 11.5,-0.5"/>
<text text-anchor="middle" x="81" y="-7.5" font-family="Helvetica,sans-Serif" font-size="10.00">components.BottomPane</text>
</g>
<!-- Node2 -->
<g id="node2" class="node"><title>Node2</title>
<polygon fill="white" stroke="#bfbfbf" points="0,-68.5 0,-87.5 42,-87.5 42,-68.5 0,-68.5"/>
<text text-anchor="middle" x="21" y="-75.5" font-family="Helvetica,sans-Serif" font-size="10.00">HBox</text>
</g>
<!-- Node2&#45;&gt;Node1 -->
<g id="edge1" class="edge"><title>Node2&#45;&gt;Node1</title>
<path fill="none" stroke="midnightblue" d="M35.8364,-60.68C47.5666,-47.7768 63.4932,-30.2575 72.9626,-19.8411"/>
<polygon fill="midnightblue" stroke="midnightblue" points="32.9809,-58.6179 28.844,-68.3717 38.1605,-63.3266 32.9809,-58.6179"/>
</g>
<!-- Node3 -->
<g id="node3" class="node"><title>Node3</title>
<polygon fill="white" stroke="#bfbfbf" points="60,-68.5 60,-87.5 102,-87.5 102,-68.5 60,-68.5"/>
<text text-anchor="middle" x="81" y="-75.5" font-family="Helvetica,sans-Serif" font-size="10.00">Label</text>
</g>
<!-- Node3&#45;&gt;Node1 -->
<g id="edge2" class="edge"><title>Node3&#45;&gt;Node1</title>
<path fill="none" stroke="#9a32cd" stroke-dasharray="5,2" d="M81,-58.0413C81,-45.4724 81,-29.5631 81,-19.8411"/>
<polygon fill="#9a32cd" stroke="#9a32cd" points="77.5001,-58.3716 81,-68.3717 84.5001,-58.3717 77.5001,-58.3716"/>
<text text-anchor="middle" x="104.5" y="-41.5" font-family="Helvetica,sans-Serif" font-size="10.00"> myErrors</text>
</g>
<!-- Node4 -->
<g id="node4" class="node"><title>Node4</title>
<polygon fill="white" stroke="#bfbfbf" points="122,-68.5 122,-87.5 180,-87.5 180,-68.5 122,-68.5"/>
<text text-anchor="middle" x="151" y="-75.5" font-family="Helvetica,sans-Serif" font-size="10.00">TextArea</text>
</g>
<!-- Node4&#45;&gt;Node1 -->
<g id="edge3" class="edge"><title>Node4&#45;&gt;Node1</title>
<path fill="none" stroke="#9a32cd" stroke-dasharray="5,2" d="M143.349,-58.817C139.739,-51.7285 134.913,-43.9056 129,-38 121.288,-30.2974 110.926,-24.1007 101.803,-19.5962"/>
<polygon fill="#9a32cd" stroke="#9a32cd" points="140.387,-60.752 147.752,-68.3683 146.744,-57.8215 140.387,-60.752"/>
<text text-anchor="middle" x="173.5" y="-41.5" font-family="Helvetica,sans-Serif" font-size="10.00"> myCommand</text>
</g>
</g>
</svg>
