<?xml version="1.0" encoding="UTF-8" standalone="no"?>
<!DOCTYPE svg PUBLIC "-//W3C//DTD SVG 1.1//EN"
 "http://www.w3.org/Graphics/SVG/1.1/DTD/svg11.dtd">
<!-- Generated by graphviz version 2.36.0 (20140111.2315)
 -->
<!-- Title: features.SaveButtonFeature Pages: 1 -->
<svg width="203pt" height="96pt"
 viewBox="0.00 0.00 203.00 96.00" xmlns="http://www.w3.org/2000/svg" xmlns:xlink="http://www.w3.org/1999/xlink">
<g id="graph0" class="graph" transform="scale(1 1) rotate(0) translate(4 92)">
<title>features.SaveButtonFeature</title>
<polygon fill="white" stroke="none" points="-4,4 -4,-92 199,-92 199,4 -4,4"/>
<!-- Node1 -->
<g id="node1" class="node"><title>Node1</title>
<polygon fill="#bfbfbf" stroke="black" points="1,-0.5 1,-19.5 153,-19.5 153,-0.5 1,-0.5"/>
<text text-anchor="middle" x="77" y="-7.5" font-family="Helvetica,sans-Serif" font-size="10.00">features.SaveButtonFeature</text>
</g>
<!-- Node2 -->
<g id="node2" class="node"><title>Node2</title>
<polygon fill="white" stroke="#bfbfbf" points="-0.5,-68.5 -0.5,-87.5 48.5,-87.5 48.5,-68.5 -0.5,-68.5"/>
<text text-anchor="middle" x="24" y="-75.5" font-family="Helvetica,sans-Serif" font-size="10.00">Button</text>
</g>
<!-- Node2&#45;&gt;Node1 -->
<g id="edge1" class="edge"><title>Node2&#45;&gt;Node1</title>
<path fill="none" stroke="midnightblue" d="M37.4025,-60.3101C47.7346,-47.4437 61.6153,-30.1583 69.9003,-19.8411"/>
<polygon fill="midnightblue" stroke="midnightblue" points="34.4612,-58.383 30.9288,-68.3717 39.9192,-62.766 34.4612,-58.383"/>
</g>
<!-- Node3 -->
<g id="node3" class="node"><title>Node3</title>
<polygon fill="white" stroke="#bfbfbf" points="67,-68.5 67,-87.5 195,-87.5 195,-68.5 67,-68.5"/>
<text text-anchor="middle" x="131" y="-75.5" font-family="Helvetica,sans-Serif" font-size="10.00">Map&lt; String, Double &gt;</text>
</g>
<!-- Node3&#45;&gt;Node1 -->
<g id="edge2" class="edge"><title>Node3&#45;&gt;Node1</title>
<path fill="none" stroke="#9a32cd" stroke-dasharray="5,2" d="M117.345,-60.3101C106.818,-47.4437 92.675,-30.1583 84.2336,-19.8411"/>
<polygon fill="#9a32cd" stroke="#9a32cd" points="114.899,-62.8484 123.94,-68.3717 120.317,-58.4157 114.899,-62.8484"/>
<text text-anchor="middle" x="129" y="-41.5" font-family="Helvetica,sans-Serif" font-size="10.00"> myVars</text>
</g>
</g>
</svg>
