<?xml version="1.0" encoding="UTF-8" standalone="no"?>
<!DOCTYPE svg PUBLIC "-//W3C//DTD SVG 1.1//EN"
 "http://www.w3.org/Graphics/SVG/1.1/DTD/svg11.dtd">
<!-- Generated by graphviz version 2.36.0 (20140111.2315)
 -->
<!-- Title: parser.Node Pages: 1 -->
<svg width="259pt" height="96pt"
 viewBox="0.00 0.00 259.00 96.00" xmlns="http://www.w3.org/2000/svg" xmlns:xlink="http://www.w3.org/1999/xlink">
<g id="graph0" class="graph" transform="scale(1 1) rotate(0) translate(4 92)">
<title>parser.Node</title>
<polygon fill="white" stroke="none" points="-4,4 -4,-92 255,-92 255,4 -4,4"/>
<!-- Node1 -->
<g id="node1" class="node"><title>Node1</title>
<polygon fill="#bfbfbf" stroke="black" points="88.5,-0.5 88.5,-19.5 163.5,-19.5 163.5,-0.5 88.5,-0.5"/>
<text text-anchor="middle" x="126" y="-7.5" font-family="Helvetica,sans-Serif" font-size="10.00">parser.Node</text>
</g>
<!-- Node2 -->
<g id="node2" class="node"><title>Node2</title>
<g id="a_node2"><a xlink:href="../../d7/d35/classcommand_1_1_command.html" target="_top" xlink:title="command.Command">
<polygon fill="white" stroke="black" points="-0.5,-68.5 -0.5,-87.5 118.5,-87.5 118.5,-68.5 -0.5,-68.5"/>
<text text-anchor="middle" x="59" y="-75.5" font-family="Helvetica,sans-Serif" font-size="10.00">command.Command</text>
</a>
</g>
</g>
<!-- Node2&#45;&gt;Node1 -->
<g id="edge1" class="edge"><title>Node2&#45;&gt;Node1</title>
<path fill="none" stroke="#9a32cd" stroke-dasharray="5,2" d="M75.1943,-61.0474C88.3266,-48.1111 106.35,-30.3567 117.025,-19.8411"/>
<polygon fill="#9a32cd" stroke="#9a32cd" points="72.4269,-58.8605 67.7591,-68.3717 77.3393,-63.8473 72.4269,-58.8605"/>
<text text-anchor="middle" x="133.5" y="-41.5" font-family="Helvetica,sans-Serif" font-size="10.00"> myCommand</text>
</g>
<!-- Node3 -->
<g id="node3" class="node"><title>Node3</title>
<polygon fill="white" stroke="#bfbfbf" points="137,-68.5 137,-87.5 251,-87.5 251,-68.5 137,-68.5"/>
<text text-anchor="middle" x="194" y="-75.5" font-family="Helvetica,sans-Serif" font-size="10.00">List&lt; parser.Node &gt;</text>
</g>
<!-- Node3&#45;&gt;Node1 -->
<g id="edge2" class="edge"><title>Node3&#45;&gt;Node1</title>
<path fill="none" stroke="#9a32cd" stroke-dasharray="5,2" d="M186.294,-58.8716C182.676,-51.7912 177.858,-43.9597 172,-38 164.47,-30.3395 154.319,-24.0776 145.469,-19.5197"/>
<polygon fill="#9a32cd" stroke="#9a32cd" points="183.333,-60.8053 190.718,-68.4023 189.682,-57.8582 183.333,-60.8053"/>
<text text-anchor="middle" x="210" y="-41.5" font-family="Helvetica,sans-Serif" font-size="10.00"> myChildren</text>
</g>
</g>
</svg>
