<?xml version="1.0" encoding="UTF-8" standalone="no"?>
<!DOCTYPE svg PUBLIC "-//W3C//DTD SVG 1.1//EN"
 "http://www.w3.org/Graphics/SVG/1.1/DTD/svg11.dtd">
<!-- Generated by graphviz version 2.36.0 (20140111.2315)
 -->
<!-- Title: features.AnimateButtonFeature Pages: 1 -->
<svg width="183pt" height="84pt"
 viewBox="0.00 0.00 183.00 84.00" xmlns="http://www.w3.org/2000/svg" xmlns:xlink="http://www.w3.org/1999/xlink">
<g id="graph0" class="graph" transform="scale(1 1) rotate(0) translate(4 80)">
<title>features.AnimateButtonFeature</title>
<polygon fill="white" stroke="none" points="-4,4 -4,-80 179,-80 179,4 -4,4"/>
<!-- Node1 -->
<g id="node1" class="node"><title>Node1</title>
<polygon fill="#bfbfbf" stroke="black" points="-1,-0.5 -1,-19.5 167,-19.5 167,-0.5 -1,-0.5"/>
<text text-anchor="middle" x="83" y="-7.5" font-family="Helvetica,sans-Serif" font-size="10.00">features.AnimateButtonFeature</text>
</g>
<!-- Node2 -->
<g id="node2" class="node"><title>Node2</title>
<polygon fill="white" stroke="#bfbfbf" points="13.5,-56.5 13.5,-75.5 62.5,-75.5 62.5,-56.5 13.5,-56.5"/>
<text text-anchor="middle" x="38" y="-63.5" font-family="Helvetica,sans-Serif" font-size="10.00">Button</text>
</g>
<!-- Node2&#45;&gt;Node1 -->
<g id="edge1" class="edge"><title>Node2&#45;&gt;Node1</title>
<path fill="none" stroke="midnightblue" d="M52.0467,-48.144C59.8869,-38.7357 69.3295,-27.4046 75.7074,-19.7511"/>
<polygon fill="midnightblue" stroke="midnightblue" points="49.1439,-46.1601 45.4308,-56.083 54.5215,-50.6414 49.1439,-46.1601"/>
</g>
<!-- Node3 -->
<g id="node3" class="node"><title>Node3</title>
<g id="a_node3"><a xlink:href="../../d2/dfc/interfacefeatures_1_1_feature.html" target="_top" xlink:title="features.Feature">
<polygon fill="white" stroke="black" points="80.5,-56.5 80.5,-75.5 175.5,-75.5 175.5,-56.5 80.5,-56.5"/>
<text text-anchor="middle" x="128" y="-63.5" font-family="Helvetica,sans-Serif" font-size="10.00">features.Feature</text>
</a>
</g>
</g>
<!-- Node3&#45;&gt;Node1 -->
<g id="edge2" class="edge"><title>Node3&#45;&gt;Node1</title>
<path fill="none" stroke="midnightblue" d="M113.953,-48.144C106.113,-38.7357 96.6705,-27.4046 90.2926,-19.7511"/>
<polygon fill="midnightblue" stroke="midnightblue" points="111.479,-50.6414 120.569,-56.083 116.856,-46.1601 111.479,-50.6414"/>
</g>
</g>
</svg>
