<?xml version="1.0" encoding="UTF-8" standalone="no"?>
<!DOCTYPE svg PUBLIC "-//W3C//DTD SVG 1.1//EN"
 "http://www.w3.org/Graphics/SVG/1.1/DTD/svg11.dtd">
<!-- Generated by graphviz version 2.36.0 (20140111.2315)
 -->
<!-- Title: features.AnimationSpeedSliderFeature Pages: 1 -->
<svg width="182pt" height="96pt"
 viewBox="0.00 0.00 182.00 96.00" xmlns="http://www.w3.org/2000/svg" xmlns:xlink="http://www.w3.org/1999/xlink">
<g id="graph0" class="graph" transform="scale(1 1) rotate(0) translate(4 92)">
<title>features.AnimationSpeedSliderFeature</title>
<polygon fill="white" stroke="none" points="-4,4 -4,-92 178,-92 178,4 -4,4"/>
<!-- Node1 -->
<g id="node1" class="node"><title>Node1</title>
<polygon fill="#bfbfbf" stroke="black" points="0,-1 0,-31 166,-31 166,-1 0,-1"/>
<text text-anchor="start" x="8" y="-19" font-family="Helvetica,sans-Serif" font-size="10.00">features.AnimationSpeedSlider</text>
<text text-anchor="middle" x="83" y="-8" font-family="Helvetica,sans-Serif" font-size="10.00">Feature</text>
</g>
<!-- Node2 -->
<g id="node2" class="node"><title>Node2</title>
<polygon fill="white" stroke="#bfbfbf" points="17,-68.5 17,-87.5 61,-87.5 61,-68.5 17,-68.5"/>
<text text-anchor="middle" x="39" y="-75.5" font-family="Helvetica,sans-Serif" font-size="10.00">Slider</text>
</g>
<!-- Node2&#45;&gt;Node1 -->
<g id="edge1" class="edge"><title>Node2&#45;&gt;Node1</title>
<path fill="none" stroke="midnightblue" d="M51.3887,-60.1064C58.0889,-50.9697 66.2696,-39.8142 72.6301,-31.1408"/>
<polygon fill="midnightblue" stroke="midnightblue" points="48.3954,-58.2696 45.3041,-68.4035 54.0402,-62.4092 48.3954,-58.2696"/>
</g>
<!-- Node3 -->
<g id="node3" class="node"><title>Node3</title>
<g id="a_node3"><a xlink:href="../../d2/dfc/interfacefeatures_1_1_feature.html" target="_top" xlink:title="features.Feature">
<polygon fill="white" stroke="black" points="79.5,-68.5 79.5,-87.5 174.5,-87.5 174.5,-68.5 79.5,-68.5"/>
<text text-anchor="middle" x="127" y="-75.5" font-family="Helvetica,sans-Serif" font-size="10.00">features.Feature</text>
</a>
</g>
</g>
<!-- Node3&#45;&gt;Node1 -->
<g id="edge2" class="edge"><title>Node3&#45;&gt;Node1</title>
<path fill="none" stroke="midnightblue" d="M114.611,-60.1064C107.911,-50.9697 99.7304,-39.8142 93.3699,-31.1408"/>
<polygon fill="midnightblue" stroke="midnightblue" points="111.96,-62.4092 120.696,-68.4035 117.605,-58.2696 111.96,-62.4092"/>
</g>
</g>
</svg>
