<?xml version="1.0" encoding="UTF-8" standalone="no"?>
<!DOCTYPE svg PUBLIC "-//W3C//DTD SVG 1.1//EN"
 "http://www.w3.org/Graphics/SVG/1.1/DTD/svg11.dtd">
<!-- Generated by graphviz version 2.36.0 (20140111.2315)
 -->
<!-- Title: components.SavedTab Pages: 1 -->
<svg width="1104pt" height="359pt"
 viewBox="0.00 0.00 1104.00 359.00" xmlns="http://www.w3.org/2000/svg" xmlns:xlink="http://www.w3.org/1999/xlink">
<g id="graph0" class="graph" transform="scale(1 1) rotate(0) translate(4 355)">
<title>components.SavedTab</title>
<polygon fill="white" stroke="none" points="-4,4 -4,-355 1100,-355 1100,4 -4,4"/>
<!-- Node1 -->
<g id="node1" class="node"><title>Node1</title>
<polygon fill="#bfbfbf" stroke="black" points="970.5,-293.5 970.5,-312.5 1095.5,-312.5 1095.5,-293.5 970.5,-293.5"/>
<text text-anchor="middle" x="1033" y="-300.5" font-family="Helvetica,sans-Serif" font-size="10.00">components.SavedTab</text>
</g>
<!-- Node2 -->
<g id="node2" class="node"><title>Node2</title>
<g id="a_node2"><a xlink:href="../../df/df3/classcomponents_1_1_info_tab.html" target="_top" xlink:title="components.InfoTab">
<polygon fill="white" stroke="black" points="818.5,-208.5 818.5,-227.5 931.5,-227.5 931.5,-208.5 818.5,-208.5"/>
<text text-anchor="middle" x="875" y="-215.5" font-family="Helvetica,sans-Serif" font-size="10.00">components.InfoTab</text>
</a>
</g>
</g>
<!-- Node2&#45;&gt;Node1 -->
<g id="edge1" class="edge"><title>Node2&#45;&gt;Node1</title>
<path fill="none" stroke="midnightblue" d="M902.776,-232.589C934.647,-249.955 986.973,-278.466 1014.23,-293.319"/>
<polygon fill="midnightblue" stroke="midnightblue" points="904.048,-229.297 893.592,-227.585 900.698,-235.443 904.048,-229.297"/>
</g>
<!-- Node3 -->
<g id="node3" class="node"><title>Node3</title>
<polygon fill="white" stroke="#bfbfbf" points="626,-170.5 626,-189.5 658,-189.5 658,-170.5 626,-170.5"/>
<text text-anchor="middle" x="642" y="-177.5" font-family="Helvetica,sans-Serif" font-size="10.00">Tab</text>
</g>
<!-- Node3&#45;&gt;Node2 -->
<g id="edge2" class="edge"><title>Node3&#45;&gt;Node2</title>
<path fill="none" stroke="midnightblue" d="M668.229,-184.15C704.037,-190.041 770.545,-200.981 818.265,-208.832"/>
<polygon fill="midnightblue" stroke="midnightblue" points="668.592,-180.663 658.157,-182.493 667.456,-187.57 668.592,-180.663"/>
</g>
<!-- Node4 -->
<g id="node4" class="node"><title>Node4</title>
<g id="a_node4"><a xlink:href="../../d2/dfc/interfacefeatures_1_1_feature.html" target="_top" xlink:title="features.Feature">
<polygon fill="white" stroke="black" points="594.5,-132.5 594.5,-151.5 689.5,-151.5 689.5,-132.5 594.5,-132.5"/>
<text text-anchor="middle" x="642" y="-139.5" font-family="Helvetica,sans-Serif" font-size="10.00">features.Feature</text>
</a>
</g>
</g>
<!-- Node4&#45;&gt;Node2 -->
<g id="edge3" class="edge"><title>Node4&#45;&gt;Node2</title>
<path fill="none" stroke="midnightblue" d="M690.826,-154.232C698.602,-156.383 706.547,-158.679 714,-161 762.426,-176.078 818.006,-196.626 849.267,-208.487"/>
<polygon fill="midnightblue" stroke="midnightblue" points="691.683,-150.838 681.115,-151.593 689.848,-157.593 691.683,-150.838"/>
</g>
<!-- Node5 -->
<g id="node5" class="node"><title>Node5</title>
<polygon fill="white" stroke="#bfbfbf" points="621.5,-284.5 621.5,-303.5 662.5,-303.5 662.5,-284.5 621.5,-284.5"/>
<text text-anchor="middle" x="642" y="-291.5" font-family="Helvetica,sans-Serif" font-size="10.00">VBox</text>
</g>
<!-- Node5&#45;&gt;Node2 -->
<g id="edge4" class="edge"><title>Node5&#45;&gt;Node2</title>
<path fill="none" stroke="#9a32cd" stroke-dasharray="5,2" d="M672.951,-289.939C705.1,-284.984 757.306,-275.199 800,-259 821.834,-250.716 845.092,-236.906 859.583,-227.63"/>
<polygon fill="#9a32cd" stroke="#9a32cd" points="672.237,-286.507 662.859,-291.437 673.265,-293.431 672.237,-286.507"/>
<text text-anchor="middle" x="766" y="-282" font-family="Helvetica,sans-Serif" font-size="10.00"> myDrawer</text>
</g>
<!-- Node6 -->
<g id="node6" class="node"><title>Node6</title>
<g id="a_node6"><a xlink:href="../../d7/da1/classmain_application_1_1_controller.html" target="_top" xlink:title="mainApplication.Controller">
<polygon fill="white" stroke="black" points="570.5,-94.5 570.5,-113.5 713.5,-113.5 713.5,-94.5 570.5,-94.5"/>
<text text-anchor="middle" x="642" y="-101.5" font-family="Helvetica,sans-Serif" font-size="10.00">mainApplication.Controller</text>
</a>
</g>
</g>
<!-- Node6&#45;&gt;Node2 -->
<g id="edge5" class="edge"><title>Node6&#45;&gt;Node2</title>
<path fill="none" stroke="#9a32cd" stroke-dasharray="5,2" d="M701.044,-115.953C731.825,-123.867 769.48,-136.138 800,-154 826.094,-169.272 851.677,-194.248 864.844,-208.05"/>
<polygon fill="#9a32cd" stroke="#9a32cd" points="701.858,-112.549 691.309,-113.535 700.17,-119.343 701.858,-112.549"/>
<text text-anchor="middle" x="766" y="-157" font-family="Helvetica,sans-Serif" font-size="10.00"> myController</text>
</g>
<!-- Node7 -->
<g id="node7" class="node"><title>Node7</title>
<g id="a_node7"><a xlink:href="../../d6/d95/classparser_1_1_parser.html" target="_top" xlink:title="parser.Parser">
<polygon fill="white" stroke="black" points="338,-45.5 338,-64.5 418,-64.5 418,-45.5 338,-45.5"/>
<text text-anchor="middle" x="378" y="-52.5" font-family="Helvetica,sans-Serif" font-size="10.00">parser.Parser</text>
</a>
</g>
</g>
<!-- Node7&#45;&gt;Node6 -->
<g id="edge6" class="edge"><title>Node7&#45;&gt;Node6</title>
<path fill="none" stroke="#9a32cd" stroke-dasharray="5,2" d="M428.284,-64.2173C474.411,-72.8441 543.042,-85.6795 589.784,-94.4214"/>
<polygon fill="#9a32cd" stroke="#9a32cd" points="428.697,-60.7339 418.224,-62.3358 427.41,-67.6146 428.697,-60.7339"/>
<text text-anchor="middle" x="514" y="-90" font-family="Helvetica,sans-Serif" font-size="10.00"> myParser</text>
</g>
<!-- Node8 -->
<g id="node8" class="node"><title>Node8</title>
<polygon fill="white" stroke="#bfbfbf" points="36.5,-0.5 36.5,-19.5 129.5,-19.5 129.5,-0.5 36.5,-0.5"/>
<text text-anchor="middle" x="83" y="-7.5" font-family="Helvetica,sans-Serif" font-size="10.00">ResourceBundle</text>
</g>
<!-- Node8&#45;&gt;Node7 -->
<g id="edge7" class="edge"><title>Node8&#45;&gt;Node7</title>
<path fill="none" stroke="#9a32cd" stroke-dasharray="5,2" d="M140.036,-12.9648C179.42,-15.6486 233.217,-20.5226 280,-29 302.645,-33.1034 327.727,-39.8878 346.712,-45.4974"/>
<polygon fill="#9a32cd" stroke="#9a32cd" points="140.046,-9.458 129.839,-12.2967 139.588,-16.443 140.046,-9.458"/>
<text text-anchor="middle" x="232" y="-43" font-family="Helvetica,sans-Serif" font-size="10.00"> myCommands</text>
<text text-anchor="middle" x="232" y="-32" font-family="Helvetica,sans-Serif" font-size="10.00">myLanguage</text>
</g>
<!-- Node9 -->
<g id="node9" class="node"><title>Node9</title>
<polygon fill="white" stroke="#bfbfbf" points="26,-45.5 26,-64.5 140,-64.5 140,-45.5 26,-45.5"/>
<text text-anchor="middle" x="83" y="-52.5" font-family="Helvetica,sans-Serif" font-size="10.00">List&lt; parser.Node &gt;</text>
</g>
<!-- Node9&#45;&gt;Node7 -->
<g id="edge8" class="edge"><title>Node9&#45;&gt;Node7</title>
<path fill="none" stroke="#9a32cd" stroke-dasharray="5,2" d="M150.287,-55C208.096,-55 289.998,-55 337.901,-55"/>
<polygon fill="#9a32cd" stroke="#9a32cd" points="150.147,-51.5001 140.147,-55 150.147,-58.5001 150.147,-51.5001"/>
<text text-anchor="middle" x="232" y="-58" font-family="Helvetica,sans-Serif" font-size="10.00"> myTreeHeads</text>
</g>
<!-- Node10 -->
<g id="node10" class="node"><title>Node10</title>
<polygon fill="white" stroke="#bfbfbf" points="298,-94.5 298,-113.5 458,-113.5 458,-94.5 298,-94.5"/>
<text text-anchor="middle" x="378" y="-101.5" font-family="Helvetica,sans-Serif" font-size="10.00">List&lt; workspace.Workspace &gt;</text>
</g>
<!-- Node10&#45;&gt;Node6 -->
<g id="edge9" class="edge"><title>Node10&#45;&gt;Node6</title>
<path fill="none" stroke="#9a32cd" stroke-dasharray="5,2" d="M468.509,-104C501.787,-104 539.05,-104 570.402,-104"/>
<polygon fill="#9a32cd" stroke="#9a32cd" points="468.32,-100.5 458.32,-104 468.32,-107.5 468.32,-100.5"/>
<text text-anchor="middle" x="514" y="-107" font-family="Helvetica,sans-Serif" font-size="10.00"> myWorkspaces</text>
</g>
<!-- Node11 -->
<g id="node11" class="node"><title>Node11</title>
<g id="a_node11"><a xlink:href="../../de/d19/classworkspace_1_1_workspace.html" target="_top" xlink:title="workspace.Workspace">
<polygon fill="white" stroke="black" points="317.5,-178.5 317.5,-197.5 438.5,-197.5 438.5,-178.5 317.5,-178.5"/>
<text text-anchor="middle" x="378" y="-185.5" font-family="Helvetica,sans-Serif" font-size="10.00">workspace.Workspace</text>
</a>
</g>
</g>
<!-- Node11&#45;&gt;Node6 -->
<g id="edge10" class="edge"><title>Node11&#45;&gt;Node6</title>
<path fill="none" stroke="#9a32cd" stroke-dasharray="5,2" d="M415.042,-174.934C453.271,-161.263 515.542,-139.533 570,-123 580.745,-119.738 592.492,-116.474 603.283,-113.594"/>
<polygon fill="#9a32cd" stroke="#9a32cd" points="413.623,-171.724 405.392,-178.396 415.987,-178.313 413.623,-171.724"/>
<text text-anchor="middle" x="514" y="-156" font-family="Helvetica,sans-Serif" font-size="10.00"> myActiveWS</text>
</g>
<!-- Node12 -->
<g id="node12" class="node"><title>Node12</title>
<polygon fill="white" stroke="#bfbfbf" points="47.5,-235.5 47.5,-254.5 118.5,-254.5 118.5,-235.5 47.5,-235.5"/>
<text text-anchor="middle" x="83" y="-242.5" font-family="Helvetica,sans-Serif" font-size="10.00">Observable</text>
</g>
<!-- Node12&#45;&gt;Node11 -->
<g id="edge11" class="edge"><title>Node12&#45;&gt;Node11</title>
<path fill="none" stroke="midnightblue" d="M128.779,-238.449C168.623,-232.385 228.406,-222.71 280,-212 300.383,-207.769 322.971,-202.231 341.217,-197.541"/>
<polygon fill="midnightblue" stroke="midnightblue" points="128.211,-234.995 118.846,-239.949 129.256,-241.916 128.211,-234.995"/>
</g>
<!-- Node13 -->
<g id="node13" class="node"><title>Node13</title>
<polygon fill="white" stroke="#bfbfbf" points="53,-197.5 53,-216.5 113,-216.5 113,-197.5 53,-197.5"/>
<text text-anchor="middle" x="83" y="-204.5" font-family="Helvetica,sans-Serif" font-size="10.00">Observer</text>
</g>
<!-- Node13&#45;&gt;Node11 -->
<g id="edge12" class="edge"><title>Node13&#45;&gt;Node11</title>
<path fill="none" stroke="midnightblue" d="M123.211,-204.457C173.005,-201.228 259.402,-195.626 317.379,-191.866"/>
<polygon fill="midnightblue" stroke="midnightblue" points="122.918,-200.969 113.165,-205.109 123.371,-207.954 122.918,-200.969"/>
</g>
<!-- Node14 -->
<g id="node14" class="node"><title>Node14</title>
<polygon fill="white" stroke="#bfbfbf" points="21,-159.5 21,-178.5 145,-178.5 145,-159.5 21,-159.5"/>
<text text-anchor="middle" x="83" y="-166.5" font-family="Helvetica,sans-Serif" font-size="10.00">Map&lt; Integer, Color &gt;</text>
</g>
<!-- Node14&#45;&gt;Node11 -->
<g id="edge13" class="edge"><title>Node14&#45;&gt;Node11</title>
<path fill="none" stroke="#9a32cd" stroke-dasharray="5,2" d="M155.605,-172.567C192.737,-174.531 238.822,-177.147 280,-180 292.053,-180.835 304.94,-181.828 317.254,-182.825"/>
<polygon fill="#9a32cd" stroke="#9a32cd" points="155.55,-169.06 145.381,-172.031 155.184,-176.05 155.55,-169.06"/>
<text text-anchor="middle" x="232" y="-183" font-family="Helvetica,sans-Serif" font-size="10.00"> myColors</text>
</g>
<!-- Node15 -->
<g id="node15" class="node"><title>Node15</title>
<polygon fill="white" stroke="#bfbfbf" points="0,-318 0,-348 166,-348 166,-318 0,-318"/>
<text text-anchor="start" x="8" y="-336" font-family="Helvetica,sans-Serif" font-size="10.00">Map&lt; String, parser.Command</text>
<text text-anchor="middle" x="83" y="-325" font-family="Helvetica,sans-Serif" font-size="10.00">Object &gt;</text>
</g>
<!-- Node15&#45;&gt;Node1 -->
<g id="edge20" class="edge"><title>Node15&#45;&gt;Node1</title>
<path fill="none" stroke="#9a32cd" stroke-dasharray="5,2" d="M176.268,-336.333C233.953,-338.137 309.799,-340 377,-340 377,-340 377,-340 876,-340 923.597,-340 977.212,-323.491 1007.57,-312.528"/>
<polygon fill="#9a32cd" stroke="#9a32cd" points="176.186,-332.829 166.08,-336.009 175.964,-339.825 176.186,-332.829"/>
<text text-anchor="middle" x="642" y="-343" font-family="Helvetica,sans-Serif" font-size="10.00"> myCommandMap</text>
</g>
<!-- Node15&#45;&gt;Node11 -->
<g id="edge14" class="edge"><title>Node15&#45;&gt;Node11</title>
<path fill="none" stroke="#9a32cd" stroke-dasharray="5,2" d="M173.608,-315.382C208.225,-306.336 247.291,-293.271 280,-275 317.919,-253.819 353.522,-215.472 368.954,-197.622"/>
<polygon fill="#9a32cd" stroke="#9a32cd" points="172.331,-312.095 163.497,-317.945 174.05,-318.881 172.331,-312.095"/>
<text text-anchor="middle" x="232" y="-315" font-family="Helvetica,sans-Serif" font-size="10.00"> myCommands</text>
</g>
<!-- Node16 -->
<g id="node16" class="node"><title>Node16</title>
<g id="a_node16"><a xlink:href="../../de/d1c/classproperties_1_1_stage_properties.html" target="_top" xlink:title="properties.StageProperties">
<polygon fill="white" stroke="black" points="10,-121.5 10,-140.5 156,-140.5 156,-121.5 10,-121.5"/>
<text text-anchor="middle" x="83" y="-128.5" font-family="Helvetica,sans-Serif" font-size="10.00">properties.StageProperties</text>
</a>
</g>
</g>
<!-- Node16&#45;&gt;Node11 -->
<g id="edge15" class="edge"><title>Node16&#45;&gt;Node11</title>
<path fill="none" stroke="#9a32cd" stroke-dasharray="5,2" d="M166.333,-140.682C201.54,-145.467 242.981,-151.956 280,-160 302.952,-164.987 328.453,-172.425 347.546,-178.381"/>
<polygon fill="#9a32cd" stroke="#9a32cd" points="166.474,-137.17 156.099,-139.315 165.547,-144.108 166.474,-137.17"/>
<text text-anchor="middle" x="232" y="-163" font-family="Helvetica,sans-Serif" font-size="10.00"> myStageProperties</text>
</g>
<!-- Node17 -->
<g id="node17" class="node"><title>Node17</title>
<polygon fill="white" stroke="#bfbfbf" points="19,-83.5 19,-102.5 147,-102.5 147,-83.5 19,-83.5"/>
<text text-anchor="middle" x="83" y="-90.5" font-family="Helvetica,sans-Serif" font-size="10.00">Map&lt; String, Double &gt;</text>
</g>
<!-- Node17&#45;&gt;Node11 -->
<g id="edge16" class="edge"><title>Node17&#45;&gt;Node11</title>
<path fill="none" stroke="#9a32cd" stroke-dasharray="5,2" d="M157.716,-100.084C195.216,-105.287 240.992,-114.137 280,-129 312.786,-141.493 346.874,-165.137 364.603,-178.385"/>
<polygon fill="#9a32cd" stroke="#9a32cd" points="157.744,-96.5571 147.371,-98.7112 156.823,-103.496 157.744,-96.5571"/>
<text text-anchor="middle" x="232" y="-132" font-family="Helvetica,sans-Serif" font-size="10.00"> myVariables</text>
</g>
<!-- Node18 -->
<g id="node18" class="node"><title>Node18</title>
<polygon fill="white" stroke="#bfbfbf" points="7,-273.5 7,-292.5 159,-292.5 159,-273.5 7,-273.5"/>
<text text-anchor="middle" x="83" y="-280.5" font-family="Helvetica,sans-Serif" font-size="10.00">Map&lt; Integer, actor.Turtle &gt;</text>
</g>
<!-- Node18&#45;&gt;Node11 -->
<g id="edge17" class="edge"><title>Node18&#45;&gt;Node11</title>
<path fill="none" stroke="#9a32cd" stroke-dasharray="5,2" d="M135.984,-271.132C145.956,-268.805 156.309,-266.355 166,-264 216.802,-251.654 230.892,-252.934 280,-235 309.003,-224.408 340.915,-207.945 359.938,-197.579"/>
<polygon fill="#9a32cd" stroke="#9a32cd" points="135.127,-267.738 126.178,-273.409 136.711,-274.556 135.127,-267.738"/>
<text text-anchor="middle" x="232" y="-263" font-family="Helvetica,sans-Serif" font-size="10.00"> myTurtles</text>
</g>
<!-- Node19 -->
<g id="node19" class="node"><title>Node19</title>
<polygon fill="white" stroke="#bfbfbf" points="609,-246.5 609,-265.5 675,-265.5 675,-246.5 609,-246.5"/>
<text text-anchor="middle" x="642" y="-253.5" font-family="Helvetica,sans-Serif" font-size="10.00">ScrollPane</text>
</g>
<!-- Node19&#45;&gt;Node2 -->
<g id="edge18" class="edge"><title>Node19&#45;&gt;Node2</title>
<path fill="none" stroke="#9a32cd" stroke-dasharray="5,2" d="M685.479,-250.416C717.124,-246.1 761.355,-239.742 800,-233 809.427,-231.355 819.495,-229.429 829.071,-227.515"/>
<polygon fill="#9a32cd" stroke="#9a32cd" points="684.696,-246.989 675.256,-251.798 685.634,-253.926 684.696,-246.989"/>
<text text-anchor="middle" x="766" y="-247" font-family="Helvetica,sans-Serif" font-size="10.00"> myScrollPane</text>
</g>
<!-- Node20 -->
<g id="node20" class="node"><title>Node20</title>
<polygon fill="white" stroke="#bfbfbf" points="612.5,-208.5 612.5,-227.5 671.5,-227.5 671.5,-208.5 612.5,-208.5"/>
<text text-anchor="middle" x="642" y="-215.5" font-family="Helvetica,sans-Serif" font-size="10.00">GridPane</text>
</g>
<!-- Node20&#45;&gt;Node2 -->
<g id="edge19" class="edge"><title>Node20&#45;&gt;Node2</title>
<path fill="none" stroke="#9a32cd" stroke-dasharray="5,2" d="M682.262,-218C719.634,-218 776.253,-218 818.286,-218"/>
<polygon fill="#9a32cd" stroke="#9a32cd" points="681.789,-214.5 671.789,-218 681.789,-221.5 681.789,-214.5"/>
<text text-anchor="middle" x="766" y="-221" font-family="Helvetica,sans-Serif" font-size="10.00"> myTextPane</text>
</g>
</g>
</svg>
