<?xml version="1.0" encoding="UTF-8" standalone="no"?>
<!DOCTYPE svg PUBLIC "-//W3C//DTD SVG 1.1//EN"
 "http://www.w3.org/Graphics/SVG/1.1/DTD/svg11.dtd">
<!-- Generated by graphviz version 2.36.0 (20140111.2315)
 -->
<!-- Title: components.PaneFactory.makePane Pages: 1 -->
<svg width="940pt" height="102pt"
 viewBox="0.00 0.00 940.00 102.26" xmlns="http://www.w3.org/2000/svg" xmlns:xlink="http://www.w3.org/1999/xlink">
<g id="graph0" class="graph" transform="scale(1 1) rotate(0) translate(4 98.2605)">
<title>components.PaneFactory.makePane</title>
<polygon fill="white" stroke="none" points="-4,4 -4,-98.2605 936,-98.2605 936,4 -4,4"/>
<!-- Node1 -->
<g id="node1" class="node"><title>Node1</title>
<polygon fill="#bfbfbf" stroke="black" points="0.5,-54.5 0.5,-73.5 189.5,-73.5 189.5,-54.5 0.5,-54.5"/>
<text text-anchor="middle" x="95" y="-61.5" font-family="Helvetica,sans-Serif" font-size="10.00">components.PaneFactory.makePane</text>
</g>
<!-- Node2 -->
<g id="node2" class="node"><title>Node2</title>
<g id="a_node2"><a xlink:href="../../d3/de0/classmain_application_1_1_g_u_i.html#a5b9d9bebac3a8ce813b0134ecdafc66d" target="_top" xlink:title="mainApplication.GUI.load\lPanes">
<polygon fill="white" stroke="black" points="226.5,-49 226.5,-79 363.5,-79 363.5,-49 226.5,-49"/>
<text text-anchor="start" x="234.5" y="-67" font-family="Helvetica,sans-Serif" font-size="10.00">mainApplication.GUI.load</text>
<text text-anchor="middle" x="295" y="-56" font-family="Helvetica,sans-Serif" font-size="10.00">Panes</text>
</a>
</g>
</g>
<!-- Node1&#45;&gt;Node2 -->
<g id="edge1" class="edge"><title>Node1&#45;&gt;Node2</title>
<path fill="none" stroke="midnightblue" d="M199.875,-64C208.809,-64 217.69,-64 226.226,-64"/>
<polygon fill="midnightblue" stroke="midnightblue" points="199.781,-60.5001 189.781,-64 199.781,-67.5001 199.781,-60.5001"/>
</g>
<!-- Node3 -->
<g id="node3" class="node"><title>Node3</title>
<g id="a_node3"><a xlink:href="../../d3/de0/classmain_application_1_1_g_u_i.html#af6bd387013dbd1d1daf030117da66c0e" target="_top" xlink:title="mainApplication.GUI.initiate">
<polygon fill="white" stroke="black" points="400.5,-54.5 400.5,-73.5 549.5,-73.5 549.5,-54.5 400.5,-54.5"/>
<text text-anchor="middle" x="475" y="-61.5" font-family="Helvetica,sans-Serif" font-size="10.00">mainApplication.GUI.initiate</text>
</a>
</g>
</g>
<!-- Node2&#45;&gt;Node3 -->
<g id="edge2" class="edge"><title>Node2&#45;&gt;Node3</title>
<path fill="none" stroke="midnightblue" d="M373.782,-64C382.576,-64 391.518,-64 400.258,-64"/>
<polygon fill="midnightblue" stroke="midnightblue" points="373.548,-60.5001 363.548,-64 373.548,-67.5001 373.548,-60.5001"/>
</g>
<!-- Node4 -->
<g id="node4" class="node"><title>Node4</title>
<g id="a_node4"><a xlink:href="../../d3/d04/classmain_application_1_1_g_u_i_shell.html#ac525a3e483dbe24e5f9f0257fe54521d" target="_top" xlink:title="mainApplication.GUIShell.\lGUIShell">
<polygon fill="white" stroke="black" points="792,-49 792,-79 932,-79 932,-49 792,-49"/>
<text text-anchor="start" x="800" y="-67" font-family="Helvetica,sans-Serif" font-size="10.00">mainApplication.GUIShell.</text>
<text text-anchor="middle" x="862" y="-56" font-family="Helvetica,sans-Serif" font-size="10.00">GUIShell</text>
</a>
</g>
</g>
<!-- Node3&#45;&gt;Node4 -->
<g id="edge3" class="edge"><title>Node3&#45;&gt;Node4</title>
<path fill="none" stroke="midnightblue" d="M520.835,-76.0673C540.648,-80.8049 564.321,-85.6625 586,-88 661.12,-96.0997 680.921,-96.4712 756,-88 772.352,-86.155 789.869,-82.7425 805.818,-79.0582"/>
<polygon fill="midnightblue" stroke="midnightblue" points="521.404,-72.603 510.858,-73.6148 519.733,-79.4007 521.404,-72.603"/>
</g>
<!-- Node5 -->
<g id="node5" class="node"><title>Node5</title>
<g id="a_node5"><a xlink:href="../../d3/d04/classmain_application_1_1_g_u_i_shell.html#a9df214dfffdce7a39bc6ac5e84ca1f0f" target="_top" xlink:title="mainApplication.GUIShell.create\lNewButton">
<polygon fill="white" stroke="black" points="586,-49 586,-79 756,-79 756,-49 586,-49"/>
<text text-anchor="start" x="594" y="-67" font-family="Helvetica,sans-Serif" font-size="10.00">mainApplication.GUIShell.create</text>
<text text-anchor="middle" x="671" y="-56" font-family="Helvetica,sans-Serif" font-size="10.00">NewButton</text>
</a>
</g>
</g>
<!-- Node3&#45;&gt;Node5 -->
<g id="edge4" class="edge"><title>Node3&#45;&gt;Node5</title>
<path fill="none" stroke="midnightblue" d="M559.668,-64C568.298,-64 577.071,-64 585.708,-64"/>
<polygon fill="midnightblue" stroke="midnightblue" points="559.62,-60.5001 549.62,-64 559.62,-67.5001 559.62,-60.5001"/>
</g>
<!-- Node6 -->
<g id="node6" class="node"><title>Node6</title>
<g id="a_node6"><a xlink:href="../../d3/d04/classmain_application_1_1_g_u_i_shell.html#af2f106fa7786f13ccc0202db53b559b9" target="_top" xlink:title="mainApplication.GUIShell.create\lOpenButton">
<polygon fill="white" stroke="black" points="586,-0 586,-30 756,-30 756,-0 586,-0"/>
<text text-anchor="start" x="594" y="-18" font-family="Helvetica,sans-Serif" font-size="10.00">mainApplication.GUIShell.create</text>
<text text-anchor="middle" x="671" y="-7" font-family="Helvetica,sans-Serif" font-size="10.00">OpenButton</text>
</a>
</g>
</g>
<!-- Node3&#45;&gt;Node6 -->
<g id="edge6" class="edge"><title>Node3&#45;&gt;Node6</title>
<path fill="none" stroke="midnightblue" d="M523.566,-51.9858C549.779,-45.365 582.566,-37.0839 610.466,-30.037"/>
<polygon fill="midnightblue" stroke="midnightblue" points="522.704,-48.5936 513.866,-54.436 524.418,-55.3805 522.704,-48.5936"/>
</g>
<!-- Node5&#45;&gt;Node4 -->
<g id="edge5" class="edge"><title>Node5&#45;&gt;Node4</title>
<path fill="none" stroke="midnightblue" d="M766.359,-64C774.965,-64 783.572,-64 791.896,-64"/>
<polygon fill="midnightblue" stroke="midnightblue" points="766.274,-60.5001 756.274,-64 766.274,-67.5001 766.274,-60.5001"/>
</g>
<!-- Node6&#45;&gt;Node4 -->
<g id="edge7" class="edge"><title>Node6&#45;&gt;Node4</title>
<path fill="none" stroke="midnightblue" d="M739.692,-32.5498C760.447,-37.9306 783.082,-43.799 803.119,-48.9938"/>
<polygon fill="midnightblue" stroke="midnightblue" points="740.549,-29.1563 729.991,-30.0346 738.792,-35.9323 740.549,-29.1563"/>
</g>
</g>
</svg>
