<?xml version="1.0" encoding="UTF-8" standalone="no"?>
<!DOCTYPE svg PUBLIC "-//W3C//DTD SVG 1.1//EN"
 "http://www.w3.org/Graphics/SVG/1.1/DTD/svg11.dtd">
<!-- Generated by graphviz version 2.36.0 (20140111.2315)
 -->
<!-- Title: parser.CommandObject Pages: 1 -->
<svg width="227pt" height="96pt"
 viewBox="0.00 0.00 227.00 96.00" xmlns="http://www.w3.org/2000/svg" xmlns:xlink="http://www.w3.org/1999/xlink">
<g id="graph0" class="graph" transform="scale(1 1) rotate(0) translate(4 92)">
<title>parser.CommandObject</title>
<polygon fill="white" stroke="none" points="-4,4 -4,-92 223,-92 223,4 -4,4"/>
<!-- Node1 -->
<g id="node1" class="node"><title>Node1</title>
<polygon fill="#bfbfbf" stroke="black" points="34.5,-0.5 34.5,-19.5 165.5,-19.5 165.5,-0.5 34.5,-0.5"/>
<text text-anchor="middle" x="100" y="-7.5" font-family="Helvetica,sans-Serif" font-size="10.00">parser.CommandObject</text>
</g>
<!-- Node2 -->
<g id="node2" class="node"><title>Node2</title>
<polygon fill="white" stroke="#bfbfbf" points="0,-68.5 0,-87.5 84,-87.5 84,-68.5 0,-68.5"/>
<text text-anchor="middle" x="42" y="-75.5" font-family="Helvetica,sans-Serif" font-size="10.00">List&lt; String &gt;</text>
</g>
<!-- Node2&#45;&gt;Node1 -->
<g id="edge1" class="edge"><title>Node2&#45;&gt;Node1</title>
<path fill="none" stroke="#9a32cd" stroke-dasharray="5,2" d="M52.0751,-59.6613C56.5397,-52.6126 62.1121,-44.5929 68,-38 74.1007,-31.1688 81.948,-24.5214 88.3447,-19.5316"/>
<polygon fill="#9a32cd" stroke="#9a32cd" points="48.9405,-58.0804 46.7482,-68.4459 54.9261,-61.71 48.9405,-58.0804"/>
<text text-anchor="middle" x="102.5" y="-41.5" font-family="Helvetica,sans-Serif" font-size="10.00"> myVarNames</text>
</g>
<!-- Node3 -->
<g id="node3" class="node"><title>Node3</title>
<polygon fill="white" stroke="#bfbfbf" points="102,-68.5 102,-87.5 216,-87.5 216,-68.5 102,-68.5"/>
<text text-anchor="middle" x="159" y="-75.5" font-family="Helvetica,sans-Serif" font-size="10.00">List&lt; parser.Node &gt;</text>
</g>
<!-- Node3&#45;&gt;Node1 -->
<g id="edge2" class="edge"><title>Node3&#45;&gt;Node1</title>
<path fill="none" stroke="#9a32cd" stroke-dasharray="5,2" d="M150.849,-58.8943C147.204,-51.9244 142.485,-44.166 137,-38 130.658,-30.8701 122.131,-24.4919 114.862,-19.7273"/>
<polygon fill="#9a32cd" stroke="#9a32cd" points="147.878,-60.789 155.385,-68.2646 154.178,-57.7388 147.878,-60.789"/>
<text text-anchor="middle" x="182" y="-41.5" font-family="Helvetica,sans-Serif" font-size="10.00"> myCommands</text>
</g>
</g>
</svg>
