<?xml version="1.0" encoding="UTF-8" standalone="no"?>
<!DOCTYPE svg PUBLIC "-//W3C//DTD SVG 1.1//EN"
 "http://www.w3.org/Graphics/SVG/1.1/DTD/svg11.dtd">
<!-- Generated by graphviz version 2.36.0 (20140111.2315)
 -->
<!-- Title: command.BasicListCommand Pages: 1 -->
<!--zoomable 313 -->
<svg id="main" version="1.1" xmlns="http://www.w3.org/2000/svg" xmlns:xlink="http://www.w3.org/1999/xlink" xml:space="preserve" onload="init(evt)">
<style type="text/css"><![CDATA[
.edge:hover path { stroke: red; }
.edge:hover polygon { stroke: red; fill: red; }
]]></style>
<script type="text/javascript"><![CDATA[
var edges = document.getElementsByTagName('g');
if (edges && edges.length) {
  for (var i=0;i<edges.length;i++) {
    if (edges[i].id.substr(0,4)=='edge') {
      edges[i].setAttribute('class','edge');
    }
  }
}
]]></script>
        <defs>
                <circle id="rim" cx="0" cy="0" r="7"/>
                <circle id="rim2" cx="0" cy="0" r="3.5"/>
                <g id="zoomPlus">
                        <use xlink:href="#rim" fill="#404040">
                                <set attributeName="fill" to="#808080" begin="zoomplus.mouseover" end="zoomplus.mouseout"/>
                        </use>
                        <path d="M-4,0h8M0,-4v8" fill="none" stroke="white" stroke-width="1.5" pointer-events="none"/>
                </g>
                <g id="zoomMin">
                        <use xlink:href="#rim" fill="#404040">
                                <set attributeName="fill" to="#808080" begin="zoomminus.mouseover" end="zoomminus.mouseout"/>
                        </use>
                        <path d="M-4,0h8" fill="none" stroke="white" stroke-width="1.5" pointer-events="none"/>
                </g>
                <g id="dirArrow">
                        <path fill="none" stroke="white" stroke-width="1.5" d="M0,-3.0v7 M-2.5,-0.5L0,-3.0L2.5,-0.5"/>
                </g>
               <g id="resetDef">
                       <use xlink:href="#rim2" fill="#404040">
                               <set attributeName="fill" to="#808080" begin="reset.mouseover" end="reset.mouseout"/>
                       </use>
               </g>
        </defs>

<script type="text/javascript">
var viewWidth = 752;
var viewHeight = 313;
var sectionId = 'dynsection-0';
</script>
<script xlink:href="../../svgpan.js"/>
<svg id="graph" class="graph">
<g id="viewport">
<title>command.BasicListCommand</title>
<polygon fill="white" stroke="none" points="-4,4 -4,-309 748,-309 748,4 -4,4"/>
<!-- Node1 -->
<g id="node1" class="node"><title>Node1</title>
<polygon fill="#bfbfbf" stroke="black" points="156.5,-76.5 156.5,-95.5 317.5,-95.5 317.5,-76.5 156.5,-76.5"/>
<text text-anchor="middle" x="237" y="-83.5" font-family="Helvetica,sans-Serif" font-size="10.00">command.BasicListCommand</text>
</g>
<!-- Node3 -->
<g id="node3" class="node"><title>Node3</title>
<g id="a_node3"><a xlink:href="../../dd/d2f/classcommand_1_1_base_make_variable_command.html" target="_top" xlink:title="command.BaseMakeVariable\lCommand">
<polygon fill="white" stroke="black" points="372,-204 372,-234 528,-234 528,-204 372,-204"/>
<text text-anchor="start" x="380" y="-222" font-family="Helvetica,sans-Serif" font-size="10.00">command.BaseMakeVariable</text>
<text text-anchor="middle" x="450" y="-211" font-family="Helvetica,sans-Serif" font-size="10.00">Command</text>
</a>
</g>
</g>
<!-- Node1&#45;&gt;Node3 -->
<g id="edge2" class="edge"><title>Node1&#45;&gt;Node3</title>
<path fill="none" stroke="midnightblue" d="M261.85,-101.034C302.359,-126.567 384.161,-178.13 424.863,-203.786"/>
<polygon fill="midnightblue" stroke="midnightblue" points="263.501,-97.9366 253.175,-95.565 259.768,-103.858 263.501,-97.9366"/>
</g>
<!-- Node8 -->
<g id="node8" class="node"><title>Node8</title>
<g id="a_node8"><a xlink:href="../../db/d0a/classcommand_1_1_base_multi_turtle_command.html" target="_top" xlink:title="command.BaseMultiTurtleCommand">
<polygon fill="white" stroke="black" points="354.5,-114.5 354.5,-133.5 545.5,-133.5 545.5,-114.5 354.5,-114.5"/>
<text text-anchor="middle" x="450" y="-121.5" font-family="Helvetica,sans-Serif" font-size="10.00">command.BaseMultiTurtleCommand</text>
</a>
</g>
</g>
<!-- Node1&#45;&gt;Node8 -->
<g id="edge7" class="edge"><title>Node1&#45;&gt;Node8</title>
<path fill="none" stroke="midnightblue" d="M301.005,-97.347C331.279,-102.799 367.158,-109.261 396.006,-114.456"/>
<polygon fill="midnightblue" stroke="midnightblue" points="301.434,-93.8679 290.972,-95.54 300.193,-100.757 301.434,-93.8679"/>
</g>
<!-- Node12 -->
<g id="node12" class="node"><title>Node12</title>
<g id="a_node12"><a xlink:href="../../d6/d41/classcommand_1_1_if_command.html" target="_top" xlink:title="command.IfCommand">
<polygon fill="white" stroke="black" points="388,-76.5 388,-95.5 512,-95.5 512,-76.5 388,-76.5"/>
<text text-anchor="middle" x="450" y="-83.5" font-family="Helvetica,sans-Serif" font-size="10.00">command.IfCommand</text>
</a>
</g>
</g>
<!-- Node1&#45;&gt;Node12 -->
<g id="edge11" class="edge"><title>Node1&#45;&gt;Node12</title>
<path fill="none" stroke="midnightblue" d="M327.936,-86C348.154,-86 369.152,-86 387.87,-86"/>
<polygon fill="midnightblue" stroke="midnightblue" points="327.77,-82.5001 317.77,-86 327.77,-89.5001 327.77,-82.5001"/>
</g>
<!-- Node13 -->
<g id="node13" class="node"><title>Node13</title>
<g id="a_node13"><a xlink:href="../../d4/de4/classcommand_1_1_if_else_command.html" target="_top" xlink:title="command.IfElseCommand">
<polygon fill="white" stroke="black" points="378.5,-38.5 378.5,-57.5 521.5,-57.5 521.5,-38.5 378.5,-38.5"/>
<text text-anchor="middle" x="450" y="-45.5" font-family="Helvetica,sans-Serif" font-size="10.00">command.IfElseCommand</text>
</a>
</g>
</g>
<!-- Node1&#45;&gt;Node13 -->
<g id="edge12" class="edge"><title>Node1&#45;&gt;Node13</title>
<path fill="none" stroke="midnightblue" d="M301.005,-74.653C331.279,-69.2009 367.158,-62.7393 396.006,-57.5439"/>
<polygon fill="midnightblue" stroke="midnightblue" points="300.193,-71.2429 290.972,-76.46 301.434,-78.1321 300.193,-71.2429"/>
</g>
<!-- Node14 -->
<g id="node14" class="node"><title>Node14</title>
<g id="a_node14"><a xlink:href="../../d1/df3/classcommand_1_1_to_command.html" target="_top" xlink:title="command.ToCommand">
<polygon fill="white" stroke="black" points="386,-0.5 386,-19.5 514,-19.5 514,-0.5 386,-0.5"/>
<text text-anchor="middle" x="450" y="-7.5" font-family="Helvetica,sans-Serif" font-size="10.00">command.ToCommand</text>
</a>
</g>
</g>
<!-- Node1&#45;&gt;Node14 -->
<g id="edge13" class="edge"><title>Node1&#45;&gt;Node14</title>
<path fill="none" stroke="midnightblue" d="M262.679,-71.5235C285.63,-58.6377 321.13,-40.151 354,-29 365.15,-25.2175 377.305,-22.083 389.082,-19.5249"/>
<polygon fill="midnightblue" stroke="midnightblue" points="260.905,-68.5063 253.948,-76.4968 264.369,-74.5888 260.905,-68.5063"/>
</g>
<!-- Node2 -->
<g id="node2" class="node"><title>Node2</title>
<g id="a_node2"><a xlink:href="../../d7/d35/classcommand_1_1_command.html" target="_top" xlink:title="command.Command">
<polygon fill="white" stroke="black" points="0.5,-76.5 0.5,-95.5 119.5,-95.5 119.5,-76.5 0.5,-76.5"/>
<text text-anchor="middle" x="60" y="-83.5" font-family="Helvetica,sans-Serif" font-size="10.00">command.Command</text>
</a>
</g>
</g>
<!-- Node2&#45;&gt;Node1 -->
<g id="edge1" class="edge"><title>Node2&#45;&gt;Node1</title>
<path fill="none" stroke="midnightblue" d="M129.807,-86C138.486,-86 147.422,-86 156.251,-86"/>
<polygon fill="midnightblue" stroke="midnightblue" points="129.759,-82.5001 119.759,-86 129.759,-89.5001 129.759,-82.5001"/>
</g>
<!-- Node4 -->
<g id="node4" class="node"><title>Node4</title>
<g id="a_node4"><a xlink:href="../../da/dfa/classcommand_1_1_do_times_command.html" target="_top" xlink:title="command.DoTimesCommand">
<polygon fill="white" stroke="black" points="582.5,-285.5 582.5,-304.5 743.5,-304.5 743.5,-285.5 582.5,-285.5"/>
<text text-anchor="middle" x="663" y="-292.5" font-family="Helvetica,sans-Serif" font-size="10.00">command.DoTimesCommand</text>
</a>
</g>
</g>
<!-- Node3&#45;&gt;Node4 -->
<g id="edge3" class="edge"><title>Node3&#45;&gt;Node4</title>
<path fill="none" stroke="midnightblue" d="M490.731,-238.484C516.338,-250.488 550.6,-265.532 582,-276 592.699,-279.567 604.413,-282.741 615.496,-285.426"/>
<polygon fill="midnightblue" stroke="midnightblue" points="491.901,-235.165 481.365,-234.048 488.904,-241.491 491.901,-235.165"/>
</g>
<!-- Node5 -->
<g id="node5" class="node"><title>Node5</title>
<g id="a_node5"><a xlink:href="../../dc/d6b/classcommand_1_1_for_command.html" target="_top" xlink:title="command.ForCommand">
<polygon fill="white" stroke="black" points="596,-247.5 596,-266.5 730,-266.5 730,-247.5 596,-247.5"/>
<text text-anchor="middle" x="663" y="-254.5" font-family="Helvetica,sans-Serif" font-size="10.00">command.ForCommand</text>
</a>
</g>
</g>
<!-- Node3&#45;&gt;Node5 -->
<g id="edge4" class="edge"><title>Node3&#45;&gt;Node5</title>
<path fill="none" stroke="midnightblue" d="M537.969,-234.663C562.133,-239.014 587.635,-243.607 609.19,-247.489"/>
<polygon fill="midnightblue" stroke="midnightblue" points="538.534,-231.208 528.071,-232.88 537.293,-238.097 538.534,-231.208"/>
</g>
<!-- Node6 -->
<g id="node6" class="node"><title>Node6</title>
<g id="a_node6"><a xlink:href="../../d4/d11/classcommand_1_1_repeat_command.html" target="_top" xlink:title="command.RepeatCommand">
<polygon fill="white" stroke="black" points="587,-209.5 587,-228.5 739,-228.5 739,-209.5 587,-209.5"/>
<text text-anchor="middle" x="663" y="-216.5" font-family="Helvetica,sans-Serif" font-size="10.00">command.RepeatCommand</text>
</a>
</g>
</g>
<!-- Node3&#45;&gt;Node6 -->
<g id="edge5" class="edge"><title>Node3&#45;&gt;Node6</title>
<path fill="none" stroke="midnightblue" d="M538.072,-219C554.28,-219 571.087,-219 586.898,-219"/>
<polygon fill="midnightblue" stroke="midnightblue" points="538.072,-215.5 528.071,-219 538.071,-222.5 538.072,-215.5"/>
</g>
<!-- Node7 -->
<g id="node7" class="node"><title>Node7</title>
<g id="a_node7"><a xlink:href="../../dc/da4/classcommand_1_1_stored_command.html" target="_top" xlink:title="command.StoredCommand">
<polygon fill="white" stroke="black" points="587.5,-171.5 587.5,-190.5 738.5,-190.5 738.5,-171.5 587.5,-171.5"/>
<text text-anchor="middle" x="663" y="-178.5" font-family="Helvetica,sans-Serif" font-size="10.00">command.StoredCommand</text>
</a>
</g>
</g>
<!-- Node3&#45;&gt;Node7 -->
<g id="edge6" class="edge"><title>Node3&#45;&gt;Node7</title>
<path fill="none" stroke="midnightblue" d="M537.969,-203.337C562.133,-198.986 587.635,-194.393 609.19,-190.511"/>
<polygon fill="midnightblue" stroke="midnightblue" points="537.293,-199.903 528.071,-205.12 538.534,-206.792 537.293,-199.903"/>
</g>
<!-- Node9 -->
<g id="node9" class="node"><title>Node9</title>
<g id="a_node9"><a xlink:href="../../db/d24/classcommand_1_1_ask_command.html" target="_top" xlink:title="command.AskCommand">
<polygon fill="white" stroke="black" points="595,-133.5 595,-152.5 731,-152.5 731,-133.5 595,-133.5"/>
<text text-anchor="middle" x="663" y="-140.5" font-family="Helvetica,sans-Serif" font-size="10.00">command.AskCommand</text>
</a>
</g>
</g>
<!-- Node8&#45;&gt;Node9 -->
<g id="edge8" class="edge"><title>Node8&#45;&gt;Node9</title>
<path fill="none" stroke="midnightblue" d="M555.81,-133.438C569.055,-134.631 582.313,-135.824 594.752,-136.944"/>
<polygon fill="midnightblue" stroke="midnightblue" points="555.973,-129.938 545.699,-132.527 555.345,-136.91 555.973,-129.938"/>
</g>
<!-- Node10 -->
<g id="node10" class="node"><title>Node10</title>
<g id="a_node10"><a xlink:href="../../dc/daf/classcommand_1_1_ask_with_command.html" target="_top" xlink:title="command.AskWithCommand">
<polygon fill="white" stroke="black" points="585,-95.5 585,-114.5 741,-114.5 741,-95.5 585,-95.5"/>
<text text-anchor="middle" x="663" y="-102.5" font-family="Helvetica,sans-Serif" font-size="10.00">command.AskWithCommand</text>
</a>
</g>
</g>
<!-- Node8&#45;&gt;Node10 -->
<g id="edge9" class="edge"><title>Node8&#45;&gt;Node10</title>
<path fill="none" stroke="midnightblue" d="M555.898,-114.554C565.701,-113.671 575.511,-112.788 584.989,-111.935"/>
<polygon fill="midnightblue" stroke="midnightblue" points="555.345,-111.09 545.699,-115.473 555.973,-118.062 555.345,-111.09"/>
</g>
<!-- Node11 -->
<g id="node11" class="node"><title>Node11</title>
<g id="a_node11"><a xlink:href="../../d6/de2/classcommand_1_1_tell_command.html" target="_top" xlink:title="command.TellCommand">
<polygon fill="white" stroke="black" points="596.5,-57.5 596.5,-76.5 729.5,-76.5 729.5,-57.5 596.5,-57.5"/>
<text text-anchor="middle" x="663" y="-64.5" font-family="Helvetica,sans-Serif" font-size="10.00">command.TellCommand</text>
</a>
</g>
</g>
<!-- Node8&#45;&gt;Node11 -->
<g id="edge10" class="edge"><title>Node8&#45;&gt;Node11</title>
<path fill="none" stroke="midnightblue" d="M522.173,-112.107C530.302,-110.061 538.395,-107.703 546,-105 563.047,-98.9409 565.064,-92.3631 582,-86 591.889,-82.2846 602.745,-79.1296 613.183,-76.5214"/>
<polygon fill="midnightblue" stroke="midnightblue" points="521.194,-108.742 512.269,-114.451 522.806,-115.554 521.194,-108.742"/>
</g>
</g>
</svg>
        <g id="navigator" transform="translate(0 0)" fill="#404254">
                <rect fill="#f2f5e9" fill-opacity="0.5" stroke="#606060" stroke-width=".5" x="0" y="0" width="60" height="60"/>
                <use id="zoomplus" xlink:href="#zoomPlus" x="17" y="9" onmousedown="handleZoom(evt,'in')"/>
                <use id="zoomminus" xlink:href="#zoomMin" x="42" y="9" onmousedown="handleZoom(evt,'out')"/>
                <use id="reset" xlink:href="#resetDef" x="30" y="36" onmousedown="handleReset()"/>
                <g id="arrowUp" xlink:href="#dirArrow" transform="translate(30 24)" onmousedown="handlePan(0,-1)">
                  <use xlink:href="#rim" fill="#404040">
                        <set attributeName="fill" to="#808080" begin="arrowUp.mouseover" end="arrowUp.mouseout"/>
                  </use>
                  <path fill="none" stroke="white" stroke-width="1.5" d="M0,-3.0v7 M-2.5,-0.5L0,-3.0L2.5,-0.5"/>
                </g>
                <g id="arrowRight" xlink:href="#dirArrow" transform="rotate(90) translate(36 -43)" onmousedown="handlePan(1,0)">
                  <use xlink:href="#rim" fill="#404040">
                        <set attributeName="fill" to="#808080" begin="arrowRight.mouseover" end="arrowRight.mouseout"/>
                  </use>
                  <path fill="none" stroke="white" stroke-width="1.5" d="M0,-3.0v7 M-2.5,-0.5L0,-3.0L2.5,-0.5"/>
                </g>
                <g id="arrowDown" xlink:href="#dirArrow" transform="rotate(180) translate(-30 -48)" onmousedown="handlePan(0,1)">
                  <use xlink:href="#rim" fill="#404040">
                        <set attributeName="fill" to="#808080" begin="arrowDown.mouseover" end="arrowDown.mouseout"/>
                  </use>
                  <path fill="none" stroke="white" stroke-width="1.5" d="M0,-3.0v7 M-2.5,-0.5L0,-3.0L2.5,-0.5"/>
                </g>
                <g id="arrowLeft" xlink:href="#dirArrow" transform="rotate(270) translate(-36 17)" onmousedown="handlePan(-1,0)">
                  <use xlink:href="#rim" fill="#404040">
                        <set attributeName="fill" to="#808080" begin="arrowLeft.mouseover" end="arrowLeft.mouseout"/>
                  </use>
                  <path fill="none" stroke="white" stroke-width="1.5" d="M0,-3.0v7 M-2.5,-0.5L0,-3.0L2.5,-0.5"/>
                </g>
        </g>
        <svg viewBox="0 0 15 15" width="100%" height="30px" preserveAspectRatio="xMaxYMin meet">
         <g id="arrow_out" transform="scale(0.3 0.3)">
          <a xlink:href="classcommand_1_1_basic_list_command__inherit__graph_org.svg" target="_base">
           <rect id="button" ry="5" rx="5" y="6" x="6" height="38" width="38"
                fill="#f2f5e9" fill-opacity="0.5" stroke="#606060" stroke-width="1.0"/>
           <path id="arrow"
             d="M 11.500037,31.436501 C 11.940474,20.09759 22.043105,11.32322 32.158766,21.979434 L 37.068811,17.246167 C 37.068811,17.246167 37.088388,32 37.088388,32 L 22.160133,31.978069 C 22.160133,31.978069 26.997745,27.140456 26.997745,27.140456 C 18.528582,18.264221 13.291696,25.230495 11.500037,31.436501 z"
             style="fill:#404040;"/>
          </a>
         </g>
        </svg>
</svg>
