<?xml version="1.0" encoding="UTF-8" standalone="no"?>
<!DOCTYPE svg PUBLIC "-//W3C//DTD SVG 1.1//EN"
 "http://www.w3.org/Graphics/SVG/1.1/DTD/svg11.dtd">
<!-- Generated by graphviz version 2.36.0 (20140111.2315)
 -->
<!-- Title: components.TurtlesTab Pages: 1 -->
<svg width="1196pt" height="361pt"
 viewBox="0.00 0.00 1196.00 361.00" xmlns="http://www.w3.org/2000/svg" xmlns:xlink="http://www.w3.org/1999/xlink">
<g id="graph0" class="graph" transform="scale(1 1) rotate(0) translate(4 357)">
<title>components.TurtlesTab</title>
<polygon fill="white" stroke="none" points="-4,4 -4,-357 1192,-357 1192,4 -4,4"/>
<!-- Node1 -->
<g id="node1" class="node"><title>Node1</title>
<polygon fill="#bfbfbf" stroke="black" points="1062,-213.5 1062,-232.5 1188,-232.5 1188,-213.5 1062,-213.5"/>
<text text-anchor="middle" x="1125" y="-220.5" font-family="Helvetica,sans-Serif" font-size="10.00">components.TurtlesTab</text>
</g>
<!-- Node2 -->
<g id="node2" class="node"><title>Node2</title>
<g id="a_node2"><a xlink:href="../../df/df3/classcomponents_1_1_info_tab.html" target="_top" xlink:title="components.InfoTab">
<polygon fill="white" stroke="black" points="844.5,-240.5 844.5,-259.5 957.5,-259.5 957.5,-240.5 844.5,-240.5"/>
<text text-anchor="middle" x="901" y="-247.5" font-family="Helvetica,sans-Serif" font-size="10.00">components.InfoTab</text>
</a>
</g>
</g>
<!-- Node2&#45;&gt;Node1 -->
<g id="edge1" class="edge"><title>Node2&#45;&gt;Node1</title>
<path fill="none" stroke="midnightblue" d="M968.023,-241.97C997.776,-238.352 1032.72,-234.102 1061.98,-230.543"/>
<polygon fill="midnightblue" stroke="midnightblue" points="967.238,-238.54 957.733,-243.222 968.083,-245.489 967.238,-238.54"/>
</g>
<!-- Node3 -->
<g id="node3" class="node"><title>Node3</title>
<polygon fill="white" stroke="#bfbfbf" points="626,-333.5 626,-352.5 658,-352.5 658,-333.5 626,-333.5"/>
<text text-anchor="middle" x="642" y="-340.5" font-family="Helvetica,sans-Serif" font-size="10.00">Tab</text>
</g>
<!-- Node3&#45;&gt;Node2 -->
<g id="edge2" class="edge"><title>Node3&#45;&gt;Node2</title>
<path fill="none" stroke="midnightblue" d="M668.326,-336.434C681.9,-332.861 698.894,-328.303 714,-324 752.403,-313.06 762.779,-312.46 800,-298 829.618,-286.493 862.599,-269.879 882.303,-259.522"/>
<polygon fill="midnightblue" stroke="midnightblue" points="667.062,-333.146 658.274,-339.064 668.834,-339.918 667.062,-333.146"/>
</g>
<!-- Node4 -->
<g id="node4" class="node"><title>Node4</title>
<g id="a_node4"><a xlink:href="../../d2/dfc/interfacefeatures_1_1_feature.html" target="_top" xlink:title="features.Feature">
<polygon fill="white" stroke="black" points="594.5,-295.5 594.5,-314.5 689.5,-314.5 689.5,-295.5 594.5,-295.5"/>
<text text-anchor="middle" x="642" y="-302.5" font-family="Helvetica,sans-Serif" font-size="10.00">features.Feature</text>
</a>
</g>
</g>
<!-- Node4&#45;&gt;Node2 -->
<g id="edge3" class="edge"><title>Node4&#45;&gt;Node2</title>
<path fill="none" stroke="midnightblue" d="M699.453,-296.156C729.447,-291.149 766.865,-284.413 800,-277 822.638,-271.935 847.853,-265.119 867.3,-259.602"/>
<polygon fill="midnightblue" stroke="midnightblue" points="698.879,-292.703 689.583,-297.786 700.02,-299.61 698.879,-292.703"/>
</g>
<!-- Node5 -->
<g id="node5" class="node"><title>Node5</title>
<polygon fill="white" stroke="#bfbfbf" points="621.5,-257.5 621.5,-276.5 662.5,-276.5 662.5,-257.5 621.5,-257.5"/>
<text text-anchor="middle" x="642" y="-264.5" font-family="Helvetica,sans-Serif" font-size="10.00">VBox</text>
</g>
<!-- Node5&#45;&gt;Node2 -->
<g id="edge4" class="edge"><title>Node5&#45;&gt;Node2</title>
<path fill="none" stroke="#9a32cd" stroke-dasharray="5,2" d="M672.834,-265.027C714.692,-262.258 791.613,-257.17 844.248,-253.688"/>
<polygon fill="#9a32cd" stroke="#9a32cd" points="672.487,-261.542 662.74,-265.694 672.949,-268.527 672.487,-261.542"/>
<text text-anchor="middle" x="766" y="-265" font-family="Helvetica,sans-Serif" font-size="10.00"> myDrawer</text>
</g>
<!-- Node6 -->
<g id="node6" class="node"><title>Node6</title>
<g id="a_node6"><a xlink:href="../../d7/da1/classmain_application_1_1_controller.html" target="_top" xlink:title="mainApplication.Controller">
<polygon fill="white" stroke="black" points="570.5,-219.5 570.5,-238.5 713.5,-238.5 713.5,-219.5 570.5,-219.5"/>
<text text-anchor="middle" x="642" y="-226.5" font-family="Helvetica,sans-Serif" font-size="10.00">mainApplication.Controller</text>
</a>
</g>
</g>
<!-- Node6&#45;&gt;Node2 -->
<g id="edge5" class="edge"><title>Node6&#45;&gt;Node2</title>
<path fill="none" stroke="#9a32cd" stroke-dasharray="5,2" d="M723.636,-235.589C762.844,-238.793 808.989,-242.563 844.242,-245.444"/>
<polygon fill="#9a32cd" stroke="#9a32cd" points="723.818,-232.092 713.566,-234.766 723.248,-239.069 723.818,-232.092"/>
<text text-anchor="middle" x="766" y="-245" font-family="Helvetica,sans-Serif" font-size="10.00"> myController</text>
</g>
<!-- Node7 -->
<g id="node7" class="node"><title>Node7</title>
<g id="a_node7"><a xlink:href="../../d6/d95/classparser_1_1_parser.html" target="_top" xlink:title="parser.Parser">
<polygon fill="white" stroke="black" points="338,-278.5 338,-297.5 418,-297.5 418,-278.5 338,-278.5"/>
<text text-anchor="middle" x="378" y="-285.5" font-family="Helvetica,sans-Serif" font-size="10.00">parser.Parser</text>
</a>
</g>
</g>
<!-- Node7&#45;&gt;Node6 -->
<g id="edge6" class="edge"><title>Node7&#45;&gt;Node6</title>
<path fill="none" stroke="#9a32cd" stroke-dasharray="5,2" d="M427.982,-276.97C477.051,-265.92 551.804,-249.086 598.46,-238.58"/>
<polygon fill="#9a32cd" stroke="#9a32cd" points="427.211,-273.556 418.224,-279.167 428.749,-280.385 427.211,-273.556"/>
<text text-anchor="middle" x="514" y="-269" font-family="Helvetica,sans-Serif" font-size="10.00"> myParser</text>
</g>
<!-- Node8 -->
<g id="node8" class="node"><title>Node8</title>
<polygon fill="white" stroke="#bfbfbf" points="36.5,-316.5 36.5,-335.5 129.5,-335.5 129.5,-316.5 36.5,-316.5"/>
<text text-anchor="middle" x="83" y="-323.5" font-family="Helvetica,sans-Serif" font-size="10.00">ResourceBundle</text>
</g>
<!-- Node8&#45;&gt;Node7 -->
<g id="edge7" class="edge"><title>Node8&#45;&gt;Node7</title>
<path fill="none" stroke="#9a32cd" stroke-dasharray="5,2" d="M139.767,-320.006C179.027,-315.651 232.786,-309.419 280,-303 299.08,-300.406 320.216,-297.18 337.874,-294.384"/>
<polygon fill="#9a32cd" stroke="#9a32cd" points="139.16,-316.551 129.604,-321.127 139.928,-323.509 139.16,-316.551"/>
<text text-anchor="middle" x="232" y="-329" font-family="Helvetica,sans-Serif" font-size="10.00"> myCommands</text>
<text text-anchor="middle" x="232" y="-318" font-family="Helvetica,sans-Serif" font-size="10.00">myLanguage</text>
</g>
<!-- Node9 -->
<g id="node9" class="node"><title>Node9</title>
<polygon fill="white" stroke="#bfbfbf" points="26,-278.5 26,-297.5 140,-297.5 140,-278.5 26,-278.5"/>
<text text-anchor="middle" x="83" y="-285.5" font-family="Helvetica,sans-Serif" font-size="10.00">List&lt; parser.Node &gt;</text>
</g>
<!-- Node9&#45;&gt;Node7 -->
<g id="edge8" class="edge"><title>Node9&#45;&gt;Node7</title>
<path fill="none" stroke="#9a32cd" stroke-dasharray="5,2" d="M150.287,-288C208.096,-288 289.998,-288 337.901,-288"/>
<polygon fill="#9a32cd" stroke="#9a32cd" points="150.147,-284.5 140.147,-288 150.147,-291.5 150.147,-284.5"/>
<text text-anchor="middle" x="232" y="-291" font-family="Helvetica,sans-Serif" font-size="10.00"> myTreeHeads</text>
</g>
<!-- Node10 -->
<g id="node10" class="node"><title>Node10</title>
<polygon fill="white" stroke="#bfbfbf" points="298,-219.5 298,-238.5 458,-238.5 458,-219.5 298,-219.5"/>
<text text-anchor="middle" x="378" y="-226.5" font-family="Helvetica,sans-Serif" font-size="10.00">List&lt; workspace.Workspace &gt;</text>
</g>
<!-- Node10&#45;&gt;Node6 -->
<g id="edge9" class="edge"><title>Node10&#45;&gt;Node6</title>
<path fill="none" stroke="#9a32cd" stroke-dasharray="5,2" d="M468.509,-229C501.787,-229 539.05,-229 570.402,-229"/>
<polygon fill="#9a32cd" stroke="#9a32cd" points="468.32,-225.5 458.32,-229 468.32,-232.5 468.32,-225.5"/>
<text text-anchor="middle" x="514" y="-232" font-family="Helvetica,sans-Serif" font-size="10.00"> myWorkspaces</text>
</g>
<!-- Node11 -->
<g id="node11" class="node"><title>Node11</title>
<g id="a_node11"><a xlink:href="../../de/d19/classworkspace_1_1_workspace.html" target="_top" xlink:title="workspace.Workspace">
<polygon fill="white" stroke="black" points="317.5,-131.5 317.5,-150.5 438.5,-150.5 438.5,-131.5 317.5,-131.5"/>
<text text-anchor="middle" x="378" y="-138.5" font-family="Helvetica,sans-Serif" font-size="10.00">workspace.Workspace</text>
</a>
</g>
</g>
<!-- Node11&#45;&gt;Node6 -->
<g id="edge10" class="edge"><title>Node11&#45;&gt;Node6</title>
<path fill="none" stroke="#9a32cd" stroke-dasharray="5,2" d="M413.043,-154.293C451.014,-168.886 514.416,-192.557 570,-210 580.592,-213.324 592.185,-216.583 602.875,-219.437"/>
<polygon fill="#9a32cd" stroke="#9a32cd" points="414.086,-150.944 403.496,-150.609 411.566,-157.474 414.086,-150.944"/>
<text text-anchor="middle" x="514" y="-207" font-family="Helvetica,sans-Serif" font-size="10.00"> myActiveWS</text>
</g>
<!-- Node12 -->
<g id="node12" class="node"><title>Node12</title>
<polygon fill="white" stroke="#bfbfbf" points="47.5,-240.5 47.5,-259.5 118.5,-259.5 118.5,-240.5 47.5,-240.5"/>
<text text-anchor="middle" x="83" y="-247.5" font-family="Helvetica,sans-Serif" font-size="10.00">Observable</text>
</g>
<!-- Node12&#45;&gt;Node11 -->
<g id="edge11" class="edge"><title>Node12&#45;&gt;Node11</title>
<path fill="none" stroke="midnightblue" d="M128.644,-239.768C140.771,-236.958 153.896,-233.889 166,-231 216.747,-218.889 232.044,-223.547 280,-203 312.884,-188.911 347.206,-164.212 364.878,-150.629"/>
<polygon fill="midnightblue" stroke="midnightblue" points="127.691,-236.396 118.736,-242.058 129.267,-243.216 127.691,-236.396"/>
</g>
<!-- Node13 -->
<g id="node13" class="node"><title>Node13</title>
<polygon fill="white" stroke="#bfbfbf" points="53,-202.5 53,-221.5 113,-221.5 113,-202.5 53,-202.5"/>
<text text-anchor="middle" x="83" y="-209.5" font-family="Helvetica,sans-Serif" font-size="10.00">Observer</text>
</g>
<!-- Node13&#45;&gt;Node11 -->
<g id="edge12" class="edge"><title>Node13&#45;&gt;Node11</title>
<path fill="none" stroke="midnightblue" d="M123.398,-207.435C163.328,-202.281 226.654,-192.654 280,-178 306.591,-170.695 336.045,-158.906 355.442,-150.602"/>
<polygon fill="midnightblue" stroke="midnightblue" points="122.761,-203.987 113.277,-208.71 123.636,-210.933 122.761,-203.987"/>
</g>
<!-- Node14 -->
<g id="node14" class="node"><title>Node14</title>
<polygon fill="white" stroke="#bfbfbf" points="21,-164.5 21,-183.5 145,-183.5 145,-164.5 21,-164.5"/>
<text text-anchor="middle" x="83" y="-171.5" font-family="Helvetica,sans-Serif" font-size="10.00">Map&lt; Integer, Color &gt;</text>
</g>
<!-- Node14&#45;&gt;Node11 -->
<g id="edge13" class="edge"><title>Node14&#45;&gt;Node11</title>
<path fill="none" stroke="#9a32cd" stroke-dasharray="5,2" d="M155.579,-165.985C192.704,-161.824 238.79,-156.649 280,-152 292.126,-150.632 305.104,-149.163 317.495,-147.759"/>
<polygon fill="#9a32cd" stroke="#9a32cd" points="154.905,-162.539 145.357,-167.131 155.685,-169.495 154.905,-162.539"/>
<text text-anchor="middle" x="232" y="-166" font-family="Helvetica,sans-Serif" font-size="10.00"> myColors</text>
</g>
<!-- Node15 -->
<g id="node15" class="node"><title>Node15</title>
<polygon fill="white" stroke="#bfbfbf" points="0,-115 0,-145 166,-145 166,-115 0,-115"/>
<text text-anchor="start" x="8" y="-133" font-family="Helvetica,sans-Serif" font-size="10.00">Map&lt; String, parser.Command</text>
<text text-anchor="middle" x="83" y="-122" font-family="Helvetica,sans-Serif" font-size="10.00">Object &gt;</text>
</g>
<!-- Node15&#45;&gt;Node11 -->
<g id="edge14" class="edge"><title>Node15&#45;&gt;Node11</title>
<path fill="none" stroke="#9a32cd" stroke-dasharray="5,2" d="M176.02,-133.455C222.168,-135.187 276.726,-137.235 317.346,-138.76"/>
<polygon fill="#9a32cd" stroke="#9a32cd" points="176.131,-129.956 166.006,-133.079 175.868,-136.952 176.131,-129.956"/>
<text text-anchor="middle" x="232" y="-141" font-family="Helvetica,sans-Serif" font-size="10.00"> myCommands</text>
</g>
<!-- Node16 -->
<g id="node16" class="node"><title>Node16</title>
<g id="a_node16"><a xlink:href="../../de/d1c/classproperties_1_1_stage_properties.html" target="_top" xlink:title="properties.StageProperties">
<polygon fill="white" stroke="black" points="10,-76.5 10,-95.5 156,-95.5 156,-76.5 10,-76.5"/>
<text text-anchor="middle" x="83" y="-83.5" font-family="Helvetica,sans-Serif" font-size="10.00">properties.StageProperties</text>
</a>
</g>
</g>
<!-- Node16&#45;&gt;Node11 -->
<g id="edge15" class="edge"><title>Node16&#45;&gt;Node11</title>
<path fill="none" stroke="#9a32cd" stroke-dasharray="5,2" d="M156.174,-97.1565C193.272,-103.143 239.154,-110.936 280,-119 298.804,-122.712 319.538,-127.342 336.993,-131.395"/>
<polygon fill="#9a32cd" stroke="#9a32cd" points="156.383,-93.6454 145.955,-95.5173 155.274,-100.557 156.383,-93.6454"/>
<text text-anchor="middle" x="232" y="-122" font-family="Helvetica,sans-Serif" font-size="10.00"> myStageProperties</text>
</g>
<!-- Node17 -->
<g id="node17" class="node"><title>Node17</title>
<polygon fill="white" stroke="#bfbfbf" points="19,-38.5 19,-57.5 147,-57.5 147,-38.5 19,-38.5"/>
<text text-anchor="middle" x="83" y="-45.5" font-family="Helvetica,sans-Serif" font-size="10.00">Map&lt; String, Double &gt;</text>
</g>
<!-- Node17&#45;&gt;Node11 -->
<g id="edge16" class="edge"><title>Node17&#45;&gt;Node11</title>
<path fill="none" stroke="#9a32cd" stroke-dasharray="5,2" d="M157.426,-57.6481C194.851,-63.8929 240.648,-73.6043 280,-88 311.178,-99.4054 344.515,-119.6 362.855,-131.496"/>
<polygon fill="#9a32cd" stroke="#9a32cd" points="157.536,-54.1204 147.105,-55.9777 156.417,-61.0304 157.536,-54.1204"/>
<text text-anchor="middle" x="232" y="-91" font-family="Helvetica,sans-Serif" font-size="10.00"> myVariables</text>
</g>
<!-- Node18 -->
<g id="node18" class="node"><title>Node18</title>
<polygon fill="white" stroke="#bfbfbf" points="7,-0.5 7,-19.5 159,-19.5 159,-0.5 7,-0.5"/>
<text text-anchor="middle" x="83" y="-7.5" font-family="Helvetica,sans-Serif" font-size="10.00">Map&lt; Integer, actor.Turtle &gt;</text>
</g>
<!-- Node18&#45;&gt;Node11 -->
<g id="edge17" class="edge"><title>Node18&#45;&gt;Node11</title>
<path fill="none" stroke="#9a32cd" stroke-dasharray="5,2" d="M169.36,-15.8499C205.088,-20.9568 246.1,-30.4407 280,-48 320.396,-68.9241 355.532,-111.932 369.983,-131.239"/>
<polygon fill="#9a32cd" stroke="#9a32cd" points="169.809,-12.3788 159.433,-14.5225 168.881,-19.3171 169.809,-12.3788"/>
<text text-anchor="middle" x="232" y="-51" font-family="Helvetica,sans-Serif" font-size="10.00"> myTurtles</text>
</g>
<!-- Node19 -->
<g id="node19" class="node"><title>Node19</title>
<polygon fill="white" stroke="#bfbfbf" points="609,-181.5 609,-200.5 675,-200.5 675,-181.5 609,-181.5"/>
<text text-anchor="middle" x="642" y="-188.5" font-family="Helvetica,sans-Serif" font-size="10.00">ScrollPane</text>
</g>
<!-- Node19&#45;&gt;Node2 -->
<g id="edge18" class="edge"><title>Node19&#45;&gt;Node2</title>
<path fill="none" stroke="#9a32cd" stroke-dasharray="5,2" d="M685.007,-196.683C716.997,-201.635 761.878,-209.932 800,-222 808.346,-224.642 809.714,-227.174 818,-230 829.65,-233.974 842.483,-237.493 854.469,-240.428"/>
<polygon fill="#9a32cd" stroke="#9a32cd" points="685.507,-193.219 675.098,-195.193 684.466,-200.141 685.507,-193.219"/>
<text text-anchor="middle" x="766" y="-225" font-family="Helvetica,sans-Serif" font-size="10.00"> myScrollPane</text>
</g>
<!-- Node20 -->
<g id="node20" class="node"><title>Node20</title>
<polygon fill="white" stroke="#bfbfbf" points="612.5,-143.5 612.5,-162.5 671.5,-162.5 671.5,-143.5 612.5,-143.5"/>
<text text-anchor="middle" x="642" y="-150.5" font-family="Helvetica,sans-Serif" font-size="10.00">GridPane</text>
</g>
<!-- Node20&#45;&gt;Node2 -->
<g id="edge19" class="edge"><title>Node20&#45;&gt;Node2</title>
<path fill="none" stroke="#9a32cd" stroke-dasharray="5,2" d="M681.978,-153.228C716.557,-155.39 766.621,-163.567 800,-191 814.749,-203.121 803.262,-217.866 818,-230 825.579,-236.24 834.808,-240.584 844.304,-243.597"/>
<polygon fill="#9a32cd" stroke="#9a32cd" points="681.937,-149.722 671.78,-152.736 681.6,-156.714 681.937,-149.722"/>
<text text-anchor="middle" x="766" y="-194" font-family="Helvetica,sans-Serif" font-size="10.00"> myTextPane</text>
</g>
<!-- Node21 -->
<g id="node21" class="node"><title>Node21</title>
<polygon fill="white" stroke="#bfbfbf" points="818.5,-191 818.5,-221 983.5,-221 983.5,-191 818.5,-191"/>
<text text-anchor="start" x="826.5" y="-209" font-family="Helvetica,sans-Serif" font-size="10.00">Map&lt; Integer, features.Display</text>
<text text-anchor="middle" x="901" y="-198" font-family="Helvetica,sans-Serif" font-size="10.00">Turtle &gt;</text>
</g>
<!-- Node21&#45;&gt;Node1 -->
<g id="edge20" class="edge"><title>Node21&#45;&gt;Node1</title>
<path fill="none" stroke="#9a32cd" stroke-dasharray="5,2" d="M994.121,-212.259C1010.73,-213.452 1027.88,-214.727 1044,-216 1049.84,-216.461 1055.91,-216.959 1061.99,-217.47"/>
<polygon fill="#9a32cd" stroke="#9a32cd" points="994.089,-208.748 983.865,-211.527 993.591,-215.73 994.089,-208.748"/>
<text text-anchor="middle" x="1023" y="-219" font-family="Helvetica,sans-Serif" font-size="10.00"> turtMap</text>
</g>
</g>
</svg>
