<?xml version="1.0" encoding="UTF-8" standalone="no"?>
<!DOCTYPE svg PUBLIC "-//W3C//DTD SVG 1.1//EN"
 "http://www.w3.org/Graphics/SVG/1.1/DTD/svg11.dtd">
<!-- Generated by graphviz version 2.36.0 (20140111.2315)
 -->
<!-- Title: command.BasicListCommand.checkListException Pages: 1 -->
<svg width="438pt" height="370pt"
 viewBox="0.00 0.00 438.00 370.00" xmlns="http://www.w3.org/2000/svg" xmlns:xlink="http://www.w3.org/1999/xlink">
<g id="graph0" class="graph" transform="scale(1 1) rotate(0) translate(4 366)">
<title>command.BasicListCommand.checkListException</title>
<polygon fill="white" stroke="none" points="-4,4 -4,-366 434,-366 434,4 -4,4"/>
<!-- Node1 -->
<g id="node1" class="node"><title>Node1</title>
<polygon fill="#bfbfbf" stroke="black" points="0.5,-166 0.5,-196 191.5,-196 191.5,-166 0.5,-166"/>
<text text-anchor="start" x="8.5" y="-184" font-family="Helvetica,sans-Serif" font-size="10.00">command.BasicListCommand.check</text>
<text text-anchor="middle" x="96" y="-173" font-family="Helvetica,sans-Serif" font-size="10.00">ListException</text>
</g>
<!-- Node2 -->
<g id="node2" class="node"><title>Node2</title>
<g id="a_node2"><a xlink:href="../../d6/d41/classcommand_1_1_if_command.html#aa9d88959fb64506ab65ad3c8aa0abfca" target="_top" xlink:title="command.IfCommand.execute">
<polygon fill="white" stroke="black" points="246.5,-342.5 246.5,-361.5 411.5,-361.5 411.5,-342.5 246.5,-342.5"/>
<text text-anchor="middle" x="329" y="-349.5" font-family="Helvetica,sans-Serif" font-size="10.00">command.IfCommand.execute</text>
</a>
</g>
</g>
<!-- Node1&#45;&gt;Node2 -->
<g id="edge1" class="edge"><title>Node1&#45;&gt;Node2</title>
<path fill="none" stroke="midnightblue" d="M110.399,-204.905C130.959,-239.188 173.674,-301.634 228,-333 234.734,-336.888 242.107,-340.001 249.701,-342.49"/>
<polygon fill="midnightblue" stroke="midnightblue" points="113.274,-202.888 105.197,-196.031 107.235,-206.428 113.274,-202.888"/>
</g>
<!-- Node3 -->
<g id="node3" class="node"><title>Node3</title>
<g id="a_node3"><a xlink:href="../../d4/de4/classcommand_1_1_if_else_command.html#aed7db9157bc4a4c1ceedb930684ba28a" target="_top" xlink:title="command.IfElseCommand.execute">
<polygon fill="white" stroke="black" points="236.5,-304.5 236.5,-323.5 421.5,-323.5 421.5,-304.5 236.5,-304.5"/>
<text text-anchor="middle" x="329" y="-311.5" font-family="Helvetica,sans-Serif" font-size="10.00">command.IfElseCommand.execute</text>
</a>
</g>
</g>
<!-- Node1&#45;&gt;Node3 -->
<g id="edge2" class="edge"><title>Node1&#45;&gt;Node3</title>
<path fill="none" stroke="midnightblue" d="M116.029,-203.621C139.52,-229.958 182.037,-272.687 228,-295 236.028,-298.897 244.78,-301.996 253.659,-304.46"/>
<polygon fill="midnightblue" stroke="midnightblue" points="118.588,-201.231 109.367,-196.015 113.323,-205.844 118.588,-201.231"/>
</g>
<!-- Node4 -->
<g id="node4" class="node"><title>Node4</title>
<g id="a_node4"><a xlink:href="../../db/d24/classcommand_1_1_ask_command.html#a512723f6475d7ed90cb6639c5eec3adb" target="_top" xlink:title="command.AskCommand.execute">
<polygon fill="white" stroke="black" points="240.5,-266.5 240.5,-285.5 417.5,-285.5 417.5,-266.5 240.5,-266.5"/>
<text text-anchor="middle" x="329" y="-273.5" font-family="Helvetica,sans-Serif" font-size="10.00">command.AskCommand.execute</text>
</a>
</g>
</g>
<!-- Node1&#45;&gt;Node4 -->
<g id="edge3" class="edge"><title>Node1&#45;&gt;Node4</title>
<path fill="none" stroke="midnightblue" d="M126.627,-202.118C152.275,-219.413 190.974,-243.201 228,-257 238.349,-260.857 249.606,-263.963 260.71,-266.455"/>
<polygon fill="midnightblue" stroke="midnightblue" points="128.352,-199.058 118.123,-196.299 124.399,-204.835 128.352,-199.058"/>
</g>
<!-- Node5 -->
<g id="node5" class="node"><title>Node5</title>
<g id="a_node5"><a xlink:href="../../d6/de2/classcommand_1_1_tell_command.html#ad12c8eb44a4dc930037355278c0aee33" target="_top" xlink:title="command.TellCommand.execute">
<polygon fill="white" stroke="black" points="242,-228.5 242,-247.5 416,-247.5 416,-228.5 242,-228.5"/>
<text text-anchor="middle" x="329" y="-235.5" font-family="Helvetica,sans-Serif" font-size="10.00">command.TellCommand.execute</text>
</a>
</g>
</g>
<!-- Node1&#45;&gt;Node5 -->
<g id="edge4" class="edge"><title>Node1&#45;&gt;Node5</title>
<path fill="none" stroke="midnightblue" d="M154.747,-199.028C177.453,-205.781 203.827,-213.211 228,-219 242.436,-222.457 258.165,-225.691 272.784,-228.476"/>
<polygon fill="midnightblue" stroke="midnightblue" points="155.511,-195.604 144.927,-196.083 153.5,-202.308 155.511,-195.604"/>
</g>
<!-- Node6 -->
<g id="node6" class="node"><title>Node6</title>
<g id="a_node6"><a xlink:href="../../d4/d11/classcommand_1_1_repeat_command.html#a034c19694b9804a38754600aca37172f" target="_top" xlink:title="command.RepeatCommand.execute">
<polygon fill="white" stroke="black" points="232.5,-190.5 232.5,-209.5 425.5,-209.5 425.5,-190.5 232.5,-190.5"/>
<text text-anchor="middle" x="329" y="-197.5" font-family="Helvetica,sans-Serif" font-size="10.00">command.RepeatCommand.execute</text>
</a>
</g>
</g>
<!-- Node1&#45;&gt;Node6 -->
<g id="edge5" class="edge"><title>Node1&#45;&gt;Node6</title>
<path fill="none" stroke="midnightblue" d="M201.777,-189.618C211.98,-190.457 222.296,-191.306 232.402,-192.137"/>
<polygon fill="midnightblue" stroke="midnightblue" points="201.876,-186.114 191.623,-188.783 201.302,-193.091 201.876,-186.114"/>
</g>
<!-- Node7 -->
<g id="node7" class="node"><title>Node7</title>
<g id="a_node7"><a xlink:href="../../da/dfa/classcommand_1_1_do_times_command.html#a3565aa2ee70c74e5045ce3139730a88b" target="_top" xlink:title="command.DoTimesCommand.execute">
<polygon fill="white" stroke="black" points="228,-152.5 228,-171.5 430,-171.5 430,-152.5 228,-152.5"/>
<text text-anchor="middle" x="329" y="-159.5" font-family="Helvetica,sans-Serif" font-size="10.00">command.DoTimesCommand.execute</text>
</a>
</g>
</g>
<!-- Node1&#45;&gt;Node7 -->
<g id="edge6" class="edge"><title>Node1&#45;&gt;Node7</title>
<path fill="none" stroke="midnightblue" d="M201.777,-172.382C210.468,-171.667 219.242,-170.945 227.898,-170.234"/>
<polygon fill="midnightblue" stroke="midnightblue" points="201.302,-168.909 191.623,-173.217 201.876,-175.886 201.302,-168.909"/>
</g>
<!-- Node8 -->
<g id="node8" class="node"><title>Node8</title>
<g id="a_node8"><a xlink:href="../../dc/daf/classcommand_1_1_ask_with_command.html#aa8274e05370a4e3f6ad3e2d7e86ec7f0" target="_top" xlink:title="command.AskWithCommand.execute">
<polygon fill="white" stroke="black" points="230.5,-114.5 230.5,-133.5 427.5,-133.5 427.5,-114.5 230.5,-114.5"/>
<text text-anchor="middle" x="329" y="-121.5" font-family="Helvetica,sans-Serif" font-size="10.00">command.AskWithCommand.execute</text>
</a>
</g>
</g>
<!-- Node1&#45;&gt;Node8 -->
<g id="edge7" class="edge"><title>Node1&#45;&gt;Node8</title>
<path fill="none" stroke="midnightblue" d="M154.747,-162.972C177.453,-156.219 203.827,-148.789 228,-143 242.436,-139.543 258.165,-136.309 272.784,-133.524"/>
<polygon fill="midnightblue" stroke="midnightblue" points="153.5,-159.692 144.927,-165.917 155.511,-166.396 153.5,-159.692"/>
</g>
<!-- Node9 -->
<g id="node9" class="node"><title>Node9</title>
<g id="a_node9"><a xlink:href="../../d1/df3/classcommand_1_1_to_command.html#a0c622c6eb765330c624906144dcb1e09" target="_top" xlink:title="command.ToCommand.execute">
<polygon fill="white" stroke="black" points="244,-76.5 244,-95.5 414,-95.5 414,-76.5 244,-76.5"/>
<text text-anchor="middle" x="329" y="-83.5" font-family="Helvetica,sans-Serif" font-size="10.00">command.ToCommand.execute</text>
</a>
</g>
</g>
<!-- Node1&#45;&gt;Node9 -->
<g id="edge8" class="edge"><title>Node1&#45;&gt;Node9</title>
<path fill="none" stroke="midnightblue" d="M126.627,-159.882C152.275,-142.587 190.974,-118.799 228,-105 238.349,-101.143 249.606,-98.0368 260.71,-95.5448"/>
<polygon fill="midnightblue" stroke="midnightblue" points="124.399,-157.165 118.123,-165.701 128.352,-162.942 124.399,-157.165"/>
</g>
<!-- Node10 -->
<g id="node10" class="node"><title>Node10</title>
<g id="a_node10"><a xlink:href="../../dc/da4/classcommand_1_1_stored_command.html#af713db09f85ae986a0707559209972b1" target="_top" xlink:title="command.StoredCommand.execute">
<polygon fill="white" stroke="black" points="233,-38.5 233,-57.5 425,-57.5 425,-38.5 233,-38.5"/>
<text text-anchor="middle" x="329" y="-45.5" font-family="Helvetica,sans-Serif" font-size="10.00">command.StoredCommand.execute</text>
</a>
</g>
</g>
<!-- Node1&#45;&gt;Node10 -->
<g id="edge9" class="edge"><title>Node1&#45;&gt;Node10</title>
<path fill="none" stroke="midnightblue" d="M116.029,-158.379C139.52,-132.042 182.037,-89.313 228,-67 236.028,-63.1027 244.78,-60.0036 253.659,-57.5395"/>
<polygon fill="midnightblue" stroke="midnightblue" points="113.323,-156.156 109.367,-165.985 118.588,-160.769 113.323,-156.156"/>
</g>
<!-- Node11 -->
<g id="node11" class="node"><title>Node11</title>
<g id="a_node11"><a xlink:href="../../dc/d6b/classcommand_1_1_for_command.html#ae306431af6940bd5ba38cc71696cae06" target="_top" xlink:title="command.ForCommand.execute">
<polygon fill="white" stroke="black" points="241.5,-0.5 241.5,-19.5 416.5,-19.5 416.5,-0.5 241.5,-0.5"/>
<text text-anchor="middle" x="329" y="-7.5" font-family="Helvetica,sans-Serif" font-size="10.00">command.ForCommand.execute</text>
</a>
</g>
</g>
<!-- Node1&#45;&gt;Node11 -->
<g id="edge10" class="edge"><title>Node1&#45;&gt;Node11</title>
<path fill="none" stroke="midnightblue" d="M110.399,-157.095C130.959,-122.812 173.674,-60.3665 228,-29 234.734,-25.1121 242.107,-21.9994 249.701,-19.5103"/>
<polygon fill="midnightblue" stroke="midnightblue" points="107.235,-155.572 105.197,-165.969 113.274,-159.112 107.235,-155.572"/>
</g>
</g>
</svg>
