<?xml version="1.0" encoding="UTF-8" standalone="no"?>
<!DOCTYPE svg PUBLIC "-//W3C//DTD SVG 1.1//EN"
 "http://www.w3.org/Graphics/SVG/1.1/DTD/svg11.dtd">
<!-- Generated by graphviz version 2.36.0 (20140111.2315)
 -->
<!-- Title: command.BasicListCommand.getBracketIndex Pages: 1 -->
<!--zoomable 280 -->
<svg id="main" version="1.1" xmlns="http://www.w3.org/2000/svg" xmlns:xlink="http://www.w3.org/1999/xlink" xml:space="preserve" onload="init(evt)">
<style type="text/css"><![CDATA[
.edge:hover path { stroke: red; }
.edge:hover polygon { stroke: red; fill: red; }
]]></style>
<script type="text/javascript"><![CDATA[
var edges = document.getElementsByTagName('g');
if (edges && edges.length) {
  for (var i=0;i<edges.length;i++) {
    if (edges[i].id.substr(0,4)=='edge') {
      edges[i].setAttribute('class','edge');
    }
  }
}
]]></script>
        <defs>
                <circle id="rim" cx="0" cy="0" r="7"/>
                <circle id="rim2" cx="0" cy="0" r="3.5"/>
                <g id="zoomPlus">
                        <use xlink:href="#rim" fill="#404040">
                                <set attributeName="fill" to="#808080" begin="zoomplus.mouseover" end="zoomplus.mouseout"/>
                        </use>
                        <path d="M-4,0h8M0,-4v8" fill="none" stroke="white" stroke-width="1.5" pointer-events="none"/>
                </g>
                <g id="zoomMin">
                        <use xlink:href="#rim" fill="#404040">
                                <set attributeName="fill" to="#808080" begin="zoomminus.mouseover" end="zoomminus.mouseout"/>
                        </use>
                        <path d="M-4,0h8" fill="none" stroke="white" stroke-width="1.5" pointer-events="none"/>
                </g>
                <g id="dirArrow">
                        <path fill="none" stroke="white" stroke-width="1.5" d="M0,-3.0v7 M-2.5,-0.5L0,-3.0L2.5,-0.5"/>
                </g>
               <g id="resetDef">
                       <use xlink:href="#rim2" fill="#404040">
                               <set attributeName="fill" to="#808080" begin="reset.mouseover" end="reset.mouseout"/>
                       </use>
               </g>
        </defs>

<script type="text/javascript">
var viewWidth = 672;
var viewHeight = 280;
var sectionId = 'dynsection-5';
</script>
<script xlink:href="../../svgpan.js"/>
<svg id="graph" class="graph">
<g id="viewport">
<title>command.BasicListCommand.getBracketIndex</title>
<polygon fill="white" stroke="none" points="-4,4 -4,-275.739 668,-275.739 668,4 -4,4"/>
<!-- Node1 -->
<g id="node1" class="node"><title>Node1</title>
<polygon fill="#bfbfbf" stroke="black" points="0.5,-120 0.5,-150 179.5,-150 179.5,-120 0.5,-120"/>
<text text-anchor="start" x="8.5" y="-138" font-family="Helvetica,sans-Serif" font-size="10.00">command.BasicListCommand.get</text>
<text text-anchor="middle" x="90" y="-127" font-family="Helvetica,sans-Serif" font-size="10.00">BracketIndex</text>
</g>
<!-- Node2 -->
<g id="node2" class="node"><title>Node2</title>
<g id="a_node2"><a xlink:href="../../dd/d2f/classcommand_1_1_base_make_variable_command.html#a794f0ee22428208cd96c2220ab0746ed" target="_top" xlink:title="command.BaseMakeVariable\lCommand.checkCorrectInput">
<polygon fill="white" stroke="black" points="242.5,-202 242.5,-232 399.5,-232 399.5,-202 242.5,-202"/>
<text text-anchor="start" x="250.5" y="-220" font-family="Helvetica,sans-Serif" font-size="10.00">command.BaseMakeVariable</text>
<text text-anchor="middle" x="321" y="-209" font-family="Helvetica,sans-Serif" font-size="10.00">Command.checkCorrectInput</text>
</a>
</g>
</g>
<!-- Node1&#45;&gt;Node2 -->
<g id="edge1" class="edge"><title>Node1&#45;&gt;Node2</title>
<path fill="none" stroke="midnightblue" d="M129.388,-154.83C153.724,-166.813 186.139,-181.71 216,-192 226.622,-195.66 238.032,-198.987 249.264,-201.933"/>
<polygon fill="midnightblue" stroke="midnightblue" points="130.66,-151.553 120.148,-150.229 127.54,-157.82 130.66,-151.553"/>
</g>
<!-- Node3 -->
<g id="node3" class="node"><title>Node3</title>
<g id="a_node3"><a xlink:href="../../da/dfa/classcommand_1_1_do_times_command.html#a3565aa2ee70c74e5045ce3139730a88b" target="_top" xlink:title="command.DoTimesCommand.execute">
<polygon fill="white" stroke="black" points="462,-248.5 462,-267.5 664,-267.5 664,-248.5 462,-248.5"/>
<text text-anchor="middle" x="563" y="-255.5" font-family="Helvetica,sans-Serif" font-size="10.00">command.DoTimesCommand.execute</text>
</a>
</g>
</g>
<!-- Node1&#45;&gt;Node3 -->
<g id="edge8" class="edge"><title>Node1&#45;&gt;Node3</title>
<path fill="none" stroke="midnightblue" d="M109.462,-157.814C131.679,-183.354 171.584,-223.455 216,-241 305.637,-276.409 418.632,-274.149 490.617,-267.505"/>
<polygon fill="midnightblue" stroke="midnightblue" points="112.03,-155.432 102.886,-150.081 106.697,-159.966 112.03,-155.432"/>
</g>
<!-- Node5 -->
<g id="node5" class="node"><title>Node5</title>
<g id="a_node5"><a xlink:href="../../d4/de4/classcommand_1_1_if_else_command.html#aed7db9157bc4a4c1ceedb930684ba28a" target="_top" xlink:title="command.IfElseCommand.execute">
<polygon fill="white" stroke="black" points="228.5,-163.5 228.5,-182.5 413.5,-182.5 413.5,-163.5 228.5,-163.5"/>
<text text-anchor="middle" x="321" y="-170.5" font-family="Helvetica,sans-Serif" font-size="10.00">command.IfElseCommand.execute</text>
</a>
</g>
</g>
<!-- Node1&#45;&gt;Node5 -->
<g id="edge4" class="edge"><title>Node1&#45;&gt;Node5</title>
<path fill="none" stroke="midnightblue" d="M189.725,-151.382C214.54,-155.5 240.363,-159.785 262.411,-163.444"/>
<polygon fill="midnightblue" stroke="midnightblue" points="189.975,-147.876 179.537,-149.692 188.83,-154.782 189.975,-147.876"/>
</g>
<!-- Node6 -->
<g id="node6" class="node"><title>Node6</title>
<g id="a_node6"><a xlink:href="../../db/d24/classcommand_1_1_ask_command.html#a512723f6475d7ed90cb6639c5eec3adb" target="_top" xlink:title="command.AskCommand.execute">
<polygon fill="white" stroke="black" points="474.5,-84.5 474.5,-103.5 651.5,-103.5 651.5,-84.5 474.5,-84.5"/>
<text text-anchor="middle" x="563" y="-91.5" font-family="Helvetica,sans-Serif" font-size="10.00">command.AskCommand.execute</text>
</a>
</g>
</g>
<!-- Node1&#45;&gt;Node6 -->
<g id="edge5" class="edge"><title>Node1&#45;&gt;Node6</title>
<path fill="none" stroke="midnightblue" d="M189.828,-132.088C256.654,-129.458 346.818,-124.626 426,-116 454.295,-112.917 485.671,-107.947 511.15,-103.51"/>
<polygon fill="midnightblue" stroke="midnightblue" points="189.584,-128.594 179.725,-132.476 189.852,-135.589 189.584,-128.594"/>
</g>
<!-- Node7 -->
<g id="node7" class="node"><title>Node7</title>
<g id="a_node7"><a xlink:href="../../d4/d11/classcommand_1_1_repeat_command.html#a034c19694b9804a38754600aca37172f" target="_top" xlink:title="command.RepeatCommand.execute">
<polygon fill="white" stroke="black" points="224.5,-87.5 224.5,-106.5 417.5,-106.5 417.5,-87.5 224.5,-87.5"/>
<text text-anchor="middle" x="321" y="-94.5" font-family="Helvetica,sans-Serif" font-size="10.00">command.RepeatCommand.execute</text>
</a>
</g>
</g>
<!-- Node1&#45;&gt;Node7 -->
<g id="edge6" class="edge"><title>Node1&#45;&gt;Node7</title>
<path fill="none" stroke="midnightblue" d="M189.725,-118.618C214.54,-114.5 240.363,-110.215 262.411,-106.556"/>
<polygon fill="midnightblue" stroke="midnightblue" points="188.83,-115.218 179.537,-120.308 189.975,-122.124 188.83,-115.218"/>
</g>
<!-- Node8 -->
<g id="node8" class="node"><title>Node8</title>
<g id="a_node8"><a xlink:href="../../dc/daf/classcommand_1_1_ask_with_command.html#aa8274e05370a4e3f6ad3e2d7e86ec7f0" target="_top" xlink:title="command.AskWithCommand.execute">
<polygon fill="white" stroke="black" points="222.5,-49.5 222.5,-68.5 419.5,-68.5 419.5,-49.5 222.5,-49.5"/>
<text text-anchor="middle" x="321" y="-56.5" font-family="Helvetica,sans-Serif" font-size="10.00">command.AskWithCommand.execute</text>
</a>
</g>
</g>
<!-- Node1&#45;&gt;Node8 -->
<g id="edge7" class="edge"><title>Node1&#45;&gt;Node8</title>
<path fill="none" stroke="midnightblue" d="M127.908,-115.241C152.306,-102.921 185.33,-87.631 216,-78 228.083,-74.2058 241.208,-71.0766 253.935,-68.5296"/>
<polygon fill="midnightblue" stroke="midnightblue" points="126.309,-112.127 119.002,-119.799 129.499,-118.358 126.309,-112.127"/>
</g>
<!-- Node9 -->
<g id="node9" class="node"><title>Node9</title>
<g id="a_node9"><a xlink:href="../../db/d0a/classcommand_1_1_base_multi_turtle_command.html#af7226b2d0e5eaaa0ae16ec02c67dccf7" target="_top" xlink:title="command.BaseMultiTurtleCommand.get\lIdsList">
<polygon fill="white" stroke="black" points="216.5,-0 216.5,-30 425.5,-30 425.5,-0 216.5,-0"/>
<text text-anchor="start" x="224.5" y="-18" font-family="Helvetica,sans-Serif" font-size="10.00">command.BaseMultiTurtleCommand.get</text>
<text text-anchor="middle" x="321" y="-7" font-family="Helvetica,sans-Serif" font-size="10.00">IdsList</text>
</a>
</g>
</g>
<!-- Node1&#45;&gt;Node9 -->
<g id="edge9" class="edge"><title>Node1&#45;&gt;Node9</title>
<path fill="none" stroke="midnightblue" d="M113.962,-112.794C137.657,-91.0952 176.615,-58.6809 216,-40 224.137,-36.1403 232.924,-32.8457 241.823,-30.0407"/>
<polygon fill="midnightblue" stroke="midnightblue" points="111.469,-110.333 106.533,-119.707 116.238,-115.457 111.469,-110.333"/>
</g>
<!-- Node2&#45;&gt;Node3 -->
<g id="edge2" class="edge"><title>Node2&#45;&gt;Node3</title>
<path fill="none" stroke="midnightblue" d="M409.506,-231.949C441.846,-237.474 477.592,-243.58 506.342,-248.492"/>
<polygon fill="midnightblue" stroke="midnightblue" points="410.036,-228.489 399.59,-230.255 408.857,-235.389 410.036,-228.489"/>
</g>
<!-- Node4 -->
<g id="node4" class="node"><title>Node4</title>
<g id="a_node4"><a xlink:href="../../dc/d6b/classcommand_1_1_for_command.html#ae306431af6940bd5ba38cc71696cae06" target="_top" xlink:title="command.ForCommand.execute">
<polygon fill="white" stroke="black" points="475.5,-207.5 475.5,-226.5 650.5,-226.5 650.5,-207.5 475.5,-207.5"/>
<text text-anchor="middle" x="563" y="-214.5" font-family="Helvetica,sans-Serif" font-size="10.00">command.ForCommand.execute</text>
</a>
</g>
</g>
<!-- Node2&#45;&gt;Node4 -->
<g id="edge3" class="edge"><title>Node2&#45;&gt;Node4</title>
<path fill="none" stroke="midnightblue" d="M409.611,-217C430.962,-217 453.793,-217 475.111,-217"/>
<polygon fill="midnightblue" stroke="midnightblue" points="409.59,-213.5 399.59,-217 409.59,-220.5 409.59,-213.5"/>
</g>
<!-- Node9&#45;&gt;Node6 -->
<g id="edge10" class="edge"><title>Node9&#45;&gt;Node6</title>
<path fill="none" stroke="midnightblue" d="M400.415,-32.5833C409.096,-34.905 417.769,-37.391 426,-40 467.411,-53.1254 514.18,-72.8099 540.673,-84.4347"/>
<polygon fill="midnightblue" stroke="midnightblue" points="401.191,-29.1689 390.632,-30.0342 399.426,-35.9427 401.191,-29.1689"/>
</g>
<!-- Node10 -->
<g id="node10" class="node"><title>Node10</title>
<g id="a_node10"><a xlink:href="../../d6/de2/classcommand_1_1_tell_command.html#ad12c8eb44a4dc930037355278c0aee33" target="_top" xlink:title="command.TellCommand.execute">
<polygon fill="white" stroke="black" points="476,-5.5 476,-24.5 650,-24.5 650,-5.5 476,-5.5"/>
<text text-anchor="middle" x="563" y="-12.5" font-family="Helvetica,sans-Serif" font-size="10.00">command.TellCommand.execute</text>
</a>
</g>
</g>
<!-- Node9&#45;&gt;Node10 -->
<g id="edge11" class="edge"><title>Node9&#45;&gt;Node10</title>
<path fill="none" stroke="midnightblue" d="M435.771,-15C449.213,-15 462.759,-15 475.733,-15"/>
<polygon fill="midnightblue" stroke="midnightblue" points="435.523,-11.5001 425.523,-15 435.523,-18.5001 435.523,-11.5001"/>
</g>
</g>
</svg>
        <g id="navigator" transform="translate(0 0)" fill="#404254">
                <rect fill="#f2f5e9" fill-opacity="0.5" stroke="#606060" stroke-width=".5" x="0" y="0" width="60" height="60"/>
                <use id="zoomplus" xlink:href="#zoomPlus" x="17" y="9" onmousedown="handleZoom(evt,'in')"/>
                <use id="zoomminus" xlink:href="#zoomMin" x="42" y="9" onmousedown="handleZoom(evt,'out')"/>
                <use id="reset" xlink:href="#resetDef" x="30" y="36" onmousedown="handleReset()"/>
                <g id="arrowUp" xlink:href="#dirArrow" transform="translate(30 24)" onmousedown="handlePan(0,-1)">
                  <use xlink:href="#rim" fill="#404040">
                        <set attributeName="fill" to="#808080" begin="arrowUp.mouseover" end="arrowUp.mouseout"/>
                  </use>
                  <path fill="none" stroke="white" stroke-width="1.5" d="M0,-3.0v7 M-2.5,-0.5L0,-3.0L2.5,-0.5"/>
                </g>
                <g id="arrowRight" xlink:href="#dirArrow" transform="rotate(90) translate(36 -43)" onmousedown="handlePan(1,0)">
                  <use xlink:href="#rim" fill="#404040">
                        <set attributeName="fill" to="#808080" begin="arrowRight.mouseover" end="arrowRight.mouseout"/>
                  </use>
                  <path fill="none" stroke="white" stroke-width="1.5" d="M0,-3.0v7 M-2.5,-0.5L0,-3.0L2.5,-0.5"/>
                </g>
                <g id="arrowDown" xlink:href="#dirArrow" transform="rotate(180) translate(-30 -48)" onmousedown="handlePan(0,1)">
                  <use xlink:href="#rim" fill="#404040">
                        <set attributeName="fill" to="#808080" begin="arrowDown.mouseover" end="arrowDown.mouseout"/>
                  </use>
                  <path fill="none" stroke="white" stroke-width="1.5" d="M0,-3.0v7 M-2.5,-0.5L0,-3.0L2.5,-0.5"/>
                </g>
                <g id="arrowLeft" xlink:href="#dirArrow" transform="rotate(270) translate(-36 17)" onmousedown="handlePan(-1,0)">
                  <use xlink:href="#rim" fill="#404040">
                        <set attributeName="fill" to="#808080" begin="arrowLeft.mouseover" end="arrowLeft.mouseout"/>
                  </use>
                  <path fill="none" stroke="white" stroke-width="1.5" d="M0,-3.0v7 M-2.5,-0.5L0,-3.0L2.5,-0.5"/>
                </g>
        </g>
        <svg viewBox="0 0 15 15" width="100%" height="30px" preserveAspectRatio="xMaxYMin meet">
         <g id="arrow_out" transform="scale(0.3 0.3)">
          <a xlink:href="classcommand_1_1_basic_list_command_a36b32271a84890af875a576eaf608aa3_icgraph_org.svg" target="_base">
           <rect id="button" ry="5" rx="5" y="6" x="6" height="38" width="38"
                fill="#f2f5e9" fill-opacity="0.5" stroke="#606060" stroke-width="1.0"/>
           <path id="arrow"
             d="M 11.500037,31.436501 C 11.940474,20.09759 22.043105,11.32322 32.158766,21.979434 L 37.068811,17.246167 C 37.068811,17.246167 37.088388,32 37.088388,32 L 22.160133,31.978069 C 22.160133,31.978069 26.997745,27.140456 26.997745,27.140456 C 18.528582,18.264221 13.291696,25.230495 11.500037,31.436501 z"
             style="fill:#404040;"/>
          </a>
         </g>
        </svg>
</svg>
