<?xml version="1.0" encoding="UTF-8" standalone="no"?>
<!DOCTYPE svg PUBLIC "-//W3C//DTD SVG 1.1//EN"
 "http://www.w3.org/Graphics/SVG/1.1/DTD/svg11.dtd">
<!-- Generated by graphviz version 2.36.0 (20140111.2315)
 -->
<!-- Title: command.BaseMultiTurtleCommand.getIdsList Pages: 1 -->
<svg width="432pt" height="66pt"
 viewBox="0.00 0.00 432.00 66.00" xmlns="http://www.w3.org/2000/svg" xmlns:xlink="http://www.w3.org/1999/xlink">
<g id="graph0" class="graph" transform="scale(1 1) rotate(0) translate(4 62)">
<title>command.BaseMultiTurtleCommand.getIdsList</title>
<polygon fill="white" stroke="none" points="-4,4 -4,-62 428,-62 428,4 -4,4"/>
<!-- Node1 -->
<g id="node1" class="node"><title>Node1</title>
<polygon fill="#bfbfbf" stroke="black" points="0.5,-14 0.5,-44 209.5,-44 209.5,-14 0.5,-14"/>
<text text-anchor="start" x="8.5" y="-32" font-family="Helvetica,sans-Serif" font-size="10.00">command.BaseMultiTurtleCommand.get</text>
<text text-anchor="middle" x="105" y="-21" font-family="Helvetica,sans-Serif" font-size="10.00">IdsList</text>
</g>
<!-- Node2 -->
<g id="node2" class="node"><title>Node2</title>
<g id="a_node2"><a xlink:href="../../db/d24/classcommand_1_1_ask_command.html#a512723f6475d7ed90cb6639c5eec3adb" target="_top" xlink:title="command.AskCommand.execute">
<polygon fill="white" stroke="black" points="246.5,-38.5 246.5,-57.5 423.5,-57.5 423.5,-38.5 246.5,-38.5"/>
<text text-anchor="middle" x="335" y="-45.5" font-family="Helvetica,sans-Serif" font-size="10.00">command.AskCommand.execute</text>
</a>
</g>
</g>
<!-- Node1&#45;&gt;Node2 -->
<g id="edge1" class="edge"><title>Node1&#45;&gt;Node2</title>
<path fill="none" stroke="midnightblue" d="M219.719,-38.4766C228.641,-39.2201 237.565,-39.9637 246.272,-40.6893"/>
<polygon fill="midnightblue" stroke="midnightblue" points="219.915,-34.9809 209.659,-37.6383 219.334,-41.9567 219.915,-34.9809"/>
</g>
<!-- Node3 -->
<g id="node3" class="node"><title>Node3</title>
<g id="a_node3"><a xlink:href="../../d6/de2/classcommand_1_1_tell_command.html#ad12c8eb44a4dc930037355278c0aee33" target="_top" xlink:title="command.TellCommand.execute">
<polygon fill="white" stroke="black" points="248,-0.5 248,-19.5 422,-19.5 422,-0.5 248,-0.5"/>
<text text-anchor="middle" x="335" y="-7.5" font-family="Helvetica,sans-Serif" font-size="10.00">command.TellCommand.execute</text>
</a>
</g>
</g>
<!-- Node1&#45;&gt;Node3 -->
<g id="edge2" class="edge"><title>Node1&#45;&gt;Node3</title>
<path fill="none" stroke="midnightblue" d="M219.902,-19.5082C229.353,-18.7206 238.805,-17.9329 247.998,-17.1668"/>
<polygon fill="midnightblue" stroke="midnightblue" points="219.334,-16.0433 209.659,-20.3617 219.915,-23.0191 219.334,-16.0433"/>
</g>
</g>
</svg>
