<?xml version="1.0" encoding="UTF-8" standalone="no"?>
<!DOCTYPE svg PUBLIC "-//W3C//DTD SVG 1.1//EN"
 "http://www.w3.org/Graphics/SVG/1.1/DTD/svg11.dtd">
<!-- Generated by graphviz version 2.36.0 (20140111.2315)
 -->
<!-- Title: command.BaseMultiTurtleCommand.tell Pages: 1 -->
<svg width="606pt" height="77pt"
 viewBox="0.00 0.00 606.00 77.00" xmlns="http://www.w3.org/2000/svg" xmlns:xlink="http://www.w3.org/1999/xlink">
<g id="graph0" class="graph" transform="scale(1 1) rotate(0) translate(4 73)">
<title>command.BaseMultiTurtleCommand.tell</title>
<polygon fill="white" stroke="none" points="-4,4 -4,-73 602,-73 602,4 -4,4"/>
<!-- Node1 -->
<g id="node1" class="node"><title>Node1</title>
<polygon fill="#bfbfbf" stroke="black" points="0,-22.5 0,-41.5 208,-41.5 208,-22.5 0,-22.5"/>
<text text-anchor="middle" x="104" y="-29.5" font-family="Helvetica,sans-Serif" font-size="10.00">command.BaseMultiTurtleCommand.tell</text>
</g>
<!-- Node2 -->
<g id="node2" class="node"><title>Node2</title>
<g id="a_node2"><a xlink:href="../../de/d19/classworkspace_1_1_workspace.html#aecaf73d3c2b2008aac032adc4a4f759f" target="_top" xlink:title="workspace.Workspace.create\lTurtle">
<polygon fill="white" stroke="black" points="251.5,-39 251.5,-69 406.5,-69 406.5,-39 251.5,-39"/>
<text text-anchor="start" x="259.5" y="-57" font-family="Helvetica,sans-Serif" font-size="10.00">workspace.Workspace.create</text>
<text text-anchor="middle" x="329" y="-46" font-family="Helvetica,sans-Serif" font-size="10.00">Turtle</text>
</a>
</g>
</g>
<!-- Node1&#45;&gt;Node2 -->
<g id="edge1" class="edge"><title>Node1&#45;&gt;Node2</title>
<path fill="none" stroke="midnightblue" d="M201.514,-41.5216C214.703,-42.8227 228.177,-44.152 241.18,-45.4348"/>
<polygon fill="midnightblue" stroke="midnightblue" points="241.197,-48.9534 251.493,-46.4522 241.884,-41.9872 241.197,-48.9534"/>
</g>
<!-- Node4 -->
<g id="node4" class="node"><title>Node4</title>
<g id="a_node4"><a xlink:href="../../de/d19/classworkspace_1_1_workspace.html#aaea1cb2eb261be3e966bb85bc2bfbd51" target="_top" xlink:title="workspace.Workspace.getTurtles">
<polygon fill="white" stroke="black" points="244,-0.5 244,-19.5 414,-19.5 414,-0.5 244,-0.5"/>
<text text-anchor="middle" x="329" y="-7.5" font-family="Helvetica,sans-Serif" font-size="10.00">workspace.Workspace.getTurtles</text>
</a>
</g>
</g>
<!-- Node1&#45;&gt;Node4 -->
<g id="edge3" class="edge"><title>Node1&#45;&gt;Node4</title>
<path fill="none" stroke="midnightblue" d="M201.514,-22.4784C212.218,-21.4224 223.111,-20.3478 233.786,-19.2947"/>
<polygon fill="midnightblue" stroke="midnightblue" points="234.333,-22.7577 243.942,-18.2928 233.646,-15.7915 234.333,-22.7577"/>
</g>
<!-- Node3 -->
<g id="node3" class="node"><title>Node3</title>
<g id="a_node3"><a xlink:href="../../d4/d4a/classactor_1_1_turtle.html#aef4e04d5061408a3d5c35eb27cc7f96f" target="_top" xlink:title="actor.Turtle.setChangedand\lNotify">
<polygon fill="white" stroke="black" points="450,-39 450,-69 598,-69 598,-39 450,-39"/>
<text text-anchor="start" x="458" y="-57" font-family="Helvetica,sans-Serif" font-size="10.00">actor.Turtle.setChangedand</text>
<text text-anchor="middle" x="524" y="-46" font-family="Helvetica,sans-Serif" font-size="10.00">Notify</text>
</a>
</g>
</g>
<!-- Node2&#45;&gt;Node3 -->
<g id="edge2" class="edge"><title>Node2&#45;&gt;Node3</title>
<path fill="none" stroke="midnightblue" d="M406.556,-54C417.514,-54 428.832,-54 439.908,-54"/>
<polygon fill="midnightblue" stroke="midnightblue" points="439.996,-57.5001 449.996,-54 439.996,-50.5001 439.996,-57.5001"/>
</g>
</g>
</svg>
