<?xml version="1.0" encoding="UTF-8" standalone="no"?>
<!DOCTYPE svg PUBLIC "-//W3C//DTD SVG 1.1//EN"
 "http://www.w3.org/Graphics/SVG/1.1/DTD/svg11.dtd">
<!-- Generated by graphviz version 2.36.0 (20140111.2315)
 -->
<!-- Title: command.BaseMultiTurtleCommand.tell Pages: 1 -->
<svg width="450pt" height="104pt"
 viewBox="0.00 0.00 450.00 104.00" xmlns="http://www.w3.org/2000/svg" xmlns:xlink="http://www.w3.org/1999/xlink">
<g id="graph0" class="graph" transform="scale(1 1) rotate(0) translate(4 100)">
<title>command.BaseMultiTurtleCommand.tell</title>
<polygon fill="white" stroke="none" points="-4,4 -4,-100 446,-100 446,4 -4,4"/>
<!-- Node1 -->
<g id="node1" class="node"><title>Node1</title>
<polygon fill="#bfbfbf" stroke="black" points="0,-38.5 0,-57.5 208,-57.5 208,-38.5 0,-38.5"/>
<text text-anchor="middle" x="104" y="-45.5" font-family="Helvetica,sans-Serif" font-size="10.00">command.BaseMultiTurtleCommand.tell</text>
</g>
<!-- Node2 -->
<g id="node2" class="node"><title>Node2</title>
<g id="a_node2"><a xlink:href="../../db/d24/classcommand_1_1_ask_command.html#a512723f6475d7ed90cb6639c5eec3adb" target="_top" xlink:title="command.AskCommand.execute">
<polygon fill="white" stroke="black" points="254.5,-76.5 254.5,-95.5 431.5,-95.5 431.5,-76.5 254.5,-76.5"/>
<text text-anchor="middle" x="343" y="-83.5" font-family="Helvetica,sans-Serif" font-size="10.00">command.AskCommand.execute</text>
</a>
</g>
</g>
<!-- Node1&#45;&gt;Node2 -->
<g id="edge1" class="edge"><title>Node1&#45;&gt;Node2</title>
<path fill="none" stroke="midnightblue" d="M174.442,-59.1341C208.721,-64.6303 249.65,-71.1929 282.476,-76.4561"/>
<polygon fill="midnightblue" stroke="midnightblue" points="174.927,-55.6673 164.499,-57.54 173.819,-62.5791 174.927,-55.6673"/>
</g>
<!-- Node3 -->
<g id="node3" class="node"><title>Node3</title>
<g id="a_node3"><a xlink:href="../../d6/de2/classcommand_1_1_tell_command.html#ad12c8eb44a4dc930037355278c0aee33" target="_top" xlink:title="command.TellCommand.execute">
<polygon fill="white" stroke="black" points="256,-38.5 256,-57.5 430,-57.5 430,-38.5 256,-38.5"/>
<text text-anchor="middle" x="343" y="-45.5" font-family="Helvetica,sans-Serif" font-size="10.00">command.TellCommand.execute</text>
</a>
</g>
</g>
<!-- Node1&#45;&gt;Node3 -->
<g id="edge2" class="edge"><title>Node1&#45;&gt;Node3</title>
<path fill="none" stroke="midnightblue" d="M218.326,-48C230.908,-48 243.569,-48 255.738,-48"/>
<polygon fill="midnightblue" stroke="midnightblue" points="218.262,-44.5001 208.262,-48 218.262,-51.5001 218.262,-44.5001"/>
</g>
<!-- Node4 -->
<g id="node4" class="node"><title>Node4</title>
<g id="a_node4"><a xlink:href="../../dc/daf/classcommand_1_1_ask_with_command.html#aa8274e05370a4e3f6ad3e2d7e86ec7f0" target="_top" xlink:title="command.AskWithCommand.execute">
<polygon fill="white" stroke="black" points="244.5,-0.5 244.5,-19.5 441.5,-19.5 441.5,-0.5 244.5,-0.5"/>
<text text-anchor="middle" x="343" y="-7.5" font-family="Helvetica,sans-Serif" font-size="10.00">command.AskWithCommand.execute</text>
</a>
</g>
</g>
<!-- Node1&#45;&gt;Node4 -->
<g id="edge3" class="edge"><title>Node1&#45;&gt;Node4</title>
<path fill="none" stroke="midnightblue" d="M174.442,-36.8659C208.721,-31.3697 249.65,-24.8071 282.476,-19.5439"/>
<polygon fill="midnightblue" stroke="midnightblue" points="173.819,-33.4209 164.499,-38.46 174.927,-40.3327 173.819,-33.4209"/>
</g>
</g>
</svg>
