<?xml version="1.0" encoding="UTF-8" standalone="no"?>
<!DOCTYPE svg PUBLIC "-//W3C//DTD SVG 1.1//EN"
 "http://www.w3.org/Graphics/SVG/1.1/DTD/svg11.dtd">
<!-- Generated by graphviz version 2.36.0 (20140111.2315)
 -->
<!-- Title: features.PenTypeComboBoxFeature Pages: 1 -->
<svg width="189pt" height="96pt"
 viewBox="0.00 0.00 189.00 96.00" xmlns="http://www.w3.org/2000/svg" xmlns:xlink="http://www.w3.org/1999/xlink">
<g id="graph0" class="graph" transform="scale(1 1) rotate(0) translate(4 92)">
<title>features.PenTypeComboBoxFeature</title>
<polygon fill="white" stroke="none" points="-4,4 -4,-92 185,-92 185,4 -4,4"/>
<!-- Node1 -->
<g id="node1" class="node"><title>Node1</title>
<polygon fill="#bfbfbf" stroke="black" points="8.5,-1 8.5,-31 159.5,-31 159.5,-1 8.5,-1"/>
<text text-anchor="start" x="16.5" y="-19" font-family="Helvetica,sans-Serif" font-size="10.00">features.PenTypeComboBox</text>
<text text-anchor="middle" x="84" y="-8" font-family="Helvetica,sans-Serif" font-size="10.00">Feature</text>
</g>
<!-- Node2 -->
<g id="node2" class="node"><title>Node2</title>
<polygon fill="white" stroke="#bfbfbf" points="-0.5,-68.5 -0.5,-87.5 68.5,-87.5 68.5,-68.5 -0.5,-68.5"/>
<text text-anchor="middle" x="34" y="-75.5" font-family="Helvetica,sans-Serif" font-size="10.00">ComboBox</text>
</g>
<!-- Node2&#45;&gt;Node1 -->
<g id="edge1" class="edge"><title>Node2&#45;&gt;Node1</title>
<path fill="none" stroke="midnightblue" d="M47.6044,-60.6747C55.3037,-51.4355 64.8376,-39.9948 72.216,-31.1408"/>
<polygon fill="midnightblue" stroke="midnightblue" points="44.8769,-58.4806 41.1638,-68.4035 50.2544,-62.9619 44.8769,-58.4806"/>
</g>
<!-- Node3 -->
<g id="node3" class="node"><title>Node3</title>
<g id="a_node3"><a xlink:href="../../d2/dfc/interfacefeatures_1_1_feature.html" target="_top" xlink:title="features.Feature">
<polygon fill="white" stroke="black" points="86.5,-68.5 86.5,-87.5 181.5,-87.5 181.5,-68.5 86.5,-68.5"/>
<text text-anchor="middle" x="134" y="-75.5" font-family="Helvetica,sans-Serif" font-size="10.00">features.Feature</text>
</a>
</g>
</g>
<!-- Node3&#45;&gt;Node1 -->
<g id="edge2" class="edge"><title>Node3&#45;&gt;Node1</title>
<path fill="none" stroke="midnightblue" d="M120.396,-60.6747C112.696,-51.4355 103.162,-39.9948 95.784,-31.1408"/>
<polygon fill="midnightblue" stroke="midnightblue" points="117.746,-62.9619 126.836,-68.4035 123.123,-58.4806 117.746,-62.9619"/>
</g>
</g>
</svg>
