<?xml version="1.0" encoding="UTF-8" standalone="no"?>
<!DOCTYPE svg PUBLIC "-//W3C//DTD SVG 1.1//EN"
 "http://www.w3.org/Graphics/SVG/1.1/DTD/svg11.dtd">
<!-- Generated by graphviz version 2.36.0 (20140111.2315)
 -->
<!-- Title: command.RotateCommand Pages: 1 -->
<svg width="305pt" height="140pt"
 viewBox="0.00 0.00 305.00 140.00" xmlns="http://www.w3.org/2000/svg" xmlns:xlink="http://www.w3.org/1999/xlink">
<g id="graph0" class="graph" transform="scale(1 1) rotate(0) translate(4 136)">
<title>command.RotateCommand</title>
<polygon fill="white" stroke="none" points="-4,4 -4,-136 301,-136 301,4 -4,4"/>
<!-- Node1 -->
<g id="node1" class="node"><title>Node1</title>
<polygon fill="#bfbfbf" stroke="black" points="72.5,-56.5 72.5,-75.5 221.5,-75.5 221.5,-56.5 72.5,-56.5"/>
<text text-anchor="middle" x="147" y="-63.5" font-family="Helvetica,sans-Serif" font-size="10.00">command.RotateCommand</text>
</g>
<!-- Node4 -->
<g id="node4" class="node"><title>Node4</title>
<g id="a_node4"><a xlink:href="../../d7/d34/classcommand_1_1_left_command.html" target="_top" xlink:title="command.LeftCommand">
<polygon fill="white" stroke="black" points="-0.5,-0.5 -0.5,-19.5 136.5,-19.5 136.5,-0.5 -0.5,-0.5"/>
<text text-anchor="middle" x="68" y="-7.5" font-family="Helvetica,sans-Serif" font-size="10.00">command.LeftCommand</text>
</a>
</g>
</g>
<!-- Node1&#45;&gt;Node4 -->
<g id="edge3" class="edge"><title>Node1&#45;&gt;Node4</title>
<path fill="none" stroke="midnightblue" d="M125.966,-50.6221C111.534,-40.7574 92.8585,-27.9919 80.6612,-19.6545"/>
<polygon fill="midnightblue" stroke="midnightblue" points="124.077,-53.5703 134.307,-56.324 128.027,-47.7914 124.077,-53.5703"/>
</g>
<!-- Node5 -->
<g id="node5" class="node"><title>Node5</title>
<g id="a_node5"><a xlink:href="../../da/ddd/classcommand_1_1_right_command.html" target="_top" xlink:title="command.RightCommand">
<polygon fill="white" stroke="black" points="154.5,-0.5 154.5,-19.5 297.5,-19.5 297.5,-0.5 154.5,-0.5"/>
<text text-anchor="middle" x="226" y="-7.5" font-family="Helvetica,sans-Serif" font-size="10.00">command.RightCommand</text>
</a>
</g>
</g>
<!-- Node1&#45;&gt;Node5 -->
<g id="edge4" class="edge"><title>Node1&#45;&gt;Node5</title>
<path fill="none" stroke="midnightblue" d="M168.034,-50.6221C182.466,-40.7574 201.141,-27.9919 213.339,-19.6545"/>
<polygon fill="midnightblue" stroke="midnightblue" points="165.973,-47.7914 159.693,-56.324 169.923,-53.5703 165.973,-47.7914"/>
</g>
<!-- Node2 -->
<g id="node2" class="node"><title>Node2</title>
<g id="a_node2"><a xlink:href="../../d7/d35/classcommand_1_1_command.html" target="_top" xlink:title="command.Command">
<polygon fill="white" stroke="black" points="11.5,-112.5 11.5,-131.5 130.5,-131.5 130.5,-112.5 11.5,-112.5"/>
<text text-anchor="middle" x="71" y="-119.5" font-family="Helvetica,sans-Serif" font-size="10.00">command.Command</text>
</a>
</g>
</g>
<!-- Node2&#45;&gt;Node1 -->
<g id="edge1" class="edge"><title>Node2&#45;&gt;Node1</title>
<path fill="none" stroke="midnightblue" d="M91.5758,-106.38C105.312,-96.6204 122.925,-84.1057 134.567,-75.8339"/>
<polygon fill="midnightblue" stroke="midnightblue" points="89.3353,-103.679 83.2107,-112.324 93.3898,-109.385 89.3353,-103.679"/>
</g>
<!-- Node3 -->
<g id="node3" class="node"><title>Node3</title>
<g id="a_node3"><a xlink:href="../../d0/d0e/interfacecommand_1_1_position_interface.html" target="_top" xlink:title="command.PositionInterface">
<polygon fill="white" stroke="black" points="149,-112.5 149,-131.5 297,-131.5 297,-112.5 149,-112.5"/>
<text text-anchor="middle" x="223" y="-119.5" font-family="Helvetica,sans-Serif" font-size="10.00">command.PositionInterface</text>
</a>
</g>
</g>
<!-- Node3&#45;&gt;Node1 -->
<g id="edge2" class="edge"><title>Node3&#45;&gt;Node1</title>
<path fill="none" stroke="midnightblue" d="M202.424,-106.38C188.688,-96.6204 171.075,-84.1057 159.433,-75.8339"/>
<polygon fill="midnightblue" stroke="midnightblue" points="200.61,-109.385 210.789,-112.324 204.665,-103.679 200.61,-109.385"/>
</g>
</g>
</svg>
