<?xml version="1.0" encoding="UTF-8" standalone="no"?>
<!DOCTYPE svg PUBLIC "-//W3C//DTD SVG 1.1//EN"
 "http://www.w3.org/Graphics/SVG/1.1/DTD/svg11.dtd">
<!-- Generated by graphviz version 2.36.0 (20140111.2315)
 -->
<!-- Title: mainApplication.GUI Pages: 1 -->
<!--zoomable 1064 -->
<svg id="main" version="1.1" xmlns="http://www.w3.org/2000/svg" xmlns:xlink="http://www.w3.org/1999/xlink" xml:space="preserve" onload="init(evt)">
<style type="text/css"><![CDATA[
.edge:hover path { stroke: red; }
.edge:hover polygon { stroke: red; fill: red; }
]]></style>
<script type="text/javascript"><![CDATA[
var edges = document.getElementsByTagName('g');
if (edges && edges.length) {
  for (var i=0;i<edges.length;i++) {
    if (edges[i].id.substr(0,4)=='edge') {
      edges[i].setAttribute('class','edge');
    }
  }
}
]]></script>
        <defs>
                <circle id="rim" cx="0" cy="0" r="7"/>
                <circle id="rim2" cx="0" cy="0" r="3.5"/>
                <g id="zoomPlus">
                        <use xlink:href="#rim" fill="#404040">
                                <set attributeName="fill" to="#808080" begin="zoomplus.mouseover" end="zoomplus.mouseout"/>
                        </use>
                        <path d="M-4,0h8M0,-4v8" fill="none" stroke="white" stroke-width="1.5" pointer-events="none"/>
                </g>
                <g id="zoomMin">
                        <use xlink:href="#rim" fill="#404040">
                                <set attributeName="fill" to="#808080" begin="zoomminus.mouseover" end="zoomminus.mouseout"/>
                        </use>
                        <path d="M-4,0h8" fill="none" stroke="white" stroke-width="1.5" pointer-events="none"/>
                </g>
                <g id="dirArrow">
                        <path fill="none" stroke="white" stroke-width="1.5" d="M0,-3.0v7 M-2.5,-0.5L0,-3.0L2.5,-0.5"/>
                </g>
               <g id="resetDef">
                       <use xlink:href="#rim2" fill="#404040">
                               <set attributeName="fill" to="#808080" begin="reset.mouseover" end="reset.mouseout"/>
                       </use>
               </g>
        </defs>

<script type="text/javascript">
var viewWidth = 1504;
var viewHeight = 1064;
var sectionId = 'dynsection-1';
</script>
<script xlink:href="../../svgpan.js"/>
<svg id="graph" class="graph">
<g id="viewport">
<title>mainApplication.GUI</title>
<polygon fill="white" stroke="none" points="-4,4 -4,-1060.08 1500,-1060.08 1500,4 -4,4"/>
<!-- Node1 -->
<g id="node1" class="node"><title>Node1</title>
<polygon fill="#bfbfbf" stroke="black" points="1365.5,-580.5 1365.5,-599.5 1478.5,-599.5 1478.5,-580.5 1365.5,-580.5"/>
<text text-anchor="middle" x="1422" y="-587.5" font-family="Helvetica,sans-Serif" font-size="10.00">mainApplication.GUI</text>
</g>
<!-- Node2 -->
<g id="node2" class="node"><title>Node2</title>
<polygon fill="white" stroke="#bfbfbf" points="848,-194.5 848,-213.5 888,-213.5 888,-194.5 848,-194.5"/>
<text text-anchor="middle" x="868" y="-201.5" font-family="Helvetica,sans-Serif" font-size="10.00">Pane</text>
</g>
<!-- Node2&#45;&gt;Node1 -->
<g id="edge1" class="edge"><title>Node2&#45;&gt;Node1</title>
<path fill="none" stroke="midnightblue" d="M898.181,-204.01C994.317,-204.307 1296.85,-207.443 1330,-235 1385.9,-281.467 1414.51,-527.81 1420.01,-580.199"/>
<polygon fill="midnightblue" stroke="midnightblue" points="898.021,-200.51 888.013,-203.987 898.005,-207.51 898.021,-200.51"/>
</g>
<!-- Node24 -->
<g id="node24" class="node"><title>Node24</title>
<g id="a_node24"><a xlink:href="../../da/d5b/classcomponents_1_1_center_pane.html" target="_top" xlink:title="components.CenterPane">
<polygon fill="white" stroke="black" points="1075.5,-151.5 1075.5,-170.5 1210.5,-170.5 1210.5,-151.5 1075.5,-151.5"/>
<text text-anchor="middle" x="1143" y="-158.5" font-family="Helvetica,sans-Serif" font-size="10.00">components.CenterPane</text>
</a>
</g>
</g>
<!-- Node2&#45;&gt;Node24 -->
<g id="edge26" class="edge"><title>Node2&#45;&gt;Node24</title>
<path fill="none" stroke="midnightblue" d="M898.555,-200.356C933.051,-195.997 991.781,-188.249 1042,-180 1059.18,-177.179 1077.94,-173.716 1094.53,-170.522"/>
<polygon fill="midnightblue" stroke="midnightblue" points="897.734,-196.932 888.247,-201.649 898.605,-203.877 897.734,-196.932"/>
</g>
<!-- Node3 -->
<g id="node3" class="node"><title>Node3</title>
<polygon fill="white" stroke="#bfbfbf" points="533,-384.5 533,-403.5 593,-403.5 593,-384.5 533,-384.5"/>
<text text-anchor="middle" x="563" y="-391.5" font-family="Helvetica,sans-Serif" font-size="10.00">Observer</text>
</g>
<!-- Node3&#45;&gt;Node1 -->
<g id="edge2" class="edge"><title>Node3&#45;&gt;Node1</title>
<path fill="none" stroke="midnightblue" d="M603.371,-395.091C644.948,-396.614 712.332,-400.133 770,-408 975.029,-435.968 1027.92,-442.124 1226,-502 1294.62,-522.742 1370.61,-562.226 1403.85,-580.403"/>
<polygon fill="midnightblue" stroke="midnightblue" points="603.239,-391.585 593.124,-394.738 602.997,-398.581 603.239,-391.585"/>
</g>
<!-- Node9 -->
<g id="node9" class="node"><title>Node9</title>
<g id="a_node9"><a xlink:href="../../de/d19/classworkspace_1_1_workspace.html" target="_top" xlink:title="workspace.Workspace">
<polygon fill="white" stroke="black" points="807.5,-501.5 807.5,-520.5 928.5,-520.5 928.5,-501.5 807.5,-501.5"/>
<text text-anchor="middle" x="868" y="-508.5" font-family="Helvetica,sans-Serif" font-size="10.00">workspace.Workspace</text>
</a>
</g>
</g>
<!-- Node3&#45;&gt;Node9 -->
<g id="edge10" class="edge"><title>Node3&#45;&gt;Node9</title>
<path fill="none" stroke="midnightblue" d="M603.32,-399.221C659.597,-407.025 757.721,-421.992 770,-433 790.413,-451.301 768.041,-473.205 788,-492 793.546,-497.222 800.267,-501.087 807.421,-503.934"/>
<polygon fill="midnightblue" stroke="midnightblue" points="603.712,-395.742 593.329,-397.85 602.76,-402.677 603.712,-395.742"/>
</g>
<!-- Node4 -->
<g id="node4" class="node"><title>Node4</title>
<g id="a_node4"><a xlink:href="../../d7/da1/classmain_application_1_1_controller.html" target="_top" xlink:title="mainApplication.Controller">
<polygon fill="white" stroke="black" points="1071.5,-511.5 1071.5,-530.5 1214.5,-530.5 1214.5,-511.5 1071.5,-511.5"/>
<text text-anchor="middle" x="1143" y="-518.5" font-family="Helvetica,sans-Serif" font-size="10.00">mainApplication.Controller</text>
</a>
</g>
</g>
<!-- Node4&#45;&gt;Node1 -->
<g id="edge3" class="edge"><title>Node4&#45;&gt;Node1</title>
<path fill="none" stroke="#9a32cd" stroke-dasharray="5,2" d="M1192.26,-533.023C1246.39,-546.504 1333.06,-568.094 1382.72,-580.465"/>
<polygon fill="#9a32cd" stroke="#9a32cd" points="1192.77,-529.543 1182.22,-530.522 1191.08,-536.335 1192.77,-529.543"/>
<text text-anchor="middle" x="1287" y="-569" font-family="Helvetica,sans-Serif" font-size="10.00"> myController</text>
</g>
<!-- Node5 -->
<g id="node5" class="node"><title>Node5</title>
<g id="a_node5"><a xlink:href="../../d6/d95/classparser_1_1_parser.html" target="_top" xlink:title="parser.Parser">
<polygon fill="white" stroke="black" points="828,-598.5 828,-617.5 908,-617.5 908,-598.5 828,-598.5"/>
<text text-anchor="middle" x="868" y="-605.5" font-family="Helvetica,sans-Serif" font-size="10.00">parser.Parser</text>
</a>
</g>
</g>
<!-- Node5&#45;&gt;Node1 -->
<g id="edge38" class="edge"><title>Node5&#45;&gt;Node1</title>
<path fill="none" stroke="#9a32cd" stroke-dasharray="5,2" d="M918.354,-606.391C1021.05,-603.042 1257.15,-595.343 1365.19,-591.82"/>
<polygon fill="#9a32cd" stroke="#9a32cd" points="918.137,-602.896 908.256,-606.72 918.365,-609.892 918.137,-602.896"/>
<text text-anchor="middle" x="1143" y="-605" font-family="Helvetica,sans-Serif" font-size="10.00"> myParser</text>
</g>
<!-- Node5&#45;&gt;Node4 -->
<g id="edge4" class="edge"><title>Node5&#45;&gt;Node4</title>
<path fill="none" stroke="#9a32cd" stroke-dasharray="5,2" d="M903.82,-594.873C922.219,-588.08 945.234,-579.807 966,-573 1014.74,-557.02 1071.79,-540.573 1107.42,-530.566"/>
<polygon fill="#9a32cd" stroke="#9a32cd" points="902.543,-591.614 894.387,-598.376 904.98,-598.176 902.543,-591.614"/>
<text text-anchor="middle" x="1004" y="-576" font-family="Helvetica,sans-Serif" font-size="10.00"> myParser</text>
</g>
<!-- Node6 -->
<g id="node6" class="node"><title>Node6</title>
<polygon fill="white" stroke="#bfbfbf" points="516.5,-662.5 516.5,-681.5 609.5,-681.5 609.5,-662.5 516.5,-662.5"/>
<text text-anchor="middle" x="563" y="-669.5" font-family="Helvetica,sans-Serif" font-size="10.00">ResourceBundle</text>
</g>
<!-- Node6&#45;&gt;Node5 -->
<g id="edge5" class="edge"><title>Node6&#45;&gt;Node5</title>
<path fill="none" stroke="#9a32cd" stroke-dasharray="5,2" d="M616.664,-660.152C626.435,-657.854 636.541,-655.409 646,-653 654.046,-650.951 655.921,-649.915 664,-648 720.622,-634.578 786.874,-622.125 827.893,-614.79"/>
<polygon fill="#9a32cd" stroke="#9a32cd" points="615.589,-656.809 606.644,-662.487 617.178,-663.626 615.589,-656.809"/>
<text text-anchor="middle" x="717" y="-662" font-family="Helvetica,sans-Serif" font-size="10.00"> myCommands</text>
<text text-anchor="middle" x="717" y="-651" font-family="Helvetica,sans-Serif" font-size="10.00">myLanguage</text>
</g>
<!-- Node37 -->
<g id="node37" class="node"><title>Node37</title>
<g id="a_node37"><a xlink:href="../../d6/d14/classfeatures_1_1_settings_bar.html" target="_top" xlink:title="features.SettingsBar">
<polygon fill="white" stroke="black" points="810,-799.5 810,-818.5 926,-818.5 926,-799.5 810,-799.5"/>
<text text-anchor="middle" x="868" y="-806.5" font-family="Helvetica,sans-Serif" font-size="10.00">features.SettingsBar</text>
</a>
</g>
</g>
<!-- Node6&#45;&gt;Node37 -->
<g id="edge49" class="edge"><title>Node6&#45;&gt;Node37</title>
<path fill="none" stroke="#9a32cd" stroke-dasharray="5,2" d="M618.573,-683.94C661.247,-694.507 721.299,-712.133 770,-737 804.368,-754.548 839.443,-784.066 856.453,-799.282"/>
<polygon fill="#9a32cd" stroke="#9a32cd" points="619.203,-680.491 608.659,-681.534 617.552,-687.294 619.203,-680.491"/>
<text text-anchor="middle" x="717" y="-740" font-family="Helvetica,sans-Serif" font-size="10.00"> myNumberResources</text>
</g>
<!-- Node7 -->
<g id="node7" class="node"><title>Node7</title>
<polygon fill="white" stroke="#bfbfbf" points="506,-624.5 506,-643.5 620,-643.5 620,-624.5 506,-624.5"/>
<text text-anchor="middle" x="563" y="-631.5" font-family="Helvetica,sans-Serif" font-size="10.00">List&lt; parser.Node &gt;</text>
</g>
<!-- Node7&#45;&gt;Node5 -->
<g id="edge6" class="edge"><title>Node7&#45;&gt;Node5</title>
<path fill="none" stroke="#9a32cd" stroke-dasharray="5,2" d="M613.836,-622.322C629.774,-619.049 647.55,-615.875 664,-614 720.751,-607.533 786.968,-606.848 827.945,-607.217"/>
<polygon fill="#9a32cd" stroke="#9a32cd" points="612.719,-618.981 603.66,-624.475 614.168,-625.829 612.719,-618.981"/>
<text text-anchor="middle" x="717" y="-617" font-family="Helvetica,sans-Serif" font-size="10.00"> myTreeHeads</text>
</g>
<!-- Node8 -->
<g id="node8" class="node"><title>Node8</title>
<polygon fill="white" stroke="#bfbfbf" points="788,-463.5 788,-482.5 948,-482.5 948,-463.5 788,-463.5"/>
<text text-anchor="middle" x="868" y="-470.5" font-family="Helvetica,sans-Serif" font-size="10.00">List&lt; workspace.Workspace &gt;</text>
</g>
<!-- Node8&#45;&gt;Node4 -->
<g id="edge7" class="edge"><title>Node8&#45;&gt;Node4</title>
<path fill="none" stroke="#9a32cd" stroke-dasharray="5,2" d="M945.307,-484.032C975.483,-488.623 1010.43,-494.226 1042,-500 1060.67,-503.415 1081.2,-507.644 1098.78,-511.41"/>
<polygon fill="#9a32cd" stroke="#9a32cd" points="945.678,-480.548 935.268,-482.514 944.632,-487.469 945.678,-480.548"/>
<text text-anchor="middle" x="1004" y="-503" font-family="Helvetica,sans-Serif" font-size="10.00"> myWorkspaces</text>
</g>
<!-- Node9&#45;&gt;Node4 -->
<g id="edge8" class="edge"><title>Node9&#45;&gt;Node4</title>
<path fill="none" stroke="#9a32cd" stroke-dasharray="5,2" d="M938.68,-513.552C979.374,-515.043 1030.59,-516.919 1071.43,-518.415"/>
<polygon fill="#9a32cd" stroke="#9a32cd" points="938.695,-510.051 928.574,-513.182 938.439,-517.046 938.695,-510.051"/>
<text text-anchor="middle" x="1004" y="-521" font-family="Helvetica,sans-Serif" font-size="10.00"> myActiveWS</text>
</g>
<!-- Node10 -->
<g id="node10" class="node"><title>Node10</title>
<polygon fill="white" stroke="#bfbfbf" points="256.5,-491.5 256.5,-510.5 327.5,-510.5 327.5,-491.5 256.5,-491.5"/>
<text text-anchor="middle" x="292" y="-498.5" font-family="Helvetica,sans-Serif" font-size="10.00">Observable</text>
</g>
<!-- Node10&#45;&gt;Node9 -->
<g id="edge9" class="edge"><title>Node10&#45;&gt;Node9</title>
<path fill="none" stroke="midnightblue" d="M329.705,-488.126C366.999,-475.776 426.702,-458.002 480,-451 608.343,-434.138 652.758,-423.131 770,-478 779.179,-482.296 778.868,-487.605 788,-492 796.008,-495.854 804.859,-498.961 813.653,-501.457"/>
<polygon fill="midnightblue" stroke="midnightblue" points="328.169,-484.949 319.804,-491.452 330.398,-491.585 328.169,-484.949"/>
</g>
<!-- Node32 -->
<g id="node32" class="node"><title>Node32</title>
<g id="a_node32"><a xlink:href="../../d4/d4a/classactor_1_1_turtle.html" target="_top" xlink:title="actor.Turtle">
<polygon fill="white" stroke="black" points="528.5,-966.5 528.5,-985.5 597.5,-985.5 597.5,-966.5 528.5,-966.5"/>
<text text-anchor="middle" x="563" y="-973.5" font-family="Helvetica,sans-Serif" font-size="10.00">actor.Turtle</text>
</a>
</g>
</g>
<!-- Node10&#45;&gt;Node32 -->
<g id="edge40" class="edge"><title>Node10&#45;&gt;Node32</title>
<path fill="none" stroke="midnightblue" d="M297.651,-520.357C313.629,-583.65 371.37,-787.918 480,-919 497.369,-939.959 524.275,-956.649 542.488,-966.423"/>
<polygon fill="midnightblue" stroke="midnightblue" points="301.019,-519.396 295.222,-510.527 294.223,-521.075 301.019,-519.396"/>
</g>
<!-- Node11 -->
<g id="node11" class="node"><title>Node11</title>
<polygon fill="white" stroke="#bfbfbf" points="501,-325.5 501,-344.5 625,-344.5 625,-325.5 501,-325.5"/>
<text text-anchor="middle" x="563" y="-332.5" font-family="Helvetica,sans-Serif" font-size="10.00">Map&lt; Integer, Color &gt;</text>
</g>
<!-- Node11&#45;&gt;Node1 -->
<g id="edge16" class="edge"><title>Node11&#45;&gt;Node1</title>
<path fill="none" stroke="#9a32cd" stroke-dasharray="5,2" d="M635.243,-337.599C675.046,-339.699 725.454,-343.433 770,-350 975.454,-380.29 1030.61,-381.631 1226,-452 1274.81,-469.579 1287.52,-475.225 1330,-505 1363.46,-528.451 1397.11,-563.605 1412.44,-580.4"/>
<polygon fill="#9a32cd" stroke="#9a32cd" points="635.265,-334.096 625.101,-337.087 634.912,-341.087 635.265,-334.096"/>
<text text-anchor="middle" x="1004" y="-398" font-family="Helvetica,sans-Serif" font-size="10.00"> colorsMap</text>
</g>
<!-- Node11&#45;&gt;Node9 -->
<g id="edge11" class="edge"><title>Node11&#45;&gt;Node9</title>
<path fill="none" stroke="#9a32cd" stroke-dasharray="5,2" d="M631.478,-346.421C684.104,-356.718 751.302,-373.389 770,-394 799.754,-426.799 757.549,-459.847 788,-492 793.335,-497.633 800.024,-501.723 807.239,-504.672"/>
<polygon fill="#9a32cd" stroke="#9a32cd" points="631.981,-342.954 621.502,-344.51 630.665,-349.829 631.981,-342.954"/>
<text text-anchor="middle" x="717" y="-397" font-family="Helvetica,sans-Serif" font-size="10.00"> myColors</text>
</g>
<!-- Node11&#45;&gt;Node24 -->
<g id="edge28" class="edge"><title>Node11&#45;&gt;Node24</title>
<path fill="none" stroke="#9a32cd" stroke-dasharray="5,2" d="M576.701,-316.996C607.306,-275.388 689.902,-173.281 788,-136 902.609,-92.4438 1052.95,-131.71 1114.21,-151.356"/>
<polygon fill="#9a32cd" stroke="#9a32cd" points="573.689,-315.189 570.665,-325.344 579.361,-319.291 573.689,-315.189"/>
<text text-anchor="middle" x="868" y="-139" font-family="Helvetica,sans-Serif" font-size="10.00"> colorsMap</text>
</g>
<!-- Node12 -->
<g id="node12" class="node"><title>Node12</title>
<polygon fill="white" stroke="#bfbfbf" points="480,-537 480,-567 646,-567 646,-537 480,-537"/>
<text text-anchor="start" x="488" y="-555" font-family="Helvetica,sans-Serif" font-size="10.00">Map&lt; String, parser.Command</text>
<text text-anchor="middle" x="563" y="-544" font-family="Helvetica,sans-Serif" font-size="10.00">Object &gt;</text>
</g>
<!-- Node12&#45;&gt;Node9 -->
<g id="edge12" class="edge"><title>Node12&#45;&gt;Node9</title>
<path fill="none" stroke="#9a32cd" stroke-dasharray="5,2" d="M656.379,-539.5C705.394,-532.867 764.203,-524.91 807.206,-519.091"/>
<polygon fill="#9a32cd" stroke="#9a32cd" points="655.836,-536.041 646.396,-540.851 656.775,-542.978 655.836,-536.041"/>
<text text-anchor="middle" x="717" y="-541" font-family="Helvetica,sans-Serif" font-size="10.00"> myCommands</text>
</g>
<!-- Node13 -->
<g id="node13" class="node"><title>Node13</title>
<g id="a_node13"><a xlink:href="../../de/d1c/classproperties_1_1_stage_properties.html" target="_top" xlink:title="properties.StageProperties">
<polygon fill="white" stroke="black" points="490,-498.5 490,-517.5 636,-517.5 636,-498.5 490,-498.5"/>
<text text-anchor="middle" x="563" y="-505.5" font-family="Helvetica,sans-Serif" font-size="10.00">properties.StageProperties</text>
</a>
</g>
</g>
<!-- Node13&#45;&gt;Node9 -->
<g id="edge13" class="edge"><title>Node13&#45;&gt;Node9</title>
<path fill="none" stroke="#9a32cd" stroke-dasharray="5,2" d="M646.485,-508.817C697.244,-509.319 761.149,-509.952 807.079,-510.407"/>
<polygon fill="#9a32cd" stroke="#9a32cd" points="646.225,-505.314 636.191,-508.715 646.156,-512.314 646.225,-505.314"/>
<text text-anchor="middle" x="717" y="-514" font-family="Helvetica,sans-Serif" font-size="10.00"> myStageProperties</text>
</g>
<!-- Node14 -->
<g id="node14" class="node"><title>Node14</title>
<polygon fill="white" stroke="#bfbfbf" points="499,-460.5 499,-479.5 627,-479.5 627,-460.5 499,-460.5"/>
<text text-anchor="middle" x="563" y="-467.5" font-family="Helvetica,sans-Serif" font-size="10.00">Map&lt; String, Double &gt;</text>
</g>
<!-- Node14&#45;&gt;Node9 -->
<g id="edge14" class="edge"><title>Node14&#45;&gt;Node9</title>
<path fill="none" stroke="#9a32cd" stroke-dasharray="5,2" d="M637.254,-478.12C676.65,-482.681 726.038,-488.71 770,-495 783.601,-496.946 798.24,-499.25 811.919,-501.495"/>
<polygon fill="#9a32cd" stroke="#9a32cd" points="637.538,-474.629 627.203,-476.963 636.737,-481.583 637.538,-474.629"/>
<text text-anchor="middle" x="717" y="-498" font-family="Helvetica,sans-Serif" font-size="10.00"> myVariables</text>
</g>
<!-- Node15 -->
<g id="node15" class="node"><title>Node15</title>
<polygon fill="white" stroke="#bfbfbf" points="487,-586.5 487,-605.5 639,-605.5 639,-586.5 487,-586.5"/>
<text text-anchor="middle" x="563" y="-593.5" font-family="Helvetica,sans-Serif" font-size="10.00">Map&lt; Integer, actor.Turtle &gt;</text>
</g>
<!-- Node15&#45;&gt;Node9 -->
<g id="edge15" class="edge"><title>Node15&#45;&gt;Node9</title>
<path fill="none" stroke="#9a32cd" stroke-dasharray="5,2" d="M635.625,-584.737C675.664,-577.527 726.179,-566.902 770,-553 797.987,-544.121 828.881,-529.935 848.116,-520.543"/>
<polygon fill="#9a32cd" stroke="#9a32cd" points="634.919,-581.307 625.682,-586.496 636.139,-588.2 634.919,-581.307"/>
<text text-anchor="middle" x="717" y="-583" font-family="Helvetica,sans-Serif" font-size="10.00"> myTurtles</text>
</g>
<!-- Node16 -->
<g id="node16" class="node"><title>Node16</title>
<g id="a_node16"><a xlink:href="../../db/d7f/classcomponents_1_1_info_pane.html" target="_top" xlink:title="components.InfoPane">
<polygon fill="white" stroke="black" points="232,-890.5 232,-909.5 352,-909.5 352,-890.5 232,-890.5"/>
<text text-anchor="middle" x="292" y="-897.5" font-family="Helvetica,sans-Serif" font-size="10.00">components.InfoPane</text>
</a>
</g>
</g>
<!-- Node16&#45;&gt;Node1 -->
<g id="edge17" class="edge"><title>Node16&#45;&gt;Node1</title>
<path fill="none" stroke="#9a32cd" stroke-dasharray="5,2" d="M349.621,-911.187C356.467,-912.275 363.378,-913.251 370,-914 418.629,-919.501 431.073,-917.889 480,-919 816.933,-926.654 918.518,-920.975 1226,-783 1276.83,-760.19 1289.73,-751.511 1330,-713 1368.39,-676.28 1402.34,-621.862 1415.35,-599.811"/>
<polygon fill="#9a32cd" stroke="#9a32cd" points="350.118,-907.721 339.678,-909.525 348.965,-914.626 350.118,-907.721"/>
<text text-anchor="middle" x="868" y="-929" font-family="Helvetica,sans-Serif" font-size="10.00"> myLeftPane</text>
<text text-anchor="middle" x="868" y="-918" font-family="Helvetica,sans-Serif" font-size="10.00">myRightPane</text>
</g>
<!-- Node40 -->
<g id="node40" class="node"><title>Node40</title>
<g id="a_node40"><a xlink:href="../../d5/d01/classcomponents_1_1_right_pane.html" target="_top" xlink:title="components.RightPane">
<polygon fill="white" stroke="black" points="499.5,-814.5 499.5,-833.5 626.5,-833.5 626.5,-814.5 499.5,-814.5"/>
<text text-anchor="middle" x="563" y="-821.5" font-family="Helvetica,sans-Serif" font-size="10.00">components.RightPane</text>
</a>
</g>
</g>
<!-- Node16&#45;&gt;Node40 -->
<g id="edge52" class="edge"><title>Node16&#45;&gt;Node40</title>
<path fill="none" stroke="midnightblue" d="M331.537,-887.412C369.192,-875.312 428.238,-856.868 480,-843 492.422,-839.672 505.993,-836.387 518.455,-833.508"/>
<polygon fill="midnightblue" stroke="midnightblue" points="330.418,-884.096 321.975,-890.496 332.566,-890.758 330.418,-884.096"/>
</g>
<!-- Node41 -->
<g id="node41" class="node"><title>Node41</title>
<g id="a_node41"><a xlink:href="../../db/d9a/classcomponents_1_1_left_pane.html" target="_top" xlink:title="components.LeftPane">
<polygon fill="white" stroke="black" points="502.5,-890.5 502.5,-909.5 623.5,-909.5 623.5,-890.5 502.5,-890.5"/>
<text text-anchor="middle" x="563" y="-897.5" font-family="Helvetica,sans-Serif" font-size="10.00">components.LeftPane</text>
</a>
</g>
</g>
<!-- Node16&#45;&gt;Node41 -->
<g id="edge56" class="edge"><title>Node16&#45;&gt;Node41</title>
<path fill="none" stroke="midnightblue" d="M362.207,-900C405.521,-900 460.762,-900 502.175,-900"/>
<polygon fill="midnightblue" stroke="midnightblue" points="362.033,-896.5 352.033,-900 362.033,-903.5 362.033,-896.5"/>
</g>
<!-- Node17 -->
<g id="node17" class="node"><title>Node17</title>
<polygon fill="white" stroke="#bfbfbf" points="46,-1026.5 46,-1045.5 106,-1045.5 106,-1026.5 46,-1026.5"/>
<text text-anchor="middle" x="76" y="-1033.5" font-family="Helvetica,sans-Serif" font-size="10.00">FlowPane</text>
</g>
<!-- Node17&#45;&gt;Node16 -->
<g id="edge18" class="edge"><title>Node17&#45;&gt;Node16</title>
<path fill="none" stroke="midnightblue" d="M116.462,-1036.75C146.762,-1035.2 187.732,-1028.21 214,-1004 233.224,-986.283 217.251,-969.585 232,-948 243.1,-931.755 261.266,-918.16 274.512,-909.633"/>
<polygon fill="midnightblue" stroke="midnightblue" points="116.11,-1033.26 106.232,-1037.09 116.342,-1040.25 116.11,-1033.26"/>
</g>
<!-- Node36 -->
<g id="node36" class="node"><title>Node36</title>
<g id="a_node36"><a xlink:href="../../d7/d3c/classcomponents_1_1_top_pane.html" target="_top" xlink:title="components.TopPane">
<polygon fill="white" stroke="black" points="1083.5,-754.5 1083.5,-773.5 1202.5,-773.5 1202.5,-754.5 1083.5,-754.5"/>
<text text-anchor="middle" x="1143" y="-761.5" font-family="Helvetica,sans-Serif" font-size="10.00">components.TopPane</text>
</a>
</g>
</g>
<!-- Node17&#45;&gt;Node36 -->
<g id="edge45" class="edge"><title>Node17&#45;&gt;Node36</title>
<path fill="none" stroke="midnightblue" d="M116.083,-1038.05C158.977,-1040.11 229.873,-1043 291,-1043 291,-1043 291,-1043 869,-1043 946.217,-1043 986.529,-1080.72 1042,-1027 1065.17,-1004.57 1048.52,-913.138 1060,-883 1077.32,-837.513 1115.48,-792.628 1132.95,-773.555"/>
<polygon fill="midnightblue" stroke="midnightblue" points="116.225,-1034.55 106.066,-1037.55 115.882,-1041.54 116.225,-1034.55"/>
</g>
<!-- Node18 -->
<g id="node18" class="node"><title>Node18</title>
<g id="a_node18"><a xlink:href="../../d2/dfc/interfacefeatures_1_1_feature.html" target="_top" xlink:title="features.Feature">
<polygon fill="white" stroke="black" points="28.5,-776.5 28.5,-795.5 123.5,-795.5 123.5,-776.5 28.5,-776.5"/>
<text text-anchor="middle" x="76" y="-783.5" font-family="Helvetica,sans-Serif" font-size="10.00">features.Feature</text>
</a>
</g>
</g>
<!-- Node18&#45;&gt;Node16 -->
<g id="edge19" class="edge"><title>Node18&#45;&gt;Node16</title>
<path fill="none" stroke="midnightblue" d="M102.46,-800.564C121.074,-811.131 146.982,-825.673 170,-838 205.582,-857.055 247.617,-878.317 271.608,-890.336"/>
<polygon fill="midnightblue" stroke="midnightblue" points="104.122,-797.483 93.6998,-795.578 100.66,-803.566 104.122,-797.483"/>
</g>
<!-- Node18&#45;&gt;Node24 -->
<g id="edge27" class="edge"><title>Node18&#45;&gt;Node24</title>
<path fill="none" stroke="midnightblue" d="M78.579,-766.17C88.2186,-651.749 143.686,-81 291,-81 291,-81 291,-81 869,-81 947.447,-81 967.322,-91.9769 1042,-116 1071.72,-125.561 1104.4,-141.34 1124.05,-151.446"/>
<polygon fill="midnightblue" stroke="midnightblue" points="75.0772,-766.049 77.7461,-776.302 82.0537,-766.623 75.0772,-766.049"/>
</g>
<!-- Node18&#45;&gt;Node36 -->
<g id="edge46" class="edge"><title>Node18&#45;&gt;Node36</title>
<path fill="none" stroke="midnightblue" d="M133.683,-775.416C211.439,-761.487 355.708,-737.746 480,-729 702.439,-713.347 967.372,-741.436 1083.06,-756.021"/>
<polygon fill="midnightblue" stroke="midnightblue" points="132.84,-772.012 123.62,-777.231 134.082,-778.901 132.84,-772.012"/>
</g>
<!-- Node18&#45;&gt;Node40 -->
<g id="edge53" class="edge"><title>Node18&#45;&gt;Node40</title>
<path fill="none" stroke="midnightblue" d="M133.625,-795.339C145.61,-797.087 158.203,-798.753 170,-800 285.947,-812.252 421.9,-818.845 499.398,-821.872"/>
<polygon fill="midnightblue" stroke="midnightblue" points="134.139,-791.877 123.731,-793.859 133.103,-798.8 134.139,-791.877"/>
</g>
<!-- Node18&#45;&gt;Node41 -->
<g id="edge57" class="edge"><title>Node18&#45;&gt;Node41</title>
<path fill="none" stroke="midnightblue" d="M133.612,-789.309C158.445,-791.396 187.838,-794.732 214,-800 335.15,-824.396 360.624,-849.034 480,-881 492.422,-884.326 505.993,-887.611 518.456,-890.489"/>
<polygon fill="midnightblue" stroke="midnightblue" points="133.874,-785.819 123.628,-788.516 133.319,-792.797 133.874,-785.819"/>
</g>
<!-- Node19 -->
<g id="node19" class="node"><title>Node19</title>
<polygon fill="white" stroke="#bfbfbf" points="0,-890.5 0,-909.5 152,-909.5 152,-890.5 0,-890.5"/>
<text text-anchor="middle" x="76" y="-897.5" font-family="Helvetica,sans-Serif" font-size="10.00">List&lt; components.InfoTab &gt;</text>
</g>
<!-- Node19&#45;&gt;Node16 -->
<g id="edge20" class="edge"><title>Node19&#45;&gt;Node16</title>
<path fill="none" stroke="#9a32cd" stroke-dasharray="5,2" d="M162.378,-900C185.667,-900 210.383,-900 231.859,-900"/>
<polygon fill="#9a32cd" stroke="#9a32cd" points="162.148,-896.5 152.147,-900 162.147,-903.5 162.148,-896.5"/>
<text text-anchor="middle" x="192" y="-903" font-family="Helvetica,sans-Serif" font-size="10.00"> myTabs</text>
</g>
<!-- Node20 -->
<g id="node20" class="node"><title>Node20</title>
<g id="a_node20"><a xlink:href="../../d9/d58/classcomponents_1_1_bottom_pane.html" target="_top" xlink:title="components.BottomPane">
<polygon fill="white" stroke="black" points="1073.5,-270.5 1073.5,-289.5 1212.5,-289.5 1212.5,-270.5 1073.5,-270.5"/>
<text text-anchor="middle" x="1143" y="-277.5" font-family="Helvetica,sans-Serif" font-size="10.00">components.BottomPane</text>
</a>
</g>
</g>
<!-- Node20&#45;&gt;Node1 -->
<g id="edge21" class="edge"><title>Node20&#45;&gt;Node1</title>
<path fill="none" stroke="#9a32cd" stroke-dasharray="5,2" d="M1222.76,-285.011C1259.38,-291.139 1301.12,-304.08 1330,-331 1406.7,-402.492 1418.78,-542.385 1420.66,-580.316"/>
<polygon fill="#9a32cd" stroke="#9a32cd" points="1223,-281.506 1212.58,-283.457 1221.94,-288.426 1223,-281.506"/>
<text text-anchor="middle" x="1287" y="-334" font-family="Helvetica,sans-Serif" font-size="10.00"> myBottomPane</text>
</g>
<!-- Node25 -->
<g id="node25" class="node"><title>Node25</title>
<g id="a_node25"><a xlink:href="../../d6/d68/classcomponents_1_1_turtle_manager.html" target="_top" xlink:title="components.TurtleManager">
<polygon fill="white" stroke="black" points="1348.5,-100.5 1348.5,-119.5 1495.5,-119.5 1495.5,-100.5 1348.5,-100.5"/>
<text text-anchor="middle" x="1422" y="-107.5" font-family="Helvetica,sans-Serif" font-size="10.00">components.TurtleManager</text>
</a>
</g>
</g>
<!-- Node20&#45;&gt;Node25 -->
<g id="edge32" class="edge"><title>Node20&#45;&gt;Node25</title>
<path fill="none" stroke="#9a32cd" stroke-dasharray="5,2" d="M1195.32,-267.75C1234.51,-256.789 1288.63,-238.07 1330,-210 1368.07,-184.166 1401.19,-139.272 1414.62,-119.647"/>
<polygon fill="#9a32cd" stroke="#9a32cd" points="1194.18,-264.435 1185.45,-270.438 1196.02,-271.189 1194.18,-264.435"/>
<text text-anchor="middle" x="1287" y="-254" font-family="Helvetica,sans-Serif" font-size="10.00"> myBottomPane</text>
</g>
<!-- Node21 -->
<g id="node21" class="node"><title>Node21</title>
<polygon fill="white" stroke="#bfbfbf" points="847,-270.5 847,-289.5 889,-289.5 889,-270.5 847,-270.5"/>
<text text-anchor="middle" x="868" y="-277.5" font-family="Helvetica,sans-Serif" font-size="10.00">HBox</text>
</g>
<!-- Node21&#45;&gt;Node20 -->
<g id="edge22" class="edge"><title>Node21&#45;&gt;Node20</title>
<path fill="none" stroke="midnightblue" d="M899.138,-280C940.843,-280 1017.34,-280 1073.37,-280"/>
<polygon fill="midnightblue" stroke="midnightblue" points="899.074,-276.5 889.074,-280 899.074,-283.5 899.074,-276.5"/>
</g>
<!-- Node22 -->
<g id="node22" class="node"><title>Node22</title>
<polygon fill="white" stroke="#bfbfbf" points="847,-232.5 847,-251.5 889,-251.5 889,-232.5 847,-232.5"/>
<text text-anchor="middle" x="868" y="-239.5" font-family="Helvetica,sans-Serif" font-size="10.00">Label</text>
</g>
<!-- Node22&#45;&gt;Node20 -->
<g id="edge23" class="edge"><title>Node22&#45;&gt;Node20</title>
<path fill="none" stroke="#9a32cd" stroke-dasharray="5,2" d="M899.179,-245.857C933.719,-250.307 991.975,-257.923 1042,-265 1054.17,-266.721 1067.16,-268.623 1079.61,-270.477"/>
<polygon fill="#9a32cd" stroke="#9a32cd" points="899.621,-242.385 889.257,-244.582 898.729,-249.328 899.621,-242.385"/>
<text text-anchor="middle" x="1004" y="-268" font-family="Helvetica,sans-Serif" font-size="10.00"> myErrors</text>
</g>
<!-- Node23 -->
<g id="node23" class="node"><title>Node23</title>
<polygon fill="white" stroke="#bfbfbf" points="839,-308.5 839,-327.5 897,-327.5 897,-308.5 839,-308.5"/>
<text text-anchor="middle" x="868" y="-315.5" font-family="Helvetica,sans-Serif" font-size="10.00">TextArea</text>
</g>
<!-- Node23&#45;&gt;Node20 -->
<g id="edge24" class="edge"><title>Node23&#45;&gt;Node20</title>
<path fill="none" stroke="#9a32cd" stroke-dasharray="5,2" d="M907.438,-312.682C942.497,-307.827 995.732,-300.448 1042,-294 1052.42,-292.548 1063.45,-291.008 1074.22,-289.5"/>
<polygon fill="#9a32cd" stroke="#9a32cd" points="906.594,-309.265 897.169,-314.103 907.554,-316.199 906.594,-309.265"/>
<text text-anchor="middle" x="1004" y="-308" font-family="Helvetica,sans-Serif" font-size="10.00"> myCommand</text>
</g>
<!-- Node24&#45;&gt;Node1 -->
<g id="edge25" class="edge"><title>Node24&#45;&gt;Node1</title>
<path fill="none" stroke="#9a32cd" stroke-dasharray="5,2" d="M1220.97,-167.034C1264.9,-172.058 1314.28,-180.907 1330,-196 1388.25,-251.906 1415.29,-525.389 1420.18,-580.363"/>
<polygon fill="#9a32cd" stroke="#9a32cd" points="1221.14,-163.532 1210.82,-165.929 1220.38,-170.491 1221.14,-163.532"/>
<text text-anchor="middle" x="1287" y="-199" font-family="Helvetica,sans-Serif" font-size="10.00"> myCenterPane</text>
</g>
<!-- Node24&#45;&gt;Node25 -->
<g id="edge33" class="edge"><title>Node24&#45;&gt;Node25</title>
<path fill="none" stroke="#9a32cd" stroke-dasharray="5,2" d="M1221.04,-155.212C1254.73,-151.828 1294.57,-146.666 1330,-139 1352.53,-134.125 1377.42,-125.994 1395.47,-119.581"/>
<polygon fill="#9a32cd" stroke="#9a32cd" points="1220.41,-151.757 1210.79,-156.206 1221.08,-158.724 1220.41,-151.757"/>
<text text-anchor="middle" x="1287" y="-156" font-family="Helvetica,sans-Serif" font-size="10.00"> myCenterPane</text>
</g>
<!-- Node25&#45;&gt;Node24 -->
<g id="edge29" class="edge"><title>Node25&#45;&gt;Node24</title>
<path fill="none" stroke="#9a32cd" stroke-dasharray="5,2" d="M1338.13,-114.682C1308.25,-117.352 1274.4,-121.519 1244,-128 1217.54,-133.642 1188.25,-143.79 1168.25,-151.348"/>
<polygon fill="#9a32cd" stroke="#9a32cd" points="1338.44,-118.168 1348.11,-113.832 1337.85,-111.193 1338.44,-118.168"/>
<text text-anchor="middle" x="1287" y="-131" font-family="Helvetica,sans-Serif" font-size="10.00"> myTurtleManager</text>
</g>
<!-- Node26 -->
<g id="node26" class="node"><title>Node26</title>
<polygon fill="white" stroke="#bfbfbf" points="1060.5,-39 1060.5,-69 1225.5,-69 1225.5,-39 1060.5,-39"/>
<text text-anchor="start" x="1068.5" y="-57" font-family="Helvetica,sans-Serif" font-size="10.00">Map&lt; Integer, features.Display</text>
<text text-anchor="middle" x="1143" y="-46" font-family="Helvetica,sans-Serif" font-size="10.00">Turtle &gt;</text>
</g>
<!-- Node26&#45;&gt;Node25 -->
<g id="edge30" class="edge"><title>Node26&#45;&gt;Node25</title>
<path fill="none" stroke="#9a32cd" stroke-dasharray="5,2" d="M1235.85,-61.2175C1266.1,-64.6901 1299.73,-69.7369 1330,-77 1354.19,-82.8024 1380.82,-92.9253 1398.99,-100.434"/>
<polygon fill="#9a32cd" stroke="#9a32cd" points="1236.06,-57.7191 1225.74,-60.0993 1235.29,-64.6767 1236.06,-57.7191"/>
<text text-anchor="middle" x="1287" y="-80" font-family="Helvetica,sans-Serif" font-size="10.00"> myTurtleMap</text>
</g>
<!-- Node27 -->
<g id="node27" class="node"><title>Node27</title>
<polygon fill="white" stroke="#bfbfbf" points="1067.5,-88.5 1067.5,-107.5 1218.5,-107.5 1218.5,-88.5 1067.5,-88.5"/>
<text text-anchor="middle" x="1143" y="-95.5" font-family="Helvetica,sans-Serif" font-size="10.00">Map&lt; Integer, ImageView &gt;</text>
</g>
<!-- Node27&#45;&gt;Node25 -->
<g id="edge31" class="edge"><title>Node27&#45;&gt;Node25</title>
<path fill="none" stroke="#9a32cd" stroke-dasharray="5,2" d="M1228.93,-92.304C1260.69,-91.1905 1297.05,-91.125 1330,-94 1345.02,-95.3105 1361.28,-97.8158 1375.84,-100.462"/>
<polygon fill="#9a32cd" stroke="#9a32cd" points="1228.64,-88.8123 1218.79,-92.6999 1228.92,-95.807 1228.64,-88.8123"/>
<text text-anchor="middle" x="1287" y="-97" font-family="Helvetica,sans-Serif" font-size="10.00"> myImageMap</text>
</g>
<!-- Node28 -->
<g id="node28" class="node"><title>Node28</title>
<polygon fill="white" stroke="#bfbfbf" points="1122.5,-0.5 1122.5,-19.5 1163.5,-19.5 1163.5,-0.5 1122.5,-0.5"/>
<text text-anchor="middle" x="1143" y="-7.5" font-family="Helvetica,sans-Serif" font-size="10.00">Color</text>
</g>
<!-- Node28&#45;&gt;Node25 -->
<g id="edge34" class="edge"><title>Node28&#45;&gt;Node25</title>
<path fill="none" stroke="#9a32cd" stroke-dasharray="5,2" d="M1174.06,-12.4606C1211.75,-16.3636 1277.78,-25.9321 1330,-48 1361.7,-61.3938 1393.81,-86.6044 1410.08,-100.393"/>
<polygon fill="#9a32cd" stroke="#9a32cd" points="1174.05,-8.9439 1163.76,-11.4638 1173.38,-15.9113 1174.05,-8.9439"/>
<text text-anchor="middle" x="1287" y="-51" font-family="Helvetica,sans-Serif" font-size="10.00"> testC</text>
</g>
<!-- Node29 -->
<g id="node29" class="node"><title>Node29</title>
<polygon fill="white" stroke="#bfbfbf" points="838.5,-156.5 838.5,-175.5 897.5,-175.5 897.5,-156.5 838.5,-156.5"/>
<text text-anchor="middle" x="868" y="-163.5" font-family="Helvetica,sans-Serif" font-size="10.00">GridPane</text>
</g>
<!-- Node29&#45;&gt;Node24 -->
<g id="edge35" class="edge"><title>Node29&#45;&gt;Node24</title>
<path fill="none" stroke="#9a32cd" stroke-dasharray="5,2" d="M907.876,-165.288C951.413,-164.491 1022.74,-163.184 1075.25,-162.223"/>
<polygon fill="#9a32cd" stroke="#9a32cd" points="907.634,-161.792 897.7,-165.474 907.762,-168.791 907.634,-161.792"/>
<text text-anchor="middle" x="1004" y="-168" font-family="Helvetica,sans-Serif" font-size="10.00"> referenceGrid</text>
</g>
<!-- Node30 -->
<g id="node30" class="node"><title>Node30</title>
<polygon fill="white" stroke="#bfbfbf" points="1064,-930.5 1064,-949.5 1222,-949.5 1222,-930.5 1064,-930.5"/>
<text text-anchor="middle" x="1143" y="-937.5" font-family="Helvetica,sans-Serif" font-size="10.00">List&lt; features.DisplayTurtle &gt;</text>
</g>
<!-- Node30&#45;&gt;Node1 -->
<g id="edge36" class="edge"><title>Node30&#45;&gt;Node1</title>
<path fill="none" stroke="#9a32cd" stroke-dasharray="5,2" d="M1232.17,-947.198C1266.33,-945.389 1303.51,-937.134 1330,-914 1380.06,-870.28 1413.01,-648.391 1419.73,-599.527"/>
<polygon fill="#9a32cd" stroke="#9a32cd" points="1232.02,-943.701 1222.15,-947.553 1232.27,-950.696 1232.02,-943.701"/>
<text text-anchor="middle" x="1287" y="-949" font-family="Helvetica,sans-Serif" font-size="10.00"> myObjects</text>
</g>
<!-- Node31 -->
<g id="node31" class="node"><title>Node31</title>
<polygon fill="white" stroke="#bfbfbf" points="1119.5,-892.5 1119.5,-911.5 1166.5,-911.5 1166.5,-892.5 1119.5,-892.5"/>
<text text-anchor="middle" x="1143" y="-899.5" font-family="Helvetica,sans-Serif" font-size="10.00">Scene</text>
</g>
<!-- Node31&#45;&gt;Node1 -->
<g id="edge37" class="edge"><title>Node31&#45;&gt;Node1</title>
<path fill="none" stroke="#9a32cd" stroke-dasharray="5,2" d="M1176.79,-901.894C1223.86,-901.07 1307.41,-896.895 1330,-878 1419.49,-803.148 1422.16,-640.853 1421.33,-599.659"/>
<polygon fill="#9a32cd" stroke="#9a32cd" points="1176.45,-898.398 1166.5,-902.031 1176.55,-905.397 1176.45,-898.398"/>
<text text-anchor="middle" x="1287" y="-902" font-family="Helvetica,sans-Serif" font-size="10.00"> myScene</text>
</g>
<!-- Node32&#45;&gt;Node1 -->
<g id="edge39" class="edge"><title>Node32&#45;&gt;Node1</title>
<path fill="none" stroke="#9a32cd" stroke-dasharray="5,2" d="M607.881,-981.821C753.573,-1000.16 1218.32,-1050.38 1330,-961 1389.42,-913.449 1415.44,-652.989 1420.19,-599.575"/>
<polygon fill="#9a32cd" stroke="#9a32cd" points="608.313,-978.348 597.952,-980.559 607.43,-985.292 608.313,-978.348"/>
<text text-anchor="middle" x="1004" y="-1015" font-family="Helvetica,sans-Serif" font-size="10.00"> myTurtle</text>
</g>
<!-- Node32&#45;&gt;Node37 -->
<g id="edge54" class="edge"><title>Node32&#45;&gt;Node37</title>
<path fill="none" stroke="#9a32cd" stroke-dasharray="5,2" d="M607.285,-965.522C650.628,-953.807 718.156,-932.153 770,-900 779.351,-894.2 779.985,-890.539 788,-883 812.64,-859.824 841.686,-832.655 856.761,-818.566"/>
<polygon fill="#9a32cd" stroke="#9a32cd" points="606.388,-962.139 597.615,-968.08 608.178,-968.907 606.388,-962.139"/>
<text text-anchor="middle" x="717" y="-951" font-family="Helvetica,sans-Serif" font-size="10.00"> myTurtle</text>
</g>
<!-- Node33 -->
<g id="node33" class="node"><title>Node33</title>
<g id="a_node33"><a xlink:href="../../da/d54/classproperties_1_1_position.html" target="_top" xlink:title="properties.Position">
<polygon fill="white" stroke="black" points="239,-995.5 239,-1014.5 345,-1014.5 345,-995.5 239,-995.5"/>
<text text-anchor="middle" x="292" y="-1002.5" font-family="Helvetica,sans-Serif" font-size="10.00">properties.Position</text>
</a>
</g>
</g>
<!-- Node33&#45;&gt;Node32 -->
<g id="edge41" class="edge"><title>Node33&#45;&gt;Node32</title>
<path fill="none" stroke="#9a32cd" stroke-dasharray="5,2" d="M355.312,-998.282C409.18,-992.475 485.001,-984.301 528.253,-979.638"/>
<polygon fill="#9a32cd" stroke="#9a32cd" points="354.752,-994.822 345.185,-999.374 355.502,-1001.78 354.752,-994.822"/>
<text text-anchor="middle" x="416" y="-1010" font-family="Helvetica,sans-Serif" font-size="10.00"> myPosition</text>
<text text-anchor="middle" x="416" y="-999" font-family="Helvetica,sans-Serif" font-size="10.00">DEFAULT_POSITION</text>
</g>
<!-- Node34 -->
<g id="node34" class="node"><title>Node34</title>
<polygon fill="white" stroke="#bfbfbf" points="49,-982.5 49,-1001.5 103,-1001.5 103,-982.5 49,-982.5"/>
<text text-anchor="middle" x="76" y="-989.5" font-family="Helvetica,sans-Serif" font-size="10.00">Point2D</text>
</g>
<!-- Node34&#45;&gt;Node33 -->
<g id="edge42" class="edge"><title>Node34&#45;&gt;Node33</title>
<path fill="none" stroke="#9a32cd" stroke-dasharray="5,2" d="M113.324,-994.207C147.754,-996.298 199.845,-999.463 238.735,-1001.83"/>
<polygon fill="#9a32cd" stroke="#9a32cd" points="113.434,-990.707 103.241,-993.594 113.01,-997.694 113.434,-990.707"/>
<text text-anchor="middle" x="192" y="-1003" font-family="Helvetica,sans-Serif" font-size="10.00"> myPoint</text>
</g>
<!-- Node35 -->
<g id="node35" class="node"><title>Node35</title>
<g id="a_node35"><a xlink:href="../../da/d85/classactor_1_1_pen.html" target="_top" xlink:title="actor.Pen">
<polygon fill="white" stroke="black" points="261,-957.5 261,-976.5 323,-976.5 323,-957.5 261,-957.5"/>
<text text-anchor="middle" x="292" y="-964.5" font-family="Helvetica,sans-Serif" font-size="10.00">actor.Pen</text>
</a>
</g>
</g>
<!-- Node35&#45;&gt;Node32 -->
<g id="edge43" class="edge"><title>Node35&#45;&gt;Node32</title>
<path fill="none" stroke="#9a32cd" stroke-dasharray="5,2" d="M333.307,-968.075C367.549,-969.016 418.002,-970.469 462,-972 484.053,-972.767 508.836,-973.758 528.213,-974.561"/>
<polygon fill="#9a32cd" stroke="#9a32cd" points="333.318,-964.574 323.226,-967.8 333.127,-971.571 333.318,-964.574"/>
<text text-anchor="middle" x="416" y="-975" font-family="Helvetica,sans-Serif" font-size="10.00"> myPen</text>
</g>
<!-- Node36&#45;&gt;Node1 -->
<g id="edge44" class="edge"><title>Node36&#45;&gt;Node1</title>
<path fill="none" stroke="#9a32cd" stroke-dasharray="5,2" d="M1167.76,-749.072C1223.22,-714.236 1359.95,-628.351 1405.76,-599.573"/>
<polygon fill="#9a32cd" stroke="#9a32cd" points="1165.89,-746.114 1159.29,-754.397 1169.62,-752.042 1165.89,-746.114"/>
<text text-anchor="middle" x="1287" y="-701" font-family="Helvetica,sans-Serif" font-size="10.00"> myTopPane</text>
</g>
<!-- Node37&#45;&gt;Node36 -->
<g id="edge47" class="edge"><title>Node37&#45;&gt;Node36</title>
<path fill="none" stroke="#9a32cd" stroke-dasharray="5,2" d="M936.255,-797.914C981.544,-790.449 1040.67,-780.703 1083.91,-773.576"/>
<polygon fill="#9a32cd" stroke="#9a32cd" points="935.527,-794.487 926.23,-799.567 936.666,-801.393 935.527,-794.487"/>
<text text-anchor="middle" x="1004" y="-806" font-family="Helvetica,sans-Serif" font-size="10.00"> myPenBar</text>
<text text-anchor="middle" x="1004" y="-795" font-family="Helvetica,sans-Serif" font-size="10.00">mySettingsBar</text>
</g>
<!-- Node38 -->
<g id="node38" class="node"><title>Node38</title>
<polygon fill="white" stroke="#bfbfbf" points="537.5,-852.5 537.5,-871.5 588.5,-871.5 588.5,-852.5 537.5,-852.5"/>
<text text-anchor="middle" x="563" y="-859.5" font-family="Helvetica,sans-Serif" font-size="10.00">ToolBar</text>
</g>
<!-- Node38&#45;&gt;Node37 -->
<g id="edge48" class="edge"><title>Node38&#45;&gt;Node37</title>
<path fill="none" stroke="midnightblue" d="M598.607,-858.549C639.703,-854.162 710.212,-845.726 770,-834 791.503,-829.783 815.337,-823.661 833.998,-818.53"/>
<polygon fill="midnightblue" stroke="midnightblue" points="598.15,-855.077 588.57,-859.602 598.881,-862.039 598.15,-855.077"/>
</g>
<!-- Node39 -->
<g id="node39" class="node"><title>Node39</title>
<polygon fill="white" stroke="#bfbfbf" points="503,-776.5 503,-795.5 623,-795.5 623,-776.5 503,-776.5"/>
<text text-anchor="middle" x="563" y="-783.5" font-family="Helvetica,sans-Serif" font-size="10.00">ComboBox&lt; String &gt;</text>
</g>
<!-- Node39&#45;&gt;Node37 -->
<g id="edge50" class="edge"><title>Node39&#45;&gt;Node37</title>
<path fill="none" stroke="#9a32cd" stroke-dasharray="5,2" d="M633.434,-783.17C673.479,-782.413 724.714,-782.932 770,-788 790.548,-790.3 813.146,-795.058 831.357,-799.464"/>
<polygon fill="#9a32cd" stroke="#9a32cd" points="633.163,-779.675 623.243,-783.395 633.317,-786.674 633.163,-779.675"/>
<text text-anchor="middle" x="717" y="-802" font-family="Helvetica,sans-Serif" font-size="10.00"> colourCB</text>
<text text-anchor="middle" x="717" y="-791" font-family="Helvetica,sans-Serif" font-size="10.00">languageCB</text>
</g>
<!-- Node40&#45;&gt;Node37 -->
<g id="edge51" class="edge"><title>Node40&#45;&gt;Node37</title>
<path fill="none" stroke="#9a32cd" stroke-dasharray="5,2" d="M636.818,-820.395C689.93,-817.766 760.9,-814.252 809.927,-811.825"/>
<polygon fill="#9a32cd" stroke="#9a32cd" points="636.596,-816.902 626.782,-820.892 636.943,-823.893 636.596,-816.902"/>
<text text-anchor="middle" x="717" y="-822" font-family="Helvetica,sans-Serif" font-size="10.00"> myRightPane</text>
</g>
<!-- Node41&#45;&gt;Node37 -->
<g id="edge55" class="edge"><title>Node41&#45;&gt;Node37</title>
<path fill="none" stroke="#9a32cd" stroke-dasharray="5,2" d="M633.716,-889.976C674.186,-883.044 725.751,-872.288 770,-857 799.658,-846.754 831.9,-829.449 850.734,-818.655"/>
<polygon fill="#9a32cd" stroke="#9a32cd" points="632.962,-886.553 623.677,-891.656 634.118,-893.457 632.962,-886.553"/>
<text text-anchor="middle" x="717" y="-888" font-family="Helvetica,sans-Serif" font-size="10.00"> myLeftPane</text>
</g>
<!-- Node42 -->
<g id="node42" class="node"><title>Node42</title>
<polygon fill="white" stroke="#bfbfbf" points="528,-738.5 528,-757.5 598,-757.5 598,-738.5 528,-738.5"/>
<text text-anchor="middle" x="563" y="-745.5" font-family="Helvetica,sans-Serif" font-size="10.00">ColorPicker</text>
</g>
<!-- Node42&#45;&gt;Node37 -->
<g id="edge58" class="edge"><title>Node42&#45;&gt;Node37</title>
<path fill="none" stroke="#9a32cd" stroke-dasharray="5,2" d="M608.288,-748.446C650.46,-749.769 715.415,-754.158 770,-768 798.71,-775.28 829.927,-789.765 848.982,-799.421"/>
<polygon fill="#9a32cd" stroke="#9a32cd" points="608.168,-744.941 598.078,-748.171 607.98,-751.939 608.168,-744.941"/>
<text text-anchor="middle" x="717" y="-771" font-family="Helvetica,sans-Serif" font-size="10.00"> displayColourPicker</text>
</g>
</g>
</svg>
        <g id="navigator" transform="translate(0 0)" fill="#404254">
                <rect fill="#f2f5e9" fill-opacity="0.5" stroke="#606060" stroke-width=".5" x="0" y="0" width="60" height="60"/>
                <use id="zoomplus" xlink:href="#zoomPlus" x="17" y="9" onmousedown="handleZoom(evt,'in')"/>
                <use id="zoomminus" xlink:href="#zoomMin" x="42" y="9" onmousedown="handleZoom(evt,'out')"/>
                <use id="reset" xlink:href="#resetDef" x="30" y="36" onmousedown="handleReset()"/>
                <g id="arrowUp" xlink:href="#dirArrow" transform="translate(30 24)" onmousedown="handlePan(0,-1)">
                  <use xlink:href="#rim" fill="#404040">
                        <set attributeName="fill" to="#808080" begin="arrowUp.mouseover" end="arrowUp.mouseout"/>
                  </use>
                  <path fill="none" stroke="white" stroke-width="1.5" d="M0,-3.0v7 M-2.5,-0.5L0,-3.0L2.5,-0.5"/>
                </g>
                <g id="arrowRight" xlink:href="#dirArrow" transform="rotate(90) translate(36 -43)" onmousedown="handlePan(1,0)">
                  <use xlink:href="#rim" fill="#404040">
                        <set attributeName="fill" to="#808080" begin="arrowRight.mouseover" end="arrowRight.mouseout"/>
                  </use>
                  <path fill="none" stroke="white" stroke-width="1.5" d="M0,-3.0v7 M-2.5,-0.5L0,-3.0L2.5,-0.5"/>
                </g>
                <g id="arrowDown" xlink:href="#dirArrow" transform="rotate(180) translate(-30 -48)" onmousedown="handlePan(0,1)">
                  <use xlink:href="#rim" fill="#404040">
                        <set attributeName="fill" to="#808080" begin="arrowDown.mouseover" end="arrowDown.mouseout"/>
                  </use>
                  <path fill="none" stroke="white" stroke-width="1.5" d="M0,-3.0v7 M-2.5,-0.5L0,-3.0L2.5,-0.5"/>
                </g>
                <g id="arrowLeft" xlink:href="#dirArrow" transform="rotate(270) translate(-36 17)" onmousedown="handlePan(-1,0)">
                  <use xlink:href="#rim" fill="#404040">
                        <set attributeName="fill" to="#808080" begin="arrowLeft.mouseover" end="arrowLeft.mouseout"/>
                  </use>
                  <path fill="none" stroke="white" stroke-width="1.5" d="M0,-3.0v7 M-2.5,-0.5L0,-3.0L2.5,-0.5"/>
                </g>
        </g>
        <svg viewBox="0 0 15 15" width="100%" height="30px" preserveAspectRatio="xMaxYMin meet">
         <g id="arrow_out" transform="scale(0.3 0.3)">
          <a xlink:href="classmain_application_1_1_g_u_i__coll__graph_org.svg" target="_base">
           <rect id="button" ry="5" rx="5" y="6" x="6" height="38" width="38"
                fill="#f2f5e9" fill-opacity="0.5" stroke="#606060" stroke-width="1.0"/>
           <path id="arrow"
             d="M 11.500037,31.436501 C 11.940474,20.09759 22.043105,11.32322 32.158766,21.979434 L 37.068811,17.246167 C 37.068811,17.246167 37.088388,32 37.088388,32 L 22.160133,31.978069 C 22.160133,31.978069 26.997745,27.140456 26.997745,27.140456 C 18.528582,18.264221 13.291696,25.230495 11.500037,31.436501 z"
             style="fill:#404040;"/>
          </a>
         </g>
        </svg>
</svg>
