<?xml version="1.0" encoding="UTF-8" standalone="no"?>
<!DOCTYPE svg PUBLIC "-//W3C//DTD SVG 1.1//EN"
 "http://www.w3.org/Graphics/SVG/1.1/DTD/svg11.dtd">
<!-- Generated by graphviz version 2.36.0 (20140111.2315)
 -->
<!-- Title: command.BaseMakeVariableCommand Pages: 1 -->
<svg width="716pt" height="142pt"
 viewBox="0.00 0.00 716.00 142.00" xmlns="http://www.w3.org/2000/svg" xmlns:xlink="http://www.w3.org/1999/xlink">
<g id="graph0" class="graph" transform="scale(1 1) rotate(0) translate(4 138)">
<title>command.BaseMakeVariableCommand</title>
<polygon fill="white" stroke="none" points="-4,4 -4,-138 712,-138 712,4 -4,4"/>
<!-- Node1 -->
<g id="node1" class="node"><title>Node1</title>
<polygon fill="#bfbfbf" stroke="black" points="354,-52 354,-82 510,-82 510,-52 354,-52"/>
<text text-anchor="start" x="362" y="-70" font-family="Helvetica,sans-Serif" font-size="10.00">command.BaseMakeVariable</text>
<text text-anchor="middle" x="432" y="-59" font-family="Helvetica,sans-Serif" font-size="10.00">Command</text>
</g>
<!-- Node4 -->
<g id="node4" class="node"><title>Node4</title>
<g id="a_node4"><a xlink:href="../../da/dfa/classcommand_1_1_do_times_command.html" target="_top" xlink:title="command.DoTimesCommand">
<polygon fill="white" stroke="black" points="546.5,-114.5 546.5,-133.5 707.5,-133.5 707.5,-114.5 546.5,-114.5"/>
<text text-anchor="middle" x="627" y="-121.5" font-family="Helvetica,sans-Serif" font-size="10.00">command.DoTimesCommand</text>
</a>
</g>
</g>
<!-- Node1&#45;&gt;Node4 -->
<g id="edge3" class="edge"><title>Node1&#45;&gt;Node4</title>
<path fill="none" stroke="midnightblue" d="M484.315,-85.358C503.543,-91.9452 525.658,-99.1772 546,-105 557.803,-108.378 570.704,-111.631 582.633,-114.462"/>
<polygon fill="midnightblue" stroke="midnightblue" points="485.433,-82.0415 474.838,-82.0844 483.147,-88.6578 485.433,-82.0415"/>
</g>
<!-- Node5 -->
<g id="node5" class="node"><title>Node5</title>
<g id="a_node5"><a xlink:href="../../dc/d6b/classcommand_1_1_for_command.html" target="_top" xlink:title="command.ForCommand">
<polygon fill="white" stroke="black" points="560,-76.5 560,-95.5 694,-95.5 694,-76.5 560,-76.5"/>
<text text-anchor="middle" x="627" y="-83.5" font-family="Helvetica,sans-Serif" font-size="10.00">command.ForCommand</text>
</a>
</g>
</g>
<!-- Node1&#45;&gt;Node5 -->
<g id="edge4" class="edge"><title>Node1&#45;&gt;Node5</title>
<path fill="none" stroke="midnightblue" d="M520.236,-75.588C533.56,-76.8997 547.122,-78.2348 559.893,-79.4921"/>
<polygon fill="midnightblue" stroke="midnightblue" points="520.406,-72.0879 510.111,-74.5912 519.72,-79.0542 520.406,-72.0879"/>
</g>
<!-- Node6 -->
<g id="node6" class="node"><title>Node6</title>
<g id="a_node6"><a xlink:href="../../d4/d11/classcommand_1_1_repeat_command.html" target="_top" xlink:title="command.RepeatCommand">
<polygon fill="white" stroke="black" points="551,-38.5 551,-57.5 703,-57.5 703,-38.5 551,-38.5"/>
<text text-anchor="middle" x="627" y="-45.5" font-family="Helvetica,sans-Serif" font-size="10.00">command.RepeatCommand</text>
</a>
</g>
</g>
<!-- Node1&#45;&gt;Node6 -->
<g id="edge5" class="edge"><title>Node1&#45;&gt;Node6</title>
<path fill="none" stroke="midnightblue" d="M520.271,-58.4085C530.496,-57.402 540.859,-56.3817 550.898,-55.3935"/>
<polygon fill="midnightblue" stroke="midnightblue" points="519.72,-54.9458 510.111,-59.4088 520.406,-61.9121 519.72,-54.9458"/>
</g>
<!-- Node7 -->
<g id="node7" class="node"><title>Node7</title>
<g id="a_node7"><a xlink:href="../../dc/da4/classcommand_1_1_stored_command.html" target="_top" xlink:title="command.StoredCommand">
<polygon fill="white" stroke="black" points="551.5,-0.5 551.5,-19.5 702.5,-19.5 702.5,-0.5 551.5,-0.5"/>
<text text-anchor="middle" x="627" y="-7.5" font-family="Helvetica,sans-Serif" font-size="10.00">command.StoredCommand</text>
</a>
</g>
</g>
<!-- Node1&#45;&gt;Node7 -->
<g id="edge6" class="edge"><title>Node1&#45;&gt;Node7</title>
<path fill="none" stroke="midnightblue" d="M484.315,-48.642C503.543,-42.0548 525.658,-34.8228 546,-29 557.803,-25.6215 570.704,-22.3687 582.633,-19.5385"/>
<polygon fill="midnightblue" stroke="midnightblue" points="483.147,-45.3422 474.838,-51.9156 485.433,-51.9585 483.147,-45.3422"/>
</g>
<!-- Node2 -->
<g id="node2" class="node"><title>Node2</title>
<g id="a_node2"><a xlink:href="../../d7/d29/classcommand_1_1_basic_list_command.html" target="_top" xlink:title="command.BasicListCommand">
<polygon fill="white" stroke="black" points="156.5,-57.5 156.5,-76.5 317.5,-76.5 317.5,-57.5 156.5,-57.5"/>
<text text-anchor="middle" x="237" y="-64.5" font-family="Helvetica,sans-Serif" font-size="10.00">command.BasicListCommand</text>
</a>
</g>
</g>
<!-- Node2&#45;&gt;Node1 -->
<g id="edge1" class="edge"><title>Node2&#45;&gt;Node1</title>
<path fill="none" stroke="midnightblue" d="M327.758,-67C336.441,-67 345.197,-67 353.744,-67"/>
<polygon fill="midnightblue" stroke="midnightblue" points="327.615,-63.5001 317.615,-67 327.615,-70.5001 327.615,-63.5001"/>
</g>
<!-- Node3 -->
<g id="node3" class="node"><title>Node3</title>
<g id="a_node3"><a xlink:href="../../d7/d35/classcommand_1_1_command.html" target="_top" xlink:title="command.Command">
<polygon fill="white" stroke="black" points="0.5,-57.5 0.5,-76.5 119.5,-76.5 119.5,-57.5 0.5,-57.5"/>
<text text-anchor="middle" x="60" y="-64.5" font-family="Helvetica,sans-Serif" font-size="10.00">command.Command</text>
</a>
</g>
</g>
<!-- Node3&#45;&gt;Node2 -->
<g id="edge2" class="edge"><title>Node3&#45;&gt;Node2</title>
<path fill="none" stroke="midnightblue" d="M129.807,-67C138.486,-67 147.422,-67 156.251,-67"/>
<polygon fill="midnightblue" stroke="midnightblue" points="129.759,-63.5001 119.759,-67 129.759,-70.5001 129.759,-63.5001"/>
</g>
</g>
</svg>
