<?xml version="1.0" encoding="UTF-8" standalone="no"?>
<!DOCTYPE svg PUBLIC "-//W3C//DTD SVG 1.1//EN"
 "http://www.w3.org/Graphics/SVG/1.1/DTD/svg11.dtd">
<!-- Generated by graphviz version 2.36.0 (20140111.2315)
 -->
<!-- Title: components.CenterPane.updateTurtlePosition Pages: 1 -->
<svg width="1160pt" height="290pt"
 viewBox="0.00 0.00 1160.00 290.00" xmlns="http://www.w3.org/2000/svg" xmlns:xlink="http://www.w3.org/1999/xlink">
<g id="graph0" class="graph" transform="scale(1 1) rotate(0) translate(4 286)">
<title>components.CenterPane.updateTurtlePosition</title>
<polygon fill="white" stroke="none" points="-4,4 -4,-286 1156,-286 1156,4 -4,4"/>
<!-- Node1 -->
<g id="node1" class="node"><title>Node1</title>
<polygon fill="#bfbfbf" stroke="black" points="0,-137 0,-167 172,-167 172,-137 0,-137"/>
<text text-anchor="start" x="8" y="-155" font-family="Helvetica,sans-Serif" font-size="10.00">components.CenterPane.update</text>
<text text-anchor="middle" x="86" y="-144" font-family="Helvetica,sans-Serif" font-size="10.00">TurtlePosition</text>
</g>
<!-- Node2 -->
<g id="node2" class="node"><title>Node2</title>
<g id="a_node2"><a xlink:href="../../d6/d68/classcomponents_1_1_turtle_manager.html#aebd8b3f5c5eae3df7add8ce3d690aa47" target="_top" xlink:title="components.TurtleManager.update">
<polygon fill="white" stroke="black" points="208.5,-142.5 208.5,-161.5 391.5,-161.5 391.5,-142.5 208.5,-142.5"/>
<text text-anchor="middle" x="300" y="-149.5" font-family="Helvetica,sans-Serif" font-size="10.00">components.TurtleManager.update</text>
</a>
</g>
</g>
<!-- Node1&#45;&gt;Node2 -->
<g id="edge1" class="edge"><title>Node1&#45;&gt;Node2</title>
<path fill="none" stroke="midnightblue" d="M172.007,-152C180.618,-152 189.421,-152 198.177,-152"/>
<polygon fill="midnightblue" stroke="midnightblue" points="198.42,-155.5 208.42,-152 198.42,-148.5 198.42,-155.5"/>
</g>
<!-- Node3 -->
<g id="node3" class="node"><title>Node3</title>
<g id="a_node3"><a xlink:href="../../dc/d0a/classfeatures_1_1_display_turtle.html#ab5a7279e9876151c36b72b8aa63bcb3b" target="_top" xlink:title="features.DisplayTurtle.update\lImageView">
<polygon fill="white" stroke="black" points="428,-186 428,-216 584,-216 584,-186 428,-186"/>
<text text-anchor="start" x="436" y="-204" font-family="Helvetica,sans-Serif" font-size="10.00">features.DisplayTurtle.update</text>
<text text-anchor="middle" x="506" y="-193" font-family="Helvetica,sans-Serif" font-size="10.00">ImageView</text>
</a>
</g>
</g>
<!-- Node2&#45;&gt;Node3 -->
<g id="edge2" class="edge"><title>Node2&#45;&gt;Node3</title>
<path fill="none" stroke="midnightblue" d="M340.818,-161.564C366.87,-167.822 401.675,-176.182 432.533,-183.594"/>
<polygon fill="midnightblue" stroke="midnightblue" points="431.856,-187.031 442.397,-185.963 433.491,-180.224 431.856,-187.031"/>
</g>
<!-- Node4 -->
<g id="node4" class="node"><title>Node4</title>
<g id="a_node4"><a xlink:href="../../dc/d0a/classfeatures_1_1_display_turtle.html#a06ca557d3458cbcec4fda12263280cc2" target="_top" xlink:title="features.DisplayTurtle.update\lPosition">
<polygon fill="white" stroke="black" points="428,-137 428,-167 584,-167 584,-137 428,-137"/>
<text text-anchor="start" x="436" y="-155" font-family="Helvetica,sans-Serif" font-size="10.00">features.DisplayTurtle.update</text>
<text text-anchor="middle" x="506" y="-144" font-family="Helvetica,sans-Serif" font-size="10.00">Position</text>
</a>
</g>
</g>
<!-- Node2&#45;&gt;Node4 -->
<g id="edge3" class="edge"><title>Node2&#45;&gt;Node4</title>
<path fill="none" stroke="midnightblue" d="M391.665,-152C400.308,-152 409.061,-152 417.671,-152"/>
<polygon fill="midnightblue" stroke="midnightblue" points="417.698,-155.5 427.698,-152 417.698,-148.5 417.698,-155.5"/>
</g>
<!-- Node13 -->
<g id="node13" class="node"><title>Node13</title>
<g id="a_node13"><a xlink:href="../../dc/d0a/classfeatures_1_1_display_turtle.html#a2f27d1e94dbcd404e51ef72440786676" target="_top" xlink:title="features.DisplayTurtle.update\lTurtleShow">
<polygon fill="white" stroke="black" points="428,-88 428,-118 584,-118 584,-88 428,-88"/>
<text text-anchor="start" x="436" y="-106" font-family="Helvetica,sans-Serif" font-size="10.00">features.DisplayTurtle.update</text>
<text text-anchor="middle" x="506" y="-95" font-family="Helvetica,sans-Serif" font-size="10.00">TurtleShow</text>
</a>
</g>
</g>
<!-- Node2&#45;&gt;Node13 -->
<g id="edge13" class="edge"><title>Node2&#45;&gt;Node13</title>
<path fill="none" stroke="midnightblue" d="M340.818,-142.436C366.87,-136.178 401.675,-127.818 432.533,-120.406"/>
<polygon fill="midnightblue" stroke="midnightblue" points="433.491,-123.776 442.397,-118.037 431.856,-116.969 433.491,-123.776"/>
</g>
<!-- Node5 -->
<g id="node5" class="node"><title>Node5</title>
<g id="a_node5"><a xlink:href="../../da/d54/classproperties_1_1_position.html#a038c69f0a24a47be9e1602695a2c5b61" target="_top" xlink:title="properties.Position.getX">
<polygon fill="white" stroke="black" points="635.5,-262.5 635.5,-281.5 766.5,-281.5 766.5,-262.5 635.5,-262.5"/>
<text text-anchor="middle" x="701" y="-269.5" font-family="Helvetica,sans-Serif" font-size="10.00">properties.Position.getX</text>
</a>
</g>
</g>
<!-- Node4&#45;&gt;Node5 -->
<g id="edge4" class="edge"><title>Node4&#45;&gt;Node5</title>
<path fill="none" stroke="midnightblue" d="M569.168,-167.031C574.515,-169.811 579.567,-173.102 584,-177 612.07,-201.678 590.957,-229.475 620,-253 622.087,-254.69 624.299,-256.235 626.607,-257.646"/>
<polygon fill="midnightblue" stroke="midnightblue" points="625.428,-260.976 635.919,-262.452 628.638,-254.756 625.428,-260.976"/>
</g>
<!-- Node6 -->
<g id="node6" class="node"><title>Node6</title>
<g id="a_node6"><a xlink:href="../../da/d54/classproperties_1_1_position.html#a0e2fa1786b2b6cbed8f91d02e624d3ec" target="_top" xlink:title="properties.Position.getY">
<polygon fill="white" stroke="black" points="636,-224.5 636,-243.5 766,-243.5 766,-224.5 636,-224.5"/>
<text text-anchor="middle" x="701" y="-231.5" font-family="Helvetica,sans-Serif" font-size="10.00">properties.Position.getY</text>
</a>
</g>
</g>
<!-- Node4&#45;&gt;Node6 -->
<g id="edge5" class="edge"><title>Node4&#45;&gt;Node6</title>
<path fill="none" stroke="midnightblue" d="M564.39,-167.057C571.237,-169.879 577.939,-173.173 584,-177 603.672,-189.42 599.843,-203.384 620,-215 623.861,-217.225 627.97,-219.19 632.21,-220.925"/>
<polygon fill="midnightblue" stroke="midnightblue" points="631.058,-224.231 641.652,-224.369 633.457,-217.655 631.058,-224.231"/>
</g>
<!-- Node7 -->
<g id="node7" class="node"><title>Node7</title>
<g id="a_node7"><a xlink:href="../../da/d54/classproperties_1_1_position.html#a5dff002fabbc5e7be1a50f5eff9b2879" target="_top" xlink:title="properties.Position.getAngle">
<polygon fill="white" stroke="black" points="625,-186.5 625,-205.5 777,-205.5 777,-186.5 625,-186.5"/>
<text text-anchor="middle" x="701" y="-193.5" font-family="Helvetica,sans-Serif" font-size="10.00">properties.Position.getAngle</text>
</a>
</g>
</g>
<!-- Node4&#45;&gt;Node7 -->
<g id="edge6" class="edge"><title>Node4&#45;&gt;Node7</title>
<path fill="none" stroke="midnightblue" d="M572.88,-167.019C597.517,-172.636 625.125,-178.93 648.301,-184.214"/>
<polygon fill="midnightblue" stroke="midnightblue" points="647.747,-187.677 658.275,-186.488 649.303,-180.852 647.747,-187.677"/>
</g>
<!-- Node8 -->
<g id="node8" class="node"><title>Node8</title>
<g id="a_node8"><a xlink:href="../../dc/d0a/classfeatures_1_1_display_turtle.html#a0974c08e12b3bea1d0c5a00359ffab13" target="_top" xlink:title="features.DisplayTurtle.update\lImage">
<polygon fill="white" stroke="black" points="623,-137 623,-167 779,-167 779,-137 623,-137"/>
<text text-anchor="start" x="631" y="-155" font-family="Helvetica,sans-Serif" font-size="10.00">features.DisplayTurtle.update</text>
<text text-anchor="middle" x="701" y="-144" font-family="Helvetica,sans-Serif" font-size="10.00">Image</text>
</a>
</g>
</g>
<!-- Node4&#45;&gt;Node8 -->
<g id="edge7" class="edge"><title>Node4&#45;&gt;Node8</title>
<path fill="none" stroke="midnightblue" d="M584.111,-152C593.441,-152 603.023,-152 612.489,-152"/>
<polygon fill="midnightblue" stroke="midnightblue" points="612.697,-155.5 622.697,-152 612.697,-148.5 612.697,-155.5"/>
</g>
<!-- Node9 -->
<g id="node9" class="node"><title>Node9</title>
<g id="a_node9"><a xlink:href="../../dc/d0a/classfeatures_1_1_display_turtle.html#a62391c3999d131300823b851b0f5b90b" target="_top" xlink:title="features.DisplayTurtle.updateLine">
<polygon fill="white" stroke="black" points="818,-76.5 818,-95.5 994,-95.5 994,-76.5 818,-76.5"/>
<text text-anchor="middle" x="906" y="-83.5" font-family="Helvetica,sans-Serif" font-size="10.00">features.DisplayTurtle.updateLine</text>
</a>
</g>
</g>
<!-- Node4&#45;&gt;Node9 -->
<g id="edge8" class="edge"><title>Node4&#45;&gt;Node9</title>
<path fill="none" stroke="midnightblue" d="M574.384,-136.962C589.366,-133.822 605.195,-130.66 620,-128 687.566,-115.859 764.609,-104.663 821.543,-96.8892"/>
<polygon fill="midnightblue" stroke="midnightblue" points="822.137,-100.341 831.574,-95.5265 821.194,-93.4045 822.137,-100.341"/>
</g>
<!-- Node11 -->
<g id="node11" class="node"><title>Node11</title>
<g id="a_node11"><a xlink:href="../../dc/d0a/classfeatures_1_1_display_turtle.html#aac090a97a844a60109816520333f7866" target="_top" xlink:title="features.DisplayTurtle.animate\lTurtlePosition">
<polygon fill="white" stroke="black" points="620,-49 620,-79 782,-79 782,-49 620,-49"/>
<text text-anchor="start" x="628" y="-67" font-family="Helvetica,sans-Serif" font-size="10.00">features.DisplayTurtle.animate</text>
<text text-anchor="middle" x="701" y="-56" font-family="Helvetica,sans-Serif" font-size="10.00">TurtlePosition</text>
</a>
</g>
</g>
<!-- Node4&#45;&gt;Node11 -->
<g id="edge10" class="edge"><title>Node4&#45;&gt;Node11</title>
<path fill="none" stroke="midnightblue" d="M563.327,-136.85C570.494,-134.023 577.565,-130.753 584,-127 602.75,-116.066 601.5,-105.352 620,-94 626.667,-89.909 633.982,-86.2304 641.395,-82.968"/>
<polygon fill="midnightblue" stroke="midnightblue" points="642.907,-86.13 650.796,-79.0584 640.219,-79.6667 642.907,-86.13"/>
</g>
<!-- Node12 -->
<g id="node12" class="node"><title>Node12</title>
<g id="a_node12"><a xlink:href="../../dc/d0a/classfeatures_1_1_display_turtle.html#a73aeed13803987df257034705ee6eaff" target="_top" xlink:title="features.DisplayTurtle.animate\lTurtleAngle">
<polygon fill="white" stroke="black" points="620,-0 620,-30 782,-30 782,-0 620,-0"/>
<text text-anchor="start" x="628" y="-18" font-family="Helvetica,sans-Serif" font-size="10.00">features.DisplayTurtle.animate</text>
<text text-anchor="middle" x="701" y="-7" font-family="Helvetica,sans-Serif" font-size="10.00">TurtleAngle</text>
</a>
</g>
</g>
<!-- Node4&#45;&gt;Node12 -->
<g id="edge12" class="edge"><title>Node4&#45;&gt;Node12</title>
<path fill="none" stroke="midnightblue" d="M569.754,-136.996C574.918,-134.212 579.769,-130.912 584,-127 614.727,-98.5926 589.117,-68.2372 620,-40 621.701,-38.4443 623.499,-36.9854 625.373,-35.6173"/>
<polygon fill="midnightblue" stroke="midnightblue" points="627.424,-38.4628 634.032,-30.1816 623.702,-32.5341 627.424,-38.4628"/>
</g>
<!-- Node10 -->
<g id="node10" class="node"><title>Node10</title>
<g id="a_node10"><a xlink:href="../../da/da7/classfeatures_1_1_pen.html#accc955328a7a1e73f6e512116eb3ca70" target="_top" xlink:title="features.Pen.drawLine">
<polygon fill="white" stroke="black" points="1030,-76.5 1030,-95.5 1152,-95.5 1152,-76.5 1030,-76.5"/>
<text text-anchor="middle" x="1091" y="-83.5" font-family="Helvetica,sans-Serif" font-size="10.00">features.Pen.drawLine</text>
</a>
</g>
</g>
<!-- Node9&#45;&gt;Node10 -->
<g id="edge9" class="edge"><title>Node9&#45;&gt;Node10</title>
<path fill="none" stroke="midnightblue" d="M994.212,-86C1002.79,-86 1011.41,-86 1019.78,-86"/>
<polygon fill="midnightblue" stroke="midnightblue" points="1019.85,-89.5001 1029.85,-86 1019.85,-82.5001 1019.85,-89.5001"/>
</g>
<!-- Node11&#45;&gt;Node9 -->
<g id="edge11" class="edge"><title>Node11&#45;&gt;Node9</title>
<path fill="none" stroke="midnightblue" d="M782.231,-72.695C790.674,-73.61 799.323,-74.5474 807.93,-75.4801"/>
<polygon fill="midnightblue" stroke="midnightblue" points="807.68,-78.9734 817.999,-76.5713 808.434,-72.0141 807.68,-78.9734"/>
</g>
</g>
</svg>
