<?xml version="1.0" encoding="UTF-8" standalone="no"?>
<!DOCTYPE svg PUBLIC "-//W3C//DTD SVG 1.1//EN"
 "http://www.w3.org/Graphics/SVG/1.1/DTD/svg11.dtd">
<!-- Generated by graphviz version 2.36.0 (20140111.2315)
 -->
<!-- Title: components.CenterPane.updateAnimate Pages: 1 -->
<svg width="388pt" height="38pt"
 viewBox="0.00 0.00 388.00 38.00" xmlns="http://www.w3.org/2000/svg" xmlns:xlink="http://www.w3.org/1999/xlink">
<g id="graph0" class="graph" transform="scale(1 1) rotate(0) translate(4 34)">
<title>components.CenterPane.updateAnimate</title>
<polygon fill="white" stroke="none" points="-4,4 -4,-34 384,-34 384,4 -4,4"/>
<!-- Node1 -->
<g id="node1" class="node"><title>Node1</title>
<polygon fill="#bfbfbf" stroke="black" points="0,-0 0,-30 172,-30 172,-0 0,-0"/>
<text text-anchor="start" x="8" y="-18" font-family="Helvetica,sans-Serif" font-size="10.00">components.CenterPane.update</text>
<text text-anchor="middle" x="86" y="-7" font-family="Helvetica,sans-Serif" font-size="10.00">Animate</text>
</g>
<!-- Node2 -->
<g id="node2" class="node"><title>Node2</title>
<g id="a_node2"><a xlink:href="../../d8/da9/classfeatures_1_1_animate_button_feature.html#a476aebff045c1adfa352b4151c0b42a4" target="_top" xlink:title="features.AnimateButtonFeature.\lAnimateButtonFeature">
<polygon fill="white" stroke="black" points="208.5,-0 208.5,-30 379.5,-30 379.5,-0 208.5,-0"/>
<text text-anchor="start" x="216.5" y="-18" font-family="Helvetica,sans-Serif" font-size="10.00">features.AnimateButtonFeature.</text>
<text text-anchor="middle" x="294" y="-7" font-family="Helvetica,sans-Serif" font-size="10.00">AnimateButtonFeature</text>
</a>
</g>
</g>
<!-- Node1&#45;&gt;Node2 -->
<g id="edge1" class="edge"><title>Node1&#45;&gt;Node2</title>
<path fill="none" stroke="midnightblue" d="M182.424,-15C191.111,-15 199.87,-15 208.453,-15"/>
<polygon fill="midnightblue" stroke="midnightblue" points="182.275,-11.5001 172.275,-15 182.275,-18.5001 182.275,-11.5001"/>
</g>
</g>
</svg>
