<?xml version="1.0" encoding="UTF-8" standalone="no"?>
<!DOCTYPE svg PUBLIC "-//W3C//DTD SVG 1.1//EN"
 "http://www.w3.org/Graphics/SVG/1.1/DTD/svg11.dtd">
<!-- Generated by graphviz version 2.36.0 (20140111.2315)
 -->
<!-- Title: components.CenterPane.updatePenProperties Pages: 1 -->
<svg width="776pt" height="279pt"
 viewBox="0.00 0.00 776.00 279.00" xmlns="http://www.w3.org/2000/svg" xmlns:xlink="http://www.w3.org/1999/xlink">
<g id="graph0" class="graph" transform="scale(1 1) rotate(0) translate(4 275)">
<title>components.CenterPane.updatePenProperties</title>
<polygon fill="white" stroke="none" points="-4,4 -4,-275 772,-275 772,4 -4,4"/>
<!-- Node1 -->
<g id="node1" class="node"><title>Node1</title>
<polygon fill="#bfbfbf" stroke="black" points="0,-120 0,-150 172,-150 172,-120 0,-120"/>
<text text-anchor="start" x="8" y="-138" font-family="Helvetica,sans-Serif" font-size="10.00">components.CenterPane.update</text>
<text text-anchor="middle" x="86" y="-127" font-family="Helvetica,sans-Serif" font-size="10.00">PenProperties</text>
</g>
<!-- Node2 -->
<g id="node2" class="node"><title>Node2</title>
<g id="a_node2"><a xlink:href="../../d6/d68/classcomponents_1_1_turtle_manager.html#adfed5450fa1785d7798cf070dd4cba86" target="_top" xlink:title="components.TurtleManager.update\lPenProperties">
<polygon fill="white" stroke="black" points="208.5,-120 208.5,-150 391.5,-150 391.5,-120 208.5,-120"/>
<text text-anchor="start" x="216.5" y="-138" font-family="Helvetica,sans-Serif" font-size="10.00">components.TurtleManager.update</text>
<text text-anchor="middle" x="300" y="-127" font-family="Helvetica,sans-Serif" font-size="10.00">PenProperties</text>
</a>
</g>
</g>
<!-- Node1&#45;&gt;Node2 -->
<g id="edge1" class="edge"><title>Node1&#45;&gt;Node2</title>
<path fill="none" stroke="midnightblue" d="M172.007,-135C180.618,-135 189.421,-135 198.177,-135"/>
<polygon fill="midnightblue" stroke="midnightblue" points="198.42,-138.5 208.42,-135 198.42,-131.5 198.42,-138.5"/>
</g>
<!-- Node3 -->
<g id="node3" class="node"><title>Node3</title>
<g id="a_node3"><a xlink:href="../../de/ddd/classproperties_1_1_pen_properties.html#a155b49da571ebf565b00bc25497dd9d8" target="_top" xlink:title="properties.PenProperties.getID">
<polygon fill="white" stroke="black" points="432,-251.5 432,-270.5 596,-270.5 596,-251.5 432,-251.5"/>
<text text-anchor="middle" x="514" y="-258.5" font-family="Helvetica,sans-Serif" font-size="10.00">properties.PenProperties.getID</text>
</a>
</g>
</g>
<!-- Node2&#45;&gt;Node3 -->
<g id="edge2" class="edge"><title>Node2&#45;&gt;Node3</title>
<path fill="none" stroke="midnightblue" d="M314.622,-150.213C336.289,-173.439 380.984,-217.512 428,-241 433.696,-243.846 439.811,-246.296 446.054,-248.404"/>
<polygon fill="midnightblue" stroke="midnightblue" points="445.341,-251.846 455.928,-251.442 447.4,-245.156 445.341,-251.846"/>
</g>
<!-- Node5 -->
<g id="node5" class="node"><title>Node5</title>
<g id="a_node5"><a xlink:href="../../dc/d0a/classfeatures_1_1_display_turtle.html#a992e42bf8586f0685a7ec80cbe6127a9" target="_top" xlink:title="features.DisplayTurtle.update\lPenShow">
<polygon fill="white" stroke="black" points="436,-202 436,-232 592,-232 592,-202 436,-202"/>
<text text-anchor="start" x="444" y="-220" font-family="Helvetica,sans-Serif" font-size="10.00">features.DisplayTurtle.update</text>
<text text-anchor="middle" x="514" y="-209" font-family="Helvetica,sans-Serif" font-size="10.00">PenShow</text>
</a>
</g>
</g>
<!-- Node2&#45;&gt;Node5 -->
<g id="edge4" class="edge"><title>Node2&#45;&gt;Node5</title>
<path fill="none" stroke="midnightblue" d="M331.311,-150.008C356.742,-162.257 394.223,-179.518 428,-192 434.398,-194.364 441.13,-196.66 447.888,-198.839"/>
<polygon fill="midnightblue" stroke="midnightblue" points="447.183,-202.286 457.773,-201.943 449.281,-195.608 447.183,-202.286"/>
</g>
<!-- Node6 -->
<g id="node6" class="node"><title>Node6</title>
<g id="a_node6"><a xlink:href="../../de/ddd/classproperties_1_1_pen_properties.html#ab2d006d729cd90544169d82369be8fb1" target="_top" xlink:title="properties.PenProperties.isDown">
<polygon fill="white" stroke="black" points="428,-163.5 428,-182.5 600,-182.5 600,-163.5 428,-163.5"/>
<text text-anchor="middle" x="514" y="-170.5" font-family="Helvetica,sans-Serif" font-size="10.00">properties.PenProperties.isDown</text>
</a>
</g>
</g>
<!-- Node2&#45;&gt;Node6 -->
<g id="edge5" class="edge"><title>Node2&#45;&gt;Node6</title>
<path fill="none" stroke="midnightblue" d="M384.788,-150.019C406.471,-153.905 429.453,-158.025 449.879,-161.686"/>
<polygon fill="midnightblue" stroke="midnightblue" points="449.534,-165.18 459.995,-163.499 450.769,-158.29 449.534,-165.18"/>
</g>
<!-- Node8 -->
<g id="node8" class="node"><title>Node8</title>
<g id="a_node8"><a xlink:href="../../da/da7/classfeatures_1_1_pen.html#a0931e00763a8a6a5f0a26c8833b7cebc" target="_top" xlink:title="features.Pen.updatePenWidth">
<polygon fill="white" stroke="black" points="435,-125.5 435,-144.5 593,-144.5 593,-125.5 435,-125.5"/>
<text text-anchor="middle" x="514" y="-132.5" font-family="Helvetica,sans-Serif" font-size="10.00">features.Pen.updatePenWidth</text>
</a>
</g>
</g>
<!-- Node2&#45;&gt;Node8 -->
<g id="edge7" class="edge"><title>Node2&#45;&gt;Node8</title>
<path fill="none" stroke="midnightblue" d="M391.522,-135C402.551,-135 413.809,-135 424.803,-135"/>
<polygon fill="midnightblue" stroke="midnightblue" points="424.812,-138.5 434.812,-135 424.812,-131.5 424.812,-138.5"/>
</g>
<!-- Node9 -->
<g id="node9" class="node"><title>Node9</title>
<g id="a_node9"><a xlink:href="../../de/ddd/classproperties_1_1_pen_properties.html#a158bdc5096ec8a8bf108208c7be3e0a0" target="_top" xlink:title="properties.PenProperties.size">
<polygon fill="white" stroke="black" points="435.5,-87.5 435.5,-106.5 592.5,-106.5 592.5,-87.5 435.5,-87.5"/>
<text text-anchor="middle" x="514" y="-94.5" font-family="Helvetica,sans-Serif" font-size="10.00">properties.PenProperties.size</text>
</a>
</g>
</g>
<!-- Node2&#45;&gt;Node9 -->
<g id="edge8" class="edge"><title>Node2&#45;&gt;Node9</title>
<path fill="none" stroke="midnightblue" d="M384.788,-119.981C406.471,-116.095 429.453,-111.975 449.879,-108.314"/>
<polygon fill="midnightblue" stroke="midnightblue" points="450.769,-111.71 459.995,-106.501 449.534,-104.82 450.769,-111.71"/>
</g>
<!-- Node11 -->
<g id="node11" class="node"><title>Node11</title>
<g id="a_node11"><a xlink:href="../../da/da7/classfeatures_1_1_pen.html#a62bdeb4b8d9d23793ed71d120a724974" target="_top" xlink:title="features.Pen.updatePenColor">
<polygon fill="white" stroke="black" points="435.5,-49.5 435.5,-68.5 592.5,-68.5 592.5,-49.5 435.5,-49.5"/>
<text text-anchor="middle" x="514" y="-56.5" font-family="Helvetica,sans-Serif" font-size="10.00">features.Pen.updatePenColor</text>
</a>
</g>
</g>
<!-- Node2&#45;&gt;Node11 -->
<g id="edge10" class="edge"><title>Node2&#45;&gt;Node11</title>
<path fill="none" stroke="midnightblue" d="M330.092,-119.908C355.407,-107.273 393.37,-89.5104 428,-78 435.753,-75.423 444.02,-73.0875 452.238,-71.0062"/>
<polygon fill="midnightblue" stroke="midnightblue" points="453.305,-74.3491 462.201,-68.5945 451.658,-67.5456 453.305,-74.3491"/>
</g>
<!-- Node12 -->
<g id="node12" class="node"><title>Node12</title>
<g id="a_node12"><a xlink:href="../../de/ddd/classproperties_1_1_pen_properties.html#a905443cc129f202868f6593fe93e878e" target="_top" xlink:title="properties.PenProperties.get\lColorIndex">
<polygon fill="white" stroke="black" points="437,-0 437,-30 591,-30 591,-0 437,-0"/>
<text text-anchor="start" x="445" y="-18" font-family="Helvetica,sans-Serif" font-size="10.00">properties.PenProperties.get</text>
<text text-anchor="middle" x="514" y="-7" font-family="Helvetica,sans-Serif" font-size="10.00">ColorIndex</text>
</a>
</g>
</g>
<!-- Node2&#45;&gt;Node12 -->
<g id="edge11" class="edge"><title>Node2&#45;&gt;Node12</title>
<path fill="none" stroke="midnightblue" d="M317.368,-119.676C340.391,-98.8794 384.42,-61.8173 428,-40 432.61,-37.6922 437.47,-35.5601 442.435,-33.5973"/>
<polygon fill="midnightblue" stroke="midnightblue" points="443.912,-36.7829 452.075,-30.0298 441.482,-30.218 443.912,-36.7829"/>
</g>
<!-- Node4 -->
<g id="node4" class="node"><title>Node4</title>
<g id="a_node4"><a xlink:href="../../da/d85/classactor_1_1_pen.html#a7e619e33164eded3efcf4a326e081f9b" target="_top" xlink:title="actor.Pen.getID">
<polygon fill="white" stroke="black" points="657,-251.5 657,-270.5 747,-270.5 747,-251.5 657,-251.5"/>
<text text-anchor="middle" x="702" y="-258.5" font-family="Helvetica,sans-Serif" font-size="10.00">actor.Pen.getID</text>
</a>
</g>
</g>
<!-- Node3&#45;&gt;Node4 -->
<g id="edge3" class="edge"><title>Node3&#45;&gt;Node4</title>
<path fill="none" stroke="midnightblue" d="M596.041,-261C613.146,-261 630.8,-261 646.637,-261"/>
<polygon fill="midnightblue" stroke="midnightblue" points="646.757,-264.5 656.757,-261 646.757,-257.5 646.757,-264.5"/>
</g>
<!-- Node7 -->
<g id="node7" class="node"><title>Node7</title>
<g id="a_node7"><a xlink:href="../../da/d85/classactor_1_1_pen.html#a0855052755119e7371ad0a3eb268b3a9" target="_top" xlink:title="actor.Pen.isDown">
<polygon fill="white" stroke="black" points="653,-163.5 653,-182.5 751,-182.5 751,-163.5 653,-163.5"/>
<text text-anchor="middle" x="702" y="-170.5" font-family="Helvetica,sans-Serif" font-size="10.00">actor.Pen.isDown</text>
</a>
</g>
</g>
<!-- Node6&#45;&gt;Node7 -->
<g id="edge6" class="edge"><title>Node6&#45;&gt;Node7</title>
<path fill="none" stroke="midnightblue" d="M600.107,-173C614.514,-173 629.175,-173 642.694,-173"/>
<polygon fill="midnightblue" stroke="midnightblue" points="642.787,-176.5 652.787,-173 642.787,-169.5 642.787,-176.5"/>
</g>
<!-- Node10 -->
<g id="node10" class="node"><title>Node10</title>
<g id="a_node10"><a xlink:href="../../da/d85/classactor_1_1_pen.html#a441b34fa126f398b351f26aec6a89084" target="_top" xlink:title="actor.Pen.getSize">
<polygon fill="white" stroke="black" points="651.5,-87.5 651.5,-106.5 752.5,-106.5 752.5,-87.5 651.5,-87.5"/>
<text text-anchor="middle" x="702" y="-94.5" font-family="Helvetica,sans-Serif" font-size="10.00">actor.Pen.getSize</text>
</a>
</g>
</g>
<!-- Node9&#45;&gt;Node10 -->
<g id="edge9" class="edge"><title>Node9&#45;&gt;Node10</title>
<path fill="none" stroke="midnightblue" d="M592.534,-97C608.732,-97 625.574,-97 641.02,-97"/>
<polygon fill="midnightblue" stroke="midnightblue" points="641.465,-100.5 651.465,-97 641.465,-93.5001 641.465,-100.5"/>
</g>
<!-- Node13 -->
<g id="node13" class="node"><title>Node13</title>
<g id="a_node13"><a xlink:href="../../da/d85/classactor_1_1_pen.html#aafee390410894877f7eda8b67ea07920" target="_top" xlink:title="actor.Pen.getColorIndex">
<polygon fill="white" stroke="black" points="636.5,-5.5 636.5,-24.5 767.5,-24.5 767.5,-5.5 636.5,-5.5"/>
<text text-anchor="middle" x="702" y="-12.5" font-family="Helvetica,sans-Serif" font-size="10.00">actor.Pen.getColorIndex</text>
</a>
</g>
</g>
<!-- Node12&#45;&gt;Node13 -->
<g id="edge12" class="edge"><title>Node12&#45;&gt;Node13</title>
<path fill="none" stroke="midnightblue" d="M591.19,-15C602.752,-15 614.672,-15 626.204,-15"/>
<polygon fill="midnightblue" stroke="midnightblue" points="626.219,-18.5001 636.219,-15 626.219,-11.5001 626.219,-18.5001"/>
</g>
</g>
</svg>
