<?xml version="1.0" encoding="UTF-8" standalone="no"?>
<!DOCTYPE svg PUBLIC "-//W3C//DTD SVG 1.1//EN"
 "http://www.w3.org/Graphics/SVG/1.1/DTD/svg11.dtd">
<!-- Generated by graphviz version 2.36.0 (20140111.2315)
 -->
<!-- Title: command.BaseMultiTurtleCommand Pages: 1 -->
<svg width="469pt" height="196pt"
 viewBox="0.00 0.00 469.00 196.00" xmlns="http://www.w3.org/2000/svg" xmlns:xlink="http://www.w3.org/1999/xlink">
<g id="graph0" class="graph" transform="scale(1 1) rotate(0) translate(4 192)">
<title>command.BaseMultiTurtleCommand</title>
<polygon fill="white" stroke="none" points="-4,4 -4,-192 465,-192 465,4 -4,4"/>
<!-- Node1 -->
<g id="node1" class="node"><title>Node1</title>
<polygon fill="#bfbfbf" stroke="black" points="136.5,-56.5 136.5,-75.5 327.5,-75.5 327.5,-56.5 136.5,-56.5"/>
<text text-anchor="middle" x="232" y="-63.5" font-family="Helvetica,sans-Serif" font-size="10.00">command.BaseMultiTurtleCommand</text>
</g>
<!-- Node4 -->
<g id="node4" class="node"><title>Node4</title>
<g id="a_node4"><a xlink:href="../../db/d24/classcommand_1_1_ask_command.html" target="_top" xlink:title="command.AskCommand">
<polygon fill="white" stroke="black" points="0,-0.5 0,-19.5 136,-19.5 136,-0.5 0,-0.5"/>
<text text-anchor="middle" x="68" y="-7.5" font-family="Helvetica,sans-Serif" font-size="10.00">command.AskCommand</text>
</a>
</g>
</g>
<!-- Node1&#45;&gt;Node4 -->
<g id="edge3" class="edge"><title>Node1&#45;&gt;Node4</title>
<path fill="none" stroke="midnightblue" d="M196.48,-53.3044C165.578,-43.1294 121.527,-28.6246 93.8647,-19.5164"/>
<polygon fill="midnightblue" stroke="midnightblue" points="195.421,-56.6404 206.014,-56.4435 197.61,-49.9915 195.421,-56.6404"/>
</g>
<!-- Node5 -->
<g id="node5" class="node"><title>Node5</title>
<g id="a_node5"><a xlink:href="../../dc/daf/classcommand_1_1_ask_with_command.html" target="_top" xlink:title="command.AskWithCommand">
<polygon fill="white" stroke="black" points="154,-0.5 154,-19.5 310,-19.5 310,-0.5 154,-0.5"/>
<text text-anchor="middle" x="232" y="-7.5" font-family="Helvetica,sans-Serif" font-size="10.00">command.AskWithCommand</text>
</a>
</g>
</g>
<!-- Node1&#45;&gt;Node5 -->
<g id="edge4" class="edge"><title>Node1&#45;&gt;Node5</title>
<path fill="none" stroke="midnightblue" d="M232,-45.8045C232,-36.9102 232,-26.7798 232,-19.7511"/>
<polygon fill="midnightblue" stroke="midnightblue" points="228.5,-46.083 232,-56.083 235.5,-46.083 228.5,-46.083"/>
</g>
<!-- Node6 -->
<g id="node6" class="node"><title>Node6</title>
<g id="a_node6"><a xlink:href="../../d6/de2/classcommand_1_1_tell_command.html" target="_top" xlink:title="command.TellCommand">
<polygon fill="white" stroke="black" points="328.5,-0.5 328.5,-19.5 461.5,-19.5 461.5,-0.5 328.5,-0.5"/>
<text text-anchor="middle" x="395" y="-7.5" font-family="Helvetica,sans-Serif" font-size="10.00">command.TellCommand</text>
</a>
</g>
</g>
<!-- Node1&#45;&gt;Node6 -->
<g id="edge5" class="edge"><title>Node1&#45;&gt;Node6</title>
<path fill="none" stroke="midnightblue" d="M267.703,-53.172C298.396,-43.0039 341.919,-28.5852 369.293,-19.5164"/>
<polygon fill="midnightblue" stroke="midnightblue" points="266.22,-49.9762 257.828,-56.4435 268.421,-56.6211 266.22,-49.9762"/>
</g>
<!-- Node2 -->
<g id="node2" class="node"><title>Node2</title>
<g id="a_node2"><a xlink:href="../../d7/d29/classcommand_1_1_basic_list_command.html" target="_top" xlink:title="command.BasicListCommand">
<polygon fill="white" stroke="black" points="151.5,-112.5 151.5,-131.5 312.5,-131.5 312.5,-112.5 151.5,-112.5"/>
<text text-anchor="middle" x="232" y="-119.5" font-family="Helvetica,sans-Serif" font-size="10.00">command.BasicListCommand</text>
</a>
</g>
</g>
<!-- Node2&#45;&gt;Node1 -->
<g id="edge1" class="edge"><title>Node2&#45;&gt;Node1</title>
<path fill="none" stroke="midnightblue" d="M232,-101.805C232,-92.9102 232,-82.7798 232,-75.7511"/>
<polygon fill="midnightblue" stroke="midnightblue" points="228.5,-102.083 232,-112.083 235.5,-102.083 228.5,-102.083"/>
</g>
<!-- Node3 -->
<g id="node3" class="node"><title>Node3</title>
<g id="a_node3"><a xlink:href="../../d7/d35/classcommand_1_1_command.html" target="_top" xlink:title="command.Command">
<polygon fill="white" stroke="black" points="172.5,-168.5 172.5,-187.5 291.5,-187.5 291.5,-168.5 172.5,-168.5"/>
<text text-anchor="middle" x="232" y="-175.5" font-family="Helvetica,sans-Serif" font-size="10.00">command.Command</text>
</a>
</g>
</g>
<!-- Node3&#45;&gt;Node2 -->
<g id="edge2" class="edge"><title>Node3&#45;&gt;Node2</title>
<path fill="none" stroke="midnightblue" d="M232,-157.805C232,-148.91 232,-138.78 232,-131.751"/>
<polygon fill="midnightblue" stroke="midnightblue" points="228.5,-158.083 232,-168.083 235.5,-158.083 228.5,-158.083"/>
</g>
</g>
</svg>
