<?xml version="1.0" encoding="UTF-8" standalone="no"?>
<!DOCTYPE svg PUBLIC "-//W3C//DTD SVG 1.1//EN"
 "http://www.w3.org/Graphics/SVG/1.1/DTD/svg11.dtd">
<!-- Generated by graphviz version 2.36.0 (20140111.2315)
 -->
<!-- Title: parser.Node.toString Pages: 1 -->
<svg width="320pt" height="66pt"
 viewBox="0.00 0.00 320.00 66.00" xmlns="http://www.w3.org/2000/svg" xmlns:xlink="http://www.w3.org/1999/xlink">
<g id="graph0" class="graph" transform="scale(1 1) rotate(0) translate(4 62)">
<title>parser.Node.toString</title>
<polygon fill="white" stroke="none" points="-4,4 -4,-62 316,-62 316,4 -4,4"/>
<!-- Node1 -->
<g id="node1" class="node"><title>Node1</title>
<polygon fill="#bfbfbf" stroke="black" points="0,-19.5 0,-38.5 116,-38.5 116,-19.5 0,-19.5"/>
<text text-anchor="middle" x="58" y="-26.5" font-family="Helvetica,sans-Serif" font-size="10.00">parser.Node.toString</text>
</g>
<!-- Node2 -->
<g id="node2" class="node"><title>Node2</title>
<g id="a_node2"><a xlink:href="../../d3/dcc/classparser_1_1_node.html#a7dfaaf7e60998705460f304c5d56ca6f" target="_top" xlink:title="parser.Node.getCommand">
<polygon fill="white" stroke="black" points="160,-38.5 160,-57.5 304,-57.5 304,-38.5 160,-38.5"/>
<text text-anchor="middle" x="232" y="-45.5" font-family="Helvetica,sans-Serif" font-size="10.00">parser.Node.getCommand</text>
</a>
</g>
</g>
<!-- Node1&#45;&gt;Node2 -->
<g id="edge1" class="edge"><title>Node1&#45;&gt;Node2</title>
<path fill="none" stroke="midnightblue" d="M116.274,-35.3267C127.082,-36.5207 138.574,-37.7902 149.951,-39.0469"/>
<polygon fill="midnightblue" stroke="midnightblue" points="149.575,-42.5265 159.898,-40.1458 150.343,-35.5689 149.575,-42.5265"/>
</g>
<!-- Node3 -->
<g id="node3" class="node"><title>Node3</title>
<g id="a_node3"><a xlink:href="../../d7/d35/classcommand_1_1_command.html#ac2df873d4926bc6e08dba8c6272cff7e" target="_top" xlink:title="command.Command.toString">
<polygon fill="white" stroke="black" points="152,-0.5 152,-19.5 312,-19.5 312,-0.5 152,-0.5"/>
<text text-anchor="middle" x="232" y="-7.5" font-family="Helvetica,sans-Serif" font-size="10.00">command.Command.toString</text>
</a>
</g>
</g>
<!-- Node1&#45;&gt;Node3 -->
<g id="edge2" class="edge"><title>Node1&#45;&gt;Node3</title>
<path fill="none" stroke="midnightblue" d="M116.274,-22.6733C124.492,-21.7655 133.105,-20.814 141.762,-19.8577"/>
<polygon fill="midnightblue" stroke="midnightblue" points="142.369,-23.312 151.924,-18.7351 141.6,-16.3544 142.369,-23.312"/>
</g>
</g>
</svg>
