<?xml version="1.0" encoding="UTF-8" standalone="no"?>
<!DOCTYPE svg PUBLIC "-//W3C//DTD SVG 1.1//EN"
 "http://www.w3.org/Graphics/SVG/1.1/DTD/svg11.dtd">
<!-- Generated by graphviz version 2.36.0 (20140111.2315)
 -->
<!-- Title: parser.Node.getCommand Pages: 1 -->
<!--zoomable 981 -->
<svg id="main" version="1.1" xmlns="http://www.w3.org/2000/svg" xmlns:xlink="http://www.w3.org/1999/xlink" xml:space="preserve" onload="init(evt)">
<style type="text/css"><![CDATA[
.edge:hover path { stroke: red; }
.edge:hover polygon { stroke: red; fill: red; }
]]></style>
<script type="text/javascript"><![CDATA[
var edges = document.getElementsByTagName('g');
if (edges && edges.length) {
  for (var i=0;i<edges.length;i++) {
    if (edges[i].id.substr(0,4)=='edge') {
      edges[i].setAttribute('class','edge');
    }
  }
}
]]></script>
        <defs>
                <circle id="rim" cx="0" cy="0" r="7"/>
                <circle id="rim2" cx="0" cy="0" r="3.5"/>
                <g id="zoomPlus">
                        <use xlink:href="#rim" fill="#404040">
                                <set attributeName="fill" to="#808080" begin="zoomplus.mouseover" end="zoomplus.mouseout"/>
                        </use>
                        <path d="M-4,0h8M0,-4v8" fill="none" stroke="white" stroke-width="1.5" pointer-events="none"/>
                </g>
                <g id="zoomMin">
                        <use xlink:href="#rim" fill="#404040">
                                <set attributeName="fill" to="#808080" begin="zoomminus.mouseover" end="zoomminus.mouseout"/>
                        </use>
                        <path d="M-4,0h8" fill="none" stroke="white" stroke-width="1.5" pointer-events="none"/>
                </g>
                <g id="dirArrow">
                        <path fill="none" stroke="white" stroke-width="1.5" d="M0,-3.0v7 M-2.5,-0.5L0,-3.0L2.5,-0.5"/>
                </g>
               <g id="resetDef">
                       <use xlink:href="#rim2" fill="#404040">
                               <set attributeName="fill" to="#808080" begin="reset.mouseover" end="reset.mouseout"/>
                       </use>
               </g>
        </defs>

<script type="text/javascript">
var viewWidth = 1904;
var viewHeight = 981;
var sectionId = 'dynsection-4';
</script>
<script xlink:href="../../svgpan.js"/>
<svg id="graph" class="graph">
<g id="viewport">
<title>parser.Node.getCommand</title>
<polygon fill="white" stroke="none" points="-4,4 -4,-977 1900,-977 1900,4 -4,4"/>
<!-- Node1 -->
<g id="node1" class="node"><title>Node1</title>
<polygon fill="#bfbfbf" stroke="black" points="0,-437.5 0,-456.5 144,-456.5 144,-437.5 0,-437.5"/>
<text text-anchor="middle" x="72" y="-444.5" font-family="Helvetica,sans-Serif" font-size="10.00">parser.Node.getCommand</text>
</g>
<!-- Node2 -->
<g id="node2" class="node"><title>Node2</title>
<g id="a_node2"><a xlink:href="../../d7/d29/classcommand_1_1_basic_list_command.html#a4553a7f696bfda747739a6b37978e827" target="_top" xlink:title="command.BasicListCommand.check\lListExit">
<polygon fill="white" stroke="black" points="180.5,-514 180.5,-544 371.5,-544 371.5,-514 180.5,-514"/>
<text text-anchor="start" x="188.5" y="-532" font-family="Helvetica,sans-Serif" font-size="10.00">command.BasicListCommand.check</text>
<text text-anchor="middle" x="276" y="-521" font-family="Helvetica,sans-Serif" font-size="10.00">ListExit</text>
</a>
</g>
</g>
<!-- Node1&#45;&gt;Node2 -->
<g id="edge1" class="edge"><title>Node1&#45;&gt;Node2</title>
<path fill="none" stroke="midnightblue" d="M97.0608,-461.907C118.257,-474.524 150.296,-492.363 180,-504 189.448,-507.702 199.636,-511.033 209.71,-513.966"/>
<polygon fill="midnightblue" stroke="midnightblue" points="98.7764,-458.855 88.4059,-456.686 95.1605,-464.849 98.7764,-458.855"/>
</g>
<!-- Node3 -->
<g id="node3" class="node"><title>Node3</title>
<g id="a_node3"><a xlink:href="../../d7/d35/classcommand_1_1_command.html#a30463654f906e5bcf507ab33bd5d8bff" target="_top" xlink:title="command.Command.checkListExit">
<polygon fill="white" stroke="black" points="184.5,-475.5 184.5,-494.5 367.5,-494.5 367.5,-475.5 184.5,-475.5"/>
<text text-anchor="middle" x="276" y="-482.5" font-family="Helvetica,sans-Serif" font-size="10.00">command.Command.checkListExit</text>
</a>
</g>
</g>
<!-- Node1&#45;&gt;Node3 -->
<g id="edge2" class="edge"><title>Node1&#45;&gt;Node3</title>
<path fill="none" stroke="midnightblue" d="M133.696,-458.418C162.599,-463.855 196.769,-470.283 224.267,-475.456"/>
<polygon fill="midnightblue" stroke="midnightblue" points="134.187,-454.949 123.712,-456.54 132.893,-461.828 134.187,-454.949"/>
</g>
<!-- Node4 -->
<g id="node4" class="node"><title>Node4</title>
<g id="a_node4"><a xlink:href="../../d7/d35/classcommand_1_1_command.html#a81d128e8b4ac11d732d24edcbc5c2a88" target="_top" xlink:title="command.Command.getNumInputs">
<polygon fill="white" stroke="black" points="408,-437.5 408,-456.5 598,-456.5 598,-437.5 408,-437.5"/>
<text text-anchor="middle" x="503" y="-444.5" font-family="Helvetica,sans-Serif" font-size="10.00">command.Command.getNumInputs</text>
</a>
</g>
</g>
<!-- Node1&#45;&gt;Node4 -->
<g id="edge41" class="edge"><title>Node1&#45;&gt;Node4</title>
<path fill="none" stroke="midnightblue" d="M154.729,-447C226.944,-447 332.25,-447 407.946,-447"/>
<polygon fill="midnightblue" stroke="midnightblue" points="154.322,-443.5 144.322,-447 154.322,-450.5 154.322,-443.5"/>
</g>
<!-- Node5 -->
<g id="node5" class="node"><title>Node5</title>
<g id="a_node5"><a xlink:href="../../d6/d95/classparser_1_1_parser.html#a2fe30e8a728e36fd2626587f059c4b95" target="_top" xlink:title="parser.Parser.makeTree">
<polygon fill="white" stroke="black" points="634,-418.5 634,-437.5 762,-437.5 762,-418.5 634,-418.5"/>
<text text-anchor="middle" x="698" y="-425.5" font-family="Helvetica,sans-Serif" font-size="10.00">parser.Parser.makeTree</text>
</a>
</g>
</g>
<!-- Node1&#45;&gt;Node5 -->
<g id="edge42" class="edge"><title>Node1&#45;&gt;Node5</title>
<path fill="none" stroke="midnightblue" d="M154.371,-441.092C222.176,-436.48 321.32,-430.456 408,-428 485.738,-425.797 575.285,-426.262 633.843,-426.971"/>
<polygon fill="midnightblue" stroke="midnightblue" points="153.92,-437.615 144.182,-441.791 154.398,-444.598 153.92,-437.615"/>
</g>
<!-- Node39 -->
<g id="node39" class="node"><title>Node39</title>
<g id="a_node39"><a xlink:href="../../d3/dcc/classparser_1_1_node.html#ae5dddc633ce2b57c7e0d191ccee5276d" target="_top" xlink:title="parser.Node.toString">
<polygon fill="white" stroke="black" points="218,-361.5 218,-380.5 334,-380.5 334,-361.5 218,-361.5"/>
<text text-anchor="middle" x="276" y="-368.5" font-family="Helvetica,sans-Serif" font-size="10.00">parser.Node.toString</text>
</a>
</g>
</g>
<!-- Node1&#45;&gt;Node39 -->
<g id="edge43" class="edge"><title>Node1&#45;&gt;Node39</title>
<path fill="none" stroke="midnightblue" d="M98.9806,-432.505C120.253,-421.099 151.397,-405.438 180,-395 195.661,-389.285 213.253,-384.428 229.003,-380.611"/>
<polygon fill="midnightblue" stroke="midnightblue" points="97.0626,-429.564 89.9459,-437.413 100.404,-435.715 97.0626,-429.564"/>
</g>
<!-- Node3&#45;&gt;Node4 -->
<g id="edge3" class="edge"><title>Node3&#45;&gt;Node4</title>
<path fill="none" stroke="midnightblue" d="M343.765,-473.724C376.135,-468.257 414.594,-461.762 445.49,-456.544"/>
<polygon fill="midnightblue" stroke="midnightblue" points="342.764,-470.344 333.487,-475.46 343.93,-477.246 342.764,-470.344"/>
</g>
<!-- Node4&#45;&gt;Node5 -->
<g id="edge4" class="edge"><title>Node4&#45;&gt;Node5</title>
<path fill="none" stroke="midnightblue" d="M608.406,-436.722C617.048,-435.871 625.604,-435.029 633.796,-434.222"/>
<polygon fill="midnightblue" stroke="midnightblue" points="607.847,-433.26 598.238,-437.723 608.533,-440.226 607.847,-433.26"/>
</g>
<!-- Node6 -->
<g id="node6" class="node"><title>Node6</title>
<g id="a_node6"><a xlink:href="../../d6/d95/classparser_1_1_parser.html#a5e98fdfffe49478864dc1b22371d6cb1" target="_top" xlink:title="parser.Parser.parse">
<polygon fill="white" stroke="black" points="798.5,-418.5 798.5,-437.5 907.5,-437.5 907.5,-418.5 798.5,-418.5"/>
<text text-anchor="middle" x="853" y="-425.5" font-family="Helvetica,sans-Serif" font-size="10.00">parser.Parser.parse</text>
</a>
</g>
</g>
<!-- Node5&#45;&gt;Node6 -->
<g id="edge5" class="edge"><title>Node5&#45;&gt;Node6</title>
<path fill="none" stroke="midnightblue" d="M772.335,-428C781.087,-428 789.894,-428 798.297,-428"/>
<polygon fill="midnightblue" stroke="midnightblue" points="772.114,-424.5 762.114,-428 772.114,-431.5 772.114,-424.5"/>
</g>
<!-- Node7 -->
<g id="node7" class="node"><title>Node7</title>
<g id="a_node7"><a xlink:href="../../d7/da1/classmain_application_1_1_controller.html#a6e9afc2e53e6adb01a2b73794a319b63" target="_top" xlink:title="mainApplication.Controller.parse\lAndEvaluate">
<polygon fill="white" stroke="black" points="944,-849 944,-879 1116,-879 1116,-849 944,-849"/>
<text text-anchor="start" x="952" y="-867" font-family="Helvetica,sans-Serif" font-size="10.00">mainApplication.Controller.parse</text>
<text text-anchor="middle" x="1030" y="-856" font-family="Helvetica,sans-Serif" font-size="10.00">AndEvaluate</text>
</a>
</g>
</g>
<!-- Node6&#45;&gt;Node7 -->
<g id="edge6" class="edge"><title>Node6&#45;&gt;Node7</title>
<path fill="none" stroke="midnightblue" d="M855.698,-447.815C862.424,-521.79 889.521,-780.54 944,-839 947.565,-842.826 951.683,-846.077 956.144,-848.838"/>
<polygon fill="midnightblue" stroke="midnightblue" points="859.161,-447.241 854.793,-437.588 852.188,-447.858 859.161,-447.241"/>
</g>
<!-- Node17 -->
<g id="node17" class="node"><title>Node17</title>
<g id="a_node17"><a xlink:href="../../d8/dc3/classparser_1_1_test_model.html#ab542659caca299017b423f7b3b3f648a" target="_top" xlink:title="parser.TestModel.testPosition">
<polygon fill="white" stroke="black" points="952,-810.5 952,-829.5 1108,-829.5 1108,-810.5 952,-810.5"/>
<text text-anchor="middle" x="1030" y="-817.5" font-family="Helvetica,sans-Serif" font-size="10.00">parser.TestModel.testPosition</text>
</a>
</g>
</g>
<!-- Node6&#45;&gt;Node17 -->
<g id="edge19" class="edge"><title>Node6&#45;&gt;Node17</title>
<path fill="none" stroke="midnightblue" d="M856.077,-447.805C863.772,-517.389 892.88,-749.2 944,-800 948.301,-804.274 953.334,-807.701 958.764,-810.441"/>
<polygon fill="midnightblue" stroke="midnightblue" points="859.545,-447.318 854.991,-437.752 852.586,-448.07 859.545,-447.318"/>
</g>
<!-- Node18 -->
<g id="node18" class="node"><title>Node18</title>
<g id="a_node18"><a xlink:href="../../d8/dc3/classparser_1_1_test_model.html#ac4fd1124818e321c4a686cc1cf973254" target="_top" xlink:title="parser.TestModel.testParse\lException">
<polygon fill="white" stroke="black" points="957.5,-761 957.5,-791 1102.5,-791 1102.5,-761 957.5,-761"/>
<text text-anchor="start" x="965.5" y="-779" font-family="Helvetica,sans-Serif" font-size="10.00">parser.TestModel.testParse</text>
<text text-anchor="middle" x="1030" y="-768" font-family="Helvetica,sans-Serif" font-size="10.00">Exception</text>
</a>
</g>
</g>
<!-- Node6&#45;&gt;Node18 -->
<g id="edge20" class="edge"><title>Node6&#45;&gt;Node18</title>
<path fill="none" stroke="midnightblue" d="M853.351,-447.802C852.644,-503.708 858.537,-664.305 944,-751 947.888,-754.944 952.363,-758.272 957.183,-761.081"/>
<polygon fill="midnightblue" stroke="midnightblue" points="856.856,-447.6 853.576,-437.526 849.858,-447.447 856.856,-447.6"/>
</g>
<!-- Node19 -->
<g id="node19" class="node"><title>Node19</title>
<g id="a_node19"><a xlink:href="../../d8/dc3/classparser_1_1_test_model.html#a023bd16aca0a843ec8f4772c96ec2ffb" target="_top" xlink:title="parser.TestModel.testWrite">
<polygon fill="white" stroke="black" points="959,-722.5 959,-741.5 1101,-741.5 1101,-722.5 959,-722.5"/>
<text text-anchor="middle" x="1030" y="-729.5" font-family="Helvetica,sans-Serif" font-size="10.00">parser.TestModel.testWrite</text>
</a>
</g>
</g>
<!-- Node6&#45;&gt;Node19 -->
<g id="edge21" class="edge"><title>Node6&#45;&gt;Node19</title>
<path fill="none" stroke="midnightblue" d="M853.94,-447.803C854.919,-499.695 865.091,-640.599 944,-713 948.345,-716.987 953.339,-720.2 958.684,-722.783"/>
<polygon fill="midnightblue" stroke="midnightblue" points="857.438,-447.594 853.849,-437.625 850.438,-447.656 857.438,-447.594"/>
</g>
<!-- Node20 -->
<g id="node20" class="node"><title>Node20</title>
<g id="a_node20"><a xlink:href="../../de/d33/classparser_1_1_test_parser.html#a2211bce31efddb4c523112a488c02e92" target="_top" xlink:title="parser.TestParser.TestSum">
<polygon fill="white" stroke="black" points="959,-684.5 959,-703.5 1101,-703.5 1101,-684.5 959,-684.5"/>
<text text-anchor="middle" x="1030" y="-691.5" font-family="Helvetica,sans-Serif" font-size="10.00">parser.TestParser.TestSum</text>
</a>
</g>
</g>
<!-- Node6&#45;&gt;Node20 -->
<g id="edge22" class="edge"><title>Node6&#45;&gt;Node20</title>
<path fill="none" stroke="midnightblue" d="M855.036,-447.668C858.618,-494.631 874.461,-613.93 944,-675 948.431,-678.891 953.485,-682.038 958.869,-684.577"/>
<polygon fill="midnightblue" stroke="midnightblue" points="858.522,-447.35 854.376,-437.6 851.537,-447.807 858.522,-447.35"/>
</g>
<!-- Node21 -->
<g id="node21" class="node"><title>Node21</title>
<g id="a_node21"><a xlink:href="../../de/d33/classparser_1_1_test_parser.html#ae799f71307e31127e497d20afdc506ec" target="_top" xlink:title="parser.TestParser.TestDif">
<polygon fill="white" stroke="black" points="964,-646.5 964,-665.5 1096,-665.5 1096,-646.5 964,-646.5"/>
<text text-anchor="middle" x="1030" y="-653.5" font-family="Helvetica,sans-Serif" font-size="10.00">parser.TestParser.TestDif</text>
</a>
</g>
</g>
<!-- Node6&#45;&gt;Node21 -->
<g id="edge23" class="edge"><title>Node6&#45;&gt;Node21</title>
<path fill="none" stroke="midnightblue" d="M856.505,-447.726C862.901,-489.496 883.816,-587.121 944,-637 949.821,-641.824 956.611,-645.489 963.769,-648.263"/>
<polygon fill="midnightblue" stroke="midnightblue" points="859.957,-447.137 855.093,-437.725 853.026,-448.116 859.957,-447.137"/>
</g>
<!-- Node22 -->
<g id="node22" class="node"><title>Node22</title>
<g id="a_node22"><a xlink:href="../../de/d33/classparser_1_1_test_parser.html#a8844bf15d0fe9e809fb466cb35b0ae20" target="_top" xlink:title="parser.TestParser.TestProd">
<polygon fill="white" stroke="black" points="959.5,-608.5 959.5,-627.5 1100.5,-627.5 1100.5,-608.5 959.5,-608.5"/>
<text text-anchor="middle" x="1030" y="-615.5" font-family="Helvetica,sans-Serif" font-size="10.00">parser.TestParser.TestProd</text>
</a>
</g>
</g>
<!-- Node6&#45;&gt;Node22 -->
<g id="edge24" class="edge"><title>Node6&#45;&gt;Node22</title>
<path fill="none" stroke="midnightblue" d="M858.453,-447.31C867.764,-483.142 892.81,-559.833 944,-599 949.044,-602.859 954.721,-605.964 960.687,-608.457"/>
<polygon fill="midnightblue" stroke="midnightblue" points="861.848,-446.46 856.056,-437.588 855.051,-448.135 861.848,-446.46"/>
</g>
<!-- Node23 -->
<g id="node23" class="node"><title>Node23</title>
<g id="a_node23"><a xlink:href="../../de/d33/classparser_1_1_test_parser.html#a9bcfbde1999d45577d42211fcd593121" target="_top" xlink:title="parser.TestParser.TestQuotient">
<polygon fill="white" stroke="black" points="949.5,-570.5 949.5,-589.5 1110.5,-589.5 1110.5,-570.5 949.5,-570.5"/>
<text text-anchor="middle" x="1030" y="-577.5" font-family="Helvetica,sans-Serif" font-size="10.00">parser.TestParser.TestQuotient</text>
</a>
</g>
</g>
<!-- Node6&#45;&gt;Node23 -->
<g id="edge25" class="edge"><title>Node6&#45;&gt;Node23</title>
<path fill="none" stroke="midnightblue" d="M861.399,-447.045C873.817,-476.372 901.722,-532.207 944,-561 949.624,-564.83 955.897,-567.901 962.418,-570.361"/>
<polygon fill="midnightblue" stroke="midnightblue" points="864.54,-445.48 857.526,-437.539 858.057,-448.12 864.54,-445.48"/>
</g>
<!-- Node24 -->
<g id="node24" class="node"><title>Node24</title>
<g id="a_node24"><a xlink:href="../../de/d33/classparser_1_1_test_parser.html#acd110a622f9ac5ef4b4246ea997ec102" target="_top" xlink:title="parser.TestParser.TestRemainder">
<polygon fill="white" stroke="black" points="945,-532.5 945,-551.5 1115,-551.5 1115,-532.5 945,-532.5"/>
<text text-anchor="middle" x="1030" y="-539.5" font-family="Helvetica,sans-Serif" font-size="10.00">parser.TestParser.TestRemainder</text>
</a>
</g>
</g>
<!-- Node6&#45;&gt;Node24 -->
<g id="edge26" class="edge"><title>Node6&#45;&gt;Node24</title>
<path fill="none" stroke="midnightblue" d="M865.867,-445.933C881.238,-467.669 910.113,-503.77 944,-523 950.839,-526.881 958.406,-529.969 966.124,-532.426"/>
<polygon fill="midnightblue" stroke="midnightblue" points="868.68,-443.846 860.132,-437.588 862.912,-447.811 868.68,-443.846"/>
</g>
<!-- Node25 -->
<g id="node25" class="node"><title>Node25</title>
<g id="a_node25"><a xlink:href="../../de/d33/classparser_1_1_test_parser.html#af2b64ced840e8e10f33f74dce480218a" target="_top" xlink:title="parser.TestParser.TestMinus">
<polygon fill="white" stroke="black" points="956.5,-494.5 956.5,-513.5 1103.5,-513.5 1103.5,-494.5 956.5,-494.5"/>
<text text-anchor="middle" x="1030" y="-501.5" font-family="Helvetica,sans-Serif" font-size="10.00">parser.TestParser.TestMinus</text>
</a>
</g>
</g>
<!-- Node6&#45;&gt;Node25 -->
<g id="edge27" class="edge"><title>Node6&#45;&gt;Node25</title>
<path fill="none" stroke="midnightblue" d="M874.371,-443.802C891.916,-456.678 918.386,-474.404 944,-485 953.222,-488.815 963.339,-491.926 973.276,-494.442"/>
<polygon fill="midnightblue" stroke="midnightblue" points="876.163,-440.771 866.062,-437.575 871.965,-446.373 876.163,-440.771"/>
</g>
<!-- Node26 -->
<g id="node26" class="node"><title>Node26</title>
<g id="a_node26"><a xlink:href="../../de/d33/classparser_1_1_test_parser.html#ac13478be4d51a5b8db30db117f6098c8" target="_top" xlink:title="parser.TestParser.TestRandom">
<polygon fill="white" stroke="black" points="950.5,-456.5 950.5,-475.5 1109.5,-475.5 1109.5,-456.5 950.5,-456.5"/>
<text text-anchor="middle" x="1030" y="-463.5" font-family="Helvetica,sans-Serif" font-size="10.00">parser.TestParser.TestRandom</text>
</a>
</g>
</g>
<!-- Node6&#45;&gt;Node26 -->
<g id="edge28" class="edge"><title>Node6&#45;&gt;Node26</title>
<path fill="none" stroke="midnightblue" d="M908.124,-439.753C932.869,-445.126 961.803,-451.409 985.158,-456.48"/>
<polygon fill="midnightblue" stroke="midnightblue" points="908.675,-436.291 898.16,-437.589 907.189,-443.131 908.675,-436.291"/>
</g>
<!-- Node27 -->
<g id="node27" class="node"><title>Node27</title>
<g id="a_node27"><a xlink:href="../../de/d33/classparser_1_1_test_parser.html#aa7724ec4a132ca195c3bd3ee1c81ad73" target="_top" xlink:title="parser.TestParser.TestTrig">
<polygon fill="white" stroke="black" points="962.5,-418.5 962.5,-437.5 1097.5,-437.5 1097.5,-418.5 962.5,-418.5"/>
<text text-anchor="middle" x="1030" y="-425.5" font-family="Helvetica,sans-Serif" font-size="10.00">parser.TestParser.TestTrig</text>
</a>
</g>
</g>
<!-- Node6&#45;&gt;Node27 -->
<g id="edge29" class="edge"><title>Node6&#45;&gt;Node27</title>
<path fill="none" stroke="midnightblue" d="M918.204,-428C932.562,-428 947.822,-428 962.279,-428"/>
<polygon fill="midnightblue" stroke="midnightblue" points="917.934,-424.5 907.934,-428 917.934,-431.5 917.934,-424.5"/>
</g>
<!-- Node28 -->
<g id="node28" class="node"><title>Node28</title>
<g id="a_node28"><a xlink:href="../../de/d33/classparser_1_1_test_parser.html#ada92f24240fae7dfec207bad127e31e7" target="_top" xlink:title="parser.TestParser.TestPow">
<polygon fill="white" stroke="black" points="961,-380.5 961,-399.5 1099,-399.5 1099,-380.5 961,-380.5"/>
<text text-anchor="middle" x="1030" y="-387.5" font-family="Helvetica,sans-Serif" font-size="10.00">parser.TestParser.TestPow</text>
</a>
</g>
</g>
<!-- Node6&#45;&gt;Node28 -->
<g id="edge30" class="edge"><title>Node6&#45;&gt;Node28</title>
<path fill="none" stroke="midnightblue" d="M908.124,-416.247C932.869,-410.874 961.803,-404.591 985.158,-399.52"/>
<polygon fill="midnightblue" stroke="midnightblue" points="907.189,-412.869 898.16,-418.411 908.675,-419.709 907.189,-412.869"/>
</g>
<!-- Node29 -->
<g id="node29" class="node"><title>Node29</title>
<g id="a_node29"><a xlink:href="../../de/d33/classparser_1_1_test_parser.html#a3f8cee68556948d08c53a574a72c8356" target="_top" xlink:title="parser.TestParser.TestBoolean">
<polygon fill="white" stroke="black" points="951,-342.5 951,-361.5 1109,-361.5 1109,-342.5 951,-342.5"/>
<text text-anchor="middle" x="1030" y="-349.5" font-family="Helvetica,sans-Serif" font-size="10.00">parser.TestParser.TestBoolean</text>
</a>
</g>
</g>
<!-- Node6&#45;&gt;Node29 -->
<g id="edge31" class="edge"><title>Node6&#45;&gt;Node29</title>
<path fill="none" stroke="midnightblue" d="M874.371,-412.198C891.916,-399.322 918.386,-381.596 944,-371 953.222,-367.185 963.339,-364.074 973.276,-361.558"/>
<polygon fill="midnightblue" stroke="midnightblue" points="871.965,-409.627 866.062,-418.425 876.163,-415.229 871.965,-409.627"/>
</g>
<!-- Node30 -->
<g id="node30" class="node"><title>Node30</title>
<g id="a_node30"><a xlink:href="../../de/d33/classparser_1_1_test_parser.html#a39be8e4aca3871ce6f29a482a52bcd71" target="_top" xlink:title="parser.TestParser.TestIf">
<polygon fill="white" stroke="black" points="967.5,-304.5 967.5,-323.5 1092.5,-323.5 1092.5,-304.5 967.5,-304.5"/>
<text text-anchor="middle" x="1030" y="-311.5" font-family="Helvetica,sans-Serif" font-size="10.00">parser.TestParser.TestIf</text>
</a>
</g>
</g>
<!-- Node6&#45;&gt;Node30 -->
<g id="edge32" class="edge"><title>Node6&#45;&gt;Node30</title>
<path fill="none" stroke="midnightblue" d="M865.867,-410.067C881.238,-388.331 910.113,-352.23 944,-333 951.233,-328.895 959.282,-325.677 967.461,-323.155"/>
<polygon fill="midnightblue" stroke="midnightblue" points="862.912,-408.189 860.132,-418.412 868.68,-412.154 862.912,-408.189"/>
</g>
<!-- Node31 -->
<g id="node31" class="node"><title>Node31</title>
<g id="a_node31"><a xlink:href="../../de/d33/classparser_1_1_test_parser.html#ac22ad278ed612557e83ed90884fedff4" target="_top" xlink:title="parser.TestParser.TestIfElse">
<polygon fill="white" stroke="black" points="958,-266.5 958,-285.5 1102,-285.5 1102,-266.5 958,-266.5"/>
<text text-anchor="middle" x="1030" y="-273.5" font-family="Helvetica,sans-Serif" font-size="10.00">parser.TestParser.TestIfElse</text>
</a>
</g>
</g>
<!-- Node6&#45;&gt;Node31 -->
<g id="edge33" class="edge"><title>Node6&#45;&gt;Node31</title>
<path fill="none" stroke="midnightblue" d="M861.399,-408.955C873.817,-379.628 901.722,-323.793 944,-295 949.624,-291.17 955.897,-288.099 962.418,-285.639"/>
<polygon fill="midnightblue" stroke="midnightblue" points="858.057,-407.88 857.526,-418.461 864.54,-410.52 858.057,-407.88"/>
</g>
<!-- Node32 -->
<g id="node32" class="node"><title>Node32</title>
<g id="a_node32"><a xlink:href="../../de/d33/classparser_1_1_test_parser.html#aac27b9d8c48ae78dd9252dd65be9aeea" target="_top" xlink:title="parser.TestParser.TestSum2">
<polygon fill="white" stroke="black" points="956,-228.5 956,-247.5 1104,-247.5 1104,-228.5 956,-228.5"/>
<text text-anchor="middle" x="1030" y="-235.5" font-family="Helvetica,sans-Serif" font-size="10.00">parser.TestParser.TestSum2</text>
</a>
</g>
</g>
<!-- Node6&#45;&gt;Node32 -->
<g id="edge34" class="edge"><title>Node6&#45;&gt;Node32</title>
<path fill="none" stroke="midnightblue" d="M858.453,-408.69C867.764,-372.858 892.81,-296.167 944,-257 949.044,-253.141 954.721,-250.036 960.687,-247.543"/>
<polygon fill="midnightblue" stroke="midnightblue" points="855.051,-407.865 856.056,-418.412 861.848,-409.54 855.051,-407.865"/>
</g>
<!-- Node33 -->
<g id="node33" class="node"><title>Node33</title>
<g id="a_node33"><a xlink:href="../../de/d33/classparser_1_1_test_parser.html#a616e3d3359a2feaf24149915c6aea8c8" target="_top" xlink:title="parser.TestParser.TestForward">
<polygon fill="white" stroke="black" points="951.5,-190.5 951.5,-209.5 1108.5,-209.5 1108.5,-190.5 951.5,-190.5"/>
<text text-anchor="middle" x="1030" y="-197.5" font-family="Helvetica,sans-Serif" font-size="10.00">parser.TestParser.TestForward</text>
</a>
</g>
</g>
<!-- Node6&#45;&gt;Node33 -->
<g id="edge35" class="edge"><title>Node6&#45;&gt;Node33</title>
<path fill="none" stroke="midnightblue" d="M856.505,-408.274C862.901,-366.504 883.816,-268.879 944,-219 948.657,-215.14 953.934,-212.023 959.523,-209.51"/>
<polygon fill="midnightblue" stroke="midnightblue" points="853.026,-407.884 855.093,-418.275 859.957,-408.863 853.026,-407.884"/>
</g>
<!-- Node34 -->
<g id="node34" class="node"><title>Node34</title>
<g id="a_node34"><a xlink:href="../../de/d33/classparser_1_1_test_parser.html#a914384055dd7ca9ea5c617ab0bb5e0c0" target="_top" xlink:title="parser.TestParser.TestMake">
<polygon fill="white" stroke="black" points="957.5,-152.5 957.5,-171.5 1102.5,-171.5 1102.5,-152.5 957.5,-152.5"/>
<text text-anchor="middle" x="1030" y="-159.5" font-family="Helvetica,sans-Serif" font-size="10.00">parser.TestParser.TestMake</text>
</a>
</g>
</g>
<!-- Node6&#45;&gt;Node34 -->
<g id="edge36" class="edge"><title>Node6&#45;&gt;Node34</title>
<path fill="none" stroke="midnightblue" d="M855.036,-408.332C858.618,-361.369 874.461,-242.07 944,-181 948.317,-177.208 953.226,-174.124 958.455,-171.62"/>
<polygon fill="midnightblue" stroke="midnightblue" points="851.537,-408.193 854.376,-418.4 858.522,-408.65 851.537,-408.193"/>
</g>
<!-- Node35 -->
<g id="node35" class="node"><title>Node35</title>
<g id="a_node35"><a xlink:href="../../de/d33/classparser_1_1_test_parser.html#a7861269b842fcf079433cbe0a933e8db" target="_top" xlink:title="parser.TestParser.TestRepeat">
<polygon fill="white" stroke="black" points="954,-114.5 954,-133.5 1106,-133.5 1106,-114.5 954,-114.5"/>
<text text-anchor="middle" x="1030" y="-121.5" font-family="Helvetica,sans-Serif" font-size="10.00">parser.TestParser.TestRepeat</text>
</a>
</g>
</g>
<!-- Node6&#45;&gt;Node35 -->
<g id="edge37" class="edge"><title>Node6&#45;&gt;Node35</title>
<path fill="none" stroke="midnightblue" d="M853.94,-408.197C854.919,-356.305 865.091,-215.401 944,-143 948.122,-139.218 952.829,-136.132 957.864,-133.62"/>
<polygon fill="midnightblue" stroke="midnightblue" points="850.438,-408.344 853.849,-418.375 857.438,-408.406 850.438,-408.344"/>
</g>
<!-- Node36 -->
<g id="node36" class="node"><title>Node36</title>
<g id="a_node36"><a xlink:href="../../de/d33/classparser_1_1_test_parser.html#ad6cc42523d881f5a69c5cf307364ce38" target="_top" xlink:title="parser.TestParser.TestFor">
<polygon fill="white" stroke="black" points="963,-76.5 963,-95.5 1097,-95.5 1097,-76.5 963,-76.5"/>
<text text-anchor="middle" x="1030" y="-83.5" font-family="Helvetica,sans-Serif" font-size="10.00">parser.TestParser.TestFor</text>
</a>
</g>
</g>
<!-- Node6&#45;&gt;Node36 -->
<g id="edge38" class="edge"><title>Node6&#45;&gt;Node36</title>
<path fill="none" stroke="midnightblue" d="M856.806,-408.36C866.244,-345.045 898.8,-147.916 944,-105 949.373,-99.8983 955.804,-96.0535 962.69,-93.1714"/>
<polygon fill="midnightblue" stroke="midnightblue" points="853.343,-407.854 855.359,-418.256 860.269,-408.868 853.343,-407.854"/>
</g>
<!-- Node37 -->
<g id="node37" class="node"><title>Node37</title>
<g id="a_node37"><a xlink:href="../../de/d33/classparser_1_1_test_parser.html#a93efc93146678909fa1c24a6727460ae" target="_top" xlink:title="parser.TestParser.TestTo">
<polygon fill="white" stroke="black" points="965.5,-38.5 965.5,-57.5 1094.5,-57.5 1094.5,-38.5 965.5,-38.5"/>
<text text-anchor="middle" x="1030" y="-45.5" font-family="Helvetica,sans-Serif" font-size="10.00">parser.TestParser.TestTo</text>
</a>
</g>
</g>
<!-- Node6&#45;&gt;Node37 -->
<g id="edge39" class="edge"><title>Node6&#45;&gt;Node37</title>
<path fill="none" stroke="midnightblue" d="M856.248,-407.886C864.325,-339.235 894.073,-115.722 944,-67 949.952,-61.1915 957.27,-57.0018 965.092,-54.0035"/>
<polygon fill="midnightblue" stroke="midnightblue" points="852.729,-407.848 855.064,-418.182 859.684,-408.647 852.729,-407.848"/>
</g>
<!-- Node38 -->
<g id="node38" class="node"><title>Node38</title>
<g id="a_node38"><a xlink:href="../../de/d33/classparser_1_1_test_parser.html#a3ab06721c75424d63da6d4380ae7ad5e" target="_top" xlink:title="parser.TestParser.TestRecursion">
<polygon fill="white" stroke="black" points="947.5,-0.5 947.5,-19.5 1112.5,-19.5 1112.5,-0.5 947.5,-0.5"/>
<text text-anchor="middle" x="1030" y="-7.5" font-family="Helvetica,sans-Serif" font-size="10.00">parser.TestParser.TestRecursion</text>
</a>
</g>
</g>
<!-- Node6&#45;&gt;Node38 -->
<g id="edge40" class="edge"><title>Node6&#45;&gt;Node38</title>
<path fill="none" stroke="midnightblue" d="M855.71,-408.172C862.393,-335.309 889.135,-83.7589 944,-29 947.746,-25.2613 952.056,-22.1898 956.707,-19.6729"/>
<polygon fill="midnightblue" stroke="midnightblue" points="852.211,-408.003 854.808,-418.274 859.183,-408.625 852.211,-408.003"/>
</g>
<!-- Node8 -->
<g id="node8" class="node"><title>Node8</title>
<g id="a_node8"><a xlink:href="../../d3/d04/classmain_application_1_1_g_u_i_shell.html#af2f106fa7786f13ccc0202db53b559b9" target="_top" xlink:title="mainApplication.GUIShell.create\lOpenButton">
<polygon fill="white" stroke="black" points="1550,-942 1550,-972 1720,-972 1720,-942 1550,-942"/>
<text text-anchor="start" x="1558" y="-960" font-family="Helvetica,sans-Serif" font-size="10.00">mainApplication.GUIShell.create</text>
<text text-anchor="middle" x="1635" y="-949" font-family="Helvetica,sans-Serif" font-size="10.00">OpenButton</text>
</a>
</g>
</g>
<!-- Node7&#45;&gt;Node8 -->
<g id="edge7" class="edge"><title>Node7&#45;&gt;Node8</title>
<path fill="none" stroke="midnightblue" d="M1057.28,-885.242C1080.61,-902.723 1116.43,-926.301 1152,-937 1286.54,-977.465 1451.72,-973.487 1549.62,-965.935"/>
<polygon fill="midnightblue" stroke="midnightblue" points="1059.34,-882.412 1049.27,-879.113 1055.08,-887.97 1059.34,-882.412"/>
</g>
<!-- Node10 -->
<g id="node10" class="node"><title>Node10</title>
<g id="a_node10"><a xlink:href="../../d3/de0/classmain_application_1_1_g_u_i.html#a60b2e396c945ac173bfd82f207f42000" target="_top" xlink:title="mainApplication.GUI.initiate\lKeyPress">
<polygon fill="white" stroke="black" points="1162.5,-898 1162.5,-928 1311.5,-928 1311.5,-898 1162.5,-898"/>
<text text-anchor="start" x="1170.5" y="-916" font-family="Helvetica,sans-Serif" font-size="10.00">mainApplication.GUI.initiate</text>
<text text-anchor="middle" x="1237" y="-905" font-family="Helvetica,sans-Serif" font-size="10.00">KeyPress</text>
</a>
</g>
</g>
<!-- Node7&#45;&gt;Node10 -->
<g id="edge9" class="edge"><title>Node7&#45;&gt;Node10</title>
<path fill="none" stroke="midnightblue" d="M1103.81,-881.404C1126.49,-886.824 1151.29,-892.752 1173.22,-897.994"/>
<polygon fill="midnightblue" stroke="midnightblue" points="1104.44,-877.955 1093.9,-879.035 1102.81,-884.764 1104.44,-877.955"/>
</g>
<!-- Node13 -->
<g id="node13" class="node"><title>Node13</title>
<g id="a_node13"><a xlink:href="../../dd/dca/classfeatures_1_1_pen_width_slider_feature.html#aac6e7c0d0c6f5e1afde3d8a3c8e788e6" target="_top" xlink:title="features.PenWidthSliderFeature.\lPenWidthSliderFeature">
<polygon fill="white" stroke="black" points="1152,-849 1152,-879 1322,-879 1322,-849 1152,-849"/>
<text text-anchor="start" x="1160" y="-867" font-family="Helvetica,sans-Serif" font-size="10.00">features.PenWidthSliderFeature.</text>
<text text-anchor="middle" x="1237" y="-856" font-family="Helvetica,sans-Serif" font-size="10.00">PenWidthSliderFeature</text>
</a>
</g>
</g>
<!-- Node7&#45;&gt;Node13 -->
<g id="edge15" class="edge"><title>Node7&#45;&gt;Node13</title>
<path fill="none" stroke="midnightblue" d="M1126.43,-864C1134.89,-864 1143.41,-864 1151.77,-864"/>
<polygon fill="midnightblue" stroke="midnightblue" points="1126.16,-860.5 1116.16,-864 1126.16,-867.5 1126.16,-860.5"/>
</g>
<!-- Node14 -->
<g id="node14" class="node"><title>Node14</title>
<g id="a_node14"><a xlink:href="../../de/d10/classfeatures_1_1_run_button_feature.html#ada33a09e0a0259486754b597f2d7b0c7" target="_top" xlink:title="features.RunButtonFeature.\lRunButtonFeature">
<polygon fill="white" stroke="black" points="1163,-800 1163,-830 1311,-830 1311,-800 1163,-800"/>
<text text-anchor="start" x="1171" y="-818" font-family="Helvetica,sans-Serif" font-size="10.00">features.RunButtonFeature.</text>
<text text-anchor="middle" x="1237" y="-807" font-family="Helvetica,sans-Serif" font-size="10.00">RunButtonFeature</text>
</a>
</g>
</g>
<!-- Node7&#45;&gt;Node14 -->
<g id="edge16" class="edge"><title>Node7&#45;&gt;Node14</title>
<path fill="none" stroke="midnightblue" d="M1103.81,-846.596C1126.49,-841.176 1151.29,-835.248 1173.22,-830.006"/>
<polygon fill="midnightblue" stroke="midnightblue" points="1102.81,-843.236 1093.9,-848.965 1104.44,-850.045 1102.81,-843.236"/>
</g>
<!-- Node15 -->
<g id="node15" class="node"><title>Node15</title>
<g id="a_node15"><a xlink:href="../../d4/d3f/classcomponents_1_1_vars_tab.html#aa51dee8d24322ee37e4399858794ee8b" target="_top" xlink:title="components.VarsTab.setTab\lEditable">
<polygon fill="white" stroke="black" points="1162,-751 1162,-781 1312,-781 1312,-751 1162,-751"/>
<text text-anchor="start" x="1170" y="-769" font-family="Helvetica,sans-Serif" font-size="10.00">components.VarsTab.setTab</text>
<text text-anchor="middle" x="1237" y="-758" font-family="Helvetica,sans-Serif" font-size="10.00">Editable</text>
</a>
</g>
</g>
<!-- Node7&#45;&gt;Node15 -->
<g id="edge17" class="edge"><title>Node7&#45;&gt;Node15</title>
<path fill="none" stroke="midnightblue" d="M1107,-844.547C1110.12,-842.849 1113.14,-841.004 1116,-839 1138.12,-823.484 1129.82,-805.431 1152,-790 1156.98,-786.536 1162.46,-783.568 1168.15,-781.027"/>
<polygon fill="midnightblue" stroke="midnightblue" points="1105.39,-841.435 1097.93,-848.957 1108.45,-847.73 1105.39,-841.435"/>
</g>
<!-- Node9 -->
<g id="node9" class="node"><title>Node9</title>
<g id="a_node9"><a xlink:href="../../d3/d04/classmain_application_1_1_g_u_i_shell.html#ac525a3e483dbe24e5f9f0257fe54521d" target="_top" xlink:title="mainApplication.GUIShell.\lGUIShell">
<polygon fill="white" stroke="black" points="1756,-898 1756,-928 1896,-928 1896,-898 1756,-898"/>
<text text-anchor="start" x="1764" y="-916" font-family="Helvetica,sans-Serif" font-size="10.00">mainApplication.GUIShell.</text>
<text text-anchor="middle" x="1826" y="-905" font-family="Helvetica,sans-Serif" font-size="10.00">GUIShell</text>
</a>
</g>
</g>
<!-- Node8&#45;&gt;Node9 -->
<g id="edge8" class="edge"><title>Node8&#45;&gt;Node9</title>
<path fill="none" stroke="midnightblue" d="M1710.64,-939.623C1727.11,-935.789 1744.43,-931.758 1760.46,-928.026"/>
<polygon fill="midnightblue" stroke="midnightblue" points="1709.46,-936.304 1700.51,-941.981 1711.05,-943.122 1709.46,-936.304"/>
</g>
<!-- Node11 -->
<g id="node11" class="node"><title>Node11</title>
<g id="a_node11"><a xlink:href="../../d3/de0/classmain_application_1_1_g_u_i.html#af6bd387013dbd1d1daf030117da66c0e" target="_top" xlink:title="mainApplication.GUI.initiate">
<polygon fill="white" stroke="black" points="1361.5,-903.5 1361.5,-922.5 1510.5,-922.5 1510.5,-903.5 1361.5,-903.5"/>
<text text-anchor="middle" x="1436" y="-910.5" font-family="Helvetica,sans-Serif" font-size="10.00">mainApplication.GUI.initiate</text>
</a>
</g>
</g>
<!-- Node10&#45;&gt;Node11 -->
<g id="edge10" class="edge"><title>Node10&#45;&gt;Node11</title>
<path fill="none" stroke="midnightblue" d="M1321.66,-913C1334.89,-913 1348.48,-913 1361.45,-913"/>
<polygon fill="midnightblue" stroke="midnightblue" points="1321.64,-909.5 1311.64,-913 1321.64,-916.5 1321.64,-909.5"/>
</g>
<!-- Node11&#45;&gt;Node8 -->
<g id="edge13" class="edge"><title>Node11&#45;&gt;Node8</title>
<path fill="none" stroke="midnightblue" d="M1489.57,-924.742C1513.21,-930.021 1541.38,-936.314 1566.55,-941.935"/>
<polygon fill="midnightblue" stroke="midnightblue" points="1490.27,-921.311 1479.75,-922.547 1488.74,-928.143 1490.27,-921.311"/>
</g>
<!-- Node11&#45;&gt;Node9 -->
<g id="edge14" class="edge"><title>Node11&#45;&gt;Node9</title>
<path fill="none" stroke="midnightblue" d="M1521.04,-913C1591.29,-913 1690.25,-913 1755.94,-913"/>
<polygon fill="midnightblue" stroke="midnightblue" points="1520.89,-909.5 1510.89,-913 1520.89,-916.5 1520.89,-909.5"/>
</g>
<!-- Node12 -->
<g id="node12" class="node"><title>Node12</title>
<g id="a_node12"><a xlink:href="../../d3/d04/classmain_application_1_1_g_u_i_shell.html#a9df214dfffdce7a39bc6ac5e84ca1f0f" target="_top" xlink:title="mainApplication.GUIShell.create\lNewButton">
<polygon fill="white" stroke="black" points="1550,-854 1550,-884 1720,-884 1720,-854 1550,-854"/>
<text text-anchor="start" x="1558" y="-872" font-family="Helvetica,sans-Serif" font-size="10.00">mainApplication.GUIShell.create</text>
<text text-anchor="middle" x="1635" y="-861" font-family="Helvetica,sans-Serif" font-size="10.00">NewButton</text>
</a>
</g>
</g>
<!-- Node11&#45;&gt;Node12 -->
<g id="edge11" class="edge"><title>Node11&#45;&gt;Node12</title>
<path fill="none" stroke="midnightblue" d="M1489.57,-901.258C1513.21,-895.979 1541.38,-889.686 1566.55,-884.065"/>
<polygon fill="midnightblue" stroke="midnightblue" points="1488.74,-897.857 1479.75,-903.453 1490.27,-904.689 1488.74,-897.857"/>
</g>
<!-- Node12&#45;&gt;Node9 -->
<g id="edge12" class="edge"><title>Node12&#45;&gt;Node9</title>
<path fill="none" stroke="midnightblue" d="M1710.64,-886.377C1727.11,-890.211 1744.43,-894.242 1760.46,-897.974"/>
<polygon fill="midnightblue" stroke="midnightblue" points="1711.05,-882.878 1700.51,-884.019 1709.46,-889.696 1711.05,-882.878"/>
</g>
<!-- Node16 -->
<g id="node16" class="node"><title>Node16</title>
<g id="a_node16"><a xlink:href="../../d4/d3f/classcomponents_1_1_vars_tab.html#a1e48c3f7ead529596e018a72cd6ef159" target="_top" xlink:title="components.VarsTab.VarsTab">
<polygon fill="white" stroke="black" points="1358,-756.5 1358,-775.5 1514,-775.5 1514,-756.5 1358,-756.5"/>
<text text-anchor="middle" x="1436" y="-763.5" font-family="Helvetica,sans-Serif" font-size="10.00">components.VarsTab.VarsTab</text>
</a>
</g>
</g>
<!-- Node15&#45;&gt;Node16 -->
<g id="edge18" class="edge"><title>Node15&#45;&gt;Node16</title>
<path fill="none" stroke="midnightblue" d="M1322.46,-766C1334.23,-766 1346.28,-766 1357.92,-766"/>
<polygon fill="midnightblue" stroke="midnightblue" points="1322.2,-762.5 1312.2,-766 1322.2,-769.5 1322.2,-762.5"/>
</g>
</g>
</svg>
        <g id="navigator" transform="translate(0 0)" fill="#404254">
                <rect fill="#f2f5e9" fill-opacity="0.5" stroke="#606060" stroke-width=".5" x="0" y="0" width="60" height="60"/>
                <use id="zoomplus" xlink:href="#zoomPlus" x="17" y="9" onmousedown="handleZoom(evt,'in')"/>
                <use id="zoomminus" xlink:href="#zoomMin" x="42" y="9" onmousedown="handleZoom(evt,'out')"/>
                <use id="reset" xlink:href="#resetDef" x="30" y="36" onmousedown="handleReset()"/>
                <g id="arrowUp" xlink:href="#dirArrow" transform="translate(30 24)" onmousedown="handlePan(0,-1)">
                  <use xlink:href="#rim" fill="#404040">
                        <set attributeName="fill" to="#808080" begin="arrowUp.mouseover" end="arrowUp.mouseout"/>
                  </use>
                  <path fill="none" stroke="white" stroke-width="1.5" d="M0,-3.0v7 M-2.5,-0.5L0,-3.0L2.5,-0.5"/>
                </g>
                <g id="arrowRight" xlink:href="#dirArrow" transform="rotate(90) translate(36 -43)" onmousedown="handlePan(1,0)">
                  <use xlink:href="#rim" fill="#404040">
                        <set attributeName="fill" to="#808080" begin="arrowRight.mouseover" end="arrowRight.mouseout"/>
                  </use>
                  <path fill="none" stroke="white" stroke-width="1.5" d="M0,-3.0v7 M-2.5,-0.5L0,-3.0L2.5,-0.5"/>
                </g>
                <g id="arrowDown" xlink:href="#dirArrow" transform="rotate(180) translate(-30 -48)" onmousedown="handlePan(0,1)">
                  <use xlink:href="#rim" fill="#404040">
                        <set attributeName="fill" to="#808080" begin="arrowDown.mouseover" end="arrowDown.mouseout"/>
                  </use>
                  <path fill="none" stroke="white" stroke-width="1.5" d="M0,-3.0v7 M-2.5,-0.5L0,-3.0L2.5,-0.5"/>
                </g>
                <g id="arrowLeft" xlink:href="#dirArrow" transform="rotate(270) translate(-36 17)" onmousedown="handlePan(-1,0)">
                  <use xlink:href="#rim" fill="#404040">
                        <set attributeName="fill" to="#808080" begin="arrowLeft.mouseover" end="arrowLeft.mouseout"/>
                  </use>
                  <path fill="none" stroke="white" stroke-width="1.5" d="M0,-3.0v7 M-2.5,-0.5L0,-3.0L2.5,-0.5"/>
                </g>
        </g>
        <svg viewBox="0 0 15 15" width="100%" height="30px" preserveAspectRatio="xMaxYMin meet">
         <g id="arrow_out" transform="scale(0.3 0.3)">
          <a xlink:href="classparser_1_1_node_a7dfaaf7e60998705460f304c5d56ca6f_icgraph_org.svg" target="_base">
           <rect id="button" ry="5" rx="5" y="6" x="6" height="38" width="38"
                fill="#f2f5e9" fill-opacity="0.5" stroke="#606060" stroke-width="1.0"/>
           <path id="arrow"
             d="M 11.500037,31.436501 C 11.940474,20.09759 22.043105,11.32322 32.158766,21.979434 L 37.068811,17.246167 C 37.068811,17.246167 37.088388,32 37.088388,32 L 22.160133,31.978069 C 22.160133,31.978069 26.997745,27.140456 26.997745,27.140456 C 18.528582,18.264221 13.291696,25.230495 11.500037,31.436501 z"
             style="fill:#404040;"/>
          </a>
         </g>
        </svg>
</svg>
