<?xml version="1.0" encoding="UTF-8" standalone="no"?>
<!DOCTYPE svg PUBLIC "-//W3C//DTD SVG 1.1//EN"
 "http://www.w3.org/Graphics/SVG/1.1/DTD/svg11.dtd">
<!-- Generated by graphviz version 2.36.0 (20140111.2315)
 -->
<!-- Title: parser.Node.evaluate Pages: 1 -->
<svg width="306pt" height="87pt"
 viewBox="0.00 0.00 306.00 87.00" xmlns="http://www.w3.org/2000/svg" xmlns:xlink="http://www.w3.org/1999/xlink">
<g id="graph0" class="graph" transform="scale(1 1) rotate(0) translate(4 83)">
<title>parser.Node.evaluate</title>
<polygon fill="white" stroke="none" points="-4,4 -4,-83 302,-83 302,4 -4,4"/>
<!-- Node1 -->
<g id="node1" class="node"><title>Node1</title>
<polygon fill="#bfbfbf" stroke="black" points="0.5,-29.5 0.5,-48.5 119.5,-48.5 119.5,-29.5 0.5,-29.5"/>
<text text-anchor="middle" x="60" y="-36.5" font-family="Helvetica,sans-Serif" font-size="10.00">parser.Node.evaluate</text>
</g>
<!-- Node2 -->
<g id="node2" class="node"><title>Node2</title>
<g id="a_node2"><a xlink:href="../../d8/dc3/classparser_1_1_test_model.html#ae8f0f042085f7d6a5a82b3057cb41e4f" target="_top" xlink:title="parser.TestModel.testLess\lCommand">
<polygon fill="white" stroke="black" points="157,-49 157,-79 297,-79 297,-49 157,-49"/>
<text text-anchor="start" x="165" y="-67" font-family="Helvetica,sans-Serif" font-size="10.00">parser.TestModel.testLess</text>
<text text-anchor="middle" x="227" y="-56" font-family="Helvetica,sans-Serif" font-size="10.00">Command</text>
</a>
</g>
</g>
<!-- Node1&#45;&gt;Node2 -->
<g id="edge1" class="edge"><title>Node1&#45;&gt;Node2</title>
<path fill="none" stroke="midnightblue" d="M129.658,-49.4028C138.64,-50.7636 147.846,-52.1585 156.836,-53.5206"/>
<polygon fill="midnightblue" stroke="midnightblue" points="130.049,-45.9221 119.637,-47.8845 129,-52.8431 130.049,-45.9221"/>
</g>
<!-- Node3 -->
<g id="node3" class="node"><title>Node3</title>
<g id="a_node3"><a xlink:href="../../d8/dc3/classparser_1_1_test_model.html#a8f18e9d826aa2691f30cefddb8eed34e" target="_top" xlink:title="parser.TestModel.testSum\lCommand">
<polygon fill="white" stroke="black" points="156.5,-0 156.5,-30 297.5,-30 297.5,-0 156.5,-0"/>
<text text-anchor="start" x="164.5" y="-18" font-family="Helvetica,sans-Serif" font-size="10.00">parser.TestModel.testSum</text>
<text text-anchor="middle" x="227" y="-7" font-family="Helvetica,sans-Serif" font-size="10.00">Command</text>
</a>
</g>
</g>
<!-- Node1&#45;&gt;Node3 -->
<g id="edge2" class="edge"><title>Node1&#45;&gt;Node3</title>
<path fill="none" stroke="midnightblue" d="M129.788,-28.9945C138.538,-27.7218 147.499,-26.4183 156.264,-25.1434"/>
<polygon fill="midnightblue" stroke="midnightblue" points="129.029,-25.5679 119.637,-30.4709 130.037,-32.495 129.029,-25.5679"/>
</g>
</g>
</svg>
