<?xml version="1.0" encoding="UTF-8" standalone="no"?>
<!DOCTYPE svg PUBLIC "-//W3C//DTD SVG 1.1//EN"
 "http://www.w3.org/Graphics/SVG/1.1/DTD/svg11.dtd">
<!-- Generated by graphviz version 2.36.0 (20140111.2315)
 -->
<!-- Title: components.TopPane Pages: 1 -->
<!--zoomable 312 -->
<svg id="main" version="1.1" xmlns="http://www.w3.org/2000/svg" xmlns:xlink="http://www.w3.org/1999/xlink" xml:space="preserve" onload="init(evt)">
<style type="text/css"><![CDATA[
.edge:hover path { stroke: red; }
.edge:hover polygon { stroke: red; fill: red; }
]]></style>
<script type="text/javascript"><![CDATA[
var edges = document.getElementsByTagName('g');
if (edges && edges.length) {
  for (var i=0;i<edges.length;i++) {
    if (edges[i].id.substr(0,4)=='edge') {
      edges[i].setAttribute('class','edge');
    }
  }
}
]]></script>
        <defs>
                <circle id="rim" cx="0" cy="0" r="7"/>
                <circle id="rim2" cx="0" cy="0" r="3.5"/>
                <g id="zoomPlus">
                        <use xlink:href="#rim" fill="#404040">
                                <set attributeName="fill" to="#808080" begin="zoomplus.mouseover" end="zoomplus.mouseout"/>
                        </use>
                        <path d="M-4,0h8M0,-4v8" fill="none" stroke="white" stroke-width="1.5" pointer-events="none"/>
                </g>
                <g id="zoomMin">
                        <use xlink:href="#rim" fill="#404040">
                                <set attributeName="fill" to="#808080" begin="zoomminus.mouseover" end="zoomminus.mouseout"/>
                        </use>
                        <path d="M-4,0h8" fill="none" stroke="white" stroke-width="1.5" pointer-events="none"/>
                </g>
                <g id="dirArrow">
                        <path fill="none" stroke="white" stroke-width="1.5" d="M0,-3.0v7 M-2.5,-0.5L0,-3.0L2.5,-0.5"/>
                </g>
               <g id="resetDef">
                       <use xlink:href="#rim2" fill="#404040">
                               <set attributeName="fill" to="#808080" begin="reset.mouseover" end="reset.mouseout"/>
                       </use>
               </g>
        </defs>

<script type="text/javascript">
var viewWidth = 1102;
var viewHeight = 312;
var sectionId = 'dynsection-1';
</script>
<script xlink:href="../../svgpan.js"/>
<svg id="graph" class="graph">
<g id="viewport">
<title>components.TopPane</title>
<polygon fill="white" stroke="none" points="-4,4 -4,-308 1098,-308 1098,4 -4,4"/>
<!-- Node1 -->
<g id="node1" class="node"><title>Node1</title>
<polygon fill="#bfbfbf" stroke="black" points="974.5,-139.5 974.5,-158.5 1093.5,-158.5 1093.5,-139.5 974.5,-139.5"/>
<text text-anchor="middle" x="1034" y="-146.5" font-family="Helvetica,sans-Serif" font-size="10.00">components.TopPane</text>
</g>
<!-- Node2 -->
<g id="node2" class="node"><title>Node2</title>
<polygon fill="white" stroke="#bfbfbf" points="46,-269.5 46,-288.5 106,-288.5 106,-269.5 46,-269.5"/>
<text text-anchor="middle" x="76" y="-276.5" font-family="Helvetica,sans-Serif" font-size="10.00">FlowPane</text>
</g>
<!-- Node2&#45;&gt;Node1 -->
<g id="edge1" class="edge"><title>Node2&#45;&gt;Node1</title>
<path fill="none" stroke="midnightblue" d="M116.298,-286.368C159.1,-293.743 229.663,-304 291,-304 291,-304 291,-304 809,-304 911.622,-304 1001.22,-192.629 1026.13,-158.696"/>
<polygon fill="midnightblue" stroke="midnightblue" points="116.752,-282.895 106.297,-284.61 115.54,-289.789 116.752,-282.895"/>
</g>
<!-- Node9 -->
<g id="node9" class="node"><title>Node9</title>
<g id="a_node9"><a xlink:href="../../db/d7f/classcomponents_1_1_info_pane.html" target="_top" xlink:title="components.InfoPane">
<polygon fill="white" stroke="black" points="232,-104.5 232,-123.5 352,-123.5 352,-104.5 232,-104.5"/>
<text text-anchor="middle" x="292" y="-111.5" font-family="Helvetica,sans-Serif" font-size="10.00">components.InfoPane</text>
</a>
</g>
</g>
<!-- Node2&#45;&gt;Node9 -->
<g id="edge9" class="edge"><title>Node2&#45;&gt;Node9</title>
<path fill="none" stroke="midnightblue" d="M116.348,-279.57C147.411,-277.777 189.472,-269.97 214,-243 247.331,-206.351 199.682,-170.545 232,-133 235.3,-129.167 239.376,-126.101 243.834,-123.649"/>
<polygon fill="midnightblue" stroke="midnightblue" points="116.131,-276.076 106.277,-279.967 116.407,-283.07 116.131,-276.076"/>
</g>
<!-- Node3 -->
<g id="node3" class="node"><title>Node3</title>
<g id="a_node3"><a xlink:href="../../d2/dfc/interfacefeatures_1_1_feature.html" target="_top" xlink:title="features.Feature">
<polygon fill="white" stroke="black" points="28.5,-47.5 28.5,-66.5 123.5,-66.5 123.5,-47.5 28.5,-47.5"/>
<text text-anchor="middle" x="76" y="-54.5" font-family="Helvetica,sans-Serif" font-size="10.00">features.Feature</text>
</a>
</g>
</g>
<!-- Node3&#45;&gt;Node1 -->
<g id="edge2" class="edge"><title>Node3&#45;&gt;Node1</title>
<path fill="none" stroke="midnightblue" d="M107.461,-43.5107C148.363,-26.656 223.691,-0 291,-0 291,-0 291,-0 809,-0 909.886,-0 999.996,-106.075 1025.69,-139.224"/>
<polygon fill="midnightblue" stroke="midnightblue" points="105.931,-40.3571 98.0696,-47.4595 108.644,-46.8099 105.931,-40.3571"/>
</g>
<!-- Node8 -->
<g id="node8" class="node"><title>Node8</title>
<g id="a_node8"><a xlink:href="../../d5/d01/classcomponents_1_1_right_pane.html" target="_top" xlink:title="components.RightPane">
<polygon fill="white" stroke="black" points="480.5,-28.5 480.5,-47.5 607.5,-47.5 607.5,-28.5 480.5,-28.5"/>
<text text-anchor="middle" x="544" y="-35.5" font-family="Helvetica,sans-Serif" font-size="10.00">components.RightPane</text>
</a>
</g>
</g>
<!-- Node3&#45;&gt;Node8 -->
<g id="edge12" class="edge"><title>Node3&#45;&gt;Node8</title>
<path fill="none" stroke="midnightblue" d="M133.85,-54.6821C221.577,-51.1052 389.316,-44.2661 480.401,-40.5523"/>
<polygon fill="midnightblue" stroke="midnightblue" points="133.665,-51.1866 123.815,-55.0912 133.95,-58.1808 133.665,-51.1866"/>
</g>
<!-- Node3&#45;&gt;Node9 -->
<g id="edge10" class="edge"><title>Node3&#45;&gt;Node9</title>
<path fill="none" stroke="midnightblue" d="M114.013,-69.8084C130.968,-75.4507 151.39,-81.9337 170,-87 194.091,-93.5583 221.193,-99.7168 243.632,-104.491"/>
<polygon fill="midnightblue" stroke="midnightblue" points="115.065,-66.4697 104.471,-66.6006 112.835,-73.1048 115.065,-66.4697"/>
</g>
<!-- Node16 -->
<g id="node16" class="node"><title>Node16</title>
<g id="a_node16"><a xlink:href="../../db/d9a/classcomponents_1_1_left_pane.html" target="_top" xlink:title="components.LeftPane">
<polygon fill="white" stroke="black" points="483.5,-104.5 483.5,-123.5 604.5,-123.5 604.5,-104.5 483.5,-104.5"/>
<text text-anchor="middle" x="544" y="-111.5" font-family="Helvetica,sans-Serif" font-size="10.00">components.LeftPane</text>
</a>
</g>
</g>
<!-- Node3&#45;&gt;Node16 -->
<g id="edge20" class="edge"><title>Node3&#45;&gt;Node16</title>
<path fill="none" stroke="midnightblue" d="M133.964,-63.9677C222.721,-74.8243 393.182,-95.6747 483.48,-106.72"/>
<polygon fill="midnightblue" stroke="midnightblue" points="134.166,-60.4665 123.815,-62.7264 133.317,-67.4147 134.166,-60.4665"/>
</g>
<!-- Node4 -->
<g id="node4" class="node"><title>Node4</title>
<g id="a_node4"><a xlink:href="../../d6/d14/classfeatures_1_1_settings_bar.html" target="_top" xlink:title="features.SettingsBar">
<polygon fill="white" stroke="black" points="750,-139.5 750,-158.5 866,-158.5 866,-139.5 750,-139.5"/>
<text text-anchor="middle" x="808" y="-146.5" font-family="Helvetica,sans-Serif" font-size="10.00">features.SettingsBar</text>
</a>
</g>
</g>
<!-- Node4&#45;&gt;Node1 -->
<g id="edge3" class="edge"><title>Node4&#45;&gt;Node1</title>
<path fill="none" stroke="#9a32cd" stroke-dasharray="5,2" d="M876.461,-149C907.677,-149 944.406,-149 974.439,-149"/>
<polygon fill="#9a32cd" stroke="#9a32cd" points="876.104,-145.5 866.104,-149 876.104,-152.5 876.104,-145.5"/>
<text text-anchor="middle" x="920" y="-163" font-family="Helvetica,sans-Serif" font-size="10.00"> myPenBar</text>
<text text-anchor="middle" x="920" y="-152" font-family="Helvetica,sans-Serif" font-size="10.00">mySettingsBar</text>
</g>
<!-- Node5 -->
<g id="node5" class="node"><title>Node5</title>
<polygon fill="white" stroke="#bfbfbf" points="518.5,-256.5 518.5,-275.5 569.5,-275.5 569.5,-256.5 518.5,-256.5"/>
<text text-anchor="middle" x="544" y="-263.5" font-family="Helvetica,sans-Serif" font-size="10.00">ToolBar</text>
</g>
<!-- Node5&#45;&gt;Node4 -->
<g id="edge4" class="edge"><title>Node5&#45;&gt;Node4</title>
<path fill="none" stroke="midnightblue" d="M579.954,-268.175C619.397,-269.063 684.266,-265.683 732,-239 766.62,-219.648 792.015,-177.558 802.151,-158.598"/>
<polygon fill="midnightblue" stroke="midnightblue" points="579.89,-264.671 569.78,-267.838 579.658,-271.668 579.89,-264.671"/>
</g>
<!-- Node6 -->
<g id="node6" class="node"><title>Node6</title>
<polygon fill="white" stroke="#bfbfbf" points="497.5,-218.5 497.5,-237.5 590.5,-237.5 590.5,-218.5 497.5,-218.5"/>
<text text-anchor="middle" x="544" y="-225.5" font-family="Helvetica,sans-Serif" font-size="10.00">ResourceBundle</text>
</g>
<!-- Node6&#45;&gt;Node4 -->
<g id="edge5" class="edge"><title>Node6&#45;&gt;Node4</title>
<path fill="none" stroke="#9a32cd" stroke-dasharray="5,2" d="M601.115,-227.104C639.205,-224.854 690.07,-218.586 732,-202 757.797,-191.796 783.175,-170.978 796.785,-158.689"/>
<polygon fill="#9a32cd" stroke="#9a32cd" points="600.536,-223.629 590.729,-227.637 600.895,-230.62 600.536,-223.629"/>
<text text-anchor="middle" x="679" y="-227" font-family="Helvetica,sans-Serif" font-size="10.00"> myNumberResources</text>
</g>
<!-- Node7 -->
<g id="node7" class="node"><title>Node7</title>
<polygon fill="white" stroke="#bfbfbf" points="484,-180.5 484,-199.5 604,-199.5 604,-180.5 484,-180.5"/>
<text text-anchor="middle" x="544" y="-187.5" font-family="Helvetica,sans-Serif" font-size="10.00">ComboBox&lt; String &gt;</text>
</g>
<!-- Node7&#45;&gt;Node4 -->
<g id="edge6" class="edge"><title>Node7&#45;&gt;Node4</title>
<path fill="none" stroke="#9a32cd" stroke-dasharray="5,2" d="M614.559,-179.294C649.761,-173.855 693.158,-167.119 732,-161 737.731,-160.097 743.708,-159.15 749.677,-158.201"/>
<polygon fill="#9a32cd" stroke="#9a32cd" points="613.734,-175.88 604.386,-180.865 614.803,-182.798 613.734,-175.88"/>
<text text-anchor="middle" x="679" y="-190" font-family="Helvetica,sans-Serif" font-size="10.00"> colourCB</text>
<text text-anchor="middle" x="679" y="-179" font-family="Helvetica,sans-Serif" font-size="10.00">languageCB</text>
</g>
<!-- Node8&#45;&gt;Node4 -->
<g id="edge7" class="edge"><title>Node8&#45;&gt;Node4</title>
<path fill="none" stroke="#9a32cd" stroke-dasharray="5,2" d="M617.621,-38.6245C653.807,-41.5988 697.156,-49.3492 732,-68 764.273,-85.2743 790.138,-121.861 801.192,-139.327"/>
<polygon fill="#9a32cd" stroke="#9a32cd" points="617.843,-35.1315 607.618,-37.9071 617.342,-42.1135 617.843,-35.1315"/>
<text text-anchor="middle" x="679" y="-71" font-family="Helvetica,sans-Serif" font-size="10.00"> myRightPane</text>
</g>
<!-- Node9&#45;&gt;Node8 -->
<g id="edge8" class="edge"><title>Node9&#45;&gt;Node8</title>
<path fill="none" stroke="midnightblue" d="M333.746,-101.542C371.621,-89.9714 429.612,-72.2777 480,-57 490.167,-53.9173 501.262,-50.5668 511.268,-47.5501"/>
<polygon fill="midnightblue" stroke="midnightblue" points="332.635,-98.222 324.094,-104.492 334.68,-104.916 332.635,-98.222"/>
</g>
<!-- Node9&#45;&gt;Node16 -->
<g id="edge19" class="edge"><title>Node9&#45;&gt;Node16</title>
<path fill="none" stroke="midnightblue" d="M362.703,-114C400.631,-114 447.066,-114 483.312,-114"/>
<polygon fill="midnightblue" stroke="midnightblue" points="362.247,-110.5 352.247,-114 362.246,-117.5 362.247,-110.5"/>
</g>
<!-- Node10 -->
<g id="node10" class="node"><title>Node10</title>
<polygon fill="white" stroke="#bfbfbf" points="0,-124.5 0,-143.5 152,-143.5 152,-124.5 0,-124.5"/>
<text text-anchor="middle" x="76" y="-131.5" font-family="Helvetica,sans-Serif" font-size="10.00">List&lt; components.InfoTab &gt;</text>
</g>
<!-- Node10&#45;&gt;Node9 -->
<g id="edge11" class="edge"><title>Node10&#45;&gt;Node9</title>
<path fill="none" stroke="#9a32cd" stroke-dasharray="5,2" d="M162.378,-126.021C185.667,-123.844 210.383,-121.534 231.859,-119.527"/>
<polygon fill="#9a32cd" stroke="#9a32cd" points="161.778,-122.561 152.147,-126.977 162.43,-129.531 161.778,-122.561"/>
<text text-anchor="middle" x="192" y="-128" font-family="Helvetica,sans-Serif" font-size="10.00"> myTabs</text>
</g>
<!-- Node11 -->
<g id="node11" class="node"><title>Node11</title>
<g id="a_node11"><a xlink:href="../../d4/d4a/classactor_1_1_turtle.html" target="_top" xlink:title="actor.Turtle">
<polygon fill="white" stroke="black" points="509.5,-142.5 509.5,-161.5 578.5,-161.5 578.5,-142.5 509.5,-142.5"/>
<text text-anchor="middle" x="544" y="-149.5" font-family="Helvetica,sans-Serif" font-size="10.00">actor.Turtle</text>
</a>
</g>
</g>
<!-- Node11&#45;&gt;Node4 -->
<g id="edge13" class="edge"><title>Node11&#45;&gt;Node4</title>
<path fill="none" stroke="#9a32cd" stroke-dasharray="5,2" d="M589.105,-150.758C601.075,-150.462 614.034,-150.181 626,-150 667.475,-149.373 714.301,-149.127 749.933,-149.036"/>
<polygon fill="#9a32cd" stroke="#9a32cd" points="588.797,-147.264 578.89,-151.019 588.976,-154.262 588.797,-147.264"/>
<text text-anchor="middle" x="679" y="-153" font-family="Helvetica,sans-Serif" font-size="10.00"> myTurtle</text>
</g>
<!-- Node12 -->
<g id="node12" class="node"><title>Node12</title>
<polygon fill="white" stroke="#bfbfbf" points="256.5,-142.5 256.5,-161.5 327.5,-161.5 327.5,-142.5 256.5,-142.5"/>
<text text-anchor="middle" x="292" y="-149.5" font-family="Helvetica,sans-Serif" font-size="10.00">Observable</text>
</g>
<!-- Node12&#45;&gt;Node11 -->
<g id="edge14" class="edge"><title>Node12&#45;&gt;Node11</title>
<path fill="none" stroke="midnightblue" d="M337.811,-152C387.057,-152 465.038,-152 509.333,-152"/>
<polygon fill="midnightblue" stroke="midnightblue" points="337.761,-148.5 327.761,-152 337.761,-155.5 337.761,-148.5"/>
</g>
<!-- Node13 -->
<g id="node13" class="node"><title>Node13</title>
<g id="a_node13"><a xlink:href="../../da/d54/classproperties_1_1_position.html" target="_top" xlink:title="properties.Position">
<polygon fill="white" stroke="black" points="239,-218.5 239,-237.5 345,-237.5 345,-218.5 239,-218.5"/>
<text text-anchor="middle" x="292" y="-225.5" font-family="Helvetica,sans-Serif" font-size="10.00">properties.Position</text>
</a>
</g>
</g>
<!-- Node13&#45;&gt;Node11 -->
<g id="edge15" class="edge"><title>Node13&#45;&gt;Node11</title>
<path fill="none" stroke="#9a32cd" stroke-dasharray="5,2" d="M355.406,-225.835C389.079,-222.213 430.143,-213.648 462,-194 473.048,-187.186 469.285,-178.328 480,-171 488.675,-165.067 499.252,-160.944 509.243,-158.097"/>
<polygon fill="#9a32cd" stroke="#9a32cd" points="354.834,-222.373 345.212,-226.807 355.499,-229.342 354.834,-222.373"/>
<text text-anchor="middle" x="416" y="-237" font-family="Helvetica,sans-Serif" font-size="10.00"> myPosition</text>
<text text-anchor="middle" x="416" y="-226" font-family="Helvetica,sans-Serif" font-size="10.00">DEFAULT_POSITION</text>
</g>
<!-- Node14 -->
<g id="node14" class="node"><title>Node14</title>
<polygon fill="white" stroke="#bfbfbf" points="49,-218.5 49,-237.5 103,-237.5 103,-218.5 49,-218.5"/>
<text text-anchor="middle" x="76" y="-225.5" font-family="Helvetica,sans-Serif" font-size="10.00">Point2D</text>
</g>
<!-- Node14&#45;&gt;Node13 -->
<g id="edge16" class="edge"><title>Node14&#45;&gt;Node13</title>
<path fill="none" stroke="#9a32cd" stroke-dasharray="5,2" d="M113.324,-228C147.754,-228 199.845,-228 238.735,-228"/>
<polygon fill="#9a32cd" stroke="#9a32cd" points="113.241,-224.5 103.241,-228 113.241,-231.5 113.241,-224.5"/>
<text text-anchor="middle" x="192" y="-231" font-family="Helvetica,sans-Serif" font-size="10.00"> myPoint</text>
</g>
<!-- Node15 -->
<g id="node15" class="node"><title>Node15</title>
<g id="a_node15"><a xlink:href="../../da/d85/classactor_1_1_pen.html" target="_top" xlink:title="actor.Pen">
<polygon fill="white" stroke="black" points="261,-180.5 261,-199.5 323,-199.5 323,-180.5 261,-180.5"/>
<text text-anchor="middle" x="292" y="-187.5" font-family="Helvetica,sans-Serif" font-size="10.00">actor.Pen</text>
</a>
</g>
</g>
<!-- Node15&#45;&gt;Node11 -->
<g id="edge17" class="edge"><title>Node15&#45;&gt;Node11</title>
<path fill="none" stroke="#9a32cd" stroke-dasharray="5,2" d="M333.355,-184.617C367.625,-179.962 418.093,-172.91 462,-166 477.507,-163.559 494.643,-160.631 509.145,-158.085"/>
<polygon fill="#9a32cd" stroke="#9a32cd" points="332.705,-181.172 323.264,-185.981 333.643,-188.109 332.705,-181.172"/>
<text text-anchor="middle" x="416" y="-182" font-family="Helvetica,sans-Serif" font-size="10.00"> myPen</text>
</g>
<!-- Node16&#45;&gt;Node4 -->
<g id="edge18" class="edge"><title>Node16&#45;&gt;Node4</title>
<path fill="none" stroke="#9a32cd" stroke-dasharray="5,2" d="M614.741,-119.941C649.99,-123.328 693.373,-128.084 732,-134 741.975,-135.528 752.638,-137.47 762.701,-139.447"/>
<polygon fill="#9a32cd" stroke="#9a32cd" points="614.838,-116.435 604.553,-118.978 614.179,-123.404 614.838,-116.435"/>
<text text-anchor="middle" x="679" y="-137" font-family="Helvetica,sans-Serif" font-size="10.00"> myLeftPane</text>
</g>
<!-- Node17 -->
<g id="node17" class="node"><title>Node17</title>
<polygon fill="white" stroke="#bfbfbf" points="509,-66.5 509,-85.5 579,-85.5 579,-66.5 509,-66.5"/>
<text text-anchor="middle" x="544" y="-73.5" font-family="Helvetica,sans-Serif" font-size="10.00">ColorPicker</text>
</g>
<!-- Node17&#45;&gt;Node4 -->
<g id="edge21" class="edge"><title>Node17&#45;&gt;Node4</title>
<path fill="none" stroke="#9a32cd" stroke-dasharray="5,2" d="M589.384,-78.5999C627.99,-81.9145 684.962,-89.3702 732,-106 755.066,-114.155 779.164,-129.358 793.63,-139.327"/>
<polygon fill="#9a32cd" stroke="#9a32cd" points="589.253,-75.0784 579.006,-77.7707 588.695,-82.0561 589.253,-75.0784"/>
<text text-anchor="middle" x="679" y="-109" font-family="Helvetica,sans-Serif" font-size="10.00"> displayColourPicker</text>
</g>
</g>
</svg>
        <g id="navigator" transform="translate(0 0)" fill="#404254">
                <rect fill="#f2f5e9" fill-opacity="0.5" stroke="#606060" stroke-width=".5" x="0" y="0" width="60" height="60"/>
                <use id="zoomplus" xlink:href="#zoomPlus" x="17" y="9" onmousedown="handleZoom(evt,'in')"/>
                <use id="zoomminus" xlink:href="#zoomMin" x="42" y="9" onmousedown="handleZoom(evt,'out')"/>
                <use id="reset" xlink:href="#resetDef" x="30" y="36" onmousedown="handleReset()"/>
                <g id="arrowUp" xlink:href="#dirArrow" transform="translate(30 24)" onmousedown="handlePan(0,-1)">
                  <use xlink:href="#rim" fill="#404040">
                        <set attributeName="fill" to="#808080" begin="arrowUp.mouseover" end="arrowUp.mouseout"/>
                  </use>
                  <path fill="none" stroke="white" stroke-width="1.5" d="M0,-3.0v7 M-2.5,-0.5L0,-3.0L2.5,-0.5"/>
                </g>
                <g id="arrowRight" xlink:href="#dirArrow" transform="rotate(90) translate(36 -43)" onmousedown="handlePan(1,0)">
                  <use xlink:href="#rim" fill="#404040">
                        <set attributeName="fill" to="#808080" begin="arrowRight.mouseover" end="arrowRight.mouseout"/>
                  </use>
                  <path fill="none" stroke="white" stroke-width="1.5" d="M0,-3.0v7 M-2.5,-0.5L0,-3.0L2.5,-0.5"/>
                </g>
                <g id="arrowDown" xlink:href="#dirArrow" transform="rotate(180) translate(-30 -48)" onmousedown="handlePan(0,1)">
                  <use xlink:href="#rim" fill="#404040">
                        <set attributeName="fill" to="#808080" begin="arrowDown.mouseover" end="arrowDown.mouseout"/>
                  </use>
                  <path fill="none" stroke="white" stroke-width="1.5" d="M0,-3.0v7 M-2.5,-0.5L0,-3.0L2.5,-0.5"/>
                </g>
                <g id="arrowLeft" xlink:href="#dirArrow" transform="rotate(270) translate(-36 17)" onmousedown="handlePan(-1,0)">
                  <use xlink:href="#rim" fill="#404040">
                        <set attributeName="fill" to="#808080" begin="arrowLeft.mouseover" end="arrowLeft.mouseout"/>
                  </use>
                  <path fill="none" stroke="white" stroke-width="1.5" d="M0,-3.0v7 M-2.5,-0.5L0,-3.0L2.5,-0.5"/>
                </g>
        </g>
        <svg viewBox="0 0 15 15" width="100%" height="30px" preserveAspectRatio="xMaxYMin meet">
         <g id="arrow_out" transform="scale(0.3 0.3)">
          <a xlink:href="classcomponents_1_1_top_pane__coll__graph_org.svg" target="_base">
           <rect id="button" ry="5" rx="5" y="6" x="6" height="38" width="38"
                fill="#f2f5e9" fill-opacity="0.5" stroke="#606060" stroke-width="1.0"/>
           <path id="arrow"
             d="M 11.500037,31.436501 C 11.940474,20.09759 22.043105,11.32322 32.158766,21.979434 L 37.068811,17.246167 C 37.068811,17.246167 37.088388,32 37.088388,32 L 22.160133,31.978069 C 22.160133,31.978069 26.997745,27.140456 26.997745,27.140456 C 18.528582,18.264221 13.291696,25.230495 11.500037,31.436501 z"
             style="fill:#404040;"/>
          </a>
         </g>
        </svg>
</svg>
