<?xml version="1.0" encoding="UTF-8" standalone="no"?>
<!DOCTYPE svg PUBLIC "-//W3C//DTD SVG 1.1//EN"
 "http://www.w3.org/Graphics/SVG/1.1/DTD/svg11.dtd">
<!-- Generated by graphviz version 2.36.0 (20140111.2315)
 -->
<!-- Title: command.MoveCommand Pages: 1 -->
<svg width="324pt" height="140pt"
 viewBox="0.00 0.00 324.00 140.00" xmlns="http://www.w3.org/2000/svg" xmlns:xlink="http://www.w3.org/1999/xlink">
<g id="graph0" class="graph" transform="scale(1 1) rotate(0) translate(4 136)">
<title>command.MoveCommand</title>
<polygon fill="white" stroke="none" points="-4,4 -4,-136 320,-136 320,4 -4,4"/>
<!-- Node1 -->
<g id="node1" class="node"><title>Node1</title>
<polygon fill="#bfbfbf" stroke="black" points="82,-56.5 82,-75.5 226,-75.5 226,-56.5 82,-56.5"/>
<text text-anchor="middle" x="154" y="-63.5" font-family="Helvetica,sans-Serif" font-size="10.00">command.MoveCommand</text>
</g>
<!-- Node4 -->
<g id="node4" class="node"><title>Node4</title>
<g id="a_node4"><a xlink:href="../../d7/d49/classcommand_1_1_back_command.html" target="_top" xlink:title="command.BackCommand">
<polygon fill="white" stroke="black" points="0,-0.5 0,-19.5 142,-19.5 142,-0.5 0,-0.5"/>
<text text-anchor="middle" x="71" y="-7.5" font-family="Helvetica,sans-Serif" font-size="10.00">command.BackCommand</text>
</a>
</g>
</g>
<!-- Node1&#45;&gt;Node4 -->
<g id="edge3" class="edge"><title>Node1&#45;&gt;Node4</title>
<path fill="none" stroke="midnightblue" d="M131.901,-50.6221C116.738,-40.7574 97.1172,-27.9919 84.3023,-19.6545"/>
<polygon fill="midnightblue" stroke="midnightblue" points="130.374,-53.8042 140.665,-56.324 134.191,-47.9367 130.374,-53.8042"/>
</g>
<!-- Node5 -->
<g id="node5" class="node"><title>Node5</title>
<g id="a_node5"><a xlink:href="../../df/d28/classcommand_1_1_forward_command.html" target="_top" xlink:title="command.ForwardCommand">
<polygon fill="white" stroke="black" points="160,-0.5 160,-19.5 316,-19.5 316,-0.5 160,-0.5"/>
<text text-anchor="middle" x="238" y="-7.5" font-family="Helvetica,sans-Serif" font-size="10.00">command.ForwardCommand</text>
</a>
</g>
</g>
<!-- Node1&#45;&gt;Node5 -->
<g id="edge4" class="edge"><title>Node1&#45;&gt;Node5</title>
<path fill="none" stroke="midnightblue" d="M175.932,-50.9005C191.335,-40.9986 211.446,-28.0705 224.537,-19.6545"/>
<polygon fill="midnightblue" stroke="midnightblue" points="174.015,-47.9722 167.496,-56.324 177.801,-53.8605 174.015,-47.9722"/>
</g>
<!-- Node2 -->
<g id="node2" class="node"><title>Node2</title>
<g id="a_node2"><a xlink:href="../../d7/d35/classcommand_1_1_command.html" target="_top" xlink:title="command.Command">
<polygon fill="white" stroke="black" points="18.5,-112.5 18.5,-131.5 137.5,-131.5 137.5,-112.5 18.5,-112.5"/>
<text text-anchor="middle" x="78" y="-119.5" font-family="Helvetica,sans-Serif" font-size="10.00">command.Command</text>
</a>
</g>
</g>
<!-- Node2&#45;&gt;Node1 -->
<g id="edge1" class="edge"><title>Node2&#45;&gt;Node1</title>
<path fill="none" stroke="midnightblue" d="M98.5758,-106.38C112.312,-96.6204 129.925,-84.1057 141.567,-75.8339"/>
<polygon fill="midnightblue" stroke="midnightblue" points="96.3353,-103.679 90.2107,-112.324 100.39,-109.385 96.3353,-103.679"/>
</g>
<!-- Node3 -->
<g id="node3" class="node"><title>Node3</title>
<g id="a_node3"><a xlink:href="../../d0/d0e/interfacecommand_1_1_position_interface.html" target="_top" xlink:title="command.PositionInterface">
<polygon fill="white" stroke="black" points="156,-112.5 156,-131.5 304,-131.5 304,-112.5 156,-112.5"/>
<text text-anchor="middle" x="230" y="-119.5" font-family="Helvetica,sans-Serif" font-size="10.00">command.PositionInterface</text>
</a>
</g>
</g>
<!-- Node3&#45;&gt;Node1 -->
<g id="edge2" class="edge"><title>Node3&#45;&gt;Node1</title>
<path fill="none" stroke="midnightblue" d="M209.424,-106.38C195.688,-96.6204 178.075,-84.1057 166.433,-75.8339"/>
<polygon fill="midnightblue" stroke="midnightblue" points="207.61,-109.385 217.789,-112.324 211.665,-103.679 207.61,-109.385"/>
</g>
</g>
</svg>
