<?xml version="1.0" encoding="UTF-8" standalone="no"?>
<!DOCTYPE svg PUBLIC "-//W3C//DTD SVG 1.1//EN"
 "http://www.w3.org/Graphics/SVG/1.1/DTD/svg11.dtd">
<!-- Generated by graphviz version 2.36.0 (20140111.2315)
 -->
<!-- Title: command.AskWithCommand.execute Pages: 1 -->
<svg width="856pt" height="191pt"
 viewBox="0.00 0.00 856.00 191.00" xmlns="http://www.w3.org/2000/svg" xmlns:xlink="http://www.w3.org/1999/xlink">
<g id="graph0" class="graph" transform="scale(1 1) rotate(0) translate(4 187)">
<title>command.AskWithCommand.execute</title>
<polygon fill="white" stroke="none" points="-4,4 -4,-187 852,-187 852,4 -4,4"/>
<!-- Node1 -->
<g id="node1" class="node"><title>Node1</title>
<polygon fill="#bfbfbf" stroke="black" points="0.5,-87.5 0.5,-106.5 197.5,-106.5 197.5,-87.5 0.5,-87.5"/>
<text text-anchor="middle" x="99" y="-94.5" font-family="Helvetica,sans-Serif" font-size="10.00">command.AskWithCommand.execute</text>
</g>
<!-- Node2 -->
<g id="node2" class="node"><title>Node2</title>
<g id="a_node2"><a xlink:href="../../d7/d29/classcommand_1_1_basic_list_command.html#ae4c4456d483b7dd5f6e88dfb7dace4c1" target="_top" xlink:title="command.BasicListCommand.check\lListException">
<polygon fill="white" stroke="black" points="250.5,-153 250.5,-183 441.5,-183 441.5,-153 250.5,-153"/>
<text text-anchor="start" x="258.5" y="-171" font-family="Helvetica,sans-Serif" font-size="10.00">command.BasicListCommand.check</text>
<text text-anchor="middle" x="346" y="-160" font-family="Helvetica,sans-Serif" font-size="10.00">ListException</text>
</a>
</g>
</g>
<!-- Node1&#45;&gt;Node2 -->
<g id="edge1" class="edge"><title>Node1&#45;&gt;Node2</title>
<path fill="none" stroke="midnightblue" d="M125.426,-106.658C152.186,-116.602 195.663,-132.138 234,-143 243.336,-145.645 253.177,-148.196 262.984,-150.591"/>
<polygon fill="midnightblue" stroke="midnightblue" points="262.221,-154.007 272.761,-152.932 263.851,-147.199 262.221,-154.007"/>
</g>
<!-- Node4 -->
<g id="node4" class="node"><title>Node4</title>
<g id="a_node4"><a xlink:href="../../d7/d29/classcommand_1_1_basic_list_command.html#a36b32271a84890af875a576eaf608aa3" target="_top" xlink:title="command.BasicListCommand.get\lBracketIndex">
<polygon fill="white" stroke="black" points="256.5,-104 256.5,-134 435.5,-134 435.5,-104 256.5,-104"/>
<text text-anchor="start" x="264.5" y="-122" font-family="Helvetica,sans-Serif" font-size="10.00">command.BasicListCommand.get</text>
<text text-anchor="middle" x="346" y="-111" font-family="Helvetica,sans-Serif" font-size="10.00">BracketIndex</text>
</a>
</g>
</g>
<!-- Node1&#45;&gt;Node4 -->
<g id="edge3" class="edge"><title>Node1&#45;&gt;Node4</title>
<path fill="none" stroke="midnightblue" d="M197.534,-105.758C213.407,-107.183 229.863,-108.661 245.776,-110.09"/>
<polygon fill="midnightblue" stroke="midnightblue" points="245.869,-113.612 256.142,-111.021 246.495,-106.64 245.869,-113.612"/>
</g>
<!-- Node5 -->
<g id="node5" class="node"><title>Node5</title>
<g id="a_node5"><a xlink:href="../../db/d0a/classcommand_1_1_base_multi_turtle_command.html#a5ead6ff46b47c61f1541763f63db0dd8" target="_top" xlink:title="command.BaseMultiTurtleCommand.getIds">
<polygon fill="white" stroke="black" points="234.5,-65.5 234.5,-84.5 457.5,-84.5 457.5,-65.5 234.5,-65.5"/>
<text text-anchor="middle" x="346" y="-72.5" font-family="Helvetica,sans-Serif" font-size="10.00">command.BaseMultiTurtleCommand.getIds</text>
</a>
</g>
</g>
<!-- Node1&#45;&gt;Node5 -->
<g id="edge4" class="edge"><title>Node1&#45;&gt;Node5</title>
<path fill="none" stroke="midnightblue" d="M197.534,-88.2418C207.849,-87.3156 218.41,-86.3672 228.909,-85.4245"/>
<polygon fill="midnightblue" stroke="midnightblue" points="229.298,-88.9037 238.945,-84.5233 228.672,-81.9318 229.298,-88.9037"/>
</g>
<!-- Node6 -->
<g id="node6" class="node"><title>Node6</title>
<g id="a_node6"><a xlink:href="../../db/d0a/classcommand_1_1_base_multi_turtle_command.html#a18475dfa4cad362fd566082a1cba7f59" target="_top" xlink:title="command.BaseMultiTurtleCommand.tell">
<polygon fill="white" stroke="black" points="242,-27.5 242,-46.5 450,-46.5 450,-27.5 242,-27.5"/>
<text text-anchor="middle" x="346" y="-34.5" font-family="Helvetica,sans-Serif" font-size="10.00">command.BaseMultiTurtleCommand.tell</text>
</a>
</g>
</g>
<!-- Node1&#45;&gt;Node6 -->
<g id="edge5" class="edge"><title>Node1&#45;&gt;Node6</title>
<path fill="none" stroke="midnightblue" d="M127.435,-87.4808C154.324,-78.4195 196.602,-64.8839 234,-56 245.932,-53.1655 258.682,-50.5792 271.132,-48.2898"/>
<polygon fill="midnightblue" stroke="midnightblue" points="271.804,-51.7252 281.031,-46.5183 270.57,-44.8347 271.804,-51.7252"/>
</g>
<!-- Node3 -->
<g id="node3" class="node"><title>Node3</title>
<g id="a_node3"><a xlink:href="../../d7/d35/classcommand_1_1_command.html#ac2df873d4926bc6e08dba8c6272cff7e" target="_top" xlink:title="command.Command.toString">
<polygon fill="white" stroke="black" points="499,-158.5 499,-177.5 659,-177.5 659,-158.5 499,-158.5"/>
<text text-anchor="middle" x="579" y="-165.5" font-family="Helvetica,sans-Serif" font-size="10.00">command.Command.toString</text>
</a>
</g>
</g>
<!-- Node2&#45;&gt;Node3 -->
<g id="edge2" class="edge"><title>Node2&#45;&gt;Node3</title>
<path fill="none" stroke="midnightblue" d="M441.623,-168C457.261,-168 473.427,-168 488.923,-168"/>
<polygon fill="midnightblue" stroke="midnightblue" points="488.996,-171.5 498.996,-168 488.996,-164.5 488.996,-171.5"/>
</g>
<!-- Node7 -->
<g id="node7" class="node"><title>Node7</title>
<g id="a_node7"><a xlink:href="../../de/d19/classworkspace_1_1_workspace.html#aaea1cb2eb261be3e966bb85bc2bfbd51" target="_top" xlink:title="workspace.Workspace.getTurtles">
<polygon fill="white" stroke="black" points="494,-49.5 494,-68.5 664,-68.5 664,-49.5 494,-49.5"/>
<text text-anchor="middle" x="579" y="-56.5" font-family="Helvetica,sans-Serif" font-size="10.00">workspace.Workspace.getTurtles</text>
</a>
</g>
</g>
<!-- Node6&#45;&gt;Node7 -->
<g id="edge6" class="edge"><title>Node6&#45;&gt;Node7</title>
<path fill="none" stroke="midnightblue" d="M446.976,-46.5216C459.17,-47.6828 471.598,-48.8665 483.705,-50.0195"/>
<polygon fill="midnightblue" stroke="midnightblue" points="483.5,-53.5157 493.787,-50.9797 484.164,-46.5473 483.5,-53.5157"/>
</g>
<!-- Node8 -->
<g id="node8" class="node"><title>Node8</title>
<g id="a_node8"><a xlink:href="../../de/d19/classworkspace_1_1_workspace.html#aecaf73d3c2b2008aac032adc4a4f759f" target="_top" xlink:title="workspace.Workspace.create\lTurtle">
<polygon fill="white" stroke="black" points="501.5,-0 501.5,-30 656.5,-30 656.5,-0 501.5,-0"/>
<text text-anchor="start" x="509.5" y="-18" font-family="Helvetica,sans-Serif" font-size="10.00">workspace.Workspace.create</text>
<text text-anchor="middle" x="579" y="-7" font-family="Helvetica,sans-Serif" font-size="10.00">Turtle</text>
</a>
</g>
</g>
<!-- Node6&#45;&gt;Node8 -->
<g id="edge7" class="edge"><title>Node6&#45;&gt;Node8</title>
<path fill="none" stroke="midnightblue" d="M446.976,-27.4784C461.596,-26.0861 476.554,-24.6615 490.89,-23.2962"/>
<polygon fill="midnightblue" stroke="midnightblue" points="491.581,-26.7463 501.204,-22.3139 490.918,-19.7778 491.581,-26.7463"/>
</g>
<!-- Node9 -->
<g id="node9" class="node"><title>Node9</title>
<g id="a_node9"><a xlink:href="../../d4/d4a/classactor_1_1_turtle.html#aef4e04d5061408a3d5c35eb27cc7f96f" target="_top" xlink:title="actor.Turtle.setChangedand\lNotify">
<polygon fill="white" stroke="black" points="700,-0 700,-30 848,-30 848,-0 700,-0"/>
<text text-anchor="start" x="708" y="-18" font-family="Helvetica,sans-Serif" font-size="10.00">actor.Turtle.setChangedand</text>
<text text-anchor="middle" x="774" y="-7" font-family="Helvetica,sans-Serif" font-size="10.00">Notify</text>
</a>
</g>
</g>
<!-- Node8&#45;&gt;Node9 -->
<g id="edge8" class="edge"><title>Node8&#45;&gt;Node9</title>
<path fill="none" stroke="midnightblue" d="M656.556,-15C667.514,-15 678.832,-15 689.908,-15"/>
<polygon fill="midnightblue" stroke="midnightblue" points="689.996,-18.5001 699.996,-15 689.996,-11.5001 689.996,-18.5001"/>
</g>
</g>
</svg>
