<?xml version="1.0" encoding="UTF-8" standalone="no"?>
<!DOCTYPE svg PUBLIC "-//W3C//DTD SVG 1.1//EN"
 "http://www.w3.org/Graphics/SVG/1.1/DTD/svg11.dtd">
<!-- Generated by graphviz version 2.36.0 (20140111.2315)
 -->
<!-- Title: command.BaseMakeVariableCommand.makeVariable Pages: 1 -->
<svg width="402pt" height="142pt"
 viewBox="0.00 0.00 402.00 142.00" xmlns="http://www.w3.org/2000/svg" xmlns:xlink="http://www.w3.org/1999/xlink">
<g id="graph0" class="graph" transform="scale(1 1) rotate(0) translate(4 138)">
<title>command.BaseMakeVariableCommand.makeVariable</title>
<polygon fill="white" stroke="none" points="-4,4 -4,-138 398,-138 398,4 -4,4"/>
<!-- Node1 -->
<g id="node1" class="node"><title>Node1</title>
<polygon fill="#bfbfbf" stroke="black" points="0,-52 0,-82 156,-82 156,-52 0,-52"/>
<text text-anchor="start" x="8" y="-70" font-family="Helvetica,sans-Serif" font-size="10.00">command.BaseMakeVariable</text>
<text text-anchor="middle" x="78" y="-59" font-family="Helvetica,sans-Serif" font-size="10.00">Command.makeVariable</text>
</g>
<!-- Node2 -->
<g id="node2" class="node"><title>Node2</title>
<g id="a_node2"><a xlink:href="../../d4/d11/classcommand_1_1_repeat_command.html#a034c19694b9804a38754600aca37172f" target="_top" xlink:title="command.RepeatCommand.execute">
<polygon fill="white" stroke="black" points="196.5,-114.5 196.5,-133.5 389.5,-133.5 389.5,-114.5 196.5,-114.5"/>
<text text-anchor="middle" x="293" y="-121.5" font-family="Helvetica,sans-Serif" font-size="10.00">command.RepeatCommand.execute</text>
</a>
</g>
</g>
<!-- Node1&#45;&gt;Node2 -->
<g id="edge1" class="edge"><title>Node1&#45;&gt;Node2</title>
<path fill="none" stroke="midnightblue" d="M128.975,-85.4434C148.463,-92.2024 171.103,-99.5285 192,-105 205.676,-108.581 220.571,-111.779 234.586,-114.484"/>
<polygon fill="midnightblue" stroke="midnightblue" points="129.986,-82.0888 119.391,-82.0778 127.667,-88.6934 129.986,-82.0888"/>
</g>
<!-- Node3 -->
<g id="node3" class="node"><title>Node3</title>
<g id="a_node3"><a xlink:href="../../da/dfa/classcommand_1_1_do_times_command.html#a3565aa2ee70c74e5045ce3139730a88b" target="_top" xlink:title="command.DoTimesCommand.execute">
<polygon fill="white" stroke="black" points="192,-76.5 192,-95.5 394,-95.5 394,-76.5 192,-76.5"/>
<text text-anchor="middle" x="293" y="-83.5" font-family="Helvetica,sans-Serif" font-size="10.00">command.DoTimesCommand.execute</text>
</a>
</g>
</g>
<!-- Node1&#45;&gt;Node3 -->
<g id="edge2" class="edge"><title>Node1&#45;&gt;Node3</title>
<path fill="none" stroke="midnightblue" d="M166.324,-74.7895C174.703,-75.5369 183.246,-76.299 191.736,-77.0563"/>
<polygon fill="midnightblue" stroke="midnightblue" points="166.47,-71.2887 156.199,-73.8863 165.848,-78.261 166.47,-71.2887"/>
</g>
<!-- Node4 -->
<g id="node4" class="node"><title>Node4</title>
<g id="a_node4"><a xlink:href="../../dc/da4/classcommand_1_1_stored_command.html#af713db09f85ae986a0707559209972b1" target="_top" xlink:title="command.StoredCommand.execute">
<polygon fill="white" stroke="black" points="197,-38.5 197,-57.5 389,-57.5 389,-38.5 197,-38.5"/>
<text text-anchor="middle" x="293" y="-45.5" font-family="Helvetica,sans-Serif" font-size="10.00">command.StoredCommand.execute</text>
</a>
</g>
</g>
<!-- Node1&#45;&gt;Node4 -->
<g id="edge3" class="edge"><title>Node1&#45;&gt;Node4</title>
<path fill="none" stroke="midnightblue" d="M166.219,-59.2199C176.333,-58.3177 186.686,-57.3942 196.899,-56.4832"/>
<polygon fill="midnightblue" stroke="midnightblue" points="165.848,-55.739 156.199,-60.1137 166.47,-62.7113 165.848,-55.739"/>
</g>
<!-- Node5 -->
<g id="node5" class="node"><title>Node5</title>
<g id="a_node5"><a xlink:href="../../dc/d6b/classcommand_1_1_for_command.html#ae306431af6940bd5ba38cc71696cae06" target="_top" xlink:title="command.ForCommand.execute">
<polygon fill="white" stroke="black" points="205.5,-0.5 205.5,-19.5 380.5,-19.5 380.5,-0.5 205.5,-0.5"/>
<text text-anchor="middle" x="293" y="-7.5" font-family="Helvetica,sans-Serif" font-size="10.00">command.ForCommand.execute</text>
</a>
</g>
</g>
<!-- Node1&#45;&gt;Node5 -->
<g id="edge4" class="edge"><title>Node1&#45;&gt;Node5</title>
<path fill="none" stroke="midnightblue" d="M128.975,-48.5566C148.463,-41.7976 171.103,-34.4715 192,-29 205.676,-25.4191 220.571,-22.2208 234.586,-19.5157"/>
<polygon fill="midnightblue" stroke="midnightblue" points="127.667,-45.3066 119.391,-51.9222 129.986,-51.9112 127.667,-45.3066"/>
</g>
</g>
</svg>
