<?xml version="1.0" encoding="UTF-8" standalone="no"?>
<!DOCTYPE svg PUBLIC "-//W3C//DTD SVG 1.1//EN"
 "http://www.w3.org/Graphics/SVG/1.1/DTD/svg11.dtd">
<!-- Generated by graphviz version 2.36.0 (20140111.2315)
 -->
<!-- Title: command.BaseMakeVariableCommand.checkCorrectInput Pages: 1 -->
<svg width="404pt" height="66pt"
 viewBox="0.00 0.00 404.00 66.00" xmlns="http://www.w3.org/2000/svg" xmlns:xlink="http://www.w3.org/1999/xlink">
<g id="graph0" class="graph" transform="scale(1 1) rotate(0) translate(4 62)">
<title>command.BaseMakeVariableCommand.checkCorrectInput</title>
<polygon fill="white" stroke="none" points="-4,4 -4,-62 400,-62 400,4 -4,4"/>
<!-- Node1 -->
<g id="node1" class="node"><title>Node1</title>
<polygon fill="#bfbfbf" stroke="black" points="0.5,-14 0.5,-44 157.5,-44 157.5,-14 0.5,-14"/>
<text text-anchor="start" x="8.5" y="-32" font-family="Helvetica,sans-Serif" font-size="10.00">command.BaseMakeVariable</text>
<text text-anchor="middle" x="79" y="-21" font-family="Helvetica,sans-Serif" font-size="10.00">Command.checkCorrectInput</text>
</g>
<!-- Node2 -->
<g id="node2" class="node"><title>Node2</title>
<g id="a_node2"><a xlink:href="../../da/dfa/classcommand_1_1_do_times_command.html#a3565aa2ee70c74e5045ce3139730a88b" target="_top" xlink:title="command.DoTimesCommand.execute">
<polygon fill="white" stroke="black" points="194,-38.5 194,-57.5 396,-57.5 396,-38.5 194,-38.5"/>
<text text-anchor="middle" x="295" y="-45.5" font-family="Helvetica,sans-Serif" font-size="10.00">command.DoTimesCommand.execute</text>
</a>
</g>
</g>
<!-- Node1&#45;&gt;Node2 -->
<g id="edge1" class="edge"><title>Node1&#45;&gt;Node2</title>
<path fill="none" stroke="midnightblue" d="M167.56,-36.774C176.156,-37.5372 184.926,-38.3158 193.637,-39.0892"/>
<polygon fill="midnightblue" stroke="midnightblue" points="167.832,-33.2845 157.561,-35.8863 167.213,-40.257 167.832,-33.2845"/>
</g>
<!-- Node3 -->
<g id="node3" class="node"><title>Node3</title>
<g id="a_node3"><a xlink:href="../../dc/d6b/classcommand_1_1_for_command.html#ae306431af6940bd5ba38cc71696cae06" target="_top" xlink:title="command.ForCommand.execute">
<polygon fill="white" stroke="black" points="207.5,-0.5 207.5,-19.5 382.5,-19.5 382.5,-0.5 207.5,-0.5"/>
<text text-anchor="middle" x="295" y="-7.5" font-family="Helvetica,sans-Serif" font-size="10.00">command.ForCommand.execute</text>
</a>
</g>
</g>
<!-- Node1&#45;&gt;Node3 -->
<g id="edge2" class="edge"><title>Node1&#45;&gt;Node3</title>
<path fill="none" stroke="midnightblue" d="M167.894,-21.1963C180.902,-20.0414 194.298,-18.852 207.282,-17.6993"/>
<polygon fill="midnightblue" stroke="midnightblue" points="167.213,-17.743 157.561,-22.1137 167.832,-24.7155 167.213,-17.743"/>
</g>
</g>
</svg>
