<?xml version="1.0" encoding="UTF-8" standalone="no"?>
<!DOCTYPE svg PUBLIC "-//W3C//DTD SVG 1.1//EN"
 "http://www.w3.org/Graphics/SVG/1.1/DTD/svg11.dtd">
<!-- Generated by graphviz version 2.36.0 (20140111.2315)
 -->
<!-- Title: command.BaseMakeVariableCommand.checkCorrectInput Pages: 1 -->
<svg width="382pt" height="77pt"
 viewBox="0.00 0.00 382.00 77.00" xmlns="http://www.w3.org/2000/svg" xmlns:xlink="http://www.w3.org/1999/xlink">
<g id="graph0" class="graph" transform="scale(1 1) rotate(0) translate(4 73)">
<title>command.BaseMakeVariableCommand.checkCorrectInput</title>
<polygon fill="white" stroke="none" points="-4,4 -4,-73 378,-73 378,4 -4,4"/>
<!-- Node1 -->
<g id="node1" class="node"><title>Node1</title>
<polygon fill="#bfbfbf" stroke="black" points="0.5,-17 0.5,-47 157.5,-47 157.5,-17 0.5,-17"/>
<text text-anchor="start" x="8.5" y="-35" font-family="Helvetica,sans-Serif" font-size="10.00">command.BaseMakeVariable</text>
<text text-anchor="middle" x="79" y="-24" font-family="Helvetica,sans-Serif" font-size="10.00">Command.checkCorrectInput</text>
</g>
<!-- Node2 -->
<g id="node2" class="node"><title>Node2</title>
<g id="a_node2"><a xlink:href="../../d7/d29/classcommand_1_1_basic_list_command.html#a36b32271a84890af875a576eaf608aa3" target="_top" xlink:title="command.BasicListCommand.get\lBracketIndex">
<polygon fill="white" stroke="black" points="194.5,-39 194.5,-69 373.5,-69 373.5,-39 194.5,-39"/>
<text text-anchor="start" x="202.5" y="-57" font-family="Helvetica,sans-Serif" font-size="10.00">command.BasicListCommand.get</text>
<text text-anchor="middle" x="284" y="-46" font-family="Helvetica,sans-Serif" font-size="10.00">BracketIndex</text>
</a>
</g>
</g>
<!-- Node1&#45;&gt;Node2 -->
<g id="edge1" class="edge"><title>Node1&#45;&gt;Node2</title>
<path fill="none" stroke="midnightblue" d="M157.615,-40.4114C166.316,-41.3545 175.266,-42.3244 184.188,-43.2913"/>
<polygon fill="midnightblue" stroke="midnightblue" points="183.916,-46.7823 194.235,-44.3802 184.671,-39.823 183.916,-46.7823"/>
</g>
<!-- Node3 -->
<g id="node3" class="node"><title>Node3</title>
<g id="a_node3"><a xlink:href="../../d7/d35/classcommand_1_1_command.html#ac2df873d4926bc6e08dba8c6272cff7e" target="_top" xlink:title="command.Command.toString">
<polygon fill="white" stroke="black" points="204,-0.5 204,-19.5 364,-19.5 364,-0.5 204,-0.5"/>
<text text-anchor="middle" x="284" y="-7.5" font-family="Helvetica,sans-Serif" font-size="10.00">command.Command.toString</text>
</a>
</g>
</g>
<!-- Node1&#45;&gt;Node3 -->
<g id="edge2" class="edge"><title>Node1&#45;&gt;Node3</title>
<path fill="none" stroke="midnightblue" d="M157.615,-23.5886C169.42,-22.3092 181.682,-20.9803 193.711,-19.6766"/>
<polygon fill="midnightblue" stroke="midnightblue" points="194.182,-23.1462 203.747,-18.589 193.428,-16.1869 194.182,-23.1462"/>
</g>
</g>
</svg>
