<?xml version="1.0" encoding="UTF-8" standalone="no"?>
<!DOCTYPE svg PUBLIC "-//W3C//DTD SVG 1.1//EN"
 "http://www.w3.org/Graphics/SVG/1.1/DTD/svg11.dtd">
<!-- Generated by graphviz version 2.36.0 (20140111.2315)
 -->
<!-- Title: components.HistoryTab Pages: 1 -->
<svg width="160pt" height="140pt"
 viewBox="0.00 0.00 160.00 140.00" xmlns="http://www.w3.org/2000/svg" xmlns:xlink="http://www.w3.org/1999/xlink">
<g id="graph0" class="graph" transform="scale(1 1) rotate(0) translate(4 136)">
<title>components.HistoryTab</title>
<polygon fill="white" stroke="none" points="-4,4 -4,-136 156,-136 156,4 -4,4"/>
<!-- Node1 -->
<g id="node1" class="node"><title>Node1</title>
<polygon fill="#bfbfbf" stroke="black" points="-0.5,-0.5 -0.5,-19.5 128.5,-19.5 128.5,-0.5 -0.5,-0.5"/>
<text text-anchor="middle" x="64" y="-7.5" font-family="Helvetica,sans-Serif" font-size="10.00">components.HistoryTab</text>
</g>
<!-- Node2 -->
<g id="node2" class="node"><title>Node2</title>
<g id="a_node2"><a xlink:href="../../df/df3/classcomponents_1_1_info_tab.html" target="_top" xlink:title="components.InfoTab">
<polygon fill="white" stroke="black" points="7.5,-56.5 7.5,-75.5 120.5,-75.5 120.5,-56.5 7.5,-56.5"/>
<text text-anchor="middle" x="64" y="-63.5" font-family="Helvetica,sans-Serif" font-size="10.00">components.InfoTab</text>
</a>
</g>
</g>
<!-- Node2&#45;&gt;Node1 -->
<g id="edge1" class="edge"><title>Node2&#45;&gt;Node1</title>
<path fill="none" stroke="midnightblue" d="M64,-45.8045C64,-36.9102 64,-26.7798 64,-19.7511"/>
<polygon fill="midnightblue" stroke="midnightblue" points="60.5001,-46.083 64,-56.083 67.5001,-46.083 60.5001,-46.083"/>
</g>
<!-- Node3 -->
<g id="node3" class="node"><title>Node3</title>
<polygon fill="white" stroke="#bfbfbf" points="7,-112.5 7,-131.5 39,-131.5 39,-112.5 7,-112.5"/>
<text text-anchor="middle" x="23" y="-119.5" font-family="Helvetica,sans-Serif" font-size="10.00">Tab</text>
</g>
<!-- Node3&#45;&gt;Node2 -->
<g id="edge2" class="edge"><title>Node3&#45;&gt;Node2</title>
<path fill="none" stroke="midnightblue" d="M36.0172,-103.855C43.1167,-94.5048 51.604,-83.3265 57.3557,-75.7511"/>
<polygon fill="midnightblue" stroke="midnightblue" points="33.0299,-102.002 29.7703,-112.083 38.605,-106.235 33.0299,-102.002"/>
</g>
<!-- Node4 -->
<g id="node4" class="node"><title>Node4</title>
<g id="a_node4"><a xlink:href="../../d2/dfc/interfacefeatures_1_1_feature.html" target="_top" xlink:title="features.Feature">
<polygon fill="white" stroke="black" points="57.5,-112.5 57.5,-131.5 152.5,-131.5 152.5,-112.5 57.5,-112.5"/>
<text text-anchor="middle" x="105" y="-119.5" font-family="Helvetica,sans-Serif" font-size="10.00">features.Feature</text>
</a>
</g>
</g>
<!-- Node4&#45;&gt;Node2 -->
<g id="edge3" class="edge"><title>Node4&#45;&gt;Node2</title>
<path fill="none" stroke="midnightblue" d="M91.9828,-103.855C84.8833,-94.5048 76.396,-83.3265 70.6443,-75.7511"/>
<polygon fill="midnightblue" stroke="midnightblue" points="89.395,-106.235 98.2297,-112.083 94.9701,-102.002 89.395,-106.235"/>
</g>
</g>
</svg>
