<?xml version="1.0" encoding="UTF-8" standalone="no"?>
<!DOCTYPE svg PUBLIC "-//W3C//DTD SVG 1.1//EN"
 "http://www.w3.org/Graphics/SVG/1.1/DTD/svg11.dtd">
<!-- Generated by graphviz version 2.36.0 (20140111.2315)
 -->
<!-- Title: command.DoTimesCommand Pages: 1 -->
<svg width="168pt" height="208pt"
 viewBox="0.00 0.00 168.00 208.00" xmlns="http://www.w3.org/2000/svg" xmlns:xlink="http://www.w3.org/1999/xlink">
<g id="graph0" class="graph" transform="scale(1 1) rotate(0) translate(4 204)">
<title>command.DoTimesCommand</title>
<polygon fill="white" stroke="none" points="-4,4 -4,-204 164,-204 164,4 -4,4"/>
<!-- Node1 -->
<g id="node1" class="node"><title>Node1</title>
<polygon fill="#bfbfbf" stroke="black" points="-0.5,-0.5 -0.5,-19.5 160.5,-19.5 160.5,-0.5 -0.5,-0.5"/>
<text text-anchor="middle" x="80" y="-7.5" font-family="Helvetica,sans-Serif" font-size="10.00">command.DoTimesCommand</text>
</g>
<!-- Node2 -->
<g id="node2" class="node"><title>Node2</title>
<g id="a_node2"><a xlink:href="../../dd/d2f/classcommand_1_1_base_make_variable_command.html" target="_top" xlink:title="command.BaseMakeVariable\lCommand">
<polygon fill="white" stroke="black" points="2,-57 2,-87 158,-87 158,-57 2,-57"/>
<text text-anchor="start" x="10" y="-75" font-family="Helvetica,sans-Serif" font-size="10.00">command.BaseMakeVariable</text>
<text text-anchor="middle" x="80" y="-64" font-family="Helvetica,sans-Serif" font-size="10.00">Command</text>
</a>
</g>
</g>
<!-- Node2&#45;&gt;Node1 -->
<g id="edge1" class="edge"><title>Node2&#45;&gt;Node1</title>
<path fill="none" stroke="midnightblue" d="M80,-46.5858C80,-37.0743 80,-26.7864 80,-19.7305"/>
<polygon fill="midnightblue" stroke="midnightblue" points="76.5001,-46.7808 80,-56.7808 83.5001,-46.7809 76.5001,-46.7808"/>
</g>
<!-- Node3 -->
<g id="node3" class="node"><title>Node3</title>
<g id="a_node3"><a xlink:href="../../d7/d29/classcommand_1_1_basic_list_command.html" target="_top" xlink:title="command.BasicListCommand">
<polygon fill="white" stroke="black" points="-0.5,-124.5 -0.5,-143.5 160.5,-143.5 160.5,-124.5 -0.5,-124.5"/>
<text text-anchor="middle" x="80" y="-131.5" font-family="Helvetica,sans-Serif" font-size="10.00">command.BasicListCommand</text>
</a>
</g>
</g>
<!-- Node3&#45;&gt;Node2 -->
<g id="edge2" class="edge"><title>Node3&#45;&gt;Node2</title>
<path fill="none" stroke="midnightblue" d="M80,-114.371C80,-105.585 80,-95.2721 80,-87.1408"/>
<polygon fill="midnightblue" stroke="midnightblue" points="76.5001,-114.403 80,-124.403 83.5001,-114.403 76.5001,-114.403"/>
</g>
<!-- Node4 -->
<g id="node4" class="node"><title>Node4</title>
<g id="a_node4"><a xlink:href="../../d7/d35/classcommand_1_1_command.html" target="_top" xlink:title="command.Command">
<polygon fill="white" stroke="black" points="20.5,-180.5 20.5,-199.5 139.5,-199.5 139.5,-180.5 20.5,-180.5"/>
<text text-anchor="middle" x="80" y="-187.5" font-family="Helvetica,sans-Serif" font-size="10.00">command.Command</text>
</a>
</g>
</g>
<!-- Node4&#45;&gt;Node3 -->
<g id="edge3" class="edge"><title>Node4&#45;&gt;Node3</title>
<path fill="none" stroke="midnightblue" d="M80,-169.805C80,-160.91 80,-150.78 80,-143.751"/>
<polygon fill="midnightblue" stroke="midnightblue" points="76.5001,-170.083 80,-180.083 83.5001,-170.083 76.5001,-170.083"/>
</g>
</g>
</svg>
