<?xml version="1.0" encoding="UTF-8" standalone="no"?>
<!DOCTYPE svg PUBLIC "-//W3C//DTD SVG 1.1//EN"
 "http://www.w3.org/Graphics/SVG/1.1/DTD/svg11.dtd">
<!-- Generated by graphviz version 2.36.0 (20140111.2315)
 -->
<!-- Title: components.TurtleManager.updatePenProperties Pages: 1 -->
<svg width="568pt" height="279pt"
 viewBox="0.00 0.00 568.00 279.00" xmlns="http://www.w3.org/2000/svg" xmlns:xlink="http://www.w3.org/1999/xlink">
<g id="graph0" class="graph" transform="scale(1 1) rotate(0) translate(4 275)">
<title>components.TurtleManager.updatePenProperties</title>
<polygon fill="white" stroke="none" points="-4,4 -4,-275 564,-275 564,4 -4,4"/>
<!-- Node1 -->
<g id="node1" class="node"><title>Node1</title>
<polygon fill="#bfbfbf" stroke="black" points="0.5,-121 0.5,-151 183.5,-151 183.5,-121 0.5,-121"/>
<text text-anchor="start" x="8.5" y="-139" font-family="Helvetica,sans-Serif" font-size="10.00">components.TurtleManager.update</text>
<text text-anchor="middle" x="92" y="-128" font-family="Helvetica,sans-Serif" font-size="10.00">PenProperties</text>
</g>
<!-- Node2 -->
<g id="node2" class="node"><title>Node2</title>
<g id="a_node2"><a xlink:href="../../de/ddd/classproperties_1_1_pen_properties.html#a905443cc129f202868f6593fe93e878e" target="_top" xlink:title="properties.PenProperties.get\lColorIndex">
<polygon fill="white" stroke="black" points="229,-241 229,-271 383,-271 383,-241 229,-241"/>
<text text-anchor="start" x="237" y="-259" font-family="Helvetica,sans-Serif" font-size="10.00">properties.PenProperties.get</text>
<text text-anchor="middle" x="306" y="-248" font-family="Helvetica,sans-Serif" font-size="10.00">ColorIndex</text>
</a>
</g>
</g>
<!-- Node1&#45;&gt;Node2 -->
<g id="edge1" class="edge"><title>Node1&#45;&gt;Node2</title>
<path fill="none" stroke="midnightblue" d="M109.368,-151.324C132.391,-172.121 176.42,-209.183 220,-231 224.61,-233.308 229.47,-235.44 234.435,-237.403"/>
<polygon fill="midnightblue" stroke="midnightblue" points="233.482,-240.782 244.075,-240.97 235.912,-234.217 233.482,-240.782"/>
</g>
<!-- Node4 -->
<g id="node4" class="node"><title>Node4</title>
<g id="a_node4"><a xlink:href="../../de/ddd/classproperties_1_1_pen_properties.html#a155b49da571ebf565b00bc25497dd9d8" target="_top" xlink:title="properties.PenProperties.getID">
<polygon fill="white" stroke="black" points="224,-202.5 224,-221.5 388,-221.5 388,-202.5 224,-202.5"/>
<text text-anchor="middle" x="306" y="-209.5" font-family="Helvetica,sans-Serif" font-size="10.00">properties.PenProperties.getID</text>
</a>
</g>
</g>
<!-- Node1&#45;&gt;Node4 -->
<g id="edge3" class="edge"><title>Node1&#45;&gt;Node4</title>
<path fill="none" stroke="midnightblue" d="M122.092,-151.092C147.407,-163.727 185.37,-181.49 220,-193 227.753,-195.577 236.02,-197.913 244.238,-199.994"/>
<polygon fill="midnightblue" stroke="midnightblue" points="243.658,-203.454 254.201,-202.405 245.305,-196.651 243.658,-203.454"/>
</g>
<!-- Node6 -->
<g id="node6" class="node"><title>Node6</title>
<g id="a_node6"><a xlink:href="../../de/ddd/classproperties_1_1_pen_properties.html#ab2d006d729cd90544169d82369be8fb1" target="_top" xlink:title="properties.PenProperties.isDown">
<polygon fill="white" stroke="black" points="220,-164.5 220,-183.5 392,-183.5 392,-164.5 220,-164.5"/>
<text text-anchor="middle" x="306" y="-171.5" font-family="Helvetica,sans-Serif" font-size="10.00">properties.PenProperties.isDown</text>
</a>
</g>
</g>
<!-- Node1&#45;&gt;Node6 -->
<g id="edge5" class="edge"><title>Node1&#45;&gt;Node6</title>
<path fill="none" stroke="midnightblue" d="M176.788,-151.019C198.471,-154.905 221.453,-159.025 241.879,-162.686"/>
<polygon fill="midnightblue" stroke="midnightblue" points="241.534,-166.18 251.995,-164.499 242.769,-159.29 241.534,-166.18"/>
</g>
<!-- Node8 -->
<g id="node8" class="node"><title>Node8</title>
<g id="a_node8"><a xlink:href="../../de/ddd/classproperties_1_1_pen_properties.html#a158bdc5096ec8a8bf108208c7be3e0a0" target="_top" xlink:title="properties.PenProperties.size">
<polygon fill="white" stroke="black" points="227.5,-126.5 227.5,-145.5 384.5,-145.5 384.5,-126.5 227.5,-126.5"/>
<text text-anchor="middle" x="306" y="-133.5" font-family="Helvetica,sans-Serif" font-size="10.00">properties.PenProperties.size</text>
</a>
</g>
</g>
<!-- Node1&#45;&gt;Node8 -->
<g id="edge7" class="edge"><title>Node1&#45;&gt;Node8</title>
<path fill="none" stroke="midnightblue" d="M183.522,-136C194.723,-136 206.16,-136 217.318,-136"/>
<polygon fill="midnightblue" stroke="midnightblue" points="217.472,-139.5 227.472,-136 217.472,-132.5 217.472,-139.5"/>
</g>
<!-- Node10 -->
<g id="node10" class="node"><title>Node10</title>
<g id="a_node10"><a xlink:href="../../da/da7/classfeatures_1_1_pen.html#a62bdeb4b8d9d23793ed71d120a724974" target="_top" xlink:title="features.Pen.updatePenColor">
<polygon fill="white" stroke="black" points="227.5,-88.5 227.5,-107.5 384.5,-107.5 384.5,-88.5 227.5,-88.5"/>
<text text-anchor="middle" x="306" y="-95.5" font-family="Helvetica,sans-Serif" font-size="10.00">features.Pen.updatePenColor</text>
</a>
</g>
</g>
<!-- Node1&#45;&gt;Node10 -->
<g id="edge9" class="edge"><title>Node1&#45;&gt;Node10</title>
<path fill="none" stroke="midnightblue" d="M176.788,-120.981C198.471,-117.095 221.453,-112.975 241.879,-109.314"/>
<polygon fill="midnightblue" stroke="midnightblue" points="242.769,-112.71 251.995,-107.501 241.534,-105.82 242.769,-112.71"/>
</g>
<!-- Node11 -->
<g id="node11" class="node"><title>Node11</title>
<g id="a_node11"><a xlink:href="../../dc/d0a/classfeatures_1_1_display_turtle.html#a992e42bf8586f0685a7ec80cbe6127a9" target="_top" xlink:title="features.DisplayTurtle.update\lPenShow">
<polygon fill="white" stroke="black" points="228,-39 228,-69 384,-69 384,-39 228,-39"/>
<text text-anchor="start" x="236" y="-57" font-family="Helvetica,sans-Serif" font-size="10.00">features.DisplayTurtle.update</text>
<text text-anchor="middle" x="306" y="-46" font-family="Helvetica,sans-Serif" font-size="10.00">PenShow</text>
</a>
</g>
</g>
<!-- Node1&#45;&gt;Node11 -->
<g id="edge10" class="edge"><title>Node1&#45;&gt;Node11</title>
<path fill="none" stroke="midnightblue" d="M123.311,-120.992C148.742,-108.743 186.223,-91.4815 220,-79 226.398,-76.6357 233.13,-74.3404 239.888,-72.1611"/>
<polygon fill="midnightblue" stroke="midnightblue" points="241.281,-75.3924 249.773,-69.0567 239.183,-68.714 241.281,-75.3924"/>
</g>
<!-- Node12 -->
<g id="node12" class="node"><title>Node12</title>
<g id="a_node12"><a xlink:href="../../da/da7/classfeatures_1_1_pen.html#a0931e00763a8a6a5f0a26c8833b7cebc" target="_top" xlink:title="features.Pen.updatePenWidth">
<polygon fill="white" stroke="black" points="227,-0.5 227,-19.5 385,-19.5 385,-0.5 227,-0.5"/>
<text text-anchor="middle" x="306" y="-7.5" font-family="Helvetica,sans-Serif" font-size="10.00">features.Pen.updatePenWidth</text>
</a>
</g>
</g>
<!-- Node1&#45;&gt;Node12 -->
<g id="edge11" class="edge"><title>Node1&#45;&gt;Node12</title>
<path fill="none" stroke="midnightblue" d="M106.622,-120.787C128.289,-97.5615 172.984,-53.4877 220,-30 225.696,-27.1545 231.811,-24.7043 238.054,-22.5964"/>
<polygon fill="midnightblue" stroke="midnightblue" points="239.4,-25.8443 247.928,-19.558 237.341,-19.1539 239.4,-25.8443"/>
</g>
<!-- Node3 -->
<g id="node3" class="node"><title>Node3</title>
<g id="a_node3"><a xlink:href="../../da/d85/classactor_1_1_pen.html#aafee390410894877f7eda8b67ea07920" target="_top" xlink:title="actor.Pen.getColorIndex">
<polygon fill="white" stroke="black" points="428.5,-246.5 428.5,-265.5 559.5,-265.5 559.5,-246.5 428.5,-246.5"/>
<text text-anchor="middle" x="494" y="-253.5" font-family="Helvetica,sans-Serif" font-size="10.00">actor.Pen.getColorIndex</text>
</a>
</g>
</g>
<!-- Node2&#45;&gt;Node3 -->
<g id="edge2" class="edge"><title>Node2&#45;&gt;Node3</title>
<path fill="none" stroke="midnightblue" d="M383.19,-256C394.752,-256 406.672,-256 418.204,-256"/>
<polygon fill="midnightblue" stroke="midnightblue" points="418.219,-259.5 428.219,-256 418.219,-252.5 418.219,-259.5"/>
</g>
<!-- Node5 -->
<g id="node5" class="node"><title>Node5</title>
<g id="a_node5"><a xlink:href="../../da/d85/classactor_1_1_pen.html#a7e619e33164eded3efcf4a326e081f9b" target="_top" xlink:title="actor.Pen.getID">
<polygon fill="white" stroke="black" points="449,-202.5 449,-221.5 539,-221.5 539,-202.5 449,-202.5"/>
<text text-anchor="middle" x="494" y="-209.5" font-family="Helvetica,sans-Serif" font-size="10.00">actor.Pen.getID</text>
</a>
</g>
</g>
<!-- Node4&#45;&gt;Node5 -->
<g id="edge4" class="edge"><title>Node4&#45;&gt;Node5</title>
<path fill="none" stroke="midnightblue" d="M388.041,-212C405.146,-212 422.8,-212 438.637,-212"/>
<polygon fill="midnightblue" stroke="midnightblue" points="438.757,-215.5 448.757,-212 438.757,-208.5 438.757,-215.5"/>
</g>
<!-- Node7 -->
<g id="node7" class="node"><title>Node7</title>
<g id="a_node7"><a xlink:href="../../da/d85/classactor_1_1_pen.html#a0855052755119e7371ad0a3eb268b3a9" target="_top" xlink:title="actor.Pen.isDown">
<polygon fill="white" stroke="black" points="445,-164.5 445,-183.5 543,-183.5 543,-164.5 445,-164.5"/>
<text text-anchor="middle" x="494" y="-171.5" font-family="Helvetica,sans-Serif" font-size="10.00">actor.Pen.isDown</text>
</a>
</g>
</g>
<!-- Node6&#45;&gt;Node7 -->
<g id="edge6" class="edge"><title>Node6&#45;&gt;Node7</title>
<path fill="none" stroke="midnightblue" d="M392.107,-174C406.514,-174 421.175,-174 434.694,-174"/>
<polygon fill="midnightblue" stroke="midnightblue" points="434.787,-177.5 444.787,-174 434.787,-170.5 434.787,-177.5"/>
</g>
<!-- Node9 -->
<g id="node9" class="node"><title>Node9</title>
<g id="a_node9"><a xlink:href="../../da/d85/classactor_1_1_pen.html#a441b34fa126f398b351f26aec6a89084" target="_top" xlink:title="actor.Pen.getSize">
<polygon fill="white" stroke="black" points="443.5,-126.5 443.5,-145.5 544.5,-145.5 544.5,-126.5 443.5,-126.5"/>
<text text-anchor="middle" x="494" y="-133.5" font-family="Helvetica,sans-Serif" font-size="10.00">actor.Pen.getSize</text>
</a>
</g>
</g>
<!-- Node8&#45;&gt;Node9 -->
<g id="edge8" class="edge"><title>Node8&#45;&gt;Node9</title>
<path fill="none" stroke="midnightblue" d="M384.534,-136C400.732,-136 417.574,-136 433.02,-136"/>
<polygon fill="midnightblue" stroke="midnightblue" points="433.465,-139.5 443.465,-136 433.465,-132.5 433.465,-139.5"/>
</g>
</g>
</svg>
