<?xml version="1.0" encoding="UTF-8" standalone="no"?>
<!DOCTYPE svg PUBLIC "-//W3C//DTD SVG 1.1//EN"
 "http://www.w3.org/Graphics/SVG/1.1/DTD/svg11.dtd">
<!-- Generated by graphviz version 2.36.0 (20140111.2315)
 -->
<!-- Title: components.TurtleManager.clearScreen Pages: 1 -->
<svg width="566pt" height="38pt"
 viewBox="0.00 0.00 566.00 38.00" xmlns="http://www.w3.org/2000/svg" xmlns:xlink="http://www.w3.org/1999/xlink">
<g id="graph0" class="graph" transform="scale(1 1) rotate(0) translate(4 34)">
<title>components.TurtleManager.clearScreen</title>
<polygon fill="white" stroke="none" points="-4,4 -4,-34 562,-34 562,4 -4,4"/>
<!-- Node1 -->
<g id="node1" class="node"><title>Node1</title>
<polygon fill="#bfbfbf" stroke="black" points="0.5,-0 0.5,-30 173.5,-30 173.5,-0 0.5,-0"/>
<text text-anchor="start" x="8.5" y="-18" font-family="Helvetica,sans-Serif" font-size="10.00">components.TurtleManager.clear</text>
<text text-anchor="middle" x="87" y="-7" font-family="Helvetica,sans-Serif" font-size="10.00">Screen</text>
</g>
<!-- Node2 -->
<g id="node2" class="node"><title>Node2</title>
<g id="a_node2"><a xlink:href="../../da/d5b/classcomponents_1_1_center_pane.html#a4808a85532892fb8ea07949c2d56d9d4" target="_top" xlink:title="components.CenterPane.clear\lScreen">
<polygon fill="white" stroke="black" points="210.5,-0 210.5,-30 371.5,-30 371.5,-0 210.5,-0"/>
<text text-anchor="start" x="218.5" y="-18" font-family="Helvetica,sans-Serif" font-size="10.00">components.CenterPane.clear</text>
<text text-anchor="middle" x="291" y="-7" font-family="Helvetica,sans-Serif" font-size="10.00">Screen</text>
</a>
</g>
</g>
<!-- Node1&#45;&gt;Node2 -->
<g id="edge1" class="edge"><title>Node1&#45;&gt;Node2</title>
<path fill="none" stroke="midnightblue" d="M183.687,-15C192.596,-15 201.561,-15 210.302,-15"/>
<polygon fill="midnightblue" stroke="midnightblue" points="183.666,-11.5001 173.666,-15 183.666,-18.5001 183.666,-11.5001"/>
</g>
<!-- Node3 -->
<g id="node3" class="node"><title>Node3</title>
<g id="a_node3"><a xlink:href="../../d3/de0/classmain_application_1_1_g_u_i.html#ad575c58d2f282f0123d80fb31c11553e" target="_top" xlink:title="mainApplication.GUI.update">
<polygon fill="white" stroke="black" points="408,-5.5 408,-24.5 558,-24.5 558,-5.5 408,-5.5"/>
<text text-anchor="middle" x="483" y="-12.5" font-family="Helvetica,sans-Serif" font-size="10.00">mainApplication.GUI.update</text>
</a>
</g>
</g>
<!-- Node2&#45;&gt;Node3 -->
<g id="edge2" class="edge"><title>Node2&#45;&gt;Node3</title>
<path fill="none" stroke="midnightblue" d="M381.924,-15C390.626,-15 399.386,-15 407.909,-15"/>
<polygon fill="midnightblue" stroke="midnightblue" points="381.751,-11.5001 371.751,-15 381.751,-18.5001 381.751,-11.5001"/>
</g>
</g>
</svg>
