<?xml version="1.0" encoding="UTF-8" standalone="no"?>
<!DOCTYPE svg PUBLIC "-//W3C//DTD SVG 1.1//EN"
 "http://www.w3.org/Graphics/SVG/1.1/DTD/svg11.dtd">
<!-- Generated by graphviz version 2.36.0 (20140111.2315)
 -->
<!-- Title: components.TurtleManager.updateImageMap Pages: 1 -->
<svg width="1010pt" height="154pt"
 viewBox="0.00 0.00 1010.00 153.74" xmlns="http://www.w3.org/2000/svg" xmlns:xlink="http://www.w3.org/1999/xlink">
<g id="graph0" class="graph" transform="scale(1 1) rotate(0) translate(4 149.742)">
<title>components.TurtleManager.updateImageMap</title>
<polygon fill="white" stroke="none" points="-4,4 -4,-149.742 1006,-149.742 1006,4 -4,4"/>
<!-- Node1 -->
<g id="node1" class="node"><title>Node1</title>
<polygon fill="#bfbfbf" stroke="black" points="0.5,-45 0.5,-75 183.5,-75 183.5,-45 0.5,-45"/>
<text text-anchor="start" x="8.5" y="-63" font-family="Helvetica,sans-Serif" font-size="10.00">components.TurtleManager.update</text>
<text text-anchor="middle" x="92" y="-52" font-family="Helvetica,sans-Serif" font-size="10.00">ImageMap</text>
</g>
<!-- Node2 -->
<g id="node2" class="node"><title>Node2</title>
<g id="a_node2"><a xlink:href="../../d3/de0/classmain_application_1_1_g_u_i.html#a5b9d9bebac3a8ce813b0134ecdafc66d" target="_top" xlink:title="mainApplication.GUI.load\lPanes">
<polygon fill="white" stroke="black" points="242.5,-73 242.5,-103 379.5,-103 379.5,-73 242.5,-73"/>
<text text-anchor="start" x="250.5" y="-91" font-family="Helvetica,sans-Serif" font-size="10.00">mainApplication.GUI.load</text>
<text text-anchor="middle" x="311" y="-80" font-family="Helvetica,sans-Serif" font-size="10.00">Panes</text>
</a>
</g>
</g>
<!-- Node1&#45;&gt;Node2 -->
<g id="edge1" class="edge"><title>Node1&#45;&gt;Node2</title>
<path fill="none" stroke="midnightblue" d="M193.948,-73.0255C210.363,-75.1436 227.01,-77.2916 242.376,-79.2744"/>
<polygon fill="midnightblue" stroke="midnightblue" points="194.136,-69.5209 183.77,-71.7123 193.24,-76.4633 194.136,-69.5209"/>
</g>
<!-- Node7 -->
<g id="node7" class="node"><title>Node7</title>
<g id="a_node7"><a xlink:href="../../de/d10/classfeatures_1_1_run_button_feature.html#a7516c5daca232e22a89ef380f60d2272" target="_top" xlink:title="features.RunButtonFeature.update\lPanes">
<polygon fill="white" stroke="black" points="220,-18 220,-48 402,-48 402,-18 220,-18"/>
<text text-anchor="start" x="228" y="-36" font-family="Helvetica,sans-Serif" font-size="10.00">features.RunButtonFeature.update</text>
<text text-anchor="middle" x="311" y="-25" font-family="Helvetica,sans-Serif" font-size="10.00">Panes</text>
</a>
</g>
</g>
<!-- Node1&#45;&gt;Node7 -->
<g id="edge8" class="edge"><title>Node1&#45;&gt;Node7</title>
<path fill="none" stroke="midnightblue" d="M193.92,-47.4431C202.603,-46.3627 211.352,-45.2742 219.941,-44.2055"/>
<polygon fill="midnightblue" stroke="midnightblue" points="193.262,-43.998 183.77,-48.706 194.126,-50.9444 193.262,-43.998"/>
</g>
<!-- Node3 -->
<g id="node3" class="node"><title>Node3</title>
<g id="a_node3"><a xlink:href="../../d3/de0/classmain_application_1_1_g_u_i.html#af6bd387013dbd1d1daf030117da66c0e" target="_top" xlink:title="mainApplication.GUI.initiate">
<polygon fill="white" stroke="black" points="454.5,-78.5 454.5,-97.5 603.5,-97.5 603.5,-78.5 454.5,-78.5"/>
<text text-anchor="middle" x="529" y="-85.5" font-family="Helvetica,sans-Serif" font-size="10.00">mainApplication.GUI.initiate</text>
</a>
</g>
</g>
<!-- Node2&#45;&gt;Node3 -->
<g id="edge2" class="edge"><title>Node2&#45;&gt;Node3</title>
<path fill="none" stroke="midnightblue" d="M389.937,-88C410.988,-88 433.696,-88 454.495,-88"/>
<polygon fill="midnightblue" stroke="midnightblue" points="389.751,-84.5001 379.751,-88 389.751,-91.5001 389.751,-84.5001"/>
</g>
<!-- Node4 -->
<g id="node4" class="node"><title>Node4</title>
<g id="a_node4"><a xlink:href="../../d3/d04/classmain_application_1_1_g_u_i_shell.html#ac525a3e483dbe24e5f9f0257fe54521d" target="_top" xlink:title="mainApplication.GUIShell.\lGUIShell">
<polygon fill="white" stroke="black" points="862,-98 862,-128 1002,-128 1002,-98 862,-98"/>
<text text-anchor="start" x="870" y="-116" font-family="Helvetica,sans-Serif" font-size="10.00">mainApplication.GUIShell.</text>
<text text-anchor="middle" x="932" y="-105" font-family="Helvetica,sans-Serif" font-size="10.00">GUIShell</text>
</a>
</g>
</g>
<!-- Node3&#45;&gt;Node4 -->
<g id="edge3" class="edge"><title>Node3&#45;&gt;Node4</title>
<path fill="none" stroke="midnightblue" d="M557.339,-102.055C582.289,-114.04 620.565,-130.352 656,-137 730.26,-150.931 750.921,-145.471 826,-137 842.352,-135.155 859.869,-131.743 875.818,-128.058"/>
<polygon fill="midnightblue" stroke="midnightblue" points="558.665,-98.8071 548.146,-97.5438 555.582,-105.091 558.665,-98.8071"/>
</g>
<!-- Node5 -->
<g id="node5" class="node"><title>Node5</title>
<g id="a_node5"><a xlink:href="../../d3/d04/classmain_application_1_1_g_u_i_shell.html#a9df214dfffdce7a39bc6ac5e84ca1f0f" target="_top" xlink:title="mainApplication.GUIShell.create\lNewButton">
<polygon fill="white" stroke="black" points="656,-98 656,-128 826,-128 826,-98 656,-98"/>
<text text-anchor="start" x="664" y="-116" font-family="Helvetica,sans-Serif" font-size="10.00">mainApplication.GUIShell.create</text>
<text text-anchor="middle" x="741" y="-105" font-family="Helvetica,sans-Serif" font-size="10.00">NewButton</text>
</a>
</g>
</g>
<!-- Node3&#45;&gt;Node5 -->
<g id="edge4" class="edge"><title>Node3&#45;&gt;Node5</title>
<path fill="none" stroke="midnightblue" d="M613.696,-97.9638C627.509,-99.6082 641.835,-101.314 655.664,-102.96"/>
<polygon fill="midnightblue" stroke="midnightblue" points="614.087,-94.4857 603.743,-96.7789 613.259,-101.437 614.087,-94.4857"/>
</g>
<!-- Node6 -->
<g id="node6" class="node"><title>Node6</title>
<g id="a_node6"><a xlink:href="../../d3/d04/classmain_application_1_1_g_u_i_shell.html#af2f106fa7786f13ccc0202db53b559b9" target="_top" xlink:title="mainApplication.GUIShell.create\lOpenButton">
<polygon fill="white" stroke="black" points="656,-49 656,-79 826,-79 826,-49 656,-49"/>
<text text-anchor="start" x="664" y="-67" font-family="Helvetica,sans-Serif" font-size="10.00">mainApplication.GUIShell.create</text>
<text text-anchor="middle" x="741" y="-56" font-family="Helvetica,sans-Serif" font-size="10.00">OpenButton</text>
</a>
</g>
</g>
<!-- Node3&#45;&gt;Node6 -->
<g id="edge6" class="edge"><title>Node3&#45;&gt;Node6</title>
<path fill="none" stroke="midnightblue" d="M613.696,-78.4348C627.509,-76.8561 641.835,-75.2188 655.664,-73.6384"/>
<polygon fill="midnightblue" stroke="midnightblue" points="613.281,-74.9593 603.743,-79.5722 614.076,-81.9141 613.281,-74.9593"/>
</g>
<!-- Node5&#45;&gt;Node4 -->
<g id="edge5" class="edge"><title>Node5&#45;&gt;Node4</title>
<path fill="none" stroke="midnightblue" d="M836.359,-113C844.965,-113 853.572,-113 861.896,-113"/>
<polygon fill="midnightblue" stroke="midnightblue" points="836.274,-109.5 826.274,-113 836.274,-116.5 836.274,-109.5"/>
</g>
<!-- Node6&#45;&gt;Node4 -->
<g id="edge7" class="edge"><title>Node6&#45;&gt;Node4</title>
<path fill="none" stroke="midnightblue" d="M809.692,-81.5498C830.447,-86.9306 853.082,-92.799 873.119,-97.9938"/>
<polygon fill="midnightblue" stroke="midnightblue" points="810.549,-78.1563 799.991,-79.0346 808.792,-84.9323 810.549,-78.1563"/>
</g>
<!-- Node8 -->
<g id="node8" class="node"><title>Node8</title>
<g id="a_node8"><a xlink:href="../../de/d10/classfeatures_1_1_run_button_feature.html#aafdb4dfb72af2439264ef4a329b35c41" target="_top" xlink:title="features.RunButtonFeature.update">
<polygon fill="white" stroke="black" points="438,-11.5 438,-30.5 620,-30.5 620,-11.5 438,-11.5"/>
<text text-anchor="middle" x="529" y="-18.5" font-family="Helvetica,sans-Serif" font-size="10.00">features.RunButtonFeature.update</text>
</a>
</g>
</g>
<!-- Node7&#45;&gt;Node8 -->
<g id="edge9" class="edge"><title>Node7&#45;&gt;Node8</title>
<path fill="none" stroke="midnightblue" d="M412.059,-27.4412C420.631,-26.9649 429.27,-26.485 437.759,-26.0134"/>
<polygon fill="midnightblue" stroke="midnightblue" points="411.83,-23.9484 402.039,-27.9978 412.218,-30.9376 411.83,-23.9484"/>
</g>
<!-- Node9 -->
<g id="node9" class="node"><title>Node9</title>
<g id="a_node9"><a xlink:href="../../de/d10/classfeatures_1_1_run_button_feature.html#ada33a09e0a0259486754b597f2d7b0c7" target="_top" xlink:title="features.RunButtonFeature.\lRunButtonFeature">
<polygon fill="white" stroke="black" points="667,-0 667,-30 815,-30 815,-0 667,-0"/>
<text text-anchor="start" x="675" y="-18" font-family="Helvetica,sans-Serif" font-size="10.00">features.RunButtonFeature.</text>
<text text-anchor="middle" x="741" y="-7" font-family="Helvetica,sans-Serif" font-size="10.00">RunButtonFeature</text>
</a>
</g>
</g>
<!-- Node8&#45;&gt;Node9 -->
<g id="edge10" class="edge"><title>Node8&#45;&gt;Node9</title>
<path fill="none" stroke="midnightblue" d="M630.54,-18.1274C642.796,-17.7772 655.134,-17.4247 666.884,-17.089"/>
<polygon fill="midnightblue" stroke="midnightblue" points="630.174,-14.6364 620.278,-18.4206 630.374,-21.6335 630.174,-14.6364"/>
</g>
</g>
</svg>
