<?xml version="1.0" encoding="UTF-8" standalone="no"?>
<!DOCTYPE svg PUBLIC "-//W3C//DTD SVG 1.1//EN"
 "http://www.w3.org/Graphics/SVG/1.1/DTD/svg11.dtd">
<!-- Generated by graphviz version 2.36.0 (20140111.2315)
 -->
<!-- Title: components.TurtleManager.update Pages: 1 -->
<svg width="952pt" height="290pt"
 viewBox="0.00 0.00 952.00 290.00" xmlns="http://www.w3.org/2000/svg" xmlns:xlink="http://www.w3.org/1999/xlink">
<g id="graph0" class="graph" transform="scale(1 1) rotate(0) translate(4 286)">
<title>components.TurtleManager.update</title>
<polygon fill="white" stroke="none" points="-4,4 -4,-286 948,-286 948,4 -4,4"/>
<!-- Node1 -->
<g id="node1" class="node"><title>Node1</title>
<polygon fill="#bfbfbf" stroke="black" points="0.5,-142.5 0.5,-161.5 183.5,-161.5 183.5,-142.5 0.5,-142.5"/>
<text text-anchor="middle" x="92" y="-149.5" font-family="Helvetica,sans-Serif" font-size="10.00">components.TurtleManager.update</text>
</g>
<!-- Node2 -->
<g id="node2" class="node"><title>Node2</title>
<g id="a_node2"><a xlink:href="../../dc/d0a/classfeatures_1_1_display_turtle.html#ab5a7279e9876151c36b72b8aa63bcb3b" target="_top" xlink:title="features.DisplayTurtle.update\lImageView">
<polygon fill="white" stroke="black" points="220,-186 220,-216 376,-216 376,-186 220,-186"/>
<text text-anchor="start" x="228" y="-204" font-family="Helvetica,sans-Serif" font-size="10.00">features.DisplayTurtle.update</text>
<text text-anchor="middle" x="298" y="-193" font-family="Helvetica,sans-Serif" font-size="10.00">ImageView</text>
</a>
</g>
</g>
<!-- Node1&#45;&gt;Node2 -->
<g id="edge1" class="edge"><title>Node1&#45;&gt;Node2</title>
<path fill="none" stroke="midnightblue" d="M132.818,-161.564C158.87,-167.822 193.675,-176.182 224.533,-183.594"/>
<polygon fill="midnightblue" stroke="midnightblue" points="223.856,-187.031 234.397,-185.963 225.491,-180.224 223.856,-187.031"/>
</g>
<!-- Node3 -->
<g id="node3" class="node"><title>Node3</title>
<g id="a_node3"><a xlink:href="../../dc/d0a/classfeatures_1_1_display_turtle.html#a06ca557d3458cbcec4fda12263280cc2" target="_top" xlink:title="features.DisplayTurtle.update\lPosition">
<polygon fill="white" stroke="black" points="220,-137 220,-167 376,-167 376,-137 220,-137"/>
<text text-anchor="start" x="228" y="-155" font-family="Helvetica,sans-Serif" font-size="10.00">features.DisplayTurtle.update</text>
<text text-anchor="middle" x="298" y="-144" font-family="Helvetica,sans-Serif" font-size="10.00">Position</text>
</a>
</g>
</g>
<!-- Node1&#45;&gt;Node3 -->
<g id="edge2" class="edge"><title>Node1&#45;&gt;Node3</title>
<path fill="none" stroke="midnightblue" d="M183.665,-152C192.308,-152 201.061,-152 209.671,-152"/>
<polygon fill="midnightblue" stroke="midnightblue" points="209.698,-155.5 219.698,-152 209.698,-148.5 209.698,-155.5"/>
</g>
<!-- Node12 -->
<g id="node12" class="node"><title>Node12</title>
<g id="a_node12"><a xlink:href="../../dc/d0a/classfeatures_1_1_display_turtle.html#a2f27d1e94dbcd404e51ef72440786676" target="_top" xlink:title="features.DisplayTurtle.update\lTurtleShow">
<polygon fill="white" stroke="black" points="220,-88 220,-118 376,-118 376,-88 220,-88"/>
<text text-anchor="start" x="228" y="-106" font-family="Helvetica,sans-Serif" font-size="10.00">features.DisplayTurtle.update</text>
<text text-anchor="middle" x="298" y="-95" font-family="Helvetica,sans-Serif" font-size="10.00">TurtleShow</text>
</a>
</g>
</g>
<!-- Node1&#45;&gt;Node12 -->
<g id="edge12" class="edge"><title>Node1&#45;&gt;Node12</title>
<path fill="none" stroke="midnightblue" d="M132.818,-142.436C158.87,-136.178 193.675,-127.818 224.533,-120.406"/>
<polygon fill="midnightblue" stroke="midnightblue" points="225.491,-123.776 234.397,-118.037 223.856,-116.969 225.491,-123.776"/>
</g>
<!-- Node4 -->
<g id="node4" class="node"><title>Node4</title>
<g id="a_node4"><a xlink:href="../../da/d54/classproperties_1_1_position.html#a038c69f0a24a47be9e1602695a2c5b61" target="_top" xlink:title="properties.Position.getX">
<polygon fill="white" stroke="black" points="427.5,-262.5 427.5,-281.5 558.5,-281.5 558.5,-262.5 427.5,-262.5"/>
<text text-anchor="middle" x="493" y="-269.5" font-family="Helvetica,sans-Serif" font-size="10.00">properties.Position.getX</text>
</a>
</g>
</g>
<!-- Node3&#45;&gt;Node4 -->
<g id="edge3" class="edge"><title>Node3&#45;&gt;Node4</title>
<path fill="none" stroke="midnightblue" d="M361.168,-167.031C366.515,-169.811 371.567,-173.102 376,-177 404.07,-201.678 382.957,-229.475 412,-253 414.087,-254.69 416.299,-256.235 418.607,-257.646"/>
<polygon fill="midnightblue" stroke="midnightblue" points="417.428,-260.976 427.919,-262.452 420.638,-254.756 417.428,-260.976"/>
</g>
<!-- Node5 -->
<g id="node5" class="node"><title>Node5</title>
<g id="a_node5"><a xlink:href="../../da/d54/classproperties_1_1_position.html#a0e2fa1786b2b6cbed8f91d02e624d3ec" target="_top" xlink:title="properties.Position.getY">
<polygon fill="white" stroke="black" points="428,-224.5 428,-243.5 558,-243.5 558,-224.5 428,-224.5"/>
<text text-anchor="middle" x="493" y="-231.5" font-family="Helvetica,sans-Serif" font-size="10.00">properties.Position.getY</text>
</a>
</g>
</g>
<!-- Node3&#45;&gt;Node5 -->
<g id="edge4" class="edge"><title>Node3&#45;&gt;Node5</title>
<path fill="none" stroke="midnightblue" d="M356.39,-167.057C363.237,-169.879 369.939,-173.173 376,-177 395.672,-189.42 391.843,-203.384 412,-215 415.861,-217.225 419.97,-219.19 424.21,-220.925"/>
<polygon fill="midnightblue" stroke="midnightblue" points="423.058,-224.231 433.652,-224.369 425.457,-217.655 423.058,-224.231"/>
</g>
<!-- Node6 -->
<g id="node6" class="node"><title>Node6</title>
<g id="a_node6"><a xlink:href="../../da/d54/classproperties_1_1_position.html#a5dff002fabbc5e7be1a50f5eff9b2879" target="_top" xlink:title="properties.Position.getAngle">
<polygon fill="white" stroke="black" points="417,-186.5 417,-205.5 569,-205.5 569,-186.5 417,-186.5"/>
<text text-anchor="middle" x="493" y="-193.5" font-family="Helvetica,sans-Serif" font-size="10.00">properties.Position.getAngle</text>
</a>
</g>
</g>
<!-- Node3&#45;&gt;Node6 -->
<g id="edge5" class="edge"><title>Node3&#45;&gt;Node6</title>
<path fill="none" stroke="midnightblue" d="M364.88,-167.019C389.517,-172.636 417.125,-178.93 440.301,-184.214"/>
<polygon fill="midnightblue" stroke="midnightblue" points="439.747,-187.677 450.275,-186.488 441.303,-180.852 439.747,-187.677"/>
</g>
<!-- Node7 -->
<g id="node7" class="node"><title>Node7</title>
<g id="a_node7"><a xlink:href="../../dc/d0a/classfeatures_1_1_display_turtle.html#a0974c08e12b3bea1d0c5a00359ffab13" target="_top" xlink:title="features.DisplayTurtle.update\lImage">
<polygon fill="white" stroke="black" points="415,-137 415,-167 571,-167 571,-137 415,-137"/>
<text text-anchor="start" x="423" y="-155" font-family="Helvetica,sans-Serif" font-size="10.00">features.DisplayTurtle.update</text>
<text text-anchor="middle" x="493" y="-144" font-family="Helvetica,sans-Serif" font-size="10.00">Image</text>
</a>
</g>
</g>
<!-- Node3&#45;&gt;Node7 -->
<g id="edge6" class="edge"><title>Node3&#45;&gt;Node7</title>
<path fill="none" stroke="midnightblue" d="M376.111,-152C385.441,-152 395.023,-152 404.489,-152"/>
<polygon fill="midnightblue" stroke="midnightblue" points="404.697,-155.5 414.697,-152 404.697,-148.5 404.697,-155.5"/>
</g>
<!-- Node8 -->
<g id="node8" class="node"><title>Node8</title>
<g id="a_node8"><a xlink:href="../../dc/d0a/classfeatures_1_1_display_turtle.html#a62391c3999d131300823b851b0f5b90b" target="_top" xlink:title="features.DisplayTurtle.updateLine">
<polygon fill="white" stroke="black" points="610,-76.5 610,-95.5 786,-95.5 786,-76.5 610,-76.5"/>
<text text-anchor="middle" x="698" y="-83.5" font-family="Helvetica,sans-Serif" font-size="10.00">features.DisplayTurtle.updateLine</text>
</a>
</g>
</g>
<!-- Node3&#45;&gt;Node8 -->
<g id="edge7" class="edge"><title>Node3&#45;&gt;Node8</title>
<path fill="none" stroke="midnightblue" d="M366.384,-136.962C381.366,-133.822 397.195,-130.66 412,-128 479.566,-115.859 556.609,-104.663 613.543,-96.8892"/>
<polygon fill="midnightblue" stroke="midnightblue" points="614.137,-100.341 623.574,-95.5265 613.194,-93.4045 614.137,-100.341"/>
</g>
<!-- Node10 -->
<g id="node10" class="node"><title>Node10</title>
<g id="a_node10"><a xlink:href="../../dc/d0a/classfeatures_1_1_display_turtle.html#aac090a97a844a60109816520333f7866" target="_top" xlink:title="features.DisplayTurtle.animate\lTurtlePosition">
<polygon fill="white" stroke="black" points="412,-49 412,-79 574,-79 574,-49 412,-49"/>
<text text-anchor="start" x="420" y="-67" font-family="Helvetica,sans-Serif" font-size="10.00">features.DisplayTurtle.animate</text>
<text text-anchor="middle" x="493" y="-56" font-family="Helvetica,sans-Serif" font-size="10.00">TurtlePosition</text>
</a>
</g>
</g>
<!-- Node3&#45;&gt;Node10 -->
<g id="edge9" class="edge"><title>Node3&#45;&gt;Node10</title>
<path fill="none" stroke="midnightblue" d="M355.327,-136.85C362.494,-134.023 369.565,-130.753 376,-127 394.75,-116.066 393.5,-105.352 412,-94 418.667,-89.909 425.982,-86.2304 433.395,-82.968"/>
<polygon fill="midnightblue" stroke="midnightblue" points="434.907,-86.13 442.796,-79.0584 432.219,-79.6667 434.907,-86.13"/>
</g>
<!-- Node11 -->
<g id="node11" class="node"><title>Node11</title>
<g id="a_node11"><a xlink:href="../../dc/d0a/classfeatures_1_1_display_turtle.html#a73aeed13803987df257034705ee6eaff" target="_top" xlink:title="features.DisplayTurtle.animate\lTurtleAngle">
<polygon fill="white" stroke="black" points="412,-0 412,-30 574,-30 574,-0 412,-0"/>
<text text-anchor="start" x="420" y="-18" font-family="Helvetica,sans-Serif" font-size="10.00">features.DisplayTurtle.animate</text>
<text text-anchor="middle" x="493" y="-7" font-family="Helvetica,sans-Serif" font-size="10.00">TurtleAngle</text>
</a>
</g>
</g>
<!-- Node3&#45;&gt;Node11 -->
<g id="edge11" class="edge"><title>Node3&#45;&gt;Node11</title>
<path fill="none" stroke="midnightblue" d="M361.754,-136.996C366.918,-134.212 371.769,-130.912 376,-127 406.727,-98.5926 381.117,-68.2372 412,-40 413.701,-38.4443 415.499,-36.9854 417.373,-35.6173"/>
<polygon fill="midnightblue" stroke="midnightblue" points="419.424,-38.4628 426.032,-30.1816 415.702,-32.5341 419.424,-38.4628"/>
</g>
<!-- Node9 -->
<g id="node9" class="node"><title>Node9</title>
<g id="a_node9"><a xlink:href="../../da/da7/classfeatures_1_1_pen.html#accc955328a7a1e73f6e512116eb3ca70" target="_top" xlink:title="features.Pen.drawLine">
<polygon fill="white" stroke="black" points="822,-76.5 822,-95.5 944,-95.5 944,-76.5 822,-76.5"/>
<text text-anchor="middle" x="883" y="-83.5" font-family="Helvetica,sans-Serif" font-size="10.00">features.Pen.drawLine</text>
</a>
</g>
</g>
<!-- Node8&#45;&gt;Node9 -->
<g id="edge8" class="edge"><title>Node8&#45;&gt;Node9</title>
<path fill="none" stroke="midnightblue" d="M786.212,-86C794.786,-86 803.41,-86 811.782,-86"/>
<polygon fill="midnightblue" stroke="midnightblue" points="811.849,-89.5001 821.849,-86 811.849,-82.5001 811.849,-89.5001"/>
</g>
<!-- Node10&#45;&gt;Node8 -->
<g id="edge10" class="edge"><title>Node10&#45;&gt;Node8</title>
<path fill="none" stroke="midnightblue" d="M574.231,-72.695C582.674,-73.61 591.323,-74.5474 599.93,-75.4801"/>
<polygon fill="midnightblue" stroke="midnightblue" points="599.68,-78.9734 609.999,-76.5713 600.434,-72.0141 599.68,-78.9734"/>
</g>
</g>
</svg>
