<?xml version="1.0" encoding="UTF-8" standalone="no"?>
<!DOCTYPE svg PUBLIC "-//W3C//DTD SVG 1.1//EN"
 "http://www.w3.org/Graphics/SVG/1.1/DTD/svg11.dtd">
<!-- Generated by graphviz version 2.36.0 (20140111.2315)
 -->
<!-- Title: components.VarsTab Pages: 1 -->
<!--zoomable 384 -->
<svg id="main" version="1.1" xmlns="http://www.w3.org/2000/svg" xmlns:xlink="http://www.w3.org/1999/xlink" xml:space="preserve" onload="init(evt)">
<style type="text/css"><![CDATA[
.edge:hover path { stroke: red; }
.edge:hover polygon { stroke: red; fill: red; }
]]></style>
<script type="text/javascript"><![CDATA[
var edges = document.getElementsByTagName('g');
if (edges && edges.length) {
  for (var i=0;i<edges.length;i++) {
    if (edges[i].id.substr(0,4)=='edge') {
      edges[i].setAttribute('class','edge');
    }
  }
}
]]></script>
        <defs>
                <circle id="rim" cx="0" cy="0" r="7"/>
                <circle id="rim2" cx="0" cy="0" r="3.5"/>
                <g id="zoomPlus">
                        <use xlink:href="#rim" fill="#404040">
                                <set attributeName="fill" to="#808080" begin="zoomplus.mouseover" end="zoomplus.mouseout"/>
                        </use>
                        <path d="M-4,0h8M0,-4v8" fill="none" stroke="white" stroke-width="1.5" pointer-events="none"/>
                </g>
                <g id="zoomMin">
                        <use xlink:href="#rim" fill="#404040">
                                <set attributeName="fill" to="#808080" begin="zoomminus.mouseover" end="zoomminus.mouseout"/>
                        </use>
                        <path d="M-4,0h8" fill="none" stroke="white" stroke-width="1.5" pointer-events="none"/>
                </g>
                <g id="dirArrow">
                        <path fill="none" stroke="white" stroke-width="1.5" d="M0,-3.0v7 M-2.5,-0.5L0,-3.0L2.5,-0.5"/>
                </g>
               <g id="resetDef">
                       <use xlink:href="#rim2" fill="#404040">
                               <set attributeName="fill" to="#808080" begin="reset.mouseover" end="reset.mouseout"/>
                       </use>
               </g>
        </defs>

<script type="text/javascript">
var viewWidth = 1094;
var viewHeight = 384;
var sectionId = 'dynsection-1';
</script>
<script xlink:href="../../svgpan.js"/>
<svg id="graph" class="graph">
<g id="viewport">
<title>components.VarsTab</title>
<polygon fill="white" stroke="none" points="-4,4 -4,-380 1090,-380 1090,4 -4,4"/>
<!-- Node1 -->
<g id="node1" class="node"><title>Node1</title>
<polygon fill="#bfbfbf" stroke="black" points="970,-25.5 970,-44.5 1086,-44.5 1086,-25.5 970,-25.5"/>
<text text-anchor="middle" x="1028" y="-32.5" font-family="Helvetica,sans-Serif" font-size="10.00">components.VarsTab</text>
</g>
<!-- Node2 -->
<g id="node2" class="node"><title>Node2</title>
<g id="a_node2"><a xlink:href="../../df/df3/classcomponents_1_1_info_tab.html" target="_top" xlink:title="components.InfoTab">
<polygon fill="white" stroke="black" points="818.5,-105.5 818.5,-124.5 931.5,-124.5 931.5,-105.5 818.5,-105.5"/>
<text text-anchor="middle" x="875" y="-112.5" font-family="Helvetica,sans-Serif" font-size="10.00">components.InfoTab</text>
</a>
</g>
</g>
<!-- Node2&#45;&gt;Node1 -->
<g id="edge1" class="edge"><title>Node2&#45;&gt;Node1</title>
<path fill="none" stroke="midnightblue" d="M903.054,-100.667C933.575,-84.4964 982.382,-58.6384 1008.72,-44.6841"/>
<polygon fill="midnightblue" stroke="midnightblue" points="901.412,-97.5757 894.214,-105.35 904.689,-103.761 901.412,-97.5757"/>
</g>
<!-- Node3 -->
<g id="node3" class="node"><title>Node3</title>
<polygon fill="white" stroke="#bfbfbf" points="626,-143.5 626,-162.5 658,-162.5 658,-143.5 626,-143.5"/>
<text text-anchor="middle" x="642" y="-150.5" font-family="Helvetica,sans-Serif" font-size="10.00">Tab</text>
</g>
<!-- Node3&#45;&gt;Node2 -->
<g id="edge2" class="edge"><title>Node3&#45;&gt;Node2</title>
<path fill="none" stroke="midnightblue" d="M668.139,-149.436C699.178,-144.972 753.563,-136.939 800,-129 808.12,-127.612 816.724,-126.059 825.084,-124.507"/>
<polygon fill="midnightblue" stroke="midnightblue" points="667.588,-145.979 658.185,-150.861 668.58,-152.909 667.588,-145.979"/>
</g>
<!-- Node4 -->
<g id="node4" class="node"><title>Node4</title>
<g id="a_node4"><a xlink:href="../../d2/dfc/interfacefeatures_1_1_feature.html" target="_top" xlink:title="features.Feature">
<polygon fill="white" stroke="black" points="594.5,-105.5 594.5,-124.5 689.5,-124.5 689.5,-105.5 594.5,-105.5"/>
<text text-anchor="middle" x="642" y="-112.5" font-family="Helvetica,sans-Serif" font-size="10.00">features.Feature</text>
</a>
</g>
</g>
<!-- Node4&#45;&gt;Node2 -->
<g id="edge3" class="edge"><title>Node4&#45;&gt;Node2</title>
<path fill="none" stroke="midnightblue" d="M700.108,-115C736.185,-115 782.576,-115 818.367,-115"/>
<polygon fill="midnightblue" stroke="midnightblue" points="699.746,-111.5 689.746,-115 699.746,-118.5 699.746,-111.5"/>
</g>
<!-- Node5 -->
<g id="node5" class="node"><title>Node5</title>
<polygon fill="white" stroke="#bfbfbf" points="621.5,-67.5 621.5,-86.5 662.5,-86.5 662.5,-67.5 621.5,-67.5"/>
<text text-anchor="middle" x="642" y="-74.5" font-family="Helvetica,sans-Serif" font-size="10.00">VBox</text>
</g>
<!-- Node5&#45;&gt;Node2 -->
<g id="edge4" class="edge"><title>Node5&#45;&gt;Node2</title>
<path fill="none" stroke="#9a32cd" stroke-dasharray="5,2" d="M672.815,-80.8751C704.453,-85.1022 755.869,-92.3006 800,-100 809.427,-101.645 819.495,-103.571 829.071,-105.485"/>
<polygon fill="#9a32cd" stroke="#9a32cd" points="673.256,-77.403 662.883,-79.559 672.336,-84.3423 673.256,-77.403"/>
<text text-anchor="middle" x="766" y="-103" font-family="Helvetica,sans-Serif" font-size="10.00"> myDrawer</text>
</g>
<!-- Node6 -->
<g id="node6" class="node"><title>Node6</title>
<g id="a_node6"><a xlink:href="../../d7/da1/classmain_application_1_1_controller.html" target="_top" xlink:title="mainApplication.Controller">
<polygon fill="white" stroke="black" points="570.5,-219.5 570.5,-238.5 713.5,-238.5 713.5,-219.5 570.5,-219.5"/>
<text text-anchor="middle" x="642" y="-226.5" font-family="Helvetica,sans-Serif" font-size="10.00">mainApplication.Controller</text>
</a>
</g>
</g>
<!-- Node6&#45;&gt;Node2 -->
<g id="edge5" class="edge"><title>Node6&#45;&gt;Node2</title>
<path fill="none" stroke="#9a32cd" stroke-dasharray="5,2" d="M710.85,-217.134C739.625,-210.223 772.738,-199.683 800,-184 827.712,-168.059 853.423,-139.909 865.971,-124.967"/>
<polygon fill="#9a32cd" stroke="#9a32cd" points="709.831,-213.777 700.87,-219.429 711.4,-220.599 709.831,-213.777"/>
<text text-anchor="middle" x="766" y="-214" font-family="Helvetica,sans-Serif" font-size="10.00"> myController</text>
</g>
<!-- Node7 -->
<g id="node7" class="node"><title>Node7</title>
<g id="a_node7"><a xlink:href="../../d6/d95/classparser_1_1_parser.html" target="_top" xlink:title="parser.Parser">
<polygon fill="white" stroke="black" points="338,-311.5 338,-330.5 418,-330.5 418,-311.5 338,-311.5"/>
<text text-anchor="middle" x="378" y="-318.5" font-family="Helvetica,sans-Serif" font-size="10.00">parser.Parser</text>
</a>
</g>
</g>
<!-- Node7&#45;&gt;Node6 -->
<g id="edge6" class="edge"><title>Node7&#45;&gt;Node6</title>
<path fill="none" stroke="#9a32cd" stroke-dasharray="5,2" d="M416.3,-307.902C469.702,-289.15 566.688,-255.094 613.826,-238.542"/>
<polygon fill="#9a32cd" stroke="#9a32cd" points="414.819,-304.713 406.543,-311.328 417.138,-311.317 414.819,-304.713"/>
<text text-anchor="middle" x="514" y="-289" font-family="Helvetica,sans-Serif" font-size="10.00"> myParser</text>
</g>
<!-- Node8 -->
<g id="node8" class="node"><title>Node8</title>
<polygon fill="white" stroke="#bfbfbf" points="36.5,-311.5 36.5,-330.5 129.5,-330.5 129.5,-311.5 36.5,-311.5"/>
<text text-anchor="middle" x="83" y="-318.5" font-family="Helvetica,sans-Serif" font-size="10.00">ResourceBundle</text>
</g>
<!-- Node8&#45;&gt;Node7 -->
<g id="edge7" class="edge"><title>Node8&#45;&gt;Node7</title>
<path fill="none" stroke="#9a32cd" stroke-dasharray="5,2" d="M139.856,-321C197.742,-321 286.729,-321 337.637,-321"/>
<polygon fill="#9a32cd" stroke="#9a32cd" points="139.781,-317.5 129.781,-321 139.781,-324.5 139.781,-317.5"/>
<text text-anchor="middle" x="232" y="-335" font-family="Helvetica,sans-Serif" font-size="10.00"> myCommands</text>
<text text-anchor="middle" x="232" y="-324" font-family="Helvetica,sans-Serif" font-size="10.00">myLanguage</text>
</g>
<!-- Node9 -->
<g id="node9" class="node"><title>Node9</title>
<polygon fill="white" stroke="#bfbfbf" points="26,-356.5 26,-375.5 140,-375.5 140,-356.5 26,-356.5"/>
<text text-anchor="middle" x="83" y="-363.5" font-family="Helvetica,sans-Serif" font-size="10.00">List&lt; parser.Node &gt;</text>
</g>
<!-- Node9&#45;&gt;Node7 -->
<g id="edge8" class="edge"><title>Node9&#45;&gt;Node7</title>
<path fill="none" stroke="#9a32cd" stroke-dasharray="5,2" d="M149.975,-360.601C188.128,-356.98 236.956,-351.491 280,-344 300.461,-340.439 323.053,-335.163 341.283,-330.562"/>
<polygon fill="#9a32cd" stroke="#9a32cd" points="149.648,-357.117 140.015,-361.528 150.296,-364.087 149.648,-357.117"/>
<text text-anchor="middle" x="232" y="-359" font-family="Helvetica,sans-Serif" font-size="10.00"> myTreeHeads</text>
</g>
<!-- Node10 -->
<g id="node10" class="node"><title>Node10</title>
<polygon fill="white" stroke="#bfbfbf" points="298,-147.5 298,-166.5 458,-166.5 458,-147.5 298,-147.5"/>
<text text-anchor="middle" x="378" y="-154.5" font-family="Helvetica,sans-Serif" font-size="10.00">List&lt; workspace.Workspace &gt;</text>
</g>
<!-- Node10&#45;&gt;Node6 -->
<g id="edge9" class="edge"><title>Node10&#45;&gt;Node6</title>
<path fill="none" stroke="#9a32cd" stroke-dasharray="5,2" d="M468.476,-165.981C496.344,-171.267 526.445,-179.663 552,-193 561.755,-198.091 560.392,-204.636 570,-210 576.908,-213.856 584.634,-216.959 592.377,-219.447"/>
<polygon fill="#9a32cd" stroke="#9a32cd" points="468.782,-162.481 458.322,-164.171 467.553,-169.372 468.782,-162.481"/>
<text text-anchor="middle" x="514" y="-196" font-family="Helvetica,sans-Serif" font-size="10.00"> myWorkspaces</text>
</g>
<!-- Node11 -->
<g id="node11" class="node"><title>Node11</title>
<g id="a_node11"><a xlink:href="../../de/d19/classworkspace_1_1_workspace.html" target="_top" xlink:title="workspace.Workspace">
<polygon fill="white" stroke="black" points="317.5,-185.5 317.5,-204.5 438.5,-204.5 438.5,-185.5 317.5,-185.5"/>
<text text-anchor="middle" x="378" y="-192.5" font-family="Helvetica,sans-Serif" font-size="10.00">workspace.Workspace</text>
</a>
</g>
</g>
<!-- Node11&#45;&gt;Node6 -->
<g id="edge10" class="edge"><title>Node11&#45;&gt;Node6</title>
<path fill="none" stroke="#9a32cd" stroke-dasharray="5,2" d="M449.12,-204.1C486.636,-208.968 532.72,-214.948 570.321,-219.828"/>
<polygon fill="#9a32cd" stroke="#9a32cd" points="449.147,-200.574 438.78,-202.758 448.246,-207.516 449.147,-200.574"/>
<text text-anchor="middle" x="514" y="-221" font-family="Helvetica,sans-Serif" font-size="10.00"> myActiveWS</text>
</g>
<!-- Node12 -->
<g id="node12" class="node"><title>Node12</title>
<polygon fill="white" stroke="#bfbfbf" points="47.5,-147.5 47.5,-166.5 118.5,-166.5 118.5,-147.5 47.5,-147.5"/>
<text text-anchor="middle" x="83" y="-154.5" font-family="Helvetica,sans-Serif" font-size="10.00">Observable</text>
</g>
<!-- Node12&#45;&gt;Node11 -->
<g id="edge11" class="edge"><title>Node12&#45;&gt;Node11</title>
<path fill="none" stroke="midnightblue" d="M128.721,-162.8C179.195,-169.346 261.535,-180.025 317.428,-187.274"/>
<polygon fill="midnightblue" stroke="midnightblue" points="129.129,-159.324 118.762,-161.508 128.228,-166.265 129.129,-159.324"/>
</g>
<!-- Node13 -->
<g id="node13" class="node"><title>Node13</title>
<polygon fill="white" stroke="#bfbfbf" points="53,-109.5 53,-128.5 113,-128.5 113,-109.5 53,-109.5"/>
<text text-anchor="middle" x="83" y="-116.5" font-family="Helvetica,sans-Serif" font-size="10.00">Observer</text>
</g>
<!-- Node13&#45;&gt;Node11 -->
<g id="edge12" class="edge"><title>Node13&#45;&gt;Node11</title>
<path fill="none" stroke="midnightblue" d="M123.241,-127.913C136.801,-131.04 152.082,-134.618 166,-138 216.802,-150.346 231.005,-148.76 280,-167 288.382,-170.12 289.597,-172.934 298,-176 308.071,-179.674 319.126,-182.842 329.691,-185.479"/>
<polygon fill="midnightblue" stroke="midnightblue" points="123.788,-124.447 113.258,-125.619 122.221,-131.269 123.788,-124.447"/>
</g>
<!-- Node14 -->
<g id="node14" class="node"><title>Node14</title>
<polygon fill="white" stroke="#bfbfbf" points="21,-71.5 21,-90.5 145,-90.5 145,-71.5 21,-71.5"/>
<text text-anchor="middle" x="83" y="-78.5" font-family="Helvetica,sans-Serif" font-size="10.00">Map&lt; Integer, Color &gt;</text>
</g>
<!-- Node14&#45;&gt;Node11 -->
<g id="edge13" class="edge"><title>Node14&#45;&gt;Node11</title>
<path fill="none" stroke="#9a32cd" stroke-dasharray="5,2" d="M135.64,-92.8564C145.714,-95.2002 156.192,-97.6594 166,-100 216.747,-112.111 240.999,-93.3465 280,-128 297.032,-143.133 280.931,-160.908 298,-176 303.601,-180.952 310.269,-184.669 317.322,-187.448"/>
<polygon fill="#9a32cd" stroke="#9a32cd" points="136.273,-89.4103 125.74,-90.5598 134.691,-96.2292 136.273,-89.4103"/>
<text text-anchor="middle" x="232" y="-131" font-family="Helvetica,sans-Serif" font-size="10.00"> myColors</text>
</g>
<!-- Node15 -->
<g id="node15" class="node"><title>Node15</title>
<polygon fill="white" stroke="#bfbfbf" points="0,-262 0,-292 166,-292 166,-262 0,-262"/>
<text text-anchor="start" x="8" y="-280" font-family="Helvetica,sans-Serif" font-size="10.00">Map&lt; String, parser.Command</text>
<text text-anchor="middle" x="83" y="-269" font-family="Helvetica,sans-Serif" font-size="10.00">Object &gt;</text>
</g>
<!-- Node15&#45;&gt;Node11 -->
<g id="edge14" class="edge"><title>Node15&#45;&gt;Node11</title>
<path fill="none" stroke="#9a32cd" stroke-dasharray="5,2" d="M176.153,-262.272C209.278,-255.912 246.677,-247.49 280,-237 308.007,-228.184 338.896,-213.982 358.124,-204.57"/>
<polygon fill="#9a32cd" stroke="#9a32cd" points="175.199,-258.89 166.019,-264.179 176.494,-265.769 175.199,-258.89"/>
<text text-anchor="middle" x="232" y="-264" font-family="Helvetica,sans-Serif" font-size="10.00"> myCommands</text>
</g>
<!-- Node16 -->
<g id="node16" class="node"><title>Node16</title>
<g id="a_node16"><a xlink:href="../../de/d1c/classproperties_1_1_stage_properties.html" target="_top" xlink:title="properties.StageProperties">
<polygon fill="white" stroke="black" points="10,-223.5 10,-242.5 156,-242.5 156,-223.5 10,-223.5"/>
<text text-anchor="middle" x="83" y="-230.5" font-family="Helvetica,sans-Serif" font-size="10.00">properties.StageProperties</text>
</a>
</g>
</g>
<!-- Node16&#45;&gt;Node11 -->
<g id="edge15" class="edge"><title>Node16&#45;&gt;Node11</title>
<path fill="none" stroke="#9a32cd" stroke-dasharray="5,2" d="M166.409,-224.008C201.463,-220.008 242.767,-215.062 280,-210 292.242,-208.336 305.329,-206.411 317.802,-204.507"/>
<polygon fill="#9a32cd" stroke="#9a32cd" points="165.763,-220.559 156.221,-225.165 166.552,-227.514 165.763,-220.559"/>
<text text-anchor="middle" x="232" y="-225" font-family="Helvetica,sans-Serif" font-size="10.00"> myStageProperties</text>
</g>
<!-- Node17 -->
<g id="node17" class="node"><title>Node17</title>
<polygon fill="white" stroke="#bfbfbf" points="19,-12.5 19,-31.5 147,-31.5 147,-12.5 19,-12.5"/>
<text text-anchor="middle" x="83" y="-19.5" font-family="Helvetica,sans-Serif" font-size="10.00">Map&lt; String, Double &gt;</text>
</g>
<!-- Node17&#45;&gt;Node1 -->
<g id="edge20" class="edge"><title>Node17&#45;&gt;Node1</title>
<path fill="none" stroke="#9a32cd" stroke-dasharray="5,2" d="M157.057,-13.4605C216.264,-7.27695 301.895,-0 377,-0 377,-0 377,-0 876,-0 921.209,-0 972.112,-15.0732 1001.76,-25.4361"/>
<polygon fill="#9a32cd" stroke="#9a32cd" points="156.629,-9.98618 147.054,-14.5211 157.367,-16.9472 156.629,-9.98618"/>
<text text-anchor="middle" x="642" y="-3" font-family="Helvetica,sans-Serif" font-size="10.00"> myVars</text>
</g>
<!-- Node17&#45;&gt;Node11 -->
<g id="edge16" class="edge"><title>Node17&#45;&gt;Node11</title>
<path fill="none" stroke="#9a32cd" stroke-dasharray="5,2" d="M157.162,-29.2201C198.963,-37.1892 249.062,-53.918 280,-89 306.117,-118.615 270.53,-147.636 298,-176 303.398,-181.573 310.122,-185.629 317.355,-188.561"/>
<polygon fill="#9a32cd" stroke="#9a32cd" points="157.74,-25.7681 147.283,-27.4674 156.517,-32.6605 157.74,-25.7681"/>
<text text-anchor="middle" x="232" y="-92" font-family="Helvetica,sans-Serif" font-size="10.00"> myVariables</text>
</g>
<!-- Node18 -->
<g id="node18" class="node"><title>Node18</title>
<polygon fill="white" stroke="#bfbfbf" points="7,-185.5 7,-204.5 159,-204.5 159,-185.5 7,-185.5"/>
<text text-anchor="middle" x="83" y="-192.5" font-family="Helvetica,sans-Serif" font-size="10.00">Map&lt; Integer, actor.Turtle &gt;</text>
</g>
<!-- Node18&#45;&gt;Node11 -->
<g id="edge17" class="edge"><title>Node18&#45;&gt;Node11</title>
<path fill="none" stroke="#9a32cd" stroke-dasharray="5,2" d="M169.347,-195C216.828,-195 274.754,-195 317.35,-195"/>
<polygon fill="#9a32cd" stroke="#9a32cd" points="169.074,-191.5 159.074,-195 169.074,-198.5 169.074,-191.5"/>
<text text-anchor="middle" x="232" y="-198" font-family="Helvetica,sans-Serif" font-size="10.00"> myTurtles</text>
</g>
<!-- Node19 -->
<g id="node19" class="node"><title>Node19</title>
<polygon fill="white" stroke="#bfbfbf" points="609,-29.5 609,-48.5 675,-48.5 675,-29.5 609,-29.5"/>
<text text-anchor="middle" x="642" y="-36.5" font-family="Helvetica,sans-Serif" font-size="10.00">ScrollPane</text>
</g>
<!-- Node19&#45;&gt;Node2 -->
<g id="edge18" class="edge"><title>Node19&#45;&gt;Node2</title>
<path fill="none" stroke="#9a32cd" stroke-dasharray="5,2" d="M684.97,-45.4422C717.12,-51.1312 762.221,-60.7594 800,-75 821.591,-83.1388 844.719,-96.4681 859.262,-105.481"/>
<polygon fill="#9a32cd" stroke="#9a32cd" points="685.461,-41.9753 675.013,-43.7327 684.277,-48.8744 685.461,-41.9753"/>
<text text-anchor="middle" x="766" y="-78" font-family="Helvetica,sans-Serif" font-size="10.00"> myScrollPane</text>
</g>
<!-- Node20 -->
<g id="node20" class="node"><title>Node20</title>
<polygon fill="white" stroke="#bfbfbf" points="612.5,-181.5 612.5,-200.5 671.5,-200.5 671.5,-181.5 612.5,-181.5"/>
<text text-anchor="middle" x="642" y="-188.5" font-family="Helvetica,sans-Serif" font-size="10.00">GridPane</text>
</g>
<!-- Node20&#45;&gt;Node2 -->
<g id="edge19" class="edge"><title>Node20&#45;&gt;Node2</title>
<path fill="none" stroke="#9a32cd" stroke-dasharray="5,2" d="M681.409,-182.645C713.542,-175.202 760.361,-163.292 800,-149 819.418,-141.999 840.757,-131.925 855.509,-124.56"/>
<polygon fill="#9a32cd" stroke="#9a32cd" points="680.491,-179.265 671.52,-184.903 682.048,-186.09 680.491,-179.265"/>
<text text-anchor="middle" x="766" y="-172" font-family="Helvetica,sans-Serif" font-size="10.00"> myTextPane</text>
</g>
</g>
</svg>
        <g id="navigator" transform="translate(0 0)" fill="#404254">
                <rect fill="#f2f5e9" fill-opacity="0.5" stroke="#606060" stroke-width=".5" x="0" y="0" width="60" height="60"/>
                <use id="zoomplus" xlink:href="#zoomPlus" x="17" y="9" onmousedown="handleZoom(evt,'in')"/>
                <use id="zoomminus" xlink:href="#zoomMin" x="42" y="9" onmousedown="handleZoom(evt,'out')"/>
                <use id="reset" xlink:href="#resetDef" x="30" y="36" onmousedown="handleReset()"/>
                <g id="arrowUp" xlink:href="#dirArrow" transform="translate(30 24)" onmousedown="handlePan(0,-1)">
                  <use xlink:href="#rim" fill="#404040">
                        <set attributeName="fill" to="#808080" begin="arrowUp.mouseover" end="arrowUp.mouseout"/>
                  </use>
                  <path fill="none" stroke="white" stroke-width="1.5" d="M0,-3.0v7 M-2.5,-0.5L0,-3.0L2.5,-0.5"/>
                </g>
                <g id="arrowRight" xlink:href="#dirArrow" transform="rotate(90) translate(36 -43)" onmousedown="handlePan(1,0)">
                  <use xlink:href="#rim" fill="#404040">
                        <set attributeName="fill" to="#808080" begin="arrowRight.mouseover" end="arrowRight.mouseout"/>
                  </use>
                  <path fill="none" stroke="white" stroke-width="1.5" d="M0,-3.0v7 M-2.5,-0.5L0,-3.0L2.5,-0.5"/>
                </g>
                <g id="arrowDown" xlink:href="#dirArrow" transform="rotate(180) translate(-30 -48)" onmousedown="handlePan(0,1)">
                  <use xlink:href="#rim" fill="#404040">
                        <set attributeName="fill" to="#808080" begin="arrowDown.mouseover" end="arrowDown.mouseout"/>
                  </use>
                  <path fill="none" stroke="white" stroke-width="1.5" d="M0,-3.0v7 M-2.5,-0.5L0,-3.0L2.5,-0.5"/>
                </g>
                <g id="arrowLeft" xlink:href="#dirArrow" transform="rotate(270) translate(-36 17)" onmousedown="handlePan(-1,0)">
                  <use xlink:href="#rim" fill="#404040">
                        <set attributeName="fill" to="#808080" begin="arrowLeft.mouseover" end="arrowLeft.mouseout"/>
                  </use>
                  <path fill="none" stroke="white" stroke-width="1.5" d="M0,-3.0v7 M-2.5,-0.5L0,-3.0L2.5,-0.5"/>
                </g>
        </g>
        <svg viewBox="0 0 15 15" width="100%" height="30px" preserveAspectRatio="xMaxYMin meet">
         <g id="arrow_out" transform="scale(0.3 0.3)">
          <a xlink:href="classcomponents_1_1_vars_tab__coll__graph_org.svg" target="_base">
           <rect id="button" ry="5" rx="5" y="6" x="6" height="38" width="38"
                fill="#f2f5e9" fill-opacity="0.5" stroke="#606060" stroke-width="1.0"/>
           <path id="arrow"
             d="M 11.500037,31.436501 C 11.940474,20.09759 22.043105,11.32322 32.158766,21.979434 L 37.068811,17.246167 C 37.068811,17.246167 37.088388,32 37.088388,32 L 22.160133,31.978069 C 22.160133,31.978069 26.997745,27.140456 26.997745,27.140456 C 18.528582,18.264221 13.291696,25.230495 11.500037,31.436501 z"
             style="fill:#404040;"/>
          </a>
         </g>
        </svg>
</svg>
