<?xml version="1.0" encoding="UTF-8" standalone="no"?>
<!DOCTYPE svg PUBLIC "-//W3C//DTD SVG 1.1//EN"
 "http://www.w3.org/Graphics/SVG/1.1/DTD/svg11.dtd">
<!-- Generated by graphviz version 2.36.0 (20140111.2315)
 -->
<!-- Title: features.PenWidthSliderFeature.PenWidthSliderFeature Pages: 1 -->
<svg width="1378pt" height="229pt"
 viewBox="0.00 0.00 1378.00 229.00" xmlns="http://www.w3.org/2000/svg" xmlns:xlink="http://www.w3.org/1999/xlink">
<g id="graph0" class="graph" transform="scale(1 1) rotate(0) translate(4 225)">
<title>features.PenWidthSliderFeature.PenWidthSliderFeature</title>
<polygon fill="white" stroke="none" points="-4,4 -4,-225 1374,-225 1374,4 -4,4"/>
<!-- Node1 -->
<g id="node1" class="node"><title>Node1</title>
<polygon fill="#bfbfbf" stroke="black" points="0,-71 0,-101 170,-101 170,-71 0,-71"/>
<text text-anchor="start" x="8" y="-89" font-family="Helvetica,sans-Serif" font-size="10.00">features.PenWidthSliderFeature.</text>
<text text-anchor="middle" x="85" y="-78" font-family="Helvetica,sans-Serif" font-size="10.00">PenWidthSliderFeature</text>
</g>
<!-- Node2 -->
<g id="node2" class="node"><title>Node2</title>
<g id="a_node2"><a xlink:href="../../d7/da1/classmain_application_1_1_controller.html#a6e9afc2e53e6adb01a2b73794a319b63" target="_top" xlink:title="mainApplication.Controller.parse\lAndEvaluate">
<polygon fill="white" stroke="black" points="206,-71 206,-101 378,-101 378,-71 206,-71"/>
<text text-anchor="start" x="214" y="-89" font-family="Helvetica,sans-Serif" font-size="10.00">mainApplication.Controller.parse</text>
<text text-anchor="middle" x="292" y="-78" font-family="Helvetica,sans-Serif" font-size="10.00">AndEvaluate</text>
</a>
</g>
</g>
<!-- Node1&#45;&gt;Node2 -->
<g id="edge1" class="edge"><title>Node1&#45;&gt;Node2</title>
<path fill="none" stroke="midnightblue" d="M170.269,-86C178.591,-86 187.079,-86 195.503,-86"/>
<polygon fill="midnightblue" stroke="midnightblue" points="195.733,-89.5001 205.732,-86 195.732,-82.5001 195.733,-89.5001"/>
</g>
<!-- Node3 -->
<g id="node3" class="node"><title>Node3</title>
<g id="a_node3"><a xlink:href="../../d6/d95/classparser_1_1_parser.html#a5e98fdfffe49478864dc1b22371d6cb1" target="_top" xlink:title="parser.Parser.parse">
<polygon fill="white" stroke="black" points="442.5,-95.5 442.5,-114.5 551.5,-114.5 551.5,-95.5 442.5,-95.5"/>
<text text-anchor="middle" x="497" y="-102.5" font-family="Helvetica,sans-Serif" font-size="10.00">parser.Parser.parse</text>
</a>
</g>
</g>
<!-- Node2&#45;&gt;Node3 -->
<g id="edge2" class="edge"><title>Node2&#45;&gt;Node3</title>
<path fill="none" stroke="midnightblue" d="M378.208,-93.9751C396.179,-95.6571 414.849,-97.4046 431.886,-98.9992"/>
<polygon fill="midnightblue" stroke="midnightblue" points="431.979,-102.523 442.262,-99.9703 432.631,-95.5535 431.979,-102.523"/>
</g>
<!-- Node13 -->
<g id="node13" class="node"><title>Node13</title>
<g id="a_node13"><a xlink:href="../../de/d19/classworkspace_1_1_workspace.html#a3a9437dc7cd23ecdf0d20e29e577ae9b" target="_top" xlink:title="workspace.Workspace.evaluate">
<polygon fill="white" stroke="black" points="414.5,-57.5 414.5,-76.5 579.5,-76.5 579.5,-57.5 414.5,-57.5"/>
<text text-anchor="middle" x="497" y="-64.5" font-family="Helvetica,sans-Serif" font-size="10.00">workspace.Workspace.evaluate</text>
</a>
</g>
</g>
<!-- Node2&#45;&gt;Node13 -->
<g id="edge14" class="edge"><title>Node2&#45;&gt;Node13</title>
<path fill="none" stroke="midnightblue" d="M378.208,-78.0249C386.786,-77.222 395.524,-76.4041 404.168,-75.5951"/>
<polygon fill="midnightblue" stroke="midnightblue" points="404.626,-79.0677 414.256,-74.6509 403.973,-72.0981 404.626,-79.0677"/>
</g>
<!-- Node4 -->
<g id="node4" class="node"><title>Node4</title>
<g id="a_node4"><a xlink:href="../../d6/d95/classparser_1_1_parser.html#a2fe30e8a728e36fd2626587f059c4b95" target="_top" xlink:title="parser.Parser.makeTree">
<polygon fill="white" stroke="black" points="616,-95.5 616,-114.5 744,-114.5 744,-95.5 616,-95.5"/>
<text text-anchor="middle" x="680" y="-102.5" font-family="Helvetica,sans-Serif" font-size="10.00">parser.Parser.makeTree</text>
</a>
</g>
</g>
<!-- Node3&#45;&gt;Node4 -->
<g id="edge3" class="edge"><title>Node3&#45;&gt;Node4</title>
<path fill="none" stroke="midnightblue" d="M551.816,-105C568.707,-105 587.65,-105 605.653,-105"/>
<polygon fill="midnightblue" stroke="midnightblue" points="605.829,-108.5 615.829,-105 605.829,-101.5 605.829,-108.5"/>
</g>
<!-- Node5 -->
<g id="node5" class="node"><title>Node5</title>
<g id="a_node5"><a xlink:href="../../d6/d95/classparser_1_1_parser.html#ad5386cfbaf84af60512e31503fda19ed" target="_top" xlink:title="parser.Parser.makeNode">
<polygon fill="white" stroke="black" points="808,-193.5 808,-212.5 942,-212.5 942,-193.5 808,-193.5"/>
<text text-anchor="middle" x="875" y="-200.5" font-family="Helvetica,sans-Serif" font-size="10.00">parser.Parser.makeNode</text>
</a>
</g>
</g>
<!-- Node4&#45;&gt;Node5 -->
<g id="edge4" class="edge"><title>Node4&#45;&gt;Node5</title>
<path fill="none" stroke="midnightblue" d="M691.776,-114.665C709.154,-129.781 744.973,-159.04 780,-176 792.178,-181.897 805.882,-186.738 818.983,-190.611"/>
<polygon fill="midnightblue" stroke="midnightblue" points="818.274,-194.047 828.849,-193.384 820.169,-187.308 818.274,-194.047"/>
</g>
<!-- Node7 -->
<g id="node7" class="node"><title>Node7</title>
<g id="a_node7"><a xlink:href="../../d3/dcc/classparser_1_1_node.html#a7dfaaf7e60998705460f304c5d56ca6f" target="_top" xlink:title="parser.Node.getCommand">
<polygon fill="white" stroke="black" points="1226,-114.5 1226,-133.5 1370,-133.5 1370,-114.5 1226,-114.5"/>
<text text-anchor="middle" x="1298" y="-121.5" font-family="Helvetica,sans-Serif" font-size="10.00">parser.Node.getCommand</text>
</a>
</g>
</g>
<!-- Node4&#45;&gt;Node7 -->
<g id="edge6" class="edge"><title>Node4&#45;&gt;Node7</title>
<path fill="none" stroke="midnightblue" d="M699.741,-114.584C719.213,-123.961 750.856,-137.599 780,-143 941.421,-172.916 1135.89,-150.427 1233.93,-135.115"/>
<polygon fill="midnightblue" stroke="midnightblue" points="1234.64,-138.546 1243.97,-133.519 1233.55,-131.632 1234.64,-138.546"/>
</g>
<!-- Node8 -->
<g id="node8" class="node"><title>Node8</title>
<g id="a_node8"><a xlink:href="../../d7/d35/classcommand_1_1_command.html#a81d128e8b4ac11d732d24edcbc5c2a88" target="_top" xlink:title="command.Command.getNumInputs">
<polygon fill="white" stroke="black" points="780,-114.5 780,-133.5 970,-133.5 970,-114.5 780,-114.5"/>
<text text-anchor="middle" x="875" y="-121.5" font-family="Helvetica,sans-Serif" font-size="10.00">command.Command.getNumInputs</text>
</a>
</g>
</g>
<!-- Node4&#45;&gt;Node8 -->
<g id="edge7" class="edge"><title>Node4&#45;&gt;Node8</title>
<path fill="none" stroke="midnightblue" d="M744.195,-111.221C752.413,-112.03 760.998,-112.875 769.668,-113.729"/>
<polygon fill="midnightblue" stroke="midnightblue" points="769.573,-117.236 779.868,-114.733 770.259,-110.27 769.573,-117.236"/>
</g>
<!-- Node10 -->
<g id="node10" class="node"><title>Node10</title>
<g id="a_node10"><a xlink:href="../../d3/dcc/classparser_1_1_node.html#ae9a17458b710c179f741464ca6e9048a" target="_top" xlink:title="parser.Node.addChild">
<polygon fill="white" stroke="black" points="815.5,-76.5 815.5,-95.5 934.5,-95.5 934.5,-76.5 815.5,-76.5"/>
<text text-anchor="middle" x="875" y="-83.5" font-family="Helvetica,sans-Serif" font-size="10.00">parser.Node.addChild</text>
</a>
</g>
</g>
<!-- Node4&#45;&gt;Node10 -->
<g id="edge11" class="edge"><title>Node4&#45;&gt;Node10</title>
<path fill="none" stroke="midnightblue" d="M744.195,-98.7787C763.668,-96.8617 785.202,-94.7418 805.042,-92.7886"/>
<polygon fill="midnightblue" stroke="midnightblue" points="805.633,-96.2474 815.242,-91.7845 804.947,-89.2811 805.633,-96.2474"/>
</g>
<!-- Node11 -->
<g id="node11" class="node"><title>Node11</title>
<g id="a_node11"><a xlink:href="../../d7/d35/classcommand_1_1_command.html#ab994c7989255741306855f258b1c2191" target="_top" xlink:title="command.Command.isList">
<polygon fill="white" stroke="black" points="802,-38.5 802,-57.5 948,-57.5 948,-38.5 802,-38.5"/>
<text text-anchor="middle" x="875" y="-45.5" font-family="Helvetica,sans-Serif" font-size="10.00">command.Command.isList</text>
</a>
</g>
</g>
<!-- Node4&#45;&gt;Node11 -->
<g id="edge12" class="edge"><title>Node4&#45;&gt;Node11</title>
<path fill="none" stroke="midnightblue" d="M702.66,-95.4795C722.48,-87.0594 752.776,-74.916 780,-67 789.255,-64.3089 799.131,-61.8632 808.875,-59.6897"/>
<polygon fill="midnightblue" stroke="midnightblue" points="809.907,-63.0478 818.948,-57.5243 808.436,-56.2041 809.907,-63.0478"/>
</g>
<!-- Node12 -->
<g id="node12" class="node"><title>Node12</title>
<g id="a_node12"><a xlink:href="../../d7/d35/classcommand_1_1_command.html#ac2df873d4926bc6e08dba8c6272cff7e" target="_top" xlink:title="command.Command.toString">
<polygon fill="white" stroke="black" points="795,-0.5 795,-19.5 955,-19.5 955,-0.5 795,-0.5"/>
<text text-anchor="middle" x="875" y="-7.5" font-family="Helvetica,sans-Serif" font-size="10.00">command.Command.toString</text>
</a>
</g>
</g>
<!-- Node4&#45;&gt;Node12 -->
<g id="edge13" class="edge"><title>Node4&#45;&gt;Node12</title>
<path fill="none" stroke="midnightblue" d="M690.396,-95.3334C706.912,-78.9513 742.923,-45.8734 780,-29 785.437,-26.5259 791.195,-24.3721 797.079,-22.4974"/>
<polygon fill="midnightblue" stroke="midnightblue" points="798.437,-25.7478 807.065,-19.5987 796.486,-19.0253 798.437,-25.7478"/>
</g>
<!-- Node6 -->
<g id="node6" class="node"><title>Node6</title>
<g id="a_node6"><a xlink:href="../../d1/dd5/classparser_1_1_command_factory.html#a6907bbeefbe406c17766a1e350fc359f" target="_top" xlink:title="parser.CommandFactory.create\lCommand">
<polygon fill="white" stroke="black" points="1014.5,-191 1014.5,-221 1181.5,-221 1181.5,-191 1014.5,-191"/>
<text text-anchor="start" x="1022.5" y="-209" font-family="Helvetica,sans-Serif" font-size="10.00">parser.CommandFactory.create</text>
<text text-anchor="middle" x="1098" y="-198" font-family="Helvetica,sans-Serif" font-size="10.00">Command</text>
</a>
</g>
</g>
<!-- Node5&#45;&gt;Node6 -->
<g id="edge5" class="edge"><title>Node5&#45;&gt;Node6</title>
<path fill="none" stroke="midnightblue" d="M942.008,-203.896C961.573,-204.162 983.373,-204.458 1004.3,-204.742"/>
<polygon fill="midnightblue" stroke="midnightblue" points="1004.44,-208.244 1014.49,-204.88 1004.53,-201.244 1004.44,-208.244"/>
</g>
<!-- Node8&#45;&gt;Node7 -->
<g id="edge10" class="edge"><title>Node8&#45;&gt;Node7</title>
<path fill="none" stroke="midnightblue" d="M970.218,-124C1044.03,-124 1145.64,-124 1215.87,-124"/>
<polygon fill="midnightblue" stroke="midnightblue" points="1216,-127.5 1226,-124 1216,-120.5 1216,-127.5"/>
</g>
<!-- Node9 -->
<g id="node9" class="node"><title>Node9</title>
<g id="a_node9"><a xlink:href="../../d7/d35/classcommand_1_1_command.html#a30463654f906e5bcf507ab33bd5d8bff" target="_top" xlink:title="command.Command.checkListExit">
<polygon fill="white" stroke="black" points="1006.5,-76.5 1006.5,-95.5 1189.5,-95.5 1189.5,-76.5 1006.5,-76.5"/>
<text text-anchor="middle" x="1098" y="-83.5" font-family="Helvetica,sans-Serif" font-size="10.00">command.Command.checkListExit</text>
</a>
</g>
</g>
<!-- Node8&#45;&gt;Node9 -->
<g id="edge8" class="edge"><title>Node8&#45;&gt;Node9</title>
<path fill="none" stroke="midnightblue" d="M931.482,-114.46C961.826,-109.243 999.6,-102.747 1031.4,-97.28"/>
<polygon fill="midnightblue" stroke="midnightblue" points="1032.23,-100.688 1041.49,-95.5439 1031.05,-93.7892 1032.23,-100.688"/>
</g>
<!-- Node9&#45;&gt;Node7 -->
<g id="edge9" class="edge"><title>Node9&#45;&gt;Node7</title>
<path fill="none" stroke="midnightblue" d="M1148.71,-95.54C1175.54,-100.69 1208.86,-107.084 1237.11,-112.506"/>
<polygon fill="midnightblue" stroke="midnightblue" points="1236.79,-116.009 1247.27,-114.456 1238.11,-109.134 1236.79,-116.009"/>
</g>
</g>
</svg>
