<?xml version="1.0" encoding="UTF-8" standalone="no"?>
<!DOCTYPE svg PUBLIC "-//W3C//DTD SVG 1.1//EN"
 "http://www.w3.org/Graphics/SVG/1.1/DTD/svg11.dtd">
<!-- Generated by graphviz version 2.36.0 (20140111.2315)
 -->
<!-- Title: components.VarsTab.setTabEditable Pages: 1 -->
<!--zoomable 229 -->
<svg id="main" version="1.1" xmlns="http://www.w3.org/2000/svg" xmlns:xlink="http://www.w3.org/1999/xlink" xml:space="preserve" onload="init(evt)">
<style type="text/css"><![CDATA[
.edge:hover path { stroke: red; }
.edge:hover polygon { stroke: red; fill: red; }
]]></style>
<script type="text/javascript"><![CDATA[
var edges = document.getElementsByTagName('g');
if (edges && edges.length) {
  for (var i=0;i<edges.length;i++) {
    if (edges[i].id.substr(0,4)=='edge') {
      edges[i].setAttribute('class','edge');
    }
  }
}
]]></script>
        <defs>
                <circle id="rim" cx="0" cy="0" r="7"/>
                <circle id="rim2" cx="0" cy="0" r="3.5"/>
                <g id="zoomPlus">
                        <use xlink:href="#rim" fill="#404040">
                                <set attributeName="fill" to="#808080" begin="zoomplus.mouseover" end="zoomplus.mouseout"/>
                        </use>
                        <path d="M-4,0h8M0,-4v8" fill="none" stroke="white" stroke-width="1.5" pointer-events="none"/>
                </g>
                <g id="zoomMin">
                        <use xlink:href="#rim" fill="#404040">
                                <set attributeName="fill" to="#808080" begin="zoomminus.mouseover" end="zoomminus.mouseout"/>
                        </use>
                        <path d="M-4,0h8" fill="none" stroke="white" stroke-width="1.5" pointer-events="none"/>
                </g>
                <g id="dirArrow">
                        <path fill="none" stroke="white" stroke-width="1.5" d="M0,-3.0v7 M-2.5,-0.5L0,-3.0L2.5,-0.5"/>
                </g>
               <g id="resetDef">
                       <use xlink:href="#rim2" fill="#404040">
                               <set attributeName="fill" to="#808080" begin="reset.mouseover" end="reset.mouseout"/>
                       </use>
               </g>
        </defs>

<script type="text/javascript">
var viewWidth = 1376;
var viewHeight = 229;
var sectionId = 'dynsection-3';
</script>
<script xlink:href="../../svgpan.js"/>
<svg id="graph" class="graph">
<g id="viewport">
<title>components.VarsTab.setTabEditable</title>
<polygon fill="white" stroke="none" points="-4,4 -4,-225 1372,-225 1372,4 -4,4"/>
<!-- Node1 -->
<g id="node1" class="node"><title>Node1</title>
<polygon fill="#bfbfbf" stroke="black" points="0,-85 0,-115 150,-115 150,-85 0,-85"/>
<text text-anchor="start" x="8" y="-103" font-family="Helvetica,sans-Serif" font-size="10.00">components.VarsTab.setTab</text>
<text text-anchor="middle" x="75" y="-92" font-family="Helvetica,sans-Serif" font-size="10.00">Editable</text>
</g>
<!-- Node2 -->
<g id="node2" class="node"><title>Node2</title>
<g id="a_node2"><a xlink:href="../../d7/da1/classmain_application_1_1_controller.html#a133505f3ac4d32291a6017ba7f367fb9" target="_top" xlink:title="mainApplication.Controller.get\lVariables">
<polygon fill="white" stroke="black" points="191.5,-134 191.5,-164 352.5,-164 352.5,-134 191.5,-134"/>
<text text-anchor="start" x="199.5" y="-152" font-family="Helvetica,sans-Serif" font-size="10.00">mainApplication.Controller.get</text>
<text text-anchor="middle" x="272" y="-141" font-family="Helvetica,sans-Serif" font-size="10.00">Variables</text>
</a>
</g>
</g>
<!-- Node1&#45;&gt;Node2 -->
<g id="edge1" class="edge"><title>Node1&#45;&gt;Node2</title>
<path fill="none" stroke="midnightblue" d="M135.832,-115.035C156.608,-120.255 180.081,-126.154 201.567,-131.553"/>
<polygon fill="midnightblue" stroke="midnightblue" points="200.73,-134.951 211.282,-133.994 202.436,-128.162 200.73,-134.951"/>
</g>
<!-- Node4 -->
<g id="node4" class="node"><title>Node4</title>
<g id="a_node4"><a xlink:href="../../d7/da1/classmain_application_1_1_controller.html#a6e9afc2e53e6adb01a2b73794a319b63" target="_top" xlink:title="mainApplication.Controller.parse\lAndEvaluate">
<polygon fill="white" stroke="black" points="186,-85 186,-115 358,-115 358,-85 186,-85"/>
<text text-anchor="start" x="194" y="-103" font-family="Helvetica,sans-Serif" font-size="10.00">mainApplication.Controller.parse</text>
<text text-anchor="middle" x="272" y="-92" font-family="Helvetica,sans-Serif" font-size="10.00">AndEvaluate</text>
</a>
</g>
</g>
<!-- Node1&#45;&gt;Node4 -->
<g id="edge3" class="edge"><title>Node1&#45;&gt;Node4</title>
<path fill="none" stroke="midnightblue" d="M150.277,-100C158.632,-100 167.229,-100 175.801,-100"/>
<polygon fill="midnightblue" stroke="midnightblue" points="175.838,-103.5 185.838,-100 175.838,-96.5001 175.838,-103.5"/>
</g>
<!-- Node16 -->
<g id="node16" class="node"><title>Node16</title>
<g id="a_node16"><a xlink:href="../../d4/d3f/classcomponents_1_1_vars_tab.html#a6a1e0aa3f87fc6dc30138d7a2b6cd1b7" target="_top" xlink:title="components.VarsTab.update">
<polygon fill="white" stroke="black" points="195.5,-46.5 195.5,-65.5 348.5,-65.5 348.5,-46.5 195.5,-46.5"/>
<text text-anchor="middle" x="272" y="-53.5" font-family="Helvetica,sans-Serif" font-size="10.00">components.VarsTab.update</text>
</a>
</g>
</g>
<!-- Node1&#45;&gt;Node16 -->
<g id="edge17" class="edge"><title>Node1&#45;&gt;Node16</title>
<path fill="none" stroke="midnightblue" d="M142.563,-84.9808C167.567,-79.3388 195.599,-73.0136 219.08,-67.7153"/>
<polygon fill="midnightblue" stroke="midnightblue" points="219.858,-71.1277 228.843,-65.5124 218.318,-64.2994 219.858,-71.1277"/>
</g>
<!-- Node3 -->
<g id="node3" class="node"><title>Node3</title>
<g id="a_node3"><a xlink:href="../../de/d19/classworkspace_1_1_workspace.html#a85d7692f63e805af8424da4116f233fa" target="_top" xlink:title="workspace.Workspace.getVariables">
<polygon fill="white" stroke="black" points="394.5,-139.5 394.5,-158.5 577.5,-158.5 577.5,-139.5 394.5,-139.5"/>
<text text-anchor="middle" x="486" y="-146.5" font-family="Helvetica,sans-Serif" font-size="10.00">workspace.Workspace.getVariables</text>
</a>
</g>
</g>
<!-- Node2&#45;&gt;Node3 -->
<g id="edge2" class="edge"><title>Node2&#45;&gt;Node3</title>
<path fill="none" stroke="midnightblue" d="M352.544,-149C362.872,-149 373.559,-149 384.176,-149"/>
<polygon fill="midnightblue" stroke="midnightblue" points="384.319,-152.5 394.319,-149 384.319,-145.5 384.319,-152.5"/>
</g>
<!-- Node5 -->
<g id="node5" class="node"><title>Node5</title>
<g id="a_node5"><a xlink:href="../../d6/d95/classparser_1_1_parser.html#a5e98fdfffe49478864dc1b22371d6cb1" target="_top" xlink:title="parser.Parser.parse">
<polygon fill="white" stroke="black" points="431.5,-95.5 431.5,-114.5 540.5,-114.5 540.5,-95.5 431.5,-95.5"/>
<text text-anchor="middle" x="486" y="-102.5" font-family="Helvetica,sans-Serif" font-size="10.00">parser.Parser.parse</text>
</a>
</g>
</g>
<!-- Node4&#45;&gt;Node5 -->
<g id="edge4" class="edge"><title>Node4&#45;&gt;Node5</title>
<path fill="none" stroke="midnightblue" d="M358.007,-102.005C379.098,-102.502 401.343,-103.027 421.221,-103.496"/>
<polygon fill="midnightblue" stroke="midnightblue" points="421.302,-106.999 431.381,-103.735 421.467,-100.001 421.302,-106.999"/>
</g>
<!-- Node15 -->
<g id="node15" class="node"><title>Node15</title>
<g id="a_node15"><a xlink:href="../../de/d19/classworkspace_1_1_workspace.html#a3a9437dc7cd23ecdf0d20e29e577ae9b" target="_top" xlink:title="workspace.Workspace.evaluate">
<polygon fill="white" stroke="black" points="403.5,-57.5 403.5,-76.5 568.5,-76.5 568.5,-57.5 403.5,-57.5"/>
<text text-anchor="middle" x="486" y="-64.5" font-family="Helvetica,sans-Serif" font-size="10.00">workspace.Workspace.evaluate</text>
</a>
</g>
</g>
<!-- Node4&#45;&gt;Node15 -->
<g id="edge16" class="edge"><title>Node4&#45;&gt;Node15</title>
<path fill="none" stroke="midnightblue" d="M358.007,-86.7678C376.4,-83.9048 395.671,-80.9051 413.483,-78.1323"/>
<polygon fill="midnightblue" stroke="midnightblue" points="414.443,-81.5252 423.785,-76.5287 413.366,-74.6085 414.443,-81.5252"/>
</g>
<!-- Node6 -->
<g id="node6" class="node"><title>Node6</title>
<g id="a_node6"><a xlink:href="../../d6/d95/classparser_1_1_parser.html#a2fe30e8a728e36fd2626587f059c4b95" target="_top" xlink:title="parser.Parser.makeTree">
<polygon fill="white" stroke="black" points="614,-95.5 614,-114.5 742,-114.5 742,-95.5 614,-95.5"/>
<text text-anchor="middle" x="678" y="-102.5" font-family="Helvetica,sans-Serif" font-size="10.00">parser.Parser.makeTree</text>
</a>
</g>
</g>
<!-- Node5&#45;&gt;Node6 -->
<g id="edge5" class="edge"><title>Node5&#45;&gt;Node6</title>
<path fill="none" stroke="midnightblue" d="M540.685,-105C560.206,-105 582.617,-105 603.554,-105"/>
<polygon fill="midnightblue" stroke="midnightblue" points="603.695,-108.5 613.695,-105 603.695,-101.5 603.695,-108.5"/>
</g>
<!-- Node7 -->
<g id="node7" class="node"><title>Node7</title>
<g id="a_node7"><a xlink:href="../../d6/d95/classparser_1_1_parser.html#ad5386cfbaf84af60512e31503fda19ed" target="_top" xlink:title="parser.Parser.makeNode">
<polygon fill="white" stroke="black" points="806,-193.5 806,-212.5 940,-212.5 940,-193.5 806,-193.5"/>
<text text-anchor="middle" x="873" y="-200.5" font-family="Helvetica,sans-Serif" font-size="10.00">parser.Parser.makeNode</text>
</a>
</g>
</g>
<!-- Node6&#45;&gt;Node7 -->
<g id="edge6" class="edge"><title>Node6&#45;&gt;Node7</title>
<path fill="none" stroke="midnightblue" d="M689.776,-114.665C707.154,-129.781 742.973,-159.04 778,-176 790.178,-181.897 803.882,-186.738 816.983,-190.611"/>
<polygon fill="midnightblue" stroke="midnightblue" points="816.274,-194.047 826.849,-193.384 818.169,-187.308 816.274,-194.047"/>
</g>
<!-- Node9 -->
<g id="node9" class="node"><title>Node9</title>
<g id="a_node9"><a xlink:href="../../d3/dcc/classparser_1_1_node.html#a7dfaaf7e60998705460f304c5d56ca6f" target="_top" xlink:title="parser.Node.getCommand">
<polygon fill="white" stroke="black" points="1224,-114.5 1224,-133.5 1368,-133.5 1368,-114.5 1224,-114.5"/>
<text text-anchor="middle" x="1296" y="-121.5" font-family="Helvetica,sans-Serif" font-size="10.00">parser.Node.getCommand</text>
</a>
</g>
</g>
<!-- Node6&#45;&gt;Node9 -->
<g id="edge8" class="edge"><title>Node6&#45;&gt;Node9</title>
<path fill="none" stroke="midnightblue" d="M697.741,-114.584C717.213,-123.961 748.856,-137.599 778,-143 939.421,-172.916 1133.89,-150.427 1231.93,-135.115"/>
<polygon fill="midnightblue" stroke="midnightblue" points="1232.64,-138.546 1241.97,-133.519 1231.55,-131.632 1232.64,-138.546"/>
</g>
<!-- Node10 -->
<g id="node10" class="node"><title>Node10</title>
<g id="a_node10"><a xlink:href="../../d7/d35/classcommand_1_1_command.html#a81d128e8b4ac11d732d24edcbc5c2a88" target="_top" xlink:title="command.Command.getNumInputs">
<polygon fill="white" stroke="black" points="778,-114.5 778,-133.5 968,-133.5 968,-114.5 778,-114.5"/>
<text text-anchor="middle" x="873" y="-121.5" font-family="Helvetica,sans-Serif" font-size="10.00">command.Command.getNumInputs</text>
</a>
</g>
</g>
<!-- Node6&#45;&gt;Node10 -->
<g id="edge9" class="edge"><title>Node6&#45;&gt;Node10</title>
<path fill="none" stroke="midnightblue" d="M742.195,-111.221C750.413,-112.03 758.998,-112.875 767.668,-113.729"/>
<polygon fill="midnightblue" stroke="midnightblue" points="767.573,-117.236 777.868,-114.733 768.259,-110.27 767.573,-117.236"/>
</g>
<!-- Node12 -->
<g id="node12" class="node"><title>Node12</title>
<g id="a_node12"><a xlink:href="../../d3/dcc/classparser_1_1_node.html#ae9a17458b710c179f741464ca6e9048a" target="_top" xlink:title="parser.Node.addChild">
<polygon fill="white" stroke="black" points="813.5,-76.5 813.5,-95.5 932.5,-95.5 932.5,-76.5 813.5,-76.5"/>
<text text-anchor="middle" x="873" y="-83.5" font-family="Helvetica,sans-Serif" font-size="10.00">parser.Node.addChild</text>
</a>
</g>
</g>
<!-- Node6&#45;&gt;Node12 -->
<g id="edge13" class="edge"><title>Node6&#45;&gt;Node12</title>
<path fill="none" stroke="midnightblue" d="M742.195,-98.7787C761.668,-96.8617 783.202,-94.7418 803.042,-92.7886"/>
<polygon fill="midnightblue" stroke="midnightblue" points="803.633,-96.2474 813.242,-91.7845 802.947,-89.2811 803.633,-96.2474"/>
</g>
<!-- Node13 -->
<g id="node13" class="node"><title>Node13</title>
<g id="a_node13"><a xlink:href="../../d7/d35/classcommand_1_1_command.html#ab994c7989255741306855f258b1c2191" target="_top" xlink:title="command.Command.isList">
<polygon fill="white" stroke="black" points="800,-38.5 800,-57.5 946,-57.5 946,-38.5 800,-38.5"/>
<text text-anchor="middle" x="873" y="-45.5" font-family="Helvetica,sans-Serif" font-size="10.00">command.Command.isList</text>
</a>
</g>
</g>
<!-- Node6&#45;&gt;Node13 -->
<g id="edge14" class="edge"><title>Node6&#45;&gt;Node13</title>
<path fill="none" stroke="midnightblue" d="M700.66,-95.4795C720.48,-87.0594 750.776,-74.916 778,-67 787.255,-64.3089 797.131,-61.8632 806.875,-59.6897"/>
<polygon fill="midnightblue" stroke="midnightblue" points="807.907,-63.0478 816.948,-57.5243 806.436,-56.2041 807.907,-63.0478"/>
</g>
<!-- Node14 -->
<g id="node14" class="node"><title>Node14</title>
<g id="a_node14"><a xlink:href="../../d7/d35/classcommand_1_1_command.html#ac2df873d4926bc6e08dba8c6272cff7e" target="_top" xlink:title="command.Command.toString">
<polygon fill="white" stroke="black" points="793,-0.5 793,-19.5 953,-19.5 953,-0.5 793,-0.5"/>
<text text-anchor="middle" x="873" y="-7.5" font-family="Helvetica,sans-Serif" font-size="10.00">command.Command.toString</text>
</a>
</g>
</g>
<!-- Node6&#45;&gt;Node14 -->
<g id="edge15" class="edge"><title>Node6&#45;&gt;Node14</title>
<path fill="none" stroke="midnightblue" d="M688.396,-95.3334C704.912,-78.9513 740.923,-45.8734 778,-29 783.437,-26.5259 789.195,-24.3721 795.079,-22.4974"/>
<polygon fill="midnightblue" stroke="midnightblue" points="796.437,-25.7478 805.065,-19.5987 794.486,-19.0253 796.437,-25.7478"/>
</g>
<!-- Node8 -->
<g id="node8" class="node"><title>Node8</title>
<g id="a_node8"><a xlink:href="../../d1/dd5/classparser_1_1_command_factory.html#a6907bbeefbe406c17766a1e350fc359f" target="_top" xlink:title="parser.CommandFactory.create\lCommand">
<polygon fill="white" stroke="black" points="1012.5,-191 1012.5,-221 1179.5,-221 1179.5,-191 1012.5,-191"/>
<text text-anchor="start" x="1020.5" y="-209" font-family="Helvetica,sans-Serif" font-size="10.00">parser.CommandFactory.create</text>
<text text-anchor="middle" x="1096" y="-198" font-family="Helvetica,sans-Serif" font-size="10.00">Command</text>
</a>
</g>
</g>
<!-- Node7&#45;&gt;Node8 -->
<g id="edge7" class="edge"><title>Node7&#45;&gt;Node8</title>
<path fill="none" stroke="midnightblue" d="M940.008,-203.896C959.573,-204.162 981.373,-204.458 1002.3,-204.742"/>
<polygon fill="midnightblue" stroke="midnightblue" points="1002.44,-208.244 1012.49,-204.88 1002.53,-201.244 1002.44,-208.244"/>
</g>
<!-- Node10&#45;&gt;Node9 -->
<g id="edge12" class="edge"><title>Node10&#45;&gt;Node9</title>
<path fill="none" stroke="midnightblue" d="M968.218,-124C1042.03,-124 1143.64,-124 1213.87,-124"/>
<polygon fill="midnightblue" stroke="midnightblue" points="1214,-127.5 1224,-124 1214,-120.5 1214,-127.5"/>
</g>
<!-- Node11 -->
<g id="node11" class="node"><title>Node11</title>
<g id="a_node11"><a xlink:href="../../d7/d35/classcommand_1_1_command.html#a30463654f906e5bcf507ab33bd5d8bff" target="_top" xlink:title="command.Command.checkListExit">
<polygon fill="white" stroke="black" points="1004.5,-76.5 1004.5,-95.5 1187.5,-95.5 1187.5,-76.5 1004.5,-76.5"/>
<text text-anchor="middle" x="1096" y="-83.5" font-family="Helvetica,sans-Serif" font-size="10.00">command.Command.checkListExit</text>
</a>
</g>
</g>
<!-- Node10&#45;&gt;Node11 -->
<g id="edge10" class="edge"><title>Node10&#45;&gt;Node11</title>
<path fill="none" stroke="midnightblue" d="M929.482,-114.46C959.826,-109.243 997.6,-102.747 1029.4,-97.28"/>
<polygon fill="midnightblue" stroke="midnightblue" points="1030.23,-100.688 1039.49,-95.5439 1029.05,-93.7892 1030.23,-100.688"/>
</g>
<!-- Node11&#45;&gt;Node9 -->
<g id="edge11" class="edge"><title>Node11&#45;&gt;Node9</title>
<path fill="none" stroke="midnightblue" d="M1146.71,-95.54C1173.54,-100.69 1206.86,-107.084 1235.11,-112.506"/>
<polygon fill="midnightblue" stroke="midnightblue" points="1234.79,-116.009 1245.27,-114.456 1236.11,-109.134 1234.79,-116.009"/>
</g>
</g>
</svg>
        <g id="navigator" transform="translate(0 0)" fill="#404254">
                <rect fill="#f2f5e9" fill-opacity="0.5" stroke="#606060" stroke-width=".5" x="0" y="0" width="60" height="60"/>
                <use id="zoomplus" xlink:href="#zoomPlus" x="17" y="9" onmousedown="handleZoom(evt,'in')"/>
                <use id="zoomminus" xlink:href="#zoomMin" x="42" y="9" onmousedown="handleZoom(evt,'out')"/>
                <use id="reset" xlink:href="#resetDef" x="30" y="36" onmousedown="handleReset()"/>
                <g id="arrowUp" xlink:href="#dirArrow" transform="translate(30 24)" onmousedown="handlePan(0,-1)">
                  <use xlink:href="#rim" fill="#404040">
                        <set attributeName="fill" to="#808080" begin="arrowUp.mouseover" end="arrowUp.mouseout"/>
                  </use>
                  <path fill="none" stroke="white" stroke-width="1.5" d="M0,-3.0v7 M-2.5,-0.5L0,-3.0L2.5,-0.5"/>
                </g>
                <g id="arrowRight" xlink:href="#dirArrow" transform="rotate(90) translate(36 -43)" onmousedown="handlePan(1,0)">
                  <use xlink:href="#rim" fill="#404040">
                        <set attributeName="fill" to="#808080" begin="arrowRight.mouseover" end="arrowRight.mouseout"/>
                  </use>
                  <path fill="none" stroke="white" stroke-width="1.5" d="M0,-3.0v7 M-2.5,-0.5L0,-3.0L2.5,-0.5"/>
                </g>
                <g id="arrowDown" xlink:href="#dirArrow" transform="rotate(180) translate(-30 -48)" onmousedown="handlePan(0,1)">
                  <use xlink:href="#rim" fill="#404040">
                        <set attributeName="fill" to="#808080" begin="arrowDown.mouseover" end="arrowDown.mouseout"/>
                  </use>
                  <path fill="none" stroke="white" stroke-width="1.5" d="M0,-3.0v7 M-2.5,-0.5L0,-3.0L2.5,-0.5"/>
                </g>
                <g id="arrowLeft" xlink:href="#dirArrow" transform="rotate(270) translate(-36 17)" onmousedown="handlePan(-1,0)">
                  <use xlink:href="#rim" fill="#404040">
                        <set attributeName="fill" to="#808080" begin="arrowLeft.mouseover" end="arrowLeft.mouseout"/>
                  </use>
                  <path fill="none" stroke="white" stroke-width="1.5" d="M0,-3.0v7 M-2.5,-0.5L0,-3.0L2.5,-0.5"/>
                </g>
        </g>
        <svg viewBox="0 0 15 15" width="100%" height="30px" preserveAspectRatio="xMaxYMin meet">
         <g id="arrow_out" transform="scale(0.3 0.3)">
          <a xlink:href="classcomponents_1_1_vars_tab_aa51dee8d24322ee37e4399858794ee8b_cgraph_org.svg" target="_base">
           <rect id="button" ry="5" rx="5" y="6" x="6" height="38" width="38"
                fill="#f2f5e9" fill-opacity="0.5" stroke="#606060" stroke-width="1.0"/>
           <path id="arrow"
             d="M 11.500037,31.436501 C 11.940474,20.09759 22.043105,11.32322 32.158766,21.979434 L 37.068811,17.246167 C 37.068811,17.246167 37.088388,32 37.088388,32 L 22.160133,31.978069 C 22.160133,31.978069 26.997745,27.140456 26.997745,27.140456 C 18.528582,18.264221 13.291696,25.230495 11.500037,31.436501 z"
             style="fill:#404040;"/>
          </a>
         </g>
        </svg>
</svg>
