<?xml version="1.0" encoding="UTF-8" standalone="no"?>
<!DOCTYPE svg PUBLIC "-//W3C//DTD SVG 1.1//EN"
 "http://www.w3.org/Graphics/SVG/1.1/DTD/svg11.dtd">
<!-- Generated by graphviz version 2.36.0 (20140111.2315)
 -->
<!-- Title: components.VarsTab.VarsTab Pages: 1 -->
<svg width="1568pt" height="247pt"
 viewBox="0.00 0.00 1568.00 247.00" xmlns="http://www.w3.org/2000/svg" xmlns:xlink="http://www.w3.org/1999/xlink">
<g id="graph0" class="graph" transform="scale(1 1) rotate(0) translate(4 243)">
<title>components.VarsTab.VarsTab</title>
<polygon fill="white" stroke="none" points="-4,4 -4,-243 1564,-243 1564,4 -4,4"/>
<!-- Node1 -->
<g id="node1" class="node"><title>Node1</title>
<polygon fill="#bfbfbf" stroke="black" points="0,-49.5 0,-68.5 156,-68.5 156,-49.5 0,-49.5"/>
<text text-anchor="middle" x="78" y="-56.5" font-family="Helvetica,sans-Serif" font-size="10.00">components.VarsTab.VarsTab</text>
</g>
<!-- Node2 -->
<g id="node2" class="node"><title>Node2</title>
<g id="a_node2"><a xlink:href="../../d4/d3f/classcomponents_1_1_vars_tab.html#aa51dee8d24322ee37e4399858794ee8b" target="_top" xlink:title="components.VarsTab.setTab\lEditable">
<polygon fill="white" stroke="black" points="192,-44 192,-74 342,-74 342,-44 192,-44"/>
<text text-anchor="start" x="200" y="-62" font-family="Helvetica,sans-Serif" font-size="10.00">components.VarsTab.setTab</text>
<text text-anchor="middle" x="267" y="-51" font-family="Helvetica,sans-Serif" font-size="10.00">Editable</text>
</a>
</g>
</g>
<!-- Node1&#45;&gt;Node2 -->
<g id="edge1" class="edge"><title>Node1&#45;&gt;Node2</title>
<path fill="none" stroke="midnightblue" d="M156.14,-59C164.508,-59 173.057,-59 181.507,-59"/>
<polygon fill="midnightblue" stroke="midnightblue" points="181.746,-62.5001 191.746,-59 181.746,-55.5001 181.746,-62.5001"/>
</g>
<!-- Node3 -->
<g id="node3" class="node"><title>Node3</title>
<g id="a_node3"><a xlink:href="../../d7/da1/classmain_application_1_1_controller.html#a6e9afc2e53e6adb01a2b73794a319b63" target="_top" xlink:title="mainApplication.Controller.parse\lAndEvaluate">
<polygon fill="white" stroke="black" points="378,-88 378,-118 550,-118 550,-88 378,-88"/>
<text text-anchor="start" x="386" y="-106" font-family="Helvetica,sans-Serif" font-size="10.00">mainApplication.Controller.parse</text>
<text text-anchor="middle" x="464" y="-95" font-family="Helvetica,sans-Serif" font-size="10.00">AndEvaluate</text>
</a>
</g>
</g>
<!-- Node2&#45;&gt;Node3 -->
<g id="edge2" class="edge"><title>Node2&#45;&gt;Node3</title>
<path fill="none" stroke="midnightblue" d="M334.563,-74.0192C351.256,-77.786 369.3,-81.8574 386.438,-85.7244"/>
<polygon fill="midnightblue" stroke="midnightblue" points="385.881,-89.1868 396.407,-87.9738 387.422,-82.3585 385.881,-89.1868"/>
</g>
<!-- Node15 -->
<g id="node15" class="node"><title>Node15</title>
<g id="a_node15"><a xlink:href="../../d4/d3f/classcomponents_1_1_vars_tab.html#a6a1e0aa3f87fc6dc30138d7a2b6cd1b7" target="_top" xlink:title="components.VarsTab.update">
<polygon fill="white" stroke="black" points="387.5,-49.5 387.5,-68.5 540.5,-68.5 540.5,-49.5 387.5,-49.5"/>
<text text-anchor="middle" x="464" y="-56.5" font-family="Helvetica,sans-Serif" font-size="10.00">components.VarsTab.update</text>
</a>
</g>
</g>
<!-- Node2&#45;&gt;Node15 -->
<g id="edge16" class="edge"><title>Node2&#45;&gt;Node15</title>
<path fill="none" stroke="midnightblue" d="M342.277,-59C353.682,-59 365.537,-59 377.167,-59"/>
<polygon fill="midnightblue" stroke="midnightblue" points="377.312,-62.5001 387.312,-59 377.312,-55.5001 377.312,-62.5001"/>
</g>
<!-- Node16 -->
<g id="node16" class="node"><title>Node16</title>
<g id="a_node16"><a xlink:href="../../d7/da1/classmain_application_1_1_controller.html#a133505f3ac4d32291a6017ba7f367fb9" target="_top" xlink:title="mainApplication.Controller.get\lVariables">
<polygon fill="white" stroke="black" points="383.5,-0 383.5,-30 544.5,-30 544.5,-0 383.5,-0"/>
<text text-anchor="start" x="391.5" y="-18" font-family="Helvetica,sans-Serif" font-size="10.00">mainApplication.Controller.get</text>
<text text-anchor="middle" x="464" y="-7" font-family="Helvetica,sans-Serif" font-size="10.00">Variables</text>
</a>
</g>
</g>
<!-- Node2&#45;&gt;Node16 -->
<g id="edge17" class="edge"><title>Node2&#45;&gt;Node16</title>
<path fill="none" stroke="midnightblue" d="M334.563,-43.9808C351.256,-40.214 369.3,-36.1426 386.438,-32.2756"/>
<polygon fill="midnightblue" stroke="midnightblue" points="387.422,-35.6415 396.407,-30.0262 385.881,-28.8132 387.422,-35.6415"/>
</g>
<!-- Node4 -->
<g id="node4" class="node"><title>Node4</title>
<g id="a_node4"><a xlink:href="../../d6/d95/classparser_1_1_parser.html#a5e98fdfffe49478864dc1b22371d6cb1" target="_top" xlink:title="parser.Parser.parse">
<polygon fill="white" stroke="black" points="623.5,-112.5 623.5,-131.5 732.5,-131.5 732.5,-112.5 623.5,-112.5"/>
<text text-anchor="middle" x="678" y="-119.5" font-family="Helvetica,sans-Serif" font-size="10.00">parser.Parser.parse</text>
</a>
</g>
</g>
<!-- Node3&#45;&gt;Node4 -->
<g id="edge3" class="edge"><title>Node3&#45;&gt;Node4</title>
<path fill="none" stroke="midnightblue" d="M550.007,-110.619C571.098,-112.509 593.343,-114.502 613.221,-116.284"/>
<polygon fill="midnightblue" stroke="midnightblue" points="613.109,-119.788 623.381,-117.195 613.734,-112.816 613.109,-119.788"/>
</g>
<!-- Node14 -->
<g id="node14" class="node"><title>Node14</title>
<g id="a_node14"><a xlink:href="../../de/d19/classworkspace_1_1_workspace.html#a3a9437dc7cd23ecdf0d20e29e577ae9b" target="_top" xlink:title="workspace.Workspace.evaluate">
<polygon fill="white" stroke="black" points="595.5,-74.5 595.5,-93.5 760.5,-93.5 760.5,-74.5 595.5,-74.5"/>
<text text-anchor="middle" x="678" y="-81.5" font-family="Helvetica,sans-Serif" font-size="10.00">workspace.Workspace.evaluate</text>
</a>
</g>
</g>
<!-- Node3&#45;&gt;Node14 -->
<g id="edge15" class="edge"><title>Node3&#45;&gt;Node14</title>
<path fill="none" stroke="midnightblue" d="M550.007,-95.3815C561.59,-94.3434 573.52,-93.2741 585.216,-92.2259"/>
<polygon fill="midnightblue" stroke="midnightblue" points="585.771,-95.6903 595.419,-91.3115 585.146,-88.7182 585.771,-95.6903"/>
</g>
<!-- Node5 -->
<g id="node5" class="node"><title>Node5</title>
<g id="a_node5"><a xlink:href="../../d6/d95/classparser_1_1_parser.html#a2fe30e8a728e36fd2626587f059c4b95" target="_top" xlink:title="parser.Parser.makeTree">
<polygon fill="white" stroke="black" points="806,-112.5 806,-131.5 934,-131.5 934,-112.5 806,-112.5"/>
<text text-anchor="middle" x="870" y="-119.5" font-family="Helvetica,sans-Serif" font-size="10.00">parser.Parser.makeTree</text>
</a>
</g>
</g>
<!-- Node4&#45;&gt;Node5 -->
<g id="edge4" class="edge"><title>Node4&#45;&gt;Node5</title>
<path fill="none" stroke="midnightblue" d="M732.685,-122C752.206,-122 774.617,-122 795.554,-122"/>
<polygon fill="midnightblue" stroke="midnightblue" points="795.695,-125.5 805.695,-122 795.695,-118.5 795.695,-125.5"/>
</g>
<!-- Node6 -->
<g id="node6" class="node"><title>Node6</title>
<g id="a_node6"><a xlink:href="../../d6/d95/classparser_1_1_parser.html#ad5386cfbaf84af60512e31503fda19ed" target="_top" xlink:title="parser.Parser.makeNode">
<polygon fill="white" stroke="black" points="998,-210.5 998,-229.5 1132,-229.5 1132,-210.5 998,-210.5"/>
<text text-anchor="middle" x="1065" y="-217.5" font-family="Helvetica,sans-Serif" font-size="10.00">parser.Parser.makeNode</text>
</a>
</g>
</g>
<!-- Node5&#45;&gt;Node6 -->
<g id="edge5" class="edge"><title>Node5&#45;&gt;Node6</title>
<path fill="none" stroke="midnightblue" d="M881.776,-131.665C899.154,-146.781 934.973,-176.04 970,-193 982.178,-198.897 995.882,-203.738 1008.98,-207.611"/>
<polygon fill="midnightblue" stroke="midnightblue" points="1008.27,-211.047 1018.85,-210.384 1010.17,-204.308 1008.27,-211.047"/>
</g>
<!-- Node8 -->
<g id="node8" class="node"><title>Node8</title>
<g id="a_node8"><a xlink:href="../../d3/dcc/classparser_1_1_node.html#a7dfaaf7e60998705460f304c5d56ca6f" target="_top" xlink:title="parser.Node.getCommand">
<polygon fill="white" stroke="black" points="1416,-131.5 1416,-150.5 1560,-150.5 1560,-131.5 1416,-131.5"/>
<text text-anchor="middle" x="1488" y="-138.5" font-family="Helvetica,sans-Serif" font-size="10.00">parser.Node.getCommand</text>
</a>
</g>
</g>
<!-- Node5&#45;&gt;Node8 -->
<g id="edge7" class="edge"><title>Node5&#45;&gt;Node8</title>
<path fill="none" stroke="midnightblue" d="M889.741,-131.584C909.213,-140.961 940.856,-154.599 970,-160 1131.42,-189.916 1325.89,-167.427 1423.93,-152.115"/>
<polygon fill="midnightblue" stroke="midnightblue" points="1424.64,-155.546 1433.97,-150.519 1423.55,-148.632 1424.64,-155.546"/>
</g>
<!-- Node9 -->
<g id="node9" class="node"><title>Node9</title>
<g id="a_node9"><a xlink:href="../../d7/d35/classcommand_1_1_command.html#a81d128e8b4ac11d732d24edcbc5c2a88" target="_top" xlink:title="command.Command.getNumInputs">
<polygon fill="white" stroke="black" points="970,-131.5 970,-150.5 1160,-150.5 1160,-131.5 970,-131.5"/>
<text text-anchor="middle" x="1065" y="-138.5" font-family="Helvetica,sans-Serif" font-size="10.00">command.Command.getNumInputs</text>
</a>
</g>
</g>
<!-- Node5&#45;&gt;Node9 -->
<g id="edge8" class="edge"><title>Node5&#45;&gt;Node9</title>
<path fill="none" stroke="midnightblue" d="M934.195,-128.221C942.413,-129.03 950.998,-129.875 959.668,-130.729"/>
<polygon fill="midnightblue" stroke="midnightblue" points="959.573,-134.236 969.868,-131.733 960.259,-127.27 959.573,-134.236"/>
</g>
<!-- Node11 -->
<g id="node11" class="node"><title>Node11</title>
<g id="a_node11"><a xlink:href="../../d3/dcc/classparser_1_1_node.html#ae9a17458b710c179f741464ca6e9048a" target="_top" xlink:title="parser.Node.addChild">
<polygon fill="white" stroke="black" points="1005.5,-93.5 1005.5,-112.5 1124.5,-112.5 1124.5,-93.5 1005.5,-93.5"/>
<text text-anchor="middle" x="1065" y="-100.5" font-family="Helvetica,sans-Serif" font-size="10.00">parser.Node.addChild</text>
</a>
</g>
</g>
<!-- Node5&#45;&gt;Node11 -->
<g id="edge12" class="edge"><title>Node5&#45;&gt;Node11</title>
<path fill="none" stroke="midnightblue" d="M934.195,-115.779C953.668,-113.862 975.202,-111.742 995.042,-109.789"/>
<polygon fill="midnightblue" stroke="midnightblue" points="995.633,-113.247 1005.24,-108.784 994.947,-106.281 995.633,-113.247"/>
</g>
<!-- Node12 -->
<g id="node12" class="node"><title>Node12</title>
<g id="a_node12"><a xlink:href="../../d7/d35/classcommand_1_1_command.html#ab994c7989255741306855f258b1c2191" target="_top" xlink:title="command.Command.isList">
<polygon fill="white" stroke="black" points="992,-55.5 992,-74.5 1138,-74.5 1138,-55.5 992,-55.5"/>
<text text-anchor="middle" x="1065" y="-62.5" font-family="Helvetica,sans-Serif" font-size="10.00">command.Command.isList</text>
</a>
</g>
</g>
<!-- Node5&#45;&gt;Node12 -->
<g id="edge13" class="edge"><title>Node5&#45;&gt;Node12</title>
<path fill="none" stroke="midnightblue" d="M892.66,-112.479C912.48,-104.059 942.776,-91.916 970,-84 979.255,-81.3089 989.131,-78.8632 998.875,-76.6897"/>
<polygon fill="midnightblue" stroke="midnightblue" points="999.907,-80.0478 1008.95,-74.5243 998.436,-73.2041 999.907,-80.0478"/>
</g>
<!-- Node13 -->
<g id="node13" class="node"><title>Node13</title>
<g id="a_node13"><a xlink:href="../../d7/d35/classcommand_1_1_command.html#ac2df873d4926bc6e08dba8c6272cff7e" target="_top" xlink:title="command.Command.toString">
<polygon fill="white" stroke="black" points="985,-17.5 985,-36.5 1145,-36.5 1145,-17.5 985,-17.5"/>
<text text-anchor="middle" x="1065" y="-24.5" font-family="Helvetica,sans-Serif" font-size="10.00">command.Command.toString</text>
</a>
</g>
</g>
<!-- Node5&#45;&gt;Node13 -->
<g id="edge14" class="edge"><title>Node5&#45;&gt;Node13</title>
<path fill="none" stroke="midnightblue" d="M880.396,-112.333C896.912,-95.9513 932.923,-62.8734 970,-46 975.437,-43.5259 981.195,-41.3721 987.079,-39.4974"/>
<polygon fill="midnightblue" stroke="midnightblue" points="988.437,-42.7478 997.065,-36.5987 986.486,-36.0253 988.437,-42.7478"/>
</g>
<!-- Node7 -->
<g id="node7" class="node"><title>Node7</title>
<g id="a_node7"><a xlink:href="../../d1/dd5/classparser_1_1_command_factory.html#a6907bbeefbe406c17766a1e350fc359f" target="_top" xlink:title="parser.CommandFactory.create\lCommand">
<polygon fill="white" stroke="black" points="1204.5,-208 1204.5,-238 1371.5,-238 1371.5,-208 1204.5,-208"/>
<text text-anchor="start" x="1212.5" y="-226" font-family="Helvetica,sans-Serif" font-size="10.00">parser.CommandFactory.create</text>
<text text-anchor="middle" x="1288" y="-215" font-family="Helvetica,sans-Serif" font-size="10.00">Command</text>
</a>
</g>
</g>
<!-- Node6&#45;&gt;Node7 -->
<g id="edge6" class="edge"><title>Node6&#45;&gt;Node7</title>
<path fill="none" stroke="midnightblue" d="M1132.01,-220.896C1151.57,-221.162 1173.37,-221.458 1194.3,-221.742"/>
<polygon fill="midnightblue" stroke="midnightblue" points="1194.44,-225.244 1204.49,-221.88 1194.53,-218.244 1194.44,-225.244"/>
</g>
<!-- Node9&#45;&gt;Node8 -->
<g id="edge11" class="edge"><title>Node9&#45;&gt;Node8</title>
<path fill="none" stroke="midnightblue" d="M1160.22,-141C1234.03,-141 1335.64,-141 1405.87,-141"/>
<polygon fill="midnightblue" stroke="midnightblue" points="1406,-144.5 1416,-141 1406,-137.5 1406,-144.5"/>
</g>
<!-- Node10 -->
<g id="node10" class="node"><title>Node10</title>
<g id="a_node10"><a xlink:href="../../d7/d35/classcommand_1_1_command.html#a30463654f906e5bcf507ab33bd5d8bff" target="_top" xlink:title="command.Command.checkListExit">
<polygon fill="white" stroke="black" points="1196.5,-93.5 1196.5,-112.5 1379.5,-112.5 1379.5,-93.5 1196.5,-93.5"/>
<text text-anchor="middle" x="1288" y="-100.5" font-family="Helvetica,sans-Serif" font-size="10.00">command.Command.checkListExit</text>
</a>
</g>
</g>
<!-- Node9&#45;&gt;Node10 -->
<g id="edge9" class="edge"><title>Node9&#45;&gt;Node10</title>
<path fill="none" stroke="midnightblue" d="M1121.48,-131.46C1151.83,-126.243 1189.6,-119.747 1221.4,-114.28"/>
<polygon fill="midnightblue" stroke="midnightblue" points="1222.23,-117.688 1231.49,-112.544 1221.05,-110.789 1222.23,-117.688"/>
</g>
<!-- Node10&#45;&gt;Node8 -->
<g id="edge10" class="edge"><title>Node10&#45;&gt;Node8</title>
<path fill="none" stroke="midnightblue" d="M1338.71,-112.54C1365.54,-117.69 1398.86,-124.084 1427.11,-129.506"/>
<polygon fill="midnightblue" stroke="midnightblue" points="1426.79,-133.009 1437.27,-131.456 1428.11,-126.134 1426.79,-133.009"/>
</g>
<!-- Node17 -->
<g id="node17" class="node"><title>Node17</title>
<g id="a_node17"><a xlink:href="../../de/d19/classworkspace_1_1_workspace.html#a85d7692f63e805af8424da4116f233fa" target="_top" xlink:title="workspace.Workspace.getVariables">
<polygon fill="white" stroke="black" points="586.5,-5.5 586.5,-24.5 769.5,-24.5 769.5,-5.5 586.5,-5.5"/>
<text text-anchor="middle" x="678" y="-12.5" font-family="Helvetica,sans-Serif" font-size="10.00">workspace.Workspace.getVariables</text>
</a>
</g>
</g>
<!-- Node16&#45;&gt;Node17 -->
<g id="edge18" class="edge"><title>Node16&#45;&gt;Node17</title>
<path fill="none" stroke="midnightblue" d="M544.544,-15C554.872,-15 565.559,-15 576.176,-15"/>
<polygon fill="midnightblue" stroke="midnightblue" points="576.319,-18.5001 586.319,-15 576.319,-11.5001 576.319,-18.5001"/>
</g>
</g>
</svg>
