<?xml version="1.0" encoding="UTF-8" standalone="no"?>
<!DOCTYPE svg PUBLIC "-//W3C//DTD SVG 1.1//EN"
 "http://www.w3.org/Graphics/SVG/1.1/DTD/svg11.dtd">
<!-- Generated by graphviz version 2.36.0 (20140111.2315)
 -->
<!-- Title: features.Pen.drawLine Pages: 1 -->
<svg width="1346pt" height="61pt"
 viewBox="0.00 0.00 1346.00 61.00" xmlns="http://www.w3.org/2000/svg" xmlns:xlink="http://www.w3.org/1999/xlink">
<g id="graph0" class="graph" transform="scale(1 1) rotate(0) translate(4 57)">
<title>features.Pen.drawLine</title>
<polygon fill="white" stroke="none" points="-4,4 -4,-57 1342,-57 1342,4 -4,4"/>
<!-- Node1 -->
<g id="node1" class="node"><title>Node1</title>
<polygon fill="#bfbfbf" stroke="black" points="0,-6.5 0,-25.5 122,-25.5 122,-6.5 0,-6.5"/>
<text text-anchor="middle" x="61" y="-13.5" font-family="Helvetica,sans-Serif" font-size="10.00">features.Pen.drawLine</text>
</g>
<!-- Node2 -->
<g id="node2" class="node"><title>Node2</title>
<g id="a_node2"><a xlink:href="../../dc/d0a/classfeatures_1_1_display_turtle.html#a62391c3999d131300823b851b0f5b90b" target="_top" xlink:title="features.DisplayTurtle.updateLine">
<polygon fill="white" stroke="black" points="158,-6.5 158,-25.5 334,-25.5 334,-6.5 158,-6.5"/>
<text text-anchor="middle" x="246" y="-13.5" font-family="Helvetica,sans-Serif" font-size="10.00">features.DisplayTurtle.updateLine</text>
</a>
</g>
</g>
<!-- Node1&#45;&gt;Node2 -->
<g id="edge1" class="edge"><title>Node1&#45;&gt;Node2</title>
<path fill="none" stroke="midnightblue" d="M132.278,-16C140.681,-16 149.336,-16 157.939,-16"/>
<polygon fill="midnightblue" stroke="midnightblue" points="132.175,-12.5001 122.175,-16 132.174,-19.5001 132.175,-12.5001"/>
</g>
<!-- Node3 -->
<g id="node3" class="node"><title>Node3</title>
<g id="a_node3"><a xlink:href="../../dc/d0a/classfeatures_1_1_display_turtle.html#aac090a97a844a60109816520333f7866" target="_top" xlink:title="features.DisplayTurtle.animate\lTurtlePosition">
<polygon fill="white" stroke="black" points="370,-23 370,-53 532,-53 532,-23 370,-23"/>
<text text-anchor="start" x="378" y="-41" font-family="Helvetica,sans-Serif" font-size="10.00">features.DisplayTurtle.animate</text>
<text text-anchor="middle" x="451" y="-30" font-family="Helvetica,sans-Serif" font-size="10.00">TurtlePosition</text>
</a>
</g>
</g>
<!-- Node2&#45;&gt;Node3 -->
<g id="edge2" class="edge"><title>Node2&#45;&gt;Node3</title>
<path fill="none" stroke="midnightblue" d="M344.29,-26.5437C352.855,-27.4719 361.46,-28.4045 369.86,-29.3149"/>
<polygon fill="midnightblue" stroke="midnightblue" points="344.587,-23.0556 334.268,-25.4577 343.833,-30.0148 344.587,-23.0556"/>
</g>
<!-- Node4 -->
<g id="node4" class="node"><title>Node4</title>
<g id="a_node4"><a xlink:href="../../dc/d0a/classfeatures_1_1_display_turtle.html#a06ca557d3458cbcec4fda12263280cc2" target="_top" xlink:title="features.DisplayTurtle.update\lPosition">
<polygon fill="white" stroke="black" points="568,-1 568,-31 724,-31 724,-1 568,-1"/>
<text text-anchor="start" x="576" y="-19" font-family="Helvetica,sans-Serif" font-size="10.00">features.DisplayTurtle.update</text>
<text text-anchor="middle" x="646" y="-8" font-family="Helvetica,sans-Serif" font-size="10.00">Position</text>
</a>
</g>
</g>
<!-- Node2&#45;&gt;Node4 -->
<g id="edge7" class="edge"><title>Node2&#45;&gt;Node4</title>
<path fill="none" stroke="midnightblue" d="M344.238,-14.2725C352.949,-14.162 361.634,-14.068 370,-14 441.998,-13.4147 460.003,-13.3629 532,-14 543.576,-14.1024 555.818,-14.2639 567.805,-14.4517"/>
<polygon fill="midnightblue" stroke="midnightblue" points="343.969,-10.7757 334.017,-14.4092 344.063,-17.7751 343.969,-10.7757"/>
</g>
<!-- Node3&#45;&gt;Node4 -->
<g id="edge3" class="edge"><title>Node3&#45;&gt;Node4</title>
<path fill="none" stroke="midnightblue" d="M542.198,-27.7184C550.778,-26.7403 559.425,-25.7547 567.865,-24.7925"/>
<polygon fill="midnightblue" stroke="midnightblue" points="541.712,-24.251 532.173,-28.8611 542.505,-31.206 541.712,-24.251"/>
</g>
<!-- Node5 -->
<g id="node5" class="node"><title>Node5</title>
<g id="a_node5"><a xlink:href="../../d6/d68/classcomponents_1_1_turtle_manager.html#aebd8b3f5c5eae3df7add8ce3d690aa47" target="_top" xlink:title="components.TurtleManager.update">
<polygon fill="white" stroke="black" points="760.5,-6.5 760.5,-25.5 943.5,-25.5 943.5,-6.5 760.5,-6.5"/>
<text text-anchor="middle" x="852" y="-13.5" font-family="Helvetica,sans-Serif" font-size="10.00">components.TurtleManager.update</text>
</a>
</g>
</g>
<!-- Node4&#45;&gt;Node5 -->
<g id="edge4" class="edge"><title>Node4&#45;&gt;Node5</title>
<path fill="none" stroke="midnightblue" d="M734.217,-16C742.886,-16 751.7,-16 760.402,-16"/>
<polygon fill="midnightblue" stroke="midnightblue" points="734.124,-12.5001 724.124,-16 734.124,-19.5001 734.124,-12.5001"/>
</g>
<!-- Node6 -->
<g id="node6" class="node"><title>Node6</title>
<g id="a_node6"><a xlink:href="../../da/d5b/classcomponents_1_1_center_pane.html#a97ff274041990d893a5eb4eaefc27ce0" target="_top" xlink:title="components.CenterPane.update\lTurtlePosition">
<polygon fill="white" stroke="black" points="980,-1 980,-31 1152,-31 1152,-1 980,-1"/>
<text text-anchor="start" x="988" y="-19" font-family="Helvetica,sans-Serif" font-size="10.00">components.CenterPane.update</text>
<text text-anchor="middle" x="1066" y="-8" font-family="Helvetica,sans-Serif" font-size="10.00">TurtlePosition</text>
</a>
</g>
</g>
<!-- Node5&#45;&gt;Node6 -->
<g id="edge5" class="edge"><title>Node5&#45;&gt;Node6</title>
<path fill="none" stroke="midnightblue" d="M953.733,-16C962.462,-16 971.238,-16 979.825,-16"/>
<polygon fill="midnightblue" stroke="midnightblue" points="953.522,-12.5001 943.522,-16 953.522,-19.5001 953.522,-12.5001"/>
</g>
<!-- Node7 -->
<g id="node7" class="node"><title>Node7</title>
<g id="a_node7"><a xlink:href="../../d3/de0/classmain_application_1_1_g_u_i.html#ad575c58d2f282f0123d80fb31c11553e" target="_top" xlink:title="mainApplication.GUI.update">
<polygon fill="white" stroke="black" points="1188,-6.5 1188,-25.5 1338,-25.5 1338,-6.5 1188,-6.5"/>
<text text-anchor="middle" x="1263" y="-13.5" font-family="Helvetica,sans-Serif" font-size="10.00">mainApplication.GUI.update</text>
</a>
</g>
</g>
<!-- Node6&#45;&gt;Node7 -->
<g id="edge6" class="edge"><title>Node6&#45;&gt;Node7</title>
<path fill="none" stroke="midnightblue" d="M1162.32,-16C1170.92,-16 1179.55,-16 1187.93,-16"/>
<polygon fill="midnightblue" stroke="midnightblue" points="1162.25,-12.5001 1152.25,-16 1162.25,-19.5001 1162.25,-12.5001"/>
</g>
</g>
</svg>
