<?xml version="1.0" encoding="UTF-8" standalone="no"?>
<!DOCTYPE svg PUBLIC "-//W3C//DTD SVG 1.1//EN"
 "http://www.w3.org/Graphics/SVG/1.1/DTD/svg11.dtd">
<!-- Generated by graphviz version 2.36.0 (20140111.2315)
 -->
<!-- Title: mainApplication.GUIShell.createNewButton Pages: 1 -->
<!--zoomable 428 -->
<svg id="main" version="1.1" xmlns="http://www.w3.org/2000/svg" xmlns:xlink="http://www.w3.org/1999/xlink" xml:space="preserve" onload="init(evt)">
<style type="text/css"><![CDATA[
.edge:hover path { stroke: red; }
.edge:hover polygon { stroke: red; fill: red; }
]]></style>
<script type="text/javascript"><![CDATA[
var edges = document.getElementsByTagName('g');
if (edges && edges.length) {
  for (var i=0;i<edges.length;i++) {
    if (edges[i].id.substr(0,4)=='edge') {
      edges[i].setAttribute('class','edge');
    }
  }
}
]]></script>
        <defs>
                <circle id="rim" cx="0" cy="0" r="7"/>
                <circle id="rim2" cx="0" cy="0" r="3.5"/>
                <g id="zoomPlus">
                        <use xlink:href="#rim" fill="#404040">
                                <set attributeName="fill" to="#808080" begin="zoomplus.mouseover" end="zoomplus.mouseout"/>
                        </use>
                        <path d="M-4,0h8M0,-4v8" fill="none" stroke="white" stroke-width="1.5" pointer-events="none"/>
                </g>
                <g id="zoomMin">
                        <use xlink:href="#rim" fill="#404040">
                                <set attributeName="fill" to="#808080" begin="zoomminus.mouseover" end="zoomminus.mouseout"/>
                        </use>
                        <path d="M-4,0h8" fill="none" stroke="white" stroke-width="1.5" pointer-events="none"/>
                </g>
                <g id="dirArrow">
                        <path fill="none" stroke="white" stroke-width="1.5" d="M0,-3.0v7 M-2.5,-0.5L0,-3.0L2.5,-0.5"/>
                </g>
               <g id="resetDef">
                       <use xlink:href="#rim2" fill="#404040">
                               <set attributeName="fill" to="#808080" begin="reset.mouseover" end="reset.mouseout"/>
                       </use>
               </g>
        </defs>

<script type="text/javascript">
var viewWidth = 1842;
var viewHeight = 428;
var sectionId = 'dynsection-3';
</script>
<script xlink:href="../../svgpan.js"/>
<svg id="graph" class="graph">
<g id="viewport">
<title>mainApplication.GUIShell.createNewButton</title>
<polygon fill="white" stroke="none" points="-4,4 -4,-424 1838,-424 1838,4 -4,4"/>
<!-- Node1 -->
<g id="node1" class="node"><title>Node1</title>
<polygon fill="#bfbfbf" stroke="black" points="0,-285 0,-315 170,-315 170,-285 0,-285"/>
<text text-anchor="start" x="8" y="-303" font-family="Helvetica,sans-Serif" font-size="10.00">mainApplication.GUIShell.create</text>
<text text-anchor="middle" x="85" y="-292" font-family="Helvetica,sans-Serif" font-size="10.00">NewButton</text>
</g>
<!-- Node2 -->
<g id="node2" class="node"><title>Node2</title>
<g id="a_node2"><a xlink:href="../../d3/de0/classmain_application_1_1_g_u_i.html#af6bd387013dbd1d1daf030117da66c0e" target="_top" xlink:title="mainApplication.GUI.initiate">
<polygon fill="white" stroke="black" points="230.5,-328.5 230.5,-347.5 379.5,-347.5 379.5,-328.5 230.5,-328.5"/>
<text text-anchor="middle" x="305" y="-335.5" font-family="Helvetica,sans-Serif" font-size="10.00">mainApplication.GUI.initiate</text>
</a>
</g>
</g>
<!-- Node1&#45;&gt;Node2 -->
<g id="edge1" class="edge"><title>Node1&#45;&gt;Node2</title>
<path fill="none" stroke="midnightblue" d="M170.284,-314.692C193.143,-318.676 217.533,-322.928 239.139,-326.694"/>
<polygon fill="midnightblue" stroke="midnightblue" points="238.725,-330.174 249.177,-328.444 239.927,-323.278 238.725,-330.174"/>
</g>
<!-- Node27 -->
<g id="node27" class="node"><title>Node27</title>
<g id="a_node27"><a xlink:href="../../d7/da1/classmain_application_1_1_controller.html#a3c8a855bb9f69883e28749335a8448aa" target="_top" xlink:title="mainApplication.Controller.removeWS">
<polygon fill="white" stroke="black" points="206.5,-290.5 206.5,-309.5 403.5,-309.5 403.5,-290.5 206.5,-290.5"/>
<text text-anchor="middle" x="305" y="-297.5" font-family="Helvetica,sans-Serif" font-size="10.00">mainApplication.Controller.removeWS</text>
</a>
</g>
</g>
<!-- Node1&#45;&gt;Node27 -->
<g id="edge28" class="edge"><title>Node1&#45;&gt;Node27</title>
<path fill="none" stroke="midnightblue" d="M170.284,-300C178.724,-300 187.372,-300 196.012,-300"/>
<polygon fill="midnightblue" stroke="midnightblue" points="196.137,-303.5 206.137,-300 196.137,-296.5 196.137,-303.5"/>
</g>
<!-- Node28 -->
<g id="node28" class="node"><title>Node28</title>
<g id="a_node28"><a xlink:href="../../d7/da1/classmain_application_1_1_controller.html#a7144249536d1002f84892898a5cc9c71" target="_top" xlink:title="mainApplication.Controller.set\lActive">
<polygon fill="white" stroke="black" points="225,-241 225,-271 385,-271 385,-241 225,-241"/>
<text text-anchor="start" x="233" y="-259" font-family="Helvetica,sans-Serif" font-size="10.00">mainApplication.Controller.set</text>
<text text-anchor="middle" x="305" y="-248" font-family="Helvetica,sans-Serif" font-size="10.00">Active</text>
</a>
</g>
</g>
<!-- Node1&#45;&gt;Node28 -->
<g id="edge29" class="edge"><title>Node1&#45;&gt;Node28</title>
<path fill="none" stroke="midnightblue" d="M160.414,-284.981C179.512,-281.126 200.192,-276.952 219.749,-273.005"/>
<polygon fill="midnightblue" stroke="midnightblue" points="220.442,-276.436 229.552,-271.026 219.057,-269.574 220.442,-276.436"/>
</g>
<!-- Node3 -->
<g id="node3" class="node"><title>Node3</title>
<g id="a_node3"><a xlink:href="../../d7/da1/classmain_application_1_1_controller.html#a14cb8c148061cb04d6968d56f26e4c82" target="_top" xlink:title="mainApplication.Controller.create\lWorkspace">
<polygon fill="white" stroke="black" points="440,-372 440,-402 616,-402 616,-372 440,-372"/>
<text text-anchor="start" x="448" y="-390" font-family="Helvetica,sans-Serif" font-size="10.00">mainApplication.Controller.create</text>
<text text-anchor="middle" x="528" y="-379" font-family="Helvetica,sans-Serif" font-size="10.00">Workspace</text>
</a>
</g>
</g>
<!-- Node2&#45;&gt;Node3 -->
<g id="edge2" class="edge"><title>Node2&#45;&gt;Node3</title>
<path fill="none" stroke="midnightblue" d="M348.873,-347.506C377.32,-353.813 415.484,-362.275 449.188,-369.748"/>
<polygon fill="midnightblue" stroke="midnightblue" points="448.505,-373.181 459.025,-371.929 450.02,-366.347 448.505,-373.181"/>
</g>
<!-- Node6 -->
<g id="node6" class="node"><title>Node6</title>
<g id="a_node6"><a xlink:href="../../d3/de0/classmain_application_1_1_g_u_i.html#a60b2e396c945ac173bfd82f207f42000" target="_top" xlink:title="mainApplication.GUI.initiate\lKeyPress">
<polygon fill="white" stroke="black" points="453.5,-323 453.5,-353 602.5,-353 602.5,-323 453.5,-323"/>
<text text-anchor="start" x="461.5" y="-341" font-family="Helvetica,sans-Serif" font-size="10.00">mainApplication.GUI.initiate</text>
<text text-anchor="middle" x="528" y="-330" font-family="Helvetica,sans-Serif" font-size="10.00">KeyPress</text>
</a>
</g>
</g>
<!-- Node2&#45;&gt;Node6 -->
<g id="edge5" class="edge"><title>Node2&#45;&gt;Node6</title>
<path fill="none" stroke="midnightblue" d="M379.59,-338C399.984,-338 422.274,-338 443.204,-338"/>
<polygon fill="midnightblue" stroke="midnightblue" points="443.355,-341.5 453.355,-338 443.355,-334.5 443.355,-341.5"/>
</g>
<!-- Node19 -->
<g id="node19" class="node"><title>Node19</title>
<g id="a_node19"><a xlink:href="../../d3/de0/classmain_application_1_1_g_u_i.html#a5b9d9bebac3a8ce813b0134ecdafc66d" target="_top" xlink:title="mainApplication.GUI.load\lPanes">
<polygon fill="white" stroke="black" points="459.5,-159 459.5,-189 596.5,-189 596.5,-159 459.5,-159"/>
<text text-anchor="start" x="467.5" y="-177" font-family="Helvetica,sans-Serif" font-size="10.00">mainApplication.GUI.load</text>
<text text-anchor="middle" x="528" y="-166" font-family="Helvetica,sans-Serif" font-size="10.00">Panes</text>
</a>
</g>
</g>
<!-- Node2&#45;&gt;Node19 -->
<g id="edge20" class="edge"><title>Node2&#45;&gt;Node19</title>
<path fill="none" stroke="midnightblue" d="M379.716,-329.392C388.225,-326.768 396.521,-323.376 404,-319 454.568,-289.412 494.139,-231.157 513.656,-198.204"/>
<polygon fill="midnightblue" stroke="midnightblue" points="516.865,-199.647 518.841,-189.238 510.805,-196.143 516.865,-199.647"/>
</g>
<!-- Node4 -->
<g id="node4" class="node"><title>Node4</title>
<g id="a_node4"><a xlink:href="../../de/d19/classworkspace_1_1_workspace.html#aecaf73d3c2b2008aac032adc4a4f759f" target="_top" xlink:title="workspace.Workspace.create\lTurtle">
<polygon fill="white" stroke="black" points="669.5,-372 669.5,-402 824.5,-402 824.5,-372 669.5,-372"/>
<text text-anchor="start" x="677.5" y="-390" font-family="Helvetica,sans-Serif" font-size="10.00">workspace.Workspace.create</text>
<text text-anchor="middle" x="747" y="-379" font-family="Helvetica,sans-Serif" font-size="10.00">Turtle</text>
</a>
</g>
</g>
<!-- Node3&#45;&gt;Node4 -->
<g id="edge3" class="edge"><title>Node3&#45;&gt;Node4</title>
<path fill="none" stroke="midnightblue" d="M616.012,-387C630.244,-387 644.99,-387 659.217,-387"/>
<polygon fill="midnightblue" stroke="midnightblue" points="659.47,-390.5 669.47,-387 659.47,-383.5 659.47,-390.5"/>
</g>
<!-- Node5 -->
<g id="node5" class="node"><title>Node5</title>
<g id="a_node5"><a xlink:href="../../d4/d4a/classactor_1_1_turtle.html#aef4e04d5061408a3d5c35eb27cc7f96f" target="_top" xlink:title="actor.Turtle.setChangedand\lNotify">
<polygon fill="white" stroke="black" points="887,-372 887,-402 1035,-402 1035,-372 887,-372"/>
<text text-anchor="start" x="895" y="-390" font-family="Helvetica,sans-Serif" font-size="10.00">actor.Turtle.setChangedand</text>
<text text-anchor="middle" x="961" y="-379" font-family="Helvetica,sans-Serif" font-size="10.00">Notify</text>
</a>
</g>
</g>
<!-- Node4&#45;&gt;Node5 -->
<g id="edge4" class="edge"><title>Node4&#45;&gt;Node5</title>
<path fill="none" stroke="midnightblue" d="M824.537,-387C841.491,-387 859.537,-387 876.744,-387"/>
<polygon fill="midnightblue" stroke="midnightblue" points="876.763,-390.5 886.763,-387 876.763,-383.5 876.763,-390.5"/>
</g>
<!-- Node7 -->
<g id="node7" class="node"><title>Node7</title>
<g id="a_node7"><a xlink:href="../../d7/da1/classmain_application_1_1_controller.html#a6e9afc2e53e6adb01a2b73794a319b63" target="_top" xlink:title="mainApplication.Controller.parse\lAndEvaluate">
<polygon fill="white" stroke="black" points="661,-323 661,-353 833,-353 833,-323 661,-323"/>
<text text-anchor="start" x="669" y="-341" font-family="Helvetica,sans-Serif" font-size="10.00">mainApplication.Controller.parse</text>
<text text-anchor="middle" x="747" y="-330" font-family="Helvetica,sans-Serif" font-size="10.00">AndEvaluate</text>
</a>
</g>
</g>
<!-- Node6&#45;&gt;Node7 -->
<g id="edge6" class="edge"><title>Node6&#45;&gt;Node7</title>
<path fill="none" stroke="midnightblue" d="M602.769,-338C618.089,-338 634.442,-338 650.416,-338"/>
<polygon fill="midnightblue" stroke="midnightblue" points="650.844,-341.5 660.844,-338 650.844,-334.5 650.844,-341.5"/>
</g>
<!-- Node8 -->
<g id="node8" class="node"><title>Node8</title>
<g id="a_node8"><a xlink:href="../../de/d19/classworkspace_1_1_workspace.html#a3a9437dc7cd23ecdf0d20e29e577ae9b" target="_top" xlink:title="workspace.Workspace.evaluate">
<polygon fill="white" stroke="black" points="878.5,-331.5 878.5,-350.5 1043.5,-350.5 1043.5,-331.5 878.5,-331.5"/>
<text text-anchor="middle" x="961" y="-338.5" font-family="Helvetica,sans-Serif" font-size="10.00">workspace.Workspace.evaluate</text>
</a>
</g>
</g>
<!-- Node7&#45;&gt;Node8 -->
<g id="edge7" class="edge"><title>Node7&#45;&gt;Node8</title>
<path fill="none" stroke="midnightblue" d="M833.007,-339.203C844.59,-339.367 856.52,-339.536 868.216,-339.701"/>
<polygon fill="midnightblue" stroke="midnightblue" points="868.37,-343.204 878.419,-339.846 868.47,-336.204 868.37,-343.204"/>
</g>
<!-- Node9 -->
<g id="node9" class="node"><title>Node9</title>
<g id="a_node9"><a xlink:href="../../d6/d95/classparser_1_1_parser.html#a5e98fdfffe49478864dc1b22371d6cb1" target="_top" xlink:title="parser.Parser.parse">
<polygon fill="white" stroke="black" points="906.5,-293.5 906.5,-312.5 1015.5,-312.5 1015.5,-293.5 906.5,-293.5"/>
<text text-anchor="middle" x="961" y="-300.5" font-family="Helvetica,sans-Serif" font-size="10.00">parser.Parser.parse</text>
</a>
</g>
</g>
<!-- Node7&#45;&gt;Node9 -->
<g id="edge8" class="edge"><title>Node7&#45;&gt;Node9</title>
<path fill="none" stroke="midnightblue" d="M833.007,-323.966C854.194,-320.468 876.547,-316.778 896.495,-313.484"/>
<polygon fill="midnightblue" stroke="midnightblue" points="897.085,-316.934 906.381,-311.852 895.945,-310.028 897.085,-316.934"/>
</g>
<!-- Node10 -->
<g id="node10" class="node"><title>Node10</title>
<g id="a_node10"><a xlink:href="../../d6/d95/classparser_1_1_parser.html#a2fe30e8a728e36fd2626587f059c4b95" target="_top" xlink:title="parser.Parser.makeTree">
<polygon fill="white" stroke="black" points="1080,-293.5 1080,-312.5 1208,-312.5 1208,-293.5 1080,-293.5"/>
<text text-anchor="middle" x="1144" y="-300.5" font-family="Helvetica,sans-Serif" font-size="10.00">parser.Parser.makeTree</text>
</a>
</g>
</g>
<!-- Node9&#45;&gt;Node10 -->
<g id="edge9" class="edge"><title>Node9&#45;&gt;Node10</title>
<path fill="none" stroke="midnightblue" d="M1015.82,-303C1032.71,-303 1051.65,-303 1069.65,-303"/>
<polygon fill="midnightblue" stroke="midnightblue" points="1069.83,-306.5 1079.83,-303 1069.83,-299.5 1069.83,-306.5"/>
</g>
<!-- Node11 -->
<g id="node11" class="node"><title>Node11</title>
<g id="a_node11"><a xlink:href="../../d6/d95/classparser_1_1_parser.html#ad5386cfbaf84af60512e31503fda19ed" target="_top" xlink:title="parser.Parser.makeNode">
<polygon fill="white" stroke="black" points="1272,-391.5 1272,-410.5 1406,-410.5 1406,-391.5 1272,-391.5"/>
<text text-anchor="middle" x="1339" y="-398.5" font-family="Helvetica,sans-Serif" font-size="10.00">parser.Parser.makeNode</text>
</a>
</g>
</g>
<!-- Node10&#45;&gt;Node11 -->
<g id="edge10" class="edge"><title>Node10&#45;&gt;Node11</title>
<path fill="none" stroke="midnightblue" d="M1155.78,-312.665C1173.15,-327.781 1208.97,-357.04 1244,-374 1256.18,-379.897 1269.88,-384.738 1282.98,-388.611"/>
<polygon fill="midnightblue" stroke="midnightblue" points="1282.27,-392.047 1292.85,-391.384 1284.17,-385.308 1282.27,-392.047"/>
</g>
<!-- Node13 -->
<g id="node13" class="node"><title>Node13</title>
<g id="a_node13"><a xlink:href="../../d3/dcc/classparser_1_1_node.html#a7dfaaf7e60998705460f304c5d56ca6f" target="_top" xlink:title="parser.Node.getCommand">
<polygon fill="white" stroke="black" points="1690,-312.5 1690,-331.5 1834,-331.5 1834,-312.5 1690,-312.5"/>
<text text-anchor="middle" x="1762" y="-319.5" font-family="Helvetica,sans-Serif" font-size="10.00">parser.Node.getCommand</text>
</a>
</g>
</g>
<!-- Node10&#45;&gt;Node13 -->
<g id="edge12" class="edge"><title>Node10&#45;&gt;Node13</title>
<path fill="none" stroke="midnightblue" d="M1163.74,-312.584C1183.21,-321.961 1214.86,-335.599 1244,-341 1405.42,-370.916 1599.89,-348.427 1697.93,-333.115"/>
<polygon fill="midnightblue" stroke="midnightblue" points="1698.64,-336.546 1707.97,-331.519 1697.55,-329.632 1698.64,-336.546"/>
</g>
<!-- Node14 -->
<g id="node14" class="node"><title>Node14</title>
<g id="a_node14"><a xlink:href="../../d7/d35/classcommand_1_1_command.html#a81d128e8b4ac11d732d24edcbc5c2a88" target="_top" xlink:title="command.Command.getNumInputs">
<polygon fill="white" stroke="black" points="1244,-312.5 1244,-331.5 1434,-331.5 1434,-312.5 1244,-312.5"/>
<text text-anchor="middle" x="1339" y="-319.5" font-family="Helvetica,sans-Serif" font-size="10.00">command.Command.getNumInputs</text>
</a>
</g>
</g>
<!-- Node10&#45;&gt;Node14 -->
<g id="edge13" class="edge"><title>Node10&#45;&gt;Node14</title>
<path fill="none" stroke="midnightblue" d="M1208.2,-309.221C1216.41,-310.03 1225,-310.875 1233.67,-311.729"/>
<polygon fill="midnightblue" stroke="midnightblue" points="1233.57,-315.236 1243.87,-312.733 1234.26,-308.27 1233.57,-315.236"/>
</g>
<!-- Node16 -->
<g id="node16" class="node"><title>Node16</title>
<g id="a_node16"><a xlink:href="../../d3/dcc/classparser_1_1_node.html#ae9a17458b710c179f741464ca6e9048a" target="_top" xlink:title="parser.Node.addChild">
<polygon fill="white" stroke="black" points="1279.5,-274.5 1279.5,-293.5 1398.5,-293.5 1398.5,-274.5 1279.5,-274.5"/>
<text text-anchor="middle" x="1339" y="-281.5" font-family="Helvetica,sans-Serif" font-size="10.00">parser.Node.addChild</text>
</a>
</g>
</g>
<!-- Node10&#45;&gt;Node16 -->
<g id="edge17" class="edge"><title>Node10&#45;&gt;Node16</title>
<path fill="none" stroke="midnightblue" d="M1208.2,-296.779C1227.67,-294.862 1249.2,-292.742 1269.04,-290.789"/>
<polygon fill="midnightblue" stroke="midnightblue" points="1269.63,-294.247 1279.24,-289.784 1268.95,-287.281 1269.63,-294.247"/>
</g>
<!-- Node17 -->
<g id="node17" class="node"><title>Node17</title>
<g id="a_node17"><a xlink:href="../../d7/d35/classcommand_1_1_command.html#ab994c7989255741306855f258b1c2191" target="_top" xlink:title="command.Command.isList">
<polygon fill="white" stroke="black" points="1266,-236.5 1266,-255.5 1412,-255.5 1412,-236.5 1266,-236.5"/>
<text text-anchor="middle" x="1339" y="-243.5" font-family="Helvetica,sans-Serif" font-size="10.00">command.Command.isList</text>
</a>
</g>
</g>
<!-- Node10&#45;&gt;Node17 -->
<g id="edge18" class="edge"><title>Node10&#45;&gt;Node17</title>
<path fill="none" stroke="midnightblue" d="M1166.66,-293.479C1186.48,-285.059 1216.78,-272.916 1244,-265 1253.26,-262.309 1263.13,-259.863 1272.87,-257.69"/>
<polygon fill="midnightblue" stroke="midnightblue" points="1273.91,-261.048 1282.95,-255.524 1272.44,-254.204 1273.91,-261.048"/>
</g>
<!-- Node18 -->
<g id="node18" class="node"><title>Node18</title>
<g id="a_node18"><a xlink:href="../../d7/d35/classcommand_1_1_command.html#ac2df873d4926bc6e08dba8c6272cff7e" target="_top" xlink:title="command.Command.toString">
<polygon fill="white" stroke="black" points="1259,-198.5 1259,-217.5 1419,-217.5 1419,-198.5 1259,-198.5"/>
<text text-anchor="middle" x="1339" y="-205.5" font-family="Helvetica,sans-Serif" font-size="10.00">command.Command.toString</text>
</a>
</g>
</g>
<!-- Node10&#45;&gt;Node18 -->
<g id="edge19" class="edge"><title>Node10&#45;&gt;Node18</title>
<path fill="none" stroke="midnightblue" d="M1154.4,-293.333C1170.91,-276.951 1206.92,-243.873 1244,-227 1249.44,-224.526 1255.2,-222.372 1261.08,-220.497"/>
<polygon fill="midnightblue" stroke="midnightblue" points="1262.44,-223.748 1271.07,-217.599 1260.49,-217.025 1262.44,-223.748"/>
</g>
<!-- Node12 -->
<g id="node12" class="node"><title>Node12</title>
<g id="a_node12"><a xlink:href="../../d1/dd5/classparser_1_1_command_factory.html#a6907bbeefbe406c17766a1e350fc359f" target="_top" xlink:title="parser.CommandFactory.create\lCommand">
<polygon fill="white" stroke="black" points="1478.5,-389 1478.5,-419 1645.5,-419 1645.5,-389 1478.5,-389"/>
<text text-anchor="start" x="1486.5" y="-407" font-family="Helvetica,sans-Serif" font-size="10.00">parser.CommandFactory.create</text>
<text text-anchor="middle" x="1562" y="-396" font-family="Helvetica,sans-Serif" font-size="10.00">Command</text>
</a>
</g>
</g>
<!-- Node11&#45;&gt;Node12 -->
<g id="edge11" class="edge"><title>Node11&#45;&gt;Node12</title>
<path fill="none" stroke="midnightblue" d="M1406.01,-401.896C1425.57,-402.162 1447.37,-402.458 1468.3,-402.742"/>
<polygon fill="midnightblue" stroke="midnightblue" points="1468.44,-406.244 1478.49,-402.88 1468.53,-399.244 1468.44,-406.244"/>
</g>
<!-- Node14&#45;&gt;Node13 -->
<g id="edge16" class="edge"><title>Node14&#45;&gt;Node13</title>
<path fill="none" stroke="midnightblue" d="M1434.22,-322C1508.03,-322 1609.64,-322 1679.87,-322"/>
<polygon fill="midnightblue" stroke="midnightblue" points="1680,-325.5 1690,-322 1680,-318.5 1680,-325.5"/>
</g>
<!-- Node15 -->
<g id="node15" class="node"><title>Node15</title>
<g id="a_node15"><a xlink:href="../../d7/d35/classcommand_1_1_command.html#a30463654f906e5bcf507ab33bd5d8bff" target="_top" xlink:title="command.Command.checkListExit">
<polygon fill="white" stroke="black" points="1470.5,-274.5 1470.5,-293.5 1653.5,-293.5 1653.5,-274.5 1470.5,-274.5"/>
<text text-anchor="middle" x="1562" y="-281.5" font-family="Helvetica,sans-Serif" font-size="10.00">command.Command.checkListExit</text>
</a>
</g>
</g>
<!-- Node14&#45;&gt;Node15 -->
<g id="edge14" class="edge"><title>Node14&#45;&gt;Node15</title>
<path fill="none" stroke="midnightblue" d="M1395.48,-312.46C1425.83,-307.243 1463.6,-300.747 1495.4,-295.28"/>
<polygon fill="midnightblue" stroke="midnightblue" points="1496.23,-298.688 1505.49,-293.544 1495.05,-291.789 1496.23,-298.688"/>
</g>
<!-- Node15&#45;&gt;Node13 -->
<g id="edge15" class="edge"><title>Node15&#45;&gt;Node13</title>
<path fill="none" stroke="midnightblue" d="M1612.71,-293.54C1639.54,-298.69 1672.86,-305.084 1701.11,-310.506"/>
<polygon fill="midnightblue" stroke="midnightblue" points="1700.79,-314.009 1711.27,-312.456 1702.11,-307.134 1700.79,-314.009"/>
</g>
<!-- Node20 -->
<g id="node20" class="node"><title>Node20</title>
<g id="a_node20"><a xlink:href="../../d6/d14/classfeatures_1_1_settings_bar.html#a06ac68340b6f5f59f638db75870f7d33" target="_top" xlink:title="features.SettingsBar.add\lAnimationSlider">
<polygon fill="white" stroke="black" points="679,-274 679,-304 815,-304 815,-274 679,-274"/>
<text text-anchor="start" x="687" y="-292" font-family="Helvetica,sans-Serif" font-size="10.00">features.SettingsBar.add</text>
<text text-anchor="middle" x="747" y="-281" font-family="Helvetica,sans-Serif" font-size="10.00">AnimationSlider</text>
</a>
</g>
</g>
<!-- Node19&#45;&gt;Node20 -->
<g id="edge21" class="edge"><title>Node19&#45;&gt;Node20</title>
<path fill="none" stroke="midnightblue" d="M545.601,-189.332C568.084,-209.308 610.221,-244.033 652,-264 657.368,-266.566 663.04,-268.899 668.829,-271.014"/>
<polygon fill="midnightblue" stroke="midnightblue" points="668.056,-274.449 678.65,-274.373 670.32,-267.825 668.056,-274.449"/>
</g>
<!-- Node21 -->
<g id="node21" class="node"><title>Node21</title>
<g id="a_node21"><a xlink:href="../../d6/d14/classfeatures_1_1_settings_bar.html#a84c1671d1eff0e0e6df250fcd1a2dcd0" target="_top" xlink:title="features.SettingsBar.add\lComboBox">
<polygon fill="white" stroke="black" points="679,-225 679,-255 815,-255 815,-225 679,-225"/>
<text text-anchor="start" x="687" y="-243" font-family="Helvetica,sans-Serif" font-size="10.00">features.SettingsBar.add</text>
<text text-anchor="middle" x="747" y="-232" font-family="Helvetica,sans-Serif" font-size="10.00">ComboBox</text>
</a>
</g>
</g>
<!-- Node19&#45;&gt;Node21 -->
<g id="edge22" class="edge"><title>Node19&#45;&gt;Node21</title>
<path fill="none" stroke="midnightblue" d="M572.054,-189.077C595.567,-197.127 625.261,-206.996 652,-215 660.228,-217.463 668.897,-219.934 677.506,-222.313"/>
<polygon fill="midnightblue" stroke="midnightblue" points="676.606,-225.695 687.175,-224.954 678.451,-218.942 676.606,-225.695"/>
</g>
<!-- Node22 -->
<g id="node22" class="node"><title>Node22</title>
<g id="a_node22"><a xlink:href="../../d7/d3c/classcomponents_1_1_top_pane.html#a1239f7bb3356707158d40b0b41b4ca0b" target="_top" xlink:title="components.TopPane.addItems">
<polygon fill="white" stroke="black" points="663.5,-186.5 663.5,-205.5 830.5,-205.5 830.5,-186.5 663.5,-186.5"/>
<text text-anchor="middle" x="747" y="-193.5" font-family="Helvetica,sans-Serif" font-size="10.00">components.TopPane.addItems</text>
</a>
</g>
</g>
<!-- Node19&#45;&gt;Node22 -->
<g id="edge23" class="edge"><title>Node19&#45;&gt;Node22</title>
<path fill="none" stroke="midnightblue" d="M596.768,-180.87C614.687,-182.687 634.341,-184.68 653.334,-186.605"/>
<polygon fill="midnightblue" stroke="midnightblue" points="653.194,-190.109 663.496,-187.636 653.9,-183.145 653.194,-190.109"/>
</g>
<!-- Node23 -->
<g id="node23" class="node"><title>Node23</title>
<g id="a_node23"><a xlink:href="../../d6/d14/classfeatures_1_1_settings_bar.html#a0087ffd8c4aeedd07998a8a058cc9209" target="_top" xlink:title="features.SettingsBar.add\lPenSlider">
<polygon fill="white" stroke="black" points="679,-137 679,-167 815,-167 815,-137 679,-137"/>
<text text-anchor="start" x="687" y="-155" font-family="Helvetica,sans-Serif" font-size="10.00">features.SettingsBar.add</text>
<text text-anchor="middle" x="747" y="-144" font-family="Helvetica,sans-Serif" font-size="10.00">PenSlider</text>
</a>
</g>
</g>
<!-- Node19&#45;&gt;Node23 -->
<g id="edge24" class="edge"><title>Node19&#45;&gt;Node23</title>
<path fill="none" stroke="midnightblue" d="M596.768,-167.13C619.516,-164.823 645.059,-162.234 668.496,-159.858"/>
<polygon fill="midnightblue" stroke="midnightblue" points="669.15,-163.309 678.746,-158.818 668.444,-156.345 669.15,-163.309"/>
</g>
<!-- Node24 -->
<g id="node24" class="node"><title>Node24</title>
<g id="a_node24"><a xlink:href="../../d6/d8b/classcomponents_1_1_pane_factory.html#a749d9694305a5e64344c7f0b2eb1ec46" target="_top" xlink:title="components.PaneFactory.makePane">
<polygon fill="white" stroke="black" points="652.5,-98.5 652.5,-117.5 841.5,-117.5 841.5,-98.5 652.5,-98.5"/>
<text text-anchor="middle" x="747" y="-105.5" font-family="Helvetica,sans-Serif" font-size="10.00">components.PaneFactory.makePane</text>
</a>
</g>
</g>
<!-- Node19&#45;&gt;Node24 -->
<g id="edge25" class="edge"><title>Node19&#45;&gt;Node24</title>
<path fill="none" stroke="midnightblue" d="M563.731,-158.958C588.084,-148.851 621.591,-135.817 652,-127 661.257,-124.316 671.135,-121.874 680.878,-119.702"/>
<polygon fill="midnightblue" stroke="midnightblue" points="681.91,-123.06 690.952,-117.538 680.44,-116.217 681.91,-123.06"/>
</g>
<!-- Node25 -->
<g id="node25" class="node"><title>Node25</title>
<g id="a_node25"><a xlink:href="../../d9/d58/classcomponents_1_1_bottom_pane.html#a8c0188cd8a7650eb5b180930298a44a2" target="_top" xlink:title="components.BottomPane.update\lButton">
<polygon fill="white" stroke="black" points="659,-49 659,-79 835,-79 835,-49 659,-49"/>
<text text-anchor="start" x="667" y="-67" font-family="Helvetica,sans-Serif" font-size="10.00">components.BottomPane.update</text>
<text text-anchor="middle" x="747" y="-56" font-family="Helvetica,sans-Serif" font-size="10.00">Button</text>
</a>
</g>
</g>
<!-- Node19&#45;&gt;Node25 -->
<g id="edge26" class="edge"><title>Node19&#45;&gt;Node25</title>
<path fill="none" stroke="midnightblue" d="M546.546,-158.922C569.389,-140.018 611.226,-107.814 652,-89 657.206,-86.5978 662.685,-84.393 668.272,-82.3755"/>
<polygon fill="midnightblue" stroke="midnightblue" points="669.406,-85.6866 677.749,-79.1553 667.154,-79.0588 669.406,-85.6866"/>
</g>
<!-- Node26 -->
<g id="node26" class="node"><title>Node26</title>
<g id="a_node26"><a xlink:href="../../d6/d68/classcomponents_1_1_turtle_manager.html#a4359c3b1142a696d251e7fc017729efb" target="_top" xlink:title="components.TurtleManager.update\lImageMap">
<polygon fill="white" stroke="black" points="655.5,-0 655.5,-30 838.5,-30 838.5,-0 655.5,-0"/>
<text text-anchor="start" x="663.5" y="-18" font-family="Helvetica,sans-Serif" font-size="10.00">components.TurtleManager.update</text>
<text text-anchor="middle" x="747" y="-7" font-family="Helvetica,sans-Serif" font-size="10.00">ImageMap</text>
</a>
</g>
</g>
<!-- Node19&#45;&gt;Node26 -->
<g id="edge27" class="edge"><title>Node19&#45;&gt;Node26</title>
<path fill="none" stroke="midnightblue" d="M538.434,-158.784C556.72,-130.611 599.814,-70.3474 652,-39 654.978,-37.2112 658.086,-35.5549 661.284,-34.0212"/>
<polygon fill="midnightblue" stroke="midnightblue" points="662.725,-37.2113 670.502,-30.016 659.936,-30.7911 662.725,-37.2113"/>
</g>
</g>
</svg>
        <g id="navigator" transform="translate(0 0)" fill="#404254">
                <rect fill="#f2f5e9" fill-opacity="0.5" stroke="#606060" stroke-width=".5" x="0" y="0" width="60" height="60"/>
                <use id="zoomplus" xlink:href="#zoomPlus" x="17" y="9" onmousedown="handleZoom(evt,'in')"/>
                <use id="zoomminus" xlink:href="#zoomMin" x="42" y="9" onmousedown="handleZoom(evt,'out')"/>
                <use id="reset" xlink:href="#resetDef" x="30" y="36" onmousedown="handleReset()"/>
                <g id="arrowUp" xlink:href="#dirArrow" transform="translate(30 24)" onmousedown="handlePan(0,-1)">
                  <use xlink:href="#rim" fill="#404040">
                        <set attributeName="fill" to="#808080" begin="arrowUp.mouseover" end="arrowUp.mouseout"/>
                  </use>
                  <path fill="none" stroke="white" stroke-width="1.5" d="M0,-3.0v7 M-2.5,-0.5L0,-3.0L2.5,-0.5"/>
                </g>
                <g id="arrowRight" xlink:href="#dirArrow" transform="rotate(90) translate(36 -43)" onmousedown="handlePan(1,0)">
                  <use xlink:href="#rim" fill="#404040">
                        <set attributeName="fill" to="#808080" begin="arrowRight.mouseover" end="arrowRight.mouseout"/>
                  </use>
                  <path fill="none" stroke="white" stroke-width="1.5" d="M0,-3.0v7 M-2.5,-0.5L0,-3.0L2.5,-0.5"/>
                </g>
                <g id="arrowDown" xlink:href="#dirArrow" transform="rotate(180) translate(-30 -48)" onmousedown="handlePan(0,1)">
                  <use xlink:href="#rim" fill="#404040">
                        <set attributeName="fill" to="#808080" begin="arrowDown.mouseover" end="arrowDown.mouseout"/>
                  </use>
                  <path fill="none" stroke="white" stroke-width="1.5" d="M0,-3.0v7 M-2.5,-0.5L0,-3.0L2.5,-0.5"/>
                </g>
                <g id="arrowLeft" xlink:href="#dirArrow" transform="rotate(270) translate(-36 17)" onmousedown="handlePan(-1,0)">
                  <use xlink:href="#rim" fill="#404040">
                        <set attributeName="fill" to="#808080" begin="arrowLeft.mouseover" end="arrowLeft.mouseout"/>
                  </use>
                  <path fill="none" stroke="white" stroke-width="1.5" d="M0,-3.0v7 M-2.5,-0.5L0,-3.0L2.5,-0.5"/>
                </g>
        </g>
        <svg viewBox="0 0 15 15" width="100%" height="30px" preserveAspectRatio="xMaxYMin meet">
         <g id="arrow_out" transform="scale(0.3 0.3)">
          <a xlink:href="classmain_application_1_1_g_u_i_shell_a9df214dfffdce7a39bc6ac5e84ca1f0f_cgraph_org.svg" target="_base">
           <rect id="button" ry="5" rx="5" y="6" x="6" height="38" width="38"
                fill="#f2f5e9" fill-opacity="0.5" stroke="#606060" stroke-width="1.0"/>
           <path id="arrow"
             d="M 11.500037,31.436501 C 11.940474,20.09759 22.043105,11.32322 32.158766,21.979434 L 37.068811,17.246167 C 37.068811,17.246167 37.088388,32 37.088388,32 L 22.160133,31.978069 C 22.160133,31.978069 26.997745,27.140456 26.997745,27.140456 C 18.528582,18.264221 13.291696,25.230495 11.500037,31.436501 z"
             style="fill:#404040;"/>
          </a>
         </g>
        </svg>
</svg>
