<?xml version="1.0" encoding="UTF-8" standalone="no"?>
<!DOCTYPE svg PUBLIC "-//W3C//DTD SVG 1.1//EN"
 "http://www.w3.org/Graphics/SVG/1.1/DTD/svg11.dtd">
<!-- Generated by graphviz version 2.36.0 (20140111.2315)
 -->
<!-- Title: mainApplication.GUIShell.GUIShell Pages: 1 -->
<svg width="2018pt" height="492pt"
 viewBox="0.00 0.00 2018.00 492.00" xmlns="http://www.w3.org/2000/svg" xmlns:xlink="http://www.w3.org/1999/xlink">
<g id="graph0" class="graph" transform="scale(1 1) rotate(0) translate(4 488)">
<title>mainApplication.GUIShell.GUIShell</title>
<polygon fill="white" stroke="none" points="-4,4 -4,-488 2014,-488 2014,4 -4,4"/>
<!-- Node1 -->
<g id="node1" class="node"><title>Node1</title>
<polygon fill="#bfbfbf" stroke="black" points="0,-188 0,-218 140,-218 140,-188 0,-188"/>
<text text-anchor="start" x="8" y="-206" font-family="Helvetica,sans-Serif" font-size="10.00">mainApplication.GUIShell.</text>
<text text-anchor="middle" x="70" y="-195" font-family="Helvetica,sans-Serif" font-size="10.00">GUIShell</text>
</g>
<!-- Node2 -->
<g id="node2" class="node"><title>Node2</title>
<g id="a_node2"><a xlink:href="../../d3/d04/classmain_application_1_1_g_u_i_shell.html#a9df214dfffdce7a39bc6ac5e84ca1f0f" target="_top" xlink:title="mainApplication.GUIShell.create\lNewButton">
<polygon fill="white" stroke="black" points="176,-210 176,-240 346,-240 346,-210 176,-210"/>
<text text-anchor="start" x="184" y="-228" font-family="Helvetica,sans-Serif" font-size="10.00">mainApplication.GUIShell.create</text>
<text text-anchor="middle" x="261" y="-217" font-family="Helvetica,sans-Serif" font-size="10.00">NewButton</text>
</a>
</g>
</g>
<!-- Node1&#45;&gt;Node2 -->
<g id="edge1" class="edge"><title>Node1&#45;&gt;Node2</title>
<path fill="none" stroke="midnightblue" d="M140.036,-211.036C148.373,-212.006 156.996,-213.01 165.617,-214.014"/>
<polygon fill="midnightblue" stroke="midnightblue" points="165.383,-217.51 175.72,-215.19 166.192,-210.557 165.383,-217.51"/>
</g>
<!-- Node3 -->
<g id="node3" class="node"><title>Node3</title>
<g id="a_node3"><a xlink:href="../../d3/de0/classmain_application_1_1_g_u_i.html#af6bd387013dbd1d1daf030117da66c0e" target="_top" xlink:title="mainApplication.GUI.initiate">
<polygon fill="white" stroke="black" points="406.5,-215.5 406.5,-234.5 555.5,-234.5 555.5,-215.5 406.5,-215.5"/>
<text text-anchor="middle" x="481" y="-222.5" font-family="Helvetica,sans-Serif" font-size="10.00">mainApplication.GUI.initiate</text>
</a>
</g>
</g>
<!-- Node1&#45;&gt;Node3 -->
<g id="edge40" class="edge"><title>Node1&#45;&gt;Node3</title>
<path fill="none" stroke="midnightblue" d="M140.182,-200.743C152.126,-200.433 164.421,-200.165 176,-200 251.548,-198.921 270.766,-193.042 346,-200 353.768,-200.718 389.084,-207.329 421.509,-213.572"/>
<polygon fill="midnightblue" stroke="midnightblue" points="420.963,-217.031 431.446,-215.491 422.291,-210.158 420.963,-217.031"/>
</g>
<!-- Node28 -->
<g id="node28" class="node"><title>Node28</title>
<g id="a_node28"><a xlink:href="../../d7/da1/classmain_application_1_1_controller.html#a3c8a855bb9f69883e28749335a8448aa" target="_top" xlink:title="mainApplication.Controller.removeWS">
<polygon fill="white" stroke="black" points="382.5,-177.5 382.5,-196.5 579.5,-196.5 579.5,-177.5 382.5,-177.5"/>
<text text-anchor="middle" x="481" y="-184.5" font-family="Helvetica,sans-Serif" font-size="10.00">mainApplication.Controller.removeWS</text>
</a>
</g>
</g>
<!-- Node1&#45;&gt;Node28 -->
<g id="edge41" class="edge"><title>Node1&#45;&gt;Node28</title>
<path fill="none" stroke="midnightblue" d="M105.725,-187.854C125.829,-179.915 151.859,-171.023 176,-167 261.869,-152.689 362.981,-165.046 424.243,-175.696"/>
<polygon fill="midnightblue" stroke="midnightblue" points="423.635,-179.143 434.094,-177.454 424.865,-172.252 423.635,-179.143"/>
</g>
<!-- Node29 -->
<g id="node29" class="node"><title>Node29</title>
<g id="a_node29"><a xlink:href="../../d7/da1/classmain_application_1_1_controller.html#a7144249536d1002f84892898a5cc9c71" target="_top" xlink:title="mainApplication.Controller.set\lActive">
<polygon fill="white" stroke="black" points="401,-256 401,-286 561,-286 561,-256 401,-256"/>
<text text-anchor="start" x="409" y="-274" font-family="Helvetica,sans-Serif" font-size="10.00">mainApplication.Controller.set</text>
<text text-anchor="middle" x="481" y="-263" font-family="Helvetica,sans-Serif" font-size="10.00">Active</text>
</a>
</g>
</g>
<!-- Node1&#45;&gt;Node29 -->
<g id="edge42" class="edge"><title>Node1&#45;&gt;Node29</title>
<path fill="none" stroke="midnightblue" d="M81.7828,-218.193C98.7929,-240.685 134.25,-281.916 176,-298 246.505,-325.161 270.818,-305.499 346,-298 366.504,-295.955 388.515,-292.191 408.651,-288.109"/>
<polygon fill="midnightblue" stroke="midnightblue" points="409.605,-291.486 418.681,-286.02 408.177,-284.633 409.605,-291.486"/>
</g>
<!-- Node30 -->
<g id="node30" class="node"><title>Node30</title>
<g id="a_node30"><a xlink:href="../../d3/d04/classmain_application_1_1_g_u_i_shell.html#af2f106fa7786f13ccc0202db53b559b9" target="_top" xlink:title="mainApplication.GUIShell.create\lOpenButton">
<polygon fill="white" stroke="black" points="176,-259 176,-289 346,-289 346,-259 176,-259"/>
<text text-anchor="start" x="184" y="-277" font-family="Helvetica,sans-Serif" font-size="10.00">mainApplication.GUIShell.create</text>
<text text-anchor="middle" x="261" y="-266" font-family="Helvetica,sans-Serif" font-size="10.00">OpenButton</text>
</a>
</g>
</g>
<!-- Node1&#45;&gt;Node30 -->
<g id="edge31" class="edge"><title>Node1&#45;&gt;Node30</title>
<path fill="none" stroke="midnightblue" d="M102.75,-218.135C123.364,-227.655 150.958,-239.828 176,-249 182.432,-251.356 189.199,-253.656 195.984,-255.847"/>
<polygon fill="midnightblue" stroke="midnightblue" points="195.313,-259.305 205.902,-258.974 197.417,-252.629 195.313,-259.305"/>
</g>
<!-- Node32 -->
<g id="node32" class="node"><title>Node32</title>
<g id="a_node32"><a xlink:href="../../d3/d04/classmain_application_1_1_g_u_i_shell.html#a549d0a037ecb8f4823d9878e4b602f0d" target="_top" xlink:title="mainApplication.GUIShell.create\lSaveButton">
<polygon fill="white" stroke="black" points="176,-84 176,-114 346,-114 346,-84 176,-84"/>
<text text-anchor="start" x="184" y="-102" font-family="Helvetica,sans-Serif" font-size="10.00">mainApplication.GUIShell.create</text>
<text text-anchor="middle" x="261" y="-91" font-family="Helvetica,sans-Serif" font-size="10.00">SaveButton</text>
</a>
</g>
</g>
<!-- Node1&#45;&gt;Node32 -->
<g id="edge37" class="edge"><title>Node1&#45;&gt;Node32</title>
<path fill="none" stroke="midnightblue" d="M89.3562,-187.722C109.572,-171.473 143.533,-145.84 176,-129 183.89,-124.908 192.465,-121.142 201.021,-117.763"/>
<polygon fill="midnightblue" stroke="midnightblue" points="202.527,-120.935 210.635,-114.115 200.044,-114.39 202.527,-120.935"/>
</g>
<!-- Node2&#45;&gt;Node3 -->
<g id="edge2" class="edge"><title>Node2&#45;&gt;Node3</title>
<path fill="none" stroke="midnightblue" d="M346.284,-225C362.656,-225 379.813,-225 396.17,-225"/>
<polygon fill="midnightblue" stroke="midnightblue" points="396.237,-228.5 406.237,-225 396.237,-221.5 396.237,-228.5"/>
</g>
<!-- Node2&#45;&gt;Node28 -->
<g id="edge29" class="edge"><title>Node2&#45;&gt;Node28</title>
<path fill="none" stroke="midnightblue" d="M346.284,-210.308C369.143,-206.324 393.533,-202.072 415.139,-198.306"/>
<polygon fill="midnightblue" stroke="midnightblue" points="415.927,-201.722 425.177,-196.556 414.725,-194.826 415.927,-201.722"/>
</g>
<!-- Node2&#45;&gt;Node29 -->
<g id="edge30" class="edge"><title>Node2&#45;&gt;Node29</title>
<path fill="none" stroke="midnightblue" d="M333.381,-240.062C354.285,-244.473 377.293,-249.328 398.761,-253.858"/>
<polygon fill="midnightblue" stroke="midnightblue" points="398.324,-257.343 408.831,-255.983 399.769,-250.493 398.324,-257.343"/>
</g>
<!-- Node4 -->
<g id="node4" class="node"><title>Node4</title>
<g id="a_node4"><a xlink:href="../../d7/da1/classmain_application_1_1_controller.html#a14cb8c148061cb04d6968d56f26e4c82" target="_top" xlink:title="mainApplication.Controller.create\lWorkspace">
<polygon fill="white" stroke="black" points="616,-144 616,-174 792,-174 792,-144 616,-144"/>
<text text-anchor="start" x="624" y="-162" font-family="Helvetica,sans-Serif" font-size="10.00">mainApplication.Controller.create</text>
<text text-anchor="middle" x="704" y="-151" font-family="Helvetica,sans-Serif" font-size="10.00">Workspace</text>
</a>
</g>
</g>
<!-- Node3&#45;&gt;Node4 -->
<g id="edge3" class="edge"><title>Node3&#45;&gt;Node4</title>
<path fill="none" stroke="midnightblue" d="M541.552,-215.464C554.354,-212.857 567.722,-209.706 580,-206 596.594,-200.991 599.862,-197.327 616,-191 627.354,-186.549 639.61,-181.929 651.239,-177.63"/>
<polygon fill="midnightblue" stroke="midnightblue" points="652.648,-180.841 660.826,-174.105 650.232,-174.271 652.648,-180.841"/>
</g>
<!-- Node7 -->
<g id="node7" class="node"><title>Node7</title>
<g id="a_node7"><a xlink:href="../../d3/de0/classmain_application_1_1_g_u_i.html#a60b2e396c945ac173bfd82f207f42000" target="_top" xlink:title="mainApplication.GUI.initiate\lKeyPress">
<polygon fill="white" stroke="black" points="629.5,-282 629.5,-312 778.5,-312 778.5,-282 629.5,-282"/>
<text text-anchor="start" x="637.5" y="-300" font-family="Helvetica,sans-Serif" font-size="10.00">mainApplication.GUI.initiate</text>
<text text-anchor="middle" x="704" y="-289" font-family="Helvetica,sans-Serif" font-size="10.00">KeyPress</text>
</a>
</g>
</g>
<!-- Node3&#45;&gt;Node7 -->
<g id="edge6" class="edge"><title>Node3&#45;&gt;Node7</title>
<path fill="none" stroke="midnightblue" d="M535.097,-234.539C549.783,-237.673 565.63,-241.522 580,-246 607.933,-254.704 638.31,-267.267 661.887,-277.746"/>
<polygon fill="midnightblue" stroke="midnightblue" points="660.665,-281.034 671.221,-281.943 663.536,-274.65 660.665,-281.034"/>
</g>
<!-- Node20 -->
<g id="node20" class="node"><title>Node20</title>
<g id="a_node20"><a xlink:href="../../d3/de0/classmain_application_1_1_g_u_i.html#a5b9d9bebac3a8ce813b0134ecdafc66d" target="_top" xlink:title="mainApplication.GUI.load\lPanes">
<polygon fill="white" stroke="black" points="635.5,-201 635.5,-231 772.5,-231 772.5,-201 635.5,-201"/>
<text text-anchor="start" x="643.5" y="-219" font-family="Helvetica,sans-Serif" font-size="10.00">mainApplication.GUI.load</text>
<text text-anchor="middle" x="704" y="-208" font-family="Helvetica,sans-Serif" font-size="10.00">Panes</text>
</a>
</g>
</g>
<!-- Node3&#45;&gt;Node20 -->
<g id="edge21" class="edge"><title>Node3&#45;&gt;Node20</title>
<path fill="none" stroke="midnightblue" d="M555.59,-222.003C577.912,-221.094 602.504,-220.093 625.099,-219.172"/>
<polygon fill="midnightblue" stroke="midnightblue" points="625.476,-222.66 635.325,-218.756 625.191,-215.666 625.476,-222.66"/>
</g>
<!-- Node5 -->
<g id="node5" class="node"><title>Node5</title>
<g id="a_node5"><a xlink:href="../../de/d19/classworkspace_1_1_workspace.html#aecaf73d3c2b2008aac032adc4a4f759f" target="_top" xlink:title="workspace.Workspace.create\lTurtle">
<polygon fill="white" stroke="black" points="845.5,-0 845.5,-30 1000.5,-30 1000.5,-0 845.5,-0"/>
<text text-anchor="start" x="853.5" y="-18" font-family="Helvetica,sans-Serif" font-size="10.00">workspace.Workspace.create</text>
<text text-anchor="middle" x="923" y="-7" font-family="Helvetica,sans-Serif" font-size="10.00">Turtle</text>
</a>
</g>
</g>
<!-- Node4&#45;&gt;Node5 -->
<g id="edge4" class="edge"><title>Node4&#45;&gt;Node5</title>
<path fill="none" stroke="midnightblue" d="M752.177,-143.942C766.314,-137.664 780.973,-129.169 792,-118 819.108,-90.5421 798.404,-63.7565 828,-39 830.584,-36.8387 833.338,-34.8686 836.219,-33.073"/>
<polygon fill="midnightblue" stroke="midnightblue" points="838.087,-36.0415 845.204,-28.1932 834.746,-29.8901 838.087,-36.0415"/>
</g>
<!-- Node6 -->
<g id="node6" class="node"><title>Node6</title>
<g id="a_node6"><a xlink:href="../../d4/d4a/classactor_1_1_turtle.html#aef4e04d5061408a3d5c35eb27cc7f96f" target="_top" xlink:title="actor.Turtle.setChangedand\lNotify">
<polygon fill="white" stroke="black" points="1063,-0 1063,-30 1211,-30 1211,-0 1063,-0"/>
<text text-anchor="start" x="1071" y="-18" font-family="Helvetica,sans-Serif" font-size="10.00">actor.Turtle.setChangedand</text>
<text text-anchor="middle" x="1137" y="-7" font-family="Helvetica,sans-Serif" font-size="10.00">Notify</text>
</a>
</g>
</g>
<!-- Node5&#45;&gt;Node6 -->
<g id="edge5" class="edge"><title>Node5&#45;&gt;Node6</title>
<path fill="none" stroke="midnightblue" d="M1000.54,-15C1017.49,-15 1035.54,-15 1052.74,-15"/>
<polygon fill="midnightblue" stroke="midnightblue" points="1052.76,-18.5001 1062.76,-15 1052.76,-11.5001 1052.76,-18.5001"/>
</g>
<!-- Node8 -->
<g id="node8" class="node"><title>Node8</title>
<g id="a_node8"><a xlink:href="../../d7/da1/classmain_application_1_1_controller.html#a6e9afc2e53e6adb01a2b73794a319b63" target="_top" xlink:title="mainApplication.Controller.parse\lAndEvaluate">
<polygon fill="white" stroke="black" points="837,-372 837,-402 1009,-402 1009,-372 837,-372"/>
<text text-anchor="start" x="845" y="-390" font-family="Helvetica,sans-Serif" font-size="10.00">mainApplication.Controller.parse</text>
<text text-anchor="middle" x="923" y="-379" font-family="Helvetica,sans-Serif" font-size="10.00">AndEvaluate</text>
</a>
</g>
</g>
<!-- Node7&#45;&gt;Node8 -->
<g id="edge7" class="edge"><title>Node7&#45;&gt;Node8</title>
<path fill="none" stroke="midnightblue" d="M729.652,-312.169C753.939,-326.592 792.464,-348.092 828,-362 834.339,-364.481 841.013,-366.801 847.759,-368.948"/>
<polygon fill="midnightblue" stroke="midnightblue" points="847.076,-372.399 857.662,-371.97 849.119,-365.704 847.076,-372.399"/>
</g>
<!-- Node9 -->
<g id="node9" class="node"><title>Node9</title>
<g id="a_node9"><a xlink:href="../../de/d19/classworkspace_1_1_workspace.html#a3a9437dc7cd23ecdf0d20e29e577ae9b" target="_top" xlink:title="workspace.Workspace.evaluate">
<polygon fill="white" stroke="black" points="1054.5,-396.5 1054.5,-415.5 1219.5,-415.5 1219.5,-396.5 1054.5,-396.5"/>
<text text-anchor="middle" x="1137" y="-403.5" font-family="Helvetica,sans-Serif" font-size="10.00">workspace.Workspace.evaluate</text>
</a>
</g>
</g>
<!-- Node8&#45;&gt;Node9 -->
<g id="edge8" class="edge"><title>Node8&#45;&gt;Node9</title>
<path fill="none" stroke="midnightblue" d="M1009.01,-394.619C1020.59,-395.657 1032.52,-396.726 1044.22,-397.774"/>
<polygon fill="midnightblue" stroke="midnightblue" points="1044.15,-401.282 1054.42,-398.688 1044.77,-394.31 1044.15,-401.282"/>
</g>
<!-- Node10 -->
<g id="node10" class="node"><title>Node10</title>
<g id="a_node10"><a xlink:href="../../d6/d95/classparser_1_1_parser.html#a5e98fdfffe49478864dc1b22371d6cb1" target="_top" xlink:title="parser.Parser.parse">
<polygon fill="white" stroke="black" points="1082.5,-358.5 1082.5,-377.5 1191.5,-377.5 1191.5,-358.5 1082.5,-358.5"/>
<text text-anchor="middle" x="1137" y="-365.5" font-family="Helvetica,sans-Serif" font-size="10.00">parser.Parser.parse</text>
</a>
</g>
</g>
<!-- Node8&#45;&gt;Node10 -->
<g id="edge9" class="edge"><title>Node8&#45;&gt;Node10</title>
<path fill="none" stroke="midnightblue" d="M1009.01,-379.381C1030.1,-377.491 1052.34,-375.498 1072.22,-373.716"/>
<polygon fill="midnightblue" stroke="midnightblue" points="1072.73,-377.184 1082.38,-372.805 1072.11,-370.212 1072.73,-377.184"/>
</g>
<!-- Node11 -->
<g id="node11" class="node"><title>Node11</title>
<g id="a_node11"><a xlink:href="../../d6/d95/classparser_1_1_parser.html#a2fe30e8a728e36fd2626587f059c4b95" target="_top" xlink:title="parser.Parser.makeTree">
<polygon fill="white" stroke="black" points="1256,-358.5 1256,-377.5 1384,-377.5 1384,-358.5 1256,-358.5"/>
<text text-anchor="middle" x="1320" y="-365.5" font-family="Helvetica,sans-Serif" font-size="10.00">parser.Parser.makeTree</text>
</a>
</g>
</g>
<!-- Node10&#45;&gt;Node11 -->
<g id="edge10" class="edge"><title>Node10&#45;&gt;Node11</title>
<path fill="none" stroke="midnightblue" d="M1191.82,-368C1208.71,-368 1227.65,-368 1245.65,-368"/>
<polygon fill="midnightblue" stroke="midnightblue" points="1245.83,-371.5 1255.83,-368 1245.83,-364.5 1245.83,-371.5"/>
</g>
<!-- Node12 -->
<g id="node12" class="node"><title>Node12</title>
<g id="a_node12"><a xlink:href="../../d6/d95/classparser_1_1_parser.html#ad5386cfbaf84af60512e31503fda19ed" target="_top" xlink:title="parser.Parser.makeNode">
<polygon fill="white" stroke="black" points="1448,-456.5 1448,-475.5 1582,-475.5 1582,-456.5 1448,-456.5"/>
<text text-anchor="middle" x="1515" y="-463.5" font-family="Helvetica,sans-Serif" font-size="10.00">parser.Parser.makeNode</text>
</a>
</g>
</g>
<!-- Node11&#45;&gt;Node12 -->
<g id="edge11" class="edge"><title>Node11&#45;&gt;Node12</title>
<path fill="none" stroke="midnightblue" d="M1331.78,-377.665C1349.15,-392.781 1384.97,-422.04 1420,-439 1432.18,-444.897 1445.88,-449.738 1458.98,-453.611"/>
<polygon fill="midnightblue" stroke="midnightblue" points="1458.27,-457.047 1468.85,-456.384 1460.17,-450.308 1458.27,-457.047"/>
</g>
<!-- Node14 -->
<g id="node14" class="node"><title>Node14</title>
<g id="a_node14"><a xlink:href="../../d3/dcc/classparser_1_1_node.html#a7dfaaf7e60998705460f304c5d56ca6f" target="_top" xlink:title="parser.Node.getCommand">
<polygon fill="white" stroke="black" points="1866,-377.5 1866,-396.5 2010,-396.5 2010,-377.5 1866,-377.5"/>
<text text-anchor="middle" x="1938" y="-384.5" font-family="Helvetica,sans-Serif" font-size="10.00">parser.Node.getCommand</text>
</a>
</g>
</g>
<!-- Node11&#45;&gt;Node14 -->
<g id="edge13" class="edge"><title>Node11&#45;&gt;Node14</title>
<path fill="none" stroke="midnightblue" d="M1339.74,-377.584C1359.21,-386.961 1390.86,-400.599 1420,-406 1581.42,-435.916 1775.89,-413.427 1873.93,-398.115"/>
<polygon fill="midnightblue" stroke="midnightblue" points="1874.64,-401.546 1883.97,-396.519 1873.55,-394.632 1874.64,-401.546"/>
</g>
<!-- Node15 -->
<g id="node15" class="node"><title>Node15</title>
<g id="a_node15"><a xlink:href="../../d7/d35/classcommand_1_1_command.html#a81d128e8b4ac11d732d24edcbc5c2a88" target="_top" xlink:title="command.Command.getNumInputs">
<polygon fill="white" stroke="black" points="1420,-377.5 1420,-396.5 1610,-396.5 1610,-377.5 1420,-377.5"/>
<text text-anchor="middle" x="1515" y="-384.5" font-family="Helvetica,sans-Serif" font-size="10.00">command.Command.getNumInputs</text>
</a>
</g>
</g>
<!-- Node11&#45;&gt;Node15 -->
<g id="edge14" class="edge"><title>Node11&#45;&gt;Node15</title>
<path fill="none" stroke="midnightblue" d="M1384.2,-374.221C1392.41,-375.03 1401,-375.875 1409.67,-376.729"/>
<polygon fill="midnightblue" stroke="midnightblue" points="1409.57,-380.236 1419.87,-377.733 1410.26,-373.27 1409.57,-380.236"/>
</g>
<!-- Node17 -->
<g id="node17" class="node"><title>Node17</title>
<g id="a_node17"><a xlink:href="../../d3/dcc/classparser_1_1_node.html#ae9a17458b710c179f741464ca6e9048a" target="_top" xlink:title="parser.Node.addChild">
<polygon fill="white" stroke="black" points="1455.5,-339.5 1455.5,-358.5 1574.5,-358.5 1574.5,-339.5 1455.5,-339.5"/>
<text text-anchor="middle" x="1515" y="-346.5" font-family="Helvetica,sans-Serif" font-size="10.00">parser.Node.addChild</text>
</a>
</g>
</g>
<!-- Node11&#45;&gt;Node17 -->
<g id="edge18" class="edge"><title>Node11&#45;&gt;Node17</title>
<path fill="none" stroke="midnightblue" d="M1384.2,-361.779C1403.67,-359.862 1425.2,-357.742 1445.04,-355.789"/>
<polygon fill="midnightblue" stroke="midnightblue" points="1445.63,-359.247 1455.24,-354.784 1444.95,-352.281 1445.63,-359.247"/>
</g>
<!-- Node18 -->
<g id="node18" class="node"><title>Node18</title>
<g id="a_node18"><a xlink:href="../../d7/d35/classcommand_1_1_command.html#ab994c7989255741306855f258b1c2191" target="_top" xlink:title="command.Command.isList">
<polygon fill="white" stroke="black" points="1442,-301.5 1442,-320.5 1588,-320.5 1588,-301.5 1442,-301.5"/>
<text text-anchor="middle" x="1515" y="-308.5" font-family="Helvetica,sans-Serif" font-size="10.00">command.Command.isList</text>
</a>
</g>
</g>
<!-- Node11&#45;&gt;Node18 -->
<g id="edge19" class="edge"><title>Node11&#45;&gt;Node18</title>
<path fill="none" stroke="midnightblue" d="M1342.66,-358.479C1362.48,-350.059 1392.78,-337.916 1420,-330 1429.26,-327.309 1439.13,-324.863 1448.87,-322.69"/>
<polygon fill="midnightblue" stroke="midnightblue" points="1449.91,-326.048 1458.95,-320.524 1448.44,-319.204 1449.91,-326.048"/>
</g>
<!-- Node19 -->
<g id="node19" class="node"><title>Node19</title>
<g id="a_node19"><a xlink:href="../../d7/d35/classcommand_1_1_command.html#ac2df873d4926bc6e08dba8c6272cff7e" target="_top" xlink:title="command.Command.toString">
<polygon fill="white" stroke="black" points="1435,-263.5 1435,-282.5 1595,-282.5 1595,-263.5 1435,-263.5"/>
<text text-anchor="middle" x="1515" y="-270.5" font-family="Helvetica,sans-Serif" font-size="10.00">command.Command.toString</text>
</a>
</g>
</g>
<!-- Node11&#45;&gt;Node19 -->
<g id="edge20" class="edge"><title>Node11&#45;&gt;Node19</title>
<path fill="none" stroke="midnightblue" d="M1330.4,-358.333C1346.91,-341.951 1382.92,-308.873 1420,-292 1425.44,-289.526 1431.2,-287.372 1437.08,-285.497"/>
<polygon fill="midnightblue" stroke="midnightblue" points="1438.44,-288.748 1447.07,-282.599 1436.49,-282.025 1438.44,-288.748"/>
</g>
<!-- Node13 -->
<g id="node13" class="node"><title>Node13</title>
<g id="a_node13"><a xlink:href="../../d1/dd5/classparser_1_1_command_factory.html#a6907bbeefbe406c17766a1e350fc359f" target="_top" xlink:title="parser.CommandFactory.create\lCommand">
<polygon fill="white" stroke="black" points="1654.5,-454 1654.5,-484 1821.5,-484 1821.5,-454 1654.5,-454"/>
<text text-anchor="start" x="1662.5" y="-472" font-family="Helvetica,sans-Serif" font-size="10.00">parser.CommandFactory.create</text>
<text text-anchor="middle" x="1738" y="-461" font-family="Helvetica,sans-Serif" font-size="10.00">Command</text>
</a>
</g>
</g>
<!-- Node12&#45;&gt;Node13 -->
<g id="edge12" class="edge"><title>Node12&#45;&gt;Node13</title>
<path fill="none" stroke="midnightblue" d="M1582.01,-466.896C1601.57,-467.162 1623.37,-467.458 1644.3,-467.742"/>
<polygon fill="midnightblue" stroke="midnightblue" points="1644.44,-471.244 1654.49,-467.88 1644.53,-464.244 1644.44,-471.244"/>
</g>
<!-- Node15&#45;&gt;Node14 -->
<g id="edge17" class="edge"><title>Node15&#45;&gt;Node14</title>
<path fill="none" stroke="midnightblue" d="M1610.22,-387C1684.03,-387 1785.64,-387 1855.87,-387"/>
<polygon fill="midnightblue" stroke="midnightblue" points="1856,-390.5 1866,-387 1856,-383.5 1856,-390.5"/>
</g>
<!-- Node16 -->
<g id="node16" class="node"><title>Node16</title>
<g id="a_node16"><a xlink:href="../../d7/d35/classcommand_1_1_command.html#a30463654f906e5bcf507ab33bd5d8bff" target="_top" xlink:title="command.Command.checkListExit">
<polygon fill="white" stroke="black" points="1646.5,-339.5 1646.5,-358.5 1829.5,-358.5 1829.5,-339.5 1646.5,-339.5"/>
<text text-anchor="middle" x="1738" y="-346.5" font-family="Helvetica,sans-Serif" font-size="10.00">command.Command.checkListExit</text>
</a>
</g>
</g>
<!-- Node15&#45;&gt;Node16 -->
<g id="edge15" class="edge"><title>Node15&#45;&gt;Node16</title>
<path fill="none" stroke="midnightblue" d="M1571.48,-377.46C1601.83,-372.243 1639.6,-365.747 1671.4,-360.28"/>
<polygon fill="midnightblue" stroke="midnightblue" points="1672.23,-363.688 1681.49,-358.544 1671.05,-356.789 1672.23,-363.688"/>
</g>
<!-- Node16&#45;&gt;Node14 -->
<g id="edge16" class="edge"><title>Node16&#45;&gt;Node14</title>
<path fill="none" stroke="midnightblue" d="M1788.71,-358.54C1815.54,-363.69 1848.86,-370.084 1877.11,-375.506"/>
<polygon fill="midnightblue" stroke="midnightblue" points="1876.79,-379.009 1887.27,-377.456 1878.11,-372.134 1876.79,-379.009"/>
</g>
<!-- Node21 -->
<g id="node21" class="node"><title>Node21</title>
<g id="a_node21"><a xlink:href="../../d6/d14/classfeatures_1_1_settings_bar.html#a06ac68340b6f5f59f638db75870f7d33" target="_top" xlink:title="features.SettingsBar.add\lAnimationSlider">
<polygon fill="white" stroke="black" points="855,-186 855,-216 991,-216 991,-186 855,-186"/>
<text text-anchor="start" x="863" y="-204" font-family="Helvetica,sans-Serif" font-size="10.00">features.SettingsBar.add</text>
<text text-anchor="middle" x="923" y="-193" font-family="Helvetica,sans-Serif" font-size="10.00">AnimationSlider</text>
</a>
</g>
</g>
<!-- Node20&#45;&gt;Node21 -->
<g id="edge22" class="edge"><title>Node20&#45;&gt;Node21</title>
<path fill="none" stroke="midnightblue" d="M772.768,-211.316C795.516,-209.743 821.059,-207.977 844.496,-206.357"/>
<polygon fill="midnightblue" stroke="midnightblue" points="845.011,-209.83 854.746,-205.649 844.528,-202.847 845.011,-209.83"/>
</g>
<!-- Node22 -->
<g id="node22" class="node"><title>Node22</title>
<g id="a_node22"><a xlink:href="../../d6/d14/classfeatures_1_1_settings_bar.html#a84c1671d1eff0e0e6df250fcd1a2dcd0" target="_top" xlink:title="features.SettingsBar.add\lComboBox">
<polygon fill="white" stroke="black" points="855,-137 855,-167 991,-167 991,-137 855,-137"/>
<text text-anchor="start" x="863" y="-155" font-family="Helvetica,sans-Serif" font-size="10.00">features.SettingsBar.add</text>
<text text-anchor="middle" x="923" y="-144" font-family="Helvetica,sans-Serif" font-size="10.00">ComboBox</text>
</a>
</g>
</g>
<!-- Node20&#45;&gt;Node22 -->
<g id="edge23" class="edge"><title>Node20&#45;&gt;Node22</title>
<path fill="none" stroke="midnightblue" d="M748.908,-200.961C772.281,-193.148 801.581,-183.66 828,-176 835.393,-173.856 843.143,-171.713 850.886,-169.639"/>
<polygon fill="midnightblue" stroke="midnightblue" points="851.89,-172.994 860.662,-167.053 850.1,-166.226 851.89,-172.994"/>
</g>
<!-- Node23 -->
<g id="node23" class="node"><title>Node23</title>
<g id="a_node23"><a xlink:href="../../d7/d3c/classcomponents_1_1_top_pane.html#a1239f7bb3356707158d40b0b41b4ca0b" target="_top" xlink:title="components.TopPane.addItems">
<polygon fill="white" stroke="black" points="839.5,-98.5 839.5,-117.5 1006.5,-117.5 1006.5,-98.5 839.5,-98.5"/>
<text text-anchor="middle" x="923" y="-105.5" font-family="Helvetica,sans-Serif" font-size="10.00">components.TopPane.addItems</text>
</a>
</g>
</g>
<!-- Node20&#45;&gt;Node23 -->
<g id="edge24" class="edge"><title>Node20&#45;&gt;Node23</title>
<path fill="none" stroke="midnightblue" d="M760.766,-200.901C771.827,-196.298 782.838,-190.424 792,-183 814.988,-164.372 803.571,-143.693 828,-127 830.906,-125.014 833.973,-123.227 837.155,-121.619"/>
<polygon fill="midnightblue" stroke="midnightblue" points="838.651,-124.784 846.387,-117.545 835.825,-118.38 838.651,-124.784"/>
</g>
<!-- Node24 -->
<g id="node24" class="node"><title>Node24</title>
<g id="a_node24"><a xlink:href="../../d6/d14/classfeatures_1_1_settings_bar.html#a0087ffd8c4aeedd07998a8a058cc9209" target="_top" xlink:title="features.SettingsBar.add\lPenSlider">
<polygon fill="white" stroke="black" points="855,-49 855,-79 991,-79 991,-49 855,-49"/>
<text text-anchor="start" x="863" y="-67" font-family="Helvetica,sans-Serif" font-size="10.00">features.SettingsBar.add</text>
<text text-anchor="middle" x="923" y="-56" font-family="Helvetica,sans-Serif" font-size="10.00">PenSlider</text>
</a>
</g>
</g>
<!-- Node20&#45;&gt;Node24 -->
<g id="edge25" class="edge"><title>Node20&#45;&gt;Node24</title>
<path fill="none" stroke="midnightblue" d="M765.155,-200.888C775.009,-196.366 784.449,-190.527 792,-183 823.684,-151.417 794.738,-118.917 828,-89 833.146,-84.3718 839.053,-80.5847 845.346,-77.4881"/>
<polygon fill="midnightblue" stroke="midnightblue" points="846.992,-80.5904 854.799,-73.4277 844.23,-74.1587 846.992,-80.5904"/>
</g>
<!-- Node25 -->
<g id="node25" class="node"><title>Node25</title>
<g id="a_node25"><a xlink:href="../../d6/d8b/classcomponents_1_1_pane_factory.html#a749d9694305a5e64344c7f0b2eb1ec46" target="_top" xlink:title="components.PaneFactory.makePane">
<polygon fill="white" stroke="black" points="828.5,-333.5 828.5,-352.5 1017.5,-352.5 1017.5,-333.5 828.5,-333.5"/>
<text text-anchor="middle" x="923" y="-340.5" font-family="Helvetica,sans-Serif" font-size="10.00">components.PaneFactory.makePane</text>
</a>
</g>
</g>
<!-- Node20&#45;&gt;Node25 -->
<g id="edge26" class="edge"><title>Node20&#45;&gt;Node25</title>
<path fill="none" stroke="midnightblue" d="M734.411,-231.142C752.284,-241.22 774.88,-255.596 792,-272 812.033,-291.195 804.836,-307.728 828,-323 831.785,-325.495 835.825,-327.686 840.025,-329.61"/>
<polygon fill="midnightblue" stroke="midnightblue" points="838.85,-332.91 849.433,-333.406 841.469,-326.418 838.85,-332.91"/>
</g>
<!-- Node26 -->
<g id="node26" class="node"><title>Node26</title>
<g id="a_node26"><a xlink:href="../../d9/d58/classcomponents_1_1_bottom_pane.html#a8c0188cd8a7650eb5b180930298a44a2" target="_top" xlink:title="components.BottomPane.update\lButton">
<polygon fill="white" stroke="black" points="835,-284 835,-314 1011,-314 1011,-284 835,-284"/>
<text text-anchor="start" x="843" y="-302" font-family="Helvetica,sans-Serif" font-size="10.00">components.BottomPane.update</text>
<text text-anchor="middle" x="923" y="-291" font-family="Helvetica,sans-Serif" font-size="10.00">Button</text>
</a>
</g>
</g>
<!-- Node20&#45;&gt;Node26 -->
<g id="edge27" class="edge"><title>Node20&#45;&gt;Node26</title>
<path fill="none" stroke="midnightblue" d="M733.203,-231.094C757.738,-243.785 794.515,-261.766 828,-274 834.815,-276.49 841.991,-278.848 849.214,-281.049"/>
<polygon fill="midnightblue" stroke="midnightblue" points="848.482,-284.482 859.064,-283.95 850.46,-277.768 848.482,-284.482"/>
</g>
<!-- Node27 -->
<g id="node27" class="node"><title>Node27</title>
<g id="a_node27"><a xlink:href="../../d6/d68/classcomponents_1_1_turtle_manager.html#a4359c3b1142a696d251e7fc017729efb" target="_top" xlink:title="components.TurtleManager.update\lImageMap">
<polygon fill="white" stroke="black" points="831.5,-235 831.5,-265 1014.5,-265 1014.5,-235 831.5,-235"/>
<text text-anchor="start" x="839.5" y="-253" font-family="Helvetica,sans-Serif" font-size="10.00">components.TurtleManager.update</text>
<text text-anchor="middle" x="923" y="-242" font-family="Helvetica,sans-Serif" font-size="10.00">ImageMap</text>
</a>
</g>
</g>
<!-- Node20&#45;&gt;Node27 -->
<g id="edge28" class="edge"><title>Node20&#45;&gt;Node27</title>
<path fill="none" stroke="midnightblue" d="M772.768,-226.618C788.112,-229.022 804.728,-231.626 821.111,-234.193"/>
<polygon fill="midnightblue" stroke="midnightblue" points="820.847,-237.694 831.268,-235.784 821.931,-230.778 820.847,-237.694"/>
</g>
<!-- Node30&#45;&gt;Node3 -->
<g id="edge32" class="edge"><title>Node30&#45;&gt;Node3</title>
<path fill="none" stroke="midnightblue" d="M325.474,-258.963C343.708,-254.705 363.629,-250.111 382,-246 395.8,-242.912 410.716,-239.668 424.647,-236.678"/>
<polygon fill="midnightblue" stroke="midnightblue" points="425.54,-240.066 434.587,-234.552 424.076,-233.221 425.54,-240.066"/>
</g>
<!-- Node30&#45;&gt;Node8 -->
<g id="edge35" class="edge"><title>Node30&#45;&gt;Node8</title>
<path fill="none" stroke="midnightblue" d="M281.491,-289.13C304.21,-305.834 343.566,-331.952 382,-344 532.117,-391.057 716.616,-394.977 826.469,-392.042"/>
<polygon fill="midnightblue" stroke="midnightblue" points="826.642,-395.538 836.536,-391.748 826.438,-388.541 826.642,-395.538"/>
</g>
<!-- Node30&#45;&gt;Node28 -->
<g id="edge33" class="edge"><title>Node30&#45;&gt;Node28</title>
<path fill="none" stroke="midnightblue" d="M327.031,-258.893C333.692,-256.115 340.151,-252.845 346,-249 366.828,-235.309 360.528,-218.657 382,-206 385.695,-203.822 389.592,-201.887 393.616,-200.169"/>
<polygon fill="midnightblue" stroke="midnightblue" points="395.09,-203.354 403.205,-196.542 392.614,-196.807 395.09,-203.354"/>
</g>
<!-- Node30&#45;&gt;Node29 -->
<g id="edge34" class="edge"><title>Node30&#45;&gt;Node29</title>
<path fill="none" stroke="midnightblue" d="M346.284,-272.84C360.887,-272.639 376.114,-272.43 390.841,-272.227"/>
<polygon fill="midnightblue" stroke="midnightblue" points="390.992,-275.725 400.943,-272.088 390.896,-268.726 390.992,-275.725"/>
</g>
<!-- Node31 -->
<g id="node31" class="node"><title>Node31</title>
<g id="a_node31"><a xlink:href="../../d9/d58/classcomponents_1_1_bottom_pane.html#aa3c0513c0aa7abdfbf6ec6a7dd74463c" target="_top" xlink:title="components.BottomPane.update\lErrors">
<polygon fill="white" stroke="black" points="393,-305 393,-335 569,-335 569,-305 393,-305"/>
<text text-anchor="start" x="401" y="-323" font-family="Helvetica,sans-Serif" font-size="10.00">components.BottomPane.update</text>
<text text-anchor="middle" x="481" y="-312" font-family="Helvetica,sans-Serif" font-size="10.00">Errors</text>
</a>
</g>
</g>
<!-- Node30&#45;&gt;Node31 -->
<g id="edge36" class="edge"><title>Node30&#45;&gt;Node31</title>
<path fill="none" stroke="midnightblue" d="M333.381,-289.062C354.285,-293.473 377.293,-298.328 398.761,-302.858"/>
<polygon fill="midnightblue" stroke="midnightblue" points="398.324,-306.343 408.831,-304.983 399.769,-299.493 398.324,-306.343"/>
</g>
<!-- Node33 -->
<g id="node33" class="node"><title>Node33</title>
<g id="a_node33"><a xlink:href="../../d7/da1/classmain_application_1_1_controller.html#ae6de41a0b39ca44633f5d6205edd6ddb" target="_top" xlink:title="mainApplication.Controller.saveMem">
<polygon fill="white" stroke="black" points="385.5,-89.5 385.5,-108.5 576.5,-108.5 576.5,-89.5 385.5,-89.5"/>
<text text-anchor="middle" x="481" y="-96.5" font-family="Helvetica,sans-Serif" font-size="10.00">mainApplication.Controller.saveMem</text>
</a>
</g>
</g>
<!-- Node32&#45;&gt;Node33 -->
<g id="edge38" class="edge"><title>Node32&#45;&gt;Node33</title>
<path fill="none" stroke="midnightblue" d="M346.284,-99C355.799,-99 365.58,-99 375.314,-99"/>
<polygon fill="midnightblue" stroke="midnightblue" points="375.428,-102.5 385.428,-99 375.428,-95.5001 375.428,-102.5"/>
</g>
<!-- Node34 -->
<g id="node34" class="node"><title>Node34</title>
<g id="a_node34"><a xlink:href="../../de/d19/classworkspace_1_1_workspace.html#a492d55dbd2a67c35624a37089be4a94a" target="_top" xlink:title="workspace.Workspace.writeMem">
<polygon fill="white" stroke="black" points="619,-89.5 619,-108.5 789,-108.5 789,-89.5 619,-89.5"/>
<text text-anchor="middle" x="704" y="-96.5" font-family="Helvetica,sans-Serif" font-size="10.00">workspace.Workspace.writeMem</text>
</a>
</g>
</g>
<!-- Node33&#45;&gt;Node34 -->
<g id="edge39" class="edge"><title>Node33&#45;&gt;Node34</title>
<path fill="none" stroke="midnightblue" d="M576.686,-99C587.339,-99 598.193,-99 608.84,-99"/>
<polygon fill="midnightblue" stroke="midnightblue" points="608.972,-102.5 618.972,-99 608.972,-95.5001 608.972,-102.5"/>
</g>
</g>
</svg>
