<?xml version="1.0" encoding="UTF-8" standalone="no"?>
<!DOCTYPE svg PUBLIC "-//W3C//DTD SVG 1.1//EN"
 "http://www.w3.org/Graphics/SVG/1.1/DTD/svg11.dtd">
<!-- Generated by graphviz version 2.36.0 (20140111.2315)
 -->
<!-- Title: mainApplication.GUIShell.createSaveButton Pages: 1 -->
<svg width="612pt" height="38pt"
 viewBox="0.00 0.00 612.00 38.00" xmlns="http://www.w3.org/2000/svg" xmlns:xlink="http://www.w3.org/1999/xlink">
<g id="graph0" class="graph" transform="scale(1 1) rotate(0) translate(4 34)">
<title>mainApplication.GUIShell.createSaveButton</title>
<polygon fill="white" stroke="none" points="-4,4 -4,-34 608,-34 608,4 -4,4"/>
<!-- Node1 -->
<g id="node1" class="node"><title>Node1</title>
<polygon fill="#bfbfbf" stroke="black" points="0,-0 0,-30 170,-30 170,-0 0,-0"/>
<text text-anchor="start" x="8" y="-18" font-family="Helvetica,sans-Serif" font-size="10.00">mainApplication.GUIShell.create</text>
<text text-anchor="middle" x="85" y="-7" font-family="Helvetica,sans-Serif" font-size="10.00">SaveButton</text>
</g>
<!-- Node2 -->
<g id="node2" class="node"><title>Node2</title>
<g id="a_node2"><a xlink:href="../../d7/da1/classmain_application_1_1_controller.html#ae6de41a0b39ca44633f5d6205edd6ddb" target="_top" xlink:title="mainApplication.Controller.saveMem">
<polygon fill="white" stroke="black" points="206.5,-5.5 206.5,-24.5 397.5,-24.5 397.5,-5.5 206.5,-5.5"/>
<text text-anchor="middle" x="302" y="-12.5" font-family="Helvetica,sans-Serif" font-size="10.00">mainApplication.Controller.saveMem</text>
</a>
</g>
</g>
<!-- Node1&#45;&gt;Node2 -->
<g id="edge1" class="edge"><title>Node1&#45;&gt;Node2</title>
<path fill="none" stroke="midnightblue" d="M170.048,-15C178.598,-15 187.356,-15 196.091,-15"/>
<polygon fill="midnightblue" stroke="midnightblue" points="196.321,-18.5001 206.321,-15 196.321,-11.5001 196.321,-18.5001"/>
</g>
<!-- Node3 -->
<g id="node3" class="node"><title>Node3</title>
<g id="a_node3"><a xlink:href="../../de/d19/classworkspace_1_1_workspace.html#a492d55dbd2a67c35624a37089be4a94a" target="_top" xlink:title="workspace.Workspace.writeMem">
<polygon fill="white" stroke="black" points="434,-5.5 434,-24.5 604,-24.5 604,-5.5 434,-5.5"/>
<text text-anchor="middle" x="519" y="-12.5" font-family="Helvetica,sans-Serif" font-size="10.00">workspace.Workspace.writeMem</text>
</a>
</g>
</g>
<!-- Node2&#45;&gt;Node3 -->
<g id="edge2" class="edge"><title>Node2&#45;&gt;Node3</title>
<path fill="none" stroke="midnightblue" d="M397.615,-15C406.279,-15 415.057,-15 423.718,-15"/>
<polygon fill="midnightblue" stroke="midnightblue" points="423.819,-18.5001 433.819,-15 423.819,-11.5001 423.819,-18.5001"/>
</g>
</g>
</svg>
