<?xml version="1.0" encoding="UTF-8" standalone="no"?>
<!DOCTYPE svg PUBLIC "-//W3C//DTD SVG 1.1//EN"
 "http://www.w3.org/Graphics/SVG/1.1/DTD/svg11.dtd">
<!-- Generated by graphviz version 2.36.0 (20140111.2315)
 -->
<!-- Title: mainApplication.GUIShell.createOpenButton Pages: 1 -->
<!--zoomable 574 -->
<svg id="main" version="1.1" xmlns="http://www.w3.org/2000/svg" xmlns:xlink="http://www.w3.org/1999/xlink" xml:space="preserve" onload="init(evt)">
<style type="text/css"><![CDATA[
.edge:hover path { stroke: red; }
.edge:hover polygon { stroke: red; fill: red; }
]]></style>
<script type="text/javascript"><![CDATA[
var edges = document.getElementsByTagName('g');
if (edges && edges.length) {
  for (var i=0;i<edges.length;i++) {
    if (edges[i].id.substr(0,4)=='edge') {
      edges[i].setAttribute('class','edge');
    }
  }
}
]]></script>
        <defs>
                <circle id="rim" cx="0" cy="0" r="7"/>
                <circle id="rim2" cx="0" cy="0" r="3.5"/>
                <g id="zoomPlus">
                        <use xlink:href="#rim" fill="#404040">
                                <set attributeName="fill" to="#808080" begin="zoomplus.mouseover" end="zoomplus.mouseout"/>
                        </use>
                        <path d="M-4,0h8M0,-4v8" fill="none" stroke="white" stroke-width="1.5" pointer-events="none"/>
                </g>
                <g id="zoomMin">
                        <use xlink:href="#rim" fill="#404040">
                                <set attributeName="fill" to="#808080" begin="zoomminus.mouseover" end="zoomminus.mouseout"/>
                        </use>
                        <path d="M-4,0h8" fill="none" stroke="white" stroke-width="1.5" pointer-events="none"/>
                </g>
                <g id="dirArrow">
                        <path fill="none" stroke="white" stroke-width="1.5" d="M0,-3.0v7 M-2.5,-0.5L0,-3.0L2.5,-0.5"/>
                </g>
               <g id="resetDef">
                       <use xlink:href="#rim2" fill="#404040">
                               <set attributeName="fill" to="#808080" begin="reset.mouseover" end="reset.mouseout"/>
                       </use>
               </g>
        </defs>

<script type="text/javascript">
var viewWidth = 1842;
var viewHeight = 574;
var sectionId = 'dynsection-5';
</script>
<script xlink:href="../../svgpan.js"/>
<svg id="graph" class="graph">
<g id="viewport">
<title>mainApplication.GUIShell.createOpenButton</title>
<polygon fill="white" stroke="none" points="-4,4 -4,-570 1838,-570 1838,4 -4,4"/>
<!-- Node1 -->
<g id="node1" class="node"><title>Node1</title>
<polygon fill="#bfbfbf" stroke="black" points="0,-93 0,-123 170,-123 170,-93 0,-93"/>
<text text-anchor="start" x="8" y="-111" font-family="Helvetica,sans-Serif" font-size="10.00">mainApplication.GUIShell.create</text>
<text text-anchor="middle" x="85" y="-100" font-family="Helvetica,sans-Serif" font-size="10.00">OpenButton</text>
</g>
<!-- Node2 -->
<g id="node2" class="node"><title>Node2</title>
<g id="a_node2"><a xlink:href="../../d3/de0/classmain_application_1_1_g_u_i.html#af6bd387013dbd1d1daf030117da66c0e" target="_top" xlink:title="mainApplication.GUI.initiate">
<polygon fill="white" stroke="black" points="230.5,-204.5 230.5,-223.5 379.5,-223.5 379.5,-204.5 230.5,-204.5"/>
<text text-anchor="middle" x="305" y="-211.5" font-family="Helvetica,sans-Serif" font-size="10.00">mainApplication.GUI.initiate</text>
</a>
</g>
</g>
<!-- Node1&#45;&gt;Node2 -->
<g id="edge1" class="edge"><title>Node1&#45;&gt;Node2</title>
<path fill="none" stroke="midnightblue" d="M117.234,-123.187C159.415,-143.697 234.015,-179.971 275.009,-199.904"/>
<polygon fill="midnightblue" stroke="midnightblue" points="273.663,-203.141 284.186,-204.366 276.724,-196.845 273.663,-203.141"/>
</g>
<!-- Node7 -->
<g id="node7" class="node"><title>Node7</title>
<g id="a_node7"><a xlink:href="../../d7/da1/classmain_application_1_1_controller.html#a6e9afc2e53e6adb01a2b73794a319b63" target="_top" xlink:title="mainApplication.Controller.parse\lAndEvaluate">
<polygon fill="white" stroke="black" points="661,-136 661,-166 833,-166 833,-136 661,-136"/>
<text text-anchor="start" x="669" y="-154" font-family="Helvetica,sans-Serif" font-size="10.00">mainApplication.Controller.parse</text>
<text text-anchor="middle" x="747" y="-143" font-family="Helvetica,sans-Serif" font-size="10.00">AndEvaluate</text>
</a>
</g>
</g>
<!-- Node1&#45;&gt;Node7 -->
<g id="edge28" class="edge"><title>Node1&#45;&gt;Node7</title>
<path fill="none" stroke="midnightblue" d="M170.092,-122.542C182.116,-124.263 194.353,-125.823 206,-127 361.12,-142.677 542.338,-148.114 650.445,-150"/>
<polygon fill="midnightblue" stroke="midnightblue" points="650.618,-153.503 660.675,-150.171 650.736,-146.504 650.618,-153.503"/>
</g>
<!-- Node27 -->
<g id="node27" class="node"><title>Node27</title>
<g id="a_node27"><a xlink:href="../../d7/da1/classmain_application_1_1_controller.html#a3c8a855bb9f69883e28749335a8448aa" target="_top" xlink:title="mainApplication.Controller.removeWS">
<polygon fill="white" stroke="black" points="206.5,-98.5 206.5,-117.5 403.5,-117.5 403.5,-98.5 206.5,-98.5"/>
<text text-anchor="middle" x="305" y="-105.5" font-family="Helvetica,sans-Serif" font-size="10.00">mainApplication.Controller.removeWS</text>
</a>
</g>
</g>
<!-- Node1&#45;&gt;Node27 -->
<g id="edge29" class="edge"><title>Node1&#45;&gt;Node27</title>
<path fill="none" stroke="midnightblue" d="M170.284,-108C178.724,-108 187.372,-108 196.012,-108"/>
<polygon fill="midnightblue" stroke="midnightblue" points="196.137,-111.5 206.137,-108 196.137,-104.5 196.137,-111.5"/>
</g>
<!-- Node28 -->
<g id="node28" class="node"><title>Node28</title>
<g id="a_node28"><a xlink:href="../../d7/da1/classmain_application_1_1_controller.html#a7144249536d1002f84892898a5cc9c71" target="_top" xlink:title="mainApplication.Controller.set\lActive">
<polygon fill="white" stroke="black" points="225,-49 225,-79 385,-79 385,-49 225,-49"/>
<text text-anchor="start" x="233" y="-67" font-family="Helvetica,sans-Serif" font-size="10.00">mainApplication.Controller.set</text>
<text text-anchor="middle" x="305" y="-56" font-family="Helvetica,sans-Serif" font-size="10.00">Active</text>
</a>
</g>
</g>
<!-- Node1&#45;&gt;Node28 -->
<g id="edge30" class="edge"><title>Node1&#45;&gt;Node28</title>
<path fill="none" stroke="midnightblue" d="M160.414,-92.9808C179.512,-89.126 200.192,-84.9522 219.749,-81.0049"/>
<polygon fill="midnightblue" stroke="midnightblue" points="220.442,-84.4356 229.552,-79.0262 219.057,-77.5739 220.442,-84.4356"/>
</g>
<!-- Node29 -->
<g id="node29" class="node"><title>Node29</title>
<g id="a_node29"><a xlink:href="../../d9/d58/classcomponents_1_1_bottom_pane.html#aa3c0513c0aa7abdfbf6ec6a7dd74463c" target="_top" xlink:title="components.BottomPane.update\lErrors">
<polygon fill="white" stroke="black" points="217,-0 217,-30 393,-30 393,-0 217,-0"/>
<text text-anchor="start" x="225" y="-18" font-family="Helvetica,sans-Serif" font-size="10.00">components.BottomPane.update</text>
<text text-anchor="middle" x="305" y="-7" font-family="Helvetica,sans-Serif" font-size="10.00">Errors</text>
</a>
</g>
</g>
<!-- Node1&#45;&gt;Node29 -->
<g id="edge31" class="edge"><title>Node1&#45;&gt;Node29</title>
<path fill="none" stroke="midnightblue" d="M108.038,-92.7784C131.406,-77.2625 169.86,-53.4767 206,-39 211.365,-36.851 216.974,-34.8573 222.677,-33.0146"/>
<polygon fill="midnightblue" stroke="midnightblue" points="223.798,-36.3316 232.334,-30.0552 221.747,-29.6388 223.798,-36.3316"/>
</g>
<!-- Node3 -->
<g id="node3" class="node"><title>Node3</title>
<g id="a_node3"><a xlink:href="../../d7/da1/classmain_application_1_1_controller.html#a14cb8c148061cb04d6968d56f26e4c82" target="_top" xlink:title="mainApplication.Controller.create\lWorkspace">
<polygon fill="white" stroke="black" points="440,-224 440,-254 616,-254 616,-224 440,-224"/>
<text text-anchor="start" x="448" y="-242" font-family="Helvetica,sans-Serif" font-size="10.00">mainApplication.Controller.create</text>
<text text-anchor="middle" x="528" y="-231" font-family="Helvetica,sans-Serif" font-size="10.00">Workspace</text>
</a>
</g>
</g>
<!-- Node2&#45;&gt;Node3 -->
<g id="edge2" class="edge"><title>Node2&#45;&gt;Node3</title>
<path fill="none" stroke="midnightblue" d="M379.59,-222.325C395.603,-224.136 412.785,-226.08 429.56,-227.977"/>
<polygon fill="midnightblue" stroke="midnightblue" points="429.607,-231.505 439.937,-229.151 430.394,-224.549 429.607,-231.505"/>
</g>
<!-- Node6 -->
<g id="node6" class="node"><title>Node6</title>
<g id="a_node6"><a xlink:href="../../d3/de0/classmain_application_1_1_g_u_i.html#a60b2e396c945ac173bfd82f207f42000" target="_top" xlink:title="mainApplication.GUI.initiate\lKeyPress">
<polygon fill="white" stroke="black" points="453.5,-175 453.5,-205 602.5,-205 602.5,-175 453.5,-175"/>
<text text-anchor="start" x="461.5" y="-193" font-family="Helvetica,sans-Serif" font-size="10.00">mainApplication.GUI.initiate</text>
<text text-anchor="middle" x="528" y="-182" font-family="Helvetica,sans-Serif" font-size="10.00">KeyPress</text>
</a>
</g>
</g>
<!-- Node2&#45;&gt;Node6 -->
<g id="edge5" class="edge"><title>Node2&#45;&gt;Node6</title>
<path fill="none" stroke="midnightblue" d="M379.59,-206.008C399.984,-203.794 422.274,-201.373 443.204,-199.1"/>
<polygon fill="midnightblue" stroke="midnightblue" points="443.791,-202.557 453.355,-197.998 443.036,-195.598 443.791,-202.557"/>
</g>
<!-- Node19 -->
<g id="node19" class="node"><title>Node19</title>
<g id="a_node19"><a xlink:href="../../d3/de0/classmain_application_1_1_g_u_i.html#a5b9d9bebac3a8ce813b0134ecdafc66d" target="_top" xlink:title="mainApplication.GUI.load\lPanes">
<polygon fill="white" stroke="black" points="459.5,-367 459.5,-397 596.5,-397 596.5,-367 459.5,-367"/>
<text text-anchor="start" x="467.5" y="-385" font-family="Helvetica,sans-Serif" font-size="10.00">mainApplication.GUI.load</text>
<text text-anchor="middle" x="528" y="-374" font-family="Helvetica,sans-Serif" font-size="10.00">Panes</text>
</a>
</g>
</g>
<!-- Node2&#45;&gt;Node19 -->
<g id="edge20" class="edge"><title>Node2&#45;&gt;Node19</title>
<path fill="none" stroke="midnightblue" d="M318.515,-223.514C353.057,-249.772 450.366,-323.744 498.836,-360.591"/>
<polygon fill="midnightblue" stroke="midnightblue" points="496.936,-363.542 507.015,-366.808 501.172,-357.969 496.936,-363.542"/>
</g>
<!-- Node4 -->
<g id="node4" class="node"><title>Node4</title>
<g id="a_node4"><a xlink:href="../../de/d19/classworkspace_1_1_workspace.html#aecaf73d3c2b2008aac032adc4a4f759f" target="_top" xlink:title="workspace.Workspace.create\lTurtle">
<polygon fill="white" stroke="black" points="669.5,-213 669.5,-243 824.5,-243 824.5,-213 669.5,-213"/>
<text text-anchor="start" x="677.5" y="-231" font-family="Helvetica,sans-Serif" font-size="10.00">workspace.Workspace.create</text>
<text text-anchor="middle" x="747" y="-220" font-family="Helvetica,sans-Serif" font-size="10.00">Turtle</text>
</a>
</g>
</g>
<!-- Node3&#45;&gt;Node4 -->
<g id="edge3" class="edge"><title>Node3&#45;&gt;Node4</title>
<path fill="none" stroke="midnightblue" d="M616.012,-234.589C630.244,-233.868 644.99,-233.12 659.217,-232.399"/>
<polygon fill="midnightblue" stroke="midnightblue" points="659.66,-235.881 669.47,-231.879 659.306,-228.89 659.66,-235.881"/>
</g>
<!-- Node5 -->
<g id="node5" class="node"><title>Node5</title>
<g id="a_node5"><a xlink:href="../../d4/d4a/classactor_1_1_turtle.html#aef4e04d5061408a3d5c35eb27cc7f96f" target="_top" xlink:title="actor.Turtle.setChangedand\lNotify">
<polygon fill="white" stroke="black" points="887,-213 887,-243 1035,-243 1035,-213 887,-213"/>
<text text-anchor="start" x="895" y="-231" font-family="Helvetica,sans-Serif" font-size="10.00">actor.Turtle.setChangedand</text>
<text text-anchor="middle" x="961" y="-220" font-family="Helvetica,sans-Serif" font-size="10.00">Notify</text>
</a>
</g>
</g>
<!-- Node4&#45;&gt;Node5 -->
<g id="edge4" class="edge"><title>Node4&#45;&gt;Node5</title>
<path fill="none" stroke="midnightblue" d="M824.537,-228C841.491,-228 859.537,-228 876.744,-228"/>
<polygon fill="midnightblue" stroke="midnightblue" points="876.763,-231.5 886.763,-228 876.763,-224.5 876.763,-231.5"/>
</g>
<!-- Node6&#45;&gt;Node7 -->
<g id="edge6" class="edge"><title>Node6&#45;&gt;Node7</title>
<path fill="none" stroke="midnightblue" d="M602.769,-176.742C618.642,-173.889 635.624,-170.837 652.144,-167.868"/>
<polygon fill="midnightblue" stroke="midnightblue" points="653.134,-171.246 662.357,-166.033 651.895,-164.357 653.134,-171.246"/>
</g>
<!-- Node8 -->
<g id="node8" class="node"><title>Node8</title>
<g id="a_node8"><a xlink:href="../../de/d19/classworkspace_1_1_workspace.html#a3a9437dc7cd23ecdf0d20e29e577ae9b" target="_top" xlink:title="workspace.Workspace.evaluate">
<polygon fill="white" stroke="black" points="878.5,-125.5 878.5,-144.5 1043.5,-144.5 1043.5,-125.5 878.5,-125.5"/>
<text text-anchor="middle" x="961" y="-132.5" font-family="Helvetica,sans-Serif" font-size="10.00">workspace.Workspace.evaluate</text>
</a>
</g>
</g>
<!-- Node7&#45;&gt;Node8 -->
<g id="edge7" class="edge"><title>Node7&#45;&gt;Node8</title>
<path fill="none" stroke="midnightblue" d="M833.007,-144.584C844.59,-143.71 856.52,-142.81 868.216,-141.927"/>
<polygon fill="midnightblue" stroke="midnightblue" points="868.711,-145.4 878.419,-141.157 868.184,-138.42 868.711,-145.4"/>
</g>
<!-- Node9 -->
<g id="node9" class="node"><title>Node9</title>
<g id="a_node9"><a xlink:href="../../d6/d95/classparser_1_1_parser.html#a5e98fdfffe49478864dc1b22371d6cb1" target="_top" xlink:title="parser.Parser.parse">
<polygon fill="white" stroke="black" points="906.5,-163.5 906.5,-182.5 1015.5,-182.5 1015.5,-163.5 906.5,-163.5"/>
<text text-anchor="middle" x="961" y="-170.5" font-family="Helvetica,sans-Serif" font-size="10.00">parser.Parser.parse</text>
</a>
</g>
</g>
<!-- Node7&#45;&gt;Node9 -->
<g id="edge8" class="edge"><title>Node7&#45;&gt;Node9</title>
<path fill="none" stroke="midnightblue" d="M833.007,-159.821C854.098,-162.01 876.343,-164.319 896.221,-166.381"/>
<polygon fill="midnightblue" stroke="midnightblue" points="896.074,-169.885 906.381,-167.436 896.796,-162.922 896.074,-169.885"/>
</g>
<!-- Node10 -->
<g id="node10" class="node"><title>Node10</title>
<g id="a_node10"><a xlink:href="../../d6/d95/classparser_1_1_parser.html#a2fe30e8a728e36fd2626587f059c4b95" target="_top" xlink:title="parser.Parser.makeTree">
<polygon fill="white" stroke="black" points="1080,-163.5 1080,-182.5 1208,-182.5 1208,-163.5 1080,-163.5"/>
<text text-anchor="middle" x="1144" y="-170.5" font-family="Helvetica,sans-Serif" font-size="10.00">parser.Parser.makeTree</text>
</a>
</g>
</g>
<!-- Node9&#45;&gt;Node10 -->
<g id="edge9" class="edge"><title>Node9&#45;&gt;Node10</title>
<path fill="none" stroke="midnightblue" d="M1015.82,-173C1032.71,-173 1051.65,-173 1069.65,-173"/>
<polygon fill="midnightblue" stroke="midnightblue" points="1069.83,-176.5 1079.83,-173 1069.83,-169.5 1069.83,-176.5"/>
</g>
<!-- Node11 -->
<g id="node11" class="node"><title>Node11</title>
<g id="a_node11"><a xlink:href="../../d6/d95/classparser_1_1_parser.html#ad5386cfbaf84af60512e31503fda19ed" target="_top" xlink:title="parser.Parser.makeNode">
<polygon fill="white" stroke="black" points="1272,-261.5 1272,-280.5 1406,-280.5 1406,-261.5 1272,-261.5"/>
<text text-anchor="middle" x="1339" y="-268.5" font-family="Helvetica,sans-Serif" font-size="10.00">parser.Parser.makeNode</text>
</a>
</g>
</g>
<!-- Node10&#45;&gt;Node11 -->
<g id="edge10" class="edge"><title>Node10&#45;&gt;Node11</title>
<path fill="none" stroke="midnightblue" d="M1155.78,-182.665C1173.15,-197.781 1208.97,-227.04 1244,-244 1256.18,-249.897 1269.88,-254.738 1282.98,-258.611"/>
<polygon fill="midnightblue" stroke="midnightblue" points="1282.27,-262.047 1292.85,-261.384 1284.17,-255.308 1282.27,-262.047"/>
</g>
<!-- Node13 -->
<g id="node13" class="node"><title>Node13</title>
<g id="a_node13"><a xlink:href="../../d3/dcc/classparser_1_1_node.html#a7dfaaf7e60998705460f304c5d56ca6f" target="_top" xlink:title="parser.Node.getCommand">
<polygon fill="white" stroke="black" points="1690,-182.5 1690,-201.5 1834,-201.5 1834,-182.5 1690,-182.5"/>
<text text-anchor="middle" x="1762" y="-189.5" font-family="Helvetica,sans-Serif" font-size="10.00">parser.Node.getCommand</text>
</a>
</g>
</g>
<!-- Node10&#45;&gt;Node13 -->
<g id="edge12" class="edge"><title>Node10&#45;&gt;Node13</title>
<path fill="none" stroke="midnightblue" d="M1163.74,-182.584C1183.21,-191.961 1214.86,-205.599 1244,-211 1405.42,-240.916 1599.89,-218.427 1697.93,-203.115"/>
<polygon fill="midnightblue" stroke="midnightblue" points="1698.64,-206.546 1707.97,-201.519 1697.55,-199.632 1698.64,-206.546"/>
</g>
<!-- Node14 -->
<g id="node14" class="node"><title>Node14</title>
<g id="a_node14"><a xlink:href="../../d7/d35/classcommand_1_1_command.html#a81d128e8b4ac11d732d24edcbc5c2a88" target="_top" xlink:title="command.Command.getNumInputs">
<polygon fill="white" stroke="black" points="1244,-182.5 1244,-201.5 1434,-201.5 1434,-182.5 1244,-182.5"/>
<text text-anchor="middle" x="1339" y="-189.5" font-family="Helvetica,sans-Serif" font-size="10.00">command.Command.getNumInputs</text>
</a>
</g>
</g>
<!-- Node10&#45;&gt;Node14 -->
<g id="edge13" class="edge"><title>Node10&#45;&gt;Node14</title>
<path fill="none" stroke="midnightblue" d="M1208.2,-179.221C1216.41,-180.03 1225,-180.875 1233.67,-181.729"/>
<polygon fill="midnightblue" stroke="midnightblue" points="1233.57,-185.236 1243.87,-182.733 1234.26,-178.27 1233.57,-185.236"/>
</g>
<!-- Node16 -->
<g id="node16" class="node"><title>Node16</title>
<g id="a_node16"><a xlink:href="../../d3/dcc/classparser_1_1_node.html#ae9a17458b710c179f741464ca6e9048a" target="_top" xlink:title="parser.Node.addChild">
<polygon fill="white" stroke="black" points="1279.5,-144.5 1279.5,-163.5 1398.5,-163.5 1398.5,-144.5 1279.5,-144.5"/>
<text text-anchor="middle" x="1339" y="-151.5" font-family="Helvetica,sans-Serif" font-size="10.00">parser.Node.addChild</text>
</a>
</g>
</g>
<!-- Node10&#45;&gt;Node16 -->
<g id="edge17" class="edge"><title>Node10&#45;&gt;Node16</title>
<path fill="none" stroke="midnightblue" d="M1208.2,-166.779C1227.67,-164.862 1249.2,-162.742 1269.04,-160.789"/>
<polygon fill="midnightblue" stroke="midnightblue" points="1269.63,-164.247 1279.24,-159.784 1268.95,-157.281 1269.63,-164.247"/>
</g>
<!-- Node17 -->
<g id="node17" class="node"><title>Node17</title>
<g id="a_node17"><a xlink:href="../../d7/d35/classcommand_1_1_command.html#ab994c7989255741306855f258b1c2191" target="_top" xlink:title="command.Command.isList">
<polygon fill="white" stroke="black" points="1266,-106.5 1266,-125.5 1412,-125.5 1412,-106.5 1266,-106.5"/>
<text text-anchor="middle" x="1339" y="-113.5" font-family="Helvetica,sans-Serif" font-size="10.00">command.Command.isList</text>
</a>
</g>
</g>
<!-- Node10&#45;&gt;Node17 -->
<g id="edge18" class="edge"><title>Node10&#45;&gt;Node17</title>
<path fill="none" stroke="midnightblue" d="M1166.66,-163.479C1186.48,-155.059 1216.78,-142.916 1244,-135 1253.26,-132.309 1263.13,-129.863 1272.87,-127.69"/>
<polygon fill="midnightblue" stroke="midnightblue" points="1273.91,-131.048 1282.95,-125.524 1272.44,-124.204 1273.91,-131.048"/>
</g>
<!-- Node18 -->
<g id="node18" class="node"><title>Node18</title>
<g id="a_node18"><a xlink:href="../../d7/d35/classcommand_1_1_command.html#ac2df873d4926bc6e08dba8c6272cff7e" target="_top" xlink:title="command.Command.toString">
<polygon fill="white" stroke="black" points="1259,-68.5 1259,-87.5 1419,-87.5 1419,-68.5 1259,-68.5"/>
<text text-anchor="middle" x="1339" y="-75.5" font-family="Helvetica,sans-Serif" font-size="10.00">command.Command.toString</text>
</a>
</g>
</g>
<!-- Node10&#45;&gt;Node18 -->
<g id="edge19" class="edge"><title>Node10&#45;&gt;Node18</title>
<path fill="none" stroke="midnightblue" d="M1154.4,-163.333C1170.91,-146.951 1206.92,-113.873 1244,-97 1249.44,-94.5259 1255.2,-92.3721 1261.08,-90.4974"/>
<polygon fill="midnightblue" stroke="midnightblue" points="1262.44,-93.7478 1271.07,-87.5987 1260.49,-87.0253 1262.44,-93.7478"/>
</g>
<!-- Node12 -->
<g id="node12" class="node"><title>Node12</title>
<g id="a_node12"><a xlink:href="../../d1/dd5/classparser_1_1_command_factory.html#a6907bbeefbe406c17766a1e350fc359f" target="_top" xlink:title="parser.CommandFactory.create\lCommand">
<polygon fill="white" stroke="black" points="1478.5,-259 1478.5,-289 1645.5,-289 1645.5,-259 1478.5,-259"/>
<text text-anchor="start" x="1486.5" y="-277" font-family="Helvetica,sans-Serif" font-size="10.00">parser.CommandFactory.create</text>
<text text-anchor="middle" x="1562" y="-266" font-family="Helvetica,sans-Serif" font-size="10.00">Command</text>
</a>
</g>
</g>
<!-- Node11&#45;&gt;Node12 -->
<g id="edge11" class="edge"><title>Node11&#45;&gt;Node12</title>
<path fill="none" stroke="midnightblue" d="M1406.01,-271.896C1425.57,-272.162 1447.37,-272.458 1468.3,-272.742"/>
<polygon fill="midnightblue" stroke="midnightblue" points="1468.44,-276.244 1478.49,-272.88 1468.53,-269.244 1468.44,-276.244"/>
</g>
<!-- Node14&#45;&gt;Node13 -->
<g id="edge16" class="edge"><title>Node14&#45;&gt;Node13</title>
<path fill="none" stroke="midnightblue" d="M1434.22,-192C1508.03,-192 1609.64,-192 1679.87,-192"/>
<polygon fill="midnightblue" stroke="midnightblue" points="1680,-195.5 1690,-192 1680,-188.5 1680,-195.5"/>
</g>
<!-- Node15 -->
<g id="node15" class="node"><title>Node15</title>
<g id="a_node15"><a xlink:href="../../d7/d35/classcommand_1_1_command.html#a30463654f906e5bcf507ab33bd5d8bff" target="_top" xlink:title="command.Command.checkListExit">
<polygon fill="white" stroke="black" points="1470.5,-144.5 1470.5,-163.5 1653.5,-163.5 1653.5,-144.5 1470.5,-144.5"/>
<text text-anchor="middle" x="1562" y="-151.5" font-family="Helvetica,sans-Serif" font-size="10.00">command.Command.checkListExit</text>
</a>
</g>
</g>
<!-- Node14&#45;&gt;Node15 -->
<g id="edge14" class="edge"><title>Node14&#45;&gt;Node15</title>
<path fill="none" stroke="midnightblue" d="M1395.48,-182.46C1425.83,-177.243 1463.6,-170.747 1495.4,-165.28"/>
<polygon fill="midnightblue" stroke="midnightblue" points="1496.23,-168.688 1505.49,-163.544 1495.05,-161.789 1496.23,-168.688"/>
</g>
<!-- Node15&#45;&gt;Node13 -->
<g id="edge15" class="edge"><title>Node15&#45;&gt;Node13</title>
<path fill="none" stroke="midnightblue" d="M1612.71,-163.54C1639.54,-168.69 1672.86,-175.084 1701.11,-180.506"/>
<polygon fill="midnightblue" stroke="midnightblue" points="1700.79,-184.009 1711.27,-182.456 1702.11,-177.134 1700.79,-184.009"/>
</g>
<!-- Node20 -->
<g id="node20" class="node"><title>Node20</title>
<g id="a_node20"><a xlink:href="../../d6/d14/classfeatures_1_1_settings_bar.html#a06ac68340b6f5f59f638db75870f7d33" target="_top" xlink:title="features.SettingsBar.add\lAnimationSlider">
<polygon fill="white" stroke="black" points="679,-438 679,-468 815,-468 815,-438 679,-438"/>
<text text-anchor="start" x="687" y="-456" font-family="Helvetica,sans-Serif" font-size="10.00">features.SettingsBar.add</text>
<text text-anchor="middle" x="747" y="-445" font-family="Helvetica,sans-Serif" font-size="10.00">AnimationSlider</text>
</a>
</g>
</g>
<!-- Node19&#45;&gt;Node20 -->
<g id="edge21" class="edge"><title>Node19&#45;&gt;Node20</title>
<path fill="none" stroke="midnightblue" d="M566.349,-397.056C590.56,-406.544 622.896,-418.712 652,-428 659.72,-430.464 667.849,-432.882 675.962,-435.186"/>
<polygon fill="midnightblue" stroke="midnightblue" points="675.249,-438.621 685.822,-437.934 677.129,-431.878 675.249,-438.621"/>
</g>
<!-- Node21 -->
<g id="node21" class="node"><title>Node21</title>
<g id="a_node21"><a xlink:href="../../d6/d14/classfeatures_1_1_settings_bar.html#a84c1671d1eff0e0e6df250fcd1a2dcd0" target="_top" xlink:title="features.SettingsBar.add\lComboBox">
<polygon fill="white" stroke="black" points="679,-389 679,-419 815,-419 815,-389 679,-389"/>
<text text-anchor="start" x="687" y="-407" font-family="Helvetica,sans-Serif" font-size="10.00">features.SettingsBar.add</text>
<text text-anchor="middle" x="747" y="-396" font-family="Helvetica,sans-Serif" font-size="10.00">ComboBox</text>
</a>
</g>
</g>
<!-- Node19&#45;&gt;Node21 -->
<g id="edge22" class="edge"><title>Node19&#45;&gt;Node21</title>
<path fill="none" stroke="midnightblue" d="M596.768,-388.87C619.516,-391.177 645.059,-393.766 668.496,-396.142"/>
<polygon fill="midnightblue" stroke="midnightblue" points="668.444,-399.655 678.746,-397.182 669.15,-392.691 668.444,-399.655"/>
</g>
<!-- Node22 -->
<g id="node22" class="node"><title>Node22</title>
<g id="a_node22"><a xlink:href="../../d7/d3c/classcomponents_1_1_top_pane.html#a1239f7bb3356707158d40b0b41b4ca0b" target="_top" xlink:title="components.TopPane.addItems">
<polygon fill="white" stroke="black" points="663.5,-350.5 663.5,-369.5 830.5,-369.5 830.5,-350.5 663.5,-350.5"/>
<text text-anchor="middle" x="747" y="-357.5" font-family="Helvetica,sans-Serif" font-size="10.00">components.TopPane.addItems</text>
</a>
</g>
</g>
<!-- Node19&#45;&gt;Node22 -->
<g id="edge23" class="edge"><title>Node19&#45;&gt;Node22</title>
<path fill="none" stroke="midnightblue" d="M596.768,-375.13C614.687,-373.313 634.341,-371.32 653.334,-369.395"/>
<polygon fill="midnightblue" stroke="midnightblue" points="653.9,-372.855 663.496,-368.364 653.194,-365.891 653.9,-372.855"/>
</g>
<!-- Node23 -->
<g id="node23" class="node"><title>Node23</title>
<g id="a_node23"><a xlink:href="../../d6/d14/classfeatures_1_1_settings_bar.html#a0087ffd8c4aeedd07998a8a058cc9209" target="_top" xlink:title="features.SettingsBar.add\lPenSlider">
<polygon fill="white" stroke="black" points="679,-301 679,-331 815,-331 815,-301 679,-301"/>
<text text-anchor="start" x="687" y="-319" font-family="Helvetica,sans-Serif" font-size="10.00">features.SettingsBar.add</text>
<text text-anchor="middle" x="747" y="-308" font-family="Helvetica,sans-Serif" font-size="10.00">PenSlider</text>
</a>
</g>
</g>
<!-- Node19&#45;&gt;Node23 -->
<g id="edge24" class="edge"><title>Node19&#45;&gt;Node23</title>
<path fill="none" stroke="midnightblue" d="M572.054,-366.923C595.567,-358.873 625.261,-349.004 652,-341 660.228,-338.537 668.897,-336.066 677.506,-333.687"/>
<polygon fill="midnightblue" stroke="midnightblue" points="678.451,-337.058 687.175,-331.046 676.606,-330.305 678.451,-337.058"/>
</g>
<!-- Node24 -->
<g id="node24" class="node"><title>Node24</title>
<g id="a_node24"><a xlink:href="../../d6/d8b/classcomponents_1_1_pane_factory.html#a749d9694305a5e64344c7f0b2eb1ec46" target="_top" xlink:title="components.PaneFactory.makePane">
<polygon fill="white" stroke="black" points="652.5,-262.5 652.5,-281.5 841.5,-281.5 841.5,-262.5 652.5,-262.5"/>
<text text-anchor="middle" x="747" y="-269.5" font-family="Helvetica,sans-Serif" font-size="10.00">components.PaneFactory.makePane</text>
</a>
</g>
</g>
<!-- Node19&#45;&gt;Node24 -->
<g id="edge25" class="edge"><title>Node19&#45;&gt;Node24</title>
<path fill="none" stroke="midnightblue" d="M545.074,-366.698C567.295,-346.425 609.49,-311.018 652,-292 658.701,-289.002 665.876,-286.444 673.163,-284.263"/>
<polygon fill="midnightblue" stroke="midnightblue" points="674.424,-287.546 683.136,-281.516 672.566,-280.797 674.424,-287.546"/>
</g>
<!-- Node25 -->
<g id="node25" class="node"><title>Node25</title>
<g id="a_node25"><a xlink:href="../../d9/d58/classcomponents_1_1_bottom_pane.html#a8c0188cd8a7650eb5b180930298a44a2" target="_top" xlink:title="components.BottomPane.update\lButton">
<polygon fill="white" stroke="black" points="659,-536 659,-566 835,-566 835,-536 659,-536"/>
<text text-anchor="start" x="667" y="-554" font-family="Helvetica,sans-Serif" font-size="10.00">components.BottomPane.update</text>
<text text-anchor="middle" x="747" y="-543" font-family="Helvetica,sans-Serif" font-size="10.00">Button</text>
</a>
</g>
</g>
<!-- Node19&#45;&gt;Node25 -->
<g id="edge26" class="edge"><title>Node19&#45;&gt;Node25</title>
<path fill="none" stroke="midnightblue" d="M537.651,-397.268C555.219,-426.842 598.023,-492.015 652,-526 655.36,-528.116 658.897,-530.054 662.548,-531.829"/>
<polygon fill="midnightblue" stroke="midnightblue" points="661.264,-535.088 671.827,-535.914 664.085,-528.681 661.264,-535.088"/>
</g>
<!-- Node26 -->
<g id="node26" class="node"><title>Node26</title>
<g id="a_node26"><a xlink:href="../../d6/d68/classcomponents_1_1_turtle_manager.html#a4359c3b1142a696d251e7fc017729efb" target="_top" xlink:title="components.TurtleManager.update\lImageMap">
<polygon fill="white" stroke="black" points="655.5,-487 655.5,-517 838.5,-517 838.5,-487 655.5,-487"/>
<text text-anchor="start" x="663.5" y="-505" font-family="Helvetica,sans-Serif" font-size="10.00">components.TurtleManager.update</text>
<text text-anchor="middle" x="747" y="-494" font-family="Helvetica,sans-Serif" font-size="10.00">ImageMap</text>
</a>
</g>
</g>
<!-- Node19&#45;&gt;Node26 -->
<g id="edge27" class="edge"><title>Node19&#45;&gt;Node26</title>
<path fill="none" stroke="midnightblue" d="M544.305,-397.16C566.294,-418.11 608.939,-455.73 652,-477 656.826,-479.384 661.908,-481.562 667.106,-483.548"/>
<polygon fill="midnightblue" stroke="midnightblue" points="665.965,-486.857 676.56,-486.919 668.316,-480.263 665.965,-486.857"/>
</g>
</g>
</svg>
        <g id="navigator" transform="translate(0 0)" fill="#404254">
                <rect fill="#f2f5e9" fill-opacity="0.5" stroke="#606060" stroke-width=".5" x="0" y="0" width="60" height="60"/>
                <use id="zoomplus" xlink:href="#zoomPlus" x="17" y="9" onmousedown="handleZoom(evt,'in')"/>
                <use id="zoomminus" xlink:href="#zoomMin" x="42" y="9" onmousedown="handleZoom(evt,'out')"/>
                <use id="reset" xlink:href="#resetDef" x="30" y="36" onmousedown="handleReset()"/>
                <g id="arrowUp" xlink:href="#dirArrow" transform="translate(30 24)" onmousedown="handlePan(0,-1)">
                  <use xlink:href="#rim" fill="#404040">
                        <set attributeName="fill" to="#808080" begin="arrowUp.mouseover" end="arrowUp.mouseout"/>
                  </use>
                  <path fill="none" stroke="white" stroke-width="1.5" d="M0,-3.0v7 M-2.5,-0.5L0,-3.0L2.5,-0.5"/>
                </g>
                <g id="arrowRight" xlink:href="#dirArrow" transform="rotate(90) translate(36 -43)" onmousedown="handlePan(1,0)">
                  <use xlink:href="#rim" fill="#404040">
                        <set attributeName="fill" to="#808080" begin="arrowRight.mouseover" end="arrowRight.mouseout"/>
                  </use>
                  <path fill="none" stroke="white" stroke-width="1.5" d="M0,-3.0v7 M-2.5,-0.5L0,-3.0L2.5,-0.5"/>
                </g>
                <g id="arrowDown" xlink:href="#dirArrow" transform="rotate(180) translate(-30 -48)" onmousedown="handlePan(0,1)">
                  <use xlink:href="#rim" fill="#404040">
                        <set attributeName="fill" to="#808080" begin="arrowDown.mouseover" end="arrowDown.mouseout"/>
                  </use>
                  <path fill="none" stroke="white" stroke-width="1.5" d="M0,-3.0v7 M-2.5,-0.5L0,-3.0L2.5,-0.5"/>
                </g>
                <g id="arrowLeft" xlink:href="#dirArrow" transform="rotate(270) translate(-36 17)" onmousedown="handlePan(-1,0)">
                  <use xlink:href="#rim" fill="#404040">
                        <set attributeName="fill" to="#808080" begin="arrowLeft.mouseover" end="arrowLeft.mouseout"/>
                  </use>
                  <path fill="none" stroke="white" stroke-width="1.5" d="M0,-3.0v7 M-2.5,-0.5L0,-3.0L2.5,-0.5"/>
                </g>
        </g>
        <svg viewBox="0 0 15 15" width="100%" height="30px" preserveAspectRatio="xMaxYMin meet">
         <g id="arrow_out" transform="scale(0.3 0.3)">
          <a xlink:href="classmain_application_1_1_g_u_i_shell_af2f106fa7786f13ccc0202db53b559b9_cgraph_org.svg" target="_base">
           <rect id="button" ry="5" rx="5" y="6" x="6" height="38" width="38"
                fill="#f2f5e9" fill-opacity="0.5" stroke="#606060" stroke-width="1.0"/>
           <path id="arrow"
             d="M 11.500037,31.436501 C 11.940474,20.09759 22.043105,11.32322 32.158766,21.979434 L 37.068811,17.246167 C 37.068811,17.246167 37.088388,32 37.088388,32 L 22.160133,31.978069 C 22.160133,31.978069 26.997745,27.140456 26.997745,27.140456 C 18.528582,18.264221 13.291696,25.230495 11.500037,31.436501 z"
             style="fill:#404040;"/>
          </a>
         </g>
        </svg>
</svg>
