<?xml version="1.0" encoding="UTF-8" standalone="no"?>
<!DOCTYPE svg PUBLIC "-//W3C//DTD SVG 1.1//EN"
 "http://www.w3.org/Graphics/SVG/1.1/DTD/svg11.dtd">
<!-- Generated by graphviz version 2.36.0 (20140111.2315)
 -->
<!-- Title: workspace.Workspace Pages: 1 -->
<svg width="428pt" height="268pt"
 viewBox="0.00 0.00 428.00 268.00" xmlns="http://www.w3.org/2000/svg" xmlns:xlink="http://www.w3.org/1999/xlink">
<g id="graph0" class="graph" transform="scale(1 1) rotate(0) translate(4 264)">
<title>workspace.Workspace</title>
<polygon fill="white" stroke="none" points="-4,4 -4,-264 424,-264 424,4 -4,4"/>
<!-- Node1 -->
<g id="node1" class="node"><title>Node1</title>
<polygon fill="#bfbfbf" stroke="black" points="298.5,-120.5 298.5,-139.5 419.5,-139.5 419.5,-120.5 298.5,-120.5"/>
<text text-anchor="middle" x="359" y="-127.5" font-family="Helvetica,sans-Serif" font-size="10.00">workspace.Workspace</text>
</g>
<!-- Node2 -->
<g id="node2" class="node"><title>Node2</title>
<polygon fill="white" stroke="#bfbfbf" points="47.5,-240.5 47.5,-259.5 118.5,-259.5 118.5,-240.5 47.5,-240.5"/>
<text text-anchor="middle" x="83" y="-247.5" font-family="Helvetica,sans-Serif" font-size="10.00">Observable</text>
</g>
<!-- Node2&#45;&gt;Node1 -->
<g id="edge1" class="edge"><title>Node2&#45;&gt;Node1</title>
<path fill="none" stroke="midnightblue" d="M128.898,-245.613C170.222,-240.088 232.171,-227.959 280,-202 310.127,-185.649 337.651,-155.05 350.451,-139.538"/>
<polygon fill="midnightblue" stroke="midnightblue" points="128.34,-242.155 118.857,-246.88 129.217,-249.1 128.34,-242.155"/>
</g>
<!-- Node3 -->
<g id="node3" class="node"><title>Node3</title>
<polygon fill="white" stroke="#bfbfbf" points="53,-202.5 53,-221.5 113,-221.5 113,-202.5 53,-202.5"/>
<text text-anchor="middle" x="83" y="-209.5" font-family="Helvetica,sans-Serif" font-size="10.00">Observer</text>
</g>
<!-- Node3&#45;&gt;Node1 -->
<g id="edge2" class="edge"><title>Node3&#45;&gt;Node1</title>
<path fill="none" stroke="midnightblue" d="M123.009,-208.538C163.323,-204.068 227.578,-194.429 280,-175 304.188,-166.035 329.599,-149.933 344.608,-139.618"/>
<polygon fill="midnightblue" stroke="midnightblue" points="122.626,-205.058 113.049,-209.59 123.362,-212.02 122.626,-205.058"/>
</g>
<!-- Node4 -->
<g id="node4" class="node"><title>Node4</title>
<polygon fill="white" stroke="#bfbfbf" points="21,-164.5 21,-183.5 145,-183.5 145,-164.5 21,-164.5"/>
<text text-anchor="middle" x="83" y="-171.5" font-family="Helvetica,sans-Serif" font-size="10.00">Map&lt; Integer, Color &gt;</text>
</g>
<!-- Node4&#45;&gt;Node1 -->
<g id="edge3" class="edge"><title>Node4&#45;&gt;Node1</title>
<path fill="none" stroke="#9a32cd" stroke-dasharray="5,2" d="M155.274,-164.208C192.502,-158.903 238.774,-152.011 280,-145 289.788,-143.336 300.24,-141.421 310.209,-139.528"/>
<polygon fill="#9a32cd" stroke="#9a32cd" points="154.435,-160.792 145.025,-165.661 155.418,-167.722 154.435,-160.792"/>
<text text-anchor="middle" x="232" y="-163" font-family="Helvetica,sans-Serif" font-size="10.00"> myColors</text>
</g>
<!-- Node5 -->
<g id="node5" class="node"><title>Node5</title>
<polygon fill="white" stroke="#bfbfbf" points="0,-115 0,-145 166,-145 166,-115 0,-115"/>
<text text-anchor="start" x="8" y="-133" font-family="Helvetica,sans-Serif" font-size="10.00">Map&lt; String, parser.Command</text>
<text text-anchor="middle" x="83" y="-122" font-family="Helvetica,sans-Serif" font-size="10.00">Object &gt;</text>
</g>
<!-- Node5&#45;&gt;Node1 -->
<g id="edge4" class="edge"><title>Node5&#45;&gt;Node1</title>
<path fill="none" stroke="#9a32cd" stroke-dasharray="5,2" d="M176.329,-130C216.665,-130 262.802,-130 298.488,-130"/>
<polygon fill="#9a32cd" stroke="#9a32cd" points="176.209,-126.5 166.209,-130 176.209,-133.5 176.209,-126.5"/>
<text text-anchor="middle" x="232" y="-133" font-family="Helvetica,sans-Serif" font-size="10.00"> myCommands</text>
</g>
<!-- Node6 -->
<g id="node6" class="node"><title>Node6</title>
<g id="a_node6"><a xlink:href="../../de/d1c/classproperties_1_1_stage_properties.html" target="_top" xlink:title="properties.StageProperties">
<polygon fill="white" stroke="black" points="10,-76.5 10,-95.5 156,-95.5 156,-76.5 10,-76.5"/>
<text text-anchor="middle" x="83" y="-83.5" font-family="Helvetica,sans-Serif" font-size="10.00">properties.StageProperties</text>
</a>
</g>
</g>
<!-- Node6&#45;&gt;Node1 -->
<g id="edge5" class="edge"><title>Node6&#45;&gt;Node1</title>
<path fill="none" stroke="#9a32cd" stroke-dasharray="5,2" d="M163.843,-97.0186C199.451,-102.137 241.882,-108.518 280,-115 289.788,-116.664 300.24,-118.579 310.209,-120.472"/>
<polygon fill="#9a32cd" stroke="#9a32cd" points="163.903,-93.4916 153.508,-95.5408 162.912,-100.421 163.903,-93.4916"/>
<text text-anchor="middle" x="232" y="-118" font-family="Helvetica,sans-Serif" font-size="10.00"> myStageProperties</text>
</g>
<!-- Node7 -->
<g id="node7" class="node"><title>Node7</title>
<polygon fill="white" stroke="#bfbfbf" points="19,-38.5 19,-57.5 147,-57.5 147,-38.5 19,-38.5"/>
<text text-anchor="middle" x="83" y="-45.5" font-family="Helvetica,sans-Serif" font-size="10.00">Map&lt; String, Double &gt;</text>
</g>
<!-- Node7&#45;&gt;Node1 -->
<g id="edge6" class="edge"><title>Node7&#45;&gt;Node1</title>
<path fill="none" stroke="#9a32cd" stroke-dasharray="5,2" d="M157.513,-56.5244C194.961,-62.2896 240.751,-71.5593 280,-86 303.93,-94.8044 329.211,-110.386 344.291,-120.448"/>
<polygon fill="#9a32cd" stroke="#9a32cd" points="157.591,-52.9976 147.185,-54.9899 156.562,-59.9216 157.591,-52.9976"/>
<text text-anchor="middle" x="232" y="-89" font-family="Helvetica,sans-Serif" font-size="10.00"> myVariables</text>
</g>
<!-- Node8 -->
<g id="node8" class="node"><title>Node8</title>
<polygon fill="white" stroke="#bfbfbf" points="7,-0.5 7,-19.5 159,-19.5 159,-0.5 7,-0.5"/>
<text text-anchor="middle" x="83" y="-7.5" font-family="Helvetica,sans-Serif" font-size="10.00">Map&lt; Integer, actor.Turtle &gt;</text>
</g>
<!-- Node8&#45;&gt;Node1 -->
<g id="edge7" class="edge"><title>Node8&#45;&gt;Node1</title>
<path fill="none" stroke="#9a32cd" stroke-dasharray="5,2" d="M169.358,-14.4298C205.267,-19.1782 246.416,-28.5872 280,-47 313.291,-65.2524 340.521,-102.814 352.055,-120.454"/>
<polygon fill="#9a32cd" stroke="#9a32cd" points="169.73,-10.9493 159.379,-13.2105 168.881,-17.8977 169.73,-10.9493"/>
<text text-anchor="middle" x="232" y="-50" font-family="Helvetica,sans-Serif" font-size="10.00"> myTurtles</text>
</g>
</g>
</svg>
