<?xml version="1.0" encoding="UTF-8" standalone="no"?>
<!DOCTYPE svg PUBLIC "-//W3C//DTD SVG 1.1//EN"
 "http://www.w3.org/Graphics/SVG/1.1/DTD/svg11.dtd">
<!-- Generated by graphviz version 2.36.0 (20140111.2315)
 -->
<!-- Title: features.LanguageComboFeature.LanguageComboFeature Pages: 1 -->
<svg width="584pt" height="38pt"
 viewBox="0.00 0.00 584.00 38.00" xmlns="http://www.w3.org/2000/svg" xmlns:xlink="http://www.w3.org/1999/xlink">
<g id="graph0" class="graph" transform="scale(1 1) rotate(0) translate(4 34)">
<title>features.LanguageComboFeature.LanguageComboFeature</title>
<polygon fill="white" stroke="none" points="-4,4 -4,-34 580,-34 580,4 -4,4"/>
<!-- Node1 -->
<g id="node1" class="node"><title>Node1</title>
<polygon fill="#bfbfbf" stroke="black" points="0,-0 0,-30 180,-30 180,-0 0,-0"/>
<text text-anchor="start" x="8" y="-18" font-family="Helvetica,sans-Serif" font-size="10.00">features.LanguageComboFeature.</text>
<text text-anchor="middle" x="90" y="-7" font-family="Helvetica,sans-Serif" font-size="10.00">LanguageComboFeature</text>
</g>
<!-- Node2 -->
<g id="node2" class="node"><title>Node2</title>
<g id="a_node2"><a xlink:href="../../d7/da1/classmain_application_1_1_controller.html#a463390a07c56ccd95c8fdd332e2f9ac3" target="_top" xlink:title="mainApplication.Controller.set\lLanguage">
<polygon fill="white" stroke="black" points="216,-0 216,-30 376,-30 376,-0 216,-0"/>
<text text-anchor="start" x="224" y="-18" font-family="Helvetica,sans-Serif" font-size="10.00">mainApplication.Controller.set</text>
<text text-anchor="middle" x="296" y="-7" font-family="Helvetica,sans-Serif" font-size="10.00">Language</text>
</a>
</g>
</g>
<!-- Node1&#45;&gt;Node2 -->
<g id="edge1" class="edge"><title>Node1&#45;&gt;Node2</title>
<path fill="none" stroke="midnightblue" d="M180.181,-15C188.641,-15 197.221,-15 205.683,-15"/>
<polygon fill="midnightblue" stroke="midnightblue" points="205.93,-18.5001 215.93,-15 205.93,-11.5001 205.93,-18.5001"/>
</g>
<!-- Node3 -->
<g id="node3" class="node"><title>Node3</title>
<g id="a_node3"><a xlink:href="../../d6/d95/classparser_1_1_parser.html#ad2b54c09b725a2051946984be60a3bbf" target="_top" xlink:title="parser.Parser.changeLanguage">
<polygon fill="white" stroke="black" points="412,-5.5 412,-24.5 576,-24.5 576,-5.5 412,-5.5"/>
<text text-anchor="middle" x="494" y="-12.5" font-family="Helvetica,sans-Serif" font-size="10.00">parser.Parser.changeLanguage</text>
</a>
</g>
</g>
<!-- Node2&#45;&gt;Node3 -->
<g id="edge2" class="edge"><title>Node2&#45;&gt;Node3</title>
<path fill="none" stroke="midnightblue" d="M376.156,-15C384.632,-15 393.304,-15 401.904,-15"/>
<polygon fill="midnightblue" stroke="midnightblue" points="401.952,-18.5001 411.952,-15 401.952,-11.5001 401.952,-18.5001"/>
</g>
</g>
</svg>
