<?xml version="1.0" encoding="UTF-8" standalone="no"?>
<!DOCTYPE svg PUBLIC "-//W3C//DTD SVG 1.1//EN"
 "http://www.w3.org/Graphics/SVG/1.1/DTD/svg11.dtd">
<!-- Generated by graphviz version 2.36.0 (20140111.2315)
 -->
<!-- Title: components.TurtleManager Pages: 1 -->
<!--zoomable 251 -->
<svg id="main" version="1.1" xmlns="http://www.w3.org/2000/svg" xmlns:xlink="http://www.w3.org/1999/xlink" xml:space="preserve" onload="init(evt)">
<style type="text/css"><![CDATA[
.edge:hover path { stroke: red; }
.edge:hover polygon { stroke: red; fill: red; }
]]></style>
<script type="text/javascript"><![CDATA[
var edges = document.getElementsByTagName('g');
if (edges && edges.length) {
  for (var i=0;i<edges.length;i++) {
    if (edges[i].id.substr(0,4)=='edge') {
      edges[i].setAttribute('class','edge');
    }
  }
}
]]></script>
        <defs>
                <circle id="rim" cx="0" cy="0" r="7"/>
                <circle id="rim2" cx="0" cy="0" r="3.5"/>
                <g id="zoomPlus">
                        <use xlink:href="#rim" fill="#404040">
                                <set attributeName="fill" to="#808080" begin="zoomplus.mouseover" end="zoomplus.mouseout"/>
                        </use>
                        <path d="M-4,0h8M0,-4v8" fill="none" stroke="white" stroke-width="1.5" pointer-events="none"/>
                </g>
                <g id="zoomMin">
                        <use xlink:href="#rim" fill="#404040">
                                <set attributeName="fill" to="#808080" begin="zoomminus.mouseover" end="zoomminus.mouseout"/>
                        </use>
                        <path d="M-4,0h8" fill="none" stroke="white" stroke-width="1.5" pointer-events="none"/>
                </g>
                <g id="dirArrow">
                        <path fill="none" stroke="white" stroke-width="1.5" d="M0,-3.0v7 M-2.5,-0.5L0,-3.0L2.5,-0.5"/>
                </g>
               <g id="resetDef">
                       <use xlink:href="#rim2" fill="#404040">
                               <set attributeName="fill" to="#808080" begin="reset.mouseover" end="reset.mouseout"/>
                       </use>
               </g>
        </defs>

<script type="text/javascript">
var viewWidth = 858;
var viewHeight = 251;
var sectionId = 'dynsection-0';
</script>
<script xlink:href="../../svgpan.js"/>
<svg id="graph" class="graph">
<g id="viewport">
<title>components.TurtleManager</title>
<polygon fill="white" stroke="none" points="-4,4 -4,-247 854,-247 854,4 -4,4"/>
<!-- Node1 -->
<g id="node1" class="node"><title>Node1</title>
<polygon fill="#bfbfbf" stroke="black" points="444.5,-58.5 444.5,-77.5 591.5,-77.5 591.5,-58.5 444.5,-58.5"/>
<text text-anchor="middle" x="518" y="-65.5" font-family="Helvetica,sans-Serif" font-size="10.00">components.TurtleManager</text>
</g>
<!-- Node8 -->
<g id="node8" class="node"><title>Node8</title>
<g id="a_node8"><a xlink:href="../../da/d5b/classcomponents_1_1_center_pane.html" target="_top" xlink:title="components.CenterPane">
<polygon fill="white" stroke="black" points="714.5,-130.5 714.5,-149.5 849.5,-149.5 849.5,-130.5 714.5,-130.5"/>
<text text-anchor="middle" x="782" y="-137.5" font-family="Helvetica,sans-Serif" font-size="10.00">components.CenterPane</text>
</a>
</g>
</g>
<!-- Node1&#45;&gt;Node8 -->
<g id="edge11" class="edge"><title>Node1&#45;&gt;Node8</title>
<path fill="none" stroke="#9a32cd" stroke-dasharray="5,2" d="M575.225,-79.7388C610.216,-87.4391 656.014,-98.2359 696,-110 716.417,-116.007 739.131,-124.098 755.938,-130.364"/>
<polygon fill="#9a32cd" stroke="#9a32cd" points="575.711,-76.2625 565.194,-77.5509 574.219,-83.1017 575.711,-76.2625"/>
<text text-anchor="middle" x="653" y="-113" font-family="Helvetica,sans-Serif" font-size="10.00"> myTurtleManager</text>
</g>
<!-- Node2 -->
<g id="node2" class="node"><title>Node2</title>
<polygon fill="white" stroke="#bfbfbf" points="164.5,-115 164.5,-145 329.5,-145 329.5,-115 164.5,-115"/>
<text text-anchor="start" x="172.5" y="-133" font-family="Helvetica,sans-Serif" font-size="10.00">Map&lt; Integer, features.Display</text>
<text text-anchor="middle" x="247" y="-122" font-family="Helvetica,sans-Serif" font-size="10.00">Turtle &gt;</text>
</g>
<!-- Node2&#45;&gt;Node1 -->
<g id="edge1" class="edge"><title>Node2&#45;&gt;Node1</title>
<path fill="none" stroke="#9a32cd" stroke-dasharray="5,2" d="M339.975,-113.631C367.739,-108.229 398.218,-101.837 426,-95 446.643,-89.9202 469.588,-83.104 487.274,-77.5912"/>
<polygon fill="#9a32cd" stroke="#9a32cd" points="339.037,-110.247 329.879,-115.575 340.361,-117.121 339.037,-110.247"/>
<text text-anchor="middle" x="387" y="-116" font-family="Helvetica,sans-Serif" font-size="10.00"> myTurtleMap</text>
</g>
<!-- Node3 -->
<g id="node3" class="node"><title>Node3</title>
<polygon fill="white" stroke="#bfbfbf" points="171.5,-76.5 171.5,-95.5 322.5,-95.5 322.5,-76.5 171.5,-76.5"/>
<text text-anchor="middle" x="247" y="-83.5" font-family="Helvetica,sans-Serif" font-size="10.00">Map&lt; Integer, ImageView &gt;</text>
</g>
<!-- Node3&#45;&gt;Node1 -->
<g id="edge2" class="edge"><title>Node3&#45;&gt;Node1</title>
<path fill="none" stroke="#9a32cd" stroke-dasharray="5,2" d="M332.982,-80.3135C368.7,-77.9234 409.834,-75.1709 444.141,-72.8753"/>
<polygon fill="#9a32cd" stroke="#9a32cd" points="332.318,-76.85 322.574,-81.0099 332.786,-83.8343 332.318,-76.85"/>
<text text-anchor="middle" x="387" y="-83" font-family="Helvetica,sans-Serif" font-size="10.00"> myImageMap</text>
</g>
<!-- Node4 -->
<g id="node4" class="node"><title>Node4</title>
<g id="a_node4"><a xlink:href="../../d9/d58/classcomponents_1_1_bottom_pane.html" target="_top" xlink:title="components.BottomPane">
<polygon fill="white" stroke="black" points="177.5,-38.5 177.5,-57.5 316.5,-57.5 316.5,-38.5 177.5,-38.5"/>
<text text-anchor="middle" x="247" y="-45.5" font-family="Helvetica,sans-Serif" font-size="10.00">components.BottomPane</text>
</a>
</g>
</g>
<!-- Node4&#45;&gt;Node1 -->
<g id="edge3" class="edge"><title>Node4&#45;&gt;Node1</title>
<path fill="none" stroke="#9a32cd" stroke-dasharray="5,2" d="M327.181,-52.9911C358.031,-55.0265 393.679,-57.4901 426,-60 432.009,-60.4666 438.238,-60.9709 444.491,-61.4916"/>
<polygon fill="#9a32cd" stroke="#9a32cd" points="327.122,-49.4798 316.915,-52.3178 326.664,-56.4648 327.122,-49.4798"/>
<text text-anchor="middle" x="387" y="-63" font-family="Helvetica,sans-Serif" font-size="10.00"> myBottomPane</text>
</g>
<!-- Node5 -->
<g id="node5" class="node"><title>Node5</title>
<polygon fill="white" stroke="#bfbfbf" points="8,-76.5 8,-95.5 50,-95.5 50,-76.5 8,-76.5"/>
<text text-anchor="middle" x="29" y="-83.5" font-family="Helvetica,sans-Serif" font-size="10.00">HBox</text>
</g>
<!-- Node5&#45;&gt;Node4 -->
<g id="edge4" class="edge"><title>Node5&#45;&gt;Node4</title>
<path fill="none" stroke="midnightblue" d="M60.5544,-80.6247C94.5512,-74.6438 150.148,-64.8629 191.615,-57.5677"/>
<polygon fill="midnightblue" stroke="midnightblue" points="59.5631,-77.2453 50.3208,-82.4251 60.776,-84.1394 59.5631,-77.2453"/>
</g>
<!-- Node6 -->
<g id="node6" class="node"><title>Node6</title>
<polygon fill="white" stroke="#bfbfbf" points="8,-38.5 8,-57.5 50,-57.5 50,-38.5 8,-38.5"/>
<text text-anchor="middle" x="29" y="-45.5" font-family="Helvetica,sans-Serif" font-size="10.00">Label</text>
</g>
<!-- Node6&#45;&gt;Node4 -->
<g id="edge5" class="edge"><title>Node6&#45;&gt;Node4</title>
<path fill="none" stroke="#9a32cd" stroke-dasharray="5,2" d="M60.6225,-48C90.7928,-48 137.927,-48 177.116,-48"/>
<polygon fill="#9a32cd" stroke="#9a32cd" points="60.3208,-44.5001 50.3208,-48 60.3207,-51.5001 60.3208,-44.5001"/>
<text text-anchor="middle" x="111" y="-51" font-family="Helvetica,sans-Serif" font-size="10.00"> myErrors</text>
</g>
<!-- Node7 -->
<g id="node7" class="node"><title>Node7</title>
<polygon fill="white" stroke="#bfbfbf" points="0,-0.5 0,-19.5 58,-19.5 58,-0.5 0,-0.5"/>
<text text-anchor="middle" x="29" y="-7.5" font-family="Helvetica,sans-Serif" font-size="10.00">TextArea</text>
</g>
<!-- Node7&#45;&gt;Node4 -->
<g id="edge6" class="edge"><title>Node7&#45;&gt;Node4</title>
<path fill="none" stroke="#9a32cd" stroke-dasharray="5,2" d="M68.3131,-16.7403C102.567,-22.7663 153.142,-31.6639 191.586,-38.4271"/>
<polygon fill="#9a32cd" stroke="#9a32cd" points="68.6934,-13.2535 58.2382,-14.9678 67.4805,-20.1476 68.6934,-13.2535"/>
<text text-anchor="middle" x="111" y="-34" font-family="Helvetica,sans-Serif" font-size="10.00"> myCommand</text>
</g>
<!-- Node8&#45;&gt;Node1 -->
<g id="edge7" class="edge"><title>Node8&#45;&gt;Node1</title>
<path fill="none" stroke="#9a32cd" stroke-dasharray="5,2" d="M769.263,-121.827C754.846,-101.37 728.286,-69.2616 696,-56 646.997,-35.872 583.941,-48.208 547.837,-58.4706"/>
<polygon fill="#9a32cd" stroke="#9a32cd" points="766.499,-123.986 775.009,-130.296 772.291,-120.056 766.499,-123.986"/>
<text text-anchor="middle" x="653" y="-59" font-family="Helvetica,sans-Serif" font-size="10.00"> myCenterPane</text>
</g>
<!-- Node9 -->
<g id="node9" class="node"><title>Node9</title>
<polygon fill="white" stroke="#bfbfbf" points="498,-223.5 498,-242.5 538,-242.5 538,-223.5 498,-223.5"/>
<text text-anchor="middle" x="518" y="-230.5" font-family="Helvetica,sans-Serif" font-size="10.00">Pane</text>
</g>
<!-- Node9&#45;&gt;Node8 -->
<g id="edge8" class="edge"><title>Node9&#45;&gt;Node8</title>
<path fill="none" stroke="midnightblue" d="M548.331,-228.015C584.063,-221.386 645.864,-208.113 696,-188 722.267,-177.462 750.436,-160.247 766.847,-149.55"/>
<polygon fill="midnightblue" stroke="midnightblue" points="547.34,-224.638 538.121,-229.859 548.584,-231.526 547.34,-224.638"/>
</g>
<!-- Node10 -->
<g id="node10" class="node"><title>Node10</title>
<g id="a_node10"><a xlink:href="../../d2/dfc/interfacefeatures_1_1_feature.html" target="_top" xlink:title="features.Feature">
<polygon fill="white" stroke="black" points="470.5,-185.5 470.5,-204.5 565.5,-204.5 565.5,-185.5 470.5,-185.5"/>
<text text-anchor="middle" x="518" y="-192.5" font-family="Helvetica,sans-Serif" font-size="10.00">features.Feature</text>
</a>
</g>
</g>
<!-- Node10&#45;&gt;Node8 -->
<g id="edge9" class="edge"><title>Node10&#45;&gt;Node8</title>
<path fill="none" stroke="midnightblue" d="M575.608,-188.257C610.56,-183.548 656.182,-176.417 696,-167 715.89,-162.296 737.867,-155.265 754.491,-149.557"/>
<polygon fill="midnightblue" stroke="midnightblue" points="575.041,-184.801 565.585,-189.58 575.957,-191.741 575.041,-184.801"/>
</g>
<!-- Node11 -->
<g id="node11" class="node"><title>Node11</title>
<polygon fill="white" stroke="#bfbfbf" points="456,-147.5 456,-166.5 580,-166.5 580,-147.5 456,-147.5"/>
<text text-anchor="middle" x="518" y="-154.5" font-family="Helvetica,sans-Serif" font-size="10.00">Map&lt; Integer, Color &gt;</text>
</g>
<!-- Node11&#45;&gt;Node8 -->
<g id="edge10" class="edge"><title>Node11&#45;&gt;Node8</title>
<path fill="none" stroke="#9a32cd" stroke-dasharray="5,2" d="M590.233,-152.378C628.881,-149.87 676.362,-146.789 714.287,-144.329"/>
<polygon fill="#9a32cd" stroke="#9a32cd" points="589.849,-148.895 580.097,-153.036 590.302,-155.881 589.849,-148.895"/>
<text text-anchor="middle" x="653" y="-155" font-family="Helvetica,sans-Serif" font-size="10.00"> colorsMap</text>
</g>
<!-- Node12 -->
<g id="node12" class="node"><title>Node12</title>
<polygon fill="white" stroke="#bfbfbf" points="488.5,-109.5 488.5,-128.5 547.5,-128.5 547.5,-109.5 488.5,-109.5"/>
<text text-anchor="middle" x="518" y="-116.5" font-family="Helvetica,sans-Serif" font-size="10.00">GridPane</text>
</g>
<!-- Node12&#45;&gt;Node8 -->
<g id="edge12" class="edge"><title>Node12&#45;&gt;Node8</title>
<path fill="none" stroke="#9a32cd" stroke-dasharray="5,2" d="M557.578,-121.194C593.456,-123.335 648.384,-126.867 696,-131 701.914,-131.513 708.054,-132.086 714.207,-132.687"/>
<polygon fill="#9a32cd" stroke="#9a32cd" points="557.724,-117.697 547.536,-120.602 557.312,-124.685 557.724,-117.697"/>
<text text-anchor="middle" x="653" y="-134" font-family="Helvetica,sans-Serif" font-size="10.00"> referenceGrid</text>
</g>
<!-- Node13 -->
<g id="node13" class="node"><title>Node13</title>
<polygon fill="white" stroke="#bfbfbf" points="226.5,-0.5 226.5,-19.5 267.5,-19.5 267.5,-0.5 226.5,-0.5"/>
<text text-anchor="middle" x="247" y="-7.5" font-family="Helvetica,sans-Serif" font-size="10.00">Color</text>
</g>
<!-- Node13&#45;&gt;Node1 -->
<g id="edge13" class="edge"><title>Node13&#45;&gt;Node1</title>
<path fill="none" stroke="#9a32cd" stroke-dasharray="5,2" d="M277.835,-13.8058C313.388,-18.6216 374.461,-27.7837 426,-40 447.552,-45.1086 471.475,-52.5407 489.381,-58.4643"/>
<polygon fill="#9a32cd" stroke="#9a32cd" points="278.034,-10.3015 267.66,-12.4522 277.111,-17.2403 278.034,-10.3015"/>
<text text-anchor="middle" x="387" y="-43" font-family="Helvetica,sans-Serif" font-size="10.00"> testC</text>
</g>
</g>
</svg>
        <g id="navigator" transform="translate(0 0)" fill="#404254">
                <rect fill="#f2f5e9" fill-opacity="0.5" stroke="#606060" stroke-width=".5" x="0" y="0" width="60" height="60"/>
                <use id="zoomplus" xlink:href="#zoomPlus" x="17" y="9" onmousedown="handleZoom(evt,'in')"/>
                <use id="zoomminus" xlink:href="#zoomMin" x="42" y="9" onmousedown="handleZoom(evt,'out')"/>
                <use id="reset" xlink:href="#resetDef" x="30" y="36" onmousedown="handleReset()"/>
                <g id="arrowUp" xlink:href="#dirArrow" transform="translate(30 24)" onmousedown="handlePan(0,-1)">
                  <use xlink:href="#rim" fill="#404040">
                        <set attributeName="fill" to="#808080" begin="arrowUp.mouseover" end="arrowUp.mouseout"/>
                  </use>
                  <path fill="none" stroke="white" stroke-width="1.5" d="M0,-3.0v7 M-2.5,-0.5L0,-3.0L2.5,-0.5"/>
                </g>
                <g id="arrowRight" xlink:href="#dirArrow" transform="rotate(90) translate(36 -43)" onmousedown="handlePan(1,0)">
                  <use xlink:href="#rim" fill="#404040">
                        <set attributeName="fill" to="#808080" begin="arrowRight.mouseover" end="arrowRight.mouseout"/>
                  </use>
                  <path fill="none" stroke="white" stroke-width="1.5" d="M0,-3.0v7 M-2.5,-0.5L0,-3.0L2.5,-0.5"/>
                </g>
                <g id="arrowDown" xlink:href="#dirArrow" transform="rotate(180) translate(-30 -48)" onmousedown="handlePan(0,1)">
                  <use xlink:href="#rim" fill="#404040">
                        <set attributeName="fill" to="#808080" begin="arrowDown.mouseover" end="arrowDown.mouseout"/>
                  </use>
                  <path fill="none" stroke="white" stroke-width="1.5" d="M0,-3.0v7 M-2.5,-0.5L0,-3.0L2.5,-0.5"/>
                </g>
                <g id="arrowLeft" xlink:href="#dirArrow" transform="rotate(270) translate(-36 17)" onmousedown="handlePan(-1,0)">
                  <use xlink:href="#rim" fill="#404040">
                        <set attributeName="fill" to="#808080" begin="arrowLeft.mouseover" end="arrowLeft.mouseout"/>
                  </use>
                  <path fill="none" stroke="white" stroke-width="1.5" d="M0,-3.0v7 M-2.5,-0.5L0,-3.0L2.5,-0.5"/>
                </g>
        </g>
        <svg viewBox="0 0 15 15" width="100%" height="30px" preserveAspectRatio="xMaxYMin meet">
         <g id="arrow_out" transform="scale(0.3 0.3)">
          <a xlink:href="classcomponents_1_1_turtle_manager__coll__graph_org.svg" target="_base">
           <rect id="button" ry="5" rx="5" y="6" x="6" height="38" width="38"
                fill="#f2f5e9" fill-opacity="0.5" stroke="#606060" stroke-width="1.0"/>
           <path id="arrow"
             d="M 11.500037,31.436501 C 11.940474,20.09759 22.043105,11.32322 32.158766,21.979434 L 37.068811,17.246167 C 37.068811,17.246167 37.088388,32 37.088388,32 L 22.160133,31.978069 C 22.160133,31.978069 26.997745,27.140456 26.997745,27.140456 C 18.528582,18.264221 13.291696,25.230495 11.500037,31.436501 z"
             style="fill:#404040;"/>
          </a>
         </g>
        </svg>
</svg>
