<?xml version="1.0" encoding="UTF-8" standalone="no"?>
<!DOCTYPE svg PUBLIC "-//W3C//DTD SVG 1.1//EN"
 "http://www.w3.org/Graphics/SVG/1.1/DTD/svg11.dtd">
<!-- Generated by graphviz version 2.36.0 (20140111.2315)
 -->
<!-- Title: command.RotateCommand Pages: 1 -->
<svg width="293pt" height="84pt"
 viewBox="0.00 0.00 293.00 84.00" xmlns="http://www.w3.org/2000/svg" xmlns:xlink="http://www.w3.org/1999/xlink">
<g id="graph0" class="graph" transform="scale(1 1) rotate(0) translate(4 80)">
<title>command.RotateCommand</title>
<polygon fill="white" stroke="none" points="-4,4 -4,-80 289,-80 289,4 -4,4"/>
<!-- Node1 -->
<g id="node1" class="node"><title>Node1</title>
<polygon fill="#bfbfbf" stroke="black" points="60.5,-0.5 60.5,-19.5 209.5,-19.5 209.5,-0.5 60.5,-0.5"/>
<text text-anchor="middle" x="135" y="-7.5" font-family="Helvetica,sans-Serif" font-size="10.00">command.RotateCommand</text>
</g>
<!-- Node2 -->
<g id="node2" class="node"><title>Node2</title>
<g id="a_node2"><a xlink:href="../../d7/d35/classcommand_1_1_command.html" target="_top" xlink:title="command.Command">
<polygon fill="white" stroke="black" points="-0.5,-56.5 -0.5,-75.5 118.5,-75.5 118.5,-56.5 -0.5,-56.5"/>
<text text-anchor="middle" x="59" y="-63.5" font-family="Helvetica,sans-Serif" font-size="10.00">command.Command</text>
</a>
</g>
</g>
<!-- Node2&#45;&gt;Node1 -->
<g id="edge1" class="edge"><title>Node2&#45;&gt;Node1</title>
<path fill="none" stroke="midnightblue" d="M79.5758,-50.3804C93.312,-40.6204 110.925,-28.1057 122.567,-19.8339"/>
<polygon fill="midnightblue" stroke="midnightblue" points="77.3353,-47.6787 71.2107,-56.324 81.3898,-53.385 77.3353,-47.6787"/>
</g>
<!-- Node3 -->
<g id="node3" class="node"><title>Node3</title>
<g id="a_node3"><a xlink:href="../../d0/d0e/interfacecommand_1_1_position_interface.html" target="_top" xlink:title="command.PositionInterface">
<polygon fill="white" stroke="black" points="137,-56.5 137,-75.5 285,-75.5 285,-56.5 137,-56.5"/>
<text text-anchor="middle" x="211" y="-63.5" font-family="Helvetica,sans-Serif" font-size="10.00">command.PositionInterface</text>
</a>
</g>
</g>
<!-- Node3&#45;&gt;Node1 -->
<g id="edge2" class="edge"><title>Node3&#45;&gt;Node1</title>
<path fill="none" stroke="midnightblue" d="M190.424,-50.3804C176.688,-40.6204 159.075,-28.1057 147.433,-19.8339"/>
<polygon fill="midnightblue" stroke="midnightblue" points="188.61,-53.385 198.789,-56.324 192.665,-47.6787 188.61,-53.385"/>
</g>
</g>
</svg>
