<?xml version="1.0" encoding="UTF-8" standalone="no"?>
<!DOCTYPE svg PUBLIC "-//W3C//DTD SVG 1.1//EN"
 "http://www.w3.org/Graphics/SVG/1.1/DTD/svg11.dtd">
<!-- Generated by graphviz version 2.36.0 (20140111.2315)
 -->
<!-- Title: components.ColorsTab Pages: 1 -->
<svg width="1104pt" height="359pt"
 viewBox="0.00 0.00 1104.00 359.00" xmlns="http://www.w3.org/2000/svg" xmlns:xlink="http://www.w3.org/1999/xlink">
<g id="graph0" class="graph" transform="scale(1 1) rotate(0) translate(4 355)">
<title>components.ColorsTab</title>
<polygon fill="white" stroke="none" points="-4,4 -4,-355 1100,-355 1100,4 -4,4"/>
<!-- Node1 -->
<g id="node1" class="node"><title>Node1</title>
<polygon fill="#bfbfbf" stroke="black" points="970.5,-36.5 970.5,-55.5 1095.5,-55.5 1095.5,-36.5 970.5,-36.5"/>
<text text-anchor="middle" x="1033" y="-43.5" font-family="Helvetica,sans-Serif" font-size="10.00">components.ColorsTab</text>
</g>
<!-- Node2 -->
<g id="node2" class="node"><title>Node2</title>
<g id="a_node2"><a xlink:href="../../df/df3/classcomponents_1_1_info_tab.html" target="_top" xlink:title="components.InfoTab">
<polygon fill="white" stroke="black" points="818.5,-152.5 818.5,-171.5 931.5,-171.5 931.5,-152.5 818.5,-152.5"/>
<text text-anchor="middle" x="875" y="-159.5" font-family="Helvetica,sans-Serif" font-size="10.00">components.InfoTab</text>
</a>
</g>
</g>
<!-- Node2&#45;&gt;Node1 -->
<g id="edge1" class="edge"><title>Node2&#45;&gt;Node1</title>
<path fill="none" stroke="midnightblue" d="M897.076,-146.328C929.892,-121.926 992.22,-75.58 1019.11,-55.5814"/>
<polygon fill="midnightblue" stroke="midnightblue" points="894.968,-143.534 889.032,-152.309 899.145,-149.151 894.968,-143.534"/>
</g>
<!-- Node3 -->
<g id="node3" class="node"><title>Node3</title>
<polygon fill="white" stroke="#bfbfbf" points="626,-152.5 626,-171.5 658,-171.5 658,-152.5 626,-152.5"/>
<text text-anchor="middle" x="642" y="-159.5" font-family="Helvetica,sans-Serif" font-size="10.00">Tab</text>
</g>
<!-- Node3&#45;&gt;Node2 -->
<g id="edge2" class="edge"><title>Node3&#45;&gt;Node2</title>
<path fill="none" stroke="midnightblue" d="M668.229,-162C704.037,-162 770.545,-162 818.265,-162"/>
<polygon fill="midnightblue" stroke="midnightblue" points="668.157,-158.5 658.157,-162 668.157,-165.5 668.157,-158.5"/>
</g>
<!-- Node4 -->
<g id="node4" class="node"><title>Node4</title>
<g id="a_node4"><a xlink:href="../../d2/dfc/interfacefeatures_1_1_feature.html" target="_top" xlink:title="features.Feature">
<polygon fill="white" stroke="black" points="594.5,-114.5 594.5,-133.5 689.5,-133.5 689.5,-114.5 594.5,-114.5"/>
<text text-anchor="middle" x="642" y="-121.5" font-family="Helvetica,sans-Serif" font-size="10.00">features.Feature</text>
</a>
</g>
</g>
<!-- Node4&#45;&gt;Node2 -->
<g id="edge3" class="edge"><title>Node4&#45;&gt;Node2</title>
<path fill="none" stroke="midnightblue" d="M699.644,-133.318C735.787,-139.264 782.422,-146.935 818.367,-152.848"/>
<polygon fill="midnightblue" stroke="midnightblue" points="700.182,-129.86 689.746,-131.69 699.046,-136.767 700.182,-129.86"/>
</g>
<!-- Node5 -->
<g id="node5" class="node"><title>Node5</title>
<polygon fill="white" stroke="#bfbfbf" points="621.5,-76.5 621.5,-95.5 662.5,-95.5 662.5,-76.5 621.5,-76.5"/>
<text text-anchor="middle" x="642" y="-83.5" font-family="Helvetica,sans-Serif" font-size="10.00">VBox</text>
</g>
<!-- Node5&#45;&gt;Node2 -->
<g id="edge4" class="edge"><title>Node5&#45;&gt;Node2</title>
<path fill="none" stroke="#9a32cd" stroke-dasharray="5,2" d="M672.798,-91.3666C704.818,-97.5999 756.917,-109.099 800,-125 820.482,-132.559 842.73,-144.186 857.425,-152.385"/>
<polygon fill="#9a32cd" stroke="#9a32cd" points="673.229,-87.8858 662.751,-89.4558 671.921,-94.7625 673.229,-87.8858"/>
<text text-anchor="middle" x="766" y="-128" font-family="Helvetica,sans-Serif" font-size="10.00"> myDrawer</text>
</g>
<!-- Node6 -->
<g id="node6" class="node"><title>Node6</title>
<g id="a_node6"><a xlink:href="../../d7/da1/classmain_application_1_1_controller.html" target="_top" xlink:title="mainApplication.Controller">
<polygon fill="white" stroke="black" points="570.5,-228.5 570.5,-247.5 713.5,-247.5 713.5,-228.5 570.5,-228.5"/>
<text text-anchor="middle" x="642" y="-235.5" font-family="Helvetica,sans-Serif" font-size="10.00">mainApplication.Controller</text>
</a>
</g>
</g>
<!-- Node6&#45;&gt;Node2 -->
<g id="edge5" class="edge"><title>Node6&#45;&gt;Node2</title>
<path fill="none" stroke="#9a32cd" stroke-dasharray="5,2" d="M711.595,-226.459C739.522,-220.689 771.801,-212.63 800,-202 821.591,-193.861 844.719,-180.532 859.262,-171.519"/>
<polygon fill="#9a32cd" stroke="#9a32cd" points="710.634,-223.082 701.518,-228.482 712.011,-229.945 710.634,-223.082"/>
<text text-anchor="middle" x="766" y="-225" font-family="Helvetica,sans-Serif" font-size="10.00"> myController</text>
</g>
<!-- Node7 -->
<g id="node7" class="node"><title>Node7</title>
<g id="a_node7"><a xlink:href="../../d6/d95/classparser_1_1_parser.html" target="_top" xlink:title="parser.Parser">
<polygon fill="white" stroke="black" points="338,-263.5 338,-282.5 418,-282.5 418,-263.5 338,-263.5"/>
<text text-anchor="middle" x="378" y="-270.5" font-family="Helvetica,sans-Serif" font-size="10.00">parser.Parser</text>
</a>
</g>
</g>
<!-- Node7&#45;&gt;Node6 -->
<g id="edge6" class="edge"><title>Node7&#45;&gt;Node6</title>
<path fill="none" stroke="#9a32cd" stroke-dasharray="5,2" d="M428.285,-266.416C468.365,-261.062 525.435,-253.438 570.373,-247.435"/>
<polygon fill="#9a32cd" stroke="#9a32cd" points="427.673,-262.967 418.224,-267.76 428.599,-269.905 427.673,-262.967"/>
<text text-anchor="middle" x="514" y="-263" font-family="Helvetica,sans-Serif" font-size="10.00"> myParser</text>
</g>
<!-- Node8 -->
<g id="node8" class="node"><title>Node8</title>
<polygon fill="white" stroke="#bfbfbf" points="36.5,-286.5 36.5,-305.5 129.5,-305.5 129.5,-286.5 36.5,-286.5"/>
<text text-anchor="middle" x="83" y="-293.5" font-family="Helvetica,sans-Serif" font-size="10.00">ResourceBundle</text>
</g>
<!-- Node8&#45;&gt;Node7 -->
<g id="edge7" class="edge"><title>Node8&#45;&gt;Node7</title>
<path fill="none" stroke="#9a32cd" stroke-dasharray="5,2" d="M139.856,-291.615C197.742,-287.071 286.729,-280.086 337.637,-276.09"/>
<polygon fill="#9a32cd" stroke="#9a32cd" points="139.477,-288.134 129.781,-292.406 140.025,-295.113 139.477,-288.134"/>
<text text-anchor="middle" x="232" y="-302" font-family="Helvetica,sans-Serif" font-size="10.00"> myCommands</text>
<text text-anchor="middle" x="232" y="-291" font-family="Helvetica,sans-Serif" font-size="10.00">myLanguage</text>
</g>
<!-- Node9 -->
<g id="node9" class="node"><title>Node9</title>
<polygon fill="white" stroke="#bfbfbf" points="26,-328.5 26,-347.5 140,-347.5 140,-328.5 26,-328.5"/>
<text text-anchor="middle" x="83" y="-335.5" font-family="Helvetica,sans-Serif" font-size="10.00">List&lt; parser.Node &gt;</text>
</g>
<!-- Node9&#45;&gt;Node7 -->
<g id="edge8" class="edge"><title>Node9&#45;&gt;Node7</title>
<path fill="none" stroke="#9a32cd" stroke-dasharray="5,2" d="M150.338,-341.92C190.193,-341.451 240.636,-335.681 280,-314 291.066,-307.905 287.3,-298.717 298,-292 309.828,-284.575 324.323,-280.052 337.652,-277.296"/>
<polygon fill="#9a32cd" stroke="#9a32cd" points="150.182,-338.42 140.185,-341.929 150.188,-345.42 150.182,-338.42"/>
<text text-anchor="middle" x="232" y="-343" font-family="Helvetica,sans-Serif" font-size="10.00"> myTreeHeads</text>
</g>
<!-- Node10 -->
<g id="node10" class="node"><title>Node10</title>
<polygon fill="white" stroke="#bfbfbf" points="298,-301.5 298,-320.5 458,-320.5 458,-301.5 298,-301.5"/>
<text text-anchor="middle" x="378" y="-308.5" font-family="Helvetica,sans-Serif" font-size="10.00">List&lt; workspace.Workspace &gt;</text>
</g>
<!-- Node10&#45;&gt;Node6 -->
<g id="edge9" class="edge"><title>Node10&#45;&gt;Node6</title>
<path fill="none" stroke="#9a32cd" stroke-dasharray="5,2" d="M468.312,-302.53C496.303,-297.274 526.518,-288.765 552,-275 561.954,-269.623 560.201,-262.655 570,-257 576.741,-253.109 584.301,-249.994 591.907,-247.505"/>
<polygon fill="#9a32cd" stroke="#9a32cd" points="467.355,-299.145 458.113,-304.324 468.568,-306.039 467.355,-299.145"/>
<text text-anchor="middle" x="514" y="-304" font-family="Helvetica,sans-Serif" font-size="10.00"> myWorkspaces</text>
</g>
<!-- Node11 -->
<g id="node11" class="node"><title>Node11</title>
<g id="a_node11"><a xlink:href="../../de/d19/classworkspace_1_1_workspace.html" target="_top" xlink:title="workspace.Workspace">
<polygon fill="white" stroke="black" points="317.5,-141.5 317.5,-160.5 438.5,-160.5 438.5,-141.5 317.5,-141.5"/>
<text text-anchor="middle" x="378" y="-148.5" font-family="Helvetica,sans-Serif" font-size="10.00">workspace.Workspace</text>
</a>
</g>
</g>
<!-- Node11&#45;&gt;Node6 -->
<g id="edge10" class="edge"><title>Node11&#45;&gt;Node6</title>
<path fill="none" stroke="#9a32cd" stroke-dasharray="5,2" d="M413.379,-164.184C451.403,-178.544 514.622,-201.763 570,-219 580.6,-222.299 592.195,-225.55 602.885,-228.405"/>
<polygon fill="#9a32cd" stroke="#9a32cd" points="414.404,-160.83 403.813,-160.557 411.923,-167.375 414.404,-160.83"/>
<text text-anchor="middle" x="514" y="-216" font-family="Helvetica,sans-Serif" font-size="10.00"> myActiveWS</text>
</g>
<!-- Node12 -->
<g id="node12" class="node"><title>Node12</title>
<polygon fill="white" stroke="#bfbfbf" points="47.5,-8.5 47.5,-27.5 118.5,-27.5 118.5,-8.5 47.5,-8.5"/>
<text text-anchor="middle" x="83" y="-15.5" font-family="Helvetica,sans-Serif" font-size="10.00">Observable</text>
</g>
<!-- Node12&#45;&gt;Node11 -->
<g id="edge11" class="edge"><title>Node12&#45;&gt;Node11</title>
<path fill="none" stroke="midnightblue" d="M128.766,-22.0734C169.999,-27.277 231.888,-38.8403 280,-64 318.689,-84.2319 354.174,-123.406 369.297,-141.462"/>
<polygon fill="midnightblue" stroke="midnightblue" points="129.092,-18.5877 118.749,-20.8831 128.266,-25.5388 129.092,-18.5877"/>
</g>
<!-- Node13 -->
<g id="node13" class="node"><title>Node13</title>
<polygon fill="white" stroke="#bfbfbf" points="53,-248.5 53,-267.5 113,-267.5 113,-248.5 53,-248.5"/>
<text text-anchor="middle" x="83" y="-255.5" font-family="Helvetica,sans-Serif" font-size="10.00">Observer</text>
</g>
<!-- Node13&#45;&gt;Node11 -->
<g id="edge12" class="edge"><title>Node13&#45;&gt;Node11</title>
<path fill="none" stroke="midnightblue" d="M123.191,-253.042C163.651,-247.004 228.022,-234.805 280,-213 312.99,-199.16 347.27,-174.362 364.906,-160.697"/>
<polygon fill="midnightblue" stroke="midnightblue" points="122.592,-249.592 113.192,-254.481 123.589,-256.521 122.592,-249.592"/>
</g>
<!-- Node14 -->
<g id="node14" class="node"><title>Node14</title>
<polygon fill="white" stroke="#bfbfbf" points="21,-84.5 21,-103.5 145,-103.5 145,-84.5 21,-84.5"/>
<text text-anchor="middle" x="83" y="-91.5" font-family="Helvetica,sans-Serif" font-size="10.00">Map&lt; Integer, Color &gt;</text>
</g>
<!-- Node14&#45;&gt;Node1 -->
<g id="edge20" class="edge"><title>Node14&#45;&gt;Node1</title>
<path fill="none" stroke="#9a32cd" stroke-dasharray="5,2" d="M146.584,-81.7154C153.234,-79.7567 159.82,-77.5267 166,-75 174.678,-71.4518 175.495,-67.9456 184,-64 265.979,-25.9682 286.629,-0 377,-0 377,-0 377,-0 876,-0 927.108,-0 983.929,-22.9951 1012.84,-36.4688"/>
<polygon fill="#9a32cd" stroke="#9a32cd" points="145.551,-78.3696 136.835,-84.394 147.405,-85.1195 145.551,-78.3696"/>
<text text-anchor="middle" x="642" y="-3" font-family="Helvetica,sans-Serif" font-size="10.00"> myColors</text>
</g>
<!-- Node14&#45;&gt;Node11 -->
<g id="edge13" class="edge"><title>Node14&#45;&gt;Node11</title>
<path fill="none" stroke="#9a32cd" stroke-dasharray="5,2" d="M155.573,-102.246C192.882,-107.135 239.135,-114.121 280,-123 302.952,-127.987 328.453,-135.425 347.546,-141.381"/>
<polygon fill="#9a32cd" stroke="#9a32cd" points="155.664,-98.7294 145.299,-100.923 154.77,-105.672 155.664,-98.7294"/>
<text text-anchor="middle" x="232" y="-126" font-family="Helvetica,sans-Serif" font-size="10.00"> myColors</text>
</g>
<!-- Node15 -->
<g id="node15" class="node"><title>Node15</title>
<polygon fill="white" stroke="#bfbfbf" points="0,-199 0,-229 166,-229 166,-199 0,-199"/>
<text text-anchor="start" x="8" y="-217" font-family="Helvetica,sans-Serif" font-size="10.00">Map&lt; String, parser.Command</text>
<text text-anchor="middle" x="83" y="-206" font-family="Helvetica,sans-Serif" font-size="10.00">Object &gt;</text>
</g>
<!-- Node15&#45;&gt;Node11 -->
<g id="edge14" class="edge"><title>Node15&#45;&gt;Node11</title>
<path fill="none" stroke="#9a32cd" stroke-dasharray="5,2" d="M176.449,-199.532C209.297,-193.854 246.44,-186.818 280,-179 302.704,-173.711 327.999,-166.36 347.064,-160.517"/>
<polygon fill="#9a32cd" stroke="#9a32cd" points="175.669,-196.115 166.402,-201.25 176.849,-203.015 175.669,-196.115"/>
<text text-anchor="middle" x="232" y="-201" font-family="Helvetica,sans-Serif" font-size="10.00"> myCommands</text>
</g>
<!-- Node16 -->
<g id="node16" class="node"><title>Node16</title>
<g id="a_node16"><a xlink:href="../../de/d1c/classproperties_1_1_stage_properties.html" target="_top" xlink:title="properties.StageProperties">
<polygon fill="white" stroke="black" points="10,-160.5 10,-179.5 156,-179.5 156,-160.5 10,-160.5"/>
<text text-anchor="middle" x="83" y="-167.5" font-family="Helvetica,sans-Serif" font-size="10.00">properties.StageProperties</text>
</a>
</g>
</g>
<!-- Node16&#45;&gt;Node11 -->
<g id="edge15" class="edge"><title>Node16&#45;&gt;Node11</title>
<path fill="none" stroke="#9a32cd" stroke-dasharray="5,2" d="M166.102,-164.676C214.068,-161.566 273.533,-157.709 317.08,-154.886"/>
<polygon fill="#9a32cd" stroke="#9a32cd" points="165.804,-161.188 156.051,-165.328 166.257,-168.173 165.804,-161.188"/>
<text text-anchor="middle" x="232" y="-167" font-family="Helvetica,sans-Serif" font-size="10.00"> myStageProperties</text>
</g>
<!-- Node17 -->
<g id="node17" class="node"><title>Node17</title>
<polygon fill="white" stroke="#bfbfbf" points="19,-122.5 19,-141.5 147,-141.5 147,-122.5 19,-122.5"/>
<text text-anchor="middle" x="83" y="-129.5" font-family="Helvetica,sans-Serif" font-size="10.00">Map&lt; String, Double &gt;</text>
</g>
<!-- Node17&#45;&gt;Node11 -->
<g id="edge16" class="edge"><title>Node17&#45;&gt;Node11</title>
<path fill="none" stroke="#9a32cd" stroke-dasharray="5,2" d="M157.292,-135.657C194.127,-137.61 239.443,-140.19 280,-143 292.053,-143.835 304.94,-144.828 317.254,-145.825"/>
<polygon fill="#9a32cd" stroke="#9a32cd" points="157.309,-132.153 147.139,-135.122 156.941,-139.143 157.309,-132.153"/>
<text text-anchor="middle" x="232" y="-146" font-family="Helvetica,sans-Serif" font-size="10.00"> myVariables</text>
</g>
<!-- Node18 -->
<g id="node18" class="node"><title>Node18</title>
<polygon fill="white" stroke="#bfbfbf" points="7,-46.5 7,-65.5 159,-65.5 159,-46.5 7,-46.5"/>
<text text-anchor="middle" x="83" y="-53.5" font-family="Helvetica,sans-Serif" font-size="10.00">Map&lt; Integer, actor.Turtle &gt;</text>
</g>
<!-- Node18&#45;&gt;Node11 -->
<g id="edge17" class="edge"><title>Node18&#45;&gt;Node11</title>
<path fill="none" stroke="#9a32cd" stroke-dasharray="5,2" d="M169.473,-64.7984C204.514,-70.1612 244.984,-78.6576 280,-92 312.786,-104.493 346.874,-128.137 364.603,-141.385"/>
<polygon fill="#9a32cd" stroke="#9a32cd" points="169.667,-61.2895 159.265,-63.3003 168.65,-68.2153 169.667,-61.2895"/>
<text text-anchor="middle" x="232" y="-95" font-family="Helvetica,sans-Serif" font-size="10.00"> myTurtles</text>
</g>
<!-- Node19 -->
<g id="node19" class="node"><title>Node19</title>
<polygon fill="white" stroke="#bfbfbf" points="609,-266.5 609,-285.5 675,-285.5 675,-266.5 609,-266.5"/>
<text text-anchor="middle" x="642" y="-273.5" font-family="Helvetica,sans-Serif" font-size="10.00">ScrollPane</text>
</g>
<!-- Node19&#45;&gt;Node2 -->
<g id="edge18" class="edge"><title>Node19&#45;&gt;Node2</title>
<path fill="none" stroke="#9a32cd" stroke-dasharray="5,2" d="M685.5,-271.802C718.487,-267.09 764.437,-257.258 800,-237 829.722,-220.069 855.507,-187.854 867.248,-171.719"/>
<polygon fill="#9a32cd" stroke="#9a32cd" points="684.728,-268.373 675.275,-273.158 685.648,-275.313 684.728,-268.373"/>
<text text-anchor="middle" x="766" y="-266" font-family="Helvetica,sans-Serif" font-size="10.00"> myScrollPane</text>
</g>
<!-- Node20 -->
<g id="node20" class="node"><title>Node20</title>
<polygon fill="white" stroke="#bfbfbf" points="612.5,-190.5 612.5,-209.5 671.5,-209.5 671.5,-190.5 612.5,-190.5"/>
<text text-anchor="middle" x="642" y="-197.5" font-family="Helvetica,sans-Serif" font-size="10.00">GridPane</text>
</g>
<!-- Node20&#45;&gt;Node2 -->
<g id="edge19" class="edge"><title>Node20&#45;&gt;Node2</title>
<path fill="none" stroke="#9a32cd" stroke-dasharray="5,2" d="M681.907,-194.442C713.715,-189.805 759.831,-182.868 800,-176 808.12,-174.612 816.724,-173.059 825.084,-171.507"/>
<polygon fill="#9a32cd" stroke="#9a32cd" points="681.092,-191.024 671.698,-195.923 682.097,-197.951 681.092,-191.024"/>
<text text-anchor="middle" x="766" y="-190" font-family="Helvetica,sans-Serif" font-size="10.00"> myTextPane</text>
</g>
</g>
</svg>
