<?xml version="1.0" encoding="UTF-8" standalone="no"?>
<!DOCTYPE svg PUBLIC "-//W3C//DTD SVG 1.1//EN"
 "http://www.w3.org/Graphics/SVG/1.1/DTD/svg11.dtd">
<!-- Generated by graphviz version 2.36.0 (20140111.2315)
 -->
<!-- Title: exceptions.CustomException Pages: 1 -->
<!--zoomable 224 -->
<svg id="main" version="1.1" xmlns="http://www.w3.org/2000/svg" xmlns:xlink="http://www.w3.org/1999/xlink" xml:space="preserve" onload="init(evt)">
<style type="text/css"><![CDATA[
.edge:hover path { stroke: red; }
.edge:hover polygon { stroke: red; fill: red; }
]]></style>
<script type="text/javascript"><![CDATA[
var edges = document.getElementsByTagName('g');
if (edges && edges.length) {
  for (var i=0;i<edges.length;i++) {
    if (edges[i].id.substr(0,4)=='edge') {
      edges[i].setAttribute('class','edge');
    }
  }
}
]]></script>
        <defs>
                <circle id="rim" cx="0" cy="0" r="7"/>
                <circle id="rim2" cx="0" cy="0" r="3.5"/>
                <g id="zoomPlus">
                        <use xlink:href="#rim" fill="#404040">
                                <set attributeName="fill" to="#808080" begin="zoomplus.mouseover" end="zoomplus.mouseout"/>
                        </use>
                        <path d="M-4,0h8M0,-4v8" fill="none" stroke="white" stroke-width="1.5" pointer-events="none"/>
                </g>
                <g id="zoomMin">
                        <use xlink:href="#rim" fill="#404040">
                                <set attributeName="fill" to="#808080" begin="zoomminus.mouseover" end="zoomminus.mouseout"/>
                        </use>
                        <path d="M-4,0h8" fill="none" stroke="white" stroke-width="1.5" pointer-events="none"/>
                </g>
                <g id="dirArrow">
                        <path fill="none" stroke="white" stroke-width="1.5" d="M0,-3.0v7 M-2.5,-0.5L0,-3.0L2.5,-0.5"/>
                </g>
               <g id="resetDef">
                       <use xlink:href="#rim2" fill="#404040">
                               <set attributeName="fill" to="#808080" begin="reset.mouseover" end="reset.mouseout"/>
                       </use>
               </g>
        </defs>

<script type="text/javascript">
var viewWidth = 504;
var viewHeight = 224;
var sectionId = 'dynsection-0';
</script>
<script xlink:href="../../svgpan.js"/>
<svg id="graph" class="graph">
<g id="viewport">
<title>exceptions.CustomException</title>
<polygon fill="white" stroke="none" points="-4,4 -4,-220 500,-220 500,4 -4,4"/>
<!-- Node1 -->
<g id="node1" class="node"><title>Node1</title>
<polygon fill="#bfbfbf" stroke="black" points="138.5,-93.5 138.5,-112.5 293.5,-112.5 293.5,-93.5 138.5,-93.5"/>
<text text-anchor="middle" x="216" y="-100.5" font-family="Helvetica,sans-Serif" font-size="10.00">exceptions.CustomException</text>
</g>
<!-- Node3 -->
<g id="node3" class="node"><title>Node3</title>
<g id="a_node3"><a xlink:href="../../d5/d03/classexceptions_1_1_incorrect_index_exception.html" target="_top" xlink:title="exceptions.IncorrectIndex\lException">
<polygon fill="white" stroke="black" points="343.5,-186 343.5,-216 482.5,-216 482.5,-186 343.5,-186"/>
<text text-anchor="start" x="351.5" y="-204" font-family="Helvetica,sans-Serif" font-size="10.00">exceptions.IncorrectIndex</text>
<text text-anchor="middle" x="413" y="-193" font-family="Helvetica,sans-Serif" font-size="10.00">Exception</text>
</a>
</g>
</g>
<!-- Node1&#45;&gt;Node3 -->
<g id="edge2" class="edge"><title>Node1&#45;&gt;Node3</title>
<path fill="none" stroke="midnightblue" d="M237.395,-118.674C259.281,-134.879 295.557,-160.005 330,-176 337.964,-179.698 346.613,-183.02 355.207,-185.942"/>
<polygon fill="midnightblue" stroke="midnightblue" points="239.31,-115.735 229.211,-112.531 235.108,-121.334 239.31,-115.735"/>
</g>
<!-- Node4 -->
<g id="node4" class="node"><title>Node4</title>
<g id="a_node4"><a xlink:href="../../d7/dfc/classexceptions_1_1_incorrect_input_exception.html" target="_top" xlink:title="exceptions.IncorrectInput\lException">
<polygon fill="white" stroke="black" points="344.5,-137 344.5,-167 481.5,-167 481.5,-137 344.5,-137"/>
<text text-anchor="start" x="352.5" y="-155" font-family="Helvetica,sans-Serif" font-size="10.00">exceptions.IncorrectInput</text>
<text text-anchor="middle" x="413" y="-144" font-family="Helvetica,sans-Serif" font-size="10.00">Exception</text>
</a>
</g>
</g>
<!-- Node1&#45;&gt;Node4 -->
<g id="edge3" class="edge"><title>Node1&#45;&gt;Node4</title>
<path fill="none" stroke="midnightblue" d="M264.812,-115.014C291.16,-121.635 324.115,-129.916 352.159,-136.963"/>
<polygon fill="midnightblue" stroke="midnightblue" points="265.612,-111.607 255.061,-112.564 263.906,-118.396 265.612,-111.607"/>
</g>
<!-- Node5 -->
<g id="node5" class="node"><title>Node5</title>
<g id="a_node5"><a xlink:href="../../d3/db5/classexceptions_1_1_incorrect_num_inputs_exception.html" target="_top" xlink:title="exceptions.IncorrectNumInputs\lException">
<polygon fill="white" stroke="black" points="330,-88 330,-118 496,-118 496,-88 330,-88"/>
<text text-anchor="start" x="338" y="-106" font-family="Helvetica,sans-Serif" font-size="10.00">exceptions.IncorrectNumInputs</text>
<text text-anchor="middle" x="413" y="-95" font-family="Helvetica,sans-Serif" font-size="10.00">Exception</text>
</a>
</g>
</g>
<!-- Node1&#45;&gt;Node5 -->
<g id="edge4" class="edge"><title>Node1&#45;&gt;Node5</title>
<path fill="none" stroke="midnightblue" d="M303.68,-103C312.405,-103 321.246,-103 329.921,-103"/>
<polygon fill="midnightblue" stroke="midnightblue" points="303.51,-99.5001 293.509,-103 303.509,-106.5 303.51,-99.5001"/>
</g>
<!-- Node6 -->
<g id="node6" class="node"><title>Node6</title>
<g id="a_node6"><a xlink:href="../../d0/db8/classexceptions_1_1_not_enough_lists_exception.html" target="_top" xlink:title="exceptions.NotEnoughLists\lException">
<polygon fill="white" stroke="black" points="340,-39 340,-69 486,-69 486,-39 340,-39"/>
<text text-anchor="start" x="348" y="-57" font-family="Helvetica,sans-Serif" font-size="10.00">exceptions.NotEnoughLists</text>
<text text-anchor="middle" x="413" y="-46" font-family="Helvetica,sans-Serif" font-size="10.00">Exception</text>
</a>
</g>
</g>
<!-- Node1&#45;&gt;Node6 -->
<g id="edge5" class="edge"><title>Node1&#45;&gt;Node6</title>
<path fill="none" stroke="midnightblue" d="M264.812,-90.9858C291.16,-84.365 324.115,-76.0839 352.159,-69.037"/>
<polygon fill="midnightblue" stroke="midnightblue" points="263.906,-87.6044 255.061,-93.436 265.612,-94.3933 263.906,-87.6044"/>
</g>
<!-- Node7 -->
<g id="node7" class="node"><title>Node7</title>
<g id="a_node7"><a xlink:href="../../d4/d0b/classexceptions_1_1_parse_exception.html" target="_top" xlink:title="exceptions.ParseException">
<polygon fill="white" stroke="black" points="341,-0.5 341,-19.5 485,-19.5 485,-0.5 341,-0.5"/>
<text text-anchor="middle" x="413" y="-7.5" font-family="Helvetica,sans-Serif" font-size="10.00">exceptions.ParseException</text>
</a>
</g>
</g>
<!-- Node1&#45;&gt;Node7 -->
<g id="edge6" class="edge"><title>Node1&#45;&gt;Node7</title>
<path fill="none" stroke="midnightblue" d="M236.797,-86.8904C258.438,-70.0625 294.746,-44.0606 330,-29 338.869,-25.211 348.616,-22.1128 358.197,-19.6011"/>
<polygon fill="midnightblue" stroke="midnightblue" points="234.402,-84.3226 228.729,-93.2709 238.744,-89.8132 234.402,-84.3226"/>
</g>
<!-- Node2 -->
<g id="node2" class="node"><title>Node2</title>
<polygon fill="white" stroke="#bfbfbf" points="0,-93.5 0,-112.5 102,-112.5 102,-93.5 0,-93.5"/>
<text text-anchor="middle" x="51" y="-100.5" font-family="Helvetica,sans-Serif" font-size="10.00">RuntimeException</text>
</g>
<!-- Node2&#45;&gt;Node1 -->
<g id="edge1" class="edge"><title>Node2&#45;&gt;Node1</title>
<path fill="none" stroke="midnightblue" d="M112.347,-103C120.79,-103 129.56,-103 138.256,-103"/>
<polygon fill="midnightblue" stroke="midnightblue" points="112.235,-99.5001 102.235,-103 112.235,-106.5 112.235,-99.5001"/>
</g>
</g>
</svg>
        <g id="navigator" transform="translate(0 0)" fill="#404254">
                <rect fill="#f2f5e9" fill-opacity="0.5" stroke="#606060" stroke-width=".5" x="0" y="0" width="60" height="60"/>
                <use id="zoomplus" xlink:href="#zoomPlus" x="17" y="9" onmousedown="handleZoom(evt,'in')"/>
                <use id="zoomminus" xlink:href="#zoomMin" x="42" y="9" onmousedown="handleZoom(evt,'out')"/>
                <use id="reset" xlink:href="#resetDef" x="30" y="36" onmousedown="handleReset()"/>
                <g id="arrowUp" xlink:href="#dirArrow" transform="translate(30 24)" onmousedown="handlePan(0,-1)">
                  <use xlink:href="#rim" fill="#404040">
                        <set attributeName="fill" to="#808080" begin="arrowUp.mouseover" end="arrowUp.mouseout"/>
                  </use>
                  <path fill="none" stroke="white" stroke-width="1.5" d="M0,-3.0v7 M-2.5,-0.5L0,-3.0L2.5,-0.5"/>
                </g>
                <g id="arrowRight" xlink:href="#dirArrow" transform="rotate(90) translate(36 -43)" onmousedown="handlePan(1,0)">
                  <use xlink:href="#rim" fill="#404040">
                        <set attributeName="fill" to="#808080" begin="arrowRight.mouseover" end="arrowRight.mouseout"/>
                  </use>
                  <path fill="none" stroke="white" stroke-width="1.5" d="M0,-3.0v7 M-2.5,-0.5L0,-3.0L2.5,-0.5"/>
                </g>
                <g id="arrowDown" xlink:href="#dirArrow" transform="rotate(180) translate(-30 -48)" onmousedown="handlePan(0,1)">
                  <use xlink:href="#rim" fill="#404040">
                        <set attributeName="fill" to="#808080" begin="arrowDown.mouseover" end="arrowDown.mouseout"/>
                  </use>
                  <path fill="none" stroke="white" stroke-width="1.5" d="M0,-3.0v7 M-2.5,-0.5L0,-3.0L2.5,-0.5"/>
                </g>
                <g id="arrowLeft" xlink:href="#dirArrow" transform="rotate(270) translate(-36 17)" onmousedown="handlePan(-1,0)">
                  <use xlink:href="#rim" fill="#404040">
                        <set attributeName="fill" to="#808080" begin="arrowLeft.mouseover" end="arrowLeft.mouseout"/>
                  </use>
                  <path fill="none" stroke="white" stroke-width="1.5" d="M0,-3.0v7 M-2.5,-0.5L0,-3.0L2.5,-0.5"/>
                </g>
        </g>
        <svg viewBox="0 0 15 15" width="100%" height="30px" preserveAspectRatio="xMaxYMin meet">
         <g id="arrow_out" transform="scale(0.3 0.3)">
          <a xlink:href="classexceptions_1_1_custom_exception__inherit__graph_org.svg" target="_base">
           <rect id="button" ry="5" rx="5" y="6" x="6" height="38" width="38"
                fill="#f2f5e9" fill-opacity="0.5" stroke="#606060" stroke-width="1.0"/>
           <path id="arrow"
             d="M 11.500037,31.436501 C 11.940474,20.09759 22.043105,11.32322 32.158766,21.979434 L 37.068811,17.246167 C 37.068811,17.246167 37.088388,32 37.088388,32 L 22.160133,31.978069 C 22.160133,31.978069 26.997745,27.140456 26.997745,27.140456 C 18.528582,18.264221 13.291696,25.230495 11.500037,31.436501 z"
             style="fill:#404040;"/>
          </a>
         </g>
        </svg>
</svg>
