<?xml version="1.0" encoding="UTF-8" standalone="no"?>
<!DOCTYPE svg PUBLIC "-//W3C//DTD SVG 1.1//EN"
 "http://www.w3.org/Graphics/SVG/1.1/DTD/svg11.dtd">
<!-- Generated by graphviz version 2.36.0 (20140111.2315)
 -->
<!-- Title: command.PositionInterface Pages: 1 -->
<svg width="640pt" height="140pt"
 viewBox="0.00 0.00 640.00 140.00" xmlns="http://www.w3.org/2000/svg" xmlns:xlink="http://www.w3.org/1999/xlink">
<g id="graph0" class="graph" transform="scale(1 1) rotate(0) translate(4 136)">
<title>command.PositionInterface</title>
<polygon fill="white" stroke="none" points="-4,4 -4,-136 636,-136 636,4 -4,4"/>
<!-- Node1 -->
<g id="node1" class="node"><title>Node1</title>
<polygon fill="#bfbfbf" stroke="black" points="246,-112.5 246,-131.5 394,-131.5 394,-112.5 246,-112.5"/>
<text text-anchor="middle" x="320" y="-119.5" font-family="Helvetica,sans-Serif" font-size="10.00">command.PositionInterface</text>
</g>
<!-- Node2 -->
<g id="node2" class="node"><title>Node2</title>
<g id="a_node2"><a xlink:href="../../d5/da3/classcommand_1_1_move_command.html" target="_top" xlink:title="command.MoveCommand">
<polygon fill="white" stroke="black" points="166,-56.5 166,-75.5 310,-75.5 310,-56.5 166,-56.5"/>
<text text-anchor="middle" x="238" y="-63.5" font-family="Helvetica,sans-Serif" font-size="10.00">command.MoveCommand</text>
</a>
</g>
</g>
<!-- Node1&#45;&gt;Node2 -->
<g id="edge1" class="edge"><title>Node1&#45;&gt;Node2</title>
<path fill="none" stroke="midnightblue" d="M298.167,-106.622C283.187,-96.7574 263.803,-83.9919 251.142,-75.6545"/>
<polygon fill="midnightblue" stroke="midnightblue" points="296.549,-109.747 306.825,-112.324 300.399,-103.901 296.549,-109.747"/>
</g>
<!-- Node5 -->
<g id="node5" class="node"><title>Node5</title>
<g id="a_node5"><a xlink:href="../../d8/d0b/classcommand_1_1_rotate_command.html" target="_top" xlink:title="command.RotateCommand">
<polygon fill="white" stroke="black" points="328.5,-56.5 328.5,-75.5 477.5,-75.5 477.5,-56.5 328.5,-56.5"/>
<text text-anchor="middle" x="403" y="-63.5" font-family="Helvetica,sans-Serif" font-size="10.00">command.RotateCommand</text>
</a>
</g>
</g>
<!-- Node1&#45;&gt;Node5 -->
<g id="edge4" class="edge"><title>Node1&#45;&gt;Node5</title>
<path fill="none" stroke="midnightblue" d="M342.099,-106.622C357.262,-96.7574 376.883,-83.9919 389.698,-75.6545"/>
<polygon fill="midnightblue" stroke="midnightblue" points="339.809,-103.937 333.335,-112.324 343.626,-109.804 339.809,-103.937"/>
</g>
<!-- Node3 -->
<g id="node3" class="node"><title>Node3</title>
<g id="a_node3"><a xlink:href="../../d7/d49/classcommand_1_1_back_command.html" target="_top" xlink:title="command.BackCommand">
<polygon fill="white" stroke="black" points="0,-0.5 0,-19.5 142,-19.5 142,-0.5 0,-0.5"/>
<text text-anchor="middle" x="71" y="-7.5" font-family="Helvetica,sans-Serif" font-size="10.00">command.BackCommand</text>
</a>
</g>
</g>
<!-- Node2&#45;&gt;Node3 -->
<g id="edge2" class="edge"><title>Node2&#45;&gt;Node3</title>
<path fill="none" stroke="midnightblue" d="M201.83,-53.3044C170.363,-43.1294 125.506,-28.6246 97.3378,-19.5164"/>
<polygon fill="midnightblue" stroke="midnightblue" points="200.947,-56.697 211.538,-56.4435 203.1,-50.0366 200.947,-56.697"/>
</g>
<!-- Node4 -->
<g id="node4" class="node"><title>Node4</title>
<g id="a_node4"><a xlink:href="../../df/d28/classcommand_1_1_forward_command.html" target="_top" xlink:title="command.ForwardCommand">
<polygon fill="white" stroke="black" points="160,-0.5 160,-19.5 316,-19.5 316,-0.5 160,-0.5"/>
<text text-anchor="middle" x="238" y="-7.5" font-family="Helvetica,sans-Serif" font-size="10.00">command.ForwardCommand</text>
</a>
</g>
</g>
<!-- Node2&#45;&gt;Node4 -->
<g id="edge3" class="edge"><title>Node2&#45;&gt;Node4</title>
<path fill="none" stroke="midnightblue" d="M238,-45.8045C238,-36.9102 238,-26.7798 238,-19.7511"/>
<polygon fill="midnightblue" stroke="midnightblue" points="234.5,-46.083 238,-56.083 241.5,-46.083 234.5,-46.083"/>
</g>
<!-- Node6 -->
<g id="node6" class="node"><title>Node6</title>
<g id="a_node6"><a xlink:href="../../d7/d34/classcommand_1_1_left_command.html" target="_top" xlink:title="command.LeftCommand">
<polygon fill="white" stroke="black" points="334.5,-0.5 334.5,-19.5 471.5,-19.5 471.5,-0.5 334.5,-0.5"/>
<text text-anchor="middle" x="403" y="-7.5" font-family="Helvetica,sans-Serif" font-size="10.00">command.LeftCommand</text>
</a>
</g>
</g>
<!-- Node5&#45;&gt;Node6 -->
<g id="edge5" class="edge"><title>Node5&#45;&gt;Node6</title>
<path fill="none" stroke="midnightblue" d="M403,-45.8045C403,-36.9102 403,-26.7798 403,-19.7511"/>
<polygon fill="midnightblue" stroke="midnightblue" points="399.5,-46.083 403,-56.083 406.5,-46.083 399.5,-46.083"/>
</g>
<!-- Node7 -->
<g id="node7" class="node"><title>Node7</title>
<g id="a_node7"><a xlink:href="../../da/ddd/classcommand_1_1_right_command.html" target="_top" xlink:title="command.RightCommand">
<polygon fill="white" stroke="black" points="489.5,-0.5 489.5,-19.5 632.5,-19.5 632.5,-0.5 489.5,-0.5"/>
<text text-anchor="middle" x="561" y="-7.5" font-family="Helvetica,sans-Serif" font-size="10.00">command.RightCommand</text>
</a>
</g>
</g>
<!-- Node5&#45;&gt;Node7 -->
<g id="edge6" class="edge"><title>Node5&#45;&gt;Node7</title>
<path fill="none" stroke="midnightblue" d="M437.608,-53.172C467.359,-43.0039 509.547,-28.5852 536.082,-19.5164"/>
<polygon fill="midnightblue" stroke="midnightblue" points="436.366,-49.8975 428.036,-56.4435 438.63,-56.5213 436.366,-49.8975"/>
</g>
</g>
</svg>
