<?xml version="1.0" encoding="UTF-8" standalone="no"?>
<!DOCTYPE svg PUBLIC "-//W3C//DTD SVG 1.1//EN"
 "http://www.w3.org/Graphics/SVG/1.1/DTD/svg11.dtd">
<!-- Generated by graphviz version 2.36.0 (20140111.2315)
 -->
<!-- Title: command.StoredCommand.execute Pages: 1 -->
<!--zoomable 273 -->
<svg id="main" version="1.1" xmlns="http://www.w3.org/2000/svg" xmlns:xlink="http://www.w3.org/1999/xlink" xml:space="preserve" onload="init(evt)">
<style type="text/css"><![CDATA[
.edge:hover path { stroke: red; }
.edge:hover polygon { stroke: red; fill: red; }
]]></style>
<script type="text/javascript"><![CDATA[
var edges = document.getElementsByTagName('g');
if (edges && edges.length) {
  for (var i=0;i<edges.length;i++) {
    if (edges[i].id.substr(0,4)=='edge') {
      edges[i].setAttribute('class','edge');
    }
  }
}
]]></script>
        <defs>
                <circle id="rim" cx="0" cy="0" r="7"/>
                <circle id="rim2" cx="0" cy="0" r="3.5"/>
                <g id="zoomPlus">
                        <use xlink:href="#rim" fill="#404040">
                                <set attributeName="fill" to="#808080" begin="zoomplus.mouseover" end="zoomplus.mouseout"/>
                        </use>
                        <path d="M-4,0h8M0,-4v8" fill="none" stroke="white" stroke-width="1.5" pointer-events="none"/>
                </g>
                <g id="zoomMin">
                        <use xlink:href="#rim" fill="#404040">
                                <set attributeName="fill" to="#808080" begin="zoomminus.mouseover" end="zoomminus.mouseout"/>
                        </use>
                        <path d="M-4,0h8" fill="none" stroke="white" stroke-width="1.5" pointer-events="none"/>
                </g>
                <g id="dirArrow">
                        <path fill="none" stroke="white" stroke-width="1.5" d="M0,-3.0v7 M-2.5,-0.5L0,-3.0L2.5,-0.5"/>
                </g>
               <g id="resetDef">
                       <use xlink:href="#rim2" fill="#404040">
                               <set attributeName="fill" to="#808080" begin="reset.mouseover" end="reset.mouseout"/>
                       </use>
               </g>
        </defs>

<script type="text/javascript">
var viewWidth = 648;
var viewHeight = 273;
var sectionId = 'dynsection-2';
</script>
<script xlink:href="../../svgpan.js"/>
<svg id="graph" class="graph">
<g id="viewport">
<title>command.StoredCommand.execute</title>
<polygon fill="white" stroke="none" points="-4,4 -4,-269 644,-269 644,4 -4,4"/>
<!-- Node1 -->
<g id="node1" class="node"><title>Node1</title>
<polygon fill="#bfbfbf" stroke="black" points="0,-127.5 0,-146.5 192,-146.5 192,-127.5 0,-127.5"/>
<text text-anchor="middle" x="96" y="-134.5" font-family="Helvetica,sans-Serif" font-size="10.00">command.StoredCommand.execute</text>
</g>
<!-- Node2 -->
<g id="node2" class="node"><title>Node2</title>
<g id="a_node2"><a xlink:href="../../d7/d29/classcommand_1_1_basic_list_command.html#ae4c4456d483b7dd5f6e88dfb7dace4c1" target="_top" xlink:title="command.BasicListCommand.check\lListException">
<polygon fill="white" stroke="black" points="228.5,-235 228.5,-265 419.5,-265 419.5,-235 228.5,-235"/>
<text text-anchor="start" x="236.5" y="-253" font-family="Helvetica,sans-Serif" font-size="10.00">command.BasicListCommand.check</text>
<text text-anchor="middle" x="324" y="-242" font-family="Helvetica,sans-Serif" font-size="10.00">ListException</text>
</a>
</g>
</g>
<!-- Node1&#45;&gt;Node2 -->
<g id="edge1" class="edge"><title>Node1&#45;&gt;Node2</title>
<path fill="none" stroke="midnightblue" d="M109.741,-146.67C132.446,-163.528 181.86,-198.542 228,-220 237.27,-224.311 247.324,-228.231 257.306,-231.71"/>
<polygon fill="midnightblue" stroke="midnightblue" points="256.231,-235.041 266.825,-234.909 258.461,-228.406 256.231,-235.041"/>
</g>
<!-- Node3 -->
<g id="node3" class="node"><title>Node3</title>
<g id="a_node3"><a xlink:href="../../d7/d35/classcommand_1_1_command.html#ac2df873d4926bc6e08dba8c6272cff7e" target="_top" xlink:title="command.Command.toString">
<polygon fill="white" stroke="black" points="468,-218.5 468,-237.5 628,-237.5 628,-218.5 468,-218.5"/>
<text text-anchor="middle" x="548" y="-225.5" font-family="Helvetica,sans-Serif" font-size="10.00">command.Command.toString</text>
</a>
</g>
</g>
<!-- Node1&#45;&gt;Node3 -->
<g id="edge8" class="edge"><title>Node1&#45;&gt;Node3</title>
<path fill="none" stroke="midnightblue" d="M118.31,-146.69C143.846,-157.896 188.183,-176.069 228,-186 304.271,-205.022 393.08,-215.823 457.598,-221.692"/>
<polygon fill="midnightblue" stroke="midnightblue" points="457.468,-225.194 467.738,-222.592 458.087,-218.222 457.468,-225.194"/>
</g>
<!-- Node4 -->
<g id="node4" class="node"><title>Node4</title>
<g id="a_node4"><a xlink:href="../../d7/d85/classparser_1_1_command_object.html#a586c50f2a3bb4445ce061cbfe41c4b3d" target="_top" xlink:title="parser.CommandObject.get\lMyCommands">
<polygon fill="white" stroke="black" points="249.5,-147 249.5,-177 398.5,-177 398.5,-147 249.5,-147"/>
<text text-anchor="start" x="257.5" y="-165" font-family="Helvetica,sans-Serif" font-size="10.00">parser.CommandObject.get</text>
<text text-anchor="middle" x="324" y="-154" font-family="Helvetica,sans-Serif" font-size="10.00">MyCommands</text>
</a>
</g>
</g>
<!-- Node1&#45;&gt;Node4 -->
<g id="edge3" class="edge"><title>Node1&#45;&gt;Node4</title>
<path fill="none" stroke="midnightblue" d="M183.086,-146.523C201.504,-148.56 220.936,-150.71 239.265,-152.737"/>
<polygon fill="midnightblue" stroke="midnightblue" points="238.996,-156.229 249.32,-153.85 239.766,-149.271 238.996,-156.229"/>
</g>
<!-- Node5 -->
<g id="node5" class="node"><title>Node5</title>
<g id="a_node5"><a xlink:href="../../d7/d85/classparser_1_1_command_object.html#a1f71e6ca258be0b56f63f0a49c6653f8" target="_top" xlink:title="parser.CommandObject.get\lMyNumVars">
<polygon fill="white" stroke="black" points="249.5,-98 249.5,-128 398.5,-128 398.5,-98 249.5,-98"/>
<text text-anchor="start" x="257.5" y="-116" font-family="Helvetica,sans-Serif" font-size="10.00">parser.CommandObject.get</text>
<text text-anchor="middle" x="324" y="-105" font-family="Helvetica,sans-Serif" font-size="10.00">MyNumVars</text>
</a>
</g>
</g>
<!-- Node1&#45;&gt;Node5 -->
<g id="edge4" class="edge"><title>Node1&#45;&gt;Node5</title>
<path fill="none" stroke="midnightblue" d="M186.646,-127.48C204.056,-125.631 222.24,-123.7 239.444,-121.873"/>
<polygon fill="midnightblue" stroke="midnightblue" points="239.874,-125.347 249.448,-120.811 239.134,-118.387 239.874,-125.347"/>
</g>
<!-- Node6 -->
<g id="node6" class="node"><title>Node6</title>
<g id="a_node6"><a xlink:href="../../d7/d85/classparser_1_1_command_object.html#a64a7955b1738c44cf1edb832f6ca84b4" target="_top" xlink:title="parser.CommandObject.get\lMyVarNames">
<polygon fill="white" stroke="black" points="249.5,-49 249.5,-79 398.5,-79 398.5,-49 249.5,-49"/>
<text text-anchor="start" x="257.5" y="-67" font-family="Helvetica,sans-Serif" font-size="10.00">parser.CommandObject.get</text>
<text text-anchor="middle" x="324" y="-56" font-family="Helvetica,sans-Serif" font-size="10.00">MyVarNames</text>
</a>
</g>
</g>
<!-- Node1&#45;&gt;Node6 -->
<g id="edge5" class="edge"><title>Node1&#45;&gt;Node6</title>
<path fill="none" stroke="midnightblue" d="M120.912,-127.469C146.998,-117.253 190.101,-100.901 228,-89 235.953,-86.5027 244.331,-84.0477 252.683,-81.7099"/>
<polygon fill="midnightblue" stroke="midnightblue" points="253.735,-85.0507 262.449,-79.0239 251.879,-78.3013 253.735,-85.0507"/>
</g>
<!-- Node7 -->
<g id="node7" class="node"><title>Node7</title>
<g id="a_node7"><a xlink:href="../../dd/d2f/classcommand_1_1_base_make_variable_command.html#af8d8e775391c0724b7a80ceb1bae6639" target="_top" xlink:title="command.BaseMakeVariable\lCommand.makeVariable">
<polygon fill="white" stroke="black" points="246,-0 246,-30 402,-30 402,-0 246,-0"/>
<text text-anchor="start" x="254" y="-18" font-family="Helvetica,sans-Serif" font-size="10.00">command.BaseMakeVariable</text>
<text text-anchor="middle" x="324" y="-7" font-family="Helvetica,sans-Serif" font-size="10.00">Command.makeVariable</text>
</a>
</g>
</g>
<!-- Node1&#45;&gt;Node7 -->
<g id="edge6" class="edge"><title>Node1&#45;&gt;Node7</title>
<path fill="none" stroke="midnightblue" d="M106.974,-127.467C127.769,-108.106 177.992,-63.9932 228,-40 232.997,-37.6024 238.257,-35.4106 243.632,-33.411"/>
<polygon fill="midnightblue" stroke="midnightblue" points="245.102,-36.6054 253.399,-30.0164 242.804,-29.9934 245.102,-36.6054"/>
</g>
<!-- Node2&#45;&gt;Node3 -->
<g id="edge2" class="edge"><title>Node2&#45;&gt;Node3</title>
<path fill="none" stroke="midnightblue" d="M419.792,-240.606C432.439,-239.353 445.372,-238.071 457.917,-236.828"/>
<polygon fill="midnightblue" stroke="midnightblue" points="458.275,-240.31 467.881,-235.841 457.585,-233.344 458.275,-240.31"/>
</g>
<!-- Node8 -->
<g id="node8" class="node"><title>Node8</title>
<g id="a_node8"><a xlink:href="../../de/d19/classworkspace_1_1_workspace.html#a85d7692f63e805af8424da4116f233fa" target="_top" xlink:title="workspace.Workspace.getVariables">
<polygon fill="white" stroke="black" points="456.5,-5.5 456.5,-24.5 639.5,-24.5 639.5,-5.5 456.5,-5.5"/>
<text text-anchor="middle" x="548" y="-12.5" font-family="Helvetica,sans-Serif" font-size="10.00">workspace.Workspace.getVariables</text>
</a>
</g>
</g>
<!-- Node7&#45;&gt;Node8 -->
<g id="edge7" class="edge"><title>Node7&#45;&gt;Node8</title>
<path fill="none" stroke="midnightblue" d="M402.022,-15C416.267,-15 431.338,-15 446.166,-15"/>
<polygon fill="midnightblue" stroke="midnightblue" points="446.379,-18.5001 456.379,-15 446.379,-11.5001 446.379,-18.5001"/>
</g>
</g>
</svg>
        <g id="navigator" transform="translate(0 0)" fill="#404254">
                <rect fill="#f2f5e9" fill-opacity="0.5" stroke="#606060" stroke-width=".5" x="0" y="0" width="60" height="60"/>
                <use id="zoomplus" xlink:href="#zoomPlus" x="17" y="9" onmousedown="handleZoom(evt,'in')"/>
                <use id="zoomminus" xlink:href="#zoomMin" x="42" y="9" onmousedown="handleZoom(evt,'out')"/>
                <use id="reset" xlink:href="#resetDef" x="30" y="36" onmousedown="handleReset()"/>
                <g id="arrowUp" xlink:href="#dirArrow" transform="translate(30 24)" onmousedown="handlePan(0,-1)">
                  <use xlink:href="#rim" fill="#404040">
                        <set attributeName="fill" to="#808080" begin="arrowUp.mouseover" end="arrowUp.mouseout"/>
                  </use>
                  <path fill="none" stroke="white" stroke-width="1.5" d="M0,-3.0v7 M-2.5,-0.5L0,-3.0L2.5,-0.5"/>
                </g>
                <g id="arrowRight" xlink:href="#dirArrow" transform="rotate(90) translate(36 -43)" onmousedown="handlePan(1,0)">
                  <use xlink:href="#rim" fill="#404040">
                        <set attributeName="fill" to="#808080" begin="arrowRight.mouseover" end="arrowRight.mouseout"/>
                  </use>
                  <path fill="none" stroke="white" stroke-width="1.5" d="M0,-3.0v7 M-2.5,-0.5L0,-3.0L2.5,-0.5"/>
                </g>
                <g id="arrowDown" xlink:href="#dirArrow" transform="rotate(180) translate(-30 -48)" onmousedown="handlePan(0,1)">
                  <use xlink:href="#rim" fill="#404040">
                        <set attributeName="fill" to="#808080" begin="arrowDown.mouseover" end="arrowDown.mouseout"/>
                  </use>
                  <path fill="none" stroke="white" stroke-width="1.5" d="M0,-3.0v7 M-2.5,-0.5L0,-3.0L2.5,-0.5"/>
                </g>
                <g id="arrowLeft" xlink:href="#dirArrow" transform="rotate(270) translate(-36 17)" onmousedown="handlePan(-1,0)">
                  <use xlink:href="#rim" fill="#404040">
                        <set attributeName="fill" to="#808080" begin="arrowLeft.mouseover" end="arrowLeft.mouseout"/>
                  </use>
                  <path fill="none" stroke="white" stroke-width="1.5" d="M0,-3.0v7 M-2.5,-0.5L0,-3.0L2.5,-0.5"/>
                </g>
        </g>
        <svg viewBox="0 0 15 15" width="100%" height="30px" preserveAspectRatio="xMaxYMin meet">
         <g id="arrow_out" transform="scale(0.3 0.3)">
          <a xlink:href="classcommand_1_1_stored_command_af713db09f85ae986a0707559209972b1_cgraph_org.svg" target="_base">
           <rect id="button" ry="5" rx="5" y="6" x="6" height="38" width="38"
                fill="#f2f5e9" fill-opacity="0.5" stroke="#606060" stroke-width="1.0"/>
           <path id="arrow"
             d="M 11.500037,31.436501 C 11.940474,20.09759 22.043105,11.32322 32.158766,21.979434 L 37.068811,17.246167 C 37.068811,17.246167 37.088388,32 37.088388,32 L 22.160133,31.978069 C 22.160133,31.978069 26.997745,27.140456 26.997745,27.140456 C 18.528582,18.264221 13.291696,25.230495 11.500037,31.436501 z"
             style="fill:#404040;"/>
          </a>
         </g>
        </svg>
</svg>
