<?xml version="1.0" encoding="UTF-8" standalone="no"?>
<!DOCTYPE svg PUBLIC "-//W3C//DTD SVG 1.1//EN"
 "http://www.w3.org/Graphics/SVG/1.1/DTD/svg11.dtd">
<!-- Generated by graphviz version 2.36.0 (20140111.2315)
 -->
<!-- Title: command.YCoordinateCommand.execute Pages: 1 -->
<svg width="522pt" height="28pt"
 viewBox="0.00 0.00 522.00 28.00" xmlns="http://www.w3.org/2000/svg" xmlns:xlink="http://www.w3.org/1999/xlink">
<g id="graph0" class="graph" transform="scale(1 1) rotate(0) translate(4 24)">
<title>command.YCoordinateCommand.execute</title>
<polygon fill="white" stroke="none" points="-4,4 -4,-24 518,-24 518,4 -4,4"/>
<!-- Node1 -->
<g id="node1" class="node"><title>Node1</title>
<polygon fill="#bfbfbf" stroke="black" points="0.5,-0.5 0.5,-19.5 217.5,-19.5 217.5,-0.5 0.5,-0.5"/>
<text text-anchor="middle" x="109" y="-7.5" font-family="Helvetica,sans-Serif" font-size="10.00">command.YCoordinateCommand.execute</text>
</g>
<!-- Node2 -->
<g id="node2" class="node"><title>Node2</title>
<g id="a_node2"><a xlink:href="../../d4/d4a/classactor_1_1_turtle.html#a79fbed5e65c4226a72e94c8d205ff286" target="_top" xlink:title="actor.Turtle.getY">
<polygon fill="white" stroke="black" points="254.5,-0.5 254.5,-19.5 347.5,-19.5 347.5,-0.5 254.5,-0.5"/>
<text text-anchor="middle" x="301" y="-7.5" font-family="Helvetica,sans-Serif" font-size="10.00">actor.Turtle.getY</text>
</a>
</g>
</g>
<!-- Node1&#45;&gt;Node2 -->
<g id="edge1" class="edge"><title>Node1&#45;&gt;Node2</title>
<path fill="none" stroke="midnightblue" d="M217.768,-10C226.72,-10 235.517,-10 243.835,-10"/>
<polygon fill="midnightblue" stroke="midnightblue" points="244.09,-13.5001 254.09,-10 244.09,-6.5001 244.09,-13.5001"/>
</g>
<!-- Node3 -->
<g id="node3" class="node"><title>Node3</title>
<g id="a_node3"><a xlink:href="../../da/d54/classproperties_1_1_position.html#a0e2fa1786b2b6cbed8f91d02e624d3ec" target="_top" xlink:title="properties.Position.getY">
<polygon fill="white" stroke="black" points="384,-0.5 384,-19.5 514,-19.5 514,-0.5 384,-0.5"/>
<text text-anchor="middle" x="449" y="-7.5" font-family="Helvetica,sans-Serif" font-size="10.00">properties.Position.getY</text>
</a>
</g>
</g>
<!-- Node2&#45;&gt;Node3 -->
<g id="edge2" class="edge"><title>Node2&#45;&gt;Node3</title>
<path fill="none" stroke="midnightblue" d="M347.795,-10C356.119,-10 364.994,-10 373.891,-10"/>
<polygon fill="midnightblue" stroke="midnightblue" points="373.917,-13.5001 383.917,-10 373.917,-6.5001 373.917,-13.5001"/>
</g>
</g>
</svg>
