<?xml version="1.0" encoding="UTF-8" standalone="no"?>
<!DOCTYPE svg PUBLIC "-//W3C//DTD SVG 1.1//EN"
 "http://www.w3.org/Graphics/SVG/1.1/DTD/svg11.dtd">
<!-- Generated by graphviz version 2.36.0 (20140111.2315)
 -->
<!-- Title: command.ForCommand.execute Pages: 1 -->
<svg width="632pt" height="136pt"
 viewBox="0.00 0.00 632.00 136.00" xmlns="http://www.w3.org/2000/svg" xmlns:xlink="http://www.w3.org/1999/xlink">
<g id="graph0" class="graph" transform="scale(1 1) rotate(0) translate(4 132)">
<title>command.ForCommand.execute</title>
<polygon fill="white" stroke="none" points="-4,4 -4,-132 628,-132 628,4 -4,4"/>
<!-- Node1 -->
<g id="node1" class="node"><title>Node1</title>
<polygon fill="#bfbfbf" stroke="black" points="0.5,-54.5 0.5,-73.5 175.5,-73.5 175.5,-54.5 0.5,-54.5"/>
<text text-anchor="middle" x="88" y="-61.5" font-family="Helvetica,sans-Serif" font-size="10.00">command.ForCommand.execute</text>
</g>
<!-- Node2 -->
<g id="node2" class="node"><title>Node2</title>
<g id="a_node2"><a xlink:href="../../dd/d2f/classcommand_1_1_base_make_variable_command.html#a794f0ee22428208cd96c2220ab0746ed" target="_top" xlink:title="command.BaseMakeVariable\lCommand.checkCorrectInput">
<polygon fill="white" stroke="black" points="229.5,-98 229.5,-128 386.5,-128 386.5,-98 229.5,-98"/>
<text text-anchor="start" x="237.5" y="-116" font-family="Helvetica,sans-Serif" font-size="10.00">command.BaseMakeVariable</text>
<text text-anchor="middle" x="308" y="-105" font-family="Helvetica,sans-Serif" font-size="10.00">Command.checkCorrectInput</text>
</a>
</g>
</g>
<!-- Node1&#45;&gt;Node2 -->
<g id="edge1" class="edge"><title>Node1&#45;&gt;Node2</title>
<path fill="none" stroke="midnightblue" d="M131.291,-73.5058C159.232,-79.786 196.675,-88.2021 229.816,-95.6513"/>
<polygon fill="midnightblue" stroke="midnightblue" points="229.424,-99.1505 239.948,-97.9287 230.959,-92.3208 229.424,-99.1505"/>
</g>
<!-- Node5 -->
<g id="node5" class="node"><title>Node5</title>
<g id="a_node5"><a xlink:href="../../d7/d29/classcommand_1_1_basic_list_command.html#ae4c4456d483b7dd5f6e88dfb7dace4c1" target="_top" xlink:title="command.BasicListCommand.check\lListException">
<polygon fill="white" stroke="black" points="212.5,-49 212.5,-79 403.5,-79 403.5,-49 212.5,-49"/>
<text text-anchor="start" x="220.5" y="-67" font-family="Helvetica,sans-Serif" font-size="10.00">command.BasicListCommand.check</text>
<text text-anchor="middle" x="308" y="-56" font-family="Helvetica,sans-Serif" font-size="10.00">ListException</text>
</a>
</g>
</g>
<!-- Node1&#45;&gt;Node5 -->
<g id="edge4" class="edge"><title>Node1&#45;&gt;Node5</title>
<path fill="none" stroke="midnightblue" d="M175.786,-64C184.405,-64 193.218,-64 201.997,-64"/>
<polygon fill="midnightblue" stroke="midnightblue" points="202.272,-67.5001 212.272,-64 202.272,-60.5001 202.272,-67.5001"/>
</g>
<!-- Node6 -->
<g id="node6" class="node"><title>Node6</title>
<g id="a_node6"><a xlink:href="../../dd/d2f/classcommand_1_1_base_make_variable_command.html#af8d8e775391c0724b7a80ceb1bae6639" target="_top" xlink:title="command.BaseMakeVariable\lCommand.makeVariable">
<polygon fill="white" stroke="black" points="230,-0 230,-30 386,-30 386,-0 230,-0"/>
<text text-anchor="start" x="238" y="-18" font-family="Helvetica,sans-Serif" font-size="10.00">command.BaseMakeVariable</text>
<text text-anchor="middle" x="308" y="-7" font-family="Helvetica,sans-Serif" font-size="10.00">Command.makeVariable</text>
</a>
</g>
</g>
<!-- Node1&#45;&gt;Node6 -->
<g id="edge6" class="edge"><title>Node1&#45;&gt;Node6</title>
<path fill="none" stroke="midnightblue" d="M131.291,-54.4942C159.232,-48.214 196.675,-39.7979 229.816,-32.3487"/>
<polygon fill="midnightblue" stroke="midnightblue" points="230.959,-35.6792 239.948,-30.0713 229.424,-28.8495 230.959,-35.6792"/>
</g>
<!-- Node3 -->
<g id="node3" class="node"><title>Node3</title>
<g id="a_node3"><a xlink:href="../../d7/d29/classcommand_1_1_basic_list_command.html#a36b32271a84890af875a576eaf608aa3" target="_top" xlink:title="command.BasicListCommand.get\lBracketIndex">
<polygon fill="white" stroke="black" points="442.5,-98 442.5,-128 621.5,-128 621.5,-98 442.5,-98"/>
<text text-anchor="start" x="450.5" y="-116" font-family="Helvetica,sans-Serif" font-size="10.00">command.BasicListCommand.get</text>
<text text-anchor="middle" x="532" y="-105" font-family="Helvetica,sans-Serif" font-size="10.00">BracketIndex</text>
</a>
</g>
</g>
<!-- Node2&#45;&gt;Node3 -->
<g id="edge2" class="edge"><title>Node2&#45;&gt;Node3</title>
<path fill="none" stroke="midnightblue" d="M386.645,-113C401.415,-113 417.053,-113 432.373,-113"/>
<polygon fill="midnightblue" stroke="midnightblue" points="432.382,-116.5 442.382,-113 432.382,-109.5 432.382,-116.5"/>
</g>
<!-- Node4 -->
<g id="node4" class="node"><title>Node4</title>
<g id="a_node4"><a xlink:href="../../d7/d35/classcommand_1_1_command.html#ac2df873d4926bc6e08dba8c6272cff7e" target="_top" xlink:title="command.Command.toString">
<polygon fill="white" stroke="black" points="452,-56.5 452,-75.5 612,-75.5 612,-56.5 452,-56.5"/>
<text text-anchor="middle" x="532" y="-63.5" font-family="Helvetica,sans-Serif" font-size="10.00">command.Command.toString</text>
</a>
</g>
</g>
<!-- Node2&#45;&gt;Node4 -->
<g id="edge3" class="edge"><title>Node2&#45;&gt;Node4</title>
<path fill="none" stroke="midnightblue" d="M379.853,-97.9997C410.955,-91.415 446.917,-83.8014 475.958,-77.653"/>
<polygon fill="midnightblue" stroke="midnightblue" points="476.864,-81.0388 485.922,-75.5434 475.414,-74.1906 476.864,-81.0388"/>
</g>
<!-- Node5&#45;&gt;Node4 -->
<g id="edge5" class="edge"><title>Node5&#45;&gt;Node4</title>
<path fill="none" stroke="midnightblue" d="M403.792,-64.854C416.313,-64.9668 429.116,-65.0821 441.544,-65.1941"/>
<polygon fill="midnightblue" stroke="midnightblue" points="441.85,-68.6969 451.881,-65.2872 441.913,-61.6972 441.85,-68.6969"/>
</g>
<!-- Node7 -->
<g id="node7" class="node"><title>Node7</title>
<g id="a_node7"><a xlink:href="../../de/d19/classworkspace_1_1_workspace.html#a85d7692f63e805af8424da4116f233fa" target="_top" xlink:title="workspace.Workspace.getVariables">
<polygon fill="white" stroke="black" points="440.5,-5.5 440.5,-24.5 623.5,-24.5 623.5,-5.5 440.5,-5.5"/>
<text text-anchor="middle" x="532" y="-12.5" font-family="Helvetica,sans-Serif" font-size="10.00">workspace.Workspace.getVariables</text>
</a>
</g>
</g>
<!-- Node6&#45;&gt;Node7 -->
<g id="edge7" class="edge"><title>Node6&#45;&gt;Node7</title>
<path fill="none" stroke="midnightblue" d="M386.022,-15C400.267,-15 415.338,-15 430.166,-15"/>
<polygon fill="midnightblue" stroke="midnightblue" points="430.379,-18.5001 440.379,-15 430.379,-11.5001 430.379,-18.5001"/>
</g>
</g>
</svg>
