<?xml version="1.0" encoding="UTF-8" standalone="no"?>
<!DOCTYPE svg PUBLIC "-//W3C//DTD SVG 1.1//EN"
 "http://www.w3.org/Graphics/SVG/1.1/DTD/svg11.dtd">
<!-- Generated by graphviz version 2.36.0 (20140111.2315)
 -->
<!-- Title: /tmp/duke&#45;compsci308&#45;fall2014/slogo_team09/repository/src Pages: 1 -->
<svg width="873pt" height="111pt"
 viewBox="0.00 0.00 873.00 111.00" xmlns="http://www.w3.org/2000/svg" xmlns:xlink="http://www.w3.org/1999/xlink">
<g id="graph0" class="graph" transform="scale(1 1) rotate(0) translate(4 107)">
<title>/tmp/duke&#45;compsci308&#45;fall2014/slogo_team09/repository/src</title>
<polygon fill="white" stroke="none" points="-4,4 -4,-107 869,-107 869,4 -4,4"/>
<g id="clust1" class="cluster"><title>clusterdir_bcfecd0180d6b8f40876e2376e5a917d</title>
<g id="a_clust1"><a xlink:href="dir_bcfecd0180d6b8f40876e2376e5a917d.html" target="_top" xlink:title="repository">
<polygon fill="#ddddee" stroke="black" points="8,-8 8,-95 857,-95 857,-8 8,-8"/>
<text text-anchor="middle" x="432.5" y="-83" font-family="Helvetica,sans-Serif" font-size="10.00">repository</text>
</a>
</g>
</g>
<g id="clust2" class="cluster"><title>clusterdir_b342df4ff082453cb660025cdc1628ff</title>
<g id="a_clust2"><a xlink:href="dir_b342df4ff082453cb660025cdc1628ff.html" target="_top">
<polygon fill="#eeeeff" stroke="black" points="16,-16 16,-68 849,-68 849,-16 16,-16"/>
</a>
</g>
</g>
<!-- dir_b342df4ff082453cb660025cdc1628ff -->
<g id="node1" class="node"><title>dir_b342df4ff082453cb660025cdc1628ff</title>
<text text-anchor="middle" x="814" y="-39.5" font-family="Helvetica,sans-Serif" font-size="10.00">src</text>
</g>
<!-- dir_ec4ccd7652736da76d4714797336df8d -->
<g id="node2" class="node"><title>dir_ec4ccd7652736da76d4714797336df8d</title>
<g id="a_node2"><a xlink:href="dir_ec4ccd7652736da76d4714797336df8d.html" target="_top" xlink:title="actor">
<polygon fill="white" stroke="black" points="769,-60 715,-60 715,-24 769,-24 769,-60"/>
<text text-anchor="middle" x="742" y="-39.5" font-family="Helvetica,sans-Serif" font-size="10.00">actor</text>
</a>
</g>
</g>
<!-- dir_8696e4a0fe1449e3cd6610f2d2a2d218 -->
<g id="node3" class="node"><title>dir_8696e4a0fe1449e3cd6610f2d2a2d218</title>
<g id="a_node3"><a xlink:href="dir_8696e4a0fe1449e3cd6610f2d2a2d218.html" target="_top" xlink:title="command">
<polygon fill="white" stroke="black" points="696.25,-60 631.75,-60 631.75,-24 696.25,-24 696.25,-60"/>
<text text-anchor="middle" x="664" y="-39.5" font-family="Helvetica,sans-Serif" font-size="10.00">command</text>
</a>
</g>
</g>
<!-- dir_5664b828b0bb52caaca33f12a0da3a7a -->
<g id="node4" class="node"><title>dir_5664b828b0bb52caaca33f12a0da3a7a</title>
<g id="a_node4"><a xlink:href="dir_5664b828b0bb52caaca33f12a0da3a7a.html" target="_top" xlink:title="components">
<polygon fill="white" stroke="black" points="613.25,-60 536.75,-60 536.75,-24 613.25,-24 613.25,-60"/>
<text text-anchor="middle" x="575" y="-39.5" font-family="Helvetica,sans-Serif" font-size="10.00">components</text>
</a>
</g>
</g>
<!-- dir_12abe59e1cb7d8938f58fb4104d934dd -->
<g id="node5" class="node"><title>dir_12abe59e1cb7d8938f58fb4104d934dd</title>
<g id="a_node5"><a xlink:href="dir_12abe59e1cb7d8938f58fb4104d934dd.html" target="_top" xlink:title="exceptions">
<polygon fill="white" stroke="black" points="518,-60 450,-60 450,-24 518,-24 518,-60"/>
<text text-anchor="middle" x="484" y="-39.5" font-family="Helvetica,sans-Serif" font-size="10.00">exceptions</text>
</a>
</g>
</g>
<!-- dir_3e45fa95ac30092f866b7215331bb53b -->
<g id="node6" class="node"><title>dir_3e45fa95ac30092f866b7215331bb53b</title>
<g id="a_node6"><a xlink:href="dir_3e45fa95ac30092f866b7215331bb53b.html" target="_top" xlink:title="features">
<polygon fill="white" stroke="black" points="431.5,-60 376.5,-60 376.5,-24 431.5,-24 431.5,-60"/>
<text text-anchor="middle" x="404" y="-39.5" font-family="Helvetica,sans-Serif" font-size="10.00">features</text>
</a>
</g>
</g>
<!-- dir_bcb64f8b8aed551d2f57cc852341eaf5 -->
<g id="node7" class="node"><title>dir_bcb64f8b8aed551d2f57cc852341eaf5</title>
<g id="a_node7"><a xlink:href="dir_bcb64f8b8aed551d2f57cc852341eaf5.html" target="_top" xlink:title="mainApplication">
<polygon fill="white" stroke="black" points="358.25,-60 265.75,-60 265.75,-24 358.25,-24 358.25,-60"/>
<text text-anchor="middle" x="312" y="-39.5" font-family="Helvetica,sans-Serif" font-size="10.00">mainApplication</text>
</a>
</g>
</g>
<!-- dir_14951f8d16d085c97487d4109a61d1f2 -->
<g id="node8" class="node"><title>dir_14951f8d16d085c97487d4109a61d1f2</title>
<g id="a_node8"><a xlink:href="dir_14951f8d16d085c97487d4109a61d1f2.html" target="_top" xlink:title="parser">
<polygon fill="white" stroke="black" points="247,-60 193,-60 193,-24 247,-24 247,-60"/>
<text text-anchor="middle" x="220" y="-39.5" font-family="Helvetica,sans-Serif" font-size="10.00">parser</text>
</a>
</g>
</g>
<!-- dir_7130b9b2259e2f942b0aadfd82e8e08b -->
<g id="node9" class="node"><title>dir_7130b9b2259e2f942b0aadfd82e8e08b</title>
<g id="a_node9"><a xlink:href="dir_7130b9b2259e2f942b0aadfd82e8e08b.html" target="_top" xlink:title="properties">
<polygon fill="white" stroke="black" points="174.25,-60 109.75,-60 109.75,-24 174.25,-24 174.25,-60"/>
<text text-anchor="middle" x="142" y="-39.5" font-family="Helvetica,sans-Serif" font-size="10.00">properties</text>
</a>
</g>
</g>
<!-- dir_210c3cf3df1469b33e4046f24d9b83f4 -->
<g id="node10" class="node"><title>dir_210c3cf3df1469b33e4046f24d9b83f4</title>
<g id="a_node10"><a xlink:href="dir_210c3cf3df1469b33e4046f24d9b83f4.html" target="_top" xlink:title="workspace">
<polygon fill="white" stroke="black" points="91.25,-60 24.75,-60 24.75,-24 91.25,-24 91.25,-60"/>
<text text-anchor="middle" x="58" y="-39.5" font-family="Helvetica,sans-Serif" font-size="10.00">workspace</text>
</a>
</g>
</g>
</g>
</svg>
