<?xml version="1.0" encoding="UTF-8" standalone="no"?>
<!DOCTYPE svg PUBLIC "-//W3C//DTD SVG 1.1//EN"
 "http://www.w3.org/Graphics/SVG/1.1/DTD/svg11.dtd">
<!-- Generated by graphviz version 2.36.0 (20140111.2315)
 -->
<!-- Title: Graphical Class Hierarchy Pages: 1 -->
<svg width="528pt" height="224pt"
 viewBox="0.00 0.00 528.00 224.00" xmlns="http://www.w3.org/2000/svg" xmlns:xlink="http://www.w3.org/1999/xlink">
<g id="graph0" class="graph" transform="scale(1 1) rotate(0) translate(4 220)">
<title>Graphical Class Hierarchy</title>
<polygon fill="white" stroke="none" points="-4,4 -4,-220 524,-220 524,4 -4,4"/>
<!-- Node1 -->
<g id="node1" class="node"><title>Node1</title>
<polygon fill="white" stroke="#bfbfbf" points="0,-74.5 0,-93.5 102,-93.5 102,-74.5 0,-74.5"/>
<text text-anchor="middle" x="51" y="-81.5" font-family="Helvetica,sans-Serif" font-size="10.00">RuntimeException</text>
</g>
<!-- Node2 -->
<g id="node2" class="node"><title>Node2</title>
<g id="a_node2"><a xlink:href="db/d3f/classexceptions_1_1_custom_exception.html" target="_top" xlink:title="exceptions.CustomException">
<polygon fill="white" stroke="black" points="150.5,-93.5 150.5,-112.5 305.5,-112.5 305.5,-93.5 150.5,-93.5"/>
<text text-anchor="middle" x="228" y="-100.5" font-family="Helvetica,sans-Serif" font-size="10.00">exceptions.CustomException</text>
</a>
</g>
</g>
<!-- Node1&#45;&gt;Node2 -->
<g id="edge1" class="edge"><title>Node1&#45;&gt;Node2</title>
<path fill="none" stroke="midnightblue" d="M112.26,-90.5425C124.55,-91.8769 137.637,-93.2977 150.409,-94.6844"/>
<polygon fill="midnightblue" stroke="midnightblue" points="112.467,-87.0445 102.148,-89.4446 111.712,-94.0036 112.467,-87.0445"/>
</g>
<!-- Node8 -->
<g id="node8" class="node"><title>Node8</title>
<g id="a_node8"><a xlink:href="dc/d65/classexceptions_1_1_unclosed_list_exception.html" target="_top" xlink:title="exceptions.UnclosedListException">
<polygon fill="white" stroke="black" points="138.5,-55.5 138.5,-74.5 317.5,-74.5 317.5,-55.5 138.5,-55.5"/>
<text text-anchor="middle" x="228" y="-62.5" font-family="Helvetica,sans-Serif" font-size="10.00">exceptions.UnclosedListException</text>
</a>
</g>
</g>
<!-- Node1&#45;&gt;Node8 -->
<g id="edge7" class="edge"><title>Node1&#45;&gt;Node8</title>
<path fill="none" stroke="midnightblue" d="M112.27,-77.4564C121.073,-76.5006 130.284,-75.5005 139.496,-74.5004"/>
<polygon fill="midnightblue" stroke="midnightblue" points="111.712,-73.9964 102.148,-78.5554 112.467,-80.9555 111.712,-73.9964"/>
</g>
<!-- Node3 -->
<g id="node3" class="node"><title>Node3</title>
<g id="a_node3"><a xlink:href="d5/d03/classexceptions_1_1_incorrect_index_exception.html" target="_top" xlink:title="exceptions.IncorrectIndex\lException">
<polygon fill="white" stroke="black" points="367.5,-186 367.5,-216 506.5,-216 506.5,-186 367.5,-186"/>
<text text-anchor="start" x="375.5" y="-204" font-family="Helvetica,sans-Serif" font-size="10.00">exceptions.IncorrectIndex</text>
<text text-anchor="middle" x="437" y="-193" font-family="Helvetica,sans-Serif" font-size="10.00">Exception</text>
</a>
</g>
</g>
<!-- Node2&#45;&gt;Node3 -->
<g id="edge2" class="edge"><title>Node2&#45;&gt;Node3</title>
<path fill="none" stroke="midnightblue" d="M251.574,-118.358C275.977,-134.432 316.432,-159.571 354,-176 362.318,-179.638 371.328,-182.961 380.227,-185.914"/>
<polygon fill="midnightblue" stroke="midnightblue" points="253.31,-115.309 243.047,-112.678 249.43,-121.135 253.31,-115.309"/>
</g>
<!-- Node4 -->
<g id="node4" class="node"><title>Node4</title>
<g id="a_node4"><a xlink:href="d7/dfc/classexceptions_1_1_incorrect_input_exception.html" target="_top" xlink:title="exceptions.IncorrectInput\lException">
<polygon fill="white" stroke="black" points="368.5,-137 368.5,-167 505.5,-167 505.5,-137 368.5,-137"/>
<text text-anchor="start" x="376.5" y="-155" font-family="Helvetica,sans-Serif" font-size="10.00">exceptions.IncorrectInput</text>
<text text-anchor="middle" x="437" y="-144" font-family="Helvetica,sans-Serif" font-size="10.00">Exception</text>
</a>
</g>
</g>
<!-- Node2&#45;&gt;Node4 -->
<g id="edge3" class="edge"><title>Node2&#45;&gt;Node4</title>
<path fill="none" stroke="midnightblue" d="M279.385,-114.927C307.415,-121.562 342.576,-129.885 372.476,-136.963"/>
<polygon fill="midnightblue" stroke="midnightblue" points="279.94,-111.462 269.403,-112.564 278.328,-118.273 279.94,-111.462"/>
</g>
<!-- Node5 -->
<g id="node5" class="node"><title>Node5</title>
<g id="a_node5"><a xlink:href="d3/db5/classexceptions_1_1_incorrect_num_inputs_exception.html" target="_top" xlink:title="exceptions.IncorrectNumInputs\lException">
<polygon fill="white" stroke="black" points="354,-88 354,-118 520,-118 520,-88 354,-88"/>
<text text-anchor="start" x="362" y="-106" font-family="Helvetica,sans-Serif" font-size="10.00">exceptions.IncorrectNumInputs</text>
<text text-anchor="middle" x="437" y="-95" font-family="Helvetica,sans-Serif" font-size="10.00">Exception</text>
</a>
</g>
</g>
<!-- Node2&#45;&gt;Node5 -->
<g id="edge4" class="edge"><title>Node2&#45;&gt;Node5</title>
<path fill="none" stroke="midnightblue" d="M315.789,-103C328.373,-103 341.294,-103 353.784,-103"/>
<polygon fill="midnightblue" stroke="midnightblue" points="315.785,-99.5001 305.785,-103 315.785,-106.5 315.785,-99.5001"/>
</g>
<!-- Node6 -->
<g id="node6" class="node"><title>Node6</title>
<g id="a_node6"><a xlink:href="d0/db8/classexceptions_1_1_not_enough_lists_exception.html" target="_top" xlink:title="exceptions.NotEnoughLists\lException">
<polygon fill="white" stroke="black" points="364,-39 364,-69 510,-69 510,-39 364,-39"/>
<text text-anchor="start" x="372" y="-57" font-family="Helvetica,sans-Serif" font-size="10.00">exceptions.NotEnoughLists</text>
<text text-anchor="middle" x="437" y="-46" font-family="Helvetica,sans-Serif" font-size="10.00">Exception</text>
</a>
</g>
</g>
<!-- Node2&#45;&gt;Node6 -->
<g id="edge5" class="edge"><title>Node2&#45;&gt;Node6</title>
<path fill="none" stroke="midnightblue" d="M285.14,-91.3596C296.057,-88.9988 307.399,-86.4782 318,-84 337.862,-79.3568 359.518,-73.9513 378.791,-69.018"/>
<polygon fill="midnightblue" stroke="midnightblue" points="284.312,-87.9575 275.268,-93.4768 285.78,-94.8019 284.312,-87.9575"/>
</g>
<!-- Node7 -->
<g id="node7" class="node"><title>Node7</title>
<g id="a_node7"><a xlink:href="d4/d0b/classexceptions_1_1_parse_exception.html" target="_top" xlink:title="exceptions.ParseException">
<polygon fill="white" stroke="black" points="365,-0.5 365,-19.5 509,-19.5 509,-0.5 365,-0.5"/>
<text text-anchor="middle" x="437" y="-7.5" font-family="Helvetica,sans-Serif" font-size="10.00">exceptions.ParseException</text>
</a>
</g>
</g>
<!-- Node2&#45;&gt;Node7 -->
<g id="edge6" class="edge"><title>Node2&#45;&gt;Node7</title>
<path fill="none" stroke="midnightblue" d="M308.86,-89.3285C312.038,-87.7377 315.102,-85.968 318,-84 341.862,-67.7952 330.374,-46.548 354,-30 360.241,-25.6285 367.33,-22.2078 374.665,-19.5319"/>
<polygon fill="midnightblue" stroke="midnightblue" points="307.402,-86.1458 299.638,-93.3548 310.203,-92.561 307.402,-86.1458"/>
</g>
</g>
</svg>
