<?xml version="1.0" encoding="UTF-8" standalone="no"?>
<!DOCTYPE svg PUBLIC "-//W3C//DTD SVG 1.1//EN"
 "http://www.w3.org/Graphics/SVG/1.1/DTD/svg11.dtd">
<!-- Generated by graphviz version 2.36.0 (20140111.2315)
 -->
<!-- Title: Graphical Class Hierarchy Pages: 1 -->
<svg width="486pt" height="748pt"
 viewBox="0.00 0.00 486.00 748.00" xmlns="http://www.w3.org/2000/svg" xmlns:xlink="http://www.w3.org/1999/xlink">
<g id="graph0" class="graph" transform="scale(1 1) rotate(0) translate(4 744)">
<title>Graphical Class Hierarchy</title>
<polygon fill="white" stroke="none" points="-4,4 -4,-744 482,-744 482,4 -4,4"/>
<!-- Node1 -->
<g id="node1" class="node"><title>Node1</title>
<polygon fill="white" stroke="#bfbfbf" points="23.5,-663.5 23.5,-682.5 72.5,-682.5 72.5,-663.5 23.5,-663.5"/>
<text text-anchor="middle" x="48" y="-670.5" font-family="Helvetica,sans-Serif" font-size="10.00">Button</text>
</g>
<!-- Node2 -->
<g id="node2" class="node"><title>Node2</title>
<g id="a_node2"><a xlink:href="d8/da9/classfeatures_1_1_animate_button_feature.html" target="_top" xlink:title="features.AnimateButtonFeature">
<polygon fill="white" stroke="black" points="137,-682.5 137,-701.5 305,-701.5 305,-682.5 137,-682.5"/>
<text text-anchor="middle" x="221" y="-689.5" font-family="Helvetica,sans-Serif" font-size="10.00">features.AnimateButtonFeature</text>
</a>
</g>
</g>
<!-- Node1&#45;&gt;Node2 -->
<g id="edge1" class="edge"><title>Node1&#45;&gt;Node2</title>
<path fill="none" stroke="midnightblue" d="M82.9534,-676.773C98.5649,-678.507 117.835,-680.648 136.942,-682.771"/>
<polygon fill="midnightblue" stroke="midnightblue" points="83.1022,-673.268 72.7768,-675.642 82.3291,-680.225 83.1022,-673.268"/>
</g>
<!-- Node3 -->
<g id="node3" class="node"><title>Node3</title>
<g id="a_node3"><a xlink:href="de/d10/classfeatures_1_1_run_button_feature.html" target="_top" xlink:title="features.RunButtonFeature">
<polygon fill="white" stroke="black" points="148.5,-644.5 148.5,-663.5 293.5,-663.5 293.5,-644.5 148.5,-644.5"/>
<text text-anchor="middle" x="221" y="-651.5" font-family="Helvetica,sans-Serif" font-size="10.00">features.RunButtonFeature</text>
</a>
</g>
</g>
<!-- Node1&#45;&gt;Node3 -->
<g id="edge2" class="edge"><title>Node1&#45;&gt;Node3</title>
<path fill="none" stroke="midnightblue" d="M82.8824,-669.235C101.637,-667.151 125.687,-664.479 148.394,-661.956"/>
<polygon fill="midnightblue" stroke="midnightblue" points="82.3291,-665.775 72.7768,-670.358 83.1022,-672.732 82.3291,-665.775"/>
</g>
<!-- Node4 -->
<g id="node4" class="node"><title>Node4</title>
<g id="a_node4"><a xlink:href="de/d5f/classfeatures_1_1_save_button_feature.html" target="_top" xlink:title="features.SaveButtonFeature">
<polygon fill="white" stroke="black" points="145,-720.5 145,-739.5 297,-739.5 297,-720.5 145,-720.5"/>
<text text-anchor="middle" x="221" y="-727.5" font-family="Helvetica,sans-Serif" font-size="10.00">features.SaveButtonFeature</text>
</a>
</g>
</g>
<!-- Node1&#45;&gt;Node4 -->
<g id="edge3" class="edge"><title>Node1&#45;&gt;Node4</title>
<path fill="none" stroke="midnightblue" d="M76.2382,-687.287C92.1525,-695.169 112.821,-704.623 132,-711 143.124,-714.699 155.283,-717.861 166.916,-720.483"/>
<polygon fill="midnightblue" stroke="midnightblue" points="77.5039,-684.005 66.9995,-682.623 74.3495,-690.254 77.5039,-684.005"/>
</g>
<!-- Node5 -->
<g id="node5" class="node"><title>Node5</title>
<g id="a_node5"><a xlink:href="df/d39/classfeatures_1_1_toggle_grid_button_feature.html" target="_top" xlink:title="features.ToggleGridButton\lFeature">
<polygon fill="white" stroke="black" points="150.5,-595 150.5,-625 291.5,-625 291.5,-595 150.5,-595"/>
<text text-anchor="start" x="158.5" y="-613" font-family="Helvetica,sans-Serif" font-size="10.00">features.ToggleGridButton</text>
<text text-anchor="middle" x="221" y="-602" font-family="Helvetica,sans-Serif" font-size="10.00">Feature</text>
</a>
</g>
</g>
<!-- Node1&#45;&gt;Node5 -->
<g id="edge4" class="edge"><title>Node1&#45;&gt;Node5</title>
<path fill="none" stroke="midnightblue" d="M77.0246,-658.874C92.9042,-651.2 113.282,-641.898 132,-635 141.687,-631.43 152.128,-628.062 162.315,-625.022"/>
<polygon fill="midnightblue" stroke="midnightblue" points="75.2143,-655.863 67.7737,-663.405 78.2938,-662.149 75.2143,-655.863"/>
</g>
<!-- Node6 -->
<g id="node6" class="node"><title>Node6</title>
<polygon fill="white" stroke="#bfbfbf" points="13,-556.5 13,-575.5 83,-575.5 83,-556.5 13,-556.5"/>
<text text-anchor="middle" x="48" y="-563.5" font-family="Helvetica,sans-Serif" font-size="10.00">ColorPicker</text>
</g>
<!-- Node7 -->
<g id="node7" class="node"><title>Node7</title>
<g id="a_node7"><a xlink:href="d3/d06/classfeatures_1_1_color_picker_feature.html" target="_top" xlink:title="features.ColorPickerFeature">
<polygon fill="white" stroke="black" points="146.5,-556.5 146.5,-575.5 295.5,-575.5 295.5,-556.5 146.5,-556.5"/>
<text text-anchor="middle" x="221" y="-563.5" font-family="Helvetica,sans-Serif" font-size="10.00">features.ColorPickerFeature</text>
</a>
</g>
</g>
<!-- Node6&#45;&gt;Node7 -->
<g id="edge5" class="edge"><title>Node6&#45;&gt;Node7</title>
<path fill="none" stroke="midnightblue" d="M93.4044,-566C109.558,-566 128.279,-566 146.288,-566"/>
<polygon fill="midnightblue" stroke="midnightblue" points="93.1935,-562.5 83.1934,-566 93.1934,-569.5 93.1935,-562.5"/>
</g>
<!-- Node8 -->
<g id="node8" class="node"><title>Node8</title>
<polygon fill="white" stroke="#bfbfbf" points="13.5,-496.5 13.5,-515.5 82.5,-515.5 82.5,-496.5 13.5,-496.5"/>
<text text-anchor="middle" x="48" y="-503.5" font-family="Helvetica,sans-Serif" font-size="10.00">ComboBox</text>
</g>
<!-- Node9 -->
<g id="node9" class="node"><title>Node9</title>
<g id="a_node9"><a xlink:href="da/d5c/classfeatures_1_1_language_combo_feature.html" target="_top" xlink:title="features.LanguageComboFeature">
<polygon fill="white" stroke="black" points="132.5,-518.5 132.5,-537.5 309.5,-537.5 309.5,-518.5 132.5,-518.5"/>
<text text-anchor="middle" x="221" y="-525.5" font-family="Helvetica,sans-Serif" font-size="10.00">features.LanguageComboFeature</text>
</a>
</g>
</g>
<!-- Node8&#45;&gt;Node9 -->
<g id="edge6" class="edge"><title>Node8&#45;&gt;Node9</title>
<path fill="none" stroke="midnightblue" d="M92.9885,-511.659C109.142,-513.738 127.905,-516.151 145.972,-518.476"/>
<polygon fill="midnightblue" stroke="midnightblue" points="93.149,-508.151 82.7841,-510.346 92.2557,-515.094 93.149,-508.151"/>
</g>
<!-- Node10 -->
<g id="node10" class="node"><title>Node10</title>
<g id="a_node10"><a xlink:href="dc/d76/classfeatures_1_1_pen_type_combo_box_feature.html" target="_top" xlink:title="features.PenTypeComboBox\lFeature">
<polygon fill="white" stroke="black" points="145.5,-469 145.5,-499 296.5,-499 296.5,-469 145.5,-469"/>
<text text-anchor="start" x="153.5" y="-487" font-family="Helvetica,sans-Serif" font-size="10.00">features.PenTypeComboBox</text>
<text text-anchor="middle" x="221" y="-476" font-family="Helvetica,sans-Serif" font-size="10.00">Feature</text>
</a>
</g>
</g>
<!-- Node8&#45;&gt;Node10 -->
<g id="edge7" class="edge"><title>Node8&#45;&gt;Node10</title>
<path fill="none" stroke="midnightblue" d="M92.8744,-500.355C108.842,-498.301 127.371,-495.917 145.261,-493.616"/>
<polygon fill="midnightblue" stroke="midnightblue" points="92.2557,-496.906 82.7841,-501.654 93.149,-503.849 92.2557,-496.906"/>
</g>
<!-- Node11 -->
<g id="node11" class="node"><title>Node11</title>
<polygon fill="white" stroke="#bfbfbf" points="18,-316.5 18,-335.5 78,-335.5 78,-316.5 18,-316.5"/>
<text text-anchor="middle" x="48" y="-323.5" font-family="Helvetica,sans-Serif" font-size="10.00">FlowPane</text>
</g>
<!-- Node12 -->
<g id="node12" class="node"><title>Node12</title>
<g id="a_node12"><a xlink:href="db/d7f/classcomponents_1_1_info_pane.html" target="_top" xlink:title="components.InfoPane">
<polygon fill="white" stroke="black" points="161,-316.5 161,-335.5 281,-335.5 281,-316.5 161,-316.5"/>
<text text-anchor="middle" x="221" y="-323.5" font-family="Helvetica,sans-Serif" font-size="10.00">components.InfoPane</text>
</a>
</g>
</g>
<!-- Node11&#45;&gt;Node12 -->
<g id="edge8" class="edge"><title>Node11&#45;&gt;Node12</title>
<path fill="none" stroke="midnightblue" d="M88.0617,-326C109.537,-326 136.624,-326 160.659,-326"/>
<polygon fill="midnightblue" stroke="midnightblue" points="88.0079,-322.5 78.0078,-326 88.0078,-329.5 88.0079,-322.5"/>
</g>
<!-- Node15 -->
<g id="node15" class="node"><title>Node15</title>
<g id="a_node15"><a xlink:href="d7/d3c/classcomponents_1_1_top_pane.html" target="_top" xlink:title="components.TopPane">
<polygon fill="white" stroke="black" points="161.5,-354.5 161.5,-373.5 280.5,-373.5 280.5,-354.5 161.5,-354.5"/>
<text text-anchor="middle" x="221" y="-361.5" font-family="Helvetica,sans-Serif" font-size="10.00">components.TopPane</text>
</a>
</g>
</g>
<!-- Node11&#45;&gt;Node15 -->
<g id="edge11" class="edge"><title>Node11&#45;&gt;Node15</title>
<path fill="none" stroke="midnightblue" d="M88.3217,-335.106C102.124,-338.275 117.741,-341.829 132,-345 146.036,-348.122 161.349,-351.454 175.209,-354.441"/>
<polygon fill="midnightblue" stroke="midnightblue" points="88.7033,-331.603 78.173,-332.771 87.1335,-338.425 88.7033,-331.603"/>
</g>
<!-- Node16 -->
<g id="node16" class="node"><title>Node16</title>
<g id="a_node16"><a xlink:href="d3/d04/classmain_application_1_1_g_u_i_shell.html" target="_top" xlink:title="mainApplication.GUIShell">
<polygon fill="white" stroke="black" points="152.5,-152.5 152.5,-171.5 289.5,-171.5 289.5,-152.5 152.5,-152.5"/>
<text text-anchor="middle" x="221" y="-159.5" font-family="Helvetica,sans-Serif" font-size="10.00">mainApplication.GUIShell</text>
</a>
</g>
</g>
<!-- Node11&#45;&gt;Node16 -->
<g id="edge12" class="edge"><title>Node11&#45;&gt;Node16</title>
<path fill="none" stroke="midnightblue" d="M71.7681,-310.165C80.3346,-303.262 89.5519,-294.561 96,-285 123.35,-244.448 95.3917,-213.44 132,-181 137.849,-175.817 144.77,-171.934 152.121,-169.041"/>
<polygon fill="midnightblue" stroke="midnightblue" points="69.3762,-307.588 63.5452,-316.434 73.6199,-313.155 69.3762,-307.588"/>
</g>
<!-- Node13 -->
<g id="node13" class="node"><title>Node13</title>
<g id="a_node13"><a xlink:href="db/d9a/classcomponents_1_1_left_pane.html" target="_top" xlink:title="components.LeftPane">
<polygon fill="white" stroke="black" points="351.5,-335.5 351.5,-354.5 472.5,-354.5 472.5,-335.5 351.5,-335.5"/>
<text text-anchor="middle" x="412" y="-342.5" font-family="Helvetica,sans-Serif" font-size="10.00">components.LeftPane</text>
</a>
</g>
</g>
<!-- Node12&#45;&gt;Node13 -->
<g id="edge9" class="edge"><title>Node12&#45;&gt;Node13</title>
<path fill="none" stroke="midnightblue" d="M291.193,-332.956C310.957,-334.943 332.316,-337.09 351.449,-339.013"/>
<polygon fill="midnightblue" stroke="midnightblue" points="291.323,-329.451 281.023,-331.934 290.623,-336.416 291.323,-329.451"/>
</g>
<!-- Node14 -->
<g id="node14" class="node"><title>Node14</title>
<g id="a_node14"><a xlink:href="d5/d01/classcomponents_1_1_right_pane.html" target="_top" xlink:title="components.RightPane">
<polygon fill="white" stroke="black" points="348.5,-411.5 348.5,-430.5 475.5,-430.5 475.5,-411.5 348.5,-411.5"/>
<text text-anchor="middle" x="412" y="-418.5" font-family="Helvetica,sans-Serif" font-size="10.00">components.RightPane</text>
</a>
</g>
</g>
<!-- Node12&#45;&gt;Node14 -->
<g id="edge10" class="edge"><title>Node12&#45;&gt;Node14</title>
<path fill="none" stroke="midnightblue" d="M291.004,-337.864C297.55,-339.888 303.983,-342.249 310,-345 347.519,-362.156 384.402,-395.101 401.349,-411.393"/>
<polygon fill="midnightblue" stroke="midnightblue" points="291.941,-334.492 281.365,-335.132 290.032,-341.226 291.941,-334.492"/>
</g>
<!-- Node17 -->
<g id="node17" class="node"><title>Node17</title>
<polygon fill="white" stroke="#bfbfbf" points="12.5,-5.5 12.5,-24.5 83.5,-24.5 83.5,-5.5 12.5,-5.5"/>
<text text-anchor="middle" x="48" y="-12.5" font-family="Helvetica,sans-Serif" font-size="10.00">Observable</text>
</g>
<!-- Node18 -->
<g id="node18" class="node"><title>Node18</title>
<g id="a_node18"><a xlink:href="d4/d4a/classactor_1_1_turtle.html" target="_top" xlink:title="actor.Turtle">
<polygon fill="white" stroke="black" points="186.5,-0.5 186.5,-19.5 255.5,-19.5 255.5,-0.5 186.5,-0.5"/>
<text text-anchor="middle" x="221" y="-7.5" font-family="Helvetica,sans-Serif" font-size="10.00">actor.Turtle</text>
</a>
</g>
</g>
<!-- Node17&#45;&gt;Node18 -->
<g id="edge13" class="edge"><title>Node17&#45;&gt;Node18</title>
<path fill="none" stroke="midnightblue" d="M93.871,-13.688C122.826,-12.8413 159.882,-11.7578 186.321,-10.9848"/>
<polygon fill="midnightblue" stroke="midnightblue" points="93.4978,-10.1973 83.6044,-13.9882 93.7025,-17.1943 93.4978,-10.1973"/>
</g>
<!-- Node19 -->
<g id="node19" class="node"><title>Node19</title>
<g id="a_node19"><a xlink:href="de/d19/classworkspace_1_1_workspace.html" target="_top" xlink:title="workspace.Workspace">
<polygon fill="white" stroke="black" points="160.5,-38.5 160.5,-57.5 281.5,-57.5 281.5,-38.5 160.5,-38.5"/>
<text text-anchor="middle" x="221" y="-45.5" font-family="Helvetica,sans-Serif" font-size="10.00">workspace.Workspace</text>
</a>
</g>
</g>
<!-- Node17&#45;&gt;Node19 -->
<g id="edge14" class="edge"><title>Node17&#45;&gt;Node19</title>
<path fill="none" stroke="midnightblue" d="M93.6874,-23.6239C117.275,-28.1759 146.277,-33.7728 170.54,-38.455"/>
<polygon fill="midnightblue" stroke="midnightblue" points="94.0865,-20.1364 83.6044,-21.678 92.76,-27.0096 94.0865,-20.1364"/>
</g>
<!-- Node20 -->
<g id="node20" class="node"><title>Node20</title>
<polygon fill="white" stroke="#bfbfbf" points="18,-52.5 18,-71.5 78,-71.5 78,-52.5 18,-52.5"/>
<text text-anchor="middle" x="48" y="-59.5" font-family="Helvetica,sans-Serif" font-size="10.00">Observer</text>
</g>
<!-- Node20&#45;&gt;Node19 -->
<g id="edge16" class="edge"><title>Node20&#45;&gt;Node19</title>
<path fill="none" stroke="midnightblue" d="M88.0172,-58.8056C109.395,-57.0554 136.342,-54.8492 160.305,-52.8873"/>
<polygon fill="midnightblue" stroke="midnightblue" points="87.6888,-55.3207 78.0078,-59.6251 88.2601,-62.2973 87.6888,-55.3207"/>
</g>
<!-- Node21 -->
<g id="node21" class="node"><title>Node21</title>
<g id="a_node21"><a xlink:href="d3/de0/classmain_application_1_1_g_u_i.html" target="_top" xlink:title="mainApplication.GUI">
<polygon fill="white" stroke="black" points="164.5,-76.5 164.5,-95.5 277.5,-95.5 277.5,-76.5 164.5,-76.5"/>
<text text-anchor="middle" x="221" y="-83.5" font-family="Helvetica,sans-Serif" font-size="10.00">mainApplication.GUI</text>
</a>
</g>
</g>
<!-- Node20&#45;&gt;Node21 -->
<g id="edge15" class="edge"><title>Node20&#45;&gt;Node21</title>
<path fill="none" stroke="midnightblue" d="M88.2014,-67.502C110.71,-70.6611 139.349,-74.6806 164.176,-78.1651"/>
<polygon fill="midnightblue" stroke="midnightblue" points="88.3972,-63.9952 78.0078,-66.0713 87.4243,-70.9273 88.3972,-63.9952"/>
</g>
<!-- Node22 -->
<g id="node22" class="node"><title>Node22</title>
<polygon fill="white" stroke="#bfbfbf" points="28,-109.5 28,-128.5 68,-128.5 68,-109.5 28,-109.5"/>
<text text-anchor="middle" x="48" y="-116.5" font-family="Helvetica,sans-Serif" font-size="10.00">Pane</text>
</g>
<!-- Node22&#45;&gt;Node21 -->
<g id="edge18" class="edge"><title>Node22&#45;&gt;Node21</title>
<path fill="none" stroke="midnightblue" d="M78.3506,-113.336C103.649,-108.454 140.705,-101.303 170.57,-95.5391"/>
<polygon fill="midnightblue" stroke="midnightblue" points="77.4391,-109.947 68.2835,-115.279 78.7655,-116.82 77.4391,-109.947"/>
</g>
<!-- Node23 -->
<g id="node23" class="node"><title>Node23</title>
<g id="a_node23"><a xlink:href="da/d5b/classcomponents_1_1_center_pane.html" target="_top" xlink:title="components.CenterPane">
<polygon fill="white" stroke="black" points="153.5,-114.5 153.5,-133.5 288.5,-133.5 288.5,-114.5 153.5,-114.5"/>
<text text-anchor="middle" x="221" y="-121.5" font-family="Helvetica,sans-Serif" font-size="10.00">components.CenterPane</text>
</a>
</g>
</g>
<!-- Node22&#45;&gt;Node23 -->
<g id="edge17" class="edge"><title>Node22&#45;&gt;Node23</title>
<path fill="none" stroke="midnightblue" d="M78.2833,-119.856C98.8709,-120.458 127.269,-121.289 153.24,-122.048"/>
<polygon fill="midnightblue" stroke="midnightblue" points="78.3815,-116.358 68.2835,-119.564 78.1769,-123.355 78.3815,-116.358"/>
</g>
<!-- Node24 -->
<g id="node24" class="node"><title>Node24</title>
<polygon fill="white" stroke="#bfbfbf" points="26,-256.5 26,-275.5 70,-275.5 70,-256.5 26,-256.5"/>
<text text-anchor="middle" x="48" y="-263.5" font-family="Helvetica,sans-Serif" font-size="10.00">Slider</text>
</g>
<!-- Node25 -->
<g id="node25" class="node"><title>Node25</title>
<g id="a_node25"><a xlink:href="db/d05/classfeatures_1_1_animation_speed_slider_feature.html" target="_top" xlink:title="features.AnimationSpeedSlider\lFeature">
<polygon fill="white" stroke="black" points="138,-229 138,-259 304,-259 304,-229 138,-229"/>
<text text-anchor="start" x="146" y="-247" font-family="Helvetica,sans-Serif" font-size="10.00">features.AnimationSpeedSlider</text>
<text text-anchor="middle" x="221" y="-236" font-family="Helvetica,sans-Serif" font-size="10.00">Feature</text>
</a>
</g>
</g>
<!-- Node24&#45;&gt;Node25 -->
<g id="edge19" class="edge"><title>Node24&#45;&gt;Node25</title>
<path fill="none" stroke="midnightblue" d="M80.3186,-261.971C96.5984,-259.876 117.335,-257.208 137.818,-254.573"/>
<polygon fill="midnightblue" stroke="midnightblue" points="79.7831,-258.511 70.3115,-263.258 80.6764,-265.453 79.7831,-258.511"/>
</g>
<!-- Node26 -->
<g id="node26" class="node"><title>Node26</title>
<g id="a_node26"><a xlink:href="dd/dca/classfeatures_1_1_pen_width_slider_feature.html" target="_top" xlink:title="features.PenWidthSliderFeature">
<polygon fill="white" stroke="black" points="137.5,-278.5 137.5,-297.5 304.5,-297.5 304.5,-278.5 137.5,-278.5"/>
<text text-anchor="middle" x="221" y="-285.5" font-family="Helvetica,sans-Serif" font-size="10.00">features.PenWidthSliderFeature</text>
</a>
</g>
</g>
<!-- Node24&#45;&gt;Node26 -->
<g id="edge20" class="edge"><title>Node24&#45;&gt;Node26</title>
<path fill="none" stroke="midnightblue" d="M80.4568,-270.047C98.8896,-272.419 123.002,-275.521 145.987,-278.478"/>
<polygon fill="midnightblue" stroke="midnightblue" points="80.6764,-266.547 70.3115,-268.742 79.7831,-273.489 80.6764,-266.547"/>
</g>
<!-- Node27 -->
<g id="node27" class="node"><title>Node27</title>
<polygon fill="white" stroke="#bfbfbf" points="32,-190.5 32,-209.5 64,-209.5 64,-190.5 32,-190.5"/>
<text text-anchor="middle" x="48" y="-197.5" font-family="Helvetica,sans-Serif" font-size="10.00">Tab</text>
</g>
<!-- Node28 -->
<g id="node28" class="node"><title>Node28</title>
<g id="a_node28"><a xlink:href="df/df3/classcomponents_1_1_info_tab.html" target="_top" xlink:title="components.InfoTab">
<polygon fill="white" stroke="black" points="164.5,-190.5 164.5,-209.5 277.5,-209.5 277.5,-190.5 164.5,-190.5"/>
<text text-anchor="middle" x="221" y="-197.5" font-family="Helvetica,sans-Serif" font-size="10.00">components.InfoTab</text>
</a>
</g>
</g>
<!-- Node27&#45;&gt;Node28 -->
<g id="edge21" class="edge"><title>Node27&#45;&gt;Node28</title>
<path fill="none" stroke="midnightblue" d="M74.4054,-200C98.0543,-200 134.111,-200 164.424,-200"/>
<polygon fill="midnightblue" stroke="midnightblue" points="74.1751,-196.5 64.1751,-200 74.1751,-203.5 74.1751,-196.5"/>
</g>
<!-- Node29 -->
<g id="node29" class="node"><title>Node29</title>
<g id="a_node29"><a xlink:href="da/d83/classcomponents_1_1_colors_tab.html" target="_top" xlink:title="components.ColorsTab">
<polygon fill="white" stroke="black" points="349.5,-281.5 349.5,-300.5 474.5,-300.5 474.5,-281.5 349.5,-281.5"/>
<text text-anchor="middle" x="412" y="-288.5" font-family="Helvetica,sans-Serif" font-size="10.00">components.ColorsTab</text>
</a>
</g>
</g>
<!-- Node28&#45;&gt;Node29 -->
<g id="edge22" class="edge"><title>Node28&#45;&gt;Node29</title>
<path fill="none" stroke="midnightblue" d="M287.469,-208.216C295.451,-210.891 303.183,-214.402 310,-219 333.608,-234.923 322.978,-255.241 346,-272 351.323,-275.875 357.427,-278.964 363.717,-281.425"/>
<polygon fill="midnightblue" stroke="midnightblue" points="288.233,-204.792 277.652,-205.348 286.27,-211.512 288.233,-204.792"/>
</g>
<!-- Node30 -->
<g id="node30" class="node"><title>Node30</title>
<g id="a_node30"><a xlink:href="d1/dfd/classcomponents_1_1_history_tab.html" target="_top" xlink:title="components.HistoryTab">
<polygon fill="white" stroke="black" points="347.5,-243.5 347.5,-262.5 476.5,-262.5 476.5,-243.5 347.5,-243.5"/>
<text text-anchor="middle" x="412" y="-250.5" font-family="Helvetica,sans-Serif" font-size="10.00">components.HistoryTab</text>
</a>
</g>
</g>
<!-- Node28&#45;&gt;Node30 -->
<g id="edge23" class="edge"><title>Node28&#45;&gt;Node30</title>
<path fill="none" stroke="midnightblue" d="M283.942,-211.883C292.756,-214.005 301.656,-216.385 310,-219 326.54,-224.184 329.657,-228.226 346,-234 355.534,-237.368 365.997,-240.617 375.69,-243.448"/>
<polygon fill="midnightblue" stroke="midnightblue" points="284.593,-208.442 274.061,-209.598 283.015,-215.261 284.593,-208.442"/>
</g>
<!-- Node31 -->
<g id="node31" class="node"><title>Node31</title>
<g id="a_node31"><a xlink:href="dc/db7/classcomponents_1_1_images_tab.html" target="_top" xlink:title="components.ImagesTab">
<polygon fill="white" stroke="black" points="346.5,-205.5 346.5,-224.5 477.5,-224.5 477.5,-205.5 346.5,-205.5"/>
<text text-anchor="middle" x="412" y="-212.5" font-family="Helvetica,sans-Serif" font-size="10.00">components.ImagesTab</text>
</a>
</g>
</g>
<!-- Node28&#45;&gt;Node31 -->
<g id="edge24" class="edge"><title>Node28&#45;&gt;Node31</title>
<path fill="none" stroke="midnightblue" d="M287.744,-205.218C306.749,-206.726 327.469,-208.371 346.403,-209.873"/>
<polygon fill="midnightblue" stroke="midnightblue" points="287.93,-201.722 277.684,-204.419 287.376,-208.7 287.93,-201.722"/>
</g>
<!-- Node32 -->
<g id="node32" class="node"><title>Node32</title>
<g id="a_node32"><a xlink:href="d1/de7/classcomponents_1_1_saved_tab.html" target="_top" xlink:title="components.SavedTab">
<polygon fill="white" stroke="black" points="349.5,-167.5 349.5,-186.5 474.5,-186.5 474.5,-167.5 349.5,-167.5"/>
<text text-anchor="middle" x="412" y="-174.5" font-family="Helvetica,sans-Serif" font-size="10.00">components.SavedTab</text>
</a>
</g>
</g>
<!-- Node28&#45;&gt;Node32 -->
<g id="edge25" class="edge"><title>Node28&#45;&gt;Node32</title>
<path fill="none" stroke="midnightblue" d="M287.661,-192.01C307.707,-189.57 329.668,-186.897 349.433,-184.492"/>
<polygon fill="midnightblue" stroke="midnightblue" points="287.188,-188.541 277.684,-193.224 288.034,-195.49 287.188,-188.541"/>
</g>
<!-- Node33 -->
<g id="node33" class="node"><title>Node33</title>
<g id="a_node33"><a xlink:href="d6/d82/classcomponents_1_1_turtles_tab.html" target="_top" xlink:title="components.TurtlesTab">
<polygon fill="white" stroke="black" points="349,-129.5 349,-148.5 475,-148.5 475,-129.5 349,-129.5"/>
<text text-anchor="middle" x="412" y="-136.5" font-family="Helvetica,sans-Serif" font-size="10.00">components.TurtlesTab</text>
</a>
</g>
</g>
<!-- Node28&#45;&gt;Node33 -->
<g id="edge26" class="edge"><title>Node28&#45;&gt;Node33</title>
<path fill="none" stroke="midnightblue" d="M287.569,-188.57C295.256,-186.434 302.887,-183.929 310,-181 327.557,-173.771 328.714,-165.854 346,-158 354.028,-154.353 362.931,-151.212 371.507,-148.593"/>
<polygon fill="midnightblue" stroke="midnightblue" points="286.645,-185.193 277.838,-191.082 288.395,-191.971 286.645,-185.193"/>
</g>
<!-- Node34 -->
<g id="node34" class="node"><title>Node34</title>
<g id="a_node34"><a xlink:href="d4/d3f/classcomponents_1_1_vars_tab.html" target="_top" xlink:title="components.VarsTab">
<polygon fill="white" stroke="black" points="354,-91.5 354,-110.5 470,-110.5 470,-91.5 354,-91.5"/>
<text text-anchor="middle" x="412" y="-98.5" font-family="Helvetica,sans-Serif" font-size="10.00">components.VarsTab</text>
</a>
</g>
</g>
<!-- Node28&#45;&gt;Node34 -->
<g id="edge27" class="edge"><title>Node28&#45;&gt;Node34</title>
<path fill="none" stroke="midnightblue" d="M287.164,-192.391C295.311,-189.627 303.168,-185.931 310,-181 335.527,-162.577 321.15,-139.326 346,-120 351.012,-116.102 356.801,-113.004 362.817,-110.54"/>
<polygon fill="midnightblue" stroke="midnightblue" points="286.12,-189.05 277.511,-195.225 288.092,-195.766 286.12,-189.05"/>
</g>
<!-- Node35 -->
<g id="node35" class="node"><title>Node35</title>
<g id="a_node35"><a xlink:href="d2/dfc/interfacefeatures_1_1_feature.html" target="_top" xlink:title="features.Feature">
<polygon fill="white" stroke="black" points="0.5,-411.5 0.5,-430.5 95.5,-430.5 95.5,-411.5 0.5,-411.5"/>
<text text-anchor="middle" x="48" y="-418.5" font-family="Helvetica,sans-Serif" font-size="10.00">features.Feature</text>
</a>
</g>
</g>
<!-- Node35&#45;&gt;Node2 -->
<g id="edge34" class="edge"><title>Node35&#45;&gt;Node2</title>
<path fill="none" stroke="midnightblue" d="M64.8482,-438.734C75.2675,-451.341 88.3443,-469.142 96,-487 129.177,-564.389 73.1033,-612.826 132,-673 135.717,-676.798 139.999,-679.922 144.63,-682.484"/>
<polygon fill="midnightblue" stroke="midnightblue" points="67.3138,-436.232 58.1586,-430.899 61.9902,-440.777 67.3138,-436.232"/>
</g>
<!-- Node35&#45;&gt;Node3 -->
<g id="edge40" class="edge"><title>Node35&#45;&gt;Node3</title>
<path fill="none" stroke="midnightblue" d="M64.2092,-438.412C74.5593,-451.099 87.8141,-469.127 96,-487 124.009,-548.155 84.0418,-586.836 132,-634 136.692,-638.614 142.213,-642.252 148.164,-645.111"/>
<polygon fill="midnightblue" stroke="midnightblue" points="66.7173,-435.956 57.6059,-430.549 61.3569,-440.458 66.7173,-435.956"/>
</g>
<!-- Node35&#45;&gt;Node5 -->
<g id="edge41" class="edge"><title>Node35&#45;&gt;Node5</title>
<path fill="none" stroke="midnightblue" d="M63.599,-438.713C73.6634,-451.54 86.8277,-469.613 96,-487 117.65,-528.041 97.9784,-553.447 132,-585 137.357,-589.968 143.63,-593.958 150.317,-597.161"/>
<polygon fill="midnightblue" stroke="midnightblue" points="66.1977,-436.358 57.2137,-430.743 60.7347,-440.735 66.1977,-436.358"/>
</g>
<!-- Node35&#45;&gt;Node7 -->
<g id="edge36" class="edge"><title>Node35&#45;&gt;Node7</title>
<path fill="none" stroke="midnightblue" d="M62.279,-438.839C71.9121,-451.971 85.1079,-470.361 96,-487 113.033,-513.019 106.717,-528.893 132,-547 137.337,-550.822 143.291,-553.902 149.517,-556.379"/>
<polygon fill="midnightblue" stroke="midnightblue" points="65.0061,-436.64 56.2511,-430.673 59.3744,-440.797 65.0061,-436.64"/>
</g>
<!-- Node35&#45;&gt;Node9 -->
<g id="edge37" class="edge"><title>Node35&#45;&gt;Node9</title>
<path fill="none" stroke="midnightblue" d="M61.0313,-438.863C75.4831,-458.873 101.614,-490.755 132,-508 139.631,-512.331 148.134,-515.723 156.762,-518.382"/>
<polygon fill="midnightblue" stroke="midnightblue" points="63.8455,-436.78 55.2397,-430.6 58.1133,-440.798 63.8455,-436.78"/>
</g>
<!-- Node35&#45;&gt;Node10 -->
<g id="edge38" class="edge"><title>Node35&#45;&gt;Node10</title>
<path fill="none" stroke="midnightblue" d="M81.6368,-434.412C96.8715,-440.56 115.292,-447.835 132,-454 145.629,-459.029 160.551,-464.23 174.173,-468.86"/>
<polygon fill="midnightblue" stroke="midnightblue" points="82.7178,-431.073 72.1356,-430.557 80.0862,-437.56 82.7178,-431.073"/>
</g>
<!-- Node35&#45;&gt;Node12 -->
<g id="edge29" class="edge"><title>Node35&#45;&gt;Node12</title>
<path fill="none" stroke="midnightblue" d="M63.1033,-403.52C78.2524,-385.963 103.958,-359.493 132,-345 140.886,-340.407 150.83,-336.923 160.746,-334.281"/>
<polygon fill="midnightblue" stroke="midnightblue" points="60.296,-401.421 56.5505,-411.332 65.6589,-405.92 60.296,-401.421"/>
</g>
<!-- Node35&#45;&gt;Node13 -->
<g id="edge31" class="edge"><title>Node35&#45;&gt;Node13</title>
<path fill="none" stroke="midnightblue" d="M106.083,-416.257C159.433,-410.988 240.994,-400.783 310,-383 338.301,-375.707 369.616,-363.191 389.761,-354.526"/>
<polygon fill="midnightblue" stroke="midnightblue" points="105.42,-412.805 95.8014,-417.246 106.091,-419.772 105.42,-412.805"/>
</g>
<!-- Node35&#45;&gt;Node14 -->
<g id="edge32" class="edge"><title>Node35&#45;&gt;Node14</title>
<path fill="none" stroke="midnightblue" d="M105.777,-421C171.633,-421 279.878,-421 348.198,-421"/>
<polygon fill="midnightblue" stroke="midnightblue" points="105.584,-417.5 95.5841,-421 105.584,-424.5 105.584,-417.5"/>
</g>
<!-- Node35&#45;&gt;Node15 -->
<g id="edge33" class="edge"><title>Node35&#45;&gt;Node15</title>
<path fill="none" stroke="midnightblue" d="M80.4964,-407.511C95.8777,-401.173 114.747,-393.762 132,-388 147.921,-382.682 165.745,-377.654 181.166,-373.586"/>
<polygon fill="midnightblue" stroke="midnightblue" points="78.8277,-404.415 70.9444,-411.493 81.5213,-410.876 78.8277,-404.415"/>
</g>
<!-- Node35&#45;&gt;Node23 -->
<g id="edge28" class="edge"><title>Node35&#45;&gt;Node23</title>
<path fill="none" stroke="midnightblue" d="M62.7889,-403.107C73.4899,-388.32 87.8349,-366.361 96,-345 128.56,-259.819 68.6975,-208.642 132,-143 137.967,-136.812 145.432,-132.406 153.476,-129.302"/>
<polygon fill="midnightblue" stroke="midnightblue" points="59.8425,-401.204 56.6848,-411.317 65.4601,-405.38 59.8425,-401.204"/>
</g>
<!-- Node35&#45;&gt;Node25 -->
<g id="edge35" class="edge"><title>Node35&#45;&gt;Node25</title>
<path fill="none" stroke="midnightblue" d="M60.9683,-402.929C70.8345,-387.74 84.9515,-365.315 96,-345 113.857,-312.166 103.476,-293.153 132,-269 136.606,-265.1 141.783,-261.807 147.261,-259.026"/>
<polygon fill="midnightblue" stroke="midnightblue" points="57.9919,-401.086 55.4399,-411.369 63.8474,-404.921 57.9919,-401.086"/>
</g>
<!-- Node35&#45;&gt;Node26 -->
<g id="edge39" class="edge"><title>Node35&#45;&gt;Node26</title>
<path fill="none" stroke="midnightblue" d="M60.2095,-402.445C78.0981,-373.433 113.013,-319.36 132,-307 137.894,-303.163 144.436,-300.088 151.214,-297.625"/>
<polygon fill="midnightblue" stroke="midnightblue" points="57.0711,-400.869 54.8433,-411.227 63.0442,-404.519 57.0711,-400.869"/>
</g>
<!-- Node35&#45;&gt;Node28 -->
<g id="edge30" class="edge"><title>Node35&#45;&gt;Node28</title>
<path fill="none" stroke="midnightblue" d="M62.2072,-402.867C72.5756,-387.944 86.7573,-365.917 96,-345 119.54,-291.728 89.488,-258.809 132,-219 140.899,-210.667 152.544,-205.648 164.437,-202.697"/>
<polygon fill="midnightblue" stroke="midnightblue" points="59.2508,-400.986 56.3224,-411.168 64.9613,-405.034 59.2508,-400.986"/>
</g>
</g>
</svg>
