<?xml version="1.0" encoding="UTF-8" standalone="no"?>
<!DOCTYPE svg PUBLIC "-//W3C//DTD SVG 1.1//EN"
 "http://www.w3.org/Graphics/SVG/1.1/DTD/svg11.dtd">
<!-- Generated by graphviz version 2.36.0 (20140111.2315)
 -->
<!-- Title: components.ImagesTab Pages: 1 -->
<!--zoomable 361 -->
<svg id="main" version="1.1" xmlns="http://www.w3.org/2000/svg" xmlns:xlink="http://www.w3.org/1999/xlink" xml:space="preserve" onload="init(evt)">
<style type="text/css"><![CDATA[
.edge:hover path { stroke: red; }
.edge:hover polygon { stroke: red; fill: red; }
]]></style>
<script type="text/javascript"><![CDATA[
var edges = document.getElementsByTagName('g');
if (edges && edges.length) {
  for (var i=0;i<edges.length;i++) {
    if (edges[i].id.substr(0,4)=='edge') {
      edges[i].setAttribute('class','edge');
    }
  }
}
]]></script>
        <defs>
                <circle id="rim" cx="0" cy="0" r="7"/>
                <circle id="rim2" cx="0" cy="0" r="3.5"/>
                <g id="zoomPlus">
                        <use xlink:href="#rim" fill="#404040">
                                <set attributeName="fill" to="#808080" begin="zoomplus.mouseover" end="zoomplus.mouseout"/>
                        </use>
                        <path d="M-4,0h8M0,-4v8" fill="none" stroke="white" stroke-width="1.5" pointer-events="none"/>
                </g>
                <g id="zoomMin">
                        <use xlink:href="#rim" fill="#404040">
                                <set attributeName="fill" to="#808080" begin="zoomminus.mouseover" end="zoomminus.mouseout"/>
                        </use>
                        <path d="M-4,0h8" fill="none" stroke="white" stroke-width="1.5" pointer-events="none"/>
                </g>
                <g id="dirArrow">
                        <path fill="none" stroke="white" stroke-width="1.5" d="M0,-3.0v7 M-2.5,-0.5L0,-3.0L2.5,-0.5"/>
                </g>
               <g id="resetDef">
                       <use xlink:href="#rim2" fill="#404040">
                               <set attributeName="fill" to="#808080" begin="reset.mouseover" end="reset.mouseout"/>
                       </use>
               </g>
        </defs>

<script type="text/javascript">
var viewWidth = 1200;
var viewHeight = 361;
var sectionId = 'dynsection-1';
</script>
<script xlink:href="../../svgpan.js"/>
<svg id="graph" class="graph">
<g id="viewport">
<title>components.ImagesTab</title>
<polygon fill="white" stroke="none" points="-4,4 -4,-357 1196,-357 1196,4 -4,4"/>
<!-- Node1 -->
<g id="node1" class="node"><title>Node1</title>
<polygon fill="#bfbfbf" stroke="black" points="1060.5,-218.5 1060.5,-237.5 1191.5,-237.5 1191.5,-218.5 1060.5,-218.5"/>
<text text-anchor="middle" x="1126" y="-225.5" font-family="Helvetica,sans-Serif" font-size="10.00">components.ImagesTab</text>
</g>
<!-- Node2 -->
<g id="node2" class="node"><title>Node2</title>
<g id="a_node2"><a xlink:href="../../df/df3/classcomponents_1_1_info_tab.html" target="_top" xlink:title="components.InfoTab">
<polygon fill="white" stroke="black" points="837.5,-240.5 837.5,-259.5 950.5,-259.5 950.5,-240.5 837.5,-240.5"/>
<text text-anchor="middle" x="894" y="-247.5" font-family="Helvetica,sans-Serif" font-size="10.00">components.InfoTab</text>
</a>
</g>
</g>
<!-- Node2&#45;&gt;Node1 -->
<g id="edge1" class="edge"><title>Node2&#45;&gt;Node1</title>
<path fill="none" stroke="midnightblue" d="M961.025,-243.685C992.261,-240.697 1029.43,-237.142 1060.47,-234.173"/>
<polygon fill="midnightblue" stroke="midnightblue" points="960.298,-240.238 950.677,-244.674 960.964,-247.206 960.298,-240.238"/>
</g>
<!-- Node3 -->
<g id="node3" class="node"><title>Node3</title>
<polygon fill="white" stroke="#bfbfbf" points="626,-333.5 626,-352.5 658,-352.5 658,-333.5 626,-333.5"/>
<text text-anchor="middle" x="642" y="-340.5" font-family="Helvetica,sans-Serif" font-size="10.00">Tab</text>
</g>
<!-- Node3&#45;&gt;Node2 -->
<g id="edge2" class="edge"><title>Node3&#45;&gt;Node2</title>
<path fill="none" stroke="midnightblue" d="M668.083,-336.567C681.706,-333.003 698.821,-328.412 714,-324 752.47,-312.819 762.887,-312.085 800,-297 827.485,-285.828 857.922,-269.681 876.249,-259.519"/>
<polygon fill="midnightblue" stroke="midnightblue" points="666.811,-333.281 658.011,-339.182 668.57,-340.057 666.811,-333.281"/>
</g>
<!-- Node4 -->
<g id="node4" class="node"><title>Node4</title>
<g id="a_node4"><a xlink:href="../../d2/dfc/interfacefeatures_1_1_feature.html" target="_top" xlink:title="features.Feature">
<polygon fill="white" stroke="black" points="594.5,-295.5 594.5,-314.5 689.5,-314.5 689.5,-295.5 594.5,-295.5"/>
<text text-anchor="middle" x="642" y="-302.5" font-family="Helvetica,sans-Serif" font-size="10.00">features.Feature</text>
</a>
</g>
</g>
<!-- Node4&#45;&gt;Node2 -->
<g id="edge3" class="edge"><title>Node4&#45;&gt;Node2</title>
<path fill="none" stroke="midnightblue" d="M699.469,-295.835C729.467,-290.648 766.884,-283.671 800,-276 820.579,-271.233 843.43,-264.86 861.331,-259.617"/>
<polygon fill="midnightblue" stroke="midnightblue" points="698.864,-292.387 689.597,-297.524 700.044,-299.287 698.864,-292.387"/>
</g>
<!-- Node5 -->
<g id="node5" class="node"><title>Node5</title>
<polygon fill="white" stroke="#bfbfbf" points="621.5,-257.5 621.5,-276.5 662.5,-276.5 662.5,-257.5 621.5,-257.5"/>
<text text-anchor="middle" x="642" y="-264.5" font-family="Helvetica,sans-Serif" font-size="10.00">VBox</text>
</g>
<!-- Node5&#45;&gt;Node2 -->
<g id="edge4" class="edge"><title>Node5&#45;&gt;Node2</title>
<path fill="none" stroke="#9a32cd" stroke-dasharray="5,2" d="M672.648,-264.984C713.153,-262.23 786.557,-257.238 837.454,-253.777"/>
<polygon fill="#9a32cd" stroke="#9a32cd" points="672.357,-261.496 662.617,-265.666 672.832,-268.479 672.357,-261.496"/>
<text text-anchor="middle" x="766" y="-264" font-family="Helvetica,sans-Serif" font-size="10.00"> myDrawer</text>
</g>
<!-- Node6 -->
<g id="node6" class="node"><title>Node6</title>
<g id="a_node6"><a xlink:href="../../d7/da1/classmain_application_1_1_controller.html" target="_top" xlink:title="mainApplication.Controller">
<polygon fill="white" stroke="black" points="570.5,-219.5 570.5,-238.5 713.5,-238.5 713.5,-219.5 570.5,-219.5"/>
<text text-anchor="middle" x="642" y="-226.5" font-family="Helvetica,sans-Serif" font-size="10.00">mainApplication.Controller</text>
</a>
</g>
</g>
<!-- Node6&#45;&gt;Node2 -->
<g id="edge5" class="edge"><title>Node6&#45;&gt;Node2</title>
<path fill="none" stroke="#9a32cd" stroke-dasharray="5,2" d="M723.708,-235.633C748.212,-237.66 775.209,-239.907 800,-242 812.111,-243.022 825.108,-244.132 837.432,-245.191"/>
<polygon fill="#9a32cd" stroke="#9a32cd" points="723.988,-232.144 713.734,-234.809 723.412,-239.121 723.988,-232.144"/>
<text text-anchor="middle" x="766" y="-245" font-family="Helvetica,sans-Serif" font-size="10.00"> myController</text>
</g>
<!-- Node7 -->
<g id="node7" class="node"><title>Node7</title>
<g id="a_node7"><a xlink:href="../../d6/d95/classparser_1_1_parser.html" target="_top" xlink:title="parser.Parser">
<polygon fill="white" stroke="black" points="338,-278.5 338,-297.5 418,-297.5 418,-278.5 338,-278.5"/>
<text text-anchor="middle" x="378" y="-285.5" font-family="Helvetica,sans-Serif" font-size="10.00">parser.Parser</text>
</a>
</g>
</g>
<!-- Node7&#45;&gt;Node6 -->
<g id="edge6" class="edge"><title>Node7&#45;&gt;Node6</title>
<path fill="none" stroke="#9a32cd" stroke-dasharray="5,2" d="M427.982,-276.97C477.051,-265.92 551.804,-249.086 598.46,-238.58"/>
<polygon fill="#9a32cd" stroke="#9a32cd" points="427.211,-273.556 418.224,-279.167 428.749,-280.385 427.211,-273.556"/>
<text text-anchor="middle" x="514" y="-269" font-family="Helvetica,sans-Serif" font-size="10.00"> myParser</text>
</g>
<!-- Node8 -->
<g id="node8" class="node"><title>Node8</title>
<polygon fill="white" stroke="#bfbfbf" points="36.5,-316.5 36.5,-335.5 129.5,-335.5 129.5,-316.5 36.5,-316.5"/>
<text text-anchor="middle" x="83" y="-323.5" font-family="Helvetica,sans-Serif" font-size="10.00">ResourceBundle</text>
</g>
<!-- Node8&#45;&gt;Node7 -->
<g id="edge7" class="edge"><title>Node8&#45;&gt;Node7</title>
<path fill="none" stroke="#9a32cd" stroke-dasharray="5,2" d="M139.767,-320.006C179.027,-315.651 232.786,-309.419 280,-303 299.08,-300.406 320.216,-297.18 337.874,-294.384"/>
<polygon fill="#9a32cd" stroke="#9a32cd" points="139.16,-316.551 129.604,-321.127 139.928,-323.509 139.16,-316.551"/>
<text text-anchor="middle" x="232" y="-329" font-family="Helvetica,sans-Serif" font-size="10.00"> myCommands</text>
<text text-anchor="middle" x="232" y="-318" font-family="Helvetica,sans-Serif" font-size="10.00">myLanguage</text>
</g>
<!-- Node9 -->
<g id="node9" class="node"><title>Node9</title>
<polygon fill="white" stroke="#bfbfbf" points="26,-278.5 26,-297.5 140,-297.5 140,-278.5 26,-278.5"/>
<text text-anchor="middle" x="83" y="-285.5" font-family="Helvetica,sans-Serif" font-size="10.00">List&lt; parser.Node &gt;</text>
</g>
<!-- Node9&#45;&gt;Node7 -->
<g id="edge8" class="edge"><title>Node9&#45;&gt;Node7</title>
<path fill="none" stroke="#9a32cd" stroke-dasharray="5,2" d="M150.287,-288C208.096,-288 289.998,-288 337.901,-288"/>
<polygon fill="#9a32cd" stroke="#9a32cd" points="150.147,-284.5 140.147,-288 150.147,-291.5 150.147,-284.5"/>
<text text-anchor="middle" x="232" y="-291" font-family="Helvetica,sans-Serif" font-size="10.00"> myTreeHeads</text>
</g>
<!-- Node10 -->
<g id="node10" class="node"><title>Node10</title>
<polygon fill="white" stroke="#bfbfbf" points="298,-219.5 298,-238.5 458,-238.5 458,-219.5 298,-219.5"/>
<text text-anchor="middle" x="378" y="-226.5" font-family="Helvetica,sans-Serif" font-size="10.00">List&lt; workspace.Workspace &gt;</text>
</g>
<!-- Node10&#45;&gt;Node6 -->
<g id="edge9" class="edge"><title>Node10&#45;&gt;Node6</title>
<path fill="none" stroke="#9a32cd" stroke-dasharray="5,2" d="M468.509,-229C501.787,-229 539.05,-229 570.402,-229"/>
<polygon fill="#9a32cd" stroke="#9a32cd" points="468.32,-225.5 458.32,-229 468.32,-232.5 468.32,-225.5"/>
<text text-anchor="middle" x="514" y="-232" font-family="Helvetica,sans-Serif" font-size="10.00"> myWorkspaces</text>
</g>
<!-- Node11 -->
<g id="node11" class="node"><title>Node11</title>
<g id="a_node11"><a xlink:href="../../de/d19/classworkspace_1_1_workspace.html" target="_top" xlink:title="workspace.Workspace">
<polygon fill="white" stroke="black" points="317.5,-131.5 317.5,-150.5 438.5,-150.5 438.5,-131.5 317.5,-131.5"/>
<text text-anchor="middle" x="378" y="-138.5" font-family="Helvetica,sans-Serif" font-size="10.00">workspace.Workspace</text>
</a>
</g>
</g>
<!-- Node11&#45;&gt;Node6 -->
<g id="edge10" class="edge"><title>Node11&#45;&gt;Node6</title>
<path fill="none" stroke="#9a32cd" stroke-dasharray="5,2" d="M413.043,-154.293C451.014,-168.886 514.416,-192.557 570,-210 580.592,-213.324 592.185,-216.583 602.875,-219.437"/>
<polygon fill="#9a32cd" stroke="#9a32cd" points="414.086,-150.944 403.496,-150.609 411.566,-157.474 414.086,-150.944"/>
<text text-anchor="middle" x="514" y="-207" font-family="Helvetica,sans-Serif" font-size="10.00"> myActiveWS</text>
</g>
<!-- Node12 -->
<g id="node12" class="node"><title>Node12</title>
<polygon fill="white" stroke="#bfbfbf" points="47.5,-240.5 47.5,-259.5 118.5,-259.5 118.5,-240.5 47.5,-240.5"/>
<text text-anchor="middle" x="83" y="-247.5" font-family="Helvetica,sans-Serif" font-size="10.00">Observable</text>
</g>
<!-- Node12&#45;&gt;Node11 -->
<g id="edge11" class="edge"><title>Node12&#45;&gt;Node11</title>
<path fill="none" stroke="midnightblue" d="M128.644,-239.768C140.771,-236.958 153.896,-233.889 166,-231 216.747,-218.889 232.044,-223.547 280,-203 312.884,-188.911 347.206,-164.212 364.878,-150.629"/>
<polygon fill="midnightblue" stroke="midnightblue" points="127.691,-236.396 118.736,-242.058 129.267,-243.216 127.691,-236.396"/>
</g>
<!-- Node13 -->
<g id="node13" class="node"><title>Node13</title>
<polygon fill="white" stroke="#bfbfbf" points="53,-202.5 53,-221.5 113,-221.5 113,-202.5 53,-202.5"/>
<text text-anchor="middle" x="83" y="-209.5" font-family="Helvetica,sans-Serif" font-size="10.00">Observer</text>
</g>
<!-- Node13&#45;&gt;Node11 -->
<g id="edge12" class="edge"><title>Node13&#45;&gt;Node11</title>
<path fill="none" stroke="midnightblue" d="M123.398,-207.435C163.328,-202.281 226.654,-192.654 280,-178 306.591,-170.695 336.045,-158.906 355.442,-150.602"/>
<polygon fill="midnightblue" stroke="midnightblue" points="122.761,-203.987 113.277,-208.71 123.636,-210.933 122.761,-203.987"/>
</g>
<!-- Node14 -->
<g id="node14" class="node"><title>Node14</title>
<polygon fill="white" stroke="#bfbfbf" points="21,-164.5 21,-183.5 145,-183.5 145,-164.5 21,-164.5"/>
<text text-anchor="middle" x="83" y="-171.5" font-family="Helvetica,sans-Serif" font-size="10.00">Map&lt; Integer, Color &gt;</text>
</g>
<!-- Node14&#45;&gt;Node11 -->
<g id="edge13" class="edge"><title>Node14&#45;&gt;Node11</title>
<path fill="none" stroke="#9a32cd" stroke-dasharray="5,2" d="M155.579,-165.985C192.704,-161.824 238.79,-156.649 280,-152 292.126,-150.632 305.104,-149.163 317.495,-147.759"/>
<polygon fill="#9a32cd" stroke="#9a32cd" points="154.905,-162.539 145.357,-167.131 155.685,-169.495 154.905,-162.539"/>
<text text-anchor="middle" x="232" y="-166" font-family="Helvetica,sans-Serif" font-size="10.00"> myColors</text>
</g>
<!-- Node15 -->
<g id="node15" class="node"><title>Node15</title>
<polygon fill="white" stroke="#bfbfbf" points="0,-115 0,-145 166,-145 166,-115 0,-115"/>
<text text-anchor="start" x="8" y="-133" font-family="Helvetica,sans-Serif" font-size="10.00">Map&lt; String, parser.Command</text>
<text text-anchor="middle" x="83" y="-122" font-family="Helvetica,sans-Serif" font-size="10.00">Object &gt;</text>
</g>
<!-- Node15&#45;&gt;Node11 -->
<g id="edge14" class="edge"><title>Node15&#45;&gt;Node11</title>
<path fill="none" stroke="#9a32cd" stroke-dasharray="5,2" d="M176.02,-133.455C222.168,-135.187 276.726,-137.235 317.346,-138.76"/>
<polygon fill="#9a32cd" stroke="#9a32cd" points="176.131,-129.956 166.006,-133.079 175.868,-136.952 176.131,-129.956"/>
<text text-anchor="middle" x="232" y="-141" font-family="Helvetica,sans-Serif" font-size="10.00"> myCommands</text>
</g>
<!-- Node16 -->
<g id="node16" class="node"><title>Node16</title>
<g id="a_node16"><a xlink:href="../../de/d1c/classproperties_1_1_stage_properties.html" target="_top" xlink:title="properties.StageProperties">
<polygon fill="white" stroke="black" points="10,-76.5 10,-95.5 156,-95.5 156,-76.5 10,-76.5"/>
<text text-anchor="middle" x="83" y="-83.5" font-family="Helvetica,sans-Serif" font-size="10.00">properties.StageProperties</text>
</a>
</g>
</g>
<!-- Node16&#45;&gt;Node11 -->
<g id="edge15" class="edge"><title>Node16&#45;&gt;Node11</title>
<path fill="none" stroke="#9a32cd" stroke-dasharray="5,2" d="M156.174,-97.1565C193.272,-103.143 239.154,-110.936 280,-119 298.804,-122.712 319.538,-127.342 336.993,-131.395"/>
<polygon fill="#9a32cd" stroke="#9a32cd" points="156.383,-93.6454 145.955,-95.5173 155.274,-100.557 156.383,-93.6454"/>
<text text-anchor="middle" x="232" y="-122" font-family="Helvetica,sans-Serif" font-size="10.00"> myStageProperties</text>
</g>
<!-- Node17 -->
<g id="node17" class="node"><title>Node17</title>
<polygon fill="white" stroke="#bfbfbf" points="19,-38.5 19,-57.5 147,-57.5 147,-38.5 19,-38.5"/>
<text text-anchor="middle" x="83" y="-45.5" font-family="Helvetica,sans-Serif" font-size="10.00">Map&lt; String, Double &gt;</text>
</g>
<!-- Node17&#45;&gt;Node11 -->
<g id="edge16" class="edge"><title>Node17&#45;&gt;Node11</title>
<path fill="none" stroke="#9a32cd" stroke-dasharray="5,2" d="M157.426,-57.6481C194.851,-63.8929 240.648,-73.6043 280,-88 311.178,-99.4054 344.515,-119.6 362.855,-131.496"/>
<polygon fill="#9a32cd" stroke="#9a32cd" points="157.536,-54.1204 147.105,-55.9777 156.417,-61.0304 157.536,-54.1204"/>
<text text-anchor="middle" x="232" y="-91" font-family="Helvetica,sans-Serif" font-size="10.00"> myVariables</text>
</g>
<!-- Node18 -->
<g id="node18" class="node"><title>Node18</title>
<polygon fill="white" stroke="#bfbfbf" points="7,-0.5 7,-19.5 159,-19.5 159,-0.5 7,-0.5"/>
<text text-anchor="middle" x="83" y="-7.5" font-family="Helvetica,sans-Serif" font-size="10.00">Map&lt; Integer, actor.Turtle &gt;</text>
</g>
<!-- Node18&#45;&gt;Node11 -->
<g id="edge17" class="edge"><title>Node18&#45;&gt;Node11</title>
<path fill="none" stroke="#9a32cd" stroke-dasharray="5,2" d="M169.36,-15.8499C205.088,-20.9568 246.1,-30.4407 280,-48 320.396,-68.9241 355.532,-111.932 369.983,-131.239"/>
<polygon fill="#9a32cd" stroke="#9a32cd" points="169.809,-12.3788 159.433,-14.5225 168.881,-19.3171 169.809,-12.3788"/>
<text text-anchor="middle" x="232" y="-51" font-family="Helvetica,sans-Serif" font-size="10.00"> myTurtles</text>
</g>
<!-- Node19 -->
<g id="node19" class="node"><title>Node19</title>
<polygon fill="white" stroke="#bfbfbf" points="609,-181.5 609,-200.5 675,-200.5 675,-181.5 609,-181.5"/>
<text text-anchor="middle" x="642" y="-188.5" font-family="Helvetica,sans-Serif" font-size="10.00">ScrollPane</text>
</g>
<!-- Node19&#45;&gt;Node2 -->
<g id="edge18" class="edge"><title>Node19&#45;&gt;Node2</title>
<path fill="none" stroke="#9a32cd" stroke-dasharray="5,2" d="M685.17,-196.187C717.246,-200.88 762.162,-209.069 800,-222 808.464,-224.892 809.616,-227.884 818,-231 827.695,-234.604 838.343,-237.758 848.493,-240.408"/>
<polygon fill="#9a32cd" stroke="#9a32cd" points="685.623,-192.717 675.232,-194.785 684.645,-199.648 685.623,-192.717"/>
<text text-anchor="middle" x="766" y="-225" font-family="Helvetica,sans-Serif" font-size="10.00"> myScrollPane</text>
</g>
<!-- Node20 -->
<g id="node20" class="node"><title>Node20</title>
<polygon fill="white" stroke="#bfbfbf" points="612.5,-143.5 612.5,-162.5 671.5,-162.5 671.5,-143.5 612.5,-143.5"/>
<text text-anchor="middle" x="642" y="-150.5" font-family="Helvetica,sans-Serif" font-size="10.00">GridPane</text>
</g>
<!-- Node20&#45;&gt;Node2 -->
<g id="edge19" class="edge"><title>Node20&#45;&gt;Node2</title>
<path fill="none" stroke="#9a32cd" stroke-dasharray="5,2" d="M681.779,-152.781C716.439,-154.57 766.746,-162.315 800,-190 815.294,-202.733 802.812,-218.14 818,-231 823.638,-235.774 830.315,-239.374 837.325,-242.083"/>
<polygon fill="#9a32cd" stroke="#9a32cd" points="681.684,-149.275 671.561,-152.402 681.424,-156.271 681.684,-149.275"/>
<text text-anchor="middle" x="766" y="-193" font-family="Helvetica,sans-Serif" font-size="10.00"> myTextPane</text>
</g>
<!-- Node21 -->
<g id="node21" class="node"><title>Node21</title>
<polygon fill="white" stroke="#bfbfbf" points="818.5,-202.5 818.5,-221.5 969.5,-221.5 969.5,-202.5 818.5,-202.5"/>
<text text-anchor="middle" x="894" y="-209.5" font-family="Helvetica,sans-Serif" font-size="10.00">Map&lt; Integer, ImageView &gt;</text>
</g>
<!-- Node21&#45;&gt;Node1 -->
<g id="edge20" class="edge"><title>Node21&#45;&gt;Node1</title>
<path fill="none" stroke="#9a32cd" stroke-dasharray="5,2" d="M980.014,-215.173C1000.34,-216.174 1021.95,-217.437 1042,-219 1047.92,-219.462 1054.08,-220.007 1060.24,-220.596"/>
<polygon fill="#9a32cd" stroke="#9a32cd" points="979.993,-211.668 969.837,-214.688 979.66,-218.66 979.993,-211.668"/>
<text text-anchor="middle" x="1015" y="-222" font-family="Helvetica,sans-Serif" font-size="10.00"> myImages</text>
</g>
</g>
</svg>
        <g id="navigator" transform="translate(0 0)" fill="#404254">
                <rect fill="#f2f5e9" fill-opacity="0.5" stroke="#606060" stroke-width=".5" x="0" y="0" width="60" height="60"/>
                <use id="zoomplus" xlink:href="#zoomPlus" x="17" y="9" onmousedown="handleZoom(evt,'in')"/>
                <use id="zoomminus" xlink:href="#zoomMin" x="42" y="9" onmousedown="handleZoom(evt,'out')"/>
                <use id="reset" xlink:href="#resetDef" x="30" y="36" onmousedown="handleReset()"/>
                <g id="arrowUp" xlink:href="#dirArrow" transform="translate(30 24)" onmousedown="handlePan(0,-1)">
                  <use xlink:href="#rim" fill="#404040">
                        <set attributeName="fill" to="#808080" begin="arrowUp.mouseover" end="arrowUp.mouseout"/>
                  </use>
                  <path fill="none" stroke="white" stroke-width="1.5" d="M0,-3.0v7 M-2.5,-0.5L0,-3.0L2.5,-0.5"/>
                </g>
                <g id="arrowRight" xlink:href="#dirArrow" transform="rotate(90) translate(36 -43)" onmousedown="handlePan(1,0)">
                  <use xlink:href="#rim" fill="#404040">
                        <set attributeName="fill" to="#808080" begin="arrowRight.mouseover" end="arrowRight.mouseout"/>
                  </use>
                  <path fill="none" stroke="white" stroke-width="1.5" d="M0,-3.0v7 M-2.5,-0.5L0,-3.0L2.5,-0.5"/>
                </g>
                <g id="arrowDown" xlink:href="#dirArrow" transform="rotate(180) translate(-30 -48)" onmousedown="handlePan(0,1)">
                  <use xlink:href="#rim" fill="#404040">
                        <set attributeName="fill" to="#808080" begin="arrowDown.mouseover" end="arrowDown.mouseout"/>
                  </use>
                  <path fill="none" stroke="white" stroke-width="1.5" d="M0,-3.0v7 M-2.5,-0.5L0,-3.0L2.5,-0.5"/>
                </g>
                <g id="arrowLeft" xlink:href="#dirArrow" transform="rotate(270) translate(-36 17)" onmousedown="handlePan(-1,0)">
                  <use xlink:href="#rim" fill="#404040">
                        <set attributeName="fill" to="#808080" begin="arrowLeft.mouseover" end="arrowLeft.mouseout"/>
                  </use>
                  <path fill="none" stroke="white" stroke-width="1.5" d="M0,-3.0v7 M-2.5,-0.5L0,-3.0L2.5,-0.5"/>
                </g>
        </g>
        <svg viewBox="0 0 15 15" width="100%" height="30px" preserveAspectRatio="xMaxYMin meet">
         <g id="arrow_out" transform="scale(0.3 0.3)">
          <a xlink:href="classcomponents_1_1_images_tab__coll__graph_org.svg" target="_base">
           <rect id="button" ry="5" rx="5" y="6" x="6" height="38" width="38"
                fill="#f2f5e9" fill-opacity="0.5" stroke="#606060" stroke-width="1.0"/>
           <path id="arrow"
             d="M 11.500037,31.436501 C 11.940474,20.09759 22.043105,11.32322 32.158766,21.979434 L 37.068811,17.246167 C 37.068811,17.246167 37.088388,32 37.088388,32 L 22.160133,31.978069 C 22.160133,31.978069 26.997745,27.140456 26.997745,27.140456 C 18.528582,18.264221 13.291696,25.230495 11.500037,31.436501 z"
             style="fill:#404040;"/>
          </a>
         </g>
        </svg>
</svg>
