<?xml version="1.0" encoding="UTF-8" standalone="no"?>
<!DOCTYPE svg PUBLIC "-//W3C//DTD SVG 1.1//EN"
 "http://www.w3.org/Graphics/SVG/1.1/DTD/svg11.dtd">
<!-- Generated by graphviz version 2.36.0 (20140111.2315)
 -->
<!-- Title: features.Feature Pages: 1 -->
<!--zoomable 557 -->
<svg id="main" version="1.1" xmlns="http://www.w3.org/2000/svg" xmlns:xlink="http://www.w3.org/1999/xlink" xml:space="preserve" onload="init(evt)">
<style type="text/css"><![CDATA[
.edge:hover path { stroke: red; }
.edge:hover polygon { stroke: red; fill: red; }
]]></style>
<script type="text/javascript"><![CDATA[
var edges = document.getElementsByTagName('g');
if (edges && edges.length) {
  for (var i=0;i<edges.length;i++) {
    if (edges[i].id.substr(0,4)=='edge') {
      edges[i].setAttribute('class','edge');
    }
  }
}
]]></script>
        <defs>
                <circle id="rim" cx="0" cy="0" r="7"/>
                <circle id="rim2" cx="0" cy="0" r="3.5"/>
                <g id="zoomPlus">
                        <use xlink:href="#rim" fill="#404040">
                                <set attributeName="fill" to="#808080" begin="zoomplus.mouseover" end="zoomplus.mouseout"/>
                        </use>
                        <path d="M-4,0h8M0,-4v8" fill="none" stroke="white" stroke-width="1.5" pointer-events="none"/>
                </g>
                <g id="zoomMin">
                        <use xlink:href="#rim" fill="#404040">
                                <set attributeName="fill" to="#808080" begin="zoomminus.mouseover" end="zoomminus.mouseout"/>
                        </use>
                        <path d="M-4,0h8" fill="none" stroke="white" stroke-width="1.5" pointer-events="none"/>
                </g>
                <g id="dirArrow">
                        <path fill="none" stroke="white" stroke-width="1.5" d="M0,-3.0v7 M-2.5,-0.5L0,-3.0L2.5,-0.5"/>
                </g>
               <g id="resetDef">
                       <use xlink:href="#rim2" fill="#404040">
                               <set attributeName="fill" to="#808080" begin="reset.mouseover" end="reset.mouseout"/>
                       </use>
               </g>
        </defs>

<script type="text/javascript">
var viewWidth = 486;
var viewHeight = 557;
var sectionId = 'dynsection-0';
</script>
<script xlink:href="../../svgpan.js"/>
<svg id="graph" class="graph">
<g id="viewport">
<title>features.Feature</title>
<polygon fill="white" stroke="none" points="-4,4 -4,-553 482,-553 482,4 -4,4"/>
<!-- Node1 -->
<g id="node1" class="node"><title>Node1</title>
<polygon fill="#bfbfbf" stroke="black" points="0.5,-279.5 0.5,-298.5 95.5,-298.5 95.5,-279.5 0.5,-279.5"/>
<text text-anchor="middle" x="48" y="-286.5" font-family="Helvetica,sans-Serif" font-size="10.00">features.Feature</text>
</g>
<!-- Node2 -->
<g id="node2" class="node"><title>Node2</title>
<g id="a_node2"><a xlink:href="../../da/d5b/classcomponents_1_1_center_pane.html" target="_top" xlink:title="components.CenterPane">
<polygon fill="white" stroke="black" points="153.5,-529.5 153.5,-548.5 288.5,-548.5 288.5,-529.5 153.5,-529.5"/>
<text text-anchor="middle" x="221" y="-536.5" font-family="Helvetica,sans-Serif" font-size="10.00">components.CenterPane</text>
</a>
</g>
</g>
<!-- Node1&#45;&gt;Node2 -->
<g id="edge1" class="edge"><title>Node1&#45;&gt;Node2</title>
<path fill="none" stroke="midnightblue" d="M50.3589,-308.846C54.4556,-352.731 70.5258,-458.581 132,-515 138.884,-521.317 147.268,-525.998 156.097,-529.46"/>
<polygon fill="midnightblue" stroke="midnightblue" points="53.8463,-308.547 49.5392,-298.867 46.8698,-309.12 53.8463,-308.547"/>
</g>
<!-- Node3 -->
<g id="node3" class="node"><title>Node3</title>
<g id="a_node3"><a xlink:href="../../db/d7f/classcomponents_1_1_info_pane.html" target="_top" xlink:title="components.InfoPane">
<polygon fill="white" stroke="black" points="161,-453.5 161,-472.5 281,-472.5 281,-453.5 161,-453.5"/>
<text text-anchor="middle" x="221" y="-460.5" font-family="Helvetica,sans-Serif" font-size="10.00">components.InfoPane</text>
</a>
</g>
</g>
<!-- Node1&#45;&gt;Node3 -->
<g id="edge2" class="edge"><title>Node1&#45;&gt;Node3</title>
<path fill="none" stroke="midnightblue" d="M54.4486,-308.81C64.3609,-341.073 88.4512,-404.793 132,-439 140.344,-445.554 150.348,-450.321 160.572,-453.788"/>
<polygon fill="midnightblue" stroke="midnightblue" points="57.6906,-307.426 51.5251,-298.81 50.9718,-309.39 57.6906,-307.426"/>
</g>
<!-- Node4 -->
<g id="node4" class="node"><title>Node4</title>
<g id="a_node4"><a xlink:href="../../db/d9a/classcomponents_1_1_left_pane.html" target="_top" xlink:title="components.LeftPane">
<polygon fill="white" stroke="black" points="351.5,-491.5 351.5,-510.5 472.5,-510.5 472.5,-491.5 351.5,-491.5"/>
<text text-anchor="middle" x="412" y="-498.5" font-family="Helvetica,sans-Serif" font-size="10.00">components.LeftPane</text>
</a>
</g>
</g>
<!-- Node1&#45;&gt;Node4 -->
<g id="edge12" class="edge"><title>Node1&#45;&gt;Node4</title>
<path fill="none" stroke="midnightblue" d="M50.9193,-308.962C55.9834,-349.4 73.6335,-440.655 132,-482 202.914,-532.234 311.064,-521.508 369.708,-510.511"/>
<polygon fill="midnightblue" stroke="midnightblue" points="54.3702,-308.327 49.7808,-298.778 47.4136,-309.105 54.3702,-308.327"/>
</g>
<!-- Node5 -->
<g id="node5" class="node"><title>Node5</title>
<g id="a_node5"><a xlink:href="../../d5/d01/classcomponents_1_1_right_pane.html" target="_top" xlink:title="components.RightPane">
<polygon fill="white" stroke="black" points="348.5,-453.5 348.5,-472.5 475.5,-472.5 475.5,-453.5 348.5,-453.5"/>
<text text-anchor="middle" x="412" y="-460.5" font-family="Helvetica,sans-Serif" font-size="10.00">components.RightPane</text>
</a>
</g>
</g>
<!-- Node1&#45;&gt;Node5 -->
<g id="edge13" class="edge"><title>Node1&#45;&gt;Node5</title>
<path fill="none" stroke="midnightblue" d="M57.0104,-308.078C69.1479,-334.51 94.7942,-381.748 132,-406 136.841,-409.155 283.479,-438.115 362.175,-453.497"/>
<polygon fill="midnightblue" stroke="midnightblue" points="60.1352,-306.49 52.8955,-298.754 53.7311,-309.316 60.1352,-306.49"/>
</g>
<!-- Node6 -->
<g id="node6" class="node"><title>Node6</title>
<g id="a_node6"><a xlink:href="../../df/df3/classcomponents_1_1_info_tab.html" target="_top" xlink:title="components.InfoTab">
<polygon fill="white" stroke="black" points="164.5,-377.5 164.5,-396.5 277.5,-396.5 277.5,-377.5 164.5,-377.5"/>
<text text-anchor="middle" x="221" y="-384.5" font-family="Helvetica,sans-Serif" font-size="10.00">components.InfoTab</text>
</a>
</g>
</g>
<!-- Node1&#45;&gt;Node6 -->
<g id="edge5" class="edge"><title>Node1&#45;&gt;Node6</title>
<path fill="none" stroke="midnightblue" d="M62.4777,-306.604C77.4376,-324.858 103.289,-352.808 132,-368 141.947,-373.263 153.26,-377.069 164.383,-379.82"/>
<polygon fill="midnightblue" stroke="midnightblue" points="65.0099,-304.165 56.044,-298.52 59.5329,-308.524 65.0099,-304.165"/>
</g>
<!-- Node13 -->
<g id="node13" class="node"><title>Node13</title>
<g id="a_node13"><a xlink:href="../../d7/d3c/classcomponents_1_1_top_pane.html" target="_top" xlink:title="components.TopPane">
<polygon fill="white" stroke="black" points="161.5,-339.5 161.5,-358.5 280.5,-358.5 280.5,-339.5 161.5,-339.5"/>
<text text-anchor="middle" x="221" y="-346.5" font-family="Helvetica,sans-Serif" font-size="10.00">components.TopPane</text>
</a>
</g>
</g>
<!-- Node1&#45;&gt;Node13 -->
<g id="edge14" class="edge"><title>Node1&#45;&gt;Node13</title>
<path fill="none" stroke="midnightblue" d="M74.1236,-303.439C90.2313,-312.18 111.831,-322.962 132,-330 142.625,-333.708 154.235,-336.833 165.434,-339.409"/>
<polygon fill="midnightblue" stroke="midnightblue" points="75.7711,-300.351 65.3266,-298.572 72.3823,-306.476 75.7711,-300.351"/>
</g>
<!-- Node14 -->
<g id="node14" class="node"><title>Node14</title>
<g id="a_node14"><a xlink:href="../../d8/da9/classfeatures_1_1_animate_button_feature.html" target="_top" xlink:title="features.AnimateButtonFeature">
<polygon fill="white" stroke="black" points="137,-301.5 137,-320.5 305,-320.5 305,-301.5 137,-301.5"/>
<text text-anchor="middle" x="221" y="-308.5" font-family="Helvetica,sans-Serif" font-size="10.00">features.AnimateButtonFeature</text>
</a>
</g>
</g>
<!-- Node1&#45;&gt;Node14 -->
<g id="edge15" class="edge"><title>Node1&#45;&gt;Node14</title>
<path fill="none" stroke="midnightblue" d="M105.814,-296.309C118.687,-297.966 132.541,-299.748 146.007,-301.48"/>
<polygon fill="midnightblue" stroke="midnightblue" points="106.091,-292.816 95.7265,-295.012 105.198,-299.759 106.091,-292.816"/>
</g>
<!-- Node15 -->
<g id="node15" class="node"><title>Node15</title>
<g id="a_node15"><a xlink:href="../../db/d05/classfeatures_1_1_animation_speed_slider_feature.html" target="_top" xlink:title="features.AnimationSpeedSlider\lFeature">
<polygon fill="white" stroke="black" points="138,-252 138,-282 304,-282 304,-252 138,-252"/>
<text text-anchor="start" x="146" y="-270" font-family="Helvetica,sans-Serif" font-size="10.00">features.AnimationSpeedSlider</text>
<text text-anchor="middle" x="221" y="-259" font-family="Helvetica,sans-Serif" font-size="10.00">Feature</text>
</a>
</g>
</g>
<!-- Node1&#45;&gt;Node15 -->
<g id="edge16" class="edge"><title>Node1&#45;&gt;Node15</title>
<path fill="none" stroke="midnightblue" d="M105.777,-281.695C116.063,-280.372 126.976,-278.968 137.818,-277.573"/>
<polygon fill="midnightblue" stroke="midnightblue" points="105.198,-278.241 95.7265,-282.988 106.091,-285.184 105.198,-278.241"/>
</g>
<!-- Node16 -->
<g id="node16" class="node"><title>Node16</title>
<g id="a_node16"><a xlink:href="../../d3/d06/classfeatures_1_1_color_picker_feature.html" target="_top" xlink:title="features.ColorPickerFeature">
<polygon fill="white" stroke="black" points="146.5,-213.5 146.5,-232.5 295.5,-232.5 295.5,-213.5 146.5,-213.5"/>
<text text-anchor="middle" x="221" y="-220.5" font-family="Helvetica,sans-Serif" font-size="10.00">features.ColorPickerFeature</text>
</a>
</g>
</g>
<!-- Node1&#45;&gt;Node16 -->
<g id="edge17" class="edge"><title>Node1&#45;&gt;Node16</title>
<path fill="none" stroke="midnightblue" d="M72.1337,-273.844C88.3241,-263.831 110.772,-251.106 132,-243 142.977,-238.808 155.076,-235.356 166.696,-232.57"/>
<polygon fill="midnightblue" stroke="midnightblue" points="69.9674,-271.073 63.3805,-279.371 73.7047,-276.991 69.9674,-271.073"/>
</g>
<!-- Node17 -->
<g id="node17" class="node"><title>Node17</title>
<g id="a_node17"><a xlink:href="../../da/d5c/classfeatures_1_1_language_combo_feature.html" target="_top" xlink:title="features.LanguageComboFeature">
<polygon fill="white" stroke="black" points="132.5,-175.5 132.5,-194.5 309.5,-194.5 309.5,-175.5 132.5,-175.5"/>
<text text-anchor="middle" x="221" y="-182.5" font-family="Helvetica,sans-Serif" font-size="10.00">features.LanguageComboFeature</text>
</a>
</g>
</g>
<!-- Node1&#45;&gt;Node17 -->
<g id="edge18" class="edge"><title>Node1&#45;&gt;Node17</title>
<path fill="none" stroke="midnightblue" d="M61.3204,-271.189C75.8753,-251.572 101.945,-220.614 132,-204 138.976,-200.144 146.666,-197.07 154.507,-194.62"/>
<polygon fill="midnightblue" stroke="midnightblue" points="58.4746,-269.151 55.4704,-279.311 64.1548,-273.242 58.4746,-269.151"/>
</g>
<!-- Node18 -->
<g id="node18" class="node"><title>Node18</title>
<g id="a_node18"><a xlink:href="../../dc/d76/classfeatures_1_1_pen_type_combo_box_feature.html" target="_top" xlink:title="features.PenTypeComboBox\lFeature">
<polygon fill="white" stroke="black" points="145.5,-126 145.5,-156 296.5,-156 296.5,-126 145.5,-126"/>
<text text-anchor="start" x="153.5" y="-144" font-family="Helvetica,sans-Serif" font-size="10.00">features.PenTypeComboBox</text>
<text text-anchor="middle" x="221" y="-133" font-family="Helvetica,sans-Serif" font-size="10.00">Feature</text>
</a>
</g>
</g>
<!-- Node1&#45;&gt;Node18 -->
<g id="edge19" class="edge"><title>Node1&#45;&gt;Node18</title>
<path fill="none" stroke="midnightblue" d="M56.6729,-270.11C68.6694,-242.965 94.4488,-193.207 132,-166 137.273,-162.179 143.115,-158.941 149.207,-156.197"/>
<polygon fill="midnightblue" stroke="midnightblue" points="53.4521,-268.74 52.7542,-279.312 59.8924,-271.483 53.4521,-268.74"/>
</g>
<!-- Node19 -->
<g id="node19" class="node"><title>Node19</title>
<g id="a_node19"><a xlink:href="../../dd/dca/classfeatures_1_1_pen_width_slider_feature.html" target="_top" xlink:title="features.PenWidthSliderFeature">
<polygon fill="white" stroke="black" points="137.5,-87.5 137.5,-106.5 304.5,-106.5 304.5,-87.5 137.5,-87.5"/>
<text text-anchor="middle" x="221" y="-94.5" font-family="Helvetica,sans-Serif" font-size="10.00">features.PenWidthSliderFeature</text>
</a>
</g>
</g>
<!-- Node1&#45;&gt;Node19 -->
<g id="edge20" class="edge"><title>Node1&#45;&gt;Node19</title>
<path fill="none" stroke="midnightblue" d="M52.7163,-269.162C60.5698,-233.011 82.3771,-156.503 132,-117 137.393,-112.707 143.532,-109.298 150.001,-106.597"/>
<polygon fill="midnightblue" stroke="midnightblue" points="49.2008,-268.886 50.6392,-279.383 56.0606,-270.281 49.2008,-268.886"/>
</g>
<!-- Node20 -->
<g id="node20" class="node"><title>Node20</title>
<g id="a_node20"><a xlink:href="../../de/d10/classfeatures_1_1_run_button_feature.html" target="_top" xlink:title="features.RunButtonFeature">
<polygon fill="white" stroke="black" points="148.5,-49.5 148.5,-68.5 293.5,-68.5 293.5,-49.5 148.5,-49.5"/>
<text text-anchor="middle" x="221" y="-56.5" font-family="Helvetica,sans-Serif" font-size="10.00">features.RunButtonFeature</text>
</a>
</g>
</g>
<!-- Node1&#45;&gt;Node20 -->
<g id="edge21" class="edge"><title>Node1&#45;&gt;Node20</title>
<path fill="none" stroke="midnightblue" d="M50.7146,-269.097C55.4602,-226.95 72.6477,-128.433 132,-78 136.883,-73.8505 142.46,-70.5428 148.382,-67.9137"/>
<polygon fill="midnightblue" stroke="midnightblue" points="47.2181,-268.888 49.7002,-279.188 54.183,-269.588 47.2181,-268.888"/>
</g>
<!-- Node21 -->
<g id="node21" class="node"><title>Node21</title>
<g id="a_node21"><a xlink:href="../../df/d39/classfeatures_1_1_toggle_grid_button_feature.html" target="_top" xlink:title="features.ToggleGridButton\lFeature">
<polygon fill="white" stroke="black" points="150.5,-0 150.5,-30 291.5,-30 291.5,-0 150.5,-0"/>
<text text-anchor="start" x="158.5" y="-18" font-family="Helvetica,sans-Serif" font-size="10.00">features.ToggleGridButton</text>
<text text-anchor="middle" x="221" y="-7" font-family="Helvetica,sans-Serif" font-size="10.00">Feature</text>
</a>
</g>
</g>
<!-- Node1&#45;&gt;Node21 -->
<g id="edge22" class="edge"><title>Node1&#45;&gt;Node21</title>
<path fill="none" stroke="midnightblue" d="M49.6103,-269.469C52.1527,-222.781 65.21,-103.853 132,-40 137.281,-34.9514 143.505,-30.9099 150.163,-27.6767"/>
<polygon fill="midnightblue" stroke="midnightblue" points="46.1131,-269.329 49.1716,-279.473 53.1064,-269.636 46.1131,-269.329"/>
</g>
<!-- Node3&#45;&gt;Node4 -->
<g id="edge3" class="edge"><title>Node3&#45;&gt;Node4</title>
<path fill="none" stroke="midnightblue" d="M279.742,-474.61C306.622,-480.014 338.203,-486.364 363.65,-491.48"/>
<polygon fill="midnightblue" stroke="midnightblue" points="280.186,-471.129 269.693,-472.589 278.807,-477.992 280.186,-471.129"/>
</g>
<!-- Node3&#45;&gt;Node5 -->
<g id="edge4" class="edge"><title>Node3&#45;&gt;Node5</title>
<path fill="none" stroke="midnightblue" d="M291.212,-463C309.849,-463 329.903,-463 348.172,-463"/>
<polygon fill="midnightblue" stroke="midnightblue" points="291.023,-459.5 281.023,-463 291.023,-466.5 291.023,-459.5"/>
</g>
<!-- Node7 -->
<g id="node7" class="node"><title>Node7</title>
<g id="a_node7"><a xlink:href="../../da/d83/classcomponents_1_1_colors_tab.html" target="_top" xlink:title="components.ColorsTab">
<polygon fill="white" stroke="black" points="349.5,-415.5 349.5,-434.5 474.5,-434.5 474.5,-415.5 349.5,-415.5"/>
<text text-anchor="middle" x="412" y="-422.5" font-family="Helvetica,sans-Serif" font-size="10.00">components.ColorsTab</text>
</a>
</g>
</g>
<!-- Node6&#45;&gt;Node7 -->
<g id="edge6" class="edge"><title>Node6&#45;&gt;Node7</title>
<path fill="none" stroke="midnightblue" d="M279.742,-398.61C306.622,-404.014 338.203,-410.364 363.65,-415.48"/>
<polygon fill="midnightblue" stroke="midnightblue" points="280.186,-395.129 269.693,-396.589 278.807,-401.992 280.186,-395.129"/>
</g>
<!-- Node8 -->
<g id="node8" class="node"><title>Node8</title>
<g id="a_node8"><a xlink:href="../../d1/dfd/classcomponents_1_1_history_tab.html" target="_top" xlink:title="components.HistoryTab">
<polygon fill="white" stroke="black" points="347.5,-377.5 347.5,-396.5 476.5,-396.5 476.5,-377.5 347.5,-377.5"/>
<text text-anchor="middle" x="412" y="-384.5" font-family="Helvetica,sans-Serif" font-size="10.00">components.HistoryTab</text>
</a>
</g>
</g>
<!-- Node6&#45;&gt;Node8 -->
<g id="edge7" class="edge"><title>Node6&#45;&gt;Node8</title>
<path fill="none" stroke="midnightblue" d="M287.9,-387C307.202,-387 328.261,-387 347.417,-387"/>
<polygon fill="midnightblue" stroke="midnightblue" points="287.684,-383.5 277.684,-387 287.684,-390.5 287.684,-383.5"/>
</g>
<!-- Node9 -->
<g id="node9" class="node"><title>Node9</title>
<g id="a_node9"><a xlink:href="../../dc/db7/classcomponents_1_1_images_tab.html" target="_top" xlink:title="components.ImagesTab">
<polygon fill="white" stroke="black" points="346.5,-339.5 346.5,-358.5 477.5,-358.5 477.5,-339.5 346.5,-339.5"/>
<text text-anchor="middle" x="412" y="-346.5" font-family="Helvetica,sans-Serif" font-size="10.00">components.ImagesTab</text>
</a>
</g>
</g>
<!-- Node6&#45;&gt;Node9 -->
<g id="edge8" class="edge"><title>Node6&#45;&gt;Node9</title>
<path fill="none" stroke="midnightblue" d="M279.742,-375.39C306.622,-369.986 338.203,-363.636 363.65,-358.52"/>
<polygon fill="midnightblue" stroke="midnightblue" points="278.807,-372.008 269.693,-377.411 280.186,-378.871 278.807,-372.008"/>
</g>
<!-- Node10 -->
<g id="node10" class="node"><title>Node10</title>
<g id="a_node10"><a xlink:href="../../d1/de7/classcomponents_1_1_saved_tab.html" target="_top" xlink:title="components.SavedTab">
<polygon fill="white" stroke="black" points="349.5,-301.5 349.5,-320.5 474.5,-320.5 474.5,-301.5 349.5,-301.5"/>
<text text-anchor="middle" x="412" y="-308.5" font-family="Helvetica,sans-Serif" font-size="10.00">components.SavedTab</text>
</a>
</g>
</g>
<!-- Node6&#45;&gt;Node10 -->
<g id="edge9" class="edge"><title>Node6&#45;&gt;Node10</title>
<path fill="none" stroke="midnightblue" d="M287.463,-377.509C295.325,-375.037 303.028,-371.923 310,-368 330.275,-356.591 326.147,-342.128 346,-330 352.321,-326.139 359.467,-323.027 366.65,-320.53"/>
<polygon fill="midnightblue" stroke="midnightblue" points="286.513,-374.14 277.833,-380.216 288.407,-380.879 286.513,-374.14"/>
</g>
<!-- Node11 -->
<g id="node11" class="node"><title>Node11</title>
<g id="a_node11"><a xlink:href="../../d6/d82/classcomponents_1_1_turtles_tab.html" target="_top" xlink:title="components.TurtlesTab">
<polygon fill="white" stroke="black" points="349,-263.5 349,-282.5 475,-282.5 475,-263.5 349,-263.5"/>
<text text-anchor="middle" x="412" y="-270.5" font-family="Helvetica,sans-Serif" font-size="10.00">components.TurtlesTab</text>
</a>
</g>
</g>
<!-- Node6&#45;&gt;Node11 -->
<g id="edge10" class="edge"><title>Node6&#45;&gt;Node11</title>
<path fill="none" stroke="midnightblue" d="M287.272,-380.075C295.469,-377.212 303.311,-373.305 310,-368 339.283,-344.775 317.568,-316.261 346,-292 350.561,-288.108 355.885,-285.013 361.486,-282.551"/>
<polygon fill="midnightblue" stroke="midnightblue" points="286.118,-376.767 277.534,-382.977 288.117,-383.475 286.118,-376.767"/>
</g>
<!-- Node12 -->
<g id="node12" class="node"><title>Node12</title>
<g id="a_node12"><a xlink:href="../../d4/d3f/classcomponents_1_1_vars_tab.html" target="_top" xlink:title="components.VarsTab">
<polygon fill="white" stroke="black" points="354,-225.5 354,-244.5 470,-244.5 470,-225.5 354,-225.5"/>
<text text-anchor="middle" x="412" y="-232.5" font-family="Helvetica,sans-Serif" font-size="10.00">components.VarsTab</text>
</a>
</g>
</g>
<!-- Node6&#45;&gt;Node12 -->
<g id="edge11" class="edge"><title>Node6&#45;&gt;Node12</title>
<path fill="none" stroke="midnightblue" d="M287.653,-381.016C295.862,-378.019 303.605,-373.825 310,-368 349.281,-332.221 308.028,-291.165 346,-254 349.949,-250.135 354.639,-247.049 359.665,-244.585"/>
<polygon fill="midnightblue" stroke="midnightblue" points="286.396,-377.74 277.855,-384.009 288.442,-384.435 286.396,-377.74"/>
</g>
</g>
</svg>
        <g id="navigator" transform="translate(0 0)" fill="#404254">
                <rect fill="#f2f5e9" fill-opacity="0.5" stroke="#606060" stroke-width=".5" x="0" y="0" width="60" height="60"/>
                <use id="zoomplus" xlink:href="#zoomPlus" x="17" y="9" onmousedown="handleZoom(evt,'in')"/>
                <use id="zoomminus" xlink:href="#zoomMin" x="42" y="9" onmousedown="handleZoom(evt,'out')"/>
                <use id="reset" xlink:href="#resetDef" x="30" y="36" onmousedown="handleReset()"/>
                <g id="arrowUp" xlink:href="#dirArrow" transform="translate(30 24)" onmousedown="handlePan(0,-1)">
                  <use xlink:href="#rim" fill="#404040">
                        <set attributeName="fill" to="#808080" begin="arrowUp.mouseover" end="arrowUp.mouseout"/>
                  </use>
                  <path fill="none" stroke="white" stroke-width="1.5" d="M0,-3.0v7 M-2.5,-0.5L0,-3.0L2.5,-0.5"/>
                </g>
                <g id="arrowRight" xlink:href="#dirArrow" transform="rotate(90) translate(36 -43)" onmousedown="handlePan(1,0)">
                  <use xlink:href="#rim" fill="#404040">
                        <set attributeName="fill" to="#808080" begin="arrowRight.mouseover" end="arrowRight.mouseout"/>
                  </use>
                  <path fill="none" stroke="white" stroke-width="1.5" d="M0,-3.0v7 M-2.5,-0.5L0,-3.0L2.5,-0.5"/>
                </g>
                <g id="arrowDown" xlink:href="#dirArrow" transform="rotate(180) translate(-30 -48)" onmousedown="handlePan(0,1)">
                  <use xlink:href="#rim" fill="#404040">
                        <set attributeName="fill" to="#808080" begin="arrowDown.mouseover" end="arrowDown.mouseout"/>
                  </use>
                  <path fill="none" stroke="white" stroke-width="1.5" d="M0,-3.0v7 M-2.5,-0.5L0,-3.0L2.5,-0.5"/>
                </g>
                <g id="arrowLeft" xlink:href="#dirArrow" transform="rotate(270) translate(-36 17)" onmousedown="handlePan(-1,0)">
                  <use xlink:href="#rim" fill="#404040">
                        <set attributeName="fill" to="#808080" begin="arrowLeft.mouseover" end="arrowLeft.mouseout"/>
                  </use>
                  <path fill="none" stroke="white" stroke-width="1.5" d="M0,-3.0v7 M-2.5,-0.5L0,-3.0L2.5,-0.5"/>
                </g>
        </g>
        <svg viewBox="0 0 15 15" width="100%" height="30px" preserveAspectRatio="xMaxYMin meet">
         <g id="arrow_out" transform="scale(0.3 0.3)">
          <a xlink:href="interfacefeatures_1_1_feature__inherit__graph_org.svg" target="_base">
           <rect id="button" ry="5" rx="5" y="6" x="6" height="38" width="38"
                fill="#f2f5e9" fill-opacity="0.5" stroke="#606060" stroke-width="1.0"/>
           <path id="arrow"
             d="M 11.500037,31.436501 C 11.940474,20.09759 22.043105,11.32322 32.158766,21.979434 L 37.068811,17.246167 C 37.068811,17.246167 37.088388,32 37.088388,32 L 22.160133,31.978069 C 22.160133,31.978069 26.997745,27.140456 26.997745,27.140456 C 18.528582,18.264221 13.291696,25.230495 11.500037,31.436501 z"
             style="fill:#404040;"/>
          </a>
         </g>
        </svg>
</svg>
