<?xml version="1.0" encoding="UTF-8" standalone="no"?>
<!DOCTYPE svg PUBLIC "-//W3C//DTD SVG 1.1//EN"
 "http://www.w3.org/Graphics/SVG/1.1/DTD/svg11.dtd">
<!-- Generated by graphviz version 2.36.0 (20140111.2315)
 -->
<!-- Title: features.SettingsBar Pages: 1 -->
<!--zoomable 295 -->
<svg id="main" version="1.1" xmlns="http://www.w3.org/2000/svg" xmlns:xlink="http://www.w3.org/1999/xlink" xml:space="preserve" onload="init(evt)">
<style type="text/css"><![CDATA[
.edge:hover path { stroke: red; }
.edge:hover polygon { stroke: red; fill: red; }
]]></style>
<script type="text/javascript"><![CDATA[
var edges = document.getElementsByTagName('g');
if (edges && edges.length) {
  for (var i=0;i<edges.length;i++) {
    if (edges[i].id.substr(0,4)=='edge') {
      edges[i].setAttribute('class','edge');
    }
  }
}
]]></script>
        <defs>
                <circle id="rim" cx="0" cy="0" r="7"/>
                <circle id="rim2" cx="0" cy="0" r="3.5"/>
                <g id="zoomPlus">
                        <use xlink:href="#rim" fill="#404040">
                                <set attributeName="fill" to="#808080" begin="zoomplus.mouseover" end="zoomplus.mouseout"/>
                        </use>
                        <path d="M-4,0h8M0,-4v8" fill="none" stroke="white" stroke-width="1.5" pointer-events="none"/>
                </g>
                <g id="zoomMin">
                        <use xlink:href="#rim" fill="#404040">
                                <set attributeName="fill" to="#808080" begin="zoomminus.mouseover" end="zoomminus.mouseout"/>
                        </use>
                        <path d="M-4,0h8" fill="none" stroke="white" stroke-width="1.5" pointer-events="none"/>
                </g>
                <g id="dirArrow">
                        <path fill="none" stroke="white" stroke-width="1.5" d="M0,-3.0v7 M-2.5,-0.5L0,-3.0L2.5,-0.5"/>
                </g>
               <g id="resetDef">
                       <use xlink:href="#rim2" fill="#404040">
                               <set attributeName="fill" to="#808080" begin="reset.mouseover" end="reset.mouseout"/>
                       </use>
               </g>
        </defs>

<script type="text/javascript">
var viewWidth = 874;
var viewHeight = 295;
var sectionId = 'dynsection-1';
</script>
<script xlink:href="../../svgpan.js"/>
<svg id="graph" class="graph">
<g id="viewport">
<title>features.SettingsBar</title>
<polygon fill="white" stroke="none" points="-4,4 -4,-291 870,-291 870,4 -4,4"/>
<!-- Node1 -->
<g id="node1" class="node"><title>Node1</title>
<polygon fill="#bfbfbf" stroke="black" points="750,-150.5 750,-169.5 866,-169.5 866,-150.5 750,-150.5"/>
<text text-anchor="middle" x="808" y="-157.5" font-family="Helvetica,sans-Serif" font-size="10.00">features.SettingsBar</text>
</g>
<!-- Node2 -->
<g id="node2" class="node"><title>Node2</title>
<polygon fill="white" stroke="#bfbfbf" points="518.5,-267.5 518.5,-286.5 569.5,-286.5 569.5,-267.5 518.5,-267.5"/>
<text text-anchor="middle" x="544" y="-274.5" font-family="Helvetica,sans-Serif" font-size="10.00">ToolBar</text>
</g>
<!-- Node2&#45;&gt;Node1 -->
<g id="edge1" class="edge"><title>Node2&#45;&gt;Node1</title>
<path fill="none" stroke="midnightblue" d="M579.954,-279.175C619.397,-280.063 684.266,-276.683 732,-250 766.62,-230.648 792.015,-188.558 802.151,-169.598"/>
<polygon fill="midnightblue" stroke="midnightblue" points="579.89,-275.671 569.78,-278.838 579.658,-282.668 579.89,-275.671"/>
</g>
<!-- Node3 -->
<g id="node3" class="node"><title>Node3</title>
<polygon fill="white" stroke="#bfbfbf" points="497.5,-229.5 497.5,-248.5 590.5,-248.5 590.5,-229.5 497.5,-229.5"/>
<text text-anchor="middle" x="544" y="-236.5" font-family="Helvetica,sans-Serif" font-size="10.00">ResourceBundle</text>
</g>
<!-- Node3&#45;&gt;Node1 -->
<g id="edge2" class="edge"><title>Node3&#45;&gt;Node1</title>
<path fill="none" stroke="#9a32cd" stroke-dasharray="5,2" d="M601.115,-238.104C639.205,-235.854 690.07,-229.586 732,-213 757.797,-202.796 783.175,-181.978 796.785,-169.689"/>
<polygon fill="#9a32cd" stroke="#9a32cd" points="600.536,-234.629 590.729,-238.637 600.895,-241.62 600.536,-234.629"/>
<text text-anchor="middle" x="679" y="-238" font-family="Helvetica,sans-Serif" font-size="10.00"> myNumberResources</text>
</g>
<!-- Node4 -->
<g id="node4" class="node"><title>Node4</title>
<polygon fill="white" stroke="#bfbfbf" points="484,-190.5 484,-209.5 604,-209.5 604,-190.5 484,-190.5"/>
<text text-anchor="middle" x="544" y="-197.5" font-family="Helvetica,sans-Serif" font-size="10.00">ComboBox&lt; String &gt;</text>
</g>
<!-- Node4&#45;&gt;Node1 -->
<g id="edge3" class="edge"><title>Node4&#45;&gt;Node1</title>
<path fill="none" stroke="#9a32cd" stroke-dasharray="5,2" d="M614.571,-189.752C649.778,-184.523 693.173,-178.013 732,-172 737.734,-171.112 743.712,-170.175 749.681,-169.232"/>
<polygon fill="#9a32cd" stroke="#9a32cd" points="613.775,-186.332 604.397,-191.262 614.803,-193.256 613.775,-186.332"/>
<text text-anchor="middle" x="679" y="-201" font-family="Helvetica,sans-Serif" font-size="10.00"> colourCB</text>
<text text-anchor="middle" x="679" y="-190" font-family="Helvetica,sans-Serif" font-size="10.00">languageCB</text>
</g>
<!-- Node5 -->
<g id="node5" class="node"><title>Node5</title>
<g id="a_node5"><a xlink:href="../../d5/d01/classcomponents_1_1_right_pane.html" target="_top" xlink:title="components.RightPane">
<polygon fill="white" stroke="black" points="480.5,-152.5 480.5,-171.5 607.5,-171.5 607.5,-152.5 480.5,-152.5"/>
<text text-anchor="middle" x="544" y="-159.5" font-family="Helvetica,sans-Serif" font-size="10.00">components.RightPane</text>
</a>
</g>
</g>
<!-- Node5&#45;&gt;Node1 -->
<g id="edge4" class="edge"><title>Node5&#45;&gt;Node1</title>
<path fill="none" stroke="#9a32cd" stroke-dasharray="5,2" d="M617.844,-161.077C620.598,-161.05 623.324,-161.024 626,-161 667.478,-160.629 714.304,-160.375 749.936,-160.216"/>
<polygon fill="#9a32cd" stroke="#9a32cd" points="617.755,-157.578 607.793,-161.183 617.829,-164.577 617.755,-157.578"/>
<text text-anchor="middle" x="679" y="-164" font-family="Helvetica,sans-Serif" font-size="10.00"> myRightPane</text>
</g>
<!-- Node6 -->
<g id="node6" class="node"><title>Node6</title>
<g id="a_node6"><a xlink:href="../../db/d7f/classcomponents_1_1_info_pane.html" target="_top" xlink:title="components.InfoPane">
<polygon fill="white" stroke="black" points="232,-114.5 232,-133.5 352,-133.5 352,-114.5 232,-114.5"/>
<text text-anchor="middle" x="292" y="-121.5" font-family="Helvetica,sans-Serif" font-size="10.00">components.InfoPane</text>
</a>
</g>
</g>
<!-- Node6&#45;&gt;Node5 -->
<g id="edge5" class="edge"><title>Node6&#45;&gt;Node5</title>
<path fill="none" stroke="midnightblue" d="M362.43,-134.553C399.349,-140.165 444.389,-147.011 480.25,-152.462"/>
<polygon fill="midnightblue" stroke="midnightblue" points="362.659,-131.048 352.247,-133.005 361.607,-137.969 362.659,-131.048"/>
</g>
<!-- Node15 -->
<g id="node15" class="node"><title>Node15</title>
<g id="a_node15"><a xlink:href="../../db/d9a/classcomponents_1_1_left_pane.html" target="_top" xlink:title="components.LeftPane">
<polygon fill="white" stroke="black" points="483.5,-114.5 483.5,-133.5 604.5,-133.5 604.5,-114.5 483.5,-114.5"/>
<text text-anchor="middle" x="544" y="-121.5" font-family="Helvetica,sans-Serif" font-size="10.00">components.LeftPane</text>
</a>
</g>
</g>
<!-- Node6&#45;&gt;Node15 -->
<g id="edge16" class="edge"><title>Node6&#45;&gt;Node15</title>
<path fill="none" stroke="midnightblue" d="M362.703,-124C400.631,-124 447.066,-124 483.312,-124"/>
<polygon fill="midnightblue" stroke="midnightblue" points="362.247,-120.5 352.247,-124 362.246,-127.5 362.247,-120.5"/>
</g>
<!-- Node7 -->
<g id="node7" class="node"><title>Node7</title>
<polygon fill="white" stroke="#bfbfbf" points="46,-114.5 46,-133.5 106,-133.5 106,-114.5 46,-114.5"/>
<text text-anchor="middle" x="76" y="-121.5" font-family="Helvetica,sans-Serif" font-size="10.00">FlowPane</text>
</g>
<!-- Node7&#45;&gt;Node6 -->
<g id="edge6" class="edge"><title>Node7&#45;&gt;Node6</title>
<path fill="none" stroke="midnightblue" d="M116.703,-124C149.015,-124 195.109,-124 231.781,-124"/>
<polygon fill="midnightblue" stroke="midnightblue" points="116.307,-120.5 106.307,-124 116.307,-127.5 116.307,-120.5"/>
</g>
<!-- Node8 -->
<g id="node8" class="node"><title>Node8</title>
<g id="a_node8"><a xlink:href="../../d2/dfc/interfacefeatures_1_1_feature.html" target="_top" xlink:title="features.Feature">
<polygon fill="white" stroke="black" points="28.5,-164.5 28.5,-183.5 123.5,-183.5 123.5,-164.5 28.5,-164.5"/>
<text text-anchor="middle" x="76" y="-171.5" font-family="Helvetica,sans-Serif" font-size="10.00">features.Feature</text>
</a>
</g>
</g>
<!-- Node8&#45;&gt;Node5 -->
<g id="edge9" class="edge"><title>Node8&#45;&gt;Node5</title>
<path fill="none" stroke="midnightblue" d="M133.975,-183.842C209.637,-195.151 347.104,-209.555 462,-188 470.436,-186.417 471.885,-183.797 480,-181 489.505,-177.724 499.919,-174.455 509.495,-171.576"/>
<polygon fill="midnightblue" stroke="midnightblue" points="134.132,-180.326 123.717,-182.271 133.072,-187.245 134.132,-180.326"/>
</g>
<!-- Node8&#45;&gt;Node6 -->
<g id="edge7" class="edge"><title>Node8&#45;&gt;Node6</title>
<path fill="none" stroke="midnightblue" d="M127.924,-162.102C165.254,-153.38 215.275,-141.693 250.032,-133.572"/>
<polygon fill="midnightblue" stroke="midnightblue" points="126.697,-158.794 117.755,-164.478 128.29,-165.611 126.697,-158.794"/>
</g>
<!-- Node8&#45;&gt;Node15 -->
<g id="edge17" class="edge"><title>Node8&#45;&gt;Node15</title>
<path fill="none" stroke="midnightblue" d="M133.857,-170.076C209.115,-164.563 345.85,-153.444 462,-138 471.478,-136.74 481.543,-135.18 491.239,-133.564"/>
<polygon fill="midnightblue" stroke="midnightblue" points="133.374,-166.601 123.654,-170.816 133.881,-173.583 133.374,-166.601"/>
</g>
<!-- Node9 -->
<g id="node9" class="node"><title>Node9</title>
<polygon fill="white" stroke="#bfbfbf" points="0,-76.5 0,-95.5 152,-95.5 152,-76.5 0,-76.5"/>
<text text-anchor="middle" x="76" y="-83.5" font-family="Helvetica,sans-Serif" font-size="10.00">List&lt; components.InfoTab &gt;</text>
</g>
<!-- Node9&#45;&gt;Node6 -->
<g id="edge8" class="edge"><title>Node9&#45;&gt;Node6</title>
<path fill="none" stroke="#9a32cd" stroke-dasharray="5,2" d="M145.593,-97.1556C167.475,-100.811 191.775,-104.97 214,-109 223.381,-110.701 233.388,-112.593 242.979,-114.445"/>
<polygon fill="#9a32cd" stroke="#9a32cd" points="146.165,-93.7026 135.726,-95.514 145.016,-100.608 146.165,-93.7026"/>
<text text-anchor="middle" x="192" y="-112" font-family="Helvetica,sans-Serif" font-size="10.00"> myTabs</text>
</g>
<!-- Node10 -->
<g id="node10" class="node"><title>Node10</title>
<g id="a_node10"><a xlink:href="../../d4/d4a/classactor_1_1_turtle.html" target="_top" xlink:title="actor.Turtle">
<polygon fill="white" stroke="black" points="509.5,-76.5 509.5,-95.5 578.5,-95.5 578.5,-76.5 509.5,-76.5"/>
<text text-anchor="middle" x="544" y="-83.5" font-family="Helvetica,sans-Serif" font-size="10.00">actor.Turtle</text>
</a>
</g>
</g>
<!-- Node10&#45;&gt;Node1 -->
<g id="edge10" class="edge"><title>Node10&#45;&gt;Node1</title>
<path fill="none" stroke="#9a32cd" stroke-dasharray="5,2" d="M589.037,-88.8624C627.649,-92.4051 684.824,-100.183 732,-117 755.044,-125.215 779.149,-140.401 793.621,-150.351"/>
<polygon fill="#9a32cd" stroke="#9a32cd" points="588.926,-85.34 578.663,-87.9715 588.327,-92.3144 588.926,-85.34"/>
<text text-anchor="middle" x="679" y="-120" font-family="Helvetica,sans-Serif" font-size="10.00"> myTurtle</text>
</g>
<!-- Node11 -->
<g id="node11" class="node"><title>Node11</title>
<polygon fill="white" stroke="#bfbfbf" points="256.5,-76.5 256.5,-95.5 327.5,-95.5 327.5,-76.5 256.5,-76.5"/>
<text text-anchor="middle" x="292" y="-83.5" font-family="Helvetica,sans-Serif" font-size="10.00">Observable</text>
</g>
<!-- Node11&#45;&gt;Node10 -->
<g id="edge11" class="edge"><title>Node11&#45;&gt;Node10</title>
<path fill="none" stroke="midnightblue" d="M337.811,-86C387.057,-86 465.038,-86 509.333,-86"/>
<polygon fill="midnightblue" stroke="midnightblue" points="337.761,-82.5001 327.761,-86 337.761,-89.5001 337.761,-82.5001"/>
</g>
<!-- Node12 -->
<g id="node12" class="node"><title>Node12</title>
<g id="a_node12"><a xlink:href="../../da/d54/classproperties_1_1_position.html" target="_top" xlink:title="properties.Position">
<polygon fill="white" stroke="black" points="239,-38.5 239,-57.5 345,-57.5 345,-38.5 239,-38.5"/>
<text text-anchor="middle" x="292" y="-45.5" font-family="Helvetica,sans-Serif" font-size="10.00">properties.Position</text>
</a>
</g>
</g>
<!-- Node12&#45;&gt;Node10 -->
<g id="edge12" class="edge"><title>Node12&#45;&gt;Node10</title>
<path fill="none" stroke="#9a32cd" stroke-dasharray="5,2" d="M355.522,-47.9885C387.676,-49.0992 427.298,-52.2076 462,-60 470.375,-61.8807 471.885,-64.2031 480,-67 489.505,-70.2758 499.919,-73.5445 509.495,-76.4241"/>
<polygon fill="#9a32cd" stroke="#9a32cd" points="355.458,-44.4852 345.361,-47.6946 355.255,-51.4823 355.458,-44.4852"/>
<text text-anchor="middle" x="416" y="-74" font-family="Helvetica,sans-Serif" font-size="10.00"> myPosition</text>
<text text-anchor="middle" x="416" y="-63" font-family="Helvetica,sans-Serif" font-size="10.00">DEFAULT_POSITION</text>
</g>
<!-- Node13 -->
<g id="node13" class="node"><title>Node13</title>
<polygon fill="white" stroke="#bfbfbf" points="49,-38.5 49,-57.5 103,-57.5 103,-38.5 49,-38.5"/>
<text text-anchor="middle" x="76" y="-45.5" font-family="Helvetica,sans-Serif" font-size="10.00">Point2D</text>
</g>
<!-- Node13&#45;&gt;Node12 -->
<g id="edge13" class="edge"><title>Node13&#45;&gt;Node12</title>
<path fill="none" stroke="#9a32cd" stroke-dasharray="5,2" d="M113.324,-48C147.754,-48 199.845,-48 238.735,-48"/>
<polygon fill="#9a32cd" stroke="#9a32cd" points="113.241,-44.5001 103.241,-48 113.241,-51.5001 113.241,-44.5001"/>
<text text-anchor="middle" x="192" y="-51" font-family="Helvetica,sans-Serif" font-size="10.00"> myPoint</text>
</g>
<!-- Node14 -->
<g id="node14" class="node"><title>Node14</title>
<g id="a_node14"><a xlink:href="../../da/d85/classactor_1_1_pen.html" target="_top" xlink:title="actor.Pen">
<polygon fill="white" stroke="black" points="261,-0.5 261,-19.5 323,-19.5 323,-0.5 261,-0.5"/>
<text text-anchor="middle" x="292" y="-7.5" font-family="Helvetica,sans-Serif" font-size="10.00">actor.Pen</text>
</a>
</g>
</g>
<!-- Node14&#45;&gt;Node10 -->
<g id="edge14" class="edge"><title>Node14&#45;&gt;Node10</title>
<path fill="none" stroke="#9a32cd" stroke-dasharray="5,2" d="M333.404,-6.04286C370.134,-4.54207 424.208,-7.79642 462,-34 475.729,-43.5194 467.032,-56.4667 480,-67 488.335,-73.7706 499.043,-78.1307 509.258,-80.9377"/>
<polygon fill="#9a32cd" stroke="#9a32cd" points="332.86,-2.56731 323.067,-6.60881 333.243,-9.55685 332.86,-2.56731"/>
<text text-anchor="middle" x="416" y="-37" font-family="Helvetica,sans-Serif" font-size="10.00"> myPen</text>
</g>
<!-- Node15&#45;&gt;Node1 -->
<g id="edge15" class="edge"><title>Node15&#45;&gt;Node1</title>
<path fill="none" stroke="#9a32cd" stroke-dasharray="5,2" d="M614.735,-130.4C649.983,-133.997 693.366,-138.979 732,-145 741.971,-146.554 752.632,-148.508 762.695,-150.486"/>
<polygon fill="#9a32cd" stroke="#9a32cd" points="614.847,-126.894 604.547,-129.375 614.147,-133.858 614.847,-126.894"/>
<text text-anchor="middle" x="679" y="-148" font-family="Helvetica,sans-Serif" font-size="10.00"> myLeftPane</text>
</g>
<!-- Node16 -->
<g id="node16" class="node"><title>Node16</title>
<polygon fill="white" stroke="#bfbfbf" points="509,-38.5 509,-57.5 579,-57.5 579,-38.5 509,-38.5"/>
<text text-anchor="middle" x="544" y="-45.5" font-family="Helvetica,sans-Serif" font-size="10.00">ColorPicker</text>
</g>
<!-- Node16&#45;&gt;Node1 -->
<g id="edge18" class="edge"><title>Node16&#45;&gt;Node1</title>
<path fill="none" stroke="#9a32cd" stroke-dasharray="5,2" d="M589.363,-47.0516C628.995,-48.0119 687.5,-54.0056 732,-78 764.604,-95.5803 790.49,-132.915 801.395,-150.484"/>
<polygon fill="#9a32cd" stroke="#9a32cd" points="589.263,-43.5499 579.213,-46.9055 589.162,-50.5492 589.263,-43.5499"/>
<text text-anchor="middle" x="679" y="-81" font-family="Helvetica,sans-Serif" font-size="10.00"> displayColourPicker</text>
</g>
</g>
</svg>
        <g id="navigator" transform="translate(0 0)" fill="#404254">
                <rect fill="#f2f5e9" fill-opacity="0.5" stroke="#606060" stroke-width=".5" x="0" y="0" width="60" height="60"/>
                <use id="zoomplus" xlink:href="#zoomPlus" x="17" y="9" onmousedown="handleZoom(evt,'in')"/>
                <use id="zoomminus" xlink:href="#zoomMin" x="42" y="9" onmousedown="handleZoom(evt,'out')"/>
                <use id="reset" xlink:href="#resetDef" x="30" y="36" onmousedown="handleReset()"/>
                <g id="arrowUp" xlink:href="#dirArrow" transform="translate(30 24)" onmousedown="handlePan(0,-1)">
                  <use xlink:href="#rim" fill="#404040">
                        <set attributeName="fill" to="#808080" begin="arrowUp.mouseover" end="arrowUp.mouseout"/>
                  </use>
                  <path fill="none" stroke="white" stroke-width="1.5" d="M0,-3.0v7 M-2.5,-0.5L0,-3.0L2.5,-0.5"/>
                </g>
                <g id="arrowRight" xlink:href="#dirArrow" transform="rotate(90) translate(36 -43)" onmousedown="handlePan(1,0)">
                  <use xlink:href="#rim" fill="#404040">
                        <set attributeName="fill" to="#808080" begin="arrowRight.mouseover" end="arrowRight.mouseout"/>
                  </use>
                  <path fill="none" stroke="white" stroke-width="1.5" d="M0,-3.0v7 M-2.5,-0.5L0,-3.0L2.5,-0.5"/>
                </g>
                <g id="arrowDown" xlink:href="#dirArrow" transform="rotate(180) translate(-30 -48)" onmousedown="handlePan(0,1)">
                  <use xlink:href="#rim" fill="#404040">
                        <set attributeName="fill" to="#808080" begin="arrowDown.mouseover" end="arrowDown.mouseout"/>
                  </use>
                  <path fill="none" stroke="white" stroke-width="1.5" d="M0,-3.0v7 M-2.5,-0.5L0,-3.0L2.5,-0.5"/>
                </g>
                <g id="arrowLeft" xlink:href="#dirArrow" transform="rotate(270) translate(-36 17)" onmousedown="handlePan(-1,0)">
                  <use xlink:href="#rim" fill="#404040">
                        <set attributeName="fill" to="#808080" begin="arrowLeft.mouseover" end="arrowLeft.mouseout"/>
                  </use>
                  <path fill="none" stroke="white" stroke-width="1.5" d="M0,-3.0v7 M-2.5,-0.5L0,-3.0L2.5,-0.5"/>
                </g>
        </g>
        <svg viewBox="0 0 15 15" width="100%" height="30px" preserveAspectRatio="xMaxYMin meet">
         <g id="arrow_out" transform="scale(0.3 0.3)">
          <a xlink:href="classfeatures_1_1_settings_bar__coll__graph_org.svg" target="_base">
           <rect id="button" ry="5" rx="5" y="6" x="6" height="38" width="38"
                fill="#f2f5e9" fill-opacity="0.5" stroke="#606060" stroke-width="1.0"/>
           <path id="arrow"
             d="M 11.500037,31.436501 C 11.940474,20.09759 22.043105,11.32322 32.158766,21.979434 L 37.068811,17.246167 C 37.068811,17.246167 37.088388,32 37.088388,32 L 22.160133,31.978069 C 22.160133,31.978069 26.997745,27.140456 26.997745,27.140456 C 18.528582,18.264221 13.291696,25.230495 11.500037,31.436501 z"
             style="fill:#404040;"/>
          </a>
         </g>
        </svg>
</svg>
