<?xml version="1.0" encoding="UTF-8" standalone="no"?>
<!DOCTYPE svg PUBLIC "-//W3C//DTD SVG 1.1//EN"
 "http://www.w3.org/Graphics/SVG/1.1/DTD/svg11.dtd">
<!-- Generated by graphviz version 2.36.0 (20140111.2315)
 -->
<!-- Title: command.IfElseCommand.execute Pages: 1 -->
<svg width="618pt" height="87pt"
 viewBox="0.00 0.00 618.00 87.00" xmlns="http://www.w3.org/2000/svg" xmlns:xlink="http://www.w3.org/1999/xlink">
<g id="graph0" class="graph" transform="scale(1 1) rotate(0) translate(4 83)">
<title>command.IfElseCommand.execute</title>
<polygon fill="white" stroke="none" points="-4,4 -4,-83 614,-83 614,4 -4,4"/>
<!-- Node1 -->
<g id="node1" class="node"><title>Node1</title>
<polygon fill="#bfbfbf" stroke="black" points="0.5,-29.5 0.5,-48.5 185.5,-48.5 185.5,-29.5 0.5,-29.5"/>
<text text-anchor="middle" x="93" y="-36.5" font-family="Helvetica,sans-Serif" font-size="10.00">command.IfElseCommand.execute</text>
</g>
<!-- Node2 -->
<g id="node2" class="node"><title>Node2</title>
<g id="a_node2"><a xlink:href="../../d7/d29/classcommand_1_1_basic_list_command.html#ae4c4456d483b7dd5f6e88dfb7dace4c1" target="_top" xlink:title="command.BasicListCommand.check\lListException">
<polygon fill="white" stroke="black" points="222.5,-49 222.5,-79 413.5,-79 413.5,-49 222.5,-49"/>
<text text-anchor="start" x="230.5" y="-67" font-family="Helvetica,sans-Serif" font-size="10.00">command.BasicListCommand.check</text>
<text text-anchor="middle" x="318" y="-56" font-family="Helvetica,sans-Serif" font-size="10.00">ListException</text>
</a>
</g>
</g>
<!-- Node1&#45;&gt;Node2 -->
<g id="edge1" class="edge"><title>Node1&#45;&gt;Node2</title>
<path fill="none" stroke="midnightblue" d="M178.943,-48.5227C189.78,-49.7377 200.973,-50.9925 212.078,-52.2375"/>
<polygon fill="midnightblue" stroke="midnightblue" points="211.912,-55.7407 222.24,-53.3767 212.692,-48.7843 211.912,-55.7407"/>
</g>
<!-- Node4 -->
<g id="node4" class="node"><title>Node4</title>
<g id="a_node4"><a xlink:href="../../d7/d29/classcommand_1_1_basic_list_command.html#a36b32271a84890af875a576eaf608aa3" target="_top" xlink:title="command.BasicListCommand.get\lBracketIndex">
<polygon fill="white" stroke="black" points="228.5,-0 228.5,-30 407.5,-30 407.5,-0 228.5,-0"/>
<text text-anchor="start" x="236.5" y="-18" font-family="Helvetica,sans-Serif" font-size="10.00">command.BasicListCommand.get</text>
<text text-anchor="middle" x="318" y="-7" font-family="Helvetica,sans-Serif" font-size="10.00">BracketIndex</text>
</a>
</g>
</g>
<!-- Node1&#45;&gt;Node4 -->
<g id="edge3" class="edge"><title>Node1&#45;&gt;Node4</title>
<path fill="none" stroke="midnightblue" d="M182.456,-29.4801C194.236,-28.2123 206.375,-26.9058 218.315,-25.6208"/>
<polygon fill="midnightblue" stroke="midnightblue" points="218.718,-29.0977 228.286,-24.5477 217.969,-22.1379 218.718,-29.0977"/>
</g>
<!-- Node3 -->
<g id="node3" class="node"><title>Node3</title>
<g id="a_node3"><a xlink:href="../../d7/d35/classcommand_1_1_command.html#ac2df873d4926bc6e08dba8c6272cff7e" target="_top" xlink:title="command.Command.toString">
<polygon fill="white" stroke="black" points="450,-54.5 450,-73.5 610,-73.5 610,-54.5 450,-54.5"/>
<text text-anchor="middle" x="530" y="-61.5" font-family="Helvetica,sans-Serif" font-size="10.00">command.Command.toString</text>
</a>
</g>
</g>
<!-- Node2&#45;&gt;Node3 -->
<g id="edge2" class="edge"><title>Node2&#45;&gt;Node3</title>
<path fill="none" stroke="midnightblue" d="M413.556,-64C422.242,-64 431.024,-64 439.661,-64"/>
<polygon fill="midnightblue" stroke="midnightblue" points="439.719,-67.5001 449.719,-64 439.719,-60.5001 439.719,-67.5001"/>
</g>
</g>
</svg>
