<?xml version="1.0" encoding="UTF-8" standalone="no"?>
<!DOCTYPE svg PUBLIC "-//W3C//DTD SVG 1.1//EN"
 "http://www.w3.org/Graphics/SVG/1.1/DTD/svg11.dtd">
<!-- Generated by graphviz version 2.36.0 (20140111.2315)
 -->
<!-- Title: components.TopPane.addItems Pages: 1 -->
<svg width="918pt" height="102pt"
 viewBox="0.00 0.00 918.00 102.26" xmlns="http://www.w3.org/2000/svg" xmlns:xlink="http://www.w3.org/1999/xlink">
<g id="graph0" class="graph" transform="scale(1 1) rotate(0) translate(4 98.2605)">
<title>components.TopPane.addItems</title>
<polygon fill="white" stroke="none" points="-4,4 -4,-98.2605 914,-98.2605 914,4 -4,4"/>
<!-- Node1 -->
<g id="node1" class="node"><title>Node1</title>
<polygon fill="#bfbfbf" stroke="black" points="0.5,-54.5 0.5,-73.5 167.5,-73.5 167.5,-54.5 0.5,-54.5"/>
<text text-anchor="middle" x="84" y="-61.5" font-family="Helvetica,sans-Serif" font-size="10.00">components.TopPane.addItems</text>
</g>
<!-- Node2 -->
<g id="node2" class="node"><title>Node2</title>
<g id="a_node2"><a xlink:href="../../d3/de0/classmain_application_1_1_g_u_i.html#a5b9d9bebac3a8ce813b0134ecdafc66d" target="_top" xlink:title="mainApplication.GUI.load\lPanes">
<polygon fill="white" stroke="black" points="204.5,-49 204.5,-79 341.5,-79 341.5,-49 204.5,-49"/>
<text text-anchor="start" x="212.5" y="-67" font-family="Helvetica,sans-Serif" font-size="10.00">mainApplication.GUI.load</text>
<text text-anchor="middle" x="273" y="-56" font-family="Helvetica,sans-Serif" font-size="10.00">Panes</text>
</a>
</g>
</g>
<!-- Node1&#45;&gt;Node2 -->
<g id="edge1" class="edge"><title>Node1&#45;&gt;Node2</title>
<path fill="none" stroke="midnightblue" d="M177.718,-64C186.73,-64 195.751,-64 204.447,-64"/>
<polygon fill="midnightblue" stroke="midnightblue" points="177.565,-60.5001 167.565,-64 177.565,-67.5001 177.565,-60.5001"/>
</g>
<!-- Node3 -->
<g id="node3" class="node"><title>Node3</title>
<g id="a_node3"><a xlink:href="../../d3/de0/classmain_application_1_1_g_u_i.html#af6bd387013dbd1d1daf030117da66c0e" target="_top" xlink:title="mainApplication.GUI.initiate">
<polygon fill="white" stroke="black" points="378.5,-54.5 378.5,-73.5 527.5,-73.5 527.5,-54.5 378.5,-54.5"/>
<text text-anchor="middle" x="453" y="-61.5" font-family="Helvetica,sans-Serif" font-size="10.00">mainApplication.GUI.initiate</text>
</a>
</g>
</g>
<!-- Node2&#45;&gt;Node3 -->
<g id="edge2" class="edge"><title>Node2&#45;&gt;Node3</title>
<path fill="none" stroke="midnightblue" d="M351.782,-64C360.576,-64 369.518,-64 378.258,-64"/>
<polygon fill="midnightblue" stroke="midnightblue" points="351.548,-60.5001 341.548,-64 351.548,-67.5001 351.548,-60.5001"/>
</g>
<!-- Node4 -->
<g id="node4" class="node"><title>Node4</title>
<g id="a_node4"><a xlink:href="../../d3/d04/classmain_application_1_1_g_u_i_shell.html#ac525a3e483dbe24e5f9f0257fe54521d" target="_top" xlink:title="mainApplication.GUIShell.\lGUIShell">
<polygon fill="white" stroke="black" points="770,-49 770,-79 910,-79 910,-49 770,-49"/>
<text text-anchor="start" x="778" y="-67" font-family="Helvetica,sans-Serif" font-size="10.00">mainApplication.GUIShell.</text>
<text text-anchor="middle" x="840" y="-56" font-family="Helvetica,sans-Serif" font-size="10.00">GUIShell</text>
</a>
</g>
</g>
<!-- Node3&#45;&gt;Node4 -->
<g id="edge3" class="edge"><title>Node3&#45;&gt;Node4</title>
<path fill="none" stroke="midnightblue" d="M498.835,-76.0673C518.648,-80.8049 542.321,-85.6625 564,-88 639.12,-96.0997 658.921,-96.4712 734,-88 750.352,-86.155 767.869,-82.7425 783.818,-79.0582"/>
<polygon fill="midnightblue" stroke="midnightblue" points="499.404,-72.603 488.858,-73.6148 497.733,-79.4007 499.404,-72.603"/>
</g>
<!-- Node5 -->
<g id="node5" class="node"><title>Node5</title>
<g id="a_node5"><a xlink:href="../../d3/d04/classmain_application_1_1_g_u_i_shell.html#a9df214dfffdce7a39bc6ac5e84ca1f0f" target="_top" xlink:title="mainApplication.GUIShell.create\lNewButton">
<polygon fill="white" stroke="black" points="564,-49 564,-79 734,-79 734,-49 564,-49"/>
<text text-anchor="start" x="572" y="-67" font-family="Helvetica,sans-Serif" font-size="10.00">mainApplication.GUIShell.create</text>
<text text-anchor="middle" x="649" y="-56" font-family="Helvetica,sans-Serif" font-size="10.00">NewButton</text>
</a>
</g>
</g>
<!-- Node3&#45;&gt;Node5 -->
<g id="edge4" class="edge"><title>Node3&#45;&gt;Node5</title>
<path fill="none" stroke="midnightblue" d="M537.668,-64C546.298,-64 555.071,-64 563.708,-64"/>
<polygon fill="midnightblue" stroke="midnightblue" points="537.62,-60.5001 527.62,-64 537.62,-67.5001 537.62,-60.5001"/>
</g>
<!-- Node6 -->
<g id="node6" class="node"><title>Node6</title>
<g id="a_node6"><a xlink:href="../../d3/d04/classmain_application_1_1_g_u_i_shell.html#af2f106fa7786f13ccc0202db53b559b9" target="_top" xlink:title="mainApplication.GUIShell.create\lOpenButton">
<polygon fill="white" stroke="black" points="564,-0 564,-30 734,-30 734,-0 564,-0"/>
<text text-anchor="start" x="572" y="-18" font-family="Helvetica,sans-Serif" font-size="10.00">mainApplication.GUIShell.create</text>
<text text-anchor="middle" x="649" y="-7" font-family="Helvetica,sans-Serif" font-size="10.00">OpenButton</text>
</a>
</g>
</g>
<!-- Node3&#45;&gt;Node6 -->
<g id="edge6" class="edge"><title>Node3&#45;&gt;Node6</title>
<path fill="none" stroke="midnightblue" d="M501.566,-51.9858C527.779,-45.365 560.566,-37.0839 588.466,-30.037"/>
<polygon fill="midnightblue" stroke="midnightblue" points="500.704,-48.5936 491.866,-54.436 502.418,-55.3805 500.704,-48.5936"/>
</g>
<!-- Node5&#45;&gt;Node4 -->
<g id="edge5" class="edge"><title>Node5&#45;&gt;Node4</title>
<path fill="none" stroke="midnightblue" d="M744.359,-64C752.965,-64 761.572,-64 769.896,-64"/>
<polygon fill="midnightblue" stroke="midnightblue" points="744.274,-60.5001 734.274,-64 744.274,-67.5001 744.274,-60.5001"/>
</g>
<!-- Node6&#45;&gt;Node4 -->
<g id="edge7" class="edge"><title>Node6&#45;&gt;Node4</title>
<path fill="none" stroke="midnightblue" d="M717.692,-32.5498C738.447,-37.9306 761.082,-43.799 781.119,-48.9938"/>
<polygon fill="midnightblue" stroke="midnightblue" points="718.549,-29.1563 707.991,-30.0346 716.792,-35.9323 718.549,-29.1563"/>
</g>
</g>
</svg>
