<?xml version="1.0" encoding="UTF-8" standalone="no"?>
<!DOCTYPE svg PUBLIC "-//W3C//DTD SVG 1.1//EN"
 "http://www.w3.org/Graphics/SVG/1.1/DTD/svg11.dtd">
<!-- Generated by graphviz version 2.36.0 (20140111.2315)
 -->
<!-- Title: features.ColorPickerFeature Pages: 1 -->
<svg width="191pt" height="84pt"
 viewBox="0.00 0.00 191.00 84.00" xmlns="http://www.w3.org/2000/svg" xmlns:xlink="http://www.w3.org/1999/xlink">
<g id="graph0" class="graph" transform="scale(1 1) rotate(0) translate(4 80)">
<title>features.ColorPickerFeature</title>
<polygon fill="white" stroke="none" points="-4,4 -4,-80 187,-80 187,4 -4,4"/>
<!-- Node1 -->
<g id="node1" class="node"><title>Node1</title>
<polygon fill="#bfbfbf" stroke="black" points="10.5,-0.5 10.5,-19.5 159.5,-19.5 159.5,-0.5 10.5,-0.5"/>
<text text-anchor="middle" x="85" y="-7.5" font-family="Helvetica,sans-Serif" font-size="10.00">features.ColorPickerFeature</text>
</g>
<!-- Node2 -->
<g id="node2" class="node"><title>Node2</title>
<polygon fill="white" stroke="#bfbfbf" points="0,-56.5 0,-75.5 70,-75.5 70,-56.5 0,-56.5"/>
<text text-anchor="middle" x="35" y="-63.5" font-family="Helvetica,sans-Serif" font-size="10.00">ColorPicker</text>
</g>
<!-- Node2&#45;&gt;Node1 -->
<g id="edge1" class="edge"><title>Node2&#45;&gt;Node1</title>
<path fill="none" stroke="midnightblue" d="M50.0763,-48.7175C58.8891,-39.1997 69.6659,-27.5608 76.8972,-19.7511"/>
<polygon fill="midnightblue" stroke="midnightblue" points="47.4824,-46.3674 43.2565,-56.083 52.6188,-51.1233 47.4824,-46.3674"/>
</g>
<!-- Node3 -->
<g id="node3" class="node"><title>Node3</title>
<g id="a_node3"><a xlink:href="../../d2/dfc/interfacefeatures_1_1_feature.html" target="_top" xlink:title="features.Feature">
<polygon fill="white" stroke="black" points="88.5,-56.5 88.5,-75.5 183.5,-75.5 183.5,-56.5 88.5,-56.5"/>
<text text-anchor="middle" x="136" y="-63.5" font-family="Helvetica,sans-Serif" font-size="10.00">features.Feature</text>
</a>
</g>
</g>
<!-- Node3&#45;&gt;Node1 -->
<g id="edge2" class="edge"><title>Node3&#45;&gt;Node1</title>
<path fill="none" stroke="midnightblue" d="M120.622,-48.7175C111.633,-39.1997 100.641,-27.5608 93.2649,-19.7511"/>
<polygon fill="midnightblue" stroke="midnightblue" points="118.168,-51.216 127.578,-56.083 123.257,-46.4096 118.168,-51.216"/>
</g>
</g>
</svg>
