<?xml version="1.0" encoding="UTF-8" standalone="no"?>
<!DOCTYPE svg PUBLIC "-//W3C//DTD SVG 1.1//EN"
 "http://www.w3.org/Graphics/SVG/1.1/DTD/svg11.dtd">
<!-- Generated by graphviz version 2.36.0 (20140111.2315)
 -->
<!-- Title: components.InfoPane Pages: 1 -->
<svg width="352pt" height="96pt"
 viewBox="0.00 0.00 352.00 96.00" xmlns="http://www.w3.org/2000/svg" xmlns:xlink="http://www.w3.org/1999/xlink">
<g id="graph0" class="graph" transform="scale(1 1) rotate(0) translate(4 92)">
<title>components.InfoPane</title>
<polygon fill="white" stroke="none" points="-4,4 -4,-92 348,-92 348,4 -4,4"/>
<!-- Node1 -->
<g id="node1" class="node"><title>Node1</title>
<polygon fill="#bfbfbf" stroke="black" points="66,-0.5 66,-19.5 186,-19.5 186,-0.5 66,-0.5"/>
<text text-anchor="middle" x="126" y="-7.5" font-family="Helvetica,sans-Serif" font-size="10.00">components.InfoPane</text>
</g>
<!-- Node2 -->
<g id="node2" class="node"><title>Node2</title>
<polygon fill="white" stroke="#bfbfbf" points="0,-68.5 0,-87.5 60,-87.5 60,-68.5 0,-68.5"/>
<text text-anchor="middle" x="30" y="-75.5" font-family="Helvetica,sans-Serif" font-size="10.00">FlowPane</text>
</g>
<!-- Node2&#45;&gt;Node1 -->
<g id="edge1" class="edge"><title>Node2&#45;&gt;Node1</title>
<path fill="none" stroke="midnightblue" d="M50.8966,-62.6336C69.9789,-49.5145 97.5622,-30.551 113.447,-19.6305"/>
<polygon fill="midnightblue" stroke="midnightblue" points="48.8079,-59.8222 42.5503,-68.3717 52.7736,-65.5905 48.8079,-59.8222"/>
</g>
<!-- Node3 -->
<g id="node3" class="node"><title>Node3</title>
<g id="a_node3"><a xlink:href="../../d2/dfc/interfacefeatures_1_1_feature.html" target="_top" xlink:title="features.Feature">
<polygon fill="white" stroke="black" points="78.5,-68.5 78.5,-87.5 173.5,-87.5 173.5,-68.5 78.5,-68.5"/>
<text text-anchor="middle" x="126" y="-75.5" font-family="Helvetica,sans-Serif" font-size="10.00">features.Feature</text>
</a>
</g>
</g>
<!-- Node3&#45;&gt;Node1 -->
<g id="edge2" class="edge"><title>Node3&#45;&gt;Node1</title>
<path fill="none" stroke="midnightblue" d="M126,-58.0413C126,-45.4724 126,-29.5631 126,-19.8411"/>
<polygon fill="midnightblue" stroke="midnightblue" points="122.5,-58.3716 126,-68.3717 129.5,-58.3717 122.5,-58.3716"/>
</g>
<!-- Node4 -->
<g id="node4" class="node"><title>Node4</title>
<polygon fill="white" stroke="#bfbfbf" points="192,-68.5 192,-87.5 344,-87.5 344,-68.5 192,-68.5"/>
<text text-anchor="middle" x="268" y="-75.5" font-family="Helvetica,sans-Serif" font-size="10.00">List&lt; components.InfoTab &gt;</text>
</g>
<!-- Node4&#45;&gt;Node1 -->
<g id="edge3" class="edge"><title>Node4&#45;&gt;Node1</title>
<path fill="none" stroke="#9a32cd" stroke-dasharray="5,2" d="M240.105,-64.0346C211.841,-50.898 168.915,-30.9463 144.569,-19.6305"/>
<polygon fill="#9a32cd" stroke="#9a32cd" points="238.892,-67.3307 249.436,-68.3717 241.843,-60.9828 238.892,-67.3307"/>
<text text-anchor="middle" x="230" y="-41.5" font-family="Helvetica,sans-Serif" font-size="10.00"> myTabs</text>
</g>
</g>
</svg>
