<?xml version="1.0" encoding="UTF-8" standalone="no"?>
<!DOCTYPE svg PUBLIC "-//W3C//DTD SVG 1.1//EN"
 "http://www.w3.org/Graphics/SVG/1.1/DTD/svg11.dtd">
<!-- Generated by graphviz version 2.36.0 (20140111.2315)
 -->
<!-- Title: command.XCoordinateCommand.execute Pages: 1 -->
<svg width="524pt" height="28pt"
 viewBox="0.00 0.00 524.00 28.00" xmlns="http://www.w3.org/2000/svg" xmlns:xlink="http://www.w3.org/1999/xlink">
<g id="graph0" class="graph" transform="scale(1 1) rotate(0) translate(4 24)">
<title>command.XCoordinateCommand.execute</title>
<polygon fill="white" stroke="none" points="-4,4 -4,-24 520,-24 520,4 -4,4"/>
<!-- Node1 -->
<g id="node1" class="node"><title>Node1</title>
<polygon fill="#bfbfbf" stroke="black" points="0,-0.5 0,-19.5 218,-19.5 218,-0.5 0,-0.5"/>
<text text-anchor="middle" x="109" y="-7.5" font-family="Helvetica,sans-Serif" font-size="10.00">command.XCoordinateCommand.execute</text>
</g>
<!-- Node2 -->
<g id="node2" class="node"><title>Node2</title>
<g id="a_node2"><a xlink:href="../../d4/d4a/classactor_1_1_turtle.html#a68c1e4d30e1f04bd7c4ab63a34a3e89e" target="_top" xlink:title="actor.Turtle.getX">
<polygon fill="white" stroke="black" points="254,-0.5 254,-19.5 348,-19.5 348,-0.5 254,-0.5"/>
<text text-anchor="middle" x="301" y="-7.5" font-family="Helvetica,sans-Serif" font-size="10.00">actor.Turtle.getX</text>
</a>
</g>
</g>
<!-- Node1&#45;&gt;Node2 -->
<g id="edge1" class="edge"><title>Node1&#45;&gt;Node2</title>
<path fill="none" stroke="midnightblue" d="M218.044,-10C226.856,-10 235.515,-10 243.71,-10"/>
<polygon fill="midnightblue" stroke="midnightblue" points="243.82,-13.5001 253.82,-10 243.82,-6.5001 243.82,-13.5001"/>
</g>
<!-- Node3 -->
<g id="node3" class="node"><title>Node3</title>
<g id="a_node3"><a xlink:href="../../da/d54/classproperties_1_1_position.html#a038c69f0a24a47be9e1602695a2c5b61" target="_top" xlink:title="properties.Position.getX">
<polygon fill="white" stroke="black" points="384.5,-0.5 384.5,-19.5 515.5,-19.5 515.5,-0.5 384.5,-0.5"/>
<text text-anchor="middle" x="450" y="-7.5" font-family="Helvetica,sans-Serif" font-size="10.00">properties.Position.getX</text>
</a>
</g>
</g>
<!-- Node2&#45;&gt;Node3 -->
<g id="edge2" class="edge"><title>Node2&#45;&gt;Node3</title>
<path fill="none" stroke="midnightblue" d="M348.108,-10C356.49,-10 365.425,-10 374.383,-10"/>
<polygon fill="midnightblue" stroke="midnightblue" points="374.478,-13.5001 384.478,-10 374.478,-6.5001 374.478,-13.5001"/>
</g>
</g>
</svg>
