<?xml version="1.0" encoding="UTF-8" standalone="no"?>
<!DOCTYPE svg PUBLIC "-//W3C//DTD SVG 1.1//EN"
 "http://www.w3.org/Graphics/SVG/1.1/DTD/svg11.dtd">
<!-- Generated by graphviz version 2.36.0 (20140111.2315)
 -->
<!-- Title: command.AskCommand.execute Pages: 1 -->
<svg width="846pt" height="230pt"
 viewBox="0.00 0.00 846.00 230.00" xmlns="http://www.w3.org/2000/svg" xmlns:xlink="http://www.w3.org/1999/xlink">
<g id="graph0" class="graph" transform="scale(1 1) rotate(0) translate(4 226)">
<title>command.AskCommand.execute</title>
<polygon fill="white" stroke="none" points="-4,4 -4,-226 842,-226 842,4 -4,4"/>
<!-- Node1 -->
<g id="node1" class="node"><title>Node1</title>
<polygon fill="#bfbfbf" stroke="black" points="0.5,-115.5 0.5,-134.5 177.5,-134.5 177.5,-115.5 0.5,-115.5"/>
<text text-anchor="middle" x="89" y="-122.5" font-family="Helvetica,sans-Serif" font-size="10.00">command.AskCommand.execute</text>
</g>
<!-- Node2 -->
<g id="node2" class="node"><title>Node2</title>
<g id="a_node2"><a xlink:href="../../d7/d29/classcommand_1_1_basic_list_command.html#ae4c4456d483b7dd5f6e88dfb7dace4c1" target="_top" xlink:title="command.BasicListCommand.check\lListException">
<polygon fill="white" stroke="black" points="230.5,-192 230.5,-222 421.5,-222 421.5,-192 230.5,-192"/>
<text text-anchor="start" x="238.5" y="-210" font-family="Helvetica,sans-Serif" font-size="10.00">command.BasicListCommand.check</text>
<text text-anchor="middle" x="326" y="-199" font-family="Helvetica,sans-Serif" font-size="10.00">ListException</text>
</a>
</g>
</g>
<!-- Node1&#45;&gt;Node2 -->
<g id="edge1" class="edge"><title>Node1&#45;&gt;Node2</title>
<path fill="none" stroke="midnightblue" d="M110.734,-134.697C135.095,-145.855 176.905,-164.272 214,-177 226.639,-181.337 240.257,-185.456 253.479,-189.176"/>
<polygon fill="midnightblue" stroke="midnightblue" points="252.918,-192.652 263.489,-191.94 254.781,-185.905 252.918,-192.652"/>
</g>
<!-- Node4 -->
<g id="node4" class="node"><title>Node4</title>
<g id="a_node4"><a xlink:href="../../d7/d29/classcommand_1_1_basic_list_command.html#a36b32271a84890af875a576eaf608aa3" target="_top" xlink:title="command.BasicListCommand.get\lBracketIndex">
<polygon fill="white" stroke="black" points="474.5,-129 474.5,-159 653.5,-159 653.5,-129 474.5,-129"/>
<text text-anchor="start" x="482.5" y="-147" font-family="Helvetica,sans-Serif" font-size="10.00">command.BasicListCommand.get</text>
<text text-anchor="middle" x="564" y="-136" font-family="Helvetica,sans-Serif" font-size="10.00">BracketIndex</text>
</a>
</g>
</g>
<!-- Node1&#45;&gt;Node4 -->
<g id="edge3" class="edge"><title>Node1&#45;&gt;Node4</title>
<path fill="none" stroke="midnightblue" d="M140.477,-134.513C162.903,-138.279 189.678,-142.147 214,-144 298.216,-150.415 394.194,-149.844 464.156,-147.993"/>
<polygon fill="midnightblue" stroke="midnightblue" points="464.387,-151.488 474.285,-147.711 464.192,-144.49 464.387,-151.488"/>
</g>
<!-- Node5 -->
<g id="node5" class="node"><title>Node5</title>
<g id="a_node5"><a xlink:href="../../db/d0a/classcommand_1_1_base_multi_turtle_command.html#a5ead6ff46b47c61f1541763f63db0dd8" target="_top" xlink:title="command.BaseMultiTurtleCommand.getIds">
<polygon fill="white" stroke="black" points="214.5,-115.5 214.5,-134.5 437.5,-134.5 437.5,-115.5 214.5,-115.5"/>
<text text-anchor="middle" x="326" y="-122.5" font-family="Helvetica,sans-Serif" font-size="10.00">command.BaseMultiTurtleCommand.getIds</text>
</a>
</g>
</g>
<!-- Node1&#45;&gt;Node5 -->
<g id="edge4" class="edge"><title>Node1&#45;&gt;Node5</title>
<path fill="none" stroke="midnightblue" d="M177.505,-125C186.228,-125 195.187,-125 204.172,-125"/>
<polygon fill="midnightblue" stroke="midnightblue" points="204.317,-128.5 214.317,-125 204.317,-121.5 204.317,-128.5"/>
</g>
<!-- Node6 -->
<g id="node6" class="node"><title>Node6</title>
<g id="a_node6"><a xlink:href="../../db/d0a/classcommand_1_1_base_multi_turtle_command.html#af7226b2d0e5eaaa0ae16ec02c67dccf7" target="_top" xlink:title="command.BaseMultiTurtleCommand.get\lIdsList">
<polygon fill="white" stroke="black" points="221.5,-66 221.5,-96 430.5,-96 430.5,-66 221.5,-66"/>
<text text-anchor="start" x="229.5" y="-84" font-family="Helvetica,sans-Serif" font-size="10.00">command.BaseMultiTurtleCommand.get</text>
<text text-anchor="middle" x="326" y="-73" font-family="Helvetica,sans-Serif" font-size="10.00">IdsList</text>
</a>
</g>
</g>
<!-- Node1&#45;&gt;Node6 -->
<g id="edge5" class="edge"><title>Node1&#45;&gt;Node6</title>
<path fill="none" stroke="midnightblue" d="M140.992,-115.453C168.277,-110.344 202.696,-103.899 234.364,-97.9701"/>
<polygon fill="midnightblue" stroke="midnightblue" points="235.352,-101.346 244.537,-96.0654 234.064,-94.4656 235.352,-101.346"/>
</g>
<!-- Node7 -->
<g id="node7" class="node"><title>Node7</title>
<g id="a_node7"><a xlink:href="../../db/d0a/classcommand_1_1_base_multi_turtle_command.html#a18475dfa4cad362fd566082a1cba7f59" target="_top" xlink:title="command.BaseMultiTurtleCommand.tell">
<polygon fill="white" stroke="black" points="222,-27.5 222,-46.5 430,-46.5 430,-27.5 222,-27.5"/>
<text text-anchor="middle" x="326" y="-34.5" font-family="Helvetica,sans-Serif" font-size="10.00">command.BaseMultiTurtleCommand.tell</text>
</a>
</g>
</g>
<!-- Node1&#45;&gt;Node7 -->
<g id="edge7" class="edge"><title>Node1&#45;&gt;Node7</title>
<path fill="none" stroke="midnightblue" d="M103.762,-115.27C125.891,-100.117 171.244,-71.0597 214,-56 221.953,-53.1989 230.376,-50.8024 238.885,-48.7536"/>
<polygon fill="midnightblue" stroke="midnightblue" points="239.902,-52.1124 248.891,-46.5048 238.367,-45.2828 239.902,-52.1124"/>
</g>
<!-- Node3 -->
<g id="node3" class="node"><title>Node3</title>
<g id="a_node3"><a xlink:href="../../d7/d35/classcommand_1_1_command.html#ac2df873d4926bc6e08dba8c6272cff7e" target="_top" xlink:title="command.Command.toString">
<polygon fill="white" stroke="black" points="484,-197.5 484,-216.5 644,-216.5 644,-197.5 484,-197.5"/>
<text text-anchor="middle" x="564" y="-204.5" font-family="Helvetica,sans-Serif" font-size="10.00">command.Command.toString</text>
</a>
</g>
</g>
<!-- Node2&#45;&gt;Node3 -->
<g id="edge2" class="edge"><title>Node2&#45;&gt;Node3</title>
<path fill="none" stroke="midnightblue" d="M421.63,-207C438.728,-207 456.507,-207 473.454,-207"/>
<polygon fill="midnightblue" stroke="midnightblue" points="473.885,-210.5 483.885,-207 473.885,-203.5 473.885,-210.5"/>
</g>
<!-- Node6&#45;&gt;Node4 -->
<g id="edge6" class="edge"><title>Node6&#45;&gt;Node4</title>
<path fill="none" stroke="midnightblue" d="M397.357,-96.0251C410.889,-99.1465 424.918,-102.543 438,-106 460.63,-111.98 485.327,-119.313 506.748,-125.937"/>
<polygon fill="midnightblue" stroke="midnightblue" points="505.752,-129.293 516.34,-128.924 507.833,-122.609 505.752,-129.293"/>
</g>
<!-- Node8 -->
<g id="node8" class="node"><title>Node8</title>
<g id="a_node8"><a xlink:href="../../de/d19/classworkspace_1_1_workspace.html#aaea1cb2eb261be3e966bb85bc2bfbd51" target="_top" xlink:title="workspace.Workspace.getTurtles">
<polygon fill="white" stroke="black" points="479,-49.5 479,-68.5 649,-68.5 649,-49.5 479,-49.5"/>
<text text-anchor="middle" x="564" y="-56.5" font-family="Helvetica,sans-Serif" font-size="10.00">workspace.Workspace.getTurtles</text>
</a>
</g>
</g>
<!-- Node7&#45;&gt;Node8 -->
<g id="edge8" class="edge"><title>Node7&#45;&gt;Node8</title>
<path fill="none" stroke="midnightblue" d="M429.14,-46.5216C442.214,-47.7403 455.552,-48.9836 468.497,-50.1904"/>
<polygon fill="midnightblue" stroke="midnightblue" points="468.499,-53.7057 478.781,-51.1491 469.149,-46.7359 468.499,-53.7057"/>
</g>
<!-- Node9 -->
<g id="node9" class="node"><title>Node9</title>
<g id="a_node9"><a xlink:href="../../de/d19/classworkspace_1_1_workspace.html#aecaf73d3c2b2008aac032adc4a4f759f" target="_top" xlink:title="workspace.Workspace.create\lTurtle">
<polygon fill="white" stroke="black" points="486.5,-0 486.5,-30 641.5,-30 641.5,-0 486.5,-0"/>
<text text-anchor="start" x="494.5" y="-18" font-family="Helvetica,sans-Serif" font-size="10.00">workspace.Workspace.create</text>
<text text-anchor="middle" x="564" y="-7" font-family="Helvetica,sans-Serif" font-size="10.00">Turtle</text>
</a>
</g>
</g>
<!-- Node7&#45;&gt;Node9 -->
<g id="edge9" class="edge"><title>Node7&#45;&gt;Node9</title>
<path fill="none" stroke="midnightblue" d="M429.14,-27.4784C444.878,-26.0114 460.998,-24.5087 476.355,-23.0771"/>
<polygon fill="midnightblue" stroke="midnightblue" points="476.692,-26.5609 486.324,-22.1478 476.042,-19.5911 476.692,-26.5609"/>
</g>
<!-- Node10 -->
<g id="node10" class="node"><title>Node10</title>
<g id="a_node10"><a xlink:href="../../d4/d4a/classactor_1_1_turtle.html#aef4e04d5061408a3d5c35eb27cc7f96f" target="_top" xlink:title="actor.Turtle.setChangedand\lNotify">
<polygon fill="white" stroke="black" points="690,-0 690,-30 838,-30 838,-0 690,-0"/>
<text text-anchor="start" x="698" y="-18" font-family="Helvetica,sans-Serif" font-size="10.00">actor.Turtle.setChangedand</text>
<text text-anchor="middle" x="764" y="-7" font-family="Helvetica,sans-Serif" font-size="10.00">Notify</text>
</a>
</g>
</g>
<!-- Node9&#45;&gt;Node10 -->
<g id="edge10" class="edge"><title>Node9&#45;&gt;Node10</title>
<path fill="none" stroke="midnightblue" d="M641.552,-15C654.089,-15 667.132,-15 679.82,-15"/>
<polygon fill="midnightblue" stroke="midnightblue" points="679.903,-18.5001 689.903,-15 679.903,-11.5001 679.903,-18.5001"/>
</g>
</g>
</svg>
