<?xml version="1.0" encoding="UTF-8" standalone="no"?>
<!DOCTYPE svg PUBLIC "-//W3C//DTD SVG 1.1//EN"
 "http://www.w3.org/Graphics/SVG/1.1/DTD/svg11.dtd">
<!-- Generated by graphviz version 2.36.0 (20140111.2315)
 -->
<!-- Title: command.PenQueryCommand.execute Pages: 1 -->
<svg width="356pt" height="66pt"
 viewBox="0.00 0.00 356.00 66.00" xmlns="http://www.w3.org/2000/svg" xmlns:xlink="http://www.w3.org/1999/xlink">
<g id="graph0" class="graph" transform="scale(1 1) rotate(0) translate(4 62)">
<title>command.PenQueryCommand.execute</title>
<polygon fill="white" stroke="none" points="-4,4 -4,-62 352,-62 352,4 -4,4"/>
<!-- Node1 -->
<g id="node1" class="node"><title>Node1</title>
<polygon fill="#bfbfbf" stroke="black" points="0,-19.5 0,-38.5 206,-38.5 206,-19.5 0,-19.5"/>
<text text-anchor="middle" x="103" y="-26.5" font-family="Helvetica,sans-Serif" font-size="10.00">command.PenQueryCommand.execute</text>
</g>
<!-- Node2 -->
<g id="node2" class="node"><title>Node2</title>
<g id="a_node2"><a xlink:href="../../d4/d4a/classactor_1_1_turtle.html#ae431de4e8d24c665f1f49ea5bd77ca09" target="_top" xlink:title="actor.Turtle.getPen">
<polygon fill="white" stroke="black" points="242,-38.5 242,-57.5 348,-57.5 348,-38.5 242,-38.5"/>
<text text-anchor="middle" x="295" y="-45.5" font-family="Helvetica,sans-Serif" font-size="10.00">actor.Turtle.getPen</text>
</a>
</g>
</g>
<!-- Node1&#45;&gt;Node2 -->
<g id="edge1" class="edge"><title>Node1&#45;&gt;Node2</title>
<path fill="none" stroke="midnightblue" d="M199.278,-38.5278C210.25,-39.625 221.218,-40.7218 231.594,-41.7594"/>
<polygon fill="midnightblue" stroke="midnightblue" points="231.454,-45.2628 241.753,-42.7753 232.151,-38.2975 231.454,-45.2628"/>
</g>
<!-- Node3 -->
<g id="node3" class="node"><title>Node3</title>
<g id="a_node3"><a xlink:href="../../da/d85/classactor_1_1_pen.html#a0855052755119e7371ad0a3eb268b3a9" target="_top" xlink:title="actor.Pen.isDown">
<polygon fill="white" stroke="black" points="246,-0.5 246,-19.5 344,-19.5 344,-0.5 246,-0.5"/>
<text text-anchor="middle" x="295" y="-7.5" font-family="Helvetica,sans-Serif" font-size="10.00">actor.Pen.isDown</text>
</a>
</g>
</g>
<!-- Node1&#45;&gt;Node3 -->
<g id="edge2" class="edge"><title>Node1&#45;&gt;Node3</title>
<path fill="none" stroke="midnightblue" d="M199.278,-19.4722C211.613,-18.2387 223.942,-17.0058 235.433,-15.8567"/>
<polygon fill="midnightblue" stroke="midnightblue" points="236.124,-19.3052 245.726,-14.8274 235.427,-12.3399 236.124,-19.3052"/>
</g>
</g>
</svg>
