<?xml version="1.0" encoding="UTF-8" standalone="no"?>
<!DOCTYPE svg PUBLIC "-//W3C//DTD SVG 1.1//EN"
 "http://www.w3.org/Graphics/SVG/1.1/DTD/svg11.dtd">
<!-- Generated by graphviz version 2.36.0 (20140111.2315)
 -->
<!-- Title: features.RunButtonFeature Pages: 1 -->
<svg width="172pt" height="84pt"
 viewBox="0.00 0.00 172.00 84.00" xmlns="http://www.w3.org/2000/svg" xmlns:xlink="http://www.w3.org/1999/xlink">
<g id="graph0" class="graph" transform="scale(1 1) rotate(0) translate(4 80)">
<title>features.RunButtonFeature</title>
<polygon fill="white" stroke="none" points="-4,4 -4,-80 168,-80 168,4 -4,4"/>
<!-- Node1 -->
<g id="node1" class="node"><title>Node1</title>
<polygon fill="#bfbfbf" stroke="black" points="-0.5,-0.5 -0.5,-19.5 144.5,-19.5 144.5,-0.5 -0.5,-0.5"/>
<text text-anchor="middle" x="72" y="-7.5" font-family="Helvetica,sans-Serif" font-size="10.00">features.RunButtonFeature</text>
</g>
<!-- Node2 -->
<g id="node2" class="node"><title>Node2</title>
<polygon fill="white" stroke="#bfbfbf" points="2.5,-56.5 2.5,-75.5 51.5,-75.5 51.5,-56.5 2.5,-56.5"/>
<text text-anchor="middle" x="27" y="-63.5" font-family="Helvetica,sans-Serif" font-size="10.00">Button</text>
</g>
<!-- Node2&#45;&gt;Node1 -->
<g id="edge1" class="edge"><title>Node2&#45;&gt;Node1</title>
<path fill="none" stroke="midnightblue" d="M41.0467,-48.144C48.8869,-38.7357 58.3295,-27.4046 64.7074,-19.7511"/>
<polygon fill="midnightblue" stroke="midnightblue" points="38.1439,-46.1601 34.4308,-56.083 43.5215,-50.6414 38.1439,-46.1601"/>
</g>
<!-- Node3 -->
<g id="node3" class="node"><title>Node3</title>
<g id="a_node3"><a xlink:href="../../d2/dfc/interfacefeatures_1_1_feature.html" target="_top" xlink:title="features.Feature">
<polygon fill="white" stroke="black" points="69.5,-56.5 69.5,-75.5 164.5,-75.5 164.5,-56.5 69.5,-56.5"/>
<text text-anchor="middle" x="117" y="-63.5" font-family="Helvetica,sans-Serif" font-size="10.00">features.Feature</text>
</a>
</g>
</g>
<!-- Node3&#45;&gt;Node1 -->
<g id="edge2" class="edge"><title>Node3&#45;&gt;Node1</title>
<path fill="none" stroke="midnightblue" d="M102.953,-48.144C95.1131,-38.7357 85.6705,-27.4046 79.2926,-19.7511"/>
<polygon fill="midnightblue" stroke="midnightblue" points="100.479,-50.6414 109.569,-56.083 105.856,-46.1601 100.479,-50.6414"/>
</g>
</g>
</svg>
