<?xml version="1.0" encoding="UTF-8" standalone="no"?>
<!DOCTYPE svg PUBLIC "-//W3C//DTD SVG 1.1//EN"
 "http://www.w3.org/Graphics/SVG/1.1/DTD/svg11.dtd">
<!-- Generated by graphviz version 2.36.0 (20140111.2315)
 -->
<!-- Title: actor.Pen.isDown Pages: 1 -->
<!--zoomable 71 -->
<svg id="main" version="1.1" xmlns="http://www.w3.org/2000/svg" xmlns:xlink="http://www.w3.org/1999/xlink" xml:space="preserve" onload="init(evt)">
<style type="text/css"><![CDATA[
.edge:hover path { stroke: red; }
.edge:hover polygon { stroke: red; fill: red; }
]]></style>
<script type="text/javascript"><![CDATA[
var edges = document.getElementsByTagName('g');
if (edges && edges.length) {
  for (var i=0;i<edges.length;i++) {
    if (edges[i].id.substr(0,4)=='edge') {
      edges[i].setAttribute('class','edge');
    }
  }
}
]]></script>
        <defs>
                <circle id="rim" cx="0" cy="0" r="7"/>
                <circle id="rim2" cx="0" cy="0" r="3.5"/>
                <g id="zoomPlus">
                        <use xlink:href="#rim" fill="#404040">
                                <set attributeName="fill" to="#808080" begin="zoomplus.mouseover" end="zoomplus.mouseout"/>
                        </use>
                        <path d="M-4,0h8M0,-4v8" fill="none" stroke="white" stroke-width="1.5" pointer-events="none"/>
                </g>
                <g id="zoomMin">
                        <use xlink:href="#rim" fill="#404040">
                                <set attributeName="fill" to="#808080" begin="zoomminus.mouseover" end="zoomminus.mouseout"/>
                        </use>
                        <path d="M-4,0h8" fill="none" stroke="white" stroke-width="1.5" pointer-events="none"/>
                </g>
                <g id="dirArrow">
                        <path fill="none" stroke="white" stroke-width="1.5" d="M0,-3.0v7 M-2.5,-0.5L0,-3.0L2.5,-0.5"/>
                </g>
               <g id="resetDef">
                       <use xlink:href="#rim2" fill="#404040">
                               <set attributeName="fill" to="#808080" begin="reset.mouseover" end="reset.mouseout"/>
                       </use>
               </g>
        </defs>

<script type="text/javascript">
var viewWidth = 962;
var viewHeight = 71;
var sectionId = 'dynsection-3';
</script>
<script xlink:href="../../svgpan.js"/>
<svg id="graph" class="graph">
<g id="viewport">
<title>actor.Pen.isDown</title>
<polygon fill="white" stroke="none" points="-4,4 -4,-67 958,-67 958,4 -4,4"/>
<!-- Node1 -->
<g id="node1" class="node"><title>Node1</title>
<polygon fill="#bfbfbf" stroke="black" points="0,-24.5 0,-43.5 98,-43.5 98,-24.5 0,-24.5"/>
<text text-anchor="middle" x="49" y="-31.5" font-family="Helvetica,sans-Serif" font-size="10.00">actor.Pen.isDown</text>
</g>
<!-- Node2 -->
<g id="node2" class="node"><title>Node2</title>
<g id="a_node2"><a xlink:href="../../df/de8/classcommand_1_1_pen_query_command.html#a6983b86a954355246cf2eefda673a8f4" target="_top" xlink:title="command.PenQueryCommand.execute">
<polygon fill="white" stroke="black" points="134,-43.5 134,-62.5 340,-62.5 340,-43.5 134,-43.5"/>
<text text-anchor="middle" x="237" y="-50.5" font-family="Helvetica,sans-Serif" font-size="10.00">command.PenQueryCommand.execute</text>
</a>
</g>
</g>
<!-- Node1&#45;&gt;Node2 -->
<g id="edge1" class="edge"><title>Node1&#45;&gt;Node2</title>
<path fill="none" stroke="midnightblue" d="M108.589,-39.9849C119.492,-41.0987 131.13,-42.2875 142.773,-43.4768"/>
<polygon fill="midnightblue" stroke="midnightblue" points="108.688,-36.4769 98.3838,-38.9424 107.976,-43.4406 108.688,-36.4769"/>
</g>
<!-- Node3 -->
<g id="node3" class="node"><title>Node3</title>
<g id="a_node3"><a xlink:href="../../de/ddd/classproperties_1_1_pen_properties.html#ab2d006d729cd90544169d82369be8fb1" target="_top" xlink:title="properties.PenProperties.isDown">
<polygon fill="white" stroke="black" points="151,-5.5 151,-24.5 323,-24.5 323,-5.5 151,-5.5"/>
<text text-anchor="middle" x="237" y="-12.5" font-family="Helvetica,sans-Serif" font-size="10.00">properties.PenProperties.isDown</text>
</a>
</g>
</g>
<!-- Node1&#45;&gt;Node3 -->
<g id="edge2" class="edge"><title>Node1&#45;&gt;Node3</title>
<path fill="none" stroke="midnightblue" d="M108.421,-28.0322C121.864,-26.6591 136.43,-25.1711 150.75,-23.7084"/>
<polygon fill="midnightblue" stroke="midnightblue" points="107.976,-24.5594 98.3838,-29.0576 108.688,-31.5231 107.976,-24.5594"/>
</g>
<!-- Node4 -->
<g id="node4" class="node"><title>Node4</title>
<g id="a_node4"><a xlink:href="../../d6/d68/classcomponents_1_1_turtle_manager.html#adfed5450fa1785d7798cf070dd4cba86" target="_top" xlink:title="components.TurtleManager.update\lPenProperties">
<polygon fill="white" stroke="black" points="376.5,-0 376.5,-30 559.5,-30 559.5,-0 376.5,-0"/>
<text text-anchor="start" x="384.5" y="-18" font-family="Helvetica,sans-Serif" font-size="10.00">components.TurtleManager.update</text>
<text text-anchor="middle" x="468" y="-7" font-family="Helvetica,sans-Serif" font-size="10.00">PenProperties</text>
</a>
</g>
</g>
<!-- Node3&#45;&gt;Node4 -->
<g id="edge3" class="edge"><title>Node3&#45;&gt;Node4</title>
<path fill="none" stroke="midnightblue" d="M333.501,-15C347.664,-15 362.226,-15 376.288,-15"/>
<polygon fill="midnightblue" stroke="midnightblue" points="333.271,-11.5001 323.271,-15 333.271,-18.5001 333.271,-11.5001"/>
</g>
<!-- Node5 -->
<g id="node5" class="node"><title>Node5</title>
<g id="a_node5"><a xlink:href="../../da/d5b/classcomponents_1_1_center_pane.html#a081e5354b96cbd91679d1ce0c60aa1d2" target="_top" xlink:title="components.CenterPane.update\lPenProperties">
<polygon fill="white" stroke="black" points="596,-0 596,-30 768,-30 768,-0 596,-0"/>
<text text-anchor="start" x="604" y="-18" font-family="Helvetica,sans-Serif" font-size="10.00">components.CenterPane.update</text>
<text text-anchor="middle" x="682" y="-7" font-family="Helvetica,sans-Serif" font-size="10.00">PenProperties</text>
</a>
</g>
</g>
<!-- Node4&#45;&gt;Node5 -->
<g id="edge4" class="edge"><title>Node4&#45;&gt;Node5</title>
<path fill="none" stroke="midnightblue" d="M569.733,-15C578.462,-15 587.238,-15 595.825,-15"/>
<polygon fill="midnightblue" stroke="midnightblue" points="569.522,-11.5001 559.522,-15 569.522,-18.5001 569.522,-11.5001"/>
</g>
<!-- Node6 -->
<g id="node6" class="node"><title>Node6</title>
<g id="a_node6"><a xlink:href="../../d3/de0/classmain_application_1_1_g_u_i.html#ad575c58d2f282f0123d80fb31c11553e" target="_top" xlink:title="mainApplication.GUI.update">
<polygon fill="white" stroke="black" points="804,-5.5 804,-24.5 954,-24.5 954,-5.5 804,-5.5"/>
<text text-anchor="middle" x="879" y="-12.5" font-family="Helvetica,sans-Serif" font-size="10.00">mainApplication.GUI.update</text>
</a>
</g>
</g>
<!-- Node5&#45;&gt;Node6 -->
<g id="edge5" class="edge"><title>Node5&#45;&gt;Node6</title>
<path fill="none" stroke="midnightblue" d="M778.319,-15C786.923,-15 795.549,-15 803.929,-15"/>
<polygon fill="midnightblue" stroke="midnightblue" points="778.246,-11.5001 768.246,-15 778.246,-18.5001 778.246,-11.5001"/>
</g>
</g>
</svg>
        <g id="navigator" transform="translate(0 0)" fill="#404254">
                <rect fill="#f2f5e9" fill-opacity="0.5" stroke="#606060" stroke-width=".5" x="0" y="0" width="60" height="60"/>
                <use id="zoomplus" xlink:href="#zoomPlus" x="17" y="9" onmousedown="handleZoom(evt,'in')"/>
                <use id="zoomminus" xlink:href="#zoomMin" x="42" y="9" onmousedown="handleZoom(evt,'out')"/>
                <use id="reset" xlink:href="#resetDef" x="30" y="36" onmousedown="handleReset()"/>
                <g id="arrowUp" xlink:href="#dirArrow" transform="translate(30 24)" onmousedown="handlePan(0,-1)">
                  <use xlink:href="#rim" fill="#404040">
                        <set attributeName="fill" to="#808080" begin="arrowUp.mouseover" end="arrowUp.mouseout"/>
                  </use>
                  <path fill="none" stroke="white" stroke-width="1.5" d="M0,-3.0v7 M-2.5,-0.5L0,-3.0L2.5,-0.5"/>
                </g>
                <g id="arrowRight" xlink:href="#dirArrow" transform="rotate(90) translate(36 -43)" onmousedown="handlePan(1,0)">
                  <use xlink:href="#rim" fill="#404040">
                        <set attributeName="fill" to="#808080" begin="arrowRight.mouseover" end="arrowRight.mouseout"/>
                  </use>
                  <path fill="none" stroke="white" stroke-width="1.5" d="M0,-3.0v7 M-2.5,-0.5L0,-3.0L2.5,-0.5"/>
                </g>
                <g id="arrowDown" xlink:href="#dirArrow" transform="rotate(180) translate(-30 -48)" onmousedown="handlePan(0,1)">
                  <use xlink:href="#rim" fill="#404040">
                        <set attributeName="fill" to="#808080" begin="arrowDown.mouseover" end="arrowDown.mouseout"/>
                  </use>
                  <path fill="none" stroke="white" stroke-width="1.5" d="M0,-3.0v7 M-2.5,-0.5L0,-3.0L2.5,-0.5"/>
                </g>
                <g id="arrowLeft" xlink:href="#dirArrow" transform="rotate(270) translate(-36 17)" onmousedown="handlePan(-1,0)">
                  <use xlink:href="#rim" fill="#404040">
                        <set attributeName="fill" to="#808080" begin="arrowLeft.mouseover" end="arrowLeft.mouseout"/>
                  </use>
                  <path fill="none" stroke="white" stroke-width="1.5" d="M0,-3.0v7 M-2.5,-0.5L0,-3.0L2.5,-0.5"/>
                </g>
        </g>
        <svg viewBox="0 0 15 15" width="100%" height="30px" preserveAspectRatio="xMaxYMin meet">
         <g id="arrow_out" transform="scale(0.3 0.3)">
          <a xlink:href="classactor_1_1_pen_a0855052755119e7371ad0a3eb268b3a9_icgraph_org.svg" target="_base">
           <rect id="button" ry="5" rx="5" y="6" x="6" height="38" width="38"
                fill="#f2f5e9" fill-opacity="0.5" stroke="#606060" stroke-width="1.0"/>
           <path id="arrow"
             d="M 11.500037,31.436501 C 11.940474,20.09759 22.043105,11.32322 32.158766,21.979434 L 37.068811,17.246167 C 37.068811,17.246167 37.088388,32 37.088388,32 L 22.160133,31.978069 C 22.160133,31.978069 26.997745,27.140456 26.997745,27.140456 C 18.528582,18.264221 13.291696,25.230495 11.500037,31.436501 z"
             style="fill:#404040;"/>
          </a>
         </g>
        </svg>
</svg>
