<?xml version="1.0" encoding="UTF-8" standalone="no"?>
<!DOCTYPE svg PUBLIC "-//W3C//DTD SVG 1.1//EN"
 "http://www.w3.org/Graphics/SVG/1.1/DTD/svg11.dtd">
<!-- Generated by graphviz version 2.36.0 (20140111.2315)
 -->
<!-- Title: actor.Pen.getColorIndex Pages: 1 -->
<svg width="1010pt" height="77pt"
 viewBox="0.00 0.00 1010.00 77.00" xmlns="http://www.w3.org/2000/svg" xmlns:xlink="http://www.w3.org/1999/xlink">
<g id="graph0" class="graph" transform="scale(1 1) rotate(0) translate(4 73)">
<title>actor.Pen.getColorIndex</title>
<polygon fill="white" stroke="none" points="-4,4 -4,-73 1006,-73 1006,4 -4,4"/>
<!-- Node1 -->
<g id="node1" class="node"><title>Node1</title>
<polygon fill="#bfbfbf" stroke="black" points="0.5,-27.5 0.5,-46.5 131.5,-46.5 131.5,-27.5 0.5,-27.5"/>
<text text-anchor="middle" x="66" y="-34.5" font-family="Helvetica,sans-Serif" font-size="10.00">actor.Pen.getColorIndex</text>
</g>
<!-- Node2 -->
<g id="node2" class="node"><title>Node2</title>
<g id="a_node2"><a xlink:href="../../d5/d3d/classcommand_1_1_get_pen_color_command.html#a094c0c27dead6aa3fe8800111a2601a2" target="_top" xlink:title="command.GetPenColorCommand.execute">
<polygon fill="white" stroke="black" points="168,-49.5 168,-68.5 388,-68.5 388,-49.5 168,-49.5"/>
<text text-anchor="middle" x="278" y="-56.5" font-family="Helvetica,sans-Serif" font-size="10.00">command.GetPenColorCommand.execute</text>
</a>
</g>
</g>
<!-- Node1&#45;&gt;Node2 -->
<g id="edge1" class="edge"><title>Node1&#45;&gt;Node2</title>
<path fill="none" stroke="midnightblue" d="M141.996,-44.8568C156.33,-46.3583 171.477,-47.9452 186.242,-49.492"/>
<polygon fill="midnightblue" stroke="midnightblue" points="142.031,-41.3413 131.72,-43.7802 141.301,-48.3032 142.031,-41.3413"/>
</g>
<!-- Node3 -->
<g id="node3" class="node"><title>Node3</title>
<g id="a_node3"><a xlink:href="../../de/ddd/classproperties_1_1_pen_properties.html#a905443cc129f202868f6593fe93e878e" target="_top" xlink:title="properties.PenProperties.get\lColorIndex">
<polygon fill="white" stroke="black" points="201,-0 201,-30 355,-30 355,-0 201,-0"/>
<text text-anchor="start" x="209" y="-18" font-family="Helvetica,sans-Serif" font-size="10.00">properties.PenProperties.get</text>
<text text-anchor="middle" x="278" y="-7" font-family="Helvetica,sans-Serif" font-size="10.00">ColorIndex</text>
</a>
</g>
</g>
<!-- Node1&#45;&gt;Node3 -->
<g id="edge2" class="edge"><title>Node1&#45;&gt;Node3</title>
<path fill="none" stroke="midnightblue" d="M141.864,-29.1572C160.968,-27.1558 181.526,-25.002 200.701,-22.9932"/>
<polygon fill="midnightblue" stroke="midnightblue" points="141.301,-25.6968 131.72,-30.2198 142.031,-32.6587 141.301,-25.6968"/>
</g>
<!-- Node4 -->
<g id="node4" class="node"><title>Node4</title>
<g id="a_node4"><a xlink:href="../../d6/d68/classcomponents_1_1_turtle_manager.html#adfed5450fa1785d7798cf070dd4cba86" target="_top" xlink:title="components.TurtleManager.update\lPenProperties">
<polygon fill="white" stroke="black" points="424.5,-0 424.5,-30 607.5,-30 607.5,-0 424.5,-0"/>
<text text-anchor="start" x="432.5" y="-18" font-family="Helvetica,sans-Serif" font-size="10.00">components.TurtleManager.update</text>
<text text-anchor="middle" x="516" y="-7" font-family="Helvetica,sans-Serif" font-size="10.00">PenProperties</text>
</a>
</g>
</g>
<!-- Node3&#45;&gt;Node4 -->
<g id="edge3" class="edge"><title>Node3&#45;&gt;Node4</title>
<path fill="none" stroke="midnightblue" d="M365.47,-15C384.576,-15 404.873,-15 424.147,-15"/>
<polygon fill="midnightblue" stroke="midnightblue" points="365.297,-11.5001 355.297,-15 365.296,-18.5001 365.297,-11.5001"/>
</g>
<!-- Node5 -->
<g id="node5" class="node"><title>Node5</title>
<g id="a_node5"><a xlink:href="../../da/d5b/classcomponents_1_1_center_pane.html#a081e5354b96cbd91679d1ce0c60aa1d2" target="_top" xlink:title="components.CenterPane.update\lPenProperties">
<polygon fill="white" stroke="black" points="644,-0 644,-30 816,-30 816,-0 644,-0"/>
<text text-anchor="start" x="652" y="-18" font-family="Helvetica,sans-Serif" font-size="10.00">components.CenterPane.update</text>
<text text-anchor="middle" x="730" y="-7" font-family="Helvetica,sans-Serif" font-size="10.00">PenProperties</text>
</a>
</g>
</g>
<!-- Node4&#45;&gt;Node5 -->
<g id="edge4" class="edge"><title>Node4&#45;&gt;Node5</title>
<path fill="none" stroke="midnightblue" d="M617.733,-15C626.462,-15 635.238,-15 643.825,-15"/>
<polygon fill="midnightblue" stroke="midnightblue" points="617.522,-11.5001 607.522,-15 617.522,-18.5001 617.522,-11.5001"/>
</g>
<!-- Node6 -->
<g id="node6" class="node"><title>Node6</title>
<g id="a_node6"><a xlink:href="../../d3/de0/classmain_application_1_1_g_u_i.html#ad575c58d2f282f0123d80fb31c11553e" target="_top" xlink:title="mainApplication.GUI.update">
<polygon fill="white" stroke="black" points="852,-5.5 852,-24.5 1002,-24.5 1002,-5.5 852,-5.5"/>
<text text-anchor="middle" x="927" y="-12.5" font-family="Helvetica,sans-Serif" font-size="10.00">mainApplication.GUI.update</text>
</a>
</g>
</g>
<!-- Node5&#45;&gt;Node6 -->
<g id="edge5" class="edge"><title>Node5&#45;&gt;Node6</title>
<path fill="none" stroke="midnightblue" d="M826.319,-15C834.923,-15 843.549,-15 851.929,-15"/>
<polygon fill="midnightblue" stroke="midnightblue" points="826.246,-11.5001 816.246,-15 826.246,-18.5001 826.246,-11.5001"/>
</g>
</g>
</svg>
