<?xml version="1.0" encoding="UTF-8" standalone="no"?>
<!DOCTYPE svg PUBLIC "-//W3C//DTD SVG 1.1//EN"
 "http://www.w3.org/Graphics/SVG/1.1/DTD/svg11.dtd">
<!-- Generated by graphviz version 2.36.0 (20140111.2315)
 -->
<!-- Title: actor.Pen.isDown Pages: 1 -->
<svg width="962pt" height="71pt"
 viewBox="0.00 0.00 962.00 71.00" xmlns="http://www.w3.org/2000/svg" xmlns:xlink="http://www.w3.org/1999/xlink">
<g id="graph0" class="graph" transform="scale(1 1) rotate(0) translate(4 67)">
<title>actor.Pen.isDown</title>
<polygon fill="white" stroke="none" points="-4,4 -4,-67 958,-67 958,4 -4,4"/>
<!-- Node1 -->
<g id="node1" class="node"><title>Node1</title>
<polygon fill="#bfbfbf" stroke="black" points="0,-24.5 0,-43.5 98,-43.5 98,-24.5 0,-24.5"/>
<text text-anchor="middle" x="49" y="-31.5" font-family="Helvetica,sans-Serif" font-size="10.00">actor.Pen.isDown</text>
</g>
<!-- Node2 -->
<g id="node2" class="node"><title>Node2</title>
<g id="a_node2"><a xlink:href="../../df/de8/classcommand_1_1_pen_query_command.html#a6983b86a954355246cf2eefda673a8f4" target="_top" xlink:title="command.PenQueryCommand.execute">
<polygon fill="white" stroke="black" points="134,-43.5 134,-62.5 340,-62.5 340,-43.5 134,-43.5"/>
<text text-anchor="middle" x="237" y="-50.5" font-family="Helvetica,sans-Serif" font-size="10.00">command.PenQueryCommand.execute</text>
</a>
</g>
</g>
<!-- Node1&#45;&gt;Node2 -->
<g id="edge1" class="edge"><title>Node1&#45;&gt;Node2</title>
<path fill="none" stroke="midnightblue" d="M108.589,-39.9849C119.492,-41.0987 131.13,-42.2875 142.773,-43.4768"/>
<polygon fill="midnightblue" stroke="midnightblue" points="108.688,-36.4769 98.3838,-38.9424 107.976,-43.4406 108.688,-36.4769"/>
</g>
<!-- Node3 -->
<g id="node3" class="node"><title>Node3</title>
<g id="a_node3"><a xlink:href="../../de/ddd/classproperties_1_1_pen_properties.html#ab2d006d729cd90544169d82369be8fb1" target="_top" xlink:title="properties.PenProperties.isDown">
<polygon fill="white" stroke="black" points="151,-5.5 151,-24.5 323,-24.5 323,-5.5 151,-5.5"/>
<text text-anchor="middle" x="237" y="-12.5" font-family="Helvetica,sans-Serif" font-size="10.00">properties.PenProperties.isDown</text>
</a>
</g>
</g>
<!-- Node1&#45;&gt;Node3 -->
<g id="edge2" class="edge"><title>Node1&#45;&gt;Node3</title>
<path fill="none" stroke="midnightblue" d="M108.421,-28.0322C121.864,-26.6591 136.43,-25.1711 150.75,-23.7084"/>
<polygon fill="midnightblue" stroke="midnightblue" points="107.976,-24.5594 98.3838,-29.0576 108.688,-31.5231 107.976,-24.5594"/>
</g>
<!-- Node4 -->
<g id="node4" class="node"><title>Node4</title>
<g id="a_node4"><a xlink:href="../../d6/d68/classcomponents_1_1_turtle_manager.html#adfed5450fa1785d7798cf070dd4cba86" target="_top" xlink:title="components.TurtleManager.update\lPenProperties">
<polygon fill="white" stroke="black" points="376.5,-0 376.5,-30 559.5,-30 559.5,-0 376.5,-0"/>
<text text-anchor="start" x="384.5" y="-18" font-family="Helvetica,sans-Serif" font-size="10.00">components.TurtleManager.update</text>
<text text-anchor="middle" x="468" y="-7" font-family="Helvetica,sans-Serif" font-size="10.00">PenProperties</text>
</a>
</g>
</g>
<!-- Node3&#45;&gt;Node4 -->
<g id="edge3" class="edge"><title>Node3&#45;&gt;Node4</title>
<path fill="none" stroke="midnightblue" d="M333.501,-15C347.664,-15 362.226,-15 376.288,-15"/>
<polygon fill="midnightblue" stroke="midnightblue" points="333.271,-11.5001 323.271,-15 333.271,-18.5001 333.271,-11.5001"/>
</g>
<!-- Node5 -->
<g id="node5" class="node"><title>Node5</title>
<g id="a_node5"><a xlink:href="../../da/d5b/classcomponents_1_1_center_pane.html#a081e5354b96cbd91679d1ce0c60aa1d2" target="_top" xlink:title="components.CenterPane.update\lPenProperties">
<polygon fill="white" stroke="black" points="596,-0 596,-30 768,-30 768,-0 596,-0"/>
<text text-anchor="start" x="604" y="-18" font-family="Helvetica,sans-Serif" font-size="10.00">components.CenterPane.update</text>
<text text-anchor="middle" x="682" y="-7" font-family="Helvetica,sans-Serif" font-size="10.00">PenProperties</text>
</a>
</g>
</g>
<!-- Node4&#45;&gt;Node5 -->
<g id="edge4" class="edge"><title>Node4&#45;&gt;Node5</title>
<path fill="none" stroke="midnightblue" d="M569.733,-15C578.462,-15 587.238,-15 595.825,-15"/>
<polygon fill="midnightblue" stroke="midnightblue" points="569.522,-11.5001 559.522,-15 569.522,-18.5001 569.522,-11.5001"/>
</g>
<!-- Node6 -->
<g id="node6" class="node"><title>Node6</title>
<g id="a_node6"><a xlink:href="../../d3/de0/classmain_application_1_1_g_u_i.html#ad575c58d2f282f0123d80fb31c11553e" target="_top" xlink:title="mainApplication.GUI.update">
<polygon fill="white" stroke="black" points="804,-5.5 804,-24.5 954,-24.5 954,-5.5 804,-5.5"/>
<text text-anchor="middle" x="879" y="-12.5" font-family="Helvetica,sans-Serif" font-size="10.00">mainApplication.GUI.update</text>
</a>
</g>
</g>
<!-- Node5&#45;&gt;Node6 -->
<g id="edge5" class="edge"><title>Node5&#45;&gt;Node6</title>
<path fill="none" stroke="midnightblue" d="M778.319,-15C786.923,-15 795.549,-15 803.929,-15"/>
<polygon fill="midnightblue" stroke="midnightblue" points="778.246,-11.5001 768.246,-15 778.246,-18.5001 778.246,-11.5001"/>
</g>
</g>
</svg>
