<?xml version="1.0" encoding="UTF-8" standalone="no"?>
<!DOCTYPE svg PUBLIC "-//W3C//DTD SVG 1.1//EN"
 "http://www.w3.org/Graphics/SVG/1.1/DTD/svg11.dtd">
<!-- Generated by graphviz version 2.36.0 (20140111.2315)
 -->
<!-- Title: command.PositionInterface.getDirection Pages: 1 -->
<svg width="404pt" height="66pt"
 viewBox="0.00 0.00 404.00 66.00" xmlns="http://www.w3.org/2000/svg" xmlns:xlink="http://www.w3.org/1999/xlink">
<g id="graph0" class="graph" transform="scale(1 1) rotate(0) translate(4 62)">
<title>command.PositionInterface.getDirection</title>
<polygon fill="white" stroke="none" points="-4,4 -4,-62 400,-62 400,4 -4,4"/>
<!-- Node1 -->
<g id="node1" class="node"><title>Node1</title>
<polygon fill="#bfbfbf" stroke="black" points="0.5,-14 0.5,-44 167.5,-44 167.5,-14 0.5,-14"/>
<text text-anchor="start" x="8.5" y="-32" font-family="Helvetica,sans-Serif" font-size="10.00">command.PositionInterface.get</text>
<text text-anchor="middle" x="84" y="-21" font-family="Helvetica,sans-Serif" font-size="10.00">Direction</text>
</g>
<!-- Node2 -->
<g id="node2" class="node"><title>Node2</title>
<g id="a_node2"><a xlink:href="../../d8/d0b/classcommand_1_1_rotate_command.html#a1f439d0711b2e759e39cd06f0a37d62f" target="_top" xlink:title="command.RotateCommand.execute">
<polygon fill="white" stroke="black" points="204.5,-38.5 204.5,-57.5 395.5,-57.5 395.5,-38.5 204.5,-38.5"/>
<text text-anchor="middle" x="300" y="-45.5" font-family="Helvetica,sans-Serif" font-size="10.00">command.RotateCommand.execute</text>
</a>
</g>
</g>
<!-- Node1&#45;&gt;Node2 -->
<g id="edge1" class="edge"><title>Node1&#45;&gt;Node2</title>
<path fill="none" stroke="midnightblue" d="M177.948,-37.2524C186.707,-38.0301 195.595,-38.8192 204.37,-39.5983"/>
<polygon fill="midnightblue" stroke="midnightblue" points="178.008,-33.7441 167.738,-36.3459 177.389,-40.7166 178.008,-33.7441"/>
</g>
<!-- Node3 -->
<g id="node3" class="node"><title>Node3</title>
<g id="a_node3"><a xlink:href="../../d5/da3/classcommand_1_1_move_command.html#a1b10efbcf1189150c59ffcb4b957f7f2" target="_top" xlink:title="command.MoveCommand.execute">
<polygon fill="white" stroke="black" points="207.5,-0.5 207.5,-19.5 392.5,-19.5 392.5,-0.5 207.5,-0.5"/>
<text text-anchor="middle" x="300" y="-7.5" font-family="Helvetica,sans-Serif" font-size="10.00">command.MoveCommand.execute</text>
</a>
</g>
</g>
<!-- Node1&#45;&gt;Node3 -->
<g id="edge2" class="edge"><title>Node1&#45;&gt;Node3</title>
<path fill="none" stroke="midnightblue" d="M177.83,-20.7581C187.584,-19.8921 197.497,-19.012 207.238,-18.1471"/>
<polygon fill="midnightblue" stroke="midnightblue" points="177.389,-17.2834 167.738,-21.6541 178.008,-24.2559 177.389,-17.2834"/>
</g>
</g>
</svg>
