<?xml version="1.0" encoding="UTF-8" standalone="no"?>
<!DOCTYPE svg PUBLIC "-//W3C//DTD SVG 1.1//EN"
 "http://www.w3.org/Graphics/SVG/1.1/DTD/svg11.dtd">
<!-- Generated by graphviz version 2.36.0 (20140111.2315)
 -->
<!-- Title: command.DoTimesCommand.execute Pages: 1 -->
<svg width="658pt" height="158pt"
 viewBox="0.00 0.00 658.00 158.00" xmlns="http://www.w3.org/2000/svg" xmlns:xlink="http://www.w3.org/1999/xlink">
<g id="graph0" class="graph" transform="scale(1 1) rotate(0) translate(4 154)">
<title>command.DoTimesCommand.execute</title>
<polygon fill="white" stroke="none" points="-4,4 -4,-154 654,-154 654,4 -4,4"/>
<!-- Node1 -->
<g id="node1" class="node"><title>Node1</title>
<polygon fill="#bfbfbf" stroke="black" points="0,-78.5 0,-97.5 202,-97.5 202,-78.5 0,-78.5"/>
<text text-anchor="middle" x="101" y="-85.5" font-family="Helvetica,sans-Serif" font-size="10.00">command.DoTimesCommand.execute</text>
</g>
<!-- Node2 -->
<g id="node2" class="node"><title>Node2</title>
<g id="a_node2"><a xlink:href="../../dd/d2f/classcommand_1_1_base_make_variable_command.html#a794f0ee22428208cd96c2220ab0746ed" target="_top" xlink:title="command.BaseMakeVariable\lCommand.checkCorrectInput">
<polygon fill="white" stroke="black" points="255.5,-98 255.5,-128 412.5,-128 412.5,-98 255.5,-98"/>
<text text-anchor="start" x="263.5" y="-116" font-family="Helvetica,sans-Serif" font-size="10.00">command.BaseMakeVariable</text>
<text text-anchor="middle" x="334" y="-105" font-family="Helvetica,sans-Serif" font-size="10.00">Command.checkCorrectInput</text>
</a>
</g>
</g>
<!-- Node1&#45;&gt;Node2 -->
<g id="edge1" class="edge"><title>Node1&#45;&gt;Node2</title>
<path fill="none" stroke="midnightblue" d="M189.99,-97.5227C208.171,-99.4904 227.317,-101.562 245.481,-103.528"/>
<polygon fill="midnightblue" stroke="midnightblue" points="245.141,-107.012 255.459,-104.608 245.894,-100.052 245.141,-107.012"/>
</g>
<!-- Node3 -->
<g id="node3" class="node"><title>Node3</title>
<g id="a_node3"><a xlink:href="../../d7/d29/classcommand_1_1_basic_list_command.html#a36b32271a84890af875a576eaf608aa3" target="_top" xlink:title="command.BasicListCommand.get\lBracketIndex">
<polygon fill="white" stroke="black" points="468.5,-120 468.5,-150 647.5,-150 647.5,-120 468.5,-120"/>
<text text-anchor="start" x="476.5" y="-138" font-family="Helvetica,sans-Serif" font-size="10.00">command.BasicListCommand.get</text>
<text text-anchor="middle" x="558" y="-127" font-family="Helvetica,sans-Serif" font-size="10.00">BracketIndex</text>
</a>
</g>
</g>
<!-- Node1&#45;&gt;Node3 -->
<g id="edge6" class="edge"><title>Node1&#45;&gt;Node3</title>
<path fill="none" stroke="midnightblue" d="M121.681,-97.549C147.613,-109.55 194.983,-129.487 238,-137 311.019,-149.753 394.881,-148.624 458.289,-144.643"/>
<polygon fill="midnightblue" stroke="midnightblue" points="458.539,-148.135 468.285,-143.982 458.076,-141.15 458.539,-148.135"/>
</g>
<!-- Node5 -->
<g id="node5" class="node"><title>Node5</title>
<g id="a_node5"><a xlink:href="../../d7/d29/classcommand_1_1_basic_list_command.html#ae4c4456d483b7dd5f6e88dfb7dace4c1" target="_top" xlink:title="command.BasicListCommand.check\lListException">
<polygon fill="white" stroke="black" points="238.5,-49 238.5,-79 429.5,-79 429.5,-49 238.5,-49"/>
<text text-anchor="start" x="246.5" y="-67" font-family="Helvetica,sans-Serif" font-size="10.00">command.BasicListCommand.check</text>
<text text-anchor="middle" x="334" y="-56" font-family="Helvetica,sans-Serif" font-size="10.00">ListException</text>
</a>
</g>
</g>
<!-- Node1&#45;&gt;Node5 -->
<g id="edge4" class="edge"><title>Node1&#45;&gt;Node5</title>
<path fill="none" stroke="midnightblue" d="M193.629,-78.4801C205.028,-77.2958 216.751,-76.0778 228.328,-74.875"/>
<polygon fill="midnightblue" stroke="midnightblue" points="228.867,-78.3379 238.452,-73.8232 228.144,-71.3754 228.867,-78.3379"/>
</g>
<!-- Node6 -->
<g id="node6" class="node"><title>Node6</title>
<g id="a_node6"><a xlink:href="../../dd/d2f/classcommand_1_1_base_make_variable_command.html#af8d8e775391c0724b7a80ceb1bae6639" target="_top" xlink:title="command.BaseMakeVariable\lCommand.makeVariable">
<polygon fill="white" stroke="black" points="256,-0 256,-30 412,-30 412,-0 256,-0"/>
<text text-anchor="start" x="264" y="-18" font-family="Helvetica,sans-Serif" font-size="10.00">command.BaseMakeVariable</text>
<text text-anchor="middle" x="334" y="-7" font-family="Helvetica,sans-Serif" font-size="10.00">Command.makeVariable</text>
</a>
</g>
</g>
<!-- Node1&#45;&gt;Node6 -->
<g id="edge7" class="edge"><title>Node1&#45;&gt;Node6</title>
<path fill="none" stroke="midnightblue" d="M126.325,-78.4156C153.349,-67.961 198.399,-51.1042 238,-39 245.126,-36.8218 252.595,-34.6864 260.081,-32.6428"/>
<polygon fill="midnightblue" stroke="midnightblue" points="261.149,-35.9802 269.904,-30.0134 259.339,-29.2182 261.149,-35.9802"/>
</g>
<!-- Node2&#45;&gt;Node3 -->
<g id="edge2" class="edge"><title>Node2&#45;&gt;Node3</title>
<path fill="none" stroke="midnightblue" d="M412.645,-120.695C427.415,-122.158 443.053,-123.708 458.373,-125.226"/>
<polygon fill="midnightblue" stroke="midnightblue" points="458.086,-128.715 468.382,-126.218 458.776,-121.749 458.086,-128.715"/>
</g>
<!-- Node4 -->
<g id="node4" class="node"><title>Node4</title>
<g id="a_node4"><a xlink:href="../../d7/d35/classcommand_1_1_command.html#ac2df873d4926bc6e08dba8c6272cff7e" target="_top" xlink:title="command.Command.toString">
<polygon fill="white" stroke="black" points="478,-67.5 478,-86.5 638,-86.5 638,-67.5 478,-67.5"/>
<text text-anchor="middle" x="558" y="-74.5" font-family="Helvetica,sans-Serif" font-size="10.00">command.Command.toString</text>
</a>
</g>
</g>
<!-- Node2&#45;&gt;Node4 -->
<g id="edge3" class="edge"><title>Node2&#45;&gt;Node4</title>
<path fill="none" stroke="midnightblue" d="M412.645,-100.409C437.261,-96.4171 464.291,-92.034 488.237,-88.1507"/>
<polygon fill="midnightblue" stroke="midnightblue" points="488.985,-91.5753 498.295,-86.5197 487.864,-84.6656 488.985,-91.5753"/>
</g>
<!-- Node5&#45;&gt;Node4 -->
<g id="edge5" class="edge"><title>Node5&#45;&gt;Node4</title>
<path fill="none" stroke="midnightblue" d="M429.792,-69.5509C442.313,-70.2841 455.116,-71.0338 467.544,-71.7616"/>
<polygon fill="midnightblue" stroke="midnightblue" points="467.694,-75.2763 477.881,-72.3669 468.103,-68.2882 467.694,-75.2763"/>
</g>
<!-- Node7 -->
<g id="node7" class="node"><title>Node7</title>
<g id="a_node7"><a xlink:href="../../de/d19/classworkspace_1_1_workspace.html#a85d7692f63e805af8424da4116f233fa" target="_top" xlink:title="workspace.Workspace.getVariables">
<polygon fill="white" stroke="black" points="466.5,-5.5 466.5,-24.5 649.5,-24.5 649.5,-5.5 466.5,-5.5"/>
<text text-anchor="middle" x="558" y="-12.5" font-family="Helvetica,sans-Serif" font-size="10.00">workspace.Workspace.getVariables</text>
</a>
</g>
</g>
<!-- Node6&#45;&gt;Node7 -->
<g id="edge8" class="edge"><title>Node6&#45;&gt;Node7</title>
<path fill="none" stroke="midnightblue" d="M412.022,-15C426.267,-15 441.338,-15 456.166,-15"/>
<polygon fill="midnightblue" stroke="midnightblue" points="456.379,-18.5001 466.379,-15 456.379,-11.5001 456.379,-18.5001"/>
</g>
</g>
</svg>
