<?xml version="1.0" encoding="UTF-8" standalone="no"?>
<!DOCTYPE svg PUBLIC "-//W3C//DTD SVG 1.1//EN"
 "http://www.w3.org/Graphics/SVG/1.1/DTD/svg11.dtd">
<!-- Generated by graphviz version 2.36.0 (20140111.2315)
 -->
<!-- Title: properties.TurtleProperties Pages: 1 -->
<svg width="194pt" height="164pt"
 viewBox="0.00 0.00 194.00 164.00" xmlns="http://www.w3.org/2000/svg" xmlns:xlink="http://www.w3.org/1999/xlink">
<g id="graph0" class="graph" transform="scale(1 1) rotate(0) translate(4 160)">
<title>properties.TurtleProperties</title>
<polygon fill="white" stroke="none" points="-4,4 -4,-160 190,-160 190,4 -4,4"/>
<!-- Node1 -->
<g id="node1" class="node"><title>Node1</title>
<polygon fill="#bfbfbf" stroke="black" points="43.5,-0.5 43.5,-19.5 186.5,-19.5 186.5,-0.5 43.5,-0.5"/>
<text text-anchor="middle" x="115" y="-7.5" font-family="Helvetica,sans-Serif" font-size="10.00">properties.TurtleProperties</text>
</g>
<!-- Node2 -->
<g id="node2" class="node"><title>Node2</title>
<g id="a_node2"><a xlink:href="../../da/d54/classproperties_1_1_position.html" target="_top" xlink:title="properties.Position">
<polygon fill="white" stroke="black" points="0,-68.5 0,-87.5 106,-87.5 106,-68.5 0,-68.5"/>
<text text-anchor="middle" x="53" y="-75.5" font-family="Helvetica,sans-Serif" font-size="10.00">properties.Position</text>
</a>
</g>
</g>
<!-- Node2&#45;&gt;Node1 -->
<g id="edge1" class="edge"><title>Node2&#45;&gt;Node1</title>
<path fill="none" stroke="#9a32cd" stroke-dasharray="5,2" d="M59.3018,-58.9365C62.3736,-51.8658 66.5903,-44.024 72,-38 78.8321,-30.3921 88.3014,-24.1352 96.6153,-19.567"/>
<polygon fill="#9a32cd" stroke="#9a32cd" points="55.9678,-57.8537 55.6149,-68.4426 62.4941,-60.3849 55.9678,-57.8537"/>
<text text-anchor="middle" x="100" y="-41.5" font-family="Helvetica,sans-Serif" font-size="10.00"> myPosition</text>
</g>
<!-- Node3 -->
<g id="node3" class="node"><title>Node3</title>
<polygon fill="white" stroke="#bfbfbf" points="26,-136.5 26,-155.5 80,-155.5 80,-136.5 26,-136.5"/>
<text text-anchor="middle" x="53" y="-143.5" font-family="Helvetica,sans-Serif" font-size="10.00">Point2D</text>
</g>
<!-- Node3&#45;&gt;Node2 -->
<g id="edge2" class="edge"><title>Node3&#45;&gt;Node2</title>
<path fill="none" stroke="#9a32cd" stroke-dasharray="5,2" d="M53,-126.041C53,-113.472 53,-97.5631 53,-87.8411"/>
<polygon fill="#9a32cd" stroke="#9a32cd" points="49.5001,-126.372 53,-136.372 56.5001,-126.372 49.5001,-126.372"/>
<text text-anchor="middle" x="74.5" y="-109.5" font-family="Helvetica,sans-Serif" font-size="10.00"> myPoint</text>
</g>
<!-- Node4 -->
<g id="node4" class="node"><title>Node4</title>
<g id="a_node4"><a xlink:href="../../da/d85/classactor_1_1_pen.html" target="_top" xlink:title="actor.Pen">
<polygon fill="white" stroke="black" points="124,-68.5 124,-87.5 186,-87.5 186,-68.5 124,-68.5"/>
<text text-anchor="middle" x="155" y="-75.5" font-family="Helvetica,sans-Serif" font-size="10.00">actor.Pen</text>
</a>
</g>
</g>
<!-- Node4&#45;&gt;Node1 -->
<g id="edge3" class="edge"><title>Node4&#45;&gt;Node1</title>
<path fill="none" stroke="#9a32cd" stroke-dasharray="5,2" d="M144.432,-59.563C136.686,-46.7815 126.491,-29.9599 120.358,-19.8411"/>
<polygon fill="#9a32cd" stroke="#9a32cd" points="141.594,-61.6337 149.771,-68.3717 147.581,-58.0056 141.594,-61.6337"/>
<text text-anchor="middle" x="157.5" y="-41.5" font-family="Helvetica,sans-Serif" font-size="10.00"> myPen</text>
</g>
</g>
</svg>
