<?xml version="1.0" encoding="UTF-8" standalone="no"?>
<!DOCTYPE svg PUBLIC "-//W3C//DTD SVG 1.1//EN"
 "http://www.w3.org/Graphics/SVG/1.1/DTD/svg11.dtd">
<!-- Generated by graphviz version 2.36.0 (20140111.2315)
 -->
<!-- Title: components.InfoPane.InfoPane Pages: 1 -->
<svg width="382pt" height="77pt"
 viewBox="0.00 0.00 382.00 77.00" xmlns="http://www.w3.org/2000/svg" xmlns:xlink="http://www.w3.org/1999/xlink">
<g id="graph0" class="graph" transform="scale(1 1) rotate(0) translate(4 73)">
<title>components.InfoPane.InfoPane</title>
<polygon fill="white" stroke="none" points="-4,4 -4,-73 378,-73 378,4 -4,4"/>
<!-- Node1 -->
<g id="node1" class="node"><title>Node1</title>
<polygon fill="#bfbfbf" stroke="black" points="0,-22.5 0,-41.5 164,-41.5 164,-22.5 0,-22.5"/>
<text text-anchor="middle" x="82" y="-29.5" font-family="Helvetica,sans-Serif" font-size="10.00">components.InfoPane.InfoPane</text>
</g>
<!-- Node2 -->
<g id="node2" class="node"><title>Node2</title>
<g id="a_node2"><a xlink:href="../../db/d7f/classcomponents_1_1_info_pane.html#a635bd76ddc7480c5a13f0e229492af4a" target="_top" xlink:title="components.InfoPane.initiate\lToolBar">
<polygon fill="white" stroke="black" points="209.5,-39 209.5,-69 364.5,-69 364.5,-39 209.5,-39"/>
<text text-anchor="start" x="217.5" y="-57" font-family="Helvetica,sans-Serif" font-size="10.00">components.InfoPane.initiate</text>
<text text-anchor="middle" x="287" y="-46" font-family="Helvetica,sans-Serif" font-size="10.00">ToolBar</text>
</a>
</g>
</g>
<!-- Node1&#45;&gt;Node2 -->
<g id="edge1" class="edge"><title>Node1&#45;&gt;Node2</title>
<path fill="none" stroke="midnightblue" d="M164.106,-40.7898C175.637,-42.0395 187.535,-43.3289 199.169,-44.5898"/>
<polygon fill="midnightblue" stroke="midnightblue" points="198.991,-48.0909 209.31,-45.6888 199.746,-41.1317 198.991,-48.0909"/>
</g>
<!-- Node3 -->
<g id="node3" class="node"><title>Node3</title>
<g id="a_node3"><a xlink:href="../../d2/d5e/classcomponents_1_1_tab_factory.html#a2f527219e3d7a2e6d49c421eddcc0569" target="_top" xlink:title="components.TabFactory.makeTab">
<polygon fill="white" stroke="black" points="200,-0.5 200,-19.5 374,-19.5 374,-0.5 200,-0.5"/>
<text text-anchor="middle" x="287" y="-7.5" font-family="Helvetica,sans-Serif" font-size="10.00">components.TabFactory.makeTab</text>
</a>
</g>
</g>
<!-- Node1&#45;&gt;Node3 -->
<g id="edge2" class="edge"><title>Node1&#45;&gt;Node3</title>
<path fill="none" stroke="midnightblue" d="M164.106,-23.2102C172.52,-22.2983 181.129,-21.3653 189.688,-20.4377"/>
<polygon fill="midnightblue" stroke="midnightblue" points="190.135,-23.9099 199.699,-19.3528 189.38,-16.9507 190.135,-23.9099"/>
</g>
</g>
</svg>
