<?xml version="1.0" encoding="UTF-8" standalone="no"?>
<!DOCTYPE svg PUBLIC "-//W3C//DTD SVG 1.1//EN"
 "http://www.w3.org/Graphics/SVG/1.1/DTD/svg11.dtd">
<!-- Generated by graphviz version 2.36.0 (20140111.2315)
 -->
<!-- Title: components.TurtlesTab Pages: 1 -->
<svg width="159pt" height="140pt"
 viewBox="0.00 0.00 159.00 140.00" xmlns="http://www.w3.org/2000/svg" xmlns:xlink="http://www.w3.org/1999/xlink">
<g id="graph0" class="graph" transform="scale(1 1) rotate(0) translate(4 136)">
<title>components.TurtlesTab</title>
<polygon fill="white" stroke="none" points="-4,4 -4,-136 155,-136 155,4 -4,4"/>
<!-- Node1 -->
<g id="node1" class="node"><title>Node1</title>
<polygon fill="#bfbfbf" stroke="black" points="0,-0.5 0,-19.5 126,-19.5 126,-0.5 0,-0.5"/>
<text text-anchor="middle" x="63" y="-7.5" font-family="Helvetica,sans-Serif" font-size="10.00">components.TurtlesTab</text>
</g>
<!-- Node2 -->
<g id="node2" class="node"><title>Node2</title>
<g id="a_node2"><a xlink:href="../../df/df3/classcomponents_1_1_info_tab.html" target="_top" xlink:title="components.InfoTab">
<polygon fill="white" stroke="black" points="6.5,-56.5 6.5,-75.5 119.5,-75.5 119.5,-56.5 6.5,-56.5"/>
<text text-anchor="middle" x="63" y="-63.5" font-family="Helvetica,sans-Serif" font-size="10.00">components.InfoTab</text>
</a>
</g>
</g>
<!-- Node2&#45;&gt;Node1 -->
<g id="edge1" class="edge"><title>Node2&#45;&gt;Node1</title>
<path fill="none" stroke="midnightblue" d="M63,-45.8045C63,-36.9102 63,-26.7798 63,-19.7511"/>
<polygon fill="midnightblue" stroke="midnightblue" points="59.5001,-46.083 63,-56.083 66.5001,-46.083 59.5001,-46.083"/>
</g>
<!-- Node3 -->
<g id="node3" class="node"><title>Node3</title>
<polygon fill="white" stroke="#bfbfbf" points="6,-112.5 6,-131.5 38,-131.5 38,-112.5 6,-112.5"/>
<text text-anchor="middle" x="22" y="-119.5" font-family="Helvetica,sans-Serif" font-size="10.00">Tab</text>
</g>
<!-- Node3&#45;&gt;Node2 -->
<g id="edge2" class="edge"><title>Node3&#45;&gt;Node2</title>
<path fill="none" stroke="midnightblue" d="M35.0172,-103.855C42.1167,-94.5048 50.604,-83.3265 56.3557,-75.7511"/>
<polygon fill="midnightblue" stroke="midnightblue" points="32.0299,-102.002 28.7703,-112.083 37.605,-106.235 32.0299,-102.002"/>
</g>
<!-- Node4 -->
<g id="node4" class="node"><title>Node4</title>
<g id="a_node4"><a xlink:href="../../d2/dfc/interfacefeatures_1_1_feature.html" target="_top" xlink:title="features.Feature">
<polygon fill="white" stroke="black" points="56.5,-112.5 56.5,-131.5 151.5,-131.5 151.5,-112.5 56.5,-112.5"/>
<text text-anchor="middle" x="104" y="-119.5" font-family="Helvetica,sans-Serif" font-size="10.00">features.Feature</text>
</a>
</g>
</g>
<!-- Node4&#45;&gt;Node2 -->
<g id="edge3" class="edge"><title>Node4&#45;&gt;Node2</title>
<path fill="none" stroke="midnightblue" d="M90.9828,-103.855C83.8833,-94.5048 75.396,-83.3265 69.6443,-75.7511"/>
<polygon fill="midnightblue" stroke="midnightblue" points="88.395,-106.235 97.2297,-112.083 93.9701,-102.002 88.395,-106.235"/>
</g>
</g>
</svg>
