<?xml version="1.0" encoding="UTF-8" standalone="no"?>
<!DOCTYPE svg PUBLIC "-//W3C//DTD SVG 1.1//EN"
 "http://www.w3.org/Graphics/SVG/1.1/DTD/svg11.dtd">
<!-- Generated by graphviz version 2.36.0 (20140111.2315)
 -->
<!-- Title: features.FeatureSetUp Pages: 1 -->
<svg width="328pt" height="96pt"
 viewBox="0.00 0.00 328.00 96.00" xmlns="http://www.w3.org/2000/svg" xmlns:xlink="http://www.w3.org/1999/xlink">
<g id="graph0" class="graph" transform="scale(1 1) rotate(0) translate(4 92)">
<title>features.FeatureSetUp</title>
<polygon fill="white" stroke="none" points="-4,4 -4,-92 324,-92 324,4 -4,4"/>
<!-- Node1 -->
<g id="node1" class="node"><title>Node1</title>
<polygon fill="#bfbfbf" stroke="black" points="104.5,-0.5 104.5,-19.5 229.5,-19.5 229.5,-0.5 104.5,-0.5"/>
<text text-anchor="middle" x="167" y="-7.5" font-family="Helvetica,sans-Serif" font-size="10.00">features.FeatureSetUp</text>
</g>
<!-- Node2 -->
<g id="node2" class="node"><title>Node2</title>
<polygon fill="white" stroke="#bfbfbf" points="-0.5,-68.5 -0.5,-87.5 172.5,-87.5 172.5,-68.5 -0.5,-68.5"/>
<text text-anchor="middle" x="86" y="-75.5" font-family="Helvetica,sans-Serif" font-size="10.00">Map&lt; String, features.Feature &gt;</text>
</g>
<!-- Node2&#45;&gt;Node1 -->
<g id="edge1" class="edge"><title>Node2&#45;&gt;Node1</title>
<path fill="none" stroke="#9a32cd" stroke-dasharray="5,2" d="M104.735,-61.7343C120.78,-48.6606 143.309,-30.3039 156.408,-19.6305"/>
<polygon fill="#9a32cd" stroke="#9a32cd" points="102.131,-59.3416 96.5893,-68.3717 106.553,-64.7682 102.131,-59.3416"/>
<text text-anchor="middle" x="171.5" y="-41.5" font-family="Helvetica,sans-Serif" font-size="10.00"> myFeatureMap</text>
</g>
<!-- Node3 -->
<g id="node3" class="node"><title>Node3</title>
<polygon fill="white" stroke="#bfbfbf" points="190.5,-68.5 190.5,-87.5 307.5,-87.5 307.5,-68.5 190.5,-68.5"/>
<text text-anchor="middle" x="249" y="-75.5" font-family="Helvetica,sans-Serif" font-size="10.00">Map&lt; String, Pane &gt;</text>
</g>
<!-- Node3&#45;&gt;Node1 -->
<g id="edge2" class="edge"><title>Node3&#45;&gt;Node1</title>
<path fill="none" stroke="#9a32cd" stroke-dasharray="5,2" d="M235.536,-60.3111C229.153,-52.9791 221.149,-44.5641 213,-38 204.202,-30.9132 193.342,-24.449 184.384,-19.6235"/>
<polygon fill="#9a32cd" stroke="#9a32cd" points="233.086,-62.8367 242.197,-68.245 238.448,-58.3358 233.086,-62.8367"/>
<text text-anchor="middle" x="272.5" y="-41.5" font-family="Helvetica,sans-Serif" font-size="10.00"> myComponentMap</text>
</g>
</g>
</svg>
