<?xml version="1.0" encoding="UTF-8" standalone="no"?>
<!DOCTYPE svg PUBLIC "-//W3C//DTD SVG 1.1//EN"
 "http://www.w3.org/Graphics/SVG/1.1/DTD/svg11.dtd">
<!-- Generated by graphviz version 2.36.0 (20140111.2315)
 -->
<!-- Title: features.DisplayTurtle.updatePenShow Pages: 1 -->
<svg width="778pt" height="38pt"
 viewBox="0.00 0.00 778.00 38.00" xmlns="http://www.w3.org/2000/svg" xmlns:xlink="http://www.w3.org/1999/xlink">
<g id="graph0" class="graph" transform="scale(1 1) rotate(0) translate(4 34)">
<title>features.DisplayTurtle.updatePenShow</title>
<polygon fill="white" stroke="none" points="-4,4 -4,-34 774,-34 774,4 -4,4"/>
<!-- Node1 -->
<g id="node1" class="node"><title>Node1</title>
<polygon fill="#bfbfbf" stroke="black" points="0,-0 0,-30 156,-30 156,-0 0,-0"/>
<text text-anchor="start" x="8" y="-18" font-family="Helvetica,sans-Serif" font-size="10.00">features.DisplayTurtle.update</text>
<text text-anchor="middle" x="78" y="-7" font-family="Helvetica,sans-Serif" font-size="10.00">PenShow</text>
</g>
<!-- Node2 -->
<g id="node2" class="node"><title>Node2</title>
<g id="a_node2"><a xlink:href="../../d6/d68/classcomponents_1_1_turtle_manager.html#adfed5450fa1785d7798cf070dd4cba86" target="_top" xlink:title="components.TurtleManager.update\lPenProperties">
<polygon fill="white" stroke="black" points="192.5,-0 192.5,-30 375.5,-30 375.5,-0 192.5,-0"/>
<text text-anchor="start" x="200.5" y="-18" font-family="Helvetica,sans-Serif" font-size="10.00">components.TurtleManager.update</text>
<text text-anchor="middle" x="284" y="-7" font-family="Helvetica,sans-Serif" font-size="10.00">PenProperties</text>
</a>
</g>
</g>
<!-- Node1&#45;&gt;Node2 -->
<g id="edge1" class="edge"><title>Node1&#45;&gt;Node2</title>
<path fill="none" stroke="midnightblue" d="M166.217,-15C174.886,-15 183.7,-15 192.402,-15"/>
<polygon fill="midnightblue" stroke="midnightblue" points="166.124,-11.5001 156.124,-15 166.124,-18.5001 166.124,-11.5001"/>
</g>
<!-- Node3 -->
<g id="node3" class="node"><title>Node3</title>
<g id="a_node3"><a xlink:href="../../da/d5b/classcomponents_1_1_center_pane.html#a081e5354b96cbd91679d1ce0c60aa1d2" target="_top" xlink:title="components.CenterPane.update\lPenProperties">
<polygon fill="white" stroke="black" points="412,-0 412,-30 584,-30 584,-0 412,-0"/>
<text text-anchor="start" x="420" y="-18" font-family="Helvetica,sans-Serif" font-size="10.00">components.CenterPane.update</text>
<text text-anchor="middle" x="498" y="-7" font-family="Helvetica,sans-Serif" font-size="10.00">PenProperties</text>
</a>
</g>
</g>
<!-- Node2&#45;&gt;Node3 -->
<g id="edge2" class="edge"><title>Node2&#45;&gt;Node3</title>
<path fill="none" stroke="midnightblue" d="M385.733,-15C394.462,-15 403.238,-15 411.825,-15"/>
<polygon fill="midnightblue" stroke="midnightblue" points="385.522,-11.5001 375.522,-15 385.522,-18.5001 385.522,-11.5001"/>
</g>
<!-- Node4 -->
<g id="node4" class="node"><title>Node4</title>
<g id="a_node4"><a xlink:href="../../d3/de0/classmain_application_1_1_g_u_i.html#ad575c58d2f282f0123d80fb31c11553e" target="_top" xlink:title="mainApplication.GUI.update">
<polygon fill="white" stroke="black" points="620,-5.5 620,-24.5 770,-24.5 770,-5.5 620,-5.5"/>
<text text-anchor="middle" x="695" y="-12.5" font-family="Helvetica,sans-Serif" font-size="10.00">mainApplication.GUI.update</text>
</a>
</g>
</g>
<!-- Node3&#45;&gt;Node4 -->
<g id="edge3" class="edge"><title>Node3&#45;&gt;Node4</title>
<path fill="none" stroke="midnightblue" d="M594.319,-15C602.923,-15 611.549,-15 619.929,-15"/>
<polygon fill="midnightblue" stroke="midnightblue" points="594.246,-11.5001 584.246,-15 594.246,-18.5001 594.246,-11.5001"/>
</g>
</g>
</svg>
