<?xml version="1.0" encoding="UTF-8" standalone="no"?>
<!DOCTYPE svg PUBLIC "-//W3C//DTD SVG 1.1//EN"
 "http://www.w3.org/Graphics/SVG/1.1/DTD/svg11.dtd">
<!-- Generated by graphviz version 2.36.0 (20140111.2315)
 -->
<!-- Title: features.DisplayTurtle.updatePosition Pages: 1 -->
<svg width="732pt" height="289pt"
 viewBox="0.00 0.00 732.00 289.00" xmlns="http://www.w3.org/2000/svg" xmlns:xlink="http://www.w3.org/1999/xlink">
<g id="graph0" class="graph" transform="scale(1 1) rotate(0) translate(4 285)">
<title>features.DisplayTurtle.updatePosition</title>
<polygon fill="white" stroke="none" points="-4,4 -4,-285 728,-285 728,4 -4,4"/>
<!-- Node1 -->
<g id="node1" class="node"><title>Node1</title>
<polygon fill="#bfbfbf" stroke="black" points="0,-120 0,-150 156,-150 156,-120 0,-120"/>
<text text-anchor="start" x="8" y="-138" font-family="Helvetica,sans-Serif" font-size="10.00">features.DisplayTurtle.update</text>
<text text-anchor="middle" x="78" y="-127" font-family="Helvetica,sans-Serif" font-size="10.00">Position</text>
</g>
<!-- Node2 -->
<g id="node2" class="node"><title>Node2</title>
<g id="a_node2"><a xlink:href="../../dc/d0a/classfeatures_1_1_display_turtle.html#a73aeed13803987df257034705ee6eaff" target="_top" xlink:title="features.DisplayTurtle.animate\lTurtleAngle">
<polygon fill="white" stroke="black" points="192,-251 192,-281 354,-281 354,-251 192,-251"/>
<text text-anchor="start" x="200" y="-269" font-family="Helvetica,sans-Serif" font-size="10.00">features.DisplayTurtle.animate</text>
<text text-anchor="middle" x="273" y="-258" font-family="Helvetica,sans-Serif" font-size="10.00">TurtleAngle</text>
</a>
</g>
</g>
<!-- Node1&#45;&gt;Node2 -->
<g id="edge1" class="edge"><title>Node1&#45;&gt;Node2</title>
<path fill="none" stroke="midnightblue" d="M91.2678,-150.266C110.441,-173.161 149.716,-216.329 192,-241 195.676,-243.145 199.557,-245.126 203.547,-246.953"/>
<polygon fill="midnightblue" stroke="midnightblue" points="202.437,-250.283 213.012,-250.94 205.155,-243.832 202.437,-250.283"/>
</g>
<!-- Node3 -->
<g id="node3" class="node"><title>Node3</title>
<g id="a_node3"><a xlink:href="../../dc/d0a/classfeatures_1_1_display_turtle.html#aac090a97a844a60109816520333f7866" target="_top" xlink:title="features.DisplayTurtle.animate\lTurtlePosition">
<polygon fill="white" stroke="black" points="192,-202 192,-232 354,-232 354,-202 192,-202"/>
<text text-anchor="start" x="200" y="-220" font-family="Helvetica,sans-Serif" font-size="10.00">features.DisplayTurtle.animate</text>
<text text-anchor="middle" x="273" y="-209" font-family="Helvetica,sans-Serif" font-size="10.00">TurtlePosition</text>
</a>
</g>
</g>
<!-- Node1&#45;&gt;Node3 -->
<g id="edge2" class="edge"><title>Node1&#45;&gt;Node3</title>
<path fill="none" stroke="midnightblue" d="M110.389,-150.188C132.916,-160.904 164.095,-175.365 192,-187 201.241,-190.853 211.171,-194.76 220.784,-198.424"/>
<polygon fill="midnightblue" stroke="midnightblue" points="219.662,-201.742 230.254,-201.997 222.133,-195.193 219.662,-201.742"/>
</g>
<!-- Node4 -->
<g id="node4" class="node"><title>Node4</title>
<g id="a_node4"><a xlink:href="../../dc/d0a/classfeatures_1_1_display_turtle.html#a62391c3999d131300823b851b0f5b90b" target="_top" xlink:title="features.DisplayTurtle.updateLine">
<polygon fill="white" stroke="black" points="390,-185.5 390,-204.5 566,-204.5 566,-185.5 390,-185.5"/>
<text text-anchor="middle" x="478" y="-192.5" font-family="Helvetica,sans-Serif" font-size="10.00">features.DisplayTurtle.updateLine</text>
</a>
</g>
</g>
<!-- Node1&#45;&gt;Node4 -->
<g id="edge9" class="edge"><title>Node1&#45;&gt;Node4</title>
<path fill="none" stroke="midnightblue" d="M156.158,-148.224C168.15,-150.207 180.403,-152.191 192,-154 261.308,-164.811 340.266,-176.089 397.471,-184.073"/>
<polygon fill="midnightblue" stroke="midnightblue" points="397.145,-187.562 407.532,-185.475 398.111,-180.629 397.145,-187.562"/>
</g>
<!-- Node6 -->
<g id="node6" class="node"><title>Node6</title>
<g id="a_node6"><a xlink:href="../../da/d54/classproperties_1_1_position.html#a5dff002fabbc5e7be1a50f5eff9b2879" target="_top" xlink:title="properties.Position.getAngle">
<polygon fill="white" stroke="black" points="197,-125.5 197,-144.5 349,-144.5 349,-125.5 197,-125.5"/>
<text text-anchor="middle" x="273" y="-132.5" font-family="Helvetica,sans-Serif" font-size="10.00">properties.Position.getAngle</text>
</a>
</g>
</g>
<!-- Node1&#45;&gt;Node6 -->
<g id="edge5" class="edge"><title>Node1&#45;&gt;Node6</title>
<path fill="none" stroke="midnightblue" d="M156.111,-135C166.19,-135 176.564,-135 186.768,-135"/>
<polygon fill="midnightblue" stroke="midnightblue" points="186.898,-138.5 196.898,-135 186.898,-131.5 186.898,-138.5"/>
</g>
<!-- Node7 -->
<g id="node7" class="node"><title>Node7</title>
<g id="a_node7"><a xlink:href="../../da/d54/classproperties_1_1_position.html#a038c69f0a24a47be9e1602695a2c5b61" target="_top" xlink:title="properties.Position.getX">
<polygon fill="white" stroke="black" points="207.5,-87.5 207.5,-106.5 338.5,-106.5 338.5,-87.5 207.5,-87.5"/>
<text text-anchor="middle" x="273" y="-94.5" font-family="Helvetica,sans-Serif" font-size="10.00">properties.Position.getX</text>
</a>
</g>
</g>
<!-- Node1&#45;&gt;Node7 -->
<g id="edge6" class="edge"><title>Node1&#45;&gt;Node7</title>
<path fill="none" stroke="midnightblue" d="M155.279,-119.981C174.748,-116.148 195.367,-112.088 213.771,-108.465"/>
<polygon fill="midnightblue" stroke="midnightblue" points="214.61,-111.867 223.745,-106.501 213.258,-104.999 214.61,-111.867"/>
</g>
<!-- Node8 -->
<g id="node8" class="node"><title>Node8</title>
<g id="a_node8"><a xlink:href="../../da/d54/classproperties_1_1_position.html#a0e2fa1786b2b6cbed8f91d02e624d3ec" target="_top" xlink:title="properties.Position.getY">
<polygon fill="white" stroke="black" points="208,-49.5 208,-68.5 338,-68.5 338,-49.5 208,-49.5"/>
<text text-anchor="middle" x="273" y="-56.5" font-family="Helvetica,sans-Serif" font-size="10.00">properties.Position.getY</text>
</a>
</g>
</g>
<!-- Node1&#45;&gt;Node8 -->
<g id="edge7" class="edge"><title>Node1&#45;&gt;Node8</title>
<path fill="none" stroke="midnightblue" d="M104.707,-119.844C127.12,-107.168 160.835,-89.3825 192,-78 198.993,-75.4461 206.456,-73.1443 213.908,-71.0978"/>
<polygon fill="midnightblue" stroke="midnightblue" points="214.865,-74.4654 223.658,-68.5548 213.098,-67.692 214.865,-74.4654"/>
</g>
<!-- Node9 -->
<g id="node9" class="node"><title>Node9</title>
<g id="a_node9"><a xlink:href="../../dc/d0a/classfeatures_1_1_display_turtle.html#a0974c08e12b3bea1d0c5a00359ffab13" target="_top" xlink:title="features.DisplayTurtle.update\lImage">
<polygon fill="white" stroke="black" points="195,-0 195,-30 351,-30 351,-0 195,-0"/>
<text text-anchor="start" x="203" y="-18" font-family="Helvetica,sans-Serif" font-size="10.00">features.DisplayTurtle.update</text>
<text text-anchor="middle" x="273" y="-7" font-family="Helvetica,sans-Serif" font-size="10.00">Image</text>
</a>
</g>
</g>
<!-- Node1&#45;&gt;Node9 -->
<g id="edge8" class="edge"><title>Node1&#45;&gt;Node9</title>
<path fill="none" stroke="midnightblue" d="M93.2738,-119.668C113.423,-98.8614 152.21,-61.7881 192,-40 195.984,-37.8182 200.187,-35.7967 204.495,-33.929"/>
<polygon fill="midnightblue" stroke="midnightblue" points="206.08,-37.0637 214.05,-30.083 203.467,-30.5699 206.08,-37.0637"/>
</g>
<!-- Node3&#45;&gt;Node4 -->
<g id="edge3" class="edge"><title>Node3&#45;&gt;Node4</title>
<path fill="none" stroke="midnightblue" d="M354.231,-208.305C362.674,-207.39 371.323,-206.453 379.93,-205.52"/>
<polygon fill="midnightblue" stroke="midnightblue" points="380.434,-208.986 389.999,-204.429 379.68,-202.027 380.434,-208.986"/>
</g>
<!-- Node5 -->
<g id="node5" class="node"><title>Node5</title>
<g id="a_node5"><a xlink:href="../../da/da7/classfeatures_1_1_pen.html#accc955328a7a1e73f6e512116eb3ca70" target="_top" xlink:title="features.Pen.drawLine">
<polygon fill="white" stroke="black" points="602,-185.5 602,-204.5 724,-204.5 724,-185.5 602,-185.5"/>
<text text-anchor="middle" x="663" y="-192.5" font-family="Helvetica,sans-Serif" font-size="10.00">features.Pen.drawLine</text>
</a>
</g>
</g>
<!-- Node4&#45;&gt;Node5 -->
<g id="edge4" class="edge"><title>Node4&#45;&gt;Node5</title>
<path fill="none" stroke="midnightblue" d="M566.212,-195C574.786,-195 583.41,-195 591.782,-195"/>
<polygon fill="midnightblue" stroke="midnightblue" points="591.849,-198.5 601.849,-195 591.849,-191.5 591.849,-198.5"/>
</g>
</g>
</svg>
