<?xml version="1.0" encoding="UTF-8" standalone="no"?>
<!DOCTYPE svg PUBLIC "-//W3C//DTD SVG 1.1//EN"
 "http://www.w3.org/Graphics/SVG/1.1/DTD/svg11.dtd">
<!-- Generated by graphviz version 2.36.0 (20140111.2315)
 -->
<!-- Title: features.DisplayTurtle.updateLine Pages: 1 -->
<svg width="1188pt" height="61pt"
 viewBox="0.00 0.00 1188.00 61.00" xmlns="http://www.w3.org/2000/svg" xmlns:xlink="http://www.w3.org/1999/xlink">
<g id="graph0" class="graph" transform="scale(1 1) rotate(0) translate(4 57)">
<title>features.DisplayTurtle.updateLine</title>
<polygon fill="white" stroke="none" points="-4,4 -4,-57 1184,-57 1184,4 -4,4"/>
<!-- Node1 -->
<g id="node1" class="node"><title>Node1</title>
<polygon fill="#bfbfbf" stroke="black" points="0,-6.5 0,-25.5 176,-25.5 176,-6.5 0,-6.5"/>
<text text-anchor="middle" x="88" y="-13.5" font-family="Helvetica,sans-Serif" font-size="10.00">features.DisplayTurtle.updateLine</text>
</g>
<!-- Node2 -->
<g id="node2" class="node"><title>Node2</title>
<g id="a_node2"><a xlink:href="../../dc/d0a/classfeatures_1_1_display_turtle.html#aac090a97a844a60109816520333f7866" target="_top" xlink:title="features.DisplayTurtle.animate\lTurtlePosition">
<polygon fill="white" stroke="black" points="212,-23 212,-53 374,-53 374,-23 212,-23"/>
<text text-anchor="start" x="220" y="-41" font-family="Helvetica,sans-Serif" font-size="10.00">features.DisplayTurtle.animate</text>
<text text-anchor="middle" x="293" y="-30" font-family="Helvetica,sans-Serif" font-size="10.00">TurtlePosition</text>
</a>
</g>
</g>
<!-- Node1&#45;&gt;Node2 -->
<g id="edge1" class="edge"><title>Node1&#45;&gt;Node2</title>
<path fill="none" stroke="midnightblue" d="M186.29,-26.5437C194.855,-27.4719 203.46,-28.4045 211.86,-29.3149"/>
<polygon fill="midnightblue" stroke="midnightblue" points="186.587,-23.0556 176.268,-25.4577 185.833,-30.0148 186.587,-23.0556"/>
</g>
<!-- Node3 -->
<g id="node3" class="node"><title>Node3</title>
<g id="a_node3"><a xlink:href="../../dc/d0a/classfeatures_1_1_display_turtle.html#a06ca557d3458cbcec4fda12263280cc2" target="_top" xlink:title="features.DisplayTurtle.update\lPosition">
<polygon fill="white" stroke="black" points="410,-1 410,-31 566,-31 566,-1 410,-1"/>
<text text-anchor="start" x="418" y="-19" font-family="Helvetica,sans-Serif" font-size="10.00">features.DisplayTurtle.update</text>
<text text-anchor="middle" x="488" y="-8" font-family="Helvetica,sans-Serif" font-size="10.00">Position</text>
</a>
</g>
</g>
<!-- Node1&#45;&gt;Node3 -->
<g id="edge6" class="edge"><title>Node1&#45;&gt;Node3</title>
<path fill="none" stroke="midnightblue" d="M186.238,-14.2725C194.949,-14.162 203.634,-14.068 212,-14 283.998,-13.4147 302.003,-13.3629 374,-14 385.576,-14.1024 397.818,-14.2639 409.805,-14.4517"/>
<polygon fill="midnightblue" stroke="midnightblue" points="185.969,-10.7757 176.017,-14.4092 186.063,-17.7751 185.969,-10.7757"/>
</g>
<!-- Node2&#45;&gt;Node3 -->
<g id="edge2" class="edge"><title>Node2&#45;&gt;Node3</title>
<path fill="none" stroke="midnightblue" d="M384.198,-27.7184C392.778,-26.7403 401.425,-25.7547 409.865,-24.7925"/>
<polygon fill="midnightblue" stroke="midnightblue" points="383.712,-24.251 374.173,-28.8611 384.505,-31.206 383.712,-24.251"/>
</g>
<!-- Node4 -->
<g id="node4" class="node"><title>Node4</title>
<g id="a_node4"><a xlink:href="../../d6/d68/classcomponents_1_1_turtle_manager.html#aebd8b3f5c5eae3df7add8ce3d690aa47" target="_top" xlink:title="components.TurtleManager.update">
<polygon fill="white" stroke="black" points="602.5,-6.5 602.5,-25.5 785.5,-25.5 785.5,-6.5 602.5,-6.5"/>
<text text-anchor="middle" x="694" y="-13.5" font-family="Helvetica,sans-Serif" font-size="10.00">components.TurtleManager.update</text>
</a>
</g>
</g>
<!-- Node3&#45;&gt;Node4 -->
<g id="edge3" class="edge"><title>Node3&#45;&gt;Node4</title>
<path fill="none" stroke="midnightblue" d="M576.217,-16C584.886,-16 593.7,-16 602.402,-16"/>
<polygon fill="midnightblue" stroke="midnightblue" points="576.124,-12.5001 566.124,-16 576.124,-19.5001 576.124,-12.5001"/>
</g>
<!-- Node5 -->
<g id="node5" class="node"><title>Node5</title>
<g id="a_node5"><a xlink:href="../../da/d5b/classcomponents_1_1_center_pane.html#a97ff274041990d893a5eb4eaefc27ce0" target="_top" xlink:title="components.CenterPane.update\lTurtlePosition">
<polygon fill="white" stroke="black" points="822,-1 822,-31 994,-31 994,-1 822,-1"/>
<text text-anchor="start" x="830" y="-19" font-family="Helvetica,sans-Serif" font-size="10.00">components.CenterPane.update</text>
<text text-anchor="middle" x="908" y="-8" font-family="Helvetica,sans-Serif" font-size="10.00">TurtlePosition</text>
</a>
</g>
</g>
<!-- Node4&#45;&gt;Node5 -->
<g id="edge4" class="edge"><title>Node4&#45;&gt;Node5</title>
<path fill="none" stroke="midnightblue" d="M795.733,-16C804.462,-16 813.238,-16 821.825,-16"/>
<polygon fill="midnightblue" stroke="midnightblue" points="795.522,-12.5001 785.522,-16 795.522,-19.5001 795.522,-12.5001"/>
</g>
<!-- Node6 -->
<g id="node6" class="node"><title>Node6</title>
<g id="a_node6"><a xlink:href="../../d3/de0/classmain_application_1_1_g_u_i.html#ad575c58d2f282f0123d80fb31c11553e" target="_top" xlink:title="mainApplication.GUI.update">
<polygon fill="white" stroke="black" points="1030,-6.5 1030,-25.5 1180,-25.5 1180,-6.5 1030,-6.5"/>
<text text-anchor="middle" x="1105" y="-13.5" font-family="Helvetica,sans-Serif" font-size="10.00">mainApplication.GUI.update</text>
</a>
</g>
</g>
<!-- Node5&#45;&gt;Node6 -->
<g id="edge5" class="edge"><title>Node5&#45;&gt;Node6</title>
<path fill="none" stroke="midnightblue" d="M1004.32,-16C1012.92,-16 1021.55,-16 1029.93,-16"/>
<polygon fill="midnightblue" stroke="midnightblue" points="1004.25,-12.5001 994.246,-16 1004.25,-19.5001 1004.25,-12.5001"/>
</g>
</g>
</svg>
