<?xml version="1.0" encoding="UTF-8" standalone="no"?>
<!DOCTYPE svg PUBLIC "-//W3C//DTD SVG 1.1//EN"
 "http://www.w3.org/Graphics/SVG/1.1/DTD/svg11.dtd">
<!-- Generated by graphviz version 2.36.0 (20140111.2315)
 -->
<!-- Title: features.DisplayTurtle Pages: 1 -->
<svg width="1088pt" height="286pt"
 viewBox="0.00 0.00 1088.00 286.00" xmlns="http://www.w3.org/2000/svg" xmlns:xlink="http://www.w3.org/1999/xlink">
<g id="graph0" class="graph" transform="scale(1 1) rotate(0) translate(4 282)">
<title>features.DisplayTurtle</title>
<polygon fill="white" stroke="none" points="-4,4 -4,-282 1084,-282 1084,4 -4,4"/>
<!-- Node1 -->
<g id="node1" class="node"><title>Node1</title>
<polygon fill="#bfbfbf" stroke="black" points="960.5,-200.5 960.5,-219.5 1079.5,-219.5 1079.5,-200.5 960.5,-200.5"/>
<text text-anchor="middle" x="1020" y="-207.5" font-family="Helvetica,sans-Serif" font-size="10.00">features.DisplayTurtle</text>
</g>
<!-- Node2 -->
<g id="node2" class="node"><title>Node2</title>
<polygon fill="white" stroke="#bfbfbf" points="764,-258.5 764,-277.5 800,-277.5 800,-258.5 764,-258.5"/>
<text text-anchor="middle" x="782" y="-265.5" font-family="Helvetica,sans-Serif" font-size="10.00">Line</text>
</g>
<!-- Node2&#45;&gt;Node1 -->
<g id="edge1" class="edge"><title>Node2&#45;&gt;Node1</title>
<path fill="none" stroke="#9a32cd" stroke-dasharray="5,2" d="M810.278,-263.915C842.169,-258.856 896.398,-249.371 942,-237 959.91,-232.141 979.653,-225.185 994.664,-219.55"/>
<polygon fill="#9a32cd" stroke="#9a32cd" points="809.706,-260.462 800.364,-265.459 810.783,-267.378 809.706,-260.462"/>
<text text-anchor="middle" x="905" y="-256" font-family="Helvetica,sans-Serif" font-size="10.00"> myLine</text>
</g>
<!-- Node3 -->
<g id="node3" class="node"><title>Node3</title>
<polygon fill="white" stroke="#bfbfbf" points="748,-220.5 748,-239.5 816,-239.5 816,-220.5 748,-220.5"/>
<text text-anchor="middle" x="782" y="-227.5" font-family="Helvetica,sans-Serif" font-size="10.00">ImageView</text>
</g>
<!-- Node3&#45;&gt;Node1 -->
<g id="edge2" class="edge"><title>Node3&#45;&gt;Node1</title>
<path fill="none" stroke="#9a32cd" stroke-dasharray="5,2" d="M826.187,-226.34C863.791,-223.153 918.647,-218.504 960.242,-214.979"/>
<polygon fill="#9a32cd" stroke="#9a32cd" points="825.732,-222.866 816.063,-227.198 826.323,-229.841 825.732,-222.866"/>
<text text-anchor="middle" x="905" y="-225" font-family="Helvetica,sans-Serif" font-size="10.00"> myImage</text>
</g>
<!-- Node4 -->
<g id="node4" class="node"><title>Node4</title>
<g id="a_node4"><a xlink:href="../../da/da7/classfeatures_1_1_pen.html" target="_top" xlink:title="features.Pen">
<polygon fill="white" stroke="black" points="614.5,-210.5 614.5,-229.5 691.5,-229.5 691.5,-210.5 614.5,-210.5"/>
<text text-anchor="middle" x="653" y="-217.5" font-family="Helvetica,sans-Serif" font-size="10.00">features.Pen</text>
</a>
</g>
</g>
<!-- Node4&#45;&gt;Node1 -->
<g id="edge3" class="edge"><title>Node4&#45;&gt;Node1</title>
<path fill="none" stroke="#9a32cd" stroke-dasharray="5,2" d="M686.442,-207.077C695.242,-204.156 704.865,-201.482 714,-200 798.85,-186.231 898.661,-193.932 960.385,-201.419"/>
<polygon fill="#9a32cd" stroke="#9a32cd" points="685.195,-203.805 676.926,-210.428 687.521,-210.408 685.195,-203.805"/>
<text text-anchor="middle" x="782" y="-203" font-family="Helvetica,sans-Serif" font-size="10.00"> myPen</text>
</g>
<!-- Node5 -->
<g id="node5" class="node"><title>Node5</title>
<polygon fill="white" stroke="#bfbfbf" points="226.5,-208.5 226.5,-227.5 267.5,-227.5 267.5,-208.5 226.5,-208.5"/>
<text text-anchor="middle" x="247" y="-215.5" font-family="Helvetica,sans-Serif" font-size="10.00">Color</text>
</g>
<!-- Node5&#45;&gt;Node4 -->
<g id="edge4" class="edge"><title>Node5&#45;&gt;Node4</title>
<path fill="none" stroke="#9a32cd" stroke-dasharray="5,2" d="M277.996,-218.148C350.393,-218.507 534.594,-219.419 614.296,-219.813"/>
<polygon fill="#9a32cd" stroke="#9a32cd" points="277.776,-214.647 267.759,-218.098 277.742,-221.647 277.776,-214.647"/>
<text text-anchor="middle" x="387" y="-221" font-family="Helvetica,sans-Serif" font-size="10.00"> penColor</text>
</g>
<!-- Node10 -->
<g id="node10" class="node"><title>Node10</title>
<g id="a_node10"><a xlink:href="../../d6/d68/classcomponents_1_1_turtle_manager.html" target="_top" xlink:title="components.TurtleManager">
<polygon fill="white" stroke="black" points="444.5,-152.5 444.5,-171.5 591.5,-171.5 591.5,-152.5 444.5,-152.5"/>
<text text-anchor="middle" x="518" y="-159.5" font-family="Helvetica,sans-Serif" font-size="10.00">components.TurtleManager</text>
</a>
</g>
</g>
<!-- Node5&#45;&gt;Node10 -->
<g id="edge17" class="edge"><title>Node5&#45;&gt;Node10</title>
<path fill="none" stroke="#9a32cd" stroke-dasharray="5,2" d="M277.543,-211.773C297.45,-207.584 324.3,-201.943 348,-197 389.505,-188.344 436.759,-178.564 470.727,-171.547"/>
<polygon fill="#9a32cd" stroke="#9a32cd" points="276.606,-208.394 267.542,-213.88 278.048,-215.244 276.606,-208.394"/>
<text text-anchor="middle" x="387" y="-200" font-family="Helvetica,sans-Serif" font-size="10.00"> testC</text>
</g>
<!-- Node6 -->
<g id="node6" class="node"><title>Node6</title>
<g id="a_node6"><a xlink:href="../../da/d5b/classcomponents_1_1_center_pane.html" target="_top" xlink:title="components.CenterPane">
<polygon fill="white" stroke="black" points="714.5,-107.5 714.5,-126.5 849.5,-126.5 849.5,-107.5 714.5,-107.5"/>
<text text-anchor="middle" x="782" y="-114.5" font-family="Helvetica,sans-Serif" font-size="10.00">components.CenterPane</text>
</a>
</g>
</g>
<!-- Node6&#45;&gt;Node1 -->
<g id="edge5" class="edge"><title>Node6&#45;&gt;Node1</title>
<path fill="none" stroke="#9a32cd" stroke-dasharray="5,2" d="M832.398,-129.203C864.307,-137.816 906.368,-150.554 942,-166 964.744,-175.859 989.335,-190.72 1004.45,-200.392"/>
<polygon fill="#9a32cd" stroke="#9a32cd" points="832.979,-125.736 822.415,-126.553 831.183,-132.502 832.979,-125.736"/>
<text text-anchor="middle" x="905" y="-169" font-family="Helvetica,sans-Serif" font-size="10.00"> myCenterPane</text>
</g>
<!-- Node6&#45;&gt;Node10 -->
<g id="edge16" class="edge"><title>Node6&#45;&gt;Node10</title>
<path fill="none" stroke="#9a32cd" stroke-dasharray="5,2" d="M715.619,-128.23C672.199,-135.687 615.813,-145.372 574.563,-152.457"/>
<polygon fill="#9a32cd" stroke="#9a32cd" points="716.253,-131.672 725.517,-126.53 715.068,-124.773 716.253,-131.672"/>
<text text-anchor="middle" x="653" y="-150" font-family="Helvetica,sans-Serif" font-size="10.00"> myCenterPane</text>
</g>
<!-- Node7 -->
<g id="node7" class="node"><title>Node7</title>
<polygon fill="white" stroke="#bfbfbf" points="498,-114.5 498,-133.5 538,-133.5 538,-114.5 498,-114.5"/>
<text text-anchor="middle" x="518" y="-121.5" font-family="Helvetica,sans-Serif" font-size="10.00">Pane</text>
</g>
<!-- Node7&#45;&gt;Node6 -->
<g id="edge6" class="edge"><title>Node7&#45;&gt;Node6</title>
<path fill="none" stroke="midnightblue" d="M548.382,-123.215C588.295,-122.149 660.799,-120.211 714.289,-118.782"/>
<polygon fill="midnightblue" stroke="midnightblue" points="548.168,-119.719 538.265,-123.485 548.355,-126.717 548.168,-119.719"/>
</g>
<!-- Node8 -->
<g id="node8" class="node"><title>Node8</title>
<g id="a_node8"><a xlink:href="../../d2/dfc/interfacefeatures_1_1_feature.html" target="_top" xlink:title="features.Feature">
<polygon fill="white" stroke="black" points="470.5,-76.5 470.5,-95.5 565.5,-95.5 565.5,-76.5 470.5,-76.5"/>
<text text-anchor="middle" x="518" y="-83.5" font-family="Helvetica,sans-Serif" font-size="10.00">features.Feature</text>
</a>
</g>
</g>
<!-- Node8&#45;&gt;Node6 -->
<g id="edge7" class="edge"><title>Node8&#45;&gt;Node6</title>
<path fill="none" stroke="midnightblue" d="M575.565,-92.6928C616.281,-97.5104 671.357,-104.027 714.233,-109.1"/>
<polygon fill="midnightblue" stroke="midnightblue" points="575.88,-89.2058 565.538,-91.5065 575.058,-96.1573 575.88,-89.2058"/>
</g>
<!-- Node9 -->
<g id="node9" class="node"><title>Node9</title>
<polygon fill="white" stroke="#bfbfbf" points="456,-38.5 456,-57.5 580,-57.5 580,-38.5 456,-38.5"/>
<text text-anchor="middle" x="518" y="-45.5" font-family="Helvetica,sans-Serif" font-size="10.00">Map&lt; Integer, Color &gt;</text>
</g>
<!-- Node9&#45;&gt;Node6 -->
<g id="edge8" class="edge"><title>Node9&#45;&gt;Node6</title>
<path fill="none" stroke="#9a32cd" stroke-dasharray="5,2" d="M590.251,-58.329C622.854,-63.9085 661.764,-71.7762 696,-82 718.938,-88.8497 744.178,-99.6887 761.147,-107.49"/>
<polygon fill="#9a32cd" stroke="#9a32cd" points="590.789,-54.8704 580.348,-56.6709 589.633,-61.7743 590.789,-54.8704"/>
<text text-anchor="middle" x="653" y="-85" font-family="Helvetica,sans-Serif" font-size="10.00"> colorsMap</text>
</g>
<!-- Node10&#45;&gt;Node6 -->
<g id="edge9" class="edge"><title>Node10&#45;&gt;Node6</title>
<path fill="none" stroke="#9a32cd" stroke-dasharray="5,2" d="M601.894,-170.226C631.924,-171.062 665.857,-169.487 696,-162 723.549,-155.158 751.992,-137.559 767.994,-126.507"/>
<polygon fill="#9a32cd" stroke="#9a32cd" points="601.993,-166.727 591.87,-169.855 601.734,-173.723 601.993,-166.727"/>
<text text-anchor="middle" x="653" y="-174" font-family="Helvetica,sans-Serif" font-size="10.00"> myTurtleManager</text>
</g>
<!-- Node11 -->
<g id="node11" class="node"><title>Node11</title>
<polygon fill="white" stroke="#bfbfbf" points="164.5,-152 164.5,-182 329.5,-182 329.5,-152 164.5,-152"/>
<text text-anchor="start" x="172.5" y="-170" font-family="Helvetica,sans-Serif" font-size="10.00">Map&lt; Integer, features.Display</text>
<text text-anchor="middle" x="247" y="-159" font-family="Helvetica,sans-Serif" font-size="10.00">Turtle &gt;</text>
</g>
<!-- Node11&#45;&gt;Node10 -->
<g id="edge10" class="edge"><title>Node11&#45;&gt;Node10</title>
<path fill="none" stroke="#9a32cd" stroke-dasharray="5,2" d="M339.745,-163.208C342.528,-163.132 345.285,-163.062 348,-163 379.533,-162.276 414.384,-161.984 444.205,-161.888"/>
<polygon fill="#9a32cd" stroke="#9a32cd" points="339.474,-159.714 329.582,-163.507 339.681,-166.711 339.474,-159.714"/>
<text text-anchor="middle" x="387" y="-166" font-family="Helvetica,sans-Serif" font-size="10.00"> myTurtleMap</text>
</g>
<!-- Node12 -->
<g id="node12" class="node"><title>Node12</title>
<polygon fill="white" stroke="#bfbfbf" points="171.5,-113.5 171.5,-132.5 322.5,-132.5 322.5,-113.5 171.5,-113.5"/>
<text text-anchor="middle" x="247" y="-120.5" font-family="Helvetica,sans-Serif" font-size="10.00">Map&lt; Integer, ImageView &gt;</text>
</g>
<!-- Node12&#45;&gt;Node10 -->
<g id="edge11" class="edge"><title>Node12&#45;&gt;Node10</title>
<path fill="none" stroke="#9a32cd" stroke-dasharray="5,2" d="M332.821,-133.92C362.34,-137.857 395.656,-142.454 426,-147 437.243,-148.684 449.249,-150.588 460.731,-152.46"/>
<polygon fill="#9a32cd" stroke="#9a32cd" points="332.923,-130.403 322.549,-132.556 332.002,-137.342 332.923,-130.403"/>
<text text-anchor="middle" x="387" y="-150" font-family="Helvetica,sans-Serif" font-size="10.00"> myImageMap</text>
</g>
<!-- Node13 -->
<g id="node13" class="node"><title>Node13</title>
<g id="a_node13"><a xlink:href="../../d9/d58/classcomponents_1_1_bottom_pane.html" target="_top" xlink:title="components.BottomPane">
<polygon fill="white" stroke="black" points="177.5,-75.5 177.5,-94.5 316.5,-94.5 316.5,-75.5 177.5,-75.5"/>
<text text-anchor="middle" x="247" y="-82.5" font-family="Helvetica,sans-Serif" font-size="10.00">components.BottomPane</text>
</a>
</g>
</g>
<!-- Node13&#45;&gt;Node10 -->
<g id="edge12" class="edge"><title>Node13&#45;&gt;Node10</title>
<path fill="none" stroke="#9a32cd" stroke-dasharray="5,2" d="M326.786,-90.192C359.27,-95.0853 396.2,-104.397 426,-122 436.584,-128.252 433.574,-136.487 444,-143 450.22,-146.886 457.211,-149.98 464.34,-152.444"/>
<polygon fill="#9a32cd" stroke="#9a32cd" points="327.247,-86.7225 316.86,-88.8109 326.282,-93.6557 327.247,-86.7225"/>
<text text-anchor="middle" x="387" y="-125" font-family="Helvetica,sans-Serif" font-size="10.00"> myBottomPane</text>
</g>
<!-- Node14 -->
<g id="node14" class="node"><title>Node14</title>
<polygon fill="white" stroke="#bfbfbf" points="8,-113.5 8,-132.5 50,-132.5 50,-113.5 8,-113.5"/>
<text text-anchor="middle" x="29" y="-120.5" font-family="Helvetica,sans-Serif" font-size="10.00">HBox</text>
</g>
<!-- Node14&#45;&gt;Node13 -->
<g id="edge13" class="edge"><title>Node14&#45;&gt;Node13</title>
<path fill="none" stroke="midnightblue" d="M60.5544,-117.625C94.5512,-111.644 150.148,-101.863 191.615,-94.5677"/>
<polygon fill="midnightblue" stroke="midnightblue" points="59.5631,-114.245 50.3208,-119.425 60.776,-121.139 59.5631,-114.245"/>
</g>
<!-- Node15 -->
<g id="node15" class="node"><title>Node15</title>
<polygon fill="white" stroke="#bfbfbf" points="8,-75.5 8,-94.5 50,-94.5 50,-75.5 8,-75.5"/>
<text text-anchor="middle" x="29" y="-82.5" font-family="Helvetica,sans-Serif" font-size="10.00">Label</text>
</g>
<!-- Node15&#45;&gt;Node13 -->
<g id="edge14" class="edge"><title>Node15&#45;&gt;Node13</title>
<path fill="none" stroke="#9a32cd" stroke-dasharray="5,2" d="M60.6225,-85C90.7928,-85 137.927,-85 177.116,-85"/>
<polygon fill="#9a32cd" stroke="#9a32cd" points="60.3208,-81.5001 50.3208,-85 60.3207,-88.5001 60.3208,-81.5001"/>
<text text-anchor="middle" x="111" y="-88" font-family="Helvetica,sans-Serif" font-size="10.00"> myErrors</text>
</g>
<!-- Node16 -->
<g id="node16" class="node"><title>Node16</title>
<polygon fill="white" stroke="#bfbfbf" points="0,-37.5 0,-56.5 58,-56.5 58,-37.5 0,-37.5"/>
<text text-anchor="middle" x="29" y="-44.5" font-family="Helvetica,sans-Serif" font-size="10.00">TextArea</text>
</g>
<!-- Node16&#45;&gt;Node13 -->
<g id="edge15" class="edge"><title>Node16&#45;&gt;Node13</title>
<path fill="none" stroke="#9a32cd" stroke-dasharray="5,2" d="M68.3131,-53.7403C102.567,-59.7663 153.142,-68.6639 191.586,-75.4271"/>
<polygon fill="#9a32cd" stroke="#9a32cd" points="68.6934,-50.2535 58.2382,-51.9678 67.4805,-57.1476 68.6934,-50.2535"/>
<text text-anchor="middle" x="111" y="-71" font-family="Helvetica,sans-Serif" font-size="10.00"> myCommand</text>
</g>
<!-- Node17 -->
<g id="node17" class="node"><title>Node17</title>
<polygon fill="white" stroke="#bfbfbf" points="488.5,-0.5 488.5,-19.5 547.5,-19.5 547.5,-0.5 488.5,-0.5"/>
<text text-anchor="middle" x="518" y="-7.5" font-family="Helvetica,sans-Serif" font-size="10.00">GridPane</text>
</g>
<!-- Node17&#45;&gt;Node6 -->
<g id="edge18" class="edge"><title>Node17&#45;&gt;Node6</title>
<path fill="none" stroke="#9a32cd" stroke-dasharray="5,2" d="M557.971,-13.0901C595.006,-17.2215 651.497,-26.6845 696,-48 727.542,-63.1073 757.653,-92.1434 772.096,-107.281"/>
<polygon fill="#9a32cd" stroke="#9a32cd" points="557.909,-9.56516 547.602,-12.0163 557.188,-16.5279 557.909,-9.56516"/>
<text text-anchor="middle" x="653" y="-51" font-family="Helvetica,sans-Serif" font-size="10.00"> referenceGrid</text>
</g>
</g>
</svg>
