<?xml version="1.0" encoding="UTF-8" standalone="no"?>
<!DOCTYPE svg PUBLIC "-//W3C//DTD SVG 1.1//EN"
 "http://www.w3.org/Graphics/SVG/1.1/DTD/svg11.dtd">
<!-- Generated by graphviz version 2.36.0 (20140111.2315)
 -->
<!-- Title: mainApplication.GUI.initiate Pages: 1 -->
<!--zoomable 427 -->
<svg id="main" version="1.1" xmlns="http://www.w3.org/2000/svg" xmlns:xlink="http://www.w3.org/1999/xlink" xml:space="preserve" onload="init(evt)">
<style type="text/css"><![CDATA[
.edge:hover path { stroke: red; }
.edge:hover polygon { stroke: red; fill: red; }
]]></style>
<script type="text/javascript"><![CDATA[
var edges = document.getElementsByTagName('g');
if (edges && edges.length) {
  for (var i=0;i<edges.length;i++) {
    if (edges[i].id.substr(0,4)=='edge') {
      edges[i].setAttribute('class','edge');
    }
  }
}
]]></script>
        <defs>
                <circle id="rim" cx="0" cy="0" r="7"/>
                <circle id="rim2" cx="0" cy="0" r="3.5"/>
                <g id="zoomPlus">
                        <use xlink:href="#rim" fill="#404040">
                                <set attributeName="fill" to="#808080" begin="zoomplus.mouseover" end="zoomplus.mouseout"/>
                        </use>
                        <path d="M-4,0h8M0,-4v8" fill="none" stroke="white" stroke-width="1.5" pointer-events="none"/>
                </g>
                <g id="zoomMin">
                        <use xlink:href="#rim" fill="#404040">
                                <set attributeName="fill" to="#808080" begin="zoomminus.mouseover" end="zoomminus.mouseout"/>
                        </use>
                        <path d="M-4,0h8" fill="none" stroke="white" stroke-width="1.5" pointer-events="none"/>
                </g>
                <g id="dirArrow">
                        <path fill="none" stroke="white" stroke-width="1.5" d="M0,-3.0v7 M-2.5,-0.5L0,-3.0L2.5,-0.5"/>
                </g>
               <g id="resetDef">
                       <use xlink:href="#rim2" fill="#404040">
                               <set attributeName="fill" to="#808080" begin="reset.mouseover" end="reset.mouseout"/>
                       </use>
               </g>
        </defs>

<script type="text/javascript">
var viewWidth = 1588;
var viewHeight = 427;
var sectionId = 'dynsection-2';
</script>
<script xlink:href="../../svgpan.js"/>
<svg id="graph" class="graph">
<g id="viewport">
<title>mainApplication.GUI.initiate</title>
<polygon fill="white" stroke="none" points="-4,4 -4,-423 1584,-423 1584,4 -4,4"/>
<!-- Node1 -->
<g id="node1" class="node"><title>Node1</title>
<polygon fill="#bfbfbf" stroke="black" points="0.5,-327.5 0.5,-346.5 149.5,-346.5 149.5,-327.5 0.5,-327.5"/>
<text text-anchor="middle" x="75" y="-334.5" font-family="Helvetica,sans-Serif" font-size="10.00">mainApplication.GUI.initiate</text>
</g>
<!-- Node2 -->
<g id="node2" class="node"><title>Node2</title>
<g id="a_node2"><a xlink:href="../../d7/da1/classmain_application_1_1_controller.html#a14cb8c148061cb04d6968d56f26e4c82" target="_top" xlink:title="mainApplication.Controller.create\lWorkspace">
<polygon fill="white" stroke="black" points="186,-371 186,-401 362,-401 362,-371 186,-371"/>
<text text-anchor="start" x="194" y="-389" font-family="Helvetica,sans-Serif" font-size="10.00">mainApplication.Controller.create</text>
<text text-anchor="middle" x="274" y="-378" font-family="Helvetica,sans-Serif" font-size="10.00">Workspace</text>
</a>
</g>
</g>
<!-- Node1&#45;&gt;Node2 -->
<g id="edge1" class="edge"><title>Node1&#45;&gt;Node2</title>
<path fill="none" stroke="midnightblue" d="M114.451,-346.564C139.501,-352.795 172.929,-361.109 202.632,-368.497"/>
<polygon fill="midnightblue" stroke="midnightblue" points="201.996,-371.946 212.545,-370.963 203.686,-365.153 201.996,-371.946"/>
</g>
<!-- Node5 -->
<g id="node5" class="node"><title>Node5</title>
<g id="a_node5"><a xlink:href="../../d3/de0/classmain_application_1_1_g_u_i.html#a60b2e396c945ac173bfd82f207f42000" target="_top" xlink:title="mainApplication.GUI.initiate\lKeyPress">
<polygon fill="white" stroke="black" points="199.5,-322 199.5,-352 348.5,-352 348.5,-322 199.5,-322"/>
<text text-anchor="start" x="207.5" y="-340" font-family="Helvetica,sans-Serif" font-size="10.00">mainApplication.GUI.initiate</text>
<text text-anchor="middle" x="274" y="-329" font-family="Helvetica,sans-Serif" font-size="10.00">KeyPress</text>
</a>
</g>
</g>
<!-- Node1&#45;&gt;Node5 -->
<g id="edge4" class="edge"><title>Node1&#45;&gt;Node5</title>
<path fill="none" stroke="midnightblue" d="M149.636,-337C162.612,-337 176.204,-337 189.429,-337"/>
<polygon fill="midnightblue" stroke="midnightblue" points="189.454,-340.5 199.454,-337 189.453,-333.5 189.454,-340.5"/>
</g>
<!-- Node18 -->
<g id="node18" class="node"><title>Node18</title>
<g id="a_node18"><a xlink:href="../../d3/de0/classmain_application_1_1_g_u_i.html#a5b9d9bebac3a8ce813b0134ecdafc66d" target="_top" xlink:title="mainApplication.GUI.load\lPanes">
<polygon fill="white" stroke="black" points="205.5,-171 205.5,-201 342.5,-201 342.5,-171 205.5,-171"/>
<text text-anchor="start" x="213.5" y="-189" font-family="Helvetica,sans-Serif" font-size="10.00">mainApplication.GUI.load</text>
<text text-anchor="middle" x="274" y="-178" font-family="Helvetica,sans-Serif" font-size="10.00">Panes</text>
</a>
</g>
</g>
<!-- Node1&#45;&gt;Node18 -->
<g id="edge19" class="edge"><title>Node1&#45;&gt;Node18</title>
<path fill="none" stroke="midnightblue" d="M88.6229,-327.325C119.911,-303.342 201.645,-240.693 245.021,-207.446"/>
<polygon fill="midnightblue" stroke="midnightblue" points="247.351,-210.07 253.158,-201.209 243.092,-204.514 247.351,-210.07"/>
</g>
<!-- Node3 -->
<g id="node3" class="node"><title>Node3</title>
<g id="a_node3"><a xlink:href="../../de/d19/classworkspace_1_1_workspace.html#aecaf73d3c2b2008aac032adc4a4f759f" target="_top" xlink:title="workspace.Workspace.create\lTurtle">
<polygon fill="white" stroke="black" points="415.5,-371 415.5,-401 570.5,-401 570.5,-371 415.5,-371"/>
<text text-anchor="start" x="423.5" y="-389" font-family="Helvetica,sans-Serif" font-size="10.00">workspace.Workspace.create</text>
<text text-anchor="middle" x="493" y="-378" font-family="Helvetica,sans-Serif" font-size="10.00">Turtle</text>
</a>
</g>
</g>
<!-- Node2&#45;&gt;Node3 -->
<g id="edge2" class="edge"><title>Node2&#45;&gt;Node3</title>
<path fill="none" stroke="midnightblue" d="M362.012,-386C376.244,-386 390.99,-386 405.217,-386"/>
<polygon fill="midnightblue" stroke="midnightblue" points="405.47,-389.5 415.47,-386 405.47,-382.5 405.47,-389.5"/>
</g>
<!-- Node4 -->
<g id="node4" class="node"><title>Node4</title>
<g id="a_node4"><a xlink:href="../../d4/d4a/classactor_1_1_turtle.html#aef4e04d5061408a3d5c35eb27cc7f96f" target="_top" xlink:title="actor.Turtle.setChangedand\lNotify">
<polygon fill="white" stroke="black" points="633,-371 633,-401 781,-401 781,-371 633,-371"/>
<text text-anchor="start" x="641" y="-389" font-family="Helvetica,sans-Serif" font-size="10.00">actor.Turtle.setChangedand</text>
<text text-anchor="middle" x="707" y="-378" font-family="Helvetica,sans-Serif" font-size="10.00">Notify</text>
</a>
</g>
</g>
<!-- Node3&#45;&gt;Node4 -->
<g id="edge3" class="edge"><title>Node3&#45;&gt;Node4</title>
<path fill="none" stroke="midnightblue" d="M570.537,-386C587.491,-386 605.537,-386 622.744,-386"/>
<polygon fill="midnightblue" stroke="midnightblue" points="622.763,-389.5 632.763,-386 622.763,-382.5 622.763,-389.5"/>
</g>
<!-- Node6 -->
<g id="node6" class="node"><title>Node6</title>
<g id="a_node6"><a xlink:href="../../d7/da1/classmain_application_1_1_controller.html#a6e9afc2e53e6adb01a2b73794a319b63" target="_top" xlink:title="mainApplication.Controller.parse\lAndEvaluate">
<polygon fill="white" stroke="black" points="407,-322 407,-352 579,-352 579,-322 407,-322"/>
<text text-anchor="start" x="415" y="-340" font-family="Helvetica,sans-Serif" font-size="10.00">mainApplication.Controller.parse</text>
<text text-anchor="middle" x="493" y="-329" font-family="Helvetica,sans-Serif" font-size="10.00">AndEvaluate</text>
</a>
</g>
</g>
<!-- Node5&#45;&gt;Node6 -->
<g id="edge5" class="edge"><title>Node5&#45;&gt;Node6</title>
<path fill="none" stroke="midnightblue" d="M348.769,-337C364.089,-337 380.442,-337 396.416,-337"/>
<polygon fill="midnightblue" stroke="midnightblue" points="396.844,-340.5 406.844,-337 396.844,-333.5 396.844,-340.5"/>
</g>
<!-- Node7 -->
<g id="node7" class="node"><title>Node7</title>
<g id="a_node7"><a xlink:href="../../de/d19/classworkspace_1_1_workspace.html#a3a9437dc7cd23ecdf0d20e29e577ae9b" target="_top" xlink:title="workspace.Workspace.evaluate">
<polygon fill="white" stroke="black" points="624.5,-330.5 624.5,-349.5 789.5,-349.5 789.5,-330.5 624.5,-330.5"/>
<text text-anchor="middle" x="707" y="-337.5" font-family="Helvetica,sans-Serif" font-size="10.00">workspace.Workspace.evaluate</text>
</a>
</g>
</g>
<!-- Node6&#45;&gt;Node7 -->
<g id="edge6" class="edge"><title>Node6&#45;&gt;Node7</title>
<path fill="none" stroke="midnightblue" d="M579.007,-338.203C590.59,-338.367 602.52,-338.536 614.216,-338.701"/>
<polygon fill="midnightblue" stroke="midnightblue" points="614.37,-342.204 624.419,-338.846 614.47,-335.204 614.37,-342.204"/>
</g>
<!-- Node8 -->
<g id="node8" class="node"><title>Node8</title>
<g id="a_node8"><a xlink:href="../../d6/d95/classparser_1_1_parser.html#a5e98fdfffe49478864dc1b22371d6cb1" target="_top" xlink:title="parser.Parser.parse">
<polygon fill="white" stroke="black" points="652.5,-292.5 652.5,-311.5 761.5,-311.5 761.5,-292.5 652.5,-292.5"/>
<text text-anchor="middle" x="707" y="-299.5" font-family="Helvetica,sans-Serif" font-size="10.00">parser.Parser.parse</text>
</a>
</g>
</g>
<!-- Node6&#45;&gt;Node8 -->
<g id="edge7" class="edge"><title>Node6&#45;&gt;Node8</title>
<path fill="none" stroke="midnightblue" d="M579.007,-322.966C600.194,-319.468 622.547,-315.778 642.495,-312.484"/>
<polygon fill="midnightblue" stroke="midnightblue" points="643.085,-315.934 652.381,-310.852 641.945,-309.028 643.085,-315.934"/>
</g>
<!-- Node9 -->
<g id="node9" class="node"><title>Node9</title>
<g id="a_node9"><a xlink:href="../../d6/d95/classparser_1_1_parser.html#a2fe30e8a728e36fd2626587f059c4b95" target="_top" xlink:title="parser.Parser.makeTree">
<polygon fill="white" stroke="black" points="826,-292.5 826,-311.5 954,-311.5 954,-292.5 826,-292.5"/>
<text text-anchor="middle" x="890" y="-299.5" font-family="Helvetica,sans-Serif" font-size="10.00">parser.Parser.makeTree</text>
</a>
</g>
</g>
<!-- Node8&#45;&gt;Node9 -->
<g id="edge8" class="edge"><title>Node8&#45;&gt;Node9</title>
<path fill="none" stroke="midnightblue" d="M761.816,-302C778.707,-302 797.65,-302 815.653,-302"/>
<polygon fill="midnightblue" stroke="midnightblue" points="815.829,-305.5 825.829,-302 815.829,-298.5 815.829,-305.5"/>
</g>
<!-- Node10 -->
<g id="node10" class="node"><title>Node10</title>
<g id="a_node10"><a xlink:href="../../d6/d95/classparser_1_1_parser.html#ad5386cfbaf84af60512e31503fda19ed" target="_top" xlink:title="parser.Parser.makeNode">
<polygon fill="white" stroke="black" points="1018,-390.5 1018,-409.5 1152,-409.5 1152,-390.5 1018,-390.5"/>
<text text-anchor="middle" x="1085" y="-397.5" font-family="Helvetica,sans-Serif" font-size="10.00">parser.Parser.makeNode</text>
</a>
</g>
</g>
<!-- Node9&#45;&gt;Node10 -->
<g id="edge9" class="edge"><title>Node9&#45;&gt;Node10</title>
<path fill="none" stroke="midnightblue" d="M901.776,-311.665C919.154,-326.781 954.973,-356.04 990,-373 1002.18,-378.897 1015.88,-383.738 1028.98,-387.611"/>
<polygon fill="midnightblue" stroke="midnightblue" points="1028.27,-391.047 1038.85,-390.384 1030.17,-384.308 1028.27,-391.047"/>
</g>
<!-- Node12 -->
<g id="node12" class="node"><title>Node12</title>
<g id="a_node12"><a xlink:href="../../d3/dcc/classparser_1_1_node.html#a7dfaaf7e60998705460f304c5d56ca6f" target="_top" xlink:title="parser.Node.getCommand">
<polygon fill="white" stroke="black" points="1436,-311.5 1436,-330.5 1580,-330.5 1580,-311.5 1436,-311.5"/>
<text text-anchor="middle" x="1508" y="-318.5" font-family="Helvetica,sans-Serif" font-size="10.00">parser.Node.getCommand</text>
</a>
</g>
</g>
<!-- Node9&#45;&gt;Node12 -->
<g id="edge11" class="edge"><title>Node9&#45;&gt;Node12</title>
<path fill="none" stroke="midnightblue" d="M909.741,-311.584C929.213,-320.961 960.856,-334.599 990,-340 1151.42,-369.916 1345.89,-347.427 1443.93,-332.115"/>
<polygon fill="midnightblue" stroke="midnightblue" points="1444.64,-335.546 1453.97,-330.519 1443.55,-328.632 1444.64,-335.546"/>
</g>
<!-- Node13 -->
<g id="node13" class="node"><title>Node13</title>
<g id="a_node13"><a xlink:href="../../d7/d35/classcommand_1_1_command.html#a81d128e8b4ac11d732d24edcbc5c2a88" target="_top" xlink:title="command.Command.getNumInputs">
<polygon fill="white" stroke="black" points="990,-311.5 990,-330.5 1180,-330.5 1180,-311.5 990,-311.5"/>
<text text-anchor="middle" x="1085" y="-318.5" font-family="Helvetica,sans-Serif" font-size="10.00">command.Command.getNumInputs</text>
</a>
</g>
</g>
<!-- Node9&#45;&gt;Node13 -->
<g id="edge12" class="edge"><title>Node9&#45;&gt;Node13</title>
<path fill="none" stroke="midnightblue" d="M954.195,-308.221C962.413,-309.03 970.998,-309.875 979.668,-310.729"/>
<polygon fill="midnightblue" stroke="midnightblue" points="979.573,-314.236 989.868,-311.733 980.259,-307.27 979.573,-314.236"/>
</g>
<!-- Node15 -->
<g id="node15" class="node"><title>Node15</title>
<g id="a_node15"><a xlink:href="../../d3/dcc/classparser_1_1_node.html#ae9a17458b710c179f741464ca6e9048a" target="_top" xlink:title="parser.Node.addChild">
<polygon fill="white" stroke="black" points="1025.5,-273.5 1025.5,-292.5 1144.5,-292.5 1144.5,-273.5 1025.5,-273.5"/>
<text text-anchor="middle" x="1085" y="-280.5" font-family="Helvetica,sans-Serif" font-size="10.00">parser.Node.addChild</text>
</a>
</g>
</g>
<!-- Node9&#45;&gt;Node15 -->
<g id="edge16" class="edge"><title>Node9&#45;&gt;Node15</title>
<path fill="none" stroke="midnightblue" d="M954.195,-295.779C973.668,-293.862 995.202,-291.742 1015.04,-289.789"/>
<polygon fill="midnightblue" stroke="midnightblue" points="1015.63,-293.247 1025.24,-288.784 1014.95,-286.281 1015.63,-293.247"/>
</g>
<!-- Node16 -->
<g id="node16" class="node"><title>Node16</title>
<g id="a_node16"><a xlink:href="../../d7/d35/classcommand_1_1_command.html#ab994c7989255741306855f258b1c2191" target="_top" xlink:title="command.Command.isList">
<polygon fill="white" stroke="black" points="1012,-235.5 1012,-254.5 1158,-254.5 1158,-235.5 1012,-235.5"/>
<text text-anchor="middle" x="1085" y="-242.5" font-family="Helvetica,sans-Serif" font-size="10.00">command.Command.isList</text>
</a>
</g>
</g>
<!-- Node9&#45;&gt;Node16 -->
<g id="edge17" class="edge"><title>Node9&#45;&gt;Node16</title>
<path fill="none" stroke="midnightblue" d="M912.66,-292.479C932.48,-284.059 962.776,-271.916 990,-264 999.255,-261.309 1009.13,-258.863 1018.87,-256.69"/>
<polygon fill="midnightblue" stroke="midnightblue" points="1019.91,-260.048 1028.95,-254.524 1018.44,-253.204 1019.91,-260.048"/>
</g>
<!-- Node17 -->
<g id="node17" class="node"><title>Node17</title>
<g id="a_node17"><a xlink:href="../../d7/d35/classcommand_1_1_command.html#ac2df873d4926bc6e08dba8c6272cff7e" target="_top" xlink:title="command.Command.toString">
<polygon fill="white" stroke="black" points="1005,-197.5 1005,-216.5 1165,-216.5 1165,-197.5 1005,-197.5"/>
<text text-anchor="middle" x="1085" y="-204.5" font-family="Helvetica,sans-Serif" font-size="10.00">command.Command.toString</text>
</a>
</g>
</g>
<!-- Node9&#45;&gt;Node17 -->
<g id="edge18" class="edge"><title>Node9&#45;&gt;Node17</title>
<path fill="none" stroke="midnightblue" d="M900.396,-292.333C916.912,-275.951 952.923,-242.873 990,-226 995.437,-223.526 1001.2,-221.372 1007.08,-219.497"/>
<polygon fill="midnightblue" stroke="midnightblue" points="1008.44,-222.748 1017.07,-216.599 1006.49,-216.025 1008.44,-222.748"/>
</g>
<!-- Node11 -->
<g id="node11" class="node"><title>Node11</title>
<g id="a_node11"><a xlink:href="../../d1/dd5/classparser_1_1_command_factory.html#a6907bbeefbe406c17766a1e350fc359f" target="_top" xlink:title="parser.CommandFactory.create\lCommand">
<polygon fill="white" stroke="black" points="1224.5,-388 1224.5,-418 1391.5,-418 1391.5,-388 1224.5,-388"/>
<text text-anchor="start" x="1232.5" y="-406" font-family="Helvetica,sans-Serif" font-size="10.00">parser.CommandFactory.create</text>
<text text-anchor="middle" x="1308" y="-395" font-family="Helvetica,sans-Serif" font-size="10.00">Command</text>
</a>
</g>
</g>
<!-- Node10&#45;&gt;Node11 -->
<g id="edge10" class="edge"><title>Node10&#45;&gt;Node11</title>
<path fill="none" stroke="midnightblue" d="M1152.01,-400.896C1171.57,-401.162 1193.37,-401.458 1214.3,-401.742"/>
<polygon fill="midnightblue" stroke="midnightblue" points="1214.44,-405.244 1224.49,-401.88 1214.53,-398.244 1214.44,-405.244"/>
</g>
<!-- Node13&#45;&gt;Node12 -->
<g id="edge15" class="edge"><title>Node13&#45;&gt;Node12</title>
<path fill="none" stroke="midnightblue" d="M1180.22,-321C1254.03,-321 1355.64,-321 1425.87,-321"/>
<polygon fill="midnightblue" stroke="midnightblue" points="1426,-324.5 1436,-321 1426,-317.5 1426,-324.5"/>
</g>
<!-- Node14 -->
<g id="node14" class="node"><title>Node14</title>
<g id="a_node14"><a xlink:href="../../d7/d35/classcommand_1_1_command.html#a30463654f906e5bcf507ab33bd5d8bff" target="_top" xlink:title="command.Command.checkListExit">
<polygon fill="white" stroke="black" points="1216.5,-273.5 1216.5,-292.5 1399.5,-292.5 1399.5,-273.5 1216.5,-273.5"/>
<text text-anchor="middle" x="1308" y="-280.5" font-family="Helvetica,sans-Serif" font-size="10.00">command.Command.checkListExit</text>
</a>
</g>
</g>
<!-- Node13&#45;&gt;Node14 -->
<g id="edge13" class="edge"><title>Node13&#45;&gt;Node14</title>
<path fill="none" stroke="midnightblue" d="M1141.48,-311.46C1171.83,-306.243 1209.6,-299.747 1241.4,-294.28"/>
<polygon fill="midnightblue" stroke="midnightblue" points="1242.23,-297.688 1251.49,-292.544 1241.05,-290.789 1242.23,-297.688"/>
</g>
<!-- Node14&#45;&gt;Node12 -->
<g id="edge14" class="edge"><title>Node14&#45;&gt;Node12</title>
<path fill="none" stroke="midnightblue" d="M1358.71,-292.54C1385.54,-297.69 1418.86,-304.084 1447.11,-309.506"/>
<polygon fill="midnightblue" stroke="midnightblue" points="1446.79,-313.009 1457.27,-311.456 1448.11,-306.134 1446.79,-313.009"/>
</g>
<!-- Node19 -->
<g id="node19" class="node"><title>Node19</title>
<g id="a_node19"><a xlink:href="../../d6/d8b/classcomponents_1_1_pane_factory.html#a749d9694305a5e64344c7f0b2eb1ec46" target="_top" xlink:title="components.PaneFactory.makePane">
<polygon fill="white" stroke="black" points="398.5,-283.5 398.5,-302.5 587.5,-302.5 587.5,-283.5 398.5,-283.5"/>
<text text-anchor="middle" x="493" y="-290.5" font-family="Helvetica,sans-Serif" font-size="10.00">components.PaneFactory.makePane</text>
</a>
</g>
</g>
<!-- Node18&#45;&gt;Node19 -->
<g id="edge20" class="edge"><title>Node18&#45;&gt;Node19</title>
<path fill="none" stroke="midnightblue" d="M291.113,-201.011C313.377,-220.887 355.623,-255.57 398,-274 403.811,-276.527 409.973,-278.723 416.251,-280.63"/>
<polygon fill="midnightblue" stroke="midnightblue" points="415.609,-284.084 426.181,-283.395 417.487,-277.341 415.609,-284.084"/>
</g>
<!-- Node20 -->
<g id="node20" class="node"><title>Node20</title>
<g id="a_node20"><a xlink:href="../../d7/d3c/classcomponents_1_1_top_pane.html#a1239f7bb3356707158d40b0b41b4ca0b" target="_top" xlink:title="components.TopPane.addItems">
<polygon fill="white" stroke="black" points="409.5,-245.5 409.5,-264.5 576.5,-264.5 576.5,-245.5 409.5,-245.5"/>
<text text-anchor="middle" x="493" y="-252.5" font-family="Helvetica,sans-Serif" font-size="10.00">components.TopPane.addItems</text>
</a>
</g>
</g>
<!-- Node18&#45;&gt;Node20 -->
<g id="edge21" class="edge"><title>Node18&#45;&gt;Node20</title>
<path fill="none" stroke="midnightblue" d="M308.386,-201.088C332.82,-211.687 366.984,-225.596 398,-235 408.043,-238.045 418.825,-240.801 429.378,-243.226"/>
<polygon fill="midnightblue" stroke="midnightblue" points="428.872,-246.699 439.393,-245.449 430.388,-239.865 428.872,-246.699"/>
</g>
<!-- Node21 -->
<g id="node21" class="node"><title>Node21</title>
<g id="a_node21"><a xlink:href="../../d9/d58/classcomponents_1_1_bottom_pane.html#a8c0188cd8a7650eb5b180930298a44a2" target="_top" xlink:title="components.BottomPane.update\lButton">
<polygon fill="white" stroke="black" points="405,-196 405,-226 581,-226 581,-196 405,-196"/>
<text text-anchor="start" x="413" y="-214" font-family="Helvetica,sans-Serif" font-size="10.00">components.BottomPane.update</text>
<text text-anchor="middle" x="493" y="-203" font-family="Helvetica,sans-Serif" font-size="10.00">Button</text>
</a>
</g>
</g>
<!-- Node18&#45;&gt;Node21 -->
<g id="edge22" class="edge"><title>Node18&#45;&gt;Node21</title>
<path fill="none" stroke="midnightblue" d="M342.768,-193.807C359.192,-195.7 377.074,-197.76 394.568,-199.775"/>
<polygon fill="midnightblue" stroke="midnightblue" points="394.474,-203.287 404.809,-200.955 395.275,-196.333 394.474,-203.287"/>
</g>
<!-- Node22 -->
<g id="node22" class="node"><title>Node22</title>
<g id="a_node22"><a xlink:href="../../d6/d68/classcomponents_1_1_turtle_manager.html#a4359c3b1142a696d251e7fc017729efb" target="_top" xlink:title="components.TurtleManager.update\lImageMap">
<polygon fill="white" stroke="black" points="401.5,-147 401.5,-177 584.5,-177 584.5,-147 401.5,-147"/>
<text text-anchor="start" x="409.5" y="-165" font-family="Helvetica,sans-Serif" font-size="10.00">components.TurtleManager.update</text>
<text text-anchor="middle" x="493" y="-154" font-family="Helvetica,sans-Serif" font-size="10.00">ImageMap</text>
</a>
</g>
</g>
<!-- Node18&#45;&gt;Node22 -->
<g id="edge23" class="edge"><title>Node18&#45;&gt;Node22</title>
<path fill="none" stroke="midnightblue" d="M342.768,-178.505C358.112,-176.808 374.728,-174.97 391.111,-173.158"/>
<polygon fill="midnightblue" stroke="midnightblue" points="391.714,-176.613 401.268,-172.035 390.944,-169.655 391.714,-176.613"/>
</g>
<!-- Node23 -->
<g id="node23" class="node"><title>Node23</title>
<g id="a_node23"><a xlink:href="../../d6/d14/classfeatures_1_1_settings_bar.html#a0087ffd8c4aeedd07998a8a058cc9209" target="_top" xlink:title="features.SettingsBar.add\lPenSlider">
<polygon fill="white" stroke="black" points="425,-98 425,-128 561,-128 561,-98 425,-98"/>
<text text-anchor="start" x="433" y="-116" font-family="Helvetica,sans-Serif" font-size="10.00">features.SettingsBar.add</text>
<text text-anchor="middle" x="493" y="-105" font-family="Helvetica,sans-Serif" font-size="10.00">PenSlider</text>
</a>
</g>
</g>
<!-- Node18&#45;&gt;Node23 -->
<g id="edge24" class="edge"><title>Node18&#45;&gt;Node23</title>
<path fill="none" stroke="midnightblue" d="M309.289,-170.956C333.723,-160.579 367.507,-146.921 398,-137 404.717,-134.815 411.756,-132.701 418.831,-130.695"/>
<polygon fill="midnightblue" stroke="midnightblue" points="419.769,-134.067 428.474,-128.029 417.903,-127.32 419.769,-134.067"/>
</g>
<!-- Node24 -->
<g id="node24" class="node"><title>Node24</title>
<g id="a_node24"><a xlink:href="../../d6/d14/classfeatures_1_1_settings_bar.html#a06ac68340b6f5f59f638db75870f7d33" target="_top" xlink:title="features.SettingsBar.add\lAnimationSlider">
<polygon fill="white" stroke="black" points="425,-49 425,-79 561,-79 561,-49 425,-49"/>
<text text-anchor="start" x="433" y="-67" font-family="Helvetica,sans-Serif" font-size="10.00">features.SettingsBar.add</text>
<text text-anchor="middle" x="493" y="-56" font-family="Helvetica,sans-Serif" font-size="10.00">AnimationSlider</text>
</a>
</g>
</g>
<!-- Node18&#45;&gt;Node24 -->
<g id="edge25" class="edge"><title>Node18&#45;&gt;Node24</title>
<path fill="none" stroke="midnightblue" d="M289.812,-170.64C311.538,-149.001 354.237,-109.757 398,-88 403.543,-85.2445 409.431,-82.7855 415.452,-80.5947"/>
<polygon fill="midnightblue" stroke="midnightblue" points="416.639,-83.8879 424.991,-77.3687 414.397,-77.2568 416.639,-83.8879"/>
</g>
<!-- Node25 -->
<g id="node25" class="node"><title>Node25</title>
<g id="a_node25"><a xlink:href="../../d6/d14/classfeatures_1_1_settings_bar.html#a84c1671d1eff0e0e6df250fcd1a2dcd0" target="_top" xlink:title="features.SettingsBar.add\lComboBox">
<polygon fill="white" stroke="black" points="425,-0 425,-30 561,-30 561,-0 425,-0"/>
<text text-anchor="start" x="433" y="-18" font-family="Helvetica,sans-Serif" font-size="10.00">features.SettingsBar.add</text>
<text text-anchor="middle" x="493" y="-7" font-family="Helvetica,sans-Serif" font-size="10.00">ComboBox</text>
</a>
</g>
</g>
<!-- Node18&#45;&gt;Node25 -->
<g id="edge26" class="edge"><title>Node18&#45;&gt;Node25</title>
<path fill="none" stroke="midnightblue" d="M283.27,-170.828C300.467,-140.771 343.092,-73.5788 398,-39 403.331,-35.6426 409.111,-32.7539 415.096,-30.2687"/>
<polygon fill="midnightblue" stroke="midnightblue" points="416.502,-33.4794 424.632,-26.6861 414.04,-26.9266 416.502,-33.4794"/>
</g>
</g>
</svg>
        <g id="navigator" transform="translate(0 0)" fill="#404254">
                <rect fill="#f2f5e9" fill-opacity="0.5" stroke="#606060" stroke-width=".5" x="0" y="0" width="60" height="60"/>
                <use id="zoomplus" xlink:href="#zoomPlus" x="17" y="9" onmousedown="handleZoom(evt,'in')"/>
                <use id="zoomminus" xlink:href="#zoomMin" x="42" y="9" onmousedown="handleZoom(evt,'out')"/>
                <use id="reset" xlink:href="#resetDef" x="30" y="36" onmousedown="handleReset()"/>
                <g id="arrowUp" xlink:href="#dirArrow" transform="translate(30 24)" onmousedown="handlePan(0,-1)">
                  <use xlink:href="#rim" fill="#404040">
                        <set attributeName="fill" to="#808080" begin="arrowUp.mouseover" end="arrowUp.mouseout"/>
                  </use>
                  <path fill="none" stroke="white" stroke-width="1.5" d="M0,-3.0v7 M-2.5,-0.5L0,-3.0L2.5,-0.5"/>
                </g>
                <g id="arrowRight" xlink:href="#dirArrow" transform="rotate(90) translate(36 -43)" onmousedown="handlePan(1,0)">
                  <use xlink:href="#rim" fill="#404040">
                        <set attributeName="fill" to="#808080" begin="arrowRight.mouseover" end="arrowRight.mouseout"/>
                  </use>
                  <path fill="none" stroke="white" stroke-width="1.5" d="M0,-3.0v7 M-2.5,-0.5L0,-3.0L2.5,-0.5"/>
                </g>
                <g id="arrowDown" xlink:href="#dirArrow" transform="rotate(180) translate(-30 -48)" onmousedown="handlePan(0,1)">
                  <use xlink:href="#rim" fill="#404040">
                        <set attributeName="fill" to="#808080" begin="arrowDown.mouseover" end="arrowDown.mouseout"/>
                  </use>
                  <path fill="none" stroke="white" stroke-width="1.5" d="M0,-3.0v7 M-2.5,-0.5L0,-3.0L2.5,-0.5"/>
                </g>
                <g id="arrowLeft" xlink:href="#dirArrow" transform="rotate(270) translate(-36 17)" onmousedown="handlePan(-1,0)">
                  <use xlink:href="#rim" fill="#404040">
                        <set attributeName="fill" to="#808080" begin="arrowLeft.mouseover" end="arrowLeft.mouseout"/>
                  </use>
                  <path fill="none" stroke="white" stroke-width="1.5" d="M0,-3.0v7 M-2.5,-0.5L0,-3.0L2.5,-0.5"/>
                </g>
        </g>
        <svg viewBox="0 0 15 15" width="100%" height="30px" preserveAspectRatio="xMaxYMin meet">
         <g id="arrow_out" transform="scale(0.3 0.3)">
          <a xlink:href="classmain_application_1_1_g_u_i_af6bd387013dbd1d1daf030117da66c0e_cgraph_org.svg" target="_base">
           <rect id="button" ry="5" rx="5" y="6" x="6" height="38" width="38"
                fill="#f2f5e9" fill-opacity="0.5" stroke="#606060" stroke-width="1.0"/>
           <path id="arrow"
             d="M 11.500037,31.436501 C 11.940474,20.09759 22.043105,11.32322 32.158766,21.979434 L 37.068811,17.246167 C 37.068811,17.246167 37.088388,32 37.088388,32 L 22.160133,31.978069 C 22.160133,31.978069 26.997745,27.140456 26.997745,27.140456 C 18.528582,18.264221 13.291696,25.230495 11.500037,31.436501 z"
             style="fill:#404040;"/>
          </a>
         </g>
        </svg>
</svg>
