<?xml version="1.0" encoding="UTF-8" standalone="no"?>
<!DOCTYPE svg PUBLIC "-//W3C//DTD SVG 1.1//EN"
 "http://www.w3.org/Graphics/SVG/1.1/DTD/svg11.dtd">
<!-- Generated by graphviz version 2.36.0 (20140111.2315)
 -->
<!-- Title: mainApplication.GUI.initiate Pages: 1 -->
<svg width="540pt" height="126pt"
 viewBox="0.00 0.00 540.00 126.00" xmlns="http://www.w3.org/2000/svg" xmlns:xlink="http://www.w3.org/1999/xlink">
<g id="graph0" class="graph" transform="scale(1 1) rotate(0) translate(4 122)">
<title>mainApplication.GUI.initiate</title>
<polygon fill="white" stroke="none" points="-4,4 -4,-122 536,-122 536,4 -4,4"/>
<!-- Node1 -->
<g id="node1" class="node"><title>Node1</title>
<polygon fill="#bfbfbf" stroke="black" points="0.5,-49.5 0.5,-68.5 149.5,-68.5 149.5,-49.5 0.5,-49.5"/>
<text text-anchor="middle" x="75" y="-56.5" font-family="Helvetica,sans-Serif" font-size="10.00">mainApplication.GUI.initiate</text>
</g>
<!-- Node2 -->
<g id="node2" class="node"><title>Node2</title>
<g id="a_node2"><a xlink:href="../../d3/d04/classmain_application_1_1_g_u_i_shell.html#a9df214dfffdce7a39bc6ac5e84ca1f0f" target="_top" xlink:title="mainApplication.GUIShell.create\lNewButton">
<polygon fill="white" stroke="black" points="186,-88 186,-118 356,-118 356,-88 186,-88"/>
<text text-anchor="start" x="194" y="-106" font-family="Helvetica,sans-Serif" font-size="10.00">mainApplication.GUIShell.create</text>
<text text-anchor="middle" x="271" y="-95" font-family="Helvetica,sans-Serif" font-size="10.00">NewButton</text>
</a>
</g>
</g>
<!-- Node1&#45;&gt;Node2 -->
<g id="edge1" class="edge"><title>Node1&#45;&gt;Node2</title>
<path fill="none" stroke="midnightblue" d="M128.085,-70.8132C151.294,-76.0769 178.904,-82.3391 203.575,-87.9346"/>
<polygon fill="midnightblue" stroke="midnightblue" points="128.622,-67.346 118.095,-68.5473 127.073,-74.1726 128.622,-67.346"/>
</g>
<!-- Node3 -->
<g id="node3" class="node"><title>Node3</title>
<g id="a_node3"><a xlink:href="../../d3/d04/classmain_application_1_1_g_u_i_shell.html#ac525a3e483dbe24e5f9f0257fe54521d" target="_top" xlink:title="mainApplication.GUIShell.\lGUIShell">
<polygon fill="white" stroke="black" points="392,-44 392,-74 532,-74 532,-44 392,-44"/>
<text text-anchor="start" x="400" y="-62" font-family="Helvetica,sans-Serif" font-size="10.00">mainApplication.GUIShell.</text>
<text text-anchor="middle" x="462" y="-51" font-family="Helvetica,sans-Serif" font-size="10.00">GUIShell</text>
</a>
</g>
</g>
<!-- Node1&#45;&gt;Node3 -->
<g id="edge5" class="edge"><title>Node1&#45;&gt;Node3</title>
<path fill="none" stroke="midnightblue" d="M159.804,-59C229.198,-59 326.625,-59 391.683,-59"/>
<polygon fill="midnightblue" stroke="midnightblue" points="159.776,-55.5001 149.776,-59 159.776,-62.5001 159.776,-55.5001"/>
</g>
<!-- Node4 -->
<g id="node4" class="node"><title>Node4</title>
<g id="a_node4"><a xlink:href="../../d3/d04/classmain_application_1_1_g_u_i_shell.html#af2f106fa7786f13ccc0202db53b559b9" target="_top" xlink:title="mainApplication.GUIShell.create\lOpenButton">
<polygon fill="white" stroke="black" points="186,-0 186,-30 356,-30 356,-0 186,-0"/>
<text text-anchor="start" x="194" y="-18" font-family="Helvetica,sans-Serif" font-size="10.00">mainApplication.GUIShell.create</text>
<text text-anchor="middle" x="271" y="-7" font-family="Helvetica,sans-Serif" font-size="10.00">OpenButton</text>
</a>
</g>
</g>
<!-- Node1&#45;&gt;Node4 -->
<g id="edge3" class="edge"><title>Node1&#45;&gt;Node4</title>
<path fill="none" stroke="midnightblue" d="M128.085,-47.1868C151.294,-41.9231 178.904,-35.6609 203.575,-30.0654"/>
<polygon fill="midnightblue" stroke="midnightblue" points="127.073,-43.8274 118.095,-49.4527 128.622,-50.654 127.073,-43.8274"/>
</g>
<!-- Node2&#45;&gt;Node3 -->
<g id="edge2" class="edge"><title>Node2&#45;&gt;Node3</title>
<path fill="none" stroke="midnightblue" d="M346.642,-85.6231C363.112,-81.7888 380.425,-77.7582 396.456,-74.0262"/>
<polygon fill="midnightblue" stroke="midnightblue" points="345.46,-82.3044 336.514,-87.9808 347.048,-89.1221 345.46,-82.3044"/>
</g>
<!-- Node4&#45;&gt;Node3 -->
<g id="edge4" class="edge"><title>Node4&#45;&gt;Node3</title>
<path fill="none" stroke="midnightblue" d="M346.642,-32.3769C363.112,-36.2112 380.425,-40.2418 396.456,-43.9738"/>
<polygon fill="midnightblue" stroke="midnightblue" points="347.048,-28.8779 336.514,-30.0192 345.46,-35.6956 347.048,-28.8779"/>
</g>
</g>
</svg>
