<?xml version="1.0" encoding="UTF-8" standalone="no"?>
<!DOCTYPE svg PUBLIC "-//W3C//DTD SVG 1.1//EN"
 "http://www.w3.org/Graphics/SVG/1.1/DTD/svg11.dtd">
<!-- Generated by graphviz version 2.36.0 (20140111.2315)
 -->
<!-- Title: mainApplication.GUI.update Pages: 1 -->
<svg width="1362pt" height="502pt"
 viewBox="0.00 0.00 1362.00 502.00" xmlns="http://www.w3.org/2000/svg" xmlns:xlink="http://www.w3.org/1999/xlink">
<g id="graph0" class="graph" transform="scale(1 1) rotate(0) translate(4 498)">
<title>mainApplication.GUI.update</title>
<polygon fill="white" stroke="none" points="-4,4 -4,-498 1358,-498 1358,4 -4,4"/>
<!-- Node1 -->
<g id="node1" class="node"><title>Node1</title>
<polygon fill="#bfbfbf" stroke="black" points="0,-346.5 0,-365.5 150,-365.5 150,-346.5 0,-346.5"/>
<text text-anchor="middle" x="75" y="-353.5" font-family="Helvetica,sans-Serif" font-size="10.00">mainApplication.GUI.update</text>
</g>
<!-- Node2 -->
<g id="node2" class="node"><title>Node2</title>
<g id="a_node2"><a xlink:href="../../da/d5b/classcomponents_1_1_center_pane.html#a4808a85532892fb8ea07949c2d56d9d4" target="_top" xlink:title="components.CenterPane.clear\lScreen">
<polygon fill="white" stroke="black" points="191.5,-464 191.5,-494 352.5,-494 352.5,-464 191.5,-464"/>
<text text-anchor="start" x="199.5" y="-482" font-family="Helvetica,sans-Serif" font-size="10.00">components.CenterPane.clear</text>
<text text-anchor="middle" x="272" y="-471" font-family="Helvetica,sans-Serif" font-size="10.00">Screen</text>
</a>
</g>
</g>
<!-- Node1&#45;&gt;Node2 -->
<g id="edge1" class="edge"><title>Node1&#45;&gt;Node2</title>
<path fill="none" stroke="midnightblue" d="M84.0726,-365.616C100.976,-385.146 142.173,-429.663 186,-454 189.965,-456.202 194.144,-458.228 198.436,-460.09"/>
<polygon fill="midnightblue" stroke="midnightblue" points="197.386,-463.44 207.97,-463.908 199.988,-456.941 197.386,-463.44"/>
</g>
<!-- Node4 -->
<g id="node4" class="node"><title>Node4</title>
<g id="a_node4"><a xlink:href="../../d7/da1/classmain_application_1_1_controller.html#a952b8306c4c1217626fcae679705ec24" target="_top" xlink:title="mainApplication.Controller.get\lColors">
<polygon fill="white" stroke="black" points="191.5,-415 191.5,-445 352.5,-445 352.5,-415 191.5,-415"/>
<text text-anchor="start" x="199.5" y="-433" font-family="Helvetica,sans-Serif" font-size="10.00">mainApplication.Controller.get</text>
<text text-anchor="middle" x="272" y="-422" font-family="Helvetica,sans-Serif" font-size="10.00">Colors</text>
</a>
</g>
</g>
<!-- Node1&#45;&gt;Node4 -->
<g id="edge3" class="edge"><title>Node1&#45;&gt;Node4</title>
<path fill="none" stroke="midnightblue" d="M95.5446,-365.658C117.288,-376.176 153.626,-393.089 186,-405 192.401,-407.355 199.136,-409.645 205.895,-411.82"/>
<polygon fill="midnightblue" stroke="midnightblue" points="205.192,-415.268 215.781,-414.921 207.287,-408.589 205.192,-415.268"/>
</g>
<!-- Node6 -->
<g id="node6" class="node"><title>Node6</title>
<g id="a_node6"><a xlink:href="../../da/d5b/classcomponents_1_1_center_pane.html#a86f0fb4d78b260f372d03d2ee037c938" target="_top" xlink:title="components.CenterPane.initiate\lColorsMap">
<polygon fill="white" stroke="black" points="187,-366 187,-396 357,-396 357,-366 187,-366"/>
<text text-anchor="start" x="195" y="-384" font-family="Helvetica,sans-Serif" font-size="10.00">components.CenterPane.initiate</text>
<text text-anchor="middle" x="272" y="-373" font-family="Helvetica,sans-Serif" font-size="10.00">ColorsMap</text>
</a>
</g>
</g>
<!-- Node1&#45;&gt;Node6 -->
<g id="edge5" class="edge"><title>Node1&#45;&gt;Node6</title>
<path fill="none" stroke="midnightblue" d="M150.277,-365.523C158.958,-366.636 167.899,-367.782 176.803,-368.923"/>
<polygon fill="midnightblue" stroke="midnightblue" points="176.461,-372.408 186.825,-370.208 177.351,-365.465 176.461,-372.408"/>
</g>
<!-- Node7 -->
<g id="node7" class="node"><title>Node7</title>
<g id="a_node7"><a xlink:href="../../da/d5b/classcomponents_1_1_center_pane.html#aa633ecbb1cbbb893b48a084abeacf226" target="_top" xlink:title="components.CenterPane.update\lBackgroundColor">
<polygon fill="white" stroke="black" points="186,-317 186,-347 358,-347 358,-317 186,-317"/>
<text text-anchor="start" x="194" y="-335" font-family="Helvetica,sans-Serif" font-size="10.00">components.CenterPane.update</text>
<text text-anchor="middle" x="272" y="-324" font-family="Helvetica,sans-Serif" font-size="10.00">BackgroundColor</text>
</a>
</g>
</g>
<!-- Node1&#45;&gt;Node7 -->
<g id="edge6" class="edge"><title>Node1&#45;&gt;Node7</title>
<path fill="none" stroke="midnightblue" d="M150.277,-346.858C158.632,-345.83 167.229,-344.772 175.801,-343.717"/>
<polygon fill="midnightblue" stroke="midnightblue" points="176.34,-347.177 185.838,-342.481 175.485,-340.229 176.34,-347.177"/>
</g>
<!-- Node8 -->
<g id="node8" class="node"><title>Node8</title>
<g id="a_node8"><a xlink:href="../../da/d5b/classcomponents_1_1_center_pane.html#a081e5354b96cbd91679d1ce0c60aa1d2" target="_top" xlink:title="components.CenterPane.update\lPenProperties">
<polygon fill="white" stroke="black" points="186,-268 186,-298 358,-298 358,-268 186,-268"/>
<text text-anchor="start" x="194" y="-286" font-family="Helvetica,sans-Serif" font-size="10.00">components.CenterPane.update</text>
<text text-anchor="middle" x="272" y="-275" font-family="Helvetica,sans-Serif" font-size="10.00">PenProperties</text>
</a>
</g>
</g>
<!-- Node1&#45;&gt;Node8 -->
<g id="edge7" class="edge"><title>Node1&#45;&gt;Node8</title>
<path fill="none" stroke="midnightblue" d="M95.1269,-346.467C116.802,-335.904 153.366,-318.806 186,-307 191.772,-304.912 197.818,-302.89 203.91,-300.964"/>
<polygon fill="midnightblue" stroke="midnightblue" points="204.957,-304.304 213.489,-298.022 202.902,-297.613 204.957,-304.304"/>
</g>
<!-- Node21 -->
<g id="node21" class="node"><title>Node21</title>
<g id="a_node21"><a xlink:href="../../da/d5b/classcomponents_1_1_center_pane.html#a97ff274041990d893a5eb4eaefc27ce0" target="_top" xlink:title="components.CenterPane.update\lTurtlePosition">
<polygon fill="white" stroke="black" points="186,-170 186,-200 358,-200 358,-170 186,-170"/>
<text text-anchor="start" x="194" y="-188" font-family="Helvetica,sans-Serif" font-size="10.00">components.CenterPane.update</text>
<text text-anchor="middle" x="272" y="-177" font-family="Helvetica,sans-Serif" font-size="10.00">TurtlePosition</text>
</a>
</g>
</g>
<!-- Node1&#45;&gt;Node21 -->
<g id="edge20" class="edge"><title>Node1&#45;&gt;Node21</title>
<path fill="none" stroke="midnightblue" d="M86.562,-346.475C106.096,-328.885 149.23,-290.164 186,-258 205.88,-240.61 228.584,-221.131 245.523,-206.671"/>
<polygon fill="midnightblue" stroke="midnightblue" points="248,-209.159 253.338,-200.007 243.458,-203.832 248,-209.159"/>
</g>
<!-- Node3 -->
<g id="node3" class="node"><title>Node3</title>
<g id="a_node3"><a xlink:href="../../d6/d68/classcomponents_1_1_turtle_manager.html#aaf3a408cf70aec99b41ab0d29d62bcbc" target="_top" xlink:title="components.TurtleManager.clear\lScreen">
<polygon fill="white" stroke="black" points="399.5,-464 399.5,-494 572.5,-494 572.5,-464 399.5,-464"/>
<text text-anchor="start" x="407.5" y="-482" font-family="Helvetica,sans-Serif" font-size="10.00">components.TurtleManager.clear</text>
<text text-anchor="middle" x="486" y="-471" font-family="Helvetica,sans-Serif" font-size="10.00">Screen</text>
</a>
</g>
</g>
<!-- Node2&#45;&gt;Node3 -->
<g id="edge2" class="edge"><title>Node2&#45;&gt;Node3</title>
<path fill="none" stroke="midnightblue" d="M352.544,-479C364.477,-479 376.888,-479 389.117,-479"/>
<polygon fill="midnightblue" stroke="midnightblue" points="389.332,-482.5 399.332,-479 389.332,-475.5 389.332,-482.5"/>
</g>
<!-- Node5 -->
<g id="node5" class="node"><title>Node5</title>
<g id="a_node5"><a xlink:href="../../de/d19/classworkspace_1_1_workspace.html#a029cef83f88faaebaa49ffdc6466b0a3" target="_top" xlink:title="workspace.Workspace.getColors">
<polygon fill="white" stroke="black" points="401,-420.5 401,-439.5 571,-439.5 571,-420.5 401,-420.5"/>
<text text-anchor="middle" x="486" y="-427.5" font-family="Helvetica,sans-Serif" font-size="10.00">workspace.Workspace.getColors</text>
</a>
</g>
</g>
<!-- Node4&#45;&gt;Node5 -->
<g id="edge4" class="edge"><title>Node4&#45;&gt;Node5</title>
<path fill="none" stroke="midnightblue" d="M352.544,-430C364.967,-430 377.908,-430 390.623,-430"/>
<polygon fill="midnightblue" stroke="midnightblue" points="390.758,-433.5 400.758,-430 390.758,-426.5 390.758,-433.5"/>
</g>
<!-- Node9 -->
<g id="node9" class="node"><title>Node9</title>
<g id="a_node9"><a xlink:href="../../d6/d68/classcomponents_1_1_turtle_manager.html#adfed5450fa1785d7798cf070dd4cba86" target="_top" xlink:title="components.TurtleManager.update\lPenProperties">
<polygon fill="white" stroke="black" points="394.5,-320 394.5,-350 577.5,-350 577.5,-320 394.5,-320"/>
<text text-anchor="start" x="402.5" y="-338" font-family="Helvetica,sans-Serif" font-size="10.00">components.TurtleManager.update</text>
<text text-anchor="middle" x="486" y="-327" font-family="Helvetica,sans-Serif" font-size="10.00">PenProperties</text>
</a>
</g>
</g>
<!-- Node8&#45;&gt;Node9 -->
<g id="edge8" class="edge"><title>Node8&#45;&gt;Node9</title>
<path fill="none" stroke="midnightblue" d="M334.319,-298.041C359.259,-304.158 388.239,-311.266 414.082,-317.605"/>
<polygon fill="midnightblue" stroke="midnightblue" points="413.273,-321.01 423.819,-319.993 414.94,-314.212 413.273,-321.01"/>
</g>
<!-- Node10 -->
<g id="node10" class="node"><title>Node10</title>
<g id="a_node10"><a xlink:href="../../de/ddd/classproperties_1_1_pen_properties.html#a905443cc129f202868f6593fe93e878e" target="_top" xlink:title="properties.PenProperties.get\lColorIndex">
<polygon fill="white" stroke="black" points="623,-459 623,-489 777,-489 777,-459 623,-459"/>
<text text-anchor="start" x="631" y="-477" font-family="Helvetica,sans-Serif" font-size="10.00">properties.PenProperties.get</text>
<text text-anchor="middle" x="700" y="-466" font-family="Helvetica,sans-Serif" font-size="10.00">ColorIndex</text>
</a>
</g>
</g>
<!-- Node9&#45;&gt;Node10 -->
<g id="edge9" class="edge"><title>Node9&#45;&gt;Node10</title>
<path fill="none" stroke="midnightblue" d="M506.375,-350.096C525.187,-365.002 554.295,-388.734 578,-411 594.957,-426.928 594.157,-436.855 614,-449 617.444,-451.108 621.075,-453.046 624.819,-454.828"/>
<polygon fill="midnightblue" stroke="midnightblue" points="623.749,-458.178 634.316,-458.941 626.531,-451.755 623.749,-458.178"/>
</g>
<!-- Node12 -->
<g id="node12" class="node"><title>Node12</title>
<g id="a_node12"><a xlink:href="../../de/ddd/classproperties_1_1_pen_properties.html#a155b49da571ebf565b00bc25497dd9d8" target="_top" xlink:title="properties.PenProperties.getID">
<polygon fill="white" stroke="black" points="618,-420.5 618,-439.5 782,-439.5 782,-420.5 618,-420.5"/>
<text text-anchor="middle" x="700" y="-427.5" font-family="Helvetica,sans-Serif" font-size="10.00">properties.PenProperties.getID</text>
</a>
</g>
</g>
<!-- Node9&#45;&gt;Node12 -->
<g id="edge11" class="edge"><title>Node9&#45;&gt;Node12</title>
<path fill="none" stroke="midnightblue" d="M507.49,-350.097C531.74,-367.273 573.905,-395.005 614,-411 620.417,-413.56 627.25,-415.811 634.148,-417.783"/>
<polygon fill="midnightblue" stroke="midnightblue" points="633.694,-421.284 644.258,-420.474 635.495,-414.519 633.694,-421.284"/>
</g>
<!-- Node14 -->
<g id="node14" class="node"><title>Node14</title>
<g id="a_node14"><a xlink:href="../../de/ddd/classproperties_1_1_pen_properties.html#ab2d006d729cd90544169d82369be8fb1" target="_top" xlink:title="properties.PenProperties.isDown">
<polygon fill="white" stroke="black" points="614,-382.5 614,-401.5 786,-401.5 786,-382.5 614,-382.5"/>
<text text-anchor="middle" x="700" y="-389.5" font-family="Helvetica,sans-Serif" font-size="10.00">properties.PenProperties.isDown</text>
</a>
</g>
</g>
<!-- Node9&#45;&gt;Node14 -->
<g id="edge13" class="edge"><title>Node9&#45;&gt;Node14</title>
<path fill="none" stroke="midnightblue" d="M534.419,-350.058C558.195,-357.386 587.501,-366.083 614,-373 623.547,-375.492 633.749,-377.948 643.652,-380.224"/>
<polygon fill="midnightblue" stroke="midnightblue" points="642.894,-383.641 653.42,-382.436 644.44,-376.814 642.894,-383.641"/>
</g>
<!-- Node16 -->
<g id="node16" class="node"><title>Node16</title>
<g id="a_node16"><a xlink:href="../../de/ddd/classproperties_1_1_pen_properties.html#a158bdc5096ec8a8bf108208c7be3e0a0" target="_top" xlink:title="properties.PenProperties.size">
<polygon fill="white" stroke="black" points="621.5,-344.5 621.5,-363.5 778.5,-363.5 778.5,-344.5 621.5,-344.5"/>
<text text-anchor="middle" x="700" y="-351.5" font-family="Helvetica,sans-Serif" font-size="10.00">properties.PenProperties.size</text>
</a>
</g>
</g>
<!-- Node9&#45;&gt;Node16 -->
<g id="edge15" class="edge"><title>Node9&#45;&gt;Node16</title>
<path fill="none" stroke="midnightblue" d="M577.522,-343.113C588.723,-344.117 600.16,-345.142 611.318,-346.142"/>
<polygon fill="midnightblue" stroke="midnightblue" points="611.199,-349.645 621.472,-347.052 611.824,-342.673 611.199,-349.645"/>
</g>
<!-- Node18 -->
<g id="node18" class="node"><title>Node18</title>
<g id="a_node18"><a xlink:href="../../da/da7/classfeatures_1_1_pen.html#a62bdeb4b8d9d23793ed71d120a724974" target="_top" xlink:title="features.Pen.updatePenColor">
<polygon fill="white" stroke="black" points="621.5,-306.5 621.5,-325.5 778.5,-325.5 778.5,-306.5 621.5,-306.5"/>
<text text-anchor="middle" x="700" y="-313.5" font-family="Helvetica,sans-Serif" font-size="10.00">features.Pen.updatePenColor</text>
</a>
</g>
</g>
<!-- Node9&#45;&gt;Node18 -->
<g id="edge17" class="edge"><title>Node9&#45;&gt;Node18</title>
<path fill="none" stroke="midnightblue" d="M577.522,-326.887C588.723,-325.883 600.16,-324.858 611.318,-323.858"/>
<polygon fill="midnightblue" stroke="midnightblue" points="611.824,-327.327 621.472,-322.948 611.199,-320.355 611.824,-327.327"/>
</g>
<!-- Node19 -->
<g id="node19" class="node"><title>Node19</title>
<g id="a_node19"><a xlink:href="../../dc/d0a/classfeatures_1_1_display_turtle.html#a992e42bf8586f0685a7ec80cbe6127a9" target="_top" xlink:title="features.DisplayTurtle.update\lPenShow">
<polygon fill="white" stroke="black" points="622,-257 622,-287 778,-287 778,-257 622,-257"/>
<text text-anchor="start" x="630" y="-275" font-family="Helvetica,sans-Serif" font-size="10.00">features.DisplayTurtle.update</text>
<text text-anchor="middle" x="700" y="-264" font-family="Helvetica,sans-Serif" font-size="10.00">PenShow</text>
</a>
</g>
</g>
<!-- Node9&#45;&gt;Node19 -->
<g id="edge18" class="edge"><title>Node9&#45;&gt;Node19</title>
<path fill="none" stroke="midnightblue" d="M537.049,-319.966C560.421,-312.96 588.626,-304.527 614,-297 621.758,-294.698 629.917,-292.287 637.985,-289.908"/>
<polygon fill="midnightblue" stroke="midnightblue" points="639.144,-293.215 647.748,-287.032 637.166,-286.501 639.144,-293.215"/>
</g>
<!-- Node20 -->
<g id="node20" class="node"><title>Node20</title>
<g id="a_node20"><a xlink:href="../../da/da7/classfeatures_1_1_pen.html#a0931e00763a8a6a5f0a26c8833b7cebc" target="_top" xlink:title="features.Pen.updatePenWidth">
<polygon fill="white" stroke="black" points="621,-218.5 621,-237.5 779,-237.5 779,-218.5 621,-218.5"/>
<text text-anchor="middle" x="700" y="-225.5" font-family="Helvetica,sans-Serif" font-size="10.00">features.Pen.updatePenWidth</text>
</a>
</g>
</g>
<!-- Node9&#45;&gt;Node20 -->
<g id="edge19" class="edge"><title>Node9&#45;&gt;Node20</title>
<path fill="none" stroke="midnightblue" d="M504.184,-319.803C527.444,-300.043 571.003,-265.838 614,-247 619.726,-244.491 625.82,-242.297 632.013,-240.382"/>
<polygon fill="midnightblue" stroke="midnightblue" points="633.13,-243.703 641.788,-237.596 631.212,-236.971 633.13,-243.703"/>
</g>
<!-- Node11 -->
<g id="node11" class="node"><title>Node11</title>
<g id="a_node11"><a xlink:href="../../da/d85/classactor_1_1_pen.html#aafee390410894877f7eda8b67ea07920" target="_top" xlink:title="actor.Pen.getColorIndex">
<polygon fill="white" stroke="black" points="837.5,-464.5 837.5,-483.5 968.5,-483.5 968.5,-464.5 837.5,-464.5"/>
<text text-anchor="middle" x="903" y="-471.5" font-family="Helvetica,sans-Serif" font-size="10.00">actor.Pen.getColorIndex</text>
</a>
</g>
</g>
<!-- Node10&#45;&gt;Node11 -->
<g id="edge10" class="edge"><title>Node10&#45;&gt;Node11</title>
<path fill="none" stroke="midnightblue" d="M777.276,-474C793.647,-474 810.929,-474 827.241,-474"/>
<polygon fill="midnightblue" stroke="midnightblue" points="827.256,-477.5 837.256,-474 827.256,-470.5 827.256,-477.5"/>
</g>
<!-- Node13 -->
<g id="node13" class="node"><title>Node13</title>
<g id="a_node13"><a xlink:href="../../da/d85/classactor_1_1_pen.html#a7e619e33164eded3efcf4a326e081f9b" target="_top" xlink:title="actor.Pen.getID">
<polygon fill="white" stroke="black" points="858,-420.5 858,-439.5 948,-439.5 948,-420.5 858,-420.5"/>
<text text-anchor="middle" x="903" y="-427.5" font-family="Helvetica,sans-Serif" font-size="10.00">actor.Pen.getID</text>
</a>
</g>
</g>
<!-- Node12&#45;&gt;Node13 -->
<g id="edge12" class="edge"><title>Node12&#45;&gt;Node13</title>
<path fill="none" stroke="midnightblue" d="M782.175,-430C804.164,-430 827.436,-430 847.563,-430"/>
<polygon fill="midnightblue" stroke="midnightblue" points="847.778,-433.5 857.778,-430 847.778,-426.5 847.778,-433.5"/>
</g>
<!-- Node15 -->
<g id="node15" class="node"><title>Node15</title>
<g id="a_node15"><a xlink:href="../../da/d85/classactor_1_1_pen.html#a0855052755119e7371ad0a3eb268b3a9" target="_top" xlink:title="actor.Pen.isDown">
<polygon fill="white" stroke="black" points="854,-382.5 854,-401.5 952,-401.5 952,-382.5 854,-382.5"/>
<text text-anchor="middle" x="903" y="-389.5" font-family="Helvetica,sans-Serif" font-size="10.00">actor.Pen.isDown</text>
</a>
</g>
</g>
<!-- Node14&#45;&gt;Node15 -->
<g id="edge14" class="edge"><title>Node14&#45;&gt;Node15</title>
<path fill="none" stroke="midnightblue" d="M786.242,-392C805.652,-392 825.839,-392 843.817,-392"/>
<polygon fill="midnightblue" stroke="midnightblue" points="843.84,-395.5 853.84,-392 843.839,-388.5 843.84,-395.5"/>
</g>
<!-- Node17 -->
<g id="node17" class="node"><title>Node17</title>
<g id="a_node17"><a xlink:href="../../da/d85/classactor_1_1_pen.html#a441b34fa126f398b351f26aec6a89084" target="_top" xlink:title="actor.Pen.getSize">
<polygon fill="white" stroke="black" points="852.5,-344.5 852.5,-363.5 953.5,-363.5 953.5,-344.5 852.5,-344.5"/>
<text text-anchor="middle" x="903" y="-351.5" font-family="Helvetica,sans-Serif" font-size="10.00">actor.Pen.getSize</text>
</a>
</g>
</g>
<!-- Node16&#45;&gt;Node17 -->
<g id="edge16" class="edge"><title>Node16&#45;&gt;Node17</title>
<path fill="none" stroke="midnightblue" d="M778.712,-354C799.784,-354 822.268,-354 842.186,-354"/>
<polygon fill="midnightblue" stroke="midnightblue" points="842.347,-357.5 852.347,-354 842.347,-350.5 842.347,-357.5"/>
</g>
<!-- Node22 -->
<g id="node22" class="node"><title>Node22</title>
<g id="a_node22"><a xlink:href="../../d6/d68/classcomponents_1_1_turtle_manager.html#aebd8b3f5c5eae3df7add8ce3d690aa47" target="_top" xlink:title="components.TurtleManager.update">
<polygon fill="white" stroke="black" points="394.5,-149.5 394.5,-168.5 577.5,-168.5 577.5,-149.5 394.5,-149.5"/>
<text text-anchor="middle" x="486" y="-156.5" font-family="Helvetica,sans-Serif" font-size="10.00">components.TurtleManager.update</text>
</a>
</g>
</g>
<!-- Node21&#45;&gt;Node22 -->
<g id="edge21" class="edge"><title>Node21&#45;&gt;Node22</title>
<path fill="none" stroke="midnightblue" d="M358.007,-174.575C370.914,-172.992 384.254,-171.356 397.219,-169.766"/>
<polygon fill="midnightblue" stroke="midnightblue" points="398.021,-173.193 407.521,-168.502 397.169,-166.246 398.021,-173.193"/>
</g>
<!-- Node23 -->
<g id="node23" class="node"><title>Node23</title>
<g id="a_node23"><a xlink:href="../../dc/d0a/classfeatures_1_1_display_turtle.html#ab5a7279e9876151c36b72b8aa63bcb3b" target="_top" xlink:title="features.DisplayTurtle.update\lImageView">
<polygon fill="white" stroke="black" points="622,-169 622,-199 778,-199 778,-169 622,-169"/>
<text text-anchor="start" x="630" y="-187" font-family="Helvetica,sans-Serif" font-size="10.00">features.DisplayTurtle.update</text>
<text text-anchor="middle" x="700" y="-176" font-family="Helvetica,sans-Serif" font-size="10.00">ImageView</text>
</a>
</g>
</g>
<!-- Node22&#45;&gt;Node23 -->
<g id="edge22" class="edge"><title>Node22&#45;&gt;Node23</title>
<path fill="none" stroke="midnightblue" d="M567.753,-168.523C582.204,-170.227 597.32,-172.009 611.939,-173.733"/>
<polygon fill="midnightblue" stroke="midnightblue" points="611.625,-177.221 621.967,-174.916 612.445,-170.269 611.625,-177.221"/>
</g>
<!-- Node24 -->
<g id="node24" class="node"><title>Node24</title>
<g id="a_node24"><a xlink:href="../../dc/d0a/classfeatures_1_1_display_turtle.html#a06ca557d3458cbcec4fda12263280cc2" target="_top" xlink:title="features.DisplayTurtle.update\lPosition">
<polygon fill="white" stroke="black" points="622,-120 622,-150 778,-150 778,-120 622,-120"/>
<text text-anchor="start" x="630" y="-138" font-family="Helvetica,sans-Serif" font-size="10.00">features.DisplayTurtle.update</text>
<text text-anchor="middle" x="700" y="-127" font-family="Helvetica,sans-Serif" font-size="10.00">Position</text>
</a>
</g>
</g>
<!-- Node22&#45;&gt;Node24 -->
<g id="edge23" class="edge"><title>Node22&#45;&gt;Node24</title>
<path fill="none" stroke="midnightblue" d="M571.093,-149.48C584.45,-147.968 598.293,-146.401 611.722,-144.881"/>
<polygon fill="midnightblue" stroke="midnightblue" points="612.353,-148.332 621.896,-143.729 611.565,-141.376 612.353,-148.332"/>
</g>
<!-- Node33 -->
<g id="node33" class="node"><title>Node33</title>
<g id="a_node33"><a xlink:href="../../dc/d0a/classfeatures_1_1_display_turtle.html#a2f27d1e94dbcd404e51ef72440786676" target="_top" xlink:title="features.DisplayTurtle.update\lTurtleShow">
<polygon fill="white" stroke="black" points="622,-71 622,-101 778,-101 778,-71 622,-71"/>
<text text-anchor="start" x="630" y="-89" font-family="Helvetica,sans-Serif" font-size="10.00">features.DisplayTurtle.update</text>
<text text-anchor="middle" x="700" y="-78" font-family="Helvetica,sans-Serif" font-size="10.00">TurtleShow</text>
</a>
</g>
</g>
<!-- Node22&#45;&gt;Node33 -->
<g id="edge33" class="edge"><title>Node22&#45;&gt;Node33</title>
<path fill="none" stroke="midnightblue" d="M510.171,-149.312C535.451,-138.918 577.231,-122.255 614,-110 620.255,-107.915 626.807,-105.854 633.38,-103.866"/>
<polygon fill="midnightblue" stroke="midnightblue" points="634.401,-107.214 642.992,-101.014 632.41,-100.503 634.401,-107.214"/>
</g>
<!-- Node25 -->
<g id="node25" class="node"><title>Node25</title>
<g id="a_node25"><a xlink:href="../../dc/d0a/classfeatures_1_1_display_turtle.html#a73aeed13803987df257034705ee6eaff" target="_top" xlink:title="features.DisplayTurtle.animate\lTurtleAngle">
<polygon fill="white" stroke="black" points="822,-251 822,-281 984,-281 984,-251 822,-251"/>
<text text-anchor="start" x="830" y="-269" font-family="Helvetica,sans-Serif" font-size="10.00">features.DisplayTurtle.animate</text>
<text text-anchor="middle" x="903" y="-258" font-family="Helvetica,sans-Serif" font-size="10.00">TurtleAngle</text>
</a>
</g>
</g>
<!-- Node24&#45;&gt;Node25 -->
<g id="edge24" class="edge"><title>Node24&#45;&gt;Node25</title>
<path fill="none" stroke="midnightblue" d="M773.028,-150.121C777.68,-152.641 782.067,-155.577 786,-159 816.024,-185.129 792.34,-214.457 822,-241 823.762,-242.577 825.623,-244.054 827.562,-245.438"/>
<polygon fill="midnightblue" stroke="midnightblue" points="826.159,-248.683 836.512,-250.93 829.82,-242.717 826.159,-248.683"/>
</g>
<!-- Node26 -->
<g id="node26" class="node"><title>Node26</title>
<g id="a_node26"><a xlink:href="../../dc/d0a/classfeatures_1_1_display_turtle.html#aac090a97a844a60109816520333f7866" target="_top" xlink:title="features.DisplayTurtle.animate\lTurtlePosition">
<polygon fill="white" stroke="black" points="822,-202 822,-232 984,-232 984,-202 822,-202"/>
<text text-anchor="start" x="830" y="-220" font-family="Helvetica,sans-Serif" font-size="10.00">features.DisplayTurtle.animate</text>
<text text-anchor="middle" x="903" y="-209" font-family="Helvetica,sans-Serif" font-size="10.00">TurtlePosition</text>
</a>
</g>
</g>
<!-- Node24&#45;&gt;Node26 -->
<g id="edge25" class="edge"><title>Node24&#45;&gt;Node26</title>
<path fill="none" stroke="midnightblue" d="M764.698,-150.049C772.042,-152.638 779.295,-155.61 786,-159 804.089,-168.146 804.309,-177.106 822,-187 829.258,-191.059 837.174,-194.779 845.111,-198.114"/>
<polygon fill="midnightblue" stroke="midnightblue" points="843.817,-201.366 854.401,-201.849 846.428,-194.871 843.817,-201.366"/>
</g>
<!-- Node27 -->
<g id="node27" class="node"><title>Node27</title>
<g id="a_node27"><a xlink:href="../../dc/d0a/classfeatures_1_1_display_turtle.html#a62391c3999d131300823b851b0f5b90b" target="_top" xlink:title="features.DisplayTurtle.updateLine">
<polygon fill="white" stroke="black" points="1020,-185.5 1020,-204.5 1196,-204.5 1196,-185.5 1020,-185.5"/>
<text text-anchor="middle" x="1108" y="-192.5" font-family="Helvetica,sans-Serif" font-size="10.00">features.DisplayTurtle.updateLine</text>
</a>
</g>
</g>
<!-- Node24&#45;&gt;Node27 -->
<g id="edge32" class="edge"><title>Node24&#45;&gt;Node27</title>
<path fill="none" stroke="midnightblue" d="M778.113,-147.261C792.685,-149.535 807.806,-151.865 822,-154 891.949,-164.523 971.646,-175.939 1028.94,-184.047"/>
<polygon fill="midnightblue" stroke="midnightblue" points="1028.62,-187.536 1039.01,-185.47 1029.6,-180.605 1028.62,-187.536"/>
</g>
<!-- Node29 -->
<g id="node29" class="node"><title>Node29</title>
<g id="a_node29"><a xlink:href="../../da/d54/classproperties_1_1_position.html#a5dff002fabbc5e7be1a50f5eff9b2879" target="_top" xlink:title="properties.Position.getAngle">
<polygon fill="white" stroke="black" points="827,-125.5 827,-144.5 979,-144.5 979,-125.5 827,-125.5"/>
<text text-anchor="middle" x="903" y="-132.5" font-family="Helvetica,sans-Serif" font-size="10.00">properties.Position.getAngle</text>
</a>
</g>
</g>
<!-- Node24&#45;&gt;Node29 -->
<g id="edge28" class="edge"><title>Node24&#45;&gt;Node29</title>
<path fill="none" stroke="midnightblue" d="M778.137,-135C790.716,-135 803.813,-135 816.577,-135"/>
<polygon fill="midnightblue" stroke="midnightblue" points="816.726,-138.5 826.726,-135 816.726,-131.5 816.726,-138.5"/>
</g>
<!-- Node30 -->
<g id="node30" class="node"><title>Node30</title>
<g id="a_node30"><a xlink:href="../../da/d54/classproperties_1_1_position.html#a038c69f0a24a47be9e1602695a2c5b61" target="_top" xlink:title="properties.Position.getX">
<polygon fill="white" stroke="black" points="837.5,-87.5 837.5,-106.5 968.5,-106.5 968.5,-87.5 837.5,-87.5"/>
<text text-anchor="middle" x="903" y="-94.5" font-family="Helvetica,sans-Serif" font-size="10.00">properties.Position.getX</text>
</a>
</g>
</g>
<!-- Node24&#45;&gt;Node30 -->
<g id="edge29" class="edge"><title>Node24&#45;&gt;Node30</title>
<path fill="none" stroke="midnightblue" d="M778.137,-120.417C799.162,-116.442 821.632,-112.194 841.581,-108.422"/>
<polygon fill="midnightblue" stroke="midnightblue" points="842.282,-111.852 851.458,-106.555 840.981,-104.974 842.282,-111.852"/>
</g>
<!-- Node31 -->
<g id="node31" class="node"><title>Node31</title>
<g id="a_node31"><a xlink:href="../../da/d54/classproperties_1_1_position.html#a0e2fa1786b2b6cbed8f91d02e624d3ec" target="_top" xlink:title="properties.Position.getY">
<polygon fill="white" stroke="black" points="838,-49.5 838,-68.5 968,-68.5 968,-49.5 838,-49.5"/>
<text text-anchor="middle" x="903" y="-56.5" font-family="Helvetica,sans-Serif" font-size="10.00">properties.Position.getY</text>
</a>
</g>
</g>
<!-- Node24&#45;&gt;Node31 -->
<g id="edge30" class="edge"><title>Node24&#45;&gt;Node31</title>
<path fill="none" stroke="midnightblue" d="M764.026,-119.9C771.639,-117.086 779.14,-113.805 786,-110 804.721,-99.6178 803.011,-87.8837 822,-78 826.553,-75.6304 831.404,-73.5516 836.381,-71.7287"/>
<polygon fill="midnightblue" stroke="midnightblue" points="837.665,-74.9907 846.062,-68.5293 835.468,-68.3443 837.665,-74.9907"/>
</g>
<!-- Node32 -->
<g id="node32" class="node"><title>Node32</title>
<g id="a_node32"><a xlink:href="../../dc/d0a/classfeatures_1_1_display_turtle.html#a0974c08e12b3bea1d0c5a00359ffab13" target="_top" xlink:title="features.DisplayTurtle.update\lImage">
<polygon fill="white" stroke="black" points="825,-0 825,-30 981,-30 981,-0 825,-0"/>
<text text-anchor="start" x="833" y="-18" font-family="Helvetica,sans-Serif" font-size="10.00">features.DisplayTurtle.update</text>
<text text-anchor="middle" x="903" y="-7" font-family="Helvetica,sans-Serif" font-size="10.00">Image</text>
</a>
</g>
</g>
<!-- Node24&#45;&gt;Node32 -->
<g id="edge31" class="edge"><title>Node24&#45;&gt;Node32</title>
<path fill="none" stroke="midnightblue" d="M770.717,-119.804C776.19,-117.061 781.377,-113.823 786,-110 812.961,-87.7064 795.228,-62.5197 822,-40 823.997,-38.3198 826.108,-36.7524 828.305,-35.2901"/>
<polygon fill="midnightblue" stroke="midnightblue" points="830.265,-38.1998 837.16,-30.1554 826.753,-32.1443 830.265,-38.1998"/>
</g>
<!-- Node26&#45;&gt;Node27 -->
<g id="edge26" class="edge"><title>Node26&#45;&gt;Node27</title>
<path fill="none" stroke="midnightblue" d="M984.231,-208.305C992.674,-207.39 1001.32,-206.453 1009.93,-205.52"/>
<polygon fill="midnightblue" stroke="midnightblue" points="1010.43,-208.986 1020,-204.429 1009.68,-202.027 1010.43,-208.986"/>
</g>
<!-- Node28 -->
<g id="node28" class="node"><title>Node28</title>
<g id="a_node28"><a xlink:href="../../da/da7/classfeatures_1_1_pen.html#accc955328a7a1e73f6e512116eb3ca70" target="_top" xlink:title="features.Pen.drawLine">
<polygon fill="white" stroke="black" points="1232,-185.5 1232,-204.5 1354,-204.5 1354,-185.5 1232,-185.5"/>
<text text-anchor="middle" x="1293" y="-192.5" font-family="Helvetica,sans-Serif" font-size="10.00">features.Pen.drawLine</text>
</a>
</g>
</g>
<!-- Node27&#45;&gt;Node28 -->
<g id="edge27" class="edge"><title>Node27&#45;&gt;Node28</title>
<path fill="none" stroke="midnightblue" d="M1196.21,-195C1204.79,-195 1213.41,-195 1221.78,-195"/>
<polygon fill="midnightblue" stroke="midnightblue" points="1221.85,-198.5 1231.85,-195 1221.85,-191.5 1221.85,-198.5"/>
</g>
</g>
</svg>
