<?xml version="1.0" encoding="UTF-8" standalone="no"?>
<!DOCTYPE svg PUBLIC "-//W3C//DTD SVG 1.1//EN"
 "http://www.w3.org/Graphics/SVG/1.1/DTD/svg11.dtd">
<!-- Generated by graphviz version 2.36.0 (20140111.2315)
 -->
<!-- Title: mainApplication.GUI.loadPanes Pages: 1 -->
<svg width="372pt" height="312pt"
 viewBox="0.00 0.00 372.00 312.00" xmlns="http://www.w3.org/2000/svg" xmlns:xlink="http://www.w3.org/1999/xlink">
<g id="graph0" class="graph" transform="scale(1 1) rotate(0) translate(4 308)">
<title>mainApplication.GUI.loadPanes</title>
<polygon fill="white" stroke="none" points="-4,4 -4,-308 368,-308 368,4 -4,4"/>
<!-- Node1 -->
<g id="node1" class="node"><title>Node1</title>
<polygon fill="#bfbfbf" stroke="black" points="0.5,-137 0.5,-167 137.5,-167 137.5,-137 0.5,-137"/>
<text text-anchor="start" x="8.5" y="-155" font-family="Helvetica,sans-Serif" font-size="10.00">mainApplication.GUI.load</text>
<text text-anchor="middle" x="69" y="-144" font-family="Helvetica,sans-Serif" font-size="10.00">Panes</text>
</g>
<!-- Node2 -->
<g id="node2" class="node"><title>Node2</title>
<g id="a_node2"><a xlink:href="../../d6/d14/classfeatures_1_1_settings_bar.html#a06ac68340b6f5f59f638db75870f7d33" target="_top" xlink:title="features.SettingsBar.add\lAnimationSlider">
<polygon fill="white" stroke="black" points="201,-274 201,-304 337,-304 337,-274 201,-274"/>
<text text-anchor="start" x="209" y="-292" font-family="Helvetica,sans-Serif" font-size="10.00">features.SettingsBar.add</text>
<text text-anchor="middle" x="269" y="-281" font-family="Helvetica,sans-Serif" font-size="10.00">AnimationSlider</text>
</a>
</g>
</g>
<!-- Node1&#45;&gt;Node2 -->
<g id="edge1" class="edge"><title>Node1&#45;&gt;Node2</title>
<path fill="none" stroke="midnightblue" d="M79.8526,-167.231C96.3497,-191.483 131.926,-238.712 174,-264 179.414,-267.254 185.253,-270.091 191.277,-272.563"/>
<polygon fill="midnightblue" stroke="midnightblue" points="190.268,-275.923 200.861,-276.155 192.725,-269.368 190.268,-275.923"/>
</g>
<!-- Node3 -->
<g id="node3" class="node"><title>Node3</title>
<g id="a_node3"><a xlink:href="../../d6/d14/classfeatures_1_1_settings_bar.html#a84c1671d1eff0e0e6df250fcd1a2dcd0" target="_top" xlink:title="features.SettingsBar.add\lComboBox">
<polygon fill="white" stroke="black" points="201,-225 201,-255 337,-255 337,-225 201,-225"/>
<text text-anchor="start" x="209" y="-243" font-family="Helvetica,sans-Serif" font-size="10.00">features.SettingsBar.add</text>
<text text-anchor="middle" x="269" y="-232" font-family="Helvetica,sans-Serif" font-size="10.00">ComboBox</text>
</a>
</g>
</g>
<!-- Node1&#45;&gt;Node3 -->
<g id="edge2" class="edge"><title>Node1&#45;&gt;Node3</title>
<path fill="none" stroke="midnightblue" d="M90.948,-167.156C111.297,-181.268 143.503,-202.024 174,-215 179.812,-217.473 185.933,-219.757 192.148,-221.855"/>
<polygon fill="midnightblue" stroke="midnightblue" points="191.37,-225.281 201.961,-224.998 193.505,-218.614 191.37,-225.281"/>
</g>
<!-- Node4 -->
<g id="node4" class="node"><title>Node4</title>
<g id="a_node4"><a xlink:href="../../d7/d3c/classcomponents_1_1_top_pane.html#a1239f7bb3356707158d40b0b41b4ca0b" target="_top" xlink:title="components.TopPane.addItems">
<polygon fill="white" stroke="black" points="185.5,-186.5 185.5,-205.5 352.5,-205.5 352.5,-186.5 185.5,-186.5"/>
<text text-anchor="middle" x="269" y="-193.5" font-family="Helvetica,sans-Serif" font-size="10.00">components.TopPane.addItems</text>
</a>
</g>
</g>
<!-- Node1&#45;&gt;Node4 -->
<g id="edge3" class="edge"><title>Node1&#45;&gt;Node4</title>
<path fill="none" stroke="midnightblue" d="M134.315,-167.023C147.436,-170.037 161.156,-173.152 174,-176 186.467,-178.765 199.883,-181.664 212.564,-184.37"/>
<polygon fill="midnightblue" stroke="midnightblue" points="212.036,-187.836 222.545,-186.493 213.492,-180.989 212.036,-187.836"/>
</g>
<!-- Node5 -->
<g id="node5" class="node"><title>Node5</title>
<g id="a_node5"><a xlink:href="../../d6/d14/classfeatures_1_1_settings_bar.html#a0087ffd8c4aeedd07998a8a058cc9209" target="_top" xlink:title="features.SettingsBar.add\lPenSlider">
<polygon fill="white" stroke="black" points="201,-137 201,-167 337,-167 337,-137 201,-137"/>
<text text-anchor="start" x="209" y="-155" font-family="Helvetica,sans-Serif" font-size="10.00">features.SettingsBar.add</text>
<text text-anchor="middle" x="269" y="-144" font-family="Helvetica,sans-Serif" font-size="10.00">PenSlider</text>
</a>
</g>
</g>
<!-- Node1&#45;&gt;Node5 -->
<g id="edge4" class="edge"><title>Node1&#45;&gt;Node5</title>
<path fill="none" stroke="midnightblue" d="M137.587,-152C154.631,-152 173.061,-152 190.548,-152"/>
<polygon fill="midnightblue" stroke="midnightblue" points="190.718,-155.5 200.718,-152 190.718,-148.5 190.718,-155.5"/>
</g>
<!-- Node6 -->
<g id="node6" class="node"><title>Node6</title>
<g id="a_node6"><a xlink:href="../../d6/d8b/classcomponents_1_1_pane_factory.html#a749d9694305a5e64344c7f0b2eb1ec46" target="_top" xlink:title="components.PaneFactory.makePane">
<polygon fill="white" stroke="black" points="174.5,-98.5 174.5,-117.5 363.5,-117.5 363.5,-98.5 174.5,-98.5"/>
<text text-anchor="middle" x="269" y="-105.5" font-family="Helvetica,sans-Serif" font-size="10.00">components.PaneFactory.makePane</text>
</a>
</g>
</g>
<!-- Node1&#45;&gt;Node6 -->
<g id="edge5" class="edge"><title>Node1&#45;&gt;Node6</title>
<path fill="none" stroke="midnightblue" d="M134.315,-136.977C147.436,-133.963 161.156,-130.848 174,-128 186.467,-125.235 199.883,-122.336 212.564,-119.63"/>
<polygon fill="midnightblue" stroke="midnightblue" points="213.492,-123.011 222.545,-117.507 212.036,-116.164 213.492,-123.011"/>
</g>
<!-- Node7 -->
<g id="node7" class="node"><title>Node7</title>
<g id="a_node7"><a xlink:href="../../d9/d58/classcomponents_1_1_bottom_pane.html#a8c0188cd8a7650eb5b180930298a44a2" target="_top" xlink:title="components.BottomPane.update\lButton">
<polygon fill="white" stroke="black" points="181,-49 181,-79 357,-79 357,-49 181,-49"/>
<text text-anchor="start" x="189" y="-67" font-family="Helvetica,sans-Serif" font-size="10.00">components.BottomPane.update</text>
<text text-anchor="middle" x="269" y="-56" font-family="Helvetica,sans-Serif" font-size="10.00">Button</text>
</a>
</g>
</g>
<!-- Node1&#45;&gt;Node7 -->
<g id="edge6" class="edge"><title>Node1&#45;&gt;Node7</title>
<path fill="none" stroke="midnightblue" d="M90.948,-136.844C111.297,-122.732 143.503,-101.976 174,-89 179.812,-86.5268 185.933,-84.2426 192.148,-82.145"/>
<polygon fill="midnightblue" stroke="midnightblue" points="193.505,-85.3855 201.961,-79.0019 191.37,-78.7191 193.505,-85.3855"/>
</g>
<!-- Node8 -->
<g id="node8" class="node"><title>Node8</title>
<g id="a_node8"><a xlink:href="../../d6/d68/classcomponents_1_1_turtle_manager.html#a4359c3b1142a696d251e7fc017729efb" target="_top" xlink:title="components.TurtleManager.update\lImageMap">
<polygon fill="white" stroke="black" points="177.5,-0 177.5,-30 360.5,-30 360.5,-0 177.5,-0"/>
<text text-anchor="start" x="185.5" y="-18" font-family="Helvetica,sans-Serif" font-size="10.00">components.TurtleManager.update</text>
<text text-anchor="middle" x="269" y="-7" font-family="Helvetica,sans-Serif" font-size="10.00">ImageMap</text>
</a>
</g>
</g>
<!-- Node1&#45;&gt;Node8 -->
<g id="edge7" class="edge"><title>Node1&#45;&gt;Node8</title>
<path fill="none" stroke="midnightblue" d="M79.8526,-136.769C96.3497,-112.517 131.926,-65.2881 174,-40 177.582,-37.847 181.35,-35.8766 185.235,-34.0736"/>
<polygon fill="midnightblue" stroke="midnightblue" points="186.632,-37.283 194.478,-30.1634 183.905,-30.8361 186.632,-37.283"/>
</g>
</g>
</svg>
