<?xml version="1.0" encoding="UTF-8" standalone="no"?>
<!DOCTYPE svg PUBLIC "-//W3C//DTD SVG 1.1//EN"
 "http://www.w3.org/Graphics/SVG/1.1/DTD/svg11.dtd">
<!-- Generated by graphviz version 2.36.0 (20140111.2315)
 -->
<!-- Title: features.RunButtonFeature.update Pages: 1 -->
<svg width="860pt" height="185pt"
 viewBox="0.00 0.00 860.00 185.00" xmlns="http://www.w3.org/2000/svg" xmlns:xlink="http://www.w3.org/1999/xlink">
<g id="graph0" class="graph" transform="scale(1 1) rotate(0) translate(4 181)">
<title>features.RunButtonFeature.update</title>
<polygon fill="white" stroke="none" points="-4,4 -4,-181 856,-181 856,4 -4,4"/>
<!-- Node1 -->
<g id="node1" class="node"><title>Node1</title>
<polygon fill="#bfbfbf" stroke="black" points="0,-78.5 0,-97.5 182,-97.5 182,-78.5 0,-78.5"/>
<text text-anchor="middle" x="91" y="-85.5" font-family="Helvetica,sans-Serif" font-size="10.00">features.RunButtonFeature.update</text>
</g>
<!-- Node2 -->
<g id="node2" class="node"><title>Node2</title>
<g id="a_node2"><a xlink:href="../../de/d10/classfeatures_1_1_run_button_feature.html#a7516c5daca232e22a89ef380f60d2272" target="_top" xlink:title="features.RunButtonFeature.update\lPanes">
<polygon fill="white" stroke="black" points="218,-73 218,-103 400,-103 400,-73 218,-73"/>
<text text-anchor="start" x="226" y="-91" font-family="Helvetica,sans-Serif" font-size="10.00">features.RunButtonFeature.update</text>
<text text-anchor="middle" x="309" y="-80" font-family="Helvetica,sans-Serif" font-size="10.00">Panes</text>
</a>
</g>
</g>
<!-- Node1&#45;&gt;Node2 -->
<g id="edge1" class="edge"><title>Node1&#45;&gt;Node2</title>
<path fill="none" stroke="midnightblue" d="M182.039,-88C190.526,-88 199.165,-88 207.738,-88"/>
<polygon fill="midnightblue" stroke="midnightblue" points="207.759,-91.5001 217.759,-88 207.759,-84.5001 207.759,-91.5001"/>
</g>
<!-- Node3 -->
<g id="node3" class="node"><title>Node3</title>
<g id="a_node3"><a xlink:href="../../d6/d68/classcomponents_1_1_turtle_manager.html#a4359c3b1142a696d251e7fc017729efb" target="_top" xlink:title="components.TurtleManager.update\lImageMap">
<polygon fill="white" stroke="black" points="436.5,-147 436.5,-177 619.5,-177 619.5,-147 436.5,-147"/>
<text text-anchor="start" x="444.5" y="-165" font-family="Helvetica,sans-Serif" font-size="10.00">components.TurtleManager.update</text>
<text text-anchor="middle" x="528" y="-154" font-family="Helvetica,sans-Serif" font-size="10.00">ImageMap</text>
</a>
</g>
</g>
<!-- Node2&#45;&gt;Node3 -->
<g id="edge2" class="edge"><title>Node2&#45;&gt;Node3</title>
<path fill="none" stroke="midnightblue" d="M345.761,-103.039C370.79,-113.285 405.138,-126.79 436,-137 443.328,-139.424 451.04,-141.803 458.748,-144.071"/>
<polygon fill="midnightblue" stroke="midnightblue" points="457.9,-147.469 468.478,-146.879 459.841,-140.743 457.9,-147.469"/>
</g>
<!-- Node4 -->
<g id="node4" class="node"><title>Node4</title>
<g id="a_node4"><a xlink:href="../../d7/da1/classmain_application_1_1_controller.html#a133505f3ac4d32291a6017ba7f367fb9" target="_top" xlink:title="mainApplication.Controller.get\lVariables">
<polygon fill="white" stroke="black" points="447.5,-98 447.5,-128 608.5,-128 608.5,-98 447.5,-98"/>
<text text-anchor="start" x="455.5" y="-116" font-family="Helvetica,sans-Serif" font-size="10.00">mainApplication.Controller.get</text>
<text text-anchor="middle" x="528" y="-105" font-family="Helvetica,sans-Serif" font-size="10.00">Variables</text>
</a>
</g>
</g>
<!-- Node2&#45;&gt;Node4 -->
<g id="edge3" class="edge"><title>Node2&#45;&gt;Node4</title>
<path fill="none" stroke="midnightblue" d="M400.142,-98.3851C412.333,-99.7895 424.842,-101.231 437.029,-102.635"/>
<polygon fill="midnightblue" stroke="midnightblue" points="436.842,-106.136 447.177,-103.804 437.643,-99.1822 436.842,-106.136"/>
</g>
<!-- Node6 -->
<g id="node6" class="node"><title>Node6</title>
<g id="a_node6"><a xlink:href="../../d7/da1/classmain_application_1_1_controller.html#a952b8306c4c1217626fcae679705ec24" target="_top" xlink:title="mainApplication.Controller.get\lColors">
<polygon fill="white" stroke="black" points="447.5,-49 447.5,-79 608.5,-79 608.5,-49 447.5,-49"/>
<text text-anchor="start" x="455.5" y="-67" font-family="Helvetica,sans-Serif" font-size="10.00">mainApplication.Controller.get</text>
<text text-anchor="middle" x="528" y="-56" font-family="Helvetica,sans-Serif" font-size="10.00">Colors</text>
</a>
</g>
</g>
<!-- Node2&#45;&gt;Node6 -->
<g id="edge5" class="edge"><title>Node2&#45;&gt;Node6</title>
<path fill="none" stroke="midnightblue" d="M400.142,-78.0303C412.333,-76.6821 424.842,-75.2986 437.029,-73.9507"/>
<polygon fill="midnightblue" stroke="midnightblue" points="437.622,-77.4065 447.177,-72.8284 436.853,-70.4489 437.622,-77.4065"/>
</g>
<!-- Node8 -->
<g id="node8" class="node"><title>Node8</title>
<g id="a_node8"><a xlink:href="../../d7/da1/classmain_application_1_1_controller.html#ab99acfabe99cc2e0bdca80f0ad4ee99b" target="_top" xlink:title="mainApplication.Controller.get\lCommands">
<polygon fill="white" stroke="black" points="447.5,-0 447.5,-30 608.5,-30 608.5,-0 447.5,-0"/>
<text text-anchor="start" x="455.5" y="-18" font-family="Helvetica,sans-Serif" font-size="10.00">mainApplication.Controller.get</text>
<text text-anchor="middle" x="528" y="-7" font-family="Helvetica,sans-Serif" font-size="10.00">Commands</text>
</a>
</g>
</g>
<!-- Node2&#45;&gt;Node8 -->
<g id="edge7" class="edge"><title>Node2&#45;&gt;Node8</title>
<path fill="none" stroke="midnightblue" d="M346.607,-72.9885C371.576,-63.0136 405.519,-49.9676 436,-40 443.528,-37.5382 451.459,-35.1146 459.37,-32.8027"/>
<polygon fill="midnightblue" stroke="midnightblue" points="460.338,-36.1664 468.984,-30.0429 458.406,-29.4382 460.338,-36.1664"/>
</g>
<!-- Node5 -->
<g id="node5" class="node"><title>Node5</title>
<g id="a_node5"><a xlink:href="../../de/d19/classworkspace_1_1_workspace.html#a85d7692f63e805af8424da4116f233fa" target="_top" xlink:title="workspace.Workspace.getVariables">
<polygon fill="white" stroke="black" points="662.5,-103.5 662.5,-122.5 845.5,-122.5 845.5,-103.5 662.5,-103.5"/>
<text text-anchor="middle" x="754" y="-110.5" font-family="Helvetica,sans-Serif" font-size="10.00">workspace.Workspace.getVariables</text>
</a>
</g>
</g>
<!-- Node4&#45;&gt;Node5 -->
<g id="edge4" class="edge"><title>Node4&#45;&gt;Node5</title>
<path fill="none" stroke="midnightblue" d="M608.605,-113C622.704,-113 637.554,-113 652.148,-113"/>
<polygon fill="midnightblue" stroke="midnightblue" points="652.198,-116.5 662.198,-113 652.198,-109.5 652.198,-116.5"/>
</g>
<!-- Node7 -->
<g id="node7" class="node"><title>Node7</title>
<g id="a_node7"><a xlink:href="../../de/d19/classworkspace_1_1_workspace.html#a029cef83f88faaebaa49ffdc6466b0a3" target="_top" xlink:title="workspace.Workspace.getColors">
<polygon fill="white" stroke="black" points="669,-54.5 669,-73.5 839,-73.5 839,-54.5 669,-54.5"/>
<text text-anchor="middle" x="754" y="-61.5" font-family="Helvetica,sans-Serif" font-size="10.00">workspace.Workspace.getColors</text>
</a>
</g>
</g>
<!-- Node6&#45;&gt;Node7 -->
<g id="edge6" class="edge"><title>Node6&#45;&gt;Node7</title>
<path fill="none" stroke="midnightblue" d="M608.605,-64C624.746,-64 641.869,-64 658.468,-64"/>
<polygon fill="midnightblue" stroke="midnightblue" points="658.722,-67.5001 668.722,-64 658.722,-60.5001 658.722,-67.5001"/>
</g>
<!-- Node9 -->
<g id="node9" class="node"><title>Node9</title>
<g id="a_node9"><a xlink:href="../../de/d19/classworkspace_1_1_workspace.html#a31b9c29f587cb0c2d504cf0eaae5e208" target="_top" xlink:title="workspace.Workspace.getCommands">
<polygon fill="white" stroke="black" points="656.5,-5.5 656.5,-24.5 851.5,-24.5 851.5,-5.5 656.5,-5.5"/>
<text text-anchor="middle" x="754" y="-12.5" font-family="Helvetica,sans-Serif" font-size="10.00">workspace.Workspace.getCommands</text>
</a>
</g>
</g>
<!-- Node8&#45;&gt;Node9 -->
<g id="edge8" class="edge"><title>Node8&#45;&gt;Node9</title>
<path fill="none" stroke="midnightblue" d="M608.605,-15C620.809,-15 633.576,-15 646.252,-15"/>
<polygon fill="midnightblue" stroke="midnightblue" points="646.386,-18.5001 656.386,-15 646.386,-11.5001 646.386,-18.5001"/>
</g>
</g>
</svg>
