<?xml version="1.0" encoding="UTF-8" standalone="no"?>
<!DOCTYPE svg PUBLIC "-//W3C//DTD SVG 1.1//EN"
 "http://www.w3.org/Graphics/SVG/1.1/DTD/svg11.dtd">
<!-- Generated by graphviz version 2.36.0 (20140111.2315)
 -->
<!-- Title: features.RunButtonFeature.RunButtonFeature Pages: 1 -->
<svg width="1444pt" height="364pt"
 viewBox="0.00 0.00 1444.00 364.00" xmlns="http://www.w3.org/2000/svg" xmlns:xlink="http://www.w3.org/1999/xlink">
<g id="graph0" class="graph" transform="scale(1 1) rotate(0) translate(4 360)">
<title>features.RunButtonFeature.RunButtonFeature</title>
<polygon fill="white" stroke="none" points="-4,4 -4,-360 1440,-360 1440,4 -4,4"/>
<!-- Node1 -->
<g id="node1" class="node"><title>Node1</title>
<polygon fill="#bfbfbf" stroke="black" points="0,-125 0,-155 148,-155 148,-125 0,-125"/>
<text text-anchor="start" x="8" y="-143" font-family="Helvetica,sans-Serif" font-size="10.00">features.RunButtonFeature.</text>
<text text-anchor="middle" x="74" y="-132" font-family="Helvetica,sans-Serif" font-size="10.00">RunButtonFeature</text>
</g>
<!-- Node2 -->
<g id="node2" class="node"><title>Node2</title>
<g id="a_node2"><a xlink:href="../../de/d10/classfeatures_1_1_run_button_feature.html#a062b3f5a4307f10b039c13ef39fa3a6a" target="_top" xlink:title="features.RunButtonFeature.make\lImageMap">
<polygon fill="white" stroke="black" points="187.5,-196 187.5,-226 362.5,-226 362.5,-196 187.5,-196"/>
<text text-anchor="start" x="195.5" y="-214" font-family="Helvetica,sans-Serif" font-size="10.00">features.RunButtonFeature.make</text>
<text text-anchor="middle" x="275" y="-203" font-family="Helvetica,sans-Serif" font-size="10.00">ImageMap</text>
</a>
</g>
</g>
<!-- Node1&#45;&gt;Node2 -->
<g id="edge1" class="edge"><title>Node1&#45;&gt;Node2</title>
<path fill="none" stroke="midnightblue" d="M107.484,-155.003C128.934,-164.586 157.814,-176.88 184,-186 190.949,-188.42 198.262,-190.768 205.592,-192.993"/>
<polygon fill="midnightblue" stroke="midnightblue" points="204.982,-196.462 215.565,-195.946 206.97,-189.75 204.982,-196.462"/>
</g>
<!-- Node3 -->
<g id="node3" class="node"><title>Node3</title>
<g id="a_node3"><a xlink:href="../../d7/da1/classmain_application_1_1_controller.html#a6e9afc2e53e6adb01a2b73794a319b63" target="_top" xlink:title="mainApplication.Controller.parse\lAndEvaluate">
<polygon fill="white" stroke="black" points="189,-147 189,-177 361,-177 361,-147 189,-147"/>
<text text-anchor="start" x="197" y="-165" font-family="Helvetica,sans-Serif" font-size="10.00">mainApplication.Controller.parse</text>
<text text-anchor="middle" x="275" y="-154" font-family="Helvetica,sans-Serif" font-size="10.00">AndEvaluate</text>
</a>
</g>
</g>
<!-- Node1&#45;&gt;Node3 -->
<g id="edge2" class="edge"><title>Node1&#45;&gt;Node3</title>
<path fill="none" stroke="midnightblue" d="M148.252,-148.098C158.143,-149.192 168.407,-150.326 178.613,-151.455"/>
<polygon fill="midnightblue" stroke="midnightblue" points="178.459,-154.959 188.784,-152.579 179.229,-148.001 178.459,-154.959"/>
</g>
<!-- Node15 -->
<g id="node15" class="node"><title>Node15</title>
<g id="a_node15"><a xlink:href="../../de/d10/classfeatures_1_1_run_button_feature.html#aafdb4dfb72af2439264ef4a329b35c41" target="_top" xlink:title="features.RunButtonFeature.update">
<polygon fill="white" stroke="black" points="184,-108.5 184,-127.5 366,-127.5 366,-108.5 184,-108.5"/>
<text text-anchor="middle" x="275" y="-115.5" font-family="Helvetica,sans-Serif" font-size="10.00">features.RunButtonFeature.update</text>
</a>
</g>
</g>
<!-- Node1&#45;&gt;Node15 -->
<g id="edge16" class="edge"><title>Node1&#45;&gt;Node15</title>
<path fill="none" stroke="midnightblue" d="M148.252,-131.902C157.794,-130.847 167.682,-129.754 177.53,-128.665"/>
<polygon fill="midnightblue" stroke="midnightblue" points="178.208,-132.112 187.762,-127.534 177.438,-125.154 178.208,-132.112"/>
</g>
<!-- Node24 -->
<g id="node24" class="node"><title>Node24</title>
<g id="a_node24"><a xlink:href="../../d9/d58/classcomponents_1_1_bottom_pane.html#aa3c0513c0aa7abdfbf6ec6a7dd74463c" target="_top" xlink:title="components.BottomPane.update\lErrors">
<polygon fill="white" stroke="black" points="187,-59 187,-89 363,-89 363,-59 187,-59"/>
<text text-anchor="start" x="195" y="-77" font-family="Helvetica,sans-Serif" font-size="10.00">components.BottomPane.update</text>
<text text-anchor="middle" x="275" y="-66" font-family="Helvetica,sans-Serif" font-size="10.00">Errors</text>
</a>
</g>
</g>
<!-- Node1&#45;&gt;Node24 -->
<g id="edge25" class="edge"><title>Node1&#45;&gt;Node24</title>
<path fill="none" stroke="midnightblue" d="M112.541,-124.937C133.423,-116.797 159.974,-106.839 184,-99 191.371,-96.5952 199.128,-94.2165 206.87,-91.9383"/>
<polygon fill="midnightblue" stroke="midnightblue" points="208.005,-95.2535 216.638,-89.1117 206.059,-88.5294 208.005,-95.2535"/>
</g>
<!-- Node4 -->
<g id="node4" class="node"><title>Node4</title>
<g id="a_node4"><a xlink:href="../../d6/d95/classparser_1_1_parser.html#a5e98fdfffe49478864dc1b22371d6cb1" target="_top" xlink:title="parser.Parser.parse">
<polygon fill="white" stroke="black" points="438.5,-200.5 438.5,-219.5 547.5,-219.5 547.5,-200.5 438.5,-200.5"/>
<text text-anchor="middle" x="493" y="-207.5" font-family="Helvetica,sans-Serif" font-size="10.00">parser.Parser.parse</text>
</a>
</g>
</g>
<!-- Node3&#45;&gt;Node4 -->
<g id="edge3" class="edge"><title>Node3&#45;&gt;Node4</title>
<path fill="none" stroke="midnightblue" d="M343.751,-177.056C374.518,-183.893 410.371,-191.86 439.111,-198.247"/>
<polygon fill="midnightblue" stroke="midnightblue" points="438.439,-201.683 448.96,-200.436 439.957,-194.85 438.439,-201.683"/>
</g>
<!-- Node14 -->
<g id="node14" class="node"><title>Node14</title>
<g id="a_node14"><a xlink:href="../../de/d19/classworkspace_1_1_workspace.html#a3a9437dc7cd23ecdf0d20e29e577ae9b" target="_top" xlink:title="workspace.Workspace.evaluate">
<polygon fill="white" stroke="black" points="410.5,-152.5 410.5,-171.5 575.5,-171.5 575.5,-152.5 410.5,-152.5"/>
<text text-anchor="middle" x="493" y="-159.5" font-family="Helvetica,sans-Serif" font-size="10.00">workspace.Workspace.evaluate</text>
</a>
</g>
</g>
<!-- Node3&#45;&gt;Node14 -->
<g id="edge15" class="edge"><title>Node3&#45;&gt;Node14</title>
<path fill="none" stroke="midnightblue" d="M361.059,-162C373.821,-162 387.031,-162 399.931,-162"/>
<polygon fill="midnightblue" stroke="midnightblue" points="400.196,-165.5 410.196,-162 400.196,-158.5 400.196,-165.5"/>
</g>
<!-- Node5 -->
<g id="node5" class="node"><title>Node5</title>
<g id="a_node5"><a xlink:href="../../d6/d95/classparser_1_1_parser.html#a2fe30e8a728e36fd2626587f059c4b95" target="_top" xlink:title="parser.Parser.makeTree">
<polygon fill="white" stroke="black" points="648,-211.5 648,-230.5 776,-230.5 776,-211.5 648,-211.5"/>
<text text-anchor="middle" x="712" y="-218.5" font-family="Helvetica,sans-Serif" font-size="10.00">parser.Parser.makeTree</text>
</a>
</g>
</g>
<!-- Node4&#45;&gt;Node5 -->
<g id="edge4" class="edge"><title>Node4&#45;&gt;Node5</title>
<path fill="none" stroke="midnightblue" d="M547.64,-212.719C574.81,-214.096 608.208,-215.789 637.71,-217.285"/>
<polygon fill="midnightblue" stroke="midnightblue" points="637.802,-220.794 647.966,-217.805 638.156,-213.803 637.802,-220.794"/>
</g>
<!-- Node6 -->
<g id="node6" class="node"><title>Node6</title>
<g id="a_node6"><a xlink:href="../../d6/d95/classparser_1_1_parser.html#ad5386cfbaf84af60512e31503fda19ed" target="_top" xlink:title="parser.Parser.makeNode">
<polygon fill="white" stroke="black" points="871,-328.5 871,-347.5 1005,-347.5 1005,-328.5 871,-328.5"/>
<text text-anchor="middle" x="938" y="-335.5" font-family="Helvetica,sans-Serif" font-size="10.00">parser.Parser.makeNode</text>
</a>
</g>
</g>
<!-- Node5&#45;&gt;Node6 -->
<g id="edge5" class="edge"><title>Node5&#45;&gt;Node6</title>
<path fill="none" stroke="midnightblue" d="M723.731,-230.599C744.635,-248.819 792.901,-288.596 840,-311 852.575,-316.982 866.718,-321.855 880.233,-325.731"/>
<polygon fill="midnightblue" stroke="midnightblue" points="879.364,-329.122 889.933,-328.378 881.207,-322.369 879.364,-329.122"/>
</g>
<!-- Node8 -->
<g id="node8" class="node"><title>Node8</title>
<g id="a_node8"><a xlink:href="../../d3/dcc/classparser_1_1_node.html#a7dfaaf7e60998705460f304c5d56ca6f" target="_top" xlink:title="parser.Node.getCommand">
<polygon fill="white" stroke="black" points="1292,-249.5 1292,-268.5 1436,-268.5 1436,-249.5 1292,-249.5"/>
<text text-anchor="middle" x="1364" y="-256.5" font-family="Helvetica,sans-Serif" font-size="10.00">parser.Node.getCommand</text>
</a>
</g>
</g>
<!-- Node5&#45;&gt;Node8 -->
<g id="edge7" class="edge"><title>Node5&#45;&gt;Node8</title>
<path fill="none" stroke="midnightblue" d="M728.686,-230.68C751.957,-244.412 797.463,-268.892 840,-278 1005.61,-313.46 1207.33,-287.207 1304.77,-270.312"/>
<polygon fill="midnightblue" stroke="midnightblue" points="1305.48,-273.741 1314.72,-268.556 1304.27,-266.848 1305.48,-273.741"/>
</g>
<!-- Node9 -->
<g id="node9" class="node"><title>Node9</title>
<g id="a_node9"><a xlink:href="../../d7/d35/classcommand_1_1_command.html#a81d128e8b4ac11d732d24edcbc5c2a88" target="_top" xlink:title="command.Command.getNumInputs">
<polygon fill="white" stroke="black" points="843,-249.5 843,-268.5 1033,-268.5 1033,-249.5 843,-249.5"/>
<text text-anchor="middle" x="938" y="-256.5" font-family="Helvetica,sans-Serif" font-size="10.00">command.Command.getNumInputs</text>
</a>
</g>
</g>
<!-- Node5&#45;&gt;Node9 -->
<g id="edge8" class="edge"><title>Node5&#45;&gt;Node9</title>
<path fill="none" stroke="midnightblue" d="M769.236,-230.54C799.991,-235.757 838.278,-242.253 870.507,-247.72"/>
<polygon fill="midnightblue" stroke="midnightblue" points="870.297,-251.234 880.741,-249.456 871.468,-244.333 870.297,-251.234"/>
</g>
<!-- Node11 -->
<g id="node11" class="node"><title>Node11</title>
<g id="a_node11"><a xlink:href="../../d3/dcc/classparser_1_1_node.html#ae9a17458b710c179f741464ca6e9048a" target="_top" xlink:title="parser.Node.addChild">
<polygon fill="white" stroke="black" points="878.5,-211.5 878.5,-230.5 997.5,-230.5 997.5,-211.5 878.5,-211.5"/>
<text text-anchor="middle" x="938" y="-218.5" font-family="Helvetica,sans-Serif" font-size="10.00">parser.Node.addChild</text>
</a>
</g>
</g>
<!-- Node5&#45;&gt;Node11 -->
<g id="edge12" class="edge"><title>Node5&#45;&gt;Node11</title>
<path fill="none" stroke="midnightblue" d="M776.291,-221C804.992,-221 838.993,-221 868.312,-221"/>
<polygon fill="midnightblue" stroke="midnightblue" points="868.471,-224.5 878.471,-221 868.471,-217.5 868.471,-224.5"/>
</g>
<!-- Node12 -->
<g id="node12" class="node"><title>Node12</title>
<g id="a_node12"><a xlink:href="../../d7/d35/classcommand_1_1_command.html#ab994c7989255741306855f258b1c2191" target="_top" xlink:title="command.Command.isList">
<polygon fill="white" stroke="black" points="865,-173.5 865,-192.5 1011,-192.5 1011,-173.5 865,-173.5"/>
<text text-anchor="middle" x="938" y="-180.5" font-family="Helvetica,sans-Serif" font-size="10.00">command.Command.isList</text>
</a>
</g>
</g>
<!-- Node5&#45;&gt;Node12 -->
<g id="edge13" class="edge"><title>Node5&#45;&gt;Node12</title>
<path fill="none" stroke="midnightblue" d="M769.236,-211.46C799.991,-206.243 838.278,-199.747 870.507,-194.28"/>
<polygon fill="midnightblue" stroke="midnightblue" points="871.468,-197.667 880.741,-192.544 870.297,-190.766 871.468,-197.667"/>
</g>
<!-- Node13 -->
<g id="node13" class="node"><title>Node13</title>
<g id="a_node13"><a xlink:href="../../d7/d35/classcommand_1_1_command.html#ac2df873d4926bc6e08dba8c6272cff7e" target="_top" xlink:title="command.Command.toString">
<polygon fill="white" stroke="black" points="858,-135.5 858,-154.5 1018,-154.5 1018,-135.5 858,-135.5"/>
<text text-anchor="middle" x="938" y="-142.5" font-family="Helvetica,sans-Serif" font-size="10.00">command.Command.toString</text>
</a>
</g>
</g>
<!-- Node5&#45;&gt;Node13 -->
<g id="edge14" class="edge"><title>Node5&#45;&gt;Node13</title>
<path fill="none" stroke="midnightblue" d="M741.85,-211.417C760.033,-205.01 783.806,-195.951 804,-186 820.82,-177.711 822.525,-170.798 840,-164 846.817,-161.348 854.053,-159.053 861.38,-157.068"/>
<polygon fill="midnightblue" stroke="midnightblue" points="862.55,-160.383 871.396,-154.551 860.844,-153.594 862.55,-160.383"/>
</g>
<!-- Node7 -->
<g id="node7" class="node"><title>Node7</title>
<g id="a_node7"><a xlink:href="../../d1/dd5/classparser_1_1_command_factory.html#a6907bbeefbe406c17766a1e350fc359f" target="_top" xlink:title="parser.CommandFactory.create\lCommand">
<polygon fill="white" stroke="black" points="1080.5,-326 1080.5,-356 1247.5,-356 1247.5,-326 1080.5,-326"/>
<text text-anchor="start" x="1088.5" y="-344" font-family="Helvetica,sans-Serif" font-size="10.00">parser.CommandFactory.create</text>
<text text-anchor="middle" x="1164" y="-333" font-family="Helvetica,sans-Serif" font-size="10.00">Command</text>
</a>
</g>
</g>
<!-- Node6&#45;&gt;Node7 -->
<g id="edge6" class="edge"><title>Node6&#45;&gt;Node7</title>
<path fill="none" stroke="midnightblue" d="M1005.3,-338.888C1025.57,-339.159 1048.25,-339.463 1069.95,-339.754"/>
<polygon fill="midnightblue" stroke="midnightblue" points="1070.13,-343.256 1080.17,-339.891 1070.22,-336.257 1070.13,-343.256"/>
</g>
<!-- Node9&#45;&gt;Node8 -->
<g id="edge11" class="edge"><title>Node9&#45;&gt;Node8</title>
<path fill="none" stroke="midnightblue" d="M1033.1,-259C1107.63,-259 1210.66,-259 1281.65,-259"/>
<polygon fill="midnightblue" stroke="midnightblue" points="1281.89,-262.5 1291.89,-259 1281.89,-255.5 1281.89,-262.5"/>
</g>
<!-- Node10 -->
<g id="node10" class="node"><title>Node10</title>
<g id="a_node10"><a xlink:href="../../d7/d35/classcommand_1_1_command.html#a30463654f906e5bcf507ab33bd5d8bff" target="_top" xlink:title="command.Command.checkListExit">
<polygon fill="white" stroke="black" points="1072.5,-211.5 1072.5,-230.5 1255.5,-230.5 1255.5,-211.5 1072.5,-211.5"/>
<text text-anchor="middle" x="1164" y="-218.5" font-family="Helvetica,sans-Serif" font-size="10.00">command.Command.checkListExit</text>
</a>
</g>
</g>
<!-- Node9&#45;&gt;Node10 -->
<g id="edge9" class="edge"><title>Node9&#45;&gt;Node10</title>
<path fill="none" stroke="midnightblue" d="M995.236,-249.46C1025.99,-244.243 1064.28,-237.747 1096.51,-232.28"/>
<polygon fill="midnightblue" stroke="midnightblue" points="1097.47,-235.667 1106.74,-230.544 1096.3,-228.766 1097.47,-235.667"/>
</g>
<!-- Node10&#45;&gt;Node8 -->
<g id="edge10" class="edge"><title>Node10&#45;&gt;Node8</title>
<path fill="none" stroke="midnightblue" d="M1214.71,-230.54C1241.54,-235.69 1274.86,-242.084 1303.11,-247.506"/>
<polygon fill="midnightblue" stroke="midnightblue" points="1302.79,-251.009 1313.27,-249.456 1304.11,-244.134 1302.79,-251.009"/>
</g>
<!-- Node16 -->
<g id="node16" class="node"><title>Node16</title>
<g id="a_node16"><a xlink:href="../../de/d10/classfeatures_1_1_run_button_feature.html#a7516c5daca232e22a89ef380f60d2272" target="_top" xlink:title="features.RunButtonFeature.update\lPanes">
<polygon fill="white" stroke="black" points="402,-98 402,-128 584,-128 584,-98 402,-98"/>
<text text-anchor="start" x="410" y="-116" font-family="Helvetica,sans-Serif" font-size="10.00">features.RunButtonFeature.update</text>
<text text-anchor="middle" x="493" y="-105" font-family="Helvetica,sans-Serif" font-size="10.00">Panes</text>
</a>
</g>
</g>
<!-- Node15&#45;&gt;Node16 -->
<g id="edge17" class="edge"><title>Node15&#45;&gt;Node16</title>
<path fill="none" stroke="midnightblue" d="M366.039,-115.916C374.526,-115.719 383.165,-115.519 391.738,-115.321"/>
<polygon fill="midnightblue" stroke="midnightblue" points="391.843,-118.819 401.759,-115.089 391.681,-111.821 391.843,-118.819"/>
</g>
<!-- Node17 -->
<g id="node17" class="node"><title>Node17</title>
<g id="a_node17"><a xlink:href="../../d6/d68/classcomponents_1_1_turtle_manager.html#a4359c3b1142a696d251e7fc017729efb" target="_top" xlink:title="components.TurtleManager.update\lImageMap">
<polygon fill="white" stroke="black" points="620.5,-147 620.5,-177 803.5,-177 803.5,-147 620.5,-147"/>
<text text-anchor="start" x="628.5" y="-165" font-family="Helvetica,sans-Serif" font-size="10.00">components.TurtleManager.update</text>
<text text-anchor="middle" x="712" y="-154" font-family="Helvetica,sans-Serif" font-size="10.00">ImageMap</text>
</a>
</g>
</g>
<!-- Node16&#45;&gt;Node17 -->
<g id="edge18" class="edge"><title>Node16&#45;&gt;Node17</title>
<path fill="none" stroke="midnightblue" d="M560.582,-128.035C584.015,-133.326 610.53,-139.313 634.701,-144.771"/>
<polygon fill="midnightblue" stroke="midnightblue" points="634.019,-148.205 644.544,-146.994 635.561,-141.377 634.019,-148.205"/>
</g>
<!-- Node18 -->
<g id="node18" class="node"><title>Node18</title>
<g id="a_node18"><a xlink:href="../../d7/da1/classmain_application_1_1_controller.html#a133505f3ac4d32291a6017ba7f367fb9" target="_top" xlink:title="mainApplication.Controller.get\lVariables">
<polygon fill="white" stroke="black" points="631.5,-98 631.5,-128 792.5,-128 792.5,-98 631.5,-98"/>
<text text-anchor="start" x="639.5" y="-116" font-family="Helvetica,sans-Serif" font-size="10.00">mainApplication.Controller.get</text>
<text text-anchor="middle" x="712" y="-105" font-family="Helvetica,sans-Serif" font-size="10.00">Variables</text>
</a>
</g>
</g>
<!-- Node16&#45;&gt;Node18 -->
<g id="edge19" class="edge"><title>Node16&#45;&gt;Node18</title>
<path fill="none" stroke="midnightblue" d="M584.142,-113C596.333,-113 608.842,-113 621.029,-113"/>
<polygon fill="midnightblue" stroke="midnightblue" points="621.177,-116.5 631.177,-113 621.177,-109.5 621.177,-116.5"/>
</g>
<!-- Node20 -->
<g id="node20" class="node"><title>Node20</title>
<g id="a_node20"><a xlink:href="../../d7/da1/classmain_application_1_1_controller.html#a952b8306c4c1217626fcae679705ec24" target="_top" xlink:title="mainApplication.Controller.get\lColors">
<polygon fill="white" stroke="black" points="631.5,-49 631.5,-79 792.5,-79 792.5,-49 631.5,-49"/>
<text text-anchor="start" x="639.5" y="-67" font-family="Helvetica,sans-Serif" font-size="10.00">mainApplication.Controller.get</text>
<text text-anchor="middle" x="712" y="-56" font-family="Helvetica,sans-Serif" font-size="10.00">Colors</text>
</a>
</g>
</g>
<!-- Node16&#45;&gt;Node20 -->
<g id="edge21" class="edge"><title>Node16&#45;&gt;Node20</title>
<path fill="none" stroke="midnightblue" d="M560.582,-97.9654C584.015,-92.6741 610.53,-86.6867 634.701,-81.2288"/>
<polygon fill="midnightblue" stroke="midnightblue" points="635.561,-84.6229 644.544,-79.0062 634.019,-77.7948 635.561,-84.6229"/>
</g>
<!-- Node22 -->
<g id="node22" class="node"><title>Node22</title>
<g id="a_node22"><a xlink:href="../../d7/da1/classmain_application_1_1_controller.html#ab99acfabe99cc2e0bdca80f0ad4ee99b" target="_top" xlink:title="mainApplication.Controller.get\lCommands">
<polygon fill="white" stroke="black" points="631.5,-0 631.5,-30 792.5,-30 792.5,-0 631.5,-0"/>
<text text-anchor="start" x="639.5" y="-18" font-family="Helvetica,sans-Serif" font-size="10.00">mainApplication.Controller.get</text>
<text text-anchor="middle" x="712" y="-7" font-family="Helvetica,sans-Serif" font-size="10.00">Commands</text>
</a>
</g>
</g>
<!-- Node16&#45;&gt;Node22 -->
<g id="edge23" class="edge"><title>Node16&#45;&gt;Node22</title>
<path fill="none" stroke="midnightblue" d="M515.859,-97.9937C540.303,-81.7816 581.524,-56.1138 620,-40 625.752,-37.591 631.805,-35.3457 637.943,-33.2687"/>
<polygon fill="midnightblue" stroke="midnightblue" points="639.185,-36.5459 647.627,-30.144 637.035,-29.8841 639.185,-36.5459"/>
</g>
<!-- Node19 -->
<g id="node19" class="node"><title>Node19</title>
<g id="a_node19"><a xlink:href="../../de/d19/classworkspace_1_1_workspace.html#a85d7692f63e805af8424da4116f233fa" target="_top" xlink:title="workspace.Workspace.getVariables">
<polygon fill="white" stroke="black" points="846.5,-97.5 846.5,-116.5 1029.5,-116.5 1029.5,-97.5 846.5,-97.5"/>
<text text-anchor="middle" x="938" y="-104.5" font-family="Helvetica,sans-Serif" font-size="10.00">workspace.Workspace.getVariables</text>
</a>
</g>
</g>
<!-- Node18&#45;&gt;Node19 -->
<g id="edge20" class="edge"><title>Node18&#45;&gt;Node19</title>
<path fill="none" stroke="midnightblue" d="M792.605,-110.868C806.704,-110.49 821.554,-110.092 836.148,-109.701"/>
<polygon fill="midnightblue" stroke="midnightblue" points="836.296,-113.199 846.198,-109.432 836.108,-106.201 836.296,-113.199"/>
</g>
<!-- Node21 -->
<g id="node21" class="node"><title>Node21</title>
<g id="a_node21"><a xlink:href="../../de/d19/classworkspace_1_1_workspace.html#a029cef83f88faaebaa49ffdc6466b0a3" target="_top" xlink:title="workspace.Workspace.getColors">
<polygon fill="white" stroke="black" points="853,-54.5 853,-73.5 1023,-73.5 1023,-54.5 853,-54.5"/>
<text text-anchor="middle" x="938" y="-61.5" font-family="Helvetica,sans-Serif" font-size="10.00">workspace.Workspace.getColors</text>
</a>
</g>
</g>
<!-- Node20&#45;&gt;Node21 -->
<g id="edge22" class="edge"><title>Node20&#45;&gt;Node21</title>
<path fill="none" stroke="midnightblue" d="M792.605,-64C808.746,-64 825.869,-64 842.468,-64"/>
<polygon fill="midnightblue" stroke="midnightblue" points="842.722,-67.5001 852.722,-64 842.722,-60.5001 842.722,-67.5001"/>
</g>
<!-- Node23 -->
<g id="node23" class="node"><title>Node23</title>
<g id="a_node23"><a xlink:href="../../de/d19/classworkspace_1_1_workspace.html#a31b9c29f587cb0c2d504cf0eaae5e208" target="_top" xlink:title="workspace.Workspace.getCommands">
<polygon fill="white" stroke="black" points="840.5,-5.5 840.5,-24.5 1035.5,-24.5 1035.5,-5.5 840.5,-5.5"/>
<text text-anchor="middle" x="938" y="-12.5" font-family="Helvetica,sans-Serif" font-size="10.00">workspace.Workspace.getCommands</text>
</a>
</g>
</g>
<!-- Node22&#45;&gt;Node23 -->
<g id="edge24" class="edge"><title>Node22&#45;&gt;Node23</title>
<path fill="none" stroke="midnightblue" d="M792.605,-15C804.809,-15 817.576,-15 830.252,-15"/>
<polygon fill="midnightblue" stroke="midnightblue" points="830.386,-18.5001 840.386,-15 830.386,-11.5001 830.386,-18.5001"/>
</g>
</g>
</svg>
