<?xml version="1.0" encoding="UTF-8" standalone="no"?>
<!DOCTYPE svg PUBLIC "-//W3C//DTD SVG 1.1//EN"
 "http://www.w3.org/Graphics/SVG/1.1/DTD/svg11.dtd">
<!-- Generated by graphviz version 2.36.0 (20140111.2315)
 -->
<!-- Title: parser.Parser.parse Pages: 1 -->
<svg width="908pt" height="218pt"
 viewBox="0.00 0.00 908.00 218.00" xmlns="http://www.w3.org/2000/svg" xmlns:xlink="http://www.w3.org/1999/xlink">
<g id="graph0" class="graph" transform="scale(1 1) rotate(0) translate(4 214)">
<title>parser.Parser.parse</title>
<polygon fill="white" stroke="none" points="-4,4 -4,-214 904,-214 904,4 -4,4"/>
<!-- Node1 -->
<g id="node1" class="node"><title>Node1</title>
<polygon fill="#bfbfbf" stroke="black" points="0.5,-95.5 0.5,-114.5 109.5,-114.5 109.5,-95.5 0.5,-95.5"/>
<text text-anchor="middle" x="55" y="-102.5" font-family="Helvetica,sans-Serif" font-size="10.00">parser.Parser.parse</text>
</g>
<!-- Node2 -->
<g id="node2" class="node"><title>Node2</title>
<g id="a_node2"><a xlink:href="../../d6/d95/classparser_1_1_parser.html#a2fe30e8a728e36fd2626587f059c4b95" target="_top" xlink:title="parser.Parser.makeTree">
<polygon fill="white" stroke="black" points="146,-95.5 146,-114.5 274,-114.5 274,-95.5 146,-95.5"/>
<text text-anchor="middle" x="210" y="-102.5" font-family="Helvetica,sans-Serif" font-size="10.00">parser.Parser.makeTree</text>
</a>
</g>
</g>
<!-- Node1&#45;&gt;Node2 -->
<g id="edge1" class="edge"><title>Node1&#45;&gt;Node2</title>
<path fill="none" stroke="midnightblue" d="M109.512,-105C117.935,-105 126.769,-105 135.549,-105"/>
<polygon fill="midnightblue" stroke="midnightblue" points="135.803,-108.5 145.803,-105 135.803,-101.5 135.803,-108.5"/>
</g>
<!-- Node3 -->
<g id="node3" class="node"><title>Node3</title>
<g id="a_node3"><a xlink:href="../../d3/dcc/classparser_1_1_node.html#ae9a17458b710c179f741464ca6e9048a" target="_top" xlink:title="parser.Node.addChild">
<polygon fill="white" stroke="black" points="345.5,-190.5 345.5,-209.5 464.5,-209.5 464.5,-190.5 345.5,-190.5"/>
<text text-anchor="middle" x="405" y="-197.5" font-family="Helvetica,sans-Serif" font-size="10.00">parser.Node.addChild</text>
</a>
</g>
</g>
<!-- Node2&#45;&gt;Node3 -->
<g id="edge2" class="edge"><title>Node2&#45;&gt;Node3</title>
<path fill="none" stroke="midnightblue" d="M221.437,-114.541C238.626,-129.754 274.533,-159.473 310,-176 320.052,-180.684 331.152,-184.546 342.095,-187.7"/>
<polygon fill="midnightblue" stroke="midnightblue" points="341.5,-191.164 352.067,-190.4 343.329,-184.408 341.5,-191.164"/>
</g>
<!-- Node4 -->
<g id="node4" class="node"><title>Node4</title>
<g id="a_node4"><a xlink:href="../../d3/dcc/classparser_1_1_node.html#a7dfaaf7e60998705460f304c5d56ca6f" target="_top" xlink:title="parser.Node.getCommand">
<polygon fill="white" stroke="black" points="756,-114.5 756,-133.5 900,-133.5 900,-114.5 756,-114.5"/>
<text text-anchor="middle" x="828" y="-121.5" font-family="Helvetica,sans-Serif" font-size="10.00">parser.Node.getCommand</text>
</a>
</g>
</g>
<!-- Node2&#45;&gt;Node4 -->
<g id="edge3" class="edge"><title>Node2&#45;&gt;Node4</title>
<path fill="none" stroke="midnightblue" d="M229.741,-114.584C249.213,-123.961 280.856,-137.599 310,-143 471.421,-172.916 665.893,-150.427 763.931,-135.115"/>
<polygon fill="midnightblue" stroke="midnightblue" points="764.645,-138.546 773.971,-133.519 763.546,-131.632 764.645,-138.546"/>
</g>
<!-- Node5 -->
<g id="node5" class="node"><title>Node5</title>
<g id="a_node5"><a xlink:href="../../d7/d35/classcommand_1_1_command.html#a81d128e8b4ac11d732d24edcbc5c2a88" target="_top" xlink:title="command.Command.getNumInputs">
<polygon fill="white" stroke="black" points="310,-114.5 310,-133.5 500,-133.5 500,-114.5 310,-114.5"/>
<text text-anchor="middle" x="405" y="-121.5" font-family="Helvetica,sans-Serif" font-size="10.00">command.Command.getNumInputs</text>
</a>
</g>
</g>
<!-- Node2&#45;&gt;Node5 -->
<g id="edge4" class="edge"><title>Node2&#45;&gt;Node5</title>
<path fill="none" stroke="midnightblue" d="M274.195,-111.221C282.413,-112.03 290.998,-112.875 299.668,-113.729"/>
<polygon fill="midnightblue" stroke="midnightblue" points="299.573,-117.236 309.868,-114.733 300.259,-110.27 299.573,-117.236"/>
</g>
<!-- Node7 -->
<g id="node7" class="node"><title>Node7</title>
<g id="a_node7"><a xlink:href="../../d7/d35/classcommand_1_1_command.html#ab994c7989255741306855f258b1c2191" target="_top" xlink:title="command.Command.isList">
<polygon fill="white" stroke="black" points="332,-76.5 332,-95.5 478,-95.5 478,-76.5 332,-76.5"/>
<text text-anchor="middle" x="405" y="-83.5" font-family="Helvetica,sans-Serif" font-size="10.00">command.Command.isList</text>
</a>
</g>
</g>
<!-- Node2&#45;&gt;Node7 -->
<g id="edge8" class="edge"><title>Node2&#45;&gt;Node7</title>
<path fill="none" stroke="midnightblue" d="M274.195,-98.7787C289.346,-97.2872 305.745,-95.6728 321.622,-94.1097"/>
<polygon fill="midnightblue" stroke="midnightblue" points="322.353,-97.5548 331.962,-93.0918 321.668,-90.5884 322.353,-97.5548"/>
</g>
<!-- Node8 -->
<g id="node8" class="node"><title>Node8</title>
<g id="a_node8"><a xlink:href="../../d6/d95/classparser_1_1_parser.html#ad5386cfbaf84af60512e31503fda19ed" target="_top" xlink:title="parser.Parser.makeNode">
<polygon fill="white" stroke="black" points="338,-38.5 338,-57.5 472,-57.5 472,-38.5 338,-38.5"/>
<text text-anchor="middle" x="405" y="-45.5" font-family="Helvetica,sans-Serif" font-size="10.00">parser.Parser.makeNode</text>
</a>
</g>
</g>
<!-- Node2&#45;&gt;Node8 -->
<g id="edge9" class="edge"><title>Node2&#45;&gt;Node8</title>
<path fill="none" stroke="midnightblue" d="M232.66,-95.4795C252.48,-87.0594 282.776,-74.916 310,-67 319.255,-64.3089 329.131,-61.8632 338.875,-59.6897"/>
<polygon fill="midnightblue" stroke="midnightblue" points="339.907,-63.0478 348.948,-57.5243 338.436,-56.2041 339.907,-63.0478"/>
</g>
<!-- Node10 -->
<g id="node10" class="node"><title>Node10</title>
<g id="a_node10"><a xlink:href="../../d7/d35/classcommand_1_1_command.html#ac2df873d4926bc6e08dba8c6272cff7e" target="_top" xlink:title="command.Command.toString">
<polygon fill="white" stroke="black" points="325,-0.5 325,-19.5 485,-19.5 485,-0.5 325,-0.5"/>
<text text-anchor="middle" x="405" y="-7.5" font-family="Helvetica,sans-Serif" font-size="10.00">command.Command.toString</text>
</a>
</g>
</g>
<!-- Node2&#45;&gt;Node10 -->
<g id="edge11" class="edge"><title>Node2&#45;&gt;Node10</title>
<path fill="none" stroke="midnightblue" d="M220.396,-95.3334C236.912,-78.9513 272.923,-45.8734 310,-29 315.437,-26.5259 321.195,-24.3721 327.079,-22.4974"/>
<polygon fill="midnightblue" stroke="midnightblue" points="328.437,-25.7478 337.065,-19.5987 326.486,-19.0253 328.437,-25.7478"/>
</g>
<!-- Node5&#45;&gt;Node4 -->
<g id="edge7" class="edge"><title>Node5&#45;&gt;Node4</title>
<path fill="none" stroke="midnightblue" d="M500.218,-124C574.031,-124 675.64,-124 745.87,-124"/>
<polygon fill="midnightblue" stroke="midnightblue" points="745.997,-127.5 755.997,-124 745.997,-120.5 745.997,-127.5"/>
</g>
<!-- Node6 -->
<g id="node6" class="node"><title>Node6</title>
<g id="a_node6"><a xlink:href="../../d7/d35/classcommand_1_1_command.html#a30463654f906e5bcf507ab33bd5d8bff" target="_top" xlink:title="command.Command.checkListExit">
<polygon fill="white" stroke="black" points="536.5,-76.5 536.5,-95.5 719.5,-95.5 719.5,-76.5 536.5,-76.5"/>
<text text-anchor="middle" x="628" y="-83.5" font-family="Helvetica,sans-Serif" font-size="10.00">command.Command.checkListExit</text>
</a>
</g>
</g>
<!-- Node5&#45;&gt;Node6 -->
<g id="edge5" class="edge"><title>Node5&#45;&gt;Node6</title>
<path fill="none" stroke="midnightblue" d="M461.482,-114.46C491.826,-109.243 529.6,-102.747 561.398,-97.28"/>
<polygon fill="midnightblue" stroke="midnightblue" points="562.233,-100.688 571.495,-95.5439 561.046,-93.7892 562.233,-100.688"/>
</g>
<!-- Node6&#45;&gt;Node4 -->
<g id="edge6" class="edge"><title>Node6&#45;&gt;Node4</title>
<path fill="none" stroke="midnightblue" d="M678.708,-95.54C705.541,-100.69 738.859,-107.084 767.113,-112.506"/>
<polygon fill="midnightblue" stroke="midnightblue" points="766.791,-116.009 777.271,-114.456 768.11,-109.134 766.791,-116.009"/>
</g>
<!-- Node9 -->
<g id="node9" class="node"><title>Node9</title>
<g id="a_node9"><a xlink:href="../../d1/dd5/classparser_1_1_command_factory.html#a6907bbeefbe406c17766a1e350fc359f" target="_top" xlink:title="parser.CommandFactory.create\lCommand">
<polygon fill="white" stroke="black" points="544.5,-27 544.5,-57 711.5,-57 711.5,-27 544.5,-27"/>
<text text-anchor="start" x="552.5" y="-45" font-family="Helvetica,sans-Serif" font-size="10.00">parser.CommandFactory.create</text>
<text text-anchor="middle" x="628" y="-34" font-family="Helvetica,sans-Serif" font-size="10.00">Command</text>
</a>
</g>
</g>
<!-- Node8&#45;&gt;Node9 -->
<g id="edge10" class="edge"><title>Node8&#45;&gt;Node9</title>
<path fill="none" stroke="midnightblue" d="M472.008,-46.2079C491.573,-45.6767 513.373,-45.0849 534.298,-44.5168"/>
<polygon fill="midnightblue" stroke="midnightblue" points="534.585,-48.0104 544.486,-44.2402 534.395,-41.013 534.585,-48.0104"/>
</g>
</g>
</svg>
