<?xml version="1.0" encoding="UTF-8" standalone="no"?>
<!DOCTYPE svg PUBLIC "-//W3C//DTD SVG 1.1//EN"
 "http://www.w3.org/Graphics/SVG/1.1/DTD/svg11.dtd">
<!-- Generated by graphviz version 2.36.0 (20140111.2315)
 -->
<!-- Title: parser.Parser.makeTree Pages: 1 -->
<svg width="762pt" height="218pt"
 viewBox="0.00 0.00 762.00 218.00" xmlns="http://www.w3.org/2000/svg" xmlns:xlink="http://www.w3.org/1999/xlink">
<g id="graph0" class="graph" transform="scale(1 1) rotate(0) translate(4 214)">
<title>parser.Parser.makeTree</title>
<polygon fill="white" stroke="none" points="-4,4 -4,-214 758,-214 758,4 -4,4"/>
<!-- Node1 -->
<g id="node1" class="node"><title>Node1</title>
<polygon fill="#bfbfbf" stroke="black" points="0,-95.5 0,-114.5 128,-114.5 128,-95.5 0,-95.5"/>
<text text-anchor="middle" x="64" y="-102.5" font-family="Helvetica,sans-Serif" font-size="10.00">parser.Parser.makeTree</text>
</g>
<!-- Node2 -->
<g id="node2" class="node"><title>Node2</title>
<g id="a_node2"><a xlink:href="../../d3/dcc/classparser_1_1_node.html#ae9a17458b710c179f741464ca6e9048a" target="_top" xlink:title="parser.Node.addChild">
<polygon fill="white" stroke="black" points="199.5,-190.5 199.5,-209.5 318.5,-209.5 318.5,-190.5 199.5,-190.5"/>
<text text-anchor="middle" x="259" y="-197.5" font-family="Helvetica,sans-Serif" font-size="10.00">parser.Node.addChild</text>
</a>
</g>
</g>
<!-- Node1&#45;&gt;Node2 -->
<g id="edge1" class="edge"><title>Node1&#45;&gt;Node2</title>
<path fill="none" stroke="midnightblue" d="M75.4368,-114.541C92.6259,-129.754 128.533,-159.473 164,-176 174.052,-180.684 185.152,-184.546 196.095,-187.7"/>
<polygon fill="midnightblue" stroke="midnightblue" points="195.5,-191.164 206.067,-190.4 197.329,-184.408 195.5,-191.164"/>
</g>
<!-- Node3 -->
<g id="node3" class="node"><title>Node3</title>
<g id="a_node3"><a xlink:href="../../d3/dcc/classparser_1_1_node.html#a7dfaaf7e60998705460f304c5d56ca6f" target="_top" xlink:title="parser.Node.getCommand">
<polygon fill="white" stroke="black" points="610,-114.5 610,-133.5 754,-133.5 754,-114.5 610,-114.5"/>
<text text-anchor="middle" x="682" y="-121.5" font-family="Helvetica,sans-Serif" font-size="10.00">parser.Node.getCommand</text>
</a>
</g>
</g>
<!-- Node1&#45;&gt;Node3 -->
<g id="edge2" class="edge"><title>Node1&#45;&gt;Node3</title>
<path fill="none" stroke="midnightblue" d="M83.7412,-114.584C103.213,-123.961 134.856,-137.599 164,-143 325.421,-172.916 519.893,-150.427 617.931,-135.115"/>
<polygon fill="midnightblue" stroke="midnightblue" points="618.645,-138.546 627.971,-133.519 617.546,-131.632 618.645,-138.546"/>
</g>
<!-- Node4 -->
<g id="node4" class="node"><title>Node4</title>
<g id="a_node4"><a xlink:href="../../d7/d35/classcommand_1_1_command.html#a81d128e8b4ac11d732d24edcbc5c2a88" target="_top" xlink:title="command.Command.getNumInputs">
<polygon fill="white" stroke="black" points="164,-114.5 164,-133.5 354,-133.5 354,-114.5 164,-114.5"/>
<text text-anchor="middle" x="259" y="-121.5" font-family="Helvetica,sans-Serif" font-size="10.00">command.Command.getNumInputs</text>
</a>
</g>
</g>
<!-- Node1&#45;&gt;Node4 -->
<g id="edge3" class="edge"><title>Node1&#45;&gt;Node4</title>
<path fill="none" stroke="midnightblue" d="M128.195,-111.221C136.413,-112.03 144.998,-112.875 153.668,-113.729"/>
<polygon fill="midnightblue" stroke="midnightblue" points="153.573,-117.236 163.868,-114.733 154.259,-110.27 153.573,-117.236"/>
</g>
<!-- Node6 -->
<g id="node6" class="node"><title>Node6</title>
<g id="a_node6"><a xlink:href="../../d7/d35/classcommand_1_1_command.html#ab994c7989255741306855f258b1c2191" target="_top" xlink:title="command.Command.isList">
<polygon fill="white" stroke="black" points="186,-76.5 186,-95.5 332,-95.5 332,-76.5 186,-76.5"/>
<text text-anchor="middle" x="259" y="-83.5" font-family="Helvetica,sans-Serif" font-size="10.00">command.Command.isList</text>
</a>
</g>
</g>
<!-- Node1&#45;&gt;Node6 -->
<g id="edge7" class="edge"><title>Node1&#45;&gt;Node6</title>
<path fill="none" stroke="midnightblue" d="M128.195,-98.7787C143.346,-97.2872 159.745,-95.6728 175.622,-94.1097"/>
<polygon fill="midnightblue" stroke="midnightblue" points="176.353,-97.5548 185.962,-93.0918 175.668,-90.5884 176.353,-97.5548"/>
</g>
<!-- Node7 -->
<g id="node7" class="node"><title>Node7</title>
<g id="a_node7"><a xlink:href="../../d6/d95/classparser_1_1_parser.html#ad5386cfbaf84af60512e31503fda19ed" target="_top" xlink:title="parser.Parser.makeNode">
<polygon fill="white" stroke="black" points="192,-38.5 192,-57.5 326,-57.5 326,-38.5 192,-38.5"/>
<text text-anchor="middle" x="259" y="-45.5" font-family="Helvetica,sans-Serif" font-size="10.00">parser.Parser.makeNode</text>
</a>
</g>
</g>
<!-- Node1&#45;&gt;Node7 -->
<g id="edge8" class="edge"><title>Node1&#45;&gt;Node7</title>
<path fill="none" stroke="midnightblue" d="M86.6597,-95.4795C106.48,-87.0594 136.776,-74.916 164,-67 173.255,-64.3089 183.131,-61.8632 192.875,-59.6897"/>
<polygon fill="midnightblue" stroke="midnightblue" points="193.907,-63.0478 202.948,-57.5243 192.436,-56.2041 193.907,-63.0478"/>
</g>
<!-- Node9 -->
<g id="node9" class="node"><title>Node9</title>
<g id="a_node9"><a xlink:href="../../d7/d35/classcommand_1_1_command.html#ac2df873d4926bc6e08dba8c6272cff7e" target="_top" xlink:title="command.Command.toString">
<polygon fill="white" stroke="black" points="179,-0.5 179,-19.5 339,-19.5 339,-0.5 179,-0.5"/>
<text text-anchor="middle" x="259" y="-7.5" font-family="Helvetica,sans-Serif" font-size="10.00">command.Command.toString</text>
</a>
</g>
</g>
<!-- Node1&#45;&gt;Node9 -->
<g id="edge10" class="edge"><title>Node1&#45;&gt;Node9</title>
<path fill="none" stroke="midnightblue" d="M74.3964,-95.3334C90.9115,-78.9513 126.923,-45.8734 164,-29 169.437,-26.5259 175.195,-24.3721 181.079,-22.4974"/>
<polygon fill="midnightblue" stroke="midnightblue" points="182.437,-25.7478 191.065,-19.5987 180.486,-19.0253 182.437,-25.7478"/>
</g>
<!-- Node4&#45;&gt;Node3 -->
<g id="edge6" class="edge"><title>Node4&#45;&gt;Node3</title>
<path fill="none" stroke="midnightblue" d="M354.218,-124C428.031,-124 529.64,-124 599.87,-124"/>
<polygon fill="midnightblue" stroke="midnightblue" points="599.997,-127.5 609.997,-124 599.997,-120.5 599.997,-127.5"/>
</g>
<!-- Node5 -->
<g id="node5" class="node"><title>Node5</title>
<g id="a_node5"><a xlink:href="../../d7/d35/classcommand_1_1_command.html#a30463654f906e5bcf507ab33bd5d8bff" target="_top" xlink:title="command.Command.checkListExit">
<polygon fill="white" stroke="black" points="390.5,-76.5 390.5,-95.5 573.5,-95.5 573.5,-76.5 390.5,-76.5"/>
<text text-anchor="middle" x="482" y="-83.5" font-family="Helvetica,sans-Serif" font-size="10.00">command.Command.checkListExit</text>
</a>
</g>
</g>
<!-- Node4&#45;&gt;Node5 -->
<g id="edge4" class="edge"><title>Node4&#45;&gt;Node5</title>
<path fill="none" stroke="midnightblue" d="M315.482,-114.46C345.826,-109.243 383.6,-102.747 415.398,-97.28"/>
<polygon fill="midnightblue" stroke="midnightblue" points="416.233,-100.688 425.495,-95.5439 415.046,-93.7892 416.233,-100.688"/>
</g>
<!-- Node5&#45;&gt;Node3 -->
<g id="edge5" class="edge"><title>Node5&#45;&gt;Node3</title>
<path fill="none" stroke="midnightblue" d="M532.708,-95.54C559.541,-100.69 592.859,-107.084 621.113,-112.506"/>
<polygon fill="midnightblue" stroke="midnightblue" points="620.791,-116.009 631.271,-114.456 622.11,-109.134 620.791,-116.009"/>
</g>
<!-- Node8 -->
<g id="node8" class="node"><title>Node8</title>
<g id="a_node8"><a xlink:href="../../d1/dd5/classparser_1_1_command_factory.html#a6907bbeefbe406c17766a1e350fc359f" target="_top" xlink:title="parser.CommandFactory.create\lCommand">
<polygon fill="white" stroke="black" points="398.5,-27 398.5,-57 565.5,-57 565.5,-27 398.5,-27"/>
<text text-anchor="start" x="406.5" y="-45" font-family="Helvetica,sans-Serif" font-size="10.00">parser.CommandFactory.create</text>
<text text-anchor="middle" x="482" y="-34" font-family="Helvetica,sans-Serif" font-size="10.00">Command</text>
</a>
</g>
</g>
<!-- Node7&#45;&gt;Node8 -->
<g id="edge9" class="edge"><title>Node7&#45;&gt;Node8</title>
<path fill="none" stroke="midnightblue" d="M326.008,-46.2079C345.573,-45.6767 367.373,-45.0849 388.298,-44.5168"/>
<polygon fill="midnightblue" stroke="midnightblue" points="388.585,-48.0104 398.486,-44.2402 388.395,-41.013 388.585,-48.0104"/>
</g>
</g>
</svg>
