<?xml version="1.0" encoding="UTF-8" standalone="no"?>
<!DOCTYPE svg PUBLIC "-//W3C//DTD SVG 1.1//EN"
 "http://www.w3.org/Graphics/SVG/1.1/DTD/svg11.dtd">
<!-- Generated by graphviz version 2.36.0 (20140111.2315)
 -->
<!-- Title: parser.Parser.makeNode Pages: 1 -->
<svg width="1440pt" height="980pt"
 viewBox="0.00 0.00 1440.00 980.00" xmlns="http://www.w3.org/2000/svg" xmlns:xlink="http://www.w3.org/1999/xlink">
<g id="graph0" class="graph" transform="scale(1 1) rotate(0) translate(4 976)">
<title>parser.Parser.makeNode</title>
<polygon fill="white" stroke="none" points="-4,4 -4,-976 1436,-976 1436,4 -4,4"/>
<!-- Node1 -->
<g id="node1" class="node"><title>Node1</title>
<polygon fill="#bfbfbf" stroke="black" points="0,-418.5 0,-437.5 134,-437.5 134,-418.5 0,-418.5"/>
<text text-anchor="middle" x="67" y="-425.5" font-family="Helvetica,sans-Serif" font-size="10.00">parser.Parser.makeNode</text>
</g>
<!-- Node2 -->
<g id="node2" class="node"><title>Node2</title>
<g id="a_node2"><a xlink:href="../../d6/d95/classparser_1_1_parser.html#a2fe30e8a728e36fd2626587f059c4b95" target="_top" xlink:title="parser.Parser.makeTree">
<polygon fill="white" stroke="black" points="170,-418.5 170,-437.5 298,-437.5 298,-418.5 170,-418.5"/>
<text text-anchor="middle" x="234" y="-425.5" font-family="Helvetica,sans-Serif" font-size="10.00">parser.Parser.makeTree</text>
</a>
</g>
</g>
<!-- Node1&#45;&gt;Node2 -->
<g id="edge1" class="edge"><title>Node1&#45;&gt;Node2</title>
<path fill="none" stroke="midnightblue" d="M144.437,-428C152.917,-428 161.482,-428 169.773,-428"/>
<polygon fill="midnightblue" stroke="midnightblue" points="144.161,-424.5 134.161,-428 144.161,-431.5 144.161,-424.5"/>
</g>
<!-- Node3 -->
<g id="node3" class="node"><title>Node3</title>
<g id="a_node3"><a xlink:href="../../d6/d95/classparser_1_1_parser.html#a5e98fdfffe49478864dc1b22371d6cb1" target="_top" xlink:title="parser.Parser.parse">
<polygon fill="white" stroke="black" points="334.5,-418.5 334.5,-437.5 443.5,-437.5 443.5,-418.5 334.5,-418.5"/>
<text text-anchor="middle" x="389" y="-425.5" font-family="Helvetica,sans-Serif" font-size="10.00">parser.Parser.parse</text>
</a>
</g>
</g>
<!-- Node2&#45;&gt;Node3 -->
<g id="edge2" class="edge"><title>Node2&#45;&gt;Node3</title>
<path fill="none" stroke="midnightblue" d="M308.335,-428C317.087,-428 325.894,-428 334.297,-428"/>
<polygon fill="midnightblue" stroke="midnightblue" points="308.114,-424.5 298.114,-428 308.114,-431.5 308.114,-424.5"/>
</g>
<!-- Node4 -->
<g id="node4" class="node"><title>Node4</title>
<g id="a_node4"><a xlink:href="../../d7/da1/classmain_application_1_1_controller.html#a6e9afc2e53e6adb01a2b73794a319b63" target="_top" xlink:title="mainApplication.Controller.parse\lAndEvaluate">
<polygon fill="white" stroke="black" points="480,-849 480,-879 652,-879 652,-849 480,-849"/>
<text text-anchor="start" x="488" y="-867" font-family="Helvetica,sans-Serif" font-size="10.00">mainApplication.Controller.parse</text>
<text text-anchor="middle" x="566" y="-856" font-family="Helvetica,sans-Serif" font-size="10.00">AndEvaluate</text>
</a>
</g>
</g>
<!-- Node3&#45;&gt;Node4 -->
<g id="edge3" class="edge"><title>Node3&#45;&gt;Node4</title>
<path fill="none" stroke="midnightblue" d="M391.698,-447.815C398.424,-521.79 425.521,-780.54 480,-839 483.565,-842.826 487.683,-846.077 492.144,-848.838"/>
<polygon fill="midnightblue" stroke="midnightblue" points="395.161,-447.241 390.793,-437.588 388.188,-447.858 395.161,-447.241"/>
</g>
<!-- Node14 -->
<g id="node14" class="node"><title>Node14</title>
<g id="a_node14"><a xlink:href="../../d8/dc3/classparser_1_1_test_model.html#ab542659caca299017b423f7b3b3f648a" target="_top" xlink:title="parser.TestModel.testPosition">
<polygon fill="white" stroke="black" points="488,-810.5 488,-829.5 644,-829.5 644,-810.5 488,-810.5"/>
<text text-anchor="middle" x="566" y="-817.5" font-family="Helvetica,sans-Serif" font-size="10.00">parser.TestModel.testPosition</text>
</a>
</g>
</g>
<!-- Node3&#45;&gt;Node14 -->
<g id="edge16" class="edge"><title>Node3&#45;&gt;Node14</title>
<path fill="none" stroke="midnightblue" d="M392.077,-447.805C399.772,-517.389 428.88,-749.2 480,-800 484.301,-804.274 489.334,-807.701 494.764,-810.441"/>
<polygon fill="midnightblue" stroke="midnightblue" points="395.545,-447.318 390.991,-437.752 388.586,-448.07 395.545,-447.318"/>
</g>
<!-- Node15 -->
<g id="node15" class="node"><title>Node15</title>
<g id="a_node15"><a xlink:href="../../d8/dc3/classparser_1_1_test_model.html#ac4fd1124818e321c4a686cc1cf973254" target="_top" xlink:title="parser.TestModel.testParse\lException">
<polygon fill="white" stroke="black" points="493.5,-761 493.5,-791 638.5,-791 638.5,-761 493.5,-761"/>
<text text-anchor="start" x="501.5" y="-779" font-family="Helvetica,sans-Serif" font-size="10.00">parser.TestModel.testParse</text>
<text text-anchor="middle" x="566" y="-768" font-family="Helvetica,sans-Serif" font-size="10.00">Exception</text>
</a>
</g>
</g>
<!-- Node3&#45;&gt;Node15 -->
<g id="edge17" class="edge"><title>Node3&#45;&gt;Node15</title>
<path fill="none" stroke="midnightblue" d="M389.351,-447.802C388.644,-503.708 394.537,-664.305 480,-751 483.888,-754.944 488.363,-758.272 493.183,-761.081"/>
<polygon fill="midnightblue" stroke="midnightblue" points="392.856,-447.6 389.576,-437.526 385.858,-447.447 392.856,-447.6"/>
</g>
<!-- Node16 -->
<g id="node16" class="node"><title>Node16</title>
<g id="a_node16"><a xlink:href="../../d8/dc3/classparser_1_1_test_model.html#a023bd16aca0a843ec8f4772c96ec2ffb" target="_top" xlink:title="parser.TestModel.testWrite">
<polygon fill="white" stroke="black" points="495,-722.5 495,-741.5 637,-741.5 637,-722.5 495,-722.5"/>
<text text-anchor="middle" x="566" y="-729.5" font-family="Helvetica,sans-Serif" font-size="10.00">parser.TestModel.testWrite</text>
</a>
</g>
</g>
<!-- Node3&#45;&gt;Node16 -->
<g id="edge18" class="edge"><title>Node3&#45;&gt;Node16</title>
<path fill="none" stroke="midnightblue" d="M389.94,-447.803C390.919,-499.695 401.091,-640.599 480,-713 484.345,-716.987 489.339,-720.2 494.684,-722.783"/>
<polygon fill="midnightblue" stroke="midnightblue" points="393.438,-447.594 389.849,-437.625 386.438,-447.656 393.438,-447.594"/>
</g>
<!-- Node17 -->
<g id="node17" class="node"><title>Node17</title>
<g id="a_node17"><a xlink:href="../../de/d33/classparser_1_1_test_parser.html#a2211bce31efddb4c523112a488c02e92" target="_top" xlink:title="parser.TestParser.TestSum">
<polygon fill="white" stroke="black" points="495,-684.5 495,-703.5 637,-703.5 637,-684.5 495,-684.5"/>
<text text-anchor="middle" x="566" y="-691.5" font-family="Helvetica,sans-Serif" font-size="10.00">parser.TestParser.TestSum</text>
</a>
</g>
</g>
<!-- Node3&#45;&gt;Node17 -->
<g id="edge19" class="edge"><title>Node3&#45;&gt;Node17</title>
<path fill="none" stroke="midnightblue" d="M391.036,-447.668C394.618,-494.631 410.461,-613.93 480,-675 484.431,-678.891 489.485,-682.038 494.869,-684.577"/>
<polygon fill="midnightblue" stroke="midnightblue" points="394.522,-447.35 390.376,-437.6 387.537,-447.807 394.522,-447.35"/>
</g>
<!-- Node18 -->
<g id="node18" class="node"><title>Node18</title>
<g id="a_node18"><a xlink:href="../../de/d33/classparser_1_1_test_parser.html#ae799f71307e31127e497d20afdc506ec" target="_top" xlink:title="parser.TestParser.TestDif">
<polygon fill="white" stroke="black" points="500,-646.5 500,-665.5 632,-665.5 632,-646.5 500,-646.5"/>
<text text-anchor="middle" x="566" y="-653.5" font-family="Helvetica,sans-Serif" font-size="10.00">parser.TestParser.TestDif</text>
</a>
</g>
</g>
<!-- Node3&#45;&gt;Node18 -->
<g id="edge20" class="edge"><title>Node3&#45;&gt;Node18</title>
<path fill="none" stroke="midnightblue" d="M392.505,-447.726C398.901,-489.496 419.816,-587.121 480,-637 485.821,-641.824 492.611,-645.489 499.769,-648.263"/>
<polygon fill="midnightblue" stroke="midnightblue" points="395.957,-447.137 391.093,-437.725 389.026,-448.116 395.957,-447.137"/>
</g>
<!-- Node19 -->
<g id="node19" class="node"><title>Node19</title>
<g id="a_node19"><a xlink:href="../../de/d33/classparser_1_1_test_parser.html#a8844bf15d0fe9e809fb466cb35b0ae20" target="_top" xlink:title="parser.TestParser.TestProd">
<polygon fill="white" stroke="black" points="495.5,-608.5 495.5,-627.5 636.5,-627.5 636.5,-608.5 495.5,-608.5"/>
<text text-anchor="middle" x="566" y="-615.5" font-family="Helvetica,sans-Serif" font-size="10.00">parser.TestParser.TestProd</text>
</a>
</g>
</g>
<!-- Node3&#45;&gt;Node19 -->
<g id="edge21" class="edge"><title>Node3&#45;&gt;Node19</title>
<path fill="none" stroke="midnightblue" d="M394.453,-447.31C403.764,-483.142 428.81,-559.833 480,-599 485.044,-602.859 490.721,-605.964 496.687,-608.457"/>
<polygon fill="midnightblue" stroke="midnightblue" points="397.848,-446.46 392.056,-437.588 391.051,-448.135 397.848,-446.46"/>
</g>
<!-- Node20 -->
<g id="node20" class="node"><title>Node20</title>
<g id="a_node20"><a xlink:href="../../de/d33/classparser_1_1_test_parser.html#a9bcfbde1999d45577d42211fcd593121" target="_top" xlink:title="parser.TestParser.TestQuotient">
<polygon fill="white" stroke="black" points="485.5,-570.5 485.5,-589.5 646.5,-589.5 646.5,-570.5 485.5,-570.5"/>
<text text-anchor="middle" x="566" y="-577.5" font-family="Helvetica,sans-Serif" font-size="10.00">parser.TestParser.TestQuotient</text>
</a>
</g>
</g>
<!-- Node3&#45;&gt;Node20 -->
<g id="edge22" class="edge"><title>Node3&#45;&gt;Node20</title>
<path fill="none" stroke="midnightblue" d="M397.399,-447.045C409.817,-476.372 437.722,-532.207 480,-561 485.624,-564.83 491.897,-567.901 498.418,-570.361"/>
<polygon fill="midnightblue" stroke="midnightblue" points="400.54,-445.48 393.526,-437.539 394.057,-448.12 400.54,-445.48"/>
</g>
<!-- Node21 -->
<g id="node21" class="node"><title>Node21</title>
<g id="a_node21"><a xlink:href="../../de/d33/classparser_1_1_test_parser.html#acd110a622f9ac5ef4b4246ea997ec102" target="_top" xlink:title="parser.TestParser.TestRemainder">
<polygon fill="white" stroke="black" points="481,-532.5 481,-551.5 651,-551.5 651,-532.5 481,-532.5"/>
<text text-anchor="middle" x="566" y="-539.5" font-family="Helvetica,sans-Serif" font-size="10.00">parser.TestParser.TestRemainder</text>
</a>
</g>
</g>
<!-- Node3&#45;&gt;Node21 -->
<g id="edge23" class="edge"><title>Node3&#45;&gt;Node21</title>
<path fill="none" stroke="midnightblue" d="M401.867,-445.933C417.238,-467.669 446.113,-503.77 480,-523 486.839,-526.881 494.406,-529.969 502.124,-532.426"/>
<polygon fill="midnightblue" stroke="midnightblue" points="404.68,-443.846 396.132,-437.588 398.912,-447.811 404.68,-443.846"/>
</g>
<!-- Node22 -->
<g id="node22" class="node"><title>Node22</title>
<g id="a_node22"><a xlink:href="../../de/d33/classparser_1_1_test_parser.html#af2b64ced840e8e10f33f74dce480218a" target="_top" xlink:title="parser.TestParser.TestMinus">
<polygon fill="white" stroke="black" points="492.5,-494.5 492.5,-513.5 639.5,-513.5 639.5,-494.5 492.5,-494.5"/>
<text text-anchor="middle" x="566" y="-501.5" font-family="Helvetica,sans-Serif" font-size="10.00">parser.TestParser.TestMinus</text>
</a>
</g>
</g>
<!-- Node3&#45;&gt;Node22 -->
<g id="edge24" class="edge"><title>Node3&#45;&gt;Node22</title>
<path fill="none" stroke="midnightblue" d="M410.371,-443.802C427.916,-456.678 454.386,-474.404 480,-485 489.222,-488.815 499.339,-491.926 509.276,-494.442"/>
<polygon fill="midnightblue" stroke="midnightblue" points="412.163,-440.771 402.062,-437.575 407.965,-446.373 412.163,-440.771"/>
</g>
<!-- Node23 -->
<g id="node23" class="node"><title>Node23</title>
<g id="a_node23"><a xlink:href="../../de/d33/classparser_1_1_test_parser.html#ac13478be4d51a5b8db30db117f6098c8" target="_top" xlink:title="parser.TestParser.TestRandom">
<polygon fill="white" stroke="black" points="486.5,-456.5 486.5,-475.5 645.5,-475.5 645.5,-456.5 486.5,-456.5"/>
<text text-anchor="middle" x="566" y="-463.5" font-family="Helvetica,sans-Serif" font-size="10.00">parser.TestParser.TestRandom</text>
</a>
</g>
</g>
<!-- Node3&#45;&gt;Node23 -->
<g id="edge25" class="edge"><title>Node3&#45;&gt;Node23</title>
<path fill="none" stroke="midnightblue" d="M444.124,-439.753C468.869,-445.126 497.803,-451.409 521.158,-456.48"/>
<polygon fill="midnightblue" stroke="midnightblue" points="444.675,-436.291 434.16,-437.589 443.189,-443.131 444.675,-436.291"/>
</g>
<!-- Node24 -->
<g id="node24" class="node"><title>Node24</title>
<g id="a_node24"><a xlink:href="../../de/d33/classparser_1_1_test_parser.html#aa7724ec4a132ca195c3bd3ee1c81ad73" target="_top" xlink:title="parser.TestParser.TestTrig">
<polygon fill="white" stroke="black" points="498.5,-418.5 498.5,-437.5 633.5,-437.5 633.5,-418.5 498.5,-418.5"/>
<text text-anchor="middle" x="566" y="-425.5" font-family="Helvetica,sans-Serif" font-size="10.00">parser.TestParser.TestTrig</text>
</a>
</g>
</g>
<!-- Node3&#45;&gt;Node24 -->
<g id="edge26" class="edge"><title>Node3&#45;&gt;Node24</title>
<path fill="none" stroke="midnightblue" d="M454.204,-428C468.562,-428 483.822,-428 498.279,-428"/>
<polygon fill="midnightblue" stroke="midnightblue" points="453.934,-424.5 443.934,-428 453.934,-431.5 453.934,-424.5"/>
</g>
<!-- Node25 -->
<g id="node25" class="node"><title>Node25</title>
<g id="a_node25"><a xlink:href="../../de/d33/classparser_1_1_test_parser.html#ada92f24240fae7dfec207bad127e31e7" target="_top" xlink:title="parser.TestParser.TestPow">
<polygon fill="white" stroke="black" points="497,-380.5 497,-399.5 635,-399.5 635,-380.5 497,-380.5"/>
<text text-anchor="middle" x="566" y="-387.5" font-family="Helvetica,sans-Serif" font-size="10.00">parser.TestParser.TestPow</text>
</a>
</g>
</g>
<!-- Node3&#45;&gt;Node25 -->
<g id="edge27" class="edge"><title>Node3&#45;&gt;Node25</title>
<path fill="none" stroke="midnightblue" d="M444.124,-416.247C468.869,-410.874 497.803,-404.591 521.158,-399.52"/>
<polygon fill="midnightblue" stroke="midnightblue" points="443.189,-412.869 434.16,-418.411 444.675,-419.709 443.189,-412.869"/>
</g>
<!-- Node26 -->
<g id="node26" class="node"><title>Node26</title>
<g id="a_node26"><a xlink:href="../../de/d33/classparser_1_1_test_parser.html#a3f8cee68556948d08c53a574a72c8356" target="_top" xlink:title="parser.TestParser.TestBoolean">
<polygon fill="white" stroke="black" points="487,-342.5 487,-361.5 645,-361.5 645,-342.5 487,-342.5"/>
<text text-anchor="middle" x="566" y="-349.5" font-family="Helvetica,sans-Serif" font-size="10.00">parser.TestParser.TestBoolean</text>
</a>
</g>
</g>
<!-- Node3&#45;&gt;Node26 -->
<g id="edge28" class="edge"><title>Node3&#45;&gt;Node26</title>
<path fill="none" stroke="midnightblue" d="M410.371,-412.198C427.916,-399.322 454.386,-381.596 480,-371 489.222,-367.185 499.339,-364.074 509.276,-361.558"/>
<polygon fill="midnightblue" stroke="midnightblue" points="407.965,-409.627 402.062,-418.425 412.163,-415.229 407.965,-409.627"/>
</g>
<!-- Node27 -->
<g id="node27" class="node"><title>Node27</title>
<g id="a_node27"><a xlink:href="../../de/d33/classparser_1_1_test_parser.html#a39be8e4aca3871ce6f29a482a52bcd71" target="_top" xlink:title="parser.TestParser.TestIf">
<polygon fill="white" stroke="black" points="503.5,-304.5 503.5,-323.5 628.5,-323.5 628.5,-304.5 503.5,-304.5"/>
<text text-anchor="middle" x="566" y="-311.5" font-family="Helvetica,sans-Serif" font-size="10.00">parser.TestParser.TestIf</text>
</a>
</g>
</g>
<!-- Node3&#45;&gt;Node27 -->
<g id="edge29" class="edge"><title>Node3&#45;&gt;Node27</title>
<path fill="none" stroke="midnightblue" d="M401.867,-410.067C417.238,-388.331 446.113,-352.23 480,-333 487.233,-328.895 495.282,-325.677 503.461,-323.155"/>
<polygon fill="midnightblue" stroke="midnightblue" points="398.912,-408.189 396.132,-418.412 404.68,-412.154 398.912,-408.189"/>
</g>
<!-- Node28 -->
<g id="node28" class="node"><title>Node28</title>
<g id="a_node28"><a xlink:href="../../de/d33/classparser_1_1_test_parser.html#ac22ad278ed612557e83ed90884fedff4" target="_top" xlink:title="parser.TestParser.TestIfElse">
<polygon fill="white" stroke="black" points="494,-266.5 494,-285.5 638,-285.5 638,-266.5 494,-266.5"/>
<text text-anchor="middle" x="566" y="-273.5" font-family="Helvetica,sans-Serif" font-size="10.00">parser.TestParser.TestIfElse</text>
</a>
</g>
</g>
<!-- Node3&#45;&gt;Node28 -->
<g id="edge30" class="edge"><title>Node3&#45;&gt;Node28</title>
<path fill="none" stroke="midnightblue" d="M397.399,-408.955C409.817,-379.628 437.722,-323.793 480,-295 485.624,-291.17 491.897,-288.099 498.418,-285.639"/>
<polygon fill="midnightblue" stroke="midnightblue" points="394.057,-407.88 393.526,-418.461 400.54,-410.52 394.057,-407.88"/>
</g>
<!-- Node29 -->
<g id="node29" class="node"><title>Node29</title>
<g id="a_node29"><a xlink:href="../../de/d33/classparser_1_1_test_parser.html#aac27b9d8c48ae78dd9252dd65be9aeea" target="_top" xlink:title="parser.TestParser.TestSum2">
<polygon fill="white" stroke="black" points="492,-228.5 492,-247.5 640,-247.5 640,-228.5 492,-228.5"/>
<text text-anchor="middle" x="566" y="-235.5" font-family="Helvetica,sans-Serif" font-size="10.00">parser.TestParser.TestSum2</text>
</a>
</g>
</g>
<!-- Node3&#45;&gt;Node29 -->
<g id="edge31" class="edge"><title>Node3&#45;&gt;Node29</title>
<path fill="none" stroke="midnightblue" d="M394.453,-408.69C403.764,-372.858 428.81,-296.167 480,-257 485.044,-253.141 490.721,-250.036 496.687,-247.543"/>
<polygon fill="midnightblue" stroke="midnightblue" points="391.051,-407.865 392.056,-418.412 397.848,-409.54 391.051,-407.865"/>
</g>
<!-- Node30 -->
<g id="node30" class="node"><title>Node30</title>
<g id="a_node30"><a xlink:href="../../de/d33/classparser_1_1_test_parser.html#a616e3d3359a2feaf24149915c6aea8c8" target="_top" xlink:title="parser.TestParser.TestForward">
<polygon fill="white" stroke="black" points="487.5,-190.5 487.5,-209.5 644.5,-209.5 644.5,-190.5 487.5,-190.5"/>
<text text-anchor="middle" x="566" y="-197.5" font-family="Helvetica,sans-Serif" font-size="10.00">parser.TestParser.TestForward</text>
</a>
</g>
</g>
<!-- Node3&#45;&gt;Node30 -->
<g id="edge32" class="edge"><title>Node3&#45;&gt;Node30</title>
<path fill="none" stroke="midnightblue" d="M392.505,-408.274C398.901,-366.504 419.816,-268.879 480,-219 484.657,-215.14 489.934,-212.023 495.523,-209.51"/>
<polygon fill="midnightblue" stroke="midnightblue" points="389.026,-407.884 391.093,-418.275 395.957,-408.863 389.026,-407.884"/>
</g>
<!-- Node31 -->
<g id="node31" class="node"><title>Node31</title>
<g id="a_node31"><a xlink:href="../../de/d33/classparser_1_1_test_parser.html#a914384055dd7ca9ea5c617ab0bb5e0c0" target="_top" xlink:title="parser.TestParser.TestMake">
<polygon fill="white" stroke="black" points="493.5,-152.5 493.5,-171.5 638.5,-171.5 638.5,-152.5 493.5,-152.5"/>
<text text-anchor="middle" x="566" y="-159.5" font-family="Helvetica,sans-Serif" font-size="10.00">parser.TestParser.TestMake</text>
</a>
</g>
</g>
<!-- Node3&#45;&gt;Node31 -->
<g id="edge33" class="edge"><title>Node3&#45;&gt;Node31</title>
<path fill="none" stroke="midnightblue" d="M391.036,-408.332C394.618,-361.369 410.461,-242.07 480,-181 484.317,-177.208 489.226,-174.124 494.455,-171.62"/>
<polygon fill="midnightblue" stroke="midnightblue" points="387.537,-408.193 390.376,-418.4 394.522,-408.65 387.537,-408.193"/>
</g>
<!-- Node32 -->
<g id="node32" class="node"><title>Node32</title>
<g id="a_node32"><a xlink:href="../../de/d33/classparser_1_1_test_parser.html#a7861269b842fcf079433cbe0a933e8db" target="_top" xlink:title="parser.TestParser.TestRepeat">
<polygon fill="white" stroke="black" points="490,-114.5 490,-133.5 642,-133.5 642,-114.5 490,-114.5"/>
<text text-anchor="middle" x="566" y="-121.5" font-family="Helvetica,sans-Serif" font-size="10.00">parser.TestParser.TestRepeat</text>
</a>
</g>
</g>
<!-- Node3&#45;&gt;Node32 -->
<g id="edge34" class="edge"><title>Node3&#45;&gt;Node32</title>
<path fill="none" stroke="midnightblue" d="M389.94,-408.197C390.919,-356.305 401.091,-215.401 480,-143 484.122,-139.218 488.829,-136.132 493.864,-133.62"/>
<polygon fill="midnightblue" stroke="midnightblue" points="386.438,-408.344 389.849,-418.375 393.438,-408.406 386.438,-408.344"/>
</g>
<!-- Node33 -->
<g id="node33" class="node"><title>Node33</title>
<g id="a_node33"><a xlink:href="../../de/d33/classparser_1_1_test_parser.html#ad6cc42523d881f5a69c5cf307364ce38" target="_top" xlink:title="parser.TestParser.TestFor">
<polygon fill="white" stroke="black" points="499,-76.5 499,-95.5 633,-95.5 633,-76.5 499,-76.5"/>
<text text-anchor="middle" x="566" y="-83.5" font-family="Helvetica,sans-Serif" font-size="10.00">parser.TestParser.TestFor</text>
</a>
</g>
</g>
<!-- Node3&#45;&gt;Node33 -->
<g id="edge35" class="edge"><title>Node3&#45;&gt;Node33</title>
<path fill="none" stroke="midnightblue" d="M392.806,-408.36C402.244,-345.045 434.8,-147.916 480,-105 485.373,-99.8983 491.804,-96.0535 498.69,-93.1714"/>
<polygon fill="midnightblue" stroke="midnightblue" points="389.343,-407.854 391.359,-418.256 396.269,-408.868 389.343,-407.854"/>
</g>
<!-- Node34 -->
<g id="node34" class="node"><title>Node34</title>
<g id="a_node34"><a xlink:href="../../de/d33/classparser_1_1_test_parser.html#a93efc93146678909fa1c24a6727460ae" target="_top" xlink:title="parser.TestParser.TestTo">
<polygon fill="white" stroke="black" points="501.5,-38.5 501.5,-57.5 630.5,-57.5 630.5,-38.5 501.5,-38.5"/>
<text text-anchor="middle" x="566" y="-45.5" font-family="Helvetica,sans-Serif" font-size="10.00">parser.TestParser.TestTo</text>
</a>
</g>
</g>
<!-- Node3&#45;&gt;Node34 -->
<g id="edge36" class="edge"><title>Node3&#45;&gt;Node34</title>
<path fill="none" stroke="midnightblue" d="M392.248,-407.886C400.325,-339.235 430.073,-115.722 480,-67 485.952,-61.1915 493.27,-57.0018 501.092,-54.0035"/>
<polygon fill="midnightblue" stroke="midnightblue" points="388.729,-407.848 391.064,-418.182 395.684,-408.647 388.729,-407.848"/>
</g>
<!-- Node35 -->
<g id="node35" class="node"><title>Node35</title>
<g id="a_node35"><a xlink:href="../../de/d33/classparser_1_1_test_parser.html#a3ab06721c75424d63da6d4380ae7ad5e" target="_top" xlink:title="parser.TestParser.TestRecursion">
<polygon fill="white" stroke="black" points="483.5,-0.5 483.5,-19.5 648.5,-19.5 648.5,-0.5 483.5,-0.5"/>
<text text-anchor="middle" x="566" y="-7.5" font-family="Helvetica,sans-Serif" font-size="10.00">parser.TestParser.TestRecursion</text>
</a>
</g>
</g>
<!-- Node3&#45;&gt;Node35 -->
<g id="edge37" class="edge"><title>Node3&#45;&gt;Node35</title>
<path fill="none" stroke="midnightblue" d="M391.71,-408.172C398.393,-335.309 425.135,-83.7589 480,-29 483.746,-25.2613 488.056,-22.1898 492.707,-19.6729"/>
<polygon fill="midnightblue" stroke="midnightblue" points="388.211,-408.003 390.808,-418.274 395.183,-408.625 388.211,-408.003"/>
</g>
<!-- Node5 -->
<g id="node5" class="node"><title>Node5</title>
<g id="a_node5"><a xlink:href="../../d3/d04/classmain_application_1_1_g_u_i_shell.html#af2f106fa7786f13ccc0202db53b559b9" target="_top" xlink:title="mainApplication.GUIShell.create\lOpenButton">
<polygon fill="white" stroke="black" points="1086,-942 1086,-972 1256,-972 1256,-942 1086,-942"/>
<text text-anchor="start" x="1094" y="-960" font-family="Helvetica,sans-Serif" font-size="10.00">mainApplication.GUIShell.create</text>
<text text-anchor="middle" x="1171" y="-949" font-family="Helvetica,sans-Serif" font-size="10.00">OpenButton</text>
</a>
</g>
</g>
<!-- Node4&#45;&gt;Node5 -->
<g id="edge4" class="edge"><title>Node4&#45;&gt;Node5</title>
<path fill="none" stroke="midnightblue" d="M593.276,-885.242C616.608,-902.723 652.428,-926.301 688,-937 822.541,-977.465 987.723,-973.487 1085.62,-965.935"/>
<polygon fill="midnightblue" stroke="midnightblue" points="595.337,-882.412 585.269,-879.113 591.082,-887.97 595.337,-882.412"/>
</g>
<!-- Node7 -->
<g id="node7" class="node"><title>Node7</title>
<g id="a_node7"><a xlink:href="../../d3/de0/classmain_application_1_1_g_u_i.html#a60b2e396c945ac173bfd82f207f42000" target="_top" xlink:title="mainApplication.GUI.initiate\lKeyPress">
<polygon fill="white" stroke="black" points="698.5,-898 698.5,-928 847.5,-928 847.5,-898 698.5,-898"/>
<text text-anchor="start" x="706.5" y="-916" font-family="Helvetica,sans-Serif" font-size="10.00">mainApplication.GUI.initiate</text>
<text text-anchor="middle" x="773" y="-905" font-family="Helvetica,sans-Serif" font-size="10.00">KeyPress</text>
</a>
</g>
</g>
<!-- Node4&#45;&gt;Node7 -->
<g id="edge6" class="edge"><title>Node4&#45;&gt;Node7</title>
<path fill="none" stroke="midnightblue" d="M639.812,-881.404C662.49,-886.824 687.289,-892.752 709.219,-897.994"/>
<polygon fill="midnightblue" stroke="midnightblue" points="640.44,-877.955 629.9,-879.035 638.812,-884.764 640.44,-877.955"/>
</g>
<!-- Node10 -->
<g id="node10" class="node"><title>Node10</title>
<g id="a_node10"><a xlink:href="../../dd/dca/classfeatures_1_1_pen_width_slider_feature.html#aac6e7c0d0c6f5e1afde3d8a3c8e788e6" target="_top" xlink:title="features.PenWidthSliderFeature.\lPenWidthSliderFeature">
<polygon fill="white" stroke="black" points="688,-849 688,-879 858,-879 858,-849 688,-849"/>
<text text-anchor="start" x="696" y="-867" font-family="Helvetica,sans-Serif" font-size="10.00">features.PenWidthSliderFeature.</text>
<text text-anchor="middle" x="773" y="-856" font-family="Helvetica,sans-Serif" font-size="10.00">PenWidthSliderFeature</text>
</a>
</g>
</g>
<!-- Node4&#45;&gt;Node10 -->
<g id="edge12" class="edge"><title>Node4&#45;&gt;Node10</title>
<path fill="none" stroke="midnightblue" d="M662.428,-864C670.887,-864 679.411,-864 687.767,-864"/>
<polygon fill="midnightblue" stroke="midnightblue" points="662.158,-860.5 652.158,-864 662.157,-867.5 662.158,-860.5"/>
</g>
<!-- Node11 -->
<g id="node11" class="node"><title>Node11</title>
<g id="a_node11"><a xlink:href="../../de/d10/classfeatures_1_1_run_button_feature.html#ada33a09e0a0259486754b597f2d7b0c7" target="_top" xlink:title="features.RunButtonFeature.\lRunButtonFeature">
<polygon fill="white" stroke="black" points="699,-800 699,-830 847,-830 847,-800 699,-800"/>
<text text-anchor="start" x="707" y="-818" font-family="Helvetica,sans-Serif" font-size="10.00">features.RunButtonFeature.</text>
<text text-anchor="middle" x="773" y="-807" font-family="Helvetica,sans-Serif" font-size="10.00">RunButtonFeature</text>
</a>
</g>
</g>
<!-- Node4&#45;&gt;Node11 -->
<g id="edge13" class="edge"><title>Node4&#45;&gt;Node11</title>
<path fill="none" stroke="midnightblue" d="M639.812,-846.596C662.49,-841.176 687.289,-835.248 709.219,-830.006"/>
<polygon fill="midnightblue" stroke="midnightblue" points="638.812,-843.236 629.9,-848.965 640.44,-850.045 638.812,-843.236"/>
</g>
<!-- Node12 -->
<g id="node12" class="node"><title>Node12</title>
<g id="a_node12"><a xlink:href="../../d4/d3f/classcomponents_1_1_vars_tab.html#aa51dee8d24322ee37e4399858794ee8b" target="_top" xlink:title="components.VarsTab.setTab\lEditable">
<polygon fill="white" stroke="black" points="698,-751 698,-781 848,-781 848,-751 698,-751"/>
<text text-anchor="start" x="706" y="-769" font-family="Helvetica,sans-Serif" font-size="10.00">components.VarsTab.setTab</text>
<text text-anchor="middle" x="773" y="-758" font-family="Helvetica,sans-Serif" font-size="10.00">Editable</text>
</a>
</g>
</g>
<!-- Node4&#45;&gt;Node12 -->
<g id="edge14" class="edge"><title>Node4&#45;&gt;Node12</title>
<path fill="none" stroke="midnightblue" d="M642.971,-844.512C646.107,-842.823 649.133,-840.99 652,-839 673.908,-823.796 666.117,-806.239 688,-791 693.494,-787.174 699.581,-783.925 705.894,-781.167"/>
<polygon fill="midnightblue" stroke="midnightblue" points="641.371,-841.398 633.891,-848.901 644.417,-847.701 641.371,-841.398"/>
</g>
<!-- Node6 -->
<g id="node6" class="node"><title>Node6</title>
<g id="a_node6"><a xlink:href="../../d3/d04/classmain_application_1_1_g_u_i_shell.html#ac525a3e483dbe24e5f9f0257fe54521d" target="_top" xlink:title="mainApplication.GUIShell.\lGUIShell">
<polygon fill="white" stroke="black" points="1292,-898 1292,-928 1432,-928 1432,-898 1292,-898"/>
<text text-anchor="start" x="1300" y="-916" font-family="Helvetica,sans-Serif" font-size="10.00">mainApplication.GUIShell.</text>
<text text-anchor="middle" x="1362" y="-905" font-family="Helvetica,sans-Serif" font-size="10.00">GUIShell</text>
</a>
</g>
</g>
<!-- Node5&#45;&gt;Node6 -->
<g id="edge5" class="edge"><title>Node5&#45;&gt;Node6</title>
<path fill="none" stroke="midnightblue" d="M1246.64,-939.623C1263.11,-935.789 1280.43,-931.758 1296.46,-928.026"/>
<polygon fill="midnightblue" stroke="midnightblue" points="1245.46,-936.304 1236.51,-941.981 1247.05,-943.122 1245.46,-936.304"/>
</g>
<!-- Node8 -->
<g id="node8" class="node"><title>Node8</title>
<g id="a_node8"><a xlink:href="../../d3/de0/classmain_application_1_1_g_u_i.html#af6bd387013dbd1d1daf030117da66c0e" target="_top" xlink:title="mainApplication.GUI.initiate">
<polygon fill="white" stroke="black" points="897.5,-903.5 897.5,-922.5 1046.5,-922.5 1046.5,-903.5 897.5,-903.5"/>
<text text-anchor="middle" x="972" y="-910.5" font-family="Helvetica,sans-Serif" font-size="10.00">mainApplication.GUI.initiate</text>
</a>
</g>
</g>
<!-- Node7&#45;&gt;Node8 -->
<g id="edge7" class="edge"><title>Node7&#45;&gt;Node8</title>
<path fill="none" stroke="midnightblue" d="M857.662,-913C870.889,-913 884.48,-913 897.454,-913"/>
<polygon fill="midnightblue" stroke="midnightblue" points="857.636,-909.5 847.636,-913 857.636,-916.5 857.636,-909.5"/>
</g>
<!-- Node8&#45;&gt;Node5 -->
<g id="edge10" class="edge"><title>Node8&#45;&gt;Node5</title>
<path fill="none" stroke="midnightblue" d="M1025.57,-924.742C1049.21,-930.021 1077.38,-936.314 1102.55,-941.935"/>
<polygon fill="midnightblue" stroke="midnightblue" points="1026.27,-921.311 1015.75,-922.547 1024.74,-928.143 1026.27,-921.311"/>
</g>
<!-- Node8&#45;&gt;Node6 -->
<g id="edge11" class="edge"><title>Node8&#45;&gt;Node6</title>
<path fill="none" stroke="midnightblue" d="M1057.04,-913C1127.29,-913 1226.25,-913 1291.94,-913"/>
<polygon fill="midnightblue" stroke="midnightblue" points="1056.89,-909.5 1046.89,-913 1056.89,-916.5 1056.89,-909.5"/>
</g>
<!-- Node9 -->
<g id="node9" class="node"><title>Node9</title>
<g id="a_node9"><a xlink:href="../../d3/d04/classmain_application_1_1_g_u_i_shell.html#a9df214dfffdce7a39bc6ac5e84ca1f0f" target="_top" xlink:title="mainApplication.GUIShell.create\lNewButton">
<polygon fill="white" stroke="black" points="1086,-854 1086,-884 1256,-884 1256,-854 1086,-854"/>
<text text-anchor="start" x="1094" y="-872" font-family="Helvetica,sans-Serif" font-size="10.00">mainApplication.GUIShell.create</text>
<text text-anchor="middle" x="1171" y="-861" font-family="Helvetica,sans-Serif" font-size="10.00">NewButton</text>
</a>
</g>
</g>
<!-- Node8&#45;&gt;Node9 -->
<g id="edge8" class="edge"><title>Node8&#45;&gt;Node9</title>
<path fill="none" stroke="midnightblue" d="M1025.57,-901.258C1049.21,-895.979 1077.38,-889.686 1102.55,-884.065"/>
<polygon fill="midnightblue" stroke="midnightblue" points="1024.74,-897.857 1015.75,-903.453 1026.27,-904.689 1024.74,-897.857"/>
</g>
<!-- Node9&#45;&gt;Node6 -->
<g id="edge9" class="edge"><title>Node9&#45;&gt;Node6</title>
<path fill="none" stroke="midnightblue" d="M1246.64,-886.377C1263.11,-890.211 1280.43,-894.242 1296.46,-897.974"/>
<polygon fill="midnightblue" stroke="midnightblue" points="1247.05,-882.878 1236.51,-884.019 1245.46,-889.696 1247.05,-882.878"/>
</g>
<!-- Node13 -->
<g id="node13" class="node"><title>Node13</title>
<g id="a_node13"><a xlink:href="../../d4/d3f/classcomponents_1_1_vars_tab.html#a1e48c3f7ead529596e018a72cd6ef159" target="_top" xlink:title="components.VarsTab.VarsTab">
<polygon fill="white" stroke="black" points="894,-756.5 894,-775.5 1050,-775.5 1050,-756.5 894,-756.5"/>
<text text-anchor="middle" x="972" y="-763.5" font-family="Helvetica,sans-Serif" font-size="10.00">components.VarsTab.VarsTab</text>
</a>
</g>
</g>
<!-- Node12&#45;&gt;Node13 -->
<g id="edge15" class="edge"><title>Node12&#45;&gt;Node13</title>
<path fill="none" stroke="midnightblue" d="M858.458,-766C870.235,-766 882.285,-766 893.916,-766"/>
<polygon fill="midnightblue" stroke="midnightblue" points="858.197,-762.5 848.197,-766 858.197,-769.5 858.197,-762.5"/>
</g>
</g>
</svg>
