<?xml version="1.0" encoding="UTF-8" standalone="no"?>
<!DOCTYPE svg PUBLIC "-//W3C//DTD SVG 1.1//EN"
 "http://www.w3.org/Graphics/SVG/1.1/DTD/svg11.dtd">
<!-- Generated by graphviz version 2.36.0 (20140111.2315)
 -->
<!-- Title: parser.Parser.makeTree Pages: 1 -->
<svg width="1270pt" height="980pt"
 viewBox="0.00 0.00 1270.00 980.00" xmlns="http://www.w3.org/2000/svg" xmlns:xlink="http://www.w3.org/1999/xlink">
<g id="graph0" class="graph" transform="scale(1 1) rotate(0) translate(4 976)">
<title>parser.Parser.makeTree</title>
<polygon fill="white" stroke="none" points="-4,4 -4,-976 1266,-976 1266,4 -4,4"/>
<!-- Node1 -->
<g id="node1" class="node"><title>Node1</title>
<polygon fill="#bfbfbf" stroke="black" points="0,-418.5 0,-437.5 128,-437.5 128,-418.5 0,-418.5"/>
<text text-anchor="middle" x="64" y="-425.5" font-family="Helvetica,sans-Serif" font-size="10.00">parser.Parser.makeTree</text>
</g>
<!-- Node2 -->
<g id="node2" class="node"><title>Node2</title>
<g id="a_node2"><a xlink:href="../../d6/d95/classparser_1_1_parser.html#a5e98fdfffe49478864dc1b22371d6cb1" target="_top" xlink:title="parser.Parser.parse">
<polygon fill="white" stroke="black" points="164.5,-418.5 164.5,-437.5 273.5,-437.5 273.5,-418.5 164.5,-418.5"/>
<text text-anchor="middle" x="219" y="-425.5" font-family="Helvetica,sans-Serif" font-size="10.00">parser.Parser.parse</text>
</a>
</g>
</g>
<!-- Node1&#45;&gt;Node2 -->
<g id="edge1" class="edge"><title>Node1&#45;&gt;Node2</title>
<path fill="none" stroke="midnightblue" d="M138.335,-428C147.087,-428 155.894,-428 164.297,-428"/>
<polygon fill="midnightblue" stroke="midnightblue" points="138.114,-424.5 128.114,-428 138.114,-431.5 138.114,-424.5"/>
</g>
<!-- Node3 -->
<g id="node3" class="node"><title>Node3</title>
<g id="a_node3"><a xlink:href="../../d7/da1/classmain_application_1_1_controller.html#a6e9afc2e53e6adb01a2b73794a319b63" target="_top" xlink:title="mainApplication.Controller.parse\lAndEvaluate">
<polygon fill="white" stroke="black" points="310,-849 310,-879 482,-879 482,-849 310,-849"/>
<text text-anchor="start" x="318" y="-867" font-family="Helvetica,sans-Serif" font-size="10.00">mainApplication.Controller.parse</text>
<text text-anchor="middle" x="396" y="-856" font-family="Helvetica,sans-Serif" font-size="10.00">AndEvaluate</text>
</a>
</g>
</g>
<!-- Node2&#45;&gt;Node3 -->
<g id="edge2" class="edge"><title>Node2&#45;&gt;Node3</title>
<path fill="none" stroke="midnightblue" d="M221.698,-447.815C228.424,-521.79 255.521,-780.54 310,-839 313.565,-842.826 317.683,-846.077 322.144,-848.838"/>
<polygon fill="midnightblue" stroke="midnightblue" points="225.161,-447.241 220.793,-437.588 218.188,-447.858 225.161,-447.241"/>
</g>
<!-- Node13 -->
<g id="node13" class="node"><title>Node13</title>
<g id="a_node13"><a xlink:href="../../d8/dc3/classparser_1_1_test_model.html#ab542659caca299017b423f7b3b3f648a" target="_top" xlink:title="parser.TestModel.testPosition">
<polygon fill="white" stroke="black" points="318,-810.5 318,-829.5 474,-829.5 474,-810.5 318,-810.5"/>
<text text-anchor="middle" x="396" y="-817.5" font-family="Helvetica,sans-Serif" font-size="10.00">parser.TestModel.testPosition</text>
</a>
</g>
</g>
<!-- Node2&#45;&gt;Node13 -->
<g id="edge15" class="edge"><title>Node2&#45;&gt;Node13</title>
<path fill="none" stroke="midnightblue" d="M222.077,-447.805C229.772,-517.389 258.88,-749.2 310,-800 314.301,-804.274 319.334,-807.701 324.764,-810.441"/>
<polygon fill="midnightblue" stroke="midnightblue" points="225.545,-447.318 220.991,-437.752 218.586,-448.07 225.545,-447.318"/>
</g>
<!-- Node14 -->
<g id="node14" class="node"><title>Node14</title>
<g id="a_node14"><a xlink:href="../../d8/dc3/classparser_1_1_test_model.html#ac4fd1124818e321c4a686cc1cf973254" target="_top" xlink:title="parser.TestModel.testParse\lException">
<polygon fill="white" stroke="black" points="323.5,-761 323.5,-791 468.5,-791 468.5,-761 323.5,-761"/>
<text text-anchor="start" x="331.5" y="-779" font-family="Helvetica,sans-Serif" font-size="10.00">parser.TestModel.testParse</text>
<text text-anchor="middle" x="396" y="-768" font-family="Helvetica,sans-Serif" font-size="10.00">Exception</text>
</a>
</g>
</g>
<!-- Node2&#45;&gt;Node14 -->
<g id="edge16" class="edge"><title>Node2&#45;&gt;Node14</title>
<path fill="none" stroke="midnightblue" d="M219.351,-447.802C218.644,-503.708 224.537,-664.305 310,-751 313.888,-754.944 318.363,-758.272 323.183,-761.081"/>
<polygon fill="midnightblue" stroke="midnightblue" points="222.856,-447.6 219.576,-437.526 215.858,-447.447 222.856,-447.6"/>
</g>
<!-- Node15 -->
<g id="node15" class="node"><title>Node15</title>
<g id="a_node15"><a xlink:href="../../d8/dc3/classparser_1_1_test_model.html#a023bd16aca0a843ec8f4772c96ec2ffb" target="_top" xlink:title="parser.TestModel.testWrite">
<polygon fill="white" stroke="black" points="325,-722.5 325,-741.5 467,-741.5 467,-722.5 325,-722.5"/>
<text text-anchor="middle" x="396" y="-729.5" font-family="Helvetica,sans-Serif" font-size="10.00">parser.TestModel.testWrite</text>
</a>
</g>
</g>
<!-- Node2&#45;&gt;Node15 -->
<g id="edge17" class="edge"><title>Node2&#45;&gt;Node15</title>
<path fill="none" stroke="midnightblue" d="M219.94,-447.803C220.919,-499.695 231.091,-640.599 310,-713 314.345,-716.987 319.339,-720.2 324.684,-722.783"/>
<polygon fill="midnightblue" stroke="midnightblue" points="223.438,-447.594 219.849,-437.625 216.438,-447.656 223.438,-447.594"/>
</g>
<!-- Node16 -->
<g id="node16" class="node"><title>Node16</title>
<g id="a_node16"><a xlink:href="../../de/d33/classparser_1_1_test_parser.html#a2211bce31efddb4c523112a488c02e92" target="_top" xlink:title="parser.TestParser.TestSum">
<polygon fill="white" stroke="black" points="325,-684.5 325,-703.5 467,-703.5 467,-684.5 325,-684.5"/>
<text text-anchor="middle" x="396" y="-691.5" font-family="Helvetica,sans-Serif" font-size="10.00">parser.TestParser.TestSum</text>
</a>
</g>
</g>
<!-- Node2&#45;&gt;Node16 -->
<g id="edge18" class="edge"><title>Node2&#45;&gt;Node16</title>
<path fill="none" stroke="midnightblue" d="M221.036,-447.668C224.618,-494.631 240.461,-613.93 310,-675 314.431,-678.891 319.485,-682.038 324.869,-684.577"/>
<polygon fill="midnightblue" stroke="midnightblue" points="224.522,-447.35 220.376,-437.6 217.537,-447.807 224.522,-447.35"/>
</g>
<!-- Node17 -->
<g id="node17" class="node"><title>Node17</title>
<g id="a_node17"><a xlink:href="../../de/d33/classparser_1_1_test_parser.html#ae799f71307e31127e497d20afdc506ec" target="_top" xlink:title="parser.TestParser.TestDif">
<polygon fill="white" stroke="black" points="330,-646.5 330,-665.5 462,-665.5 462,-646.5 330,-646.5"/>
<text text-anchor="middle" x="396" y="-653.5" font-family="Helvetica,sans-Serif" font-size="10.00">parser.TestParser.TestDif</text>
</a>
</g>
</g>
<!-- Node2&#45;&gt;Node17 -->
<g id="edge19" class="edge"><title>Node2&#45;&gt;Node17</title>
<path fill="none" stroke="midnightblue" d="M222.505,-447.726C228.901,-489.496 249.816,-587.121 310,-637 315.821,-641.824 322.611,-645.489 329.769,-648.263"/>
<polygon fill="midnightblue" stroke="midnightblue" points="225.957,-447.137 221.093,-437.725 219.026,-448.116 225.957,-447.137"/>
</g>
<!-- Node18 -->
<g id="node18" class="node"><title>Node18</title>
<g id="a_node18"><a xlink:href="../../de/d33/classparser_1_1_test_parser.html#a8844bf15d0fe9e809fb466cb35b0ae20" target="_top" xlink:title="parser.TestParser.TestProd">
<polygon fill="white" stroke="black" points="325.5,-608.5 325.5,-627.5 466.5,-627.5 466.5,-608.5 325.5,-608.5"/>
<text text-anchor="middle" x="396" y="-615.5" font-family="Helvetica,sans-Serif" font-size="10.00">parser.TestParser.TestProd</text>
</a>
</g>
</g>
<!-- Node2&#45;&gt;Node18 -->
<g id="edge20" class="edge"><title>Node2&#45;&gt;Node18</title>
<path fill="none" stroke="midnightblue" d="M224.453,-447.31C233.764,-483.142 258.81,-559.833 310,-599 315.044,-602.859 320.721,-605.964 326.687,-608.457"/>
<polygon fill="midnightblue" stroke="midnightblue" points="227.848,-446.46 222.056,-437.588 221.051,-448.135 227.848,-446.46"/>
</g>
<!-- Node19 -->
<g id="node19" class="node"><title>Node19</title>
<g id="a_node19"><a xlink:href="../../de/d33/classparser_1_1_test_parser.html#a9bcfbde1999d45577d42211fcd593121" target="_top" xlink:title="parser.TestParser.TestQuotient">
<polygon fill="white" stroke="black" points="315.5,-570.5 315.5,-589.5 476.5,-589.5 476.5,-570.5 315.5,-570.5"/>
<text text-anchor="middle" x="396" y="-577.5" font-family="Helvetica,sans-Serif" font-size="10.00">parser.TestParser.TestQuotient</text>
</a>
</g>
</g>
<!-- Node2&#45;&gt;Node19 -->
<g id="edge21" class="edge"><title>Node2&#45;&gt;Node19</title>
<path fill="none" stroke="midnightblue" d="M227.399,-447.045C239.817,-476.372 267.722,-532.207 310,-561 315.624,-564.83 321.897,-567.901 328.418,-570.361"/>
<polygon fill="midnightblue" stroke="midnightblue" points="230.54,-445.48 223.526,-437.539 224.057,-448.12 230.54,-445.48"/>
</g>
<!-- Node20 -->
<g id="node20" class="node"><title>Node20</title>
<g id="a_node20"><a xlink:href="../../de/d33/classparser_1_1_test_parser.html#acd110a622f9ac5ef4b4246ea997ec102" target="_top" xlink:title="parser.TestParser.TestRemainder">
<polygon fill="white" stroke="black" points="311,-532.5 311,-551.5 481,-551.5 481,-532.5 311,-532.5"/>
<text text-anchor="middle" x="396" y="-539.5" font-family="Helvetica,sans-Serif" font-size="10.00">parser.TestParser.TestRemainder</text>
</a>
</g>
</g>
<!-- Node2&#45;&gt;Node20 -->
<g id="edge22" class="edge"><title>Node2&#45;&gt;Node20</title>
<path fill="none" stroke="midnightblue" d="M231.867,-445.933C247.238,-467.669 276.113,-503.77 310,-523 316.839,-526.881 324.406,-529.969 332.124,-532.426"/>
<polygon fill="midnightblue" stroke="midnightblue" points="234.68,-443.846 226.132,-437.588 228.912,-447.811 234.68,-443.846"/>
</g>
<!-- Node21 -->
<g id="node21" class="node"><title>Node21</title>
<g id="a_node21"><a xlink:href="../../de/d33/classparser_1_1_test_parser.html#af2b64ced840e8e10f33f74dce480218a" target="_top" xlink:title="parser.TestParser.TestMinus">
<polygon fill="white" stroke="black" points="322.5,-494.5 322.5,-513.5 469.5,-513.5 469.5,-494.5 322.5,-494.5"/>
<text text-anchor="middle" x="396" y="-501.5" font-family="Helvetica,sans-Serif" font-size="10.00">parser.TestParser.TestMinus</text>
</a>
</g>
</g>
<!-- Node2&#45;&gt;Node21 -->
<g id="edge23" class="edge"><title>Node2&#45;&gt;Node21</title>
<path fill="none" stroke="midnightblue" d="M240.371,-443.802C257.916,-456.678 284.386,-474.404 310,-485 319.222,-488.815 329.339,-491.926 339.276,-494.442"/>
<polygon fill="midnightblue" stroke="midnightblue" points="242.163,-440.771 232.062,-437.575 237.965,-446.373 242.163,-440.771"/>
</g>
<!-- Node22 -->
<g id="node22" class="node"><title>Node22</title>
<g id="a_node22"><a xlink:href="../../de/d33/classparser_1_1_test_parser.html#ac13478be4d51a5b8db30db117f6098c8" target="_top" xlink:title="parser.TestParser.TestRandom">
<polygon fill="white" stroke="black" points="316.5,-456.5 316.5,-475.5 475.5,-475.5 475.5,-456.5 316.5,-456.5"/>
<text text-anchor="middle" x="396" y="-463.5" font-family="Helvetica,sans-Serif" font-size="10.00">parser.TestParser.TestRandom</text>
</a>
</g>
</g>
<!-- Node2&#45;&gt;Node22 -->
<g id="edge24" class="edge"><title>Node2&#45;&gt;Node22</title>
<path fill="none" stroke="midnightblue" d="M274.124,-439.753C298.869,-445.126 327.803,-451.409 351.158,-456.48"/>
<polygon fill="midnightblue" stroke="midnightblue" points="274.675,-436.291 264.16,-437.589 273.189,-443.131 274.675,-436.291"/>
</g>
<!-- Node23 -->
<g id="node23" class="node"><title>Node23</title>
<g id="a_node23"><a xlink:href="../../de/d33/classparser_1_1_test_parser.html#aa7724ec4a132ca195c3bd3ee1c81ad73" target="_top" xlink:title="parser.TestParser.TestTrig">
<polygon fill="white" stroke="black" points="328.5,-418.5 328.5,-437.5 463.5,-437.5 463.5,-418.5 328.5,-418.5"/>
<text text-anchor="middle" x="396" y="-425.5" font-family="Helvetica,sans-Serif" font-size="10.00">parser.TestParser.TestTrig</text>
</a>
</g>
</g>
<!-- Node2&#45;&gt;Node23 -->
<g id="edge25" class="edge"><title>Node2&#45;&gt;Node23</title>
<path fill="none" stroke="midnightblue" d="M284.204,-428C298.562,-428 313.822,-428 328.279,-428"/>
<polygon fill="midnightblue" stroke="midnightblue" points="283.934,-424.5 273.934,-428 283.934,-431.5 283.934,-424.5"/>
</g>
<!-- Node24 -->
<g id="node24" class="node"><title>Node24</title>
<g id="a_node24"><a xlink:href="../../de/d33/classparser_1_1_test_parser.html#ada92f24240fae7dfec207bad127e31e7" target="_top" xlink:title="parser.TestParser.TestPow">
<polygon fill="white" stroke="black" points="327,-380.5 327,-399.5 465,-399.5 465,-380.5 327,-380.5"/>
<text text-anchor="middle" x="396" y="-387.5" font-family="Helvetica,sans-Serif" font-size="10.00">parser.TestParser.TestPow</text>
</a>
</g>
</g>
<!-- Node2&#45;&gt;Node24 -->
<g id="edge26" class="edge"><title>Node2&#45;&gt;Node24</title>
<path fill="none" stroke="midnightblue" d="M274.124,-416.247C298.869,-410.874 327.803,-404.591 351.158,-399.52"/>
<polygon fill="midnightblue" stroke="midnightblue" points="273.189,-412.869 264.16,-418.411 274.675,-419.709 273.189,-412.869"/>
</g>
<!-- Node25 -->
<g id="node25" class="node"><title>Node25</title>
<g id="a_node25"><a xlink:href="../../de/d33/classparser_1_1_test_parser.html#a3f8cee68556948d08c53a574a72c8356" target="_top" xlink:title="parser.TestParser.TestBoolean">
<polygon fill="white" stroke="black" points="317,-342.5 317,-361.5 475,-361.5 475,-342.5 317,-342.5"/>
<text text-anchor="middle" x="396" y="-349.5" font-family="Helvetica,sans-Serif" font-size="10.00">parser.TestParser.TestBoolean</text>
</a>
</g>
</g>
<!-- Node2&#45;&gt;Node25 -->
<g id="edge27" class="edge"><title>Node2&#45;&gt;Node25</title>
<path fill="none" stroke="midnightblue" d="M240.371,-412.198C257.916,-399.322 284.386,-381.596 310,-371 319.222,-367.185 329.339,-364.074 339.276,-361.558"/>
<polygon fill="midnightblue" stroke="midnightblue" points="237.965,-409.627 232.062,-418.425 242.163,-415.229 237.965,-409.627"/>
</g>
<!-- Node26 -->
<g id="node26" class="node"><title>Node26</title>
<g id="a_node26"><a xlink:href="../../de/d33/classparser_1_1_test_parser.html#a39be8e4aca3871ce6f29a482a52bcd71" target="_top" xlink:title="parser.TestParser.TestIf">
<polygon fill="white" stroke="black" points="333.5,-304.5 333.5,-323.5 458.5,-323.5 458.5,-304.5 333.5,-304.5"/>
<text text-anchor="middle" x="396" y="-311.5" font-family="Helvetica,sans-Serif" font-size="10.00">parser.TestParser.TestIf</text>
</a>
</g>
</g>
<!-- Node2&#45;&gt;Node26 -->
<g id="edge28" class="edge"><title>Node2&#45;&gt;Node26</title>
<path fill="none" stroke="midnightblue" d="M231.867,-410.067C247.238,-388.331 276.113,-352.23 310,-333 317.233,-328.895 325.282,-325.677 333.461,-323.155"/>
<polygon fill="midnightblue" stroke="midnightblue" points="228.912,-408.189 226.132,-418.412 234.68,-412.154 228.912,-408.189"/>
</g>
<!-- Node27 -->
<g id="node27" class="node"><title>Node27</title>
<g id="a_node27"><a xlink:href="../../de/d33/classparser_1_1_test_parser.html#ac22ad278ed612557e83ed90884fedff4" target="_top" xlink:title="parser.TestParser.TestIfElse">
<polygon fill="white" stroke="black" points="324,-266.5 324,-285.5 468,-285.5 468,-266.5 324,-266.5"/>
<text text-anchor="middle" x="396" y="-273.5" font-family="Helvetica,sans-Serif" font-size="10.00">parser.TestParser.TestIfElse</text>
</a>
</g>
</g>
<!-- Node2&#45;&gt;Node27 -->
<g id="edge29" class="edge"><title>Node2&#45;&gt;Node27</title>
<path fill="none" stroke="midnightblue" d="M227.399,-408.955C239.817,-379.628 267.722,-323.793 310,-295 315.624,-291.17 321.897,-288.099 328.418,-285.639"/>
<polygon fill="midnightblue" stroke="midnightblue" points="224.057,-407.88 223.526,-418.461 230.54,-410.52 224.057,-407.88"/>
</g>
<!-- Node28 -->
<g id="node28" class="node"><title>Node28</title>
<g id="a_node28"><a xlink:href="../../de/d33/classparser_1_1_test_parser.html#aac27b9d8c48ae78dd9252dd65be9aeea" target="_top" xlink:title="parser.TestParser.TestSum2">
<polygon fill="white" stroke="black" points="322,-228.5 322,-247.5 470,-247.5 470,-228.5 322,-228.5"/>
<text text-anchor="middle" x="396" y="-235.5" font-family="Helvetica,sans-Serif" font-size="10.00">parser.TestParser.TestSum2</text>
</a>
</g>
</g>
<!-- Node2&#45;&gt;Node28 -->
<g id="edge30" class="edge"><title>Node2&#45;&gt;Node28</title>
<path fill="none" stroke="midnightblue" d="M224.453,-408.69C233.764,-372.858 258.81,-296.167 310,-257 315.044,-253.141 320.721,-250.036 326.687,-247.543"/>
<polygon fill="midnightblue" stroke="midnightblue" points="221.051,-407.865 222.056,-418.412 227.848,-409.54 221.051,-407.865"/>
</g>
<!-- Node29 -->
<g id="node29" class="node"><title>Node29</title>
<g id="a_node29"><a xlink:href="../../de/d33/classparser_1_1_test_parser.html#a616e3d3359a2feaf24149915c6aea8c8" target="_top" xlink:title="parser.TestParser.TestForward">
<polygon fill="white" stroke="black" points="317.5,-190.5 317.5,-209.5 474.5,-209.5 474.5,-190.5 317.5,-190.5"/>
<text text-anchor="middle" x="396" y="-197.5" font-family="Helvetica,sans-Serif" font-size="10.00">parser.TestParser.TestForward</text>
</a>
</g>
</g>
<!-- Node2&#45;&gt;Node29 -->
<g id="edge31" class="edge"><title>Node2&#45;&gt;Node29</title>
<path fill="none" stroke="midnightblue" d="M222.505,-408.274C228.901,-366.504 249.816,-268.879 310,-219 314.657,-215.14 319.934,-212.023 325.523,-209.51"/>
<polygon fill="midnightblue" stroke="midnightblue" points="219.026,-407.884 221.093,-418.275 225.957,-408.863 219.026,-407.884"/>
</g>
<!-- Node30 -->
<g id="node30" class="node"><title>Node30</title>
<g id="a_node30"><a xlink:href="../../de/d33/classparser_1_1_test_parser.html#a914384055dd7ca9ea5c617ab0bb5e0c0" target="_top" xlink:title="parser.TestParser.TestMake">
<polygon fill="white" stroke="black" points="323.5,-152.5 323.5,-171.5 468.5,-171.5 468.5,-152.5 323.5,-152.5"/>
<text text-anchor="middle" x="396" y="-159.5" font-family="Helvetica,sans-Serif" font-size="10.00">parser.TestParser.TestMake</text>
</a>
</g>
</g>
<!-- Node2&#45;&gt;Node30 -->
<g id="edge32" class="edge"><title>Node2&#45;&gt;Node30</title>
<path fill="none" stroke="midnightblue" d="M221.036,-408.332C224.618,-361.369 240.461,-242.07 310,-181 314.317,-177.208 319.226,-174.124 324.455,-171.62"/>
<polygon fill="midnightblue" stroke="midnightblue" points="217.537,-408.193 220.376,-418.4 224.522,-408.65 217.537,-408.193"/>
</g>
<!-- Node31 -->
<g id="node31" class="node"><title>Node31</title>
<g id="a_node31"><a xlink:href="../../de/d33/classparser_1_1_test_parser.html#a7861269b842fcf079433cbe0a933e8db" target="_top" xlink:title="parser.TestParser.TestRepeat">
<polygon fill="white" stroke="black" points="320,-114.5 320,-133.5 472,-133.5 472,-114.5 320,-114.5"/>
<text text-anchor="middle" x="396" y="-121.5" font-family="Helvetica,sans-Serif" font-size="10.00">parser.TestParser.TestRepeat</text>
</a>
</g>
</g>
<!-- Node2&#45;&gt;Node31 -->
<g id="edge33" class="edge"><title>Node2&#45;&gt;Node31</title>
<path fill="none" stroke="midnightblue" d="M219.94,-408.197C220.919,-356.305 231.091,-215.401 310,-143 314.122,-139.218 318.829,-136.132 323.864,-133.62"/>
<polygon fill="midnightblue" stroke="midnightblue" points="216.438,-408.344 219.849,-418.375 223.438,-408.406 216.438,-408.344"/>
</g>
<!-- Node32 -->
<g id="node32" class="node"><title>Node32</title>
<g id="a_node32"><a xlink:href="../../de/d33/classparser_1_1_test_parser.html#ad6cc42523d881f5a69c5cf307364ce38" target="_top" xlink:title="parser.TestParser.TestFor">
<polygon fill="white" stroke="black" points="329,-76.5 329,-95.5 463,-95.5 463,-76.5 329,-76.5"/>
<text text-anchor="middle" x="396" y="-83.5" font-family="Helvetica,sans-Serif" font-size="10.00">parser.TestParser.TestFor</text>
</a>
</g>
</g>
<!-- Node2&#45;&gt;Node32 -->
<g id="edge34" class="edge"><title>Node2&#45;&gt;Node32</title>
<path fill="none" stroke="midnightblue" d="M222.806,-408.36C232.244,-345.045 264.8,-147.916 310,-105 315.373,-99.8983 321.804,-96.0535 328.69,-93.1714"/>
<polygon fill="midnightblue" stroke="midnightblue" points="219.343,-407.854 221.359,-418.256 226.269,-408.868 219.343,-407.854"/>
</g>
<!-- Node33 -->
<g id="node33" class="node"><title>Node33</title>
<g id="a_node33"><a xlink:href="../../de/d33/classparser_1_1_test_parser.html#a93efc93146678909fa1c24a6727460ae" target="_top" xlink:title="parser.TestParser.TestTo">
<polygon fill="white" stroke="black" points="331.5,-38.5 331.5,-57.5 460.5,-57.5 460.5,-38.5 331.5,-38.5"/>
<text text-anchor="middle" x="396" y="-45.5" font-family="Helvetica,sans-Serif" font-size="10.00">parser.TestParser.TestTo</text>
</a>
</g>
</g>
<!-- Node2&#45;&gt;Node33 -->
<g id="edge35" class="edge"><title>Node2&#45;&gt;Node33</title>
<path fill="none" stroke="midnightblue" d="M222.248,-407.886C230.325,-339.235 260.073,-115.722 310,-67 315.952,-61.1915 323.27,-57.0018 331.092,-54.0035"/>
<polygon fill="midnightblue" stroke="midnightblue" points="218.729,-407.848 221.064,-418.182 225.684,-408.647 218.729,-407.848"/>
</g>
<!-- Node34 -->
<g id="node34" class="node"><title>Node34</title>
<g id="a_node34"><a xlink:href="../../de/d33/classparser_1_1_test_parser.html#a3ab06721c75424d63da6d4380ae7ad5e" target="_top" xlink:title="parser.TestParser.TestRecursion">
<polygon fill="white" stroke="black" points="313.5,-0.5 313.5,-19.5 478.5,-19.5 478.5,-0.5 313.5,-0.5"/>
<text text-anchor="middle" x="396" y="-7.5" font-family="Helvetica,sans-Serif" font-size="10.00">parser.TestParser.TestRecursion</text>
</a>
</g>
</g>
<!-- Node2&#45;&gt;Node34 -->
<g id="edge36" class="edge"><title>Node2&#45;&gt;Node34</title>
<path fill="none" stroke="midnightblue" d="M221.71,-408.172C228.393,-335.309 255.135,-83.7589 310,-29 313.746,-25.2613 318.056,-22.1898 322.707,-19.6729"/>
<polygon fill="midnightblue" stroke="midnightblue" points="218.211,-408.003 220.808,-418.274 225.183,-408.625 218.211,-408.003"/>
</g>
<!-- Node4 -->
<g id="node4" class="node"><title>Node4</title>
<g id="a_node4"><a xlink:href="../../d3/d04/classmain_application_1_1_g_u_i_shell.html#af2f106fa7786f13ccc0202db53b559b9" target="_top" xlink:title="mainApplication.GUIShell.create\lOpenButton">
<polygon fill="white" stroke="black" points="916,-942 916,-972 1086,-972 1086,-942 916,-942"/>
<text text-anchor="start" x="924" y="-960" font-family="Helvetica,sans-Serif" font-size="10.00">mainApplication.GUIShell.create</text>
<text text-anchor="middle" x="1001" y="-949" font-family="Helvetica,sans-Serif" font-size="10.00">OpenButton</text>
</a>
</g>
</g>
<!-- Node3&#45;&gt;Node4 -->
<g id="edge3" class="edge"><title>Node3&#45;&gt;Node4</title>
<path fill="none" stroke="midnightblue" d="M423.276,-885.242C446.608,-902.723 482.428,-926.301 518,-937 652.541,-977.465 817.723,-973.487 915.619,-965.935"/>
<polygon fill="midnightblue" stroke="midnightblue" points="425.337,-882.412 415.269,-879.113 421.082,-887.97 425.337,-882.412"/>
</g>
<!-- Node6 -->
<g id="node6" class="node"><title>Node6</title>
<g id="a_node6"><a xlink:href="../../d3/de0/classmain_application_1_1_g_u_i.html#a60b2e396c945ac173bfd82f207f42000" target="_top" xlink:title="mainApplication.GUI.initiate\lKeyPress">
<polygon fill="white" stroke="black" points="528.5,-898 528.5,-928 677.5,-928 677.5,-898 528.5,-898"/>
<text text-anchor="start" x="536.5" y="-916" font-family="Helvetica,sans-Serif" font-size="10.00">mainApplication.GUI.initiate</text>
<text text-anchor="middle" x="603" y="-905" font-family="Helvetica,sans-Serif" font-size="10.00">KeyPress</text>
</a>
</g>
</g>
<!-- Node3&#45;&gt;Node6 -->
<g id="edge5" class="edge"><title>Node3&#45;&gt;Node6</title>
<path fill="none" stroke="midnightblue" d="M469.812,-881.404C492.49,-886.824 517.289,-892.752 539.219,-897.994"/>
<polygon fill="midnightblue" stroke="midnightblue" points="470.44,-877.955 459.9,-879.035 468.812,-884.764 470.44,-877.955"/>
</g>
<!-- Node9 -->
<g id="node9" class="node"><title>Node9</title>
<g id="a_node9"><a xlink:href="../../dd/dca/classfeatures_1_1_pen_width_slider_feature.html#aac6e7c0d0c6f5e1afde3d8a3c8e788e6" target="_top" xlink:title="features.PenWidthSliderFeature.\lPenWidthSliderFeature">
<polygon fill="white" stroke="black" points="518,-849 518,-879 688,-879 688,-849 518,-849"/>
<text text-anchor="start" x="526" y="-867" font-family="Helvetica,sans-Serif" font-size="10.00">features.PenWidthSliderFeature.</text>
<text text-anchor="middle" x="603" y="-856" font-family="Helvetica,sans-Serif" font-size="10.00">PenWidthSliderFeature</text>
</a>
</g>
</g>
<!-- Node3&#45;&gt;Node9 -->
<g id="edge11" class="edge"><title>Node3&#45;&gt;Node9</title>
<path fill="none" stroke="midnightblue" d="M492.428,-864C500.887,-864 509.411,-864 517.767,-864"/>
<polygon fill="midnightblue" stroke="midnightblue" points="492.158,-860.5 482.158,-864 492.157,-867.5 492.158,-860.5"/>
</g>
<!-- Node10 -->
<g id="node10" class="node"><title>Node10</title>
<g id="a_node10"><a xlink:href="../../de/d10/classfeatures_1_1_run_button_feature.html#ada33a09e0a0259486754b597f2d7b0c7" target="_top" xlink:title="features.RunButtonFeature.\lRunButtonFeature">
<polygon fill="white" stroke="black" points="529,-800 529,-830 677,-830 677,-800 529,-800"/>
<text text-anchor="start" x="537" y="-818" font-family="Helvetica,sans-Serif" font-size="10.00">features.RunButtonFeature.</text>
<text text-anchor="middle" x="603" y="-807" font-family="Helvetica,sans-Serif" font-size="10.00">RunButtonFeature</text>
</a>
</g>
</g>
<!-- Node3&#45;&gt;Node10 -->
<g id="edge12" class="edge"><title>Node3&#45;&gt;Node10</title>
<path fill="none" stroke="midnightblue" d="M469.812,-846.596C492.49,-841.176 517.289,-835.248 539.219,-830.006"/>
<polygon fill="midnightblue" stroke="midnightblue" points="468.812,-843.236 459.9,-848.965 470.44,-850.045 468.812,-843.236"/>
</g>
<!-- Node11 -->
<g id="node11" class="node"><title>Node11</title>
<g id="a_node11"><a xlink:href="../../d4/d3f/classcomponents_1_1_vars_tab.html#aa51dee8d24322ee37e4399858794ee8b" target="_top" xlink:title="components.VarsTab.setTab\lEditable">
<polygon fill="white" stroke="black" points="528,-751 528,-781 678,-781 678,-751 528,-751"/>
<text text-anchor="start" x="536" y="-769" font-family="Helvetica,sans-Serif" font-size="10.00">components.VarsTab.setTab</text>
<text text-anchor="middle" x="603" y="-758" font-family="Helvetica,sans-Serif" font-size="10.00">Editable</text>
</a>
</g>
</g>
<!-- Node3&#45;&gt;Node11 -->
<g id="edge13" class="edge"><title>Node3&#45;&gt;Node11</title>
<path fill="none" stroke="midnightblue" d="M472.971,-844.512C476.107,-842.823 479.133,-840.99 482,-839 503.908,-823.796 496.117,-806.239 518,-791 523.494,-787.174 529.581,-783.925 535.894,-781.167"/>
<polygon fill="midnightblue" stroke="midnightblue" points="471.371,-841.398 463.891,-848.901 474.417,-847.701 471.371,-841.398"/>
</g>
<!-- Node5 -->
<g id="node5" class="node"><title>Node5</title>
<g id="a_node5"><a xlink:href="../../d3/d04/classmain_application_1_1_g_u_i_shell.html#ac525a3e483dbe24e5f9f0257fe54521d" target="_top" xlink:title="mainApplication.GUIShell.\lGUIShell">
<polygon fill="white" stroke="black" points="1122,-898 1122,-928 1262,-928 1262,-898 1122,-898"/>
<text text-anchor="start" x="1130" y="-916" font-family="Helvetica,sans-Serif" font-size="10.00">mainApplication.GUIShell.</text>
<text text-anchor="middle" x="1192" y="-905" font-family="Helvetica,sans-Serif" font-size="10.00">GUIShell</text>
</a>
</g>
</g>
<!-- Node4&#45;&gt;Node5 -->
<g id="edge4" class="edge"><title>Node4&#45;&gt;Node5</title>
<path fill="none" stroke="midnightblue" d="M1076.64,-939.623C1093.11,-935.789 1110.43,-931.758 1126.46,-928.026"/>
<polygon fill="midnightblue" stroke="midnightblue" points="1075.46,-936.304 1066.51,-941.981 1077.05,-943.122 1075.46,-936.304"/>
</g>
<!-- Node7 -->
<g id="node7" class="node"><title>Node7</title>
<g id="a_node7"><a xlink:href="../../d3/de0/classmain_application_1_1_g_u_i.html#af6bd387013dbd1d1daf030117da66c0e" target="_top" xlink:title="mainApplication.GUI.initiate">
<polygon fill="white" stroke="black" points="727.5,-903.5 727.5,-922.5 876.5,-922.5 876.5,-903.5 727.5,-903.5"/>
<text text-anchor="middle" x="802" y="-910.5" font-family="Helvetica,sans-Serif" font-size="10.00">mainApplication.GUI.initiate</text>
</a>
</g>
</g>
<!-- Node6&#45;&gt;Node7 -->
<g id="edge6" class="edge"><title>Node6&#45;&gt;Node7</title>
<path fill="none" stroke="midnightblue" d="M687.662,-913C700.889,-913 714.48,-913 727.454,-913"/>
<polygon fill="midnightblue" stroke="midnightblue" points="687.636,-909.5 677.636,-913 687.636,-916.5 687.636,-909.5"/>
</g>
<!-- Node7&#45;&gt;Node4 -->
<g id="edge9" class="edge"><title>Node7&#45;&gt;Node4</title>
<path fill="none" stroke="midnightblue" d="M855.574,-924.742C879.206,-930.021 907.383,-936.314 932.548,-941.935"/>
<polygon fill="midnightblue" stroke="midnightblue" points="856.269,-921.311 845.746,-922.547 854.743,-928.143 856.269,-921.311"/>
</g>
<!-- Node7&#45;&gt;Node5 -->
<g id="edge10" class="edge"><title>Node7&#45;&gt;Node5</title>
<path fill="none" stroke="midnightblue" d="M887.041,-913C957.287,-913 1056.25,-913 1121.94,-913"/>
<polygon fill="midnightblue" stroke="midnightblue" points="886.893,-909.5 876.893,-913 886.893,-916.5 886.893,-909.5"/>
</g>
<!-- Node8 -->
<g id="node8" class="node"><title>Node8</title>
<g id="a_node8"><a xlink:href="../../d3/d04/classmain_application_1_1_g_u_i_shell.html#a9df214dfffdce7a39bc6ac5e84ca1f0f" target="_top" xlink:title="mainApplication.GUIShell.create\lNewButton">
<polygon fill="white" stroke="black" points="916,-854 916,-884 1086,-884 1086,-854 916,-854"/>
<text text-anchor="start" x="924" y="-872" font-family="Helvetica,sans-Serif" font-size="10.00">mainApplication.GUIShell.create</text>
<text text-anchor="middle" x="1001" y="-861" font-family="Helvetica,sans-Serif" font-size="10.00">NewButton</text>
</a>
</g>
</g>
<!-- Node7&#45;&gt;Node8 -->
<g id="edge7" class="edge"><title>Node7&#45;&gt;Node8</title>
<path fill="none" stroke="midnightblue" d="M855.574,-901.258C879.206,-895.979 907.383,-889.686 932.548,-884.065"/>
<polygon fill="midnightblue" stroke="midnightblue" points="854.743,-897.857 845.746,-903.453 856.269,-904.689 854.743,-897.857"/>
</g>
<!-- Node8&#45;&gt;Node5 -->
<g id="edge8" class="edge"><title>Node8&#45;&gt;Node5</title>
<path fill="none" stroke="midnightblue" d="M1076.64,-886.377C1093.11,-890.211 1110.43,-894.242 1126.46,-897.974"/>
<polygon fill="midnightblue" stroke="midnightblue" points="1077.05,-882.878 1066.51,-884.019 1075.46,-889.696 1077.05,-882.878"/>
</g>
<!-- Node12 -->
<g id="node12" class="node"><title>Node12</title>
<g id="a_node12"><a xlink:href="../../d4/d3f/classcomponents_1_1_vars_tab.html#a1e48c3f7ead529596e018a72cd6ef159" target="_top" xlink:title="components.VarsTab.VarsTab">
<polygon fill="white" stroke="black" points="724,-756.5 724,-775.5 880,-775.5 880,-756.5 724,-756.5"/>
<text text-anchor="middle" x="802" y="-763.5" font-family="Helvetica,sans-Serif" font-size="10.00">components.VarsTab.VarsTab</text>
</a>
</g>
</g>
<!-- Node11&#45;&gt;Node12 -->
<g id="edge14" class="edge"><title>Node11&#45;&gt;Node12</title>
<path fill="none" stroke="midnightblue" d="M688.458,-766C700.235,-766 712.285,-766 723.916,-766"/>
<polygon fill="midnightblue" stroke="midnightblue" points="688.197,-762.5 678.197,-766 688.197,-769.5 688.197,-762.5"/>
</g>
</g>
</svg>
