<?xml version="1.0" encoding="UTF-8" standalone="no"?>
<!DOCTYPE svg PUBLIC "-//W3C//DTD SVG 1.1//EN"
 "http://www.w3.org/Graphics/SVG/1.1/DTD/svg11.dtd">
<!-- Generated by graphviz version 2.36.0 (20140111.2315)
 -->
<!-- Title: parser.Parser.parse Pages: 1 -->
<!--zoomable 980 -->
<svg id="main" version="1.1" xmlns="http://www.w3.org/2000/svg" xmlns:xlink="http://www.w3.org/1999/xlink" xml:space="preserve" onload="init(evt)">
<style type="text/css"><![CDATA[
.edge:hover path { stroke: red; }
.edge:hover polygon { stroke: red; fill: red; }
]]></style>
<script type="text/javascript"><![CDATA[
var edges = document.getElementsByTagName('g');
if (edges && edges.length) {
  for (var i=0;i<edges.length;i++) {
    if (edges[i].id.substr(0,4)=='edge') {
      edges[i].setAttribute('class','edge');
    }
  }
}
]]></script>
        <defs>
                <circle id="rim" cx="0" cy="0" r="7"/>
                <circle id="rim2" cx="0" cy="0" r="3.5"/>
                <g id="zoomPlus">
                        <use xlink:href="#rim" fill="#404040">
                                <set attributeName="fill" to="#808080" begin="zoomplus.mouseover" end="zoomplus.mouseout"/>
                        </use>
                        <path d="M-4,0h8M0,-4v8" fill="none" stroke="white" stroke-width="1.5" pointer-events="none"/>
                </g>
                <g id="zoomMin">
                        <use xlink:href="#rim" fill="#404040">
                                <set attributeName="fill" to="#808080" begin="zoomminus.mouseover" end="zoomminus.mouseout"/>
                        </use>
                        <path d="M-4,0h8" fill="none" stroke="white" stroke-width="1.5" pointer-events="none"/>
                </g>
                <g id="dirArrow">
                        <path fill="none" stroke="white" stroke-width="1.5" d="M0,-3.0v7 M-2.5,-0.5L0,-3.0L2.5,-0.5"/>
                </g>
               <g id="resetDef">
                       <use xlink:href="#rim2" fill="#404040">
                               <set attributeName="fill" to="#808080" begin="reset.mouseover" end="reset.mouseout"/>
                       </use>
               </g>
        </defs>

<script type="text/javascript">
var viewWidth = 1106;
var viewHeight = 980;
var sectionId = 'dynsection-8';
</script>
<script xlink:href="../../svgpan.js"/>
<svg id="graph" class="graph">
<g id="viewport">
<title>parser.Parser.parse</title>
<polygon fill="white" stroke="none" points="-4,4 -4,-976 1102,-976 1102,4 -4,4"/>
<!-- Node1 -->
<g id="node1" class="node"><title>Node1</title>
<polygon fill="#bfbfbf" stroke="black" points="0.5,-418.5 0.5,-437.5 109.5,-437.5 109.5,-418.5 0.5,-418.5"/>
<text text-anchor="middle" x="55" y="-425.5" font-family="Helvetica,sans-Serif" font-size="10.00">parser.Parser.parse</text>
</g>
<!-- Node2 -->
<g id="node2" class="node"><title>Node2</title>
<g id="a_node2"><a xlink:href="../../d7/da1/classmain_application_1_1_controller.html#a6e9afc2e53e6adb01a2b73794a319b63" target="_top" xlink:title="mainApplication.Controller.parse\lAndEvaluate">
<polygon fill="white" stroke="black" points="146,-849 146,-879 318,-879 318,-849 146,-849"/>
<text text-anchor="start" x="154" y="-867" font-family="Helvetica,sans-Serif" font-size="10.00">mainApplication.Controller.parse</text>
<text text-anchor="middle" x="232" y="-856" font-family="Helvetica,sans-Serif" font-size="10.00">AndEvaluate</text>
</a>
</g>
</g>
<!-- Node1&#45;&gt;Node2 -->
<g id="edge1" class="edge"><title>Node1&#45;&gt;Node2</title>
<path fill="none" stroke="midnightblue" d="M57.6983,-447.815C64.4239,-521.79 91.5214,-780.54 146,-839 149.565,-842.826 153.683,-846.077 158.144,-848.838"/>
<polygon fill="midnightblue" stroke="midnightblue" points="61.1612,-447.241 56.7927,-437.588 54.1884,-447.858 61.1612,-447.241"/>
</g>
<!-- Node12 -->
<g id="node12" class="node"><title>Node12</title>
<g id="a_node12"><a xlink:href="../../de/d33/classparser_1_1_test_parser.html#a3f8cee68556948d08c53a574a72c8356" target="_top" xlink:title="parser.TestParser.TestBoolean">
<polygon fill="white" stroke="black" points="153,-810.5 153,-829.5 311,-829.5 311,-810.5 153,-810.5"/>
<text text-anchor="middle" x="232" y="-817.5" font-family="Helvetica,sans-Serif" font-size="10.00">parser.TestParser.TestBoolean</text>
</a>
</g>
</g>
<!-- Node1&#45;&gt;Node12 -->
<g id="edge14" class="edge"><title>Node1&#45;&gt;Node12</title>
<path fill="none" stroke="midnightblue" d="M58.0496,-447.878C65.6508,-517.715 94.4814,-750.342 146,-801 149.881,-804.817 154.352,-807.936 159.17,-810.478"/>
<polygon fill="midnightblue" stroke="midnightblue" points="61.5145,-447.362 56.9773,-437.788 54.5537,-448.101 61.5145,-447.362"/>
</g>
<!-- Node13 -->
<g id="node13" class="node"><title>Node13</title>
<g id="a_node13"><a xlink:href="../../de/d33/classparser_1_1_test_parser.html#ae799f71307e31127e497d20afdc506ec" target="_top" xlink:title="parser.TestParser.TestDif">
<polygon fill="white" stroke="black" points="166,-772.5 166,-791.5 298,-791.5 298,-772.5 166,-772.5"/>
<text text-anchor="middle" x="232" y="-779.5" font-family="Helvetica,sans-Serif" font-size="10.00">parser.TestParser.TestDif</text>
</a>
</g>
</g>
<!-- Node1&#45;&gt;Node13 -->
<g id="edge15" class="edge"><title>Node1&#45;&gt;Node13</title>
<path fill="none" stroke="midnightblue" d="M58.6378,-447.929C67.6619,-513.102 99.3433,-718.287 146,-763 151.677,-768.44 158.555,-772.455 165.911,-775.398"/>
<polygon fill="midnightblue" stroke="midnightblue" points="62.0721,-447.208 57.2591,-437.769 55.1357,-448.149 62.0721,-447.208"/>
</g>
<!-- Node14 -->
<g id="node14" class="node"><title>Node14</title>
<g id="a_node14"><a xlink:href="../../de/d33/classparser_1_1_test_parser.html#ad6cc42523d881f5a69c5cf307364ce38" target="_top" xlink:title="parser.TestParser.TestFor">
<polygon fill="white" stroke="black" points="165,-734.5 165,-753.5 299,-753.5 299,-734.5 165,-734.5"/>
<text text-anchor="middle" x="232" y="-741.5" font-family="Helvetica,sans-Serif" font-size="10.00">parser.TestParser.TestFor</text>
</a>
</g>
</g>
<!-- Node1&#45;&gt;Node14 -->
<g id="edge16" class="edge"><title>Node1&#45;&gt;Node14</title>
<path fill="none" stroke="midnightblue" d="M55.6451,-447.913C55.8425,-501.354 64.1483,-649.016 146,-725 151.43,-730.041 157.896,-733.848 164.801,-736.709"/>
<polygon fill="midnightblue" stroke="midnightblue" points="59.146,-447.758 55.7067,-437.737 52.1461,-447.715 59.146,-447.758"/>
</g>
<!-- Node15 -->
<g id="node15" class="node"><title>Node15</title>
<g id="a_node15"><a xlink:href="../../de/d33/classparser_1_1_test_parser.html#a616e3d3359a2feaf24149915c6aea8c8" target="_top" xlink:title="parser.TestParser.TestForward">
<polygon fill="white" stroke="black" points="153.5,-696.5 153.5,-715.5 310.5,-715.5 310.5,-696.5 153.5,-696.5"/>
<text text-anchor="middle" x="232" y="-703.5" font-family="Helvetica,sans-Serif" font-size="10.00">parser.TestParser.TestForward</text>
</a>
</g>
</g>
<!-- Node1&#45;&gt;Node15 -->
<g id="edge17" class="edge"><title>Node1&#45;&gt;Node15</title>
<path fill="none" stroke="midnightblue" d="M56.6541,-447.622C59.3839,-496.112 73.4681,-622.333 146,-687 150.289,-690.824 155.177,-693.931 160.393,-696.45"/>
<polygon fill="midnightblue" stroke="midnightblue" points="60.1459,-447.36 56.1923,-437.531 53.1532,-447.68 60.1459,-447.36"/>
</g>
<!-- Node16 -->
<g id="node16" class="node"><title>Node16</title>
<g id="a_node16"><a xlink:href="../../de/d33/classparser_1_1_test_parser.html#a39be8e4aca3871ce6f29a482a52bcd71" target="_top" xlink:title="parser.TestParser.TestIf">
<polygon fill="white" stroke="black" points="169.5,-658.5 169.5,-677.5 294.5,-677.5 294.5,-658.5 169.5,-658.5"/>
<text text-anchor="middle" x="232" y="-665.5" font-family="Helvetica,sans-Serif" font-size="10.00">parser.TestParser.TestIf</text>
</a>
</g>
</g>
<!-- Node1&#45;&gt;Node16 -->
<g id="edge18" class="edge"><title>Node1&#45;&gt;Node16</title>
<path fill="none" stroke="midnightblue" d="M58.0198,-447.941C63.5456,-491.543 82.9884,-595.711 146,-649 152.697,-654.663 160.722,-658.736 169.13,-661.647"/>
<polygon fill="midnightblue" stroke="midnightblue" points="61.4711,-447.317 56.8506,-437.783 54.517,-448.117 61.4711,-447.317"/>
</g>
<!-- Node17 -->
<g id="node17" class="node"><title>Node17</title>
<g id="a_node17"><a xlink:href="../../de/d33/classparser_1_1_test_parser.html#ac22ad278ed612557e83ed90884fedff4" target="_top" xlink:title="parser.TestParser.TestIfElse">
<polygon fill="white" stroke="black" points="160,-620.5 160,-639.5 304,-639.5 304,-620.5 160,-620.5"/>
<text text-anchor="middle" x="232" y="-627.5" font-family="Helvetica,sans-Serif" font-size="10.00">parser.TestParser.TestIfElse</text>
</a>
</g>
</g>
<!-- Node1&#45;&gt;Node17 -->
<g id="edge19" class="edge"><title>Node1&#45;&gt;Node17</title>
<path fill="none" stroke="midnightblue" d="M59.8003,-447.607C68.2053,-485.447 92.0651,-568.548 146,-611 150.872,-614.834 156.363,-617.928 162.151,-620.42"/>
<polygon fill="midnightblue" stroke="midnightblue" points="63.2235,-446.878 57.7489,-437.807 56.372,-448.312 63.2235,-446.878"/>
</g>
<!-- Node18 -->
<g id="node18" class="node"><title>Node18</title>
<g id="a_node18"><a xlink:href="../../de/d33/classparser_1_1_test_parser.html#a914384055dd7ca9ea5c617ab0bb5e0c0" target="_top" xlink:title="parser.TestParser.TestMake">
<polygon fill="white" stroke="black" points="159.5,-582.5 159.5,-601.5 304.5,-601.5 304.5,-582.5 159.5,-582.5"/>
<text text-anchor="middle" x="232" y="-589.5" font-family="Helvetica,sans-Serif" font-size="10.00">parser.TestParser.TestMake</text>
</a>
</g>
</g>
<!-- Node1&#45;&gt;Node18 -->
<g id="edge20" class="edge"><title>Node1&#45;&gt;Node18</title>
<path fill="none" stroke="midnightblue" d="M62.4181,-447.405C73.9011,-478.961 101.056,-541.076 146,-573 151.424,-576.853 157.495,-579.943 163.829,-582.418"/>
<polygon fill="midnightblue" stroke="midnightblue" points="65.603,-445.908 59.0066,-437.617 58.993,-448.212 65.603,-445.908"/>
</g>
<!-- Node19 -->
<g id="node19" class="node"><title>Node19</title>
<g id="a_node19"><a xlink:href="../../de/d33/classparser_1_1_test_parser.html#af2b64ced840e8e10f33f74dce480218a" target="_top" xlink:title="parser.TestParser.TestMinus">
<polygon fill="white" stroke="black" points="158.5,-544.5 158.5,-563.5 305.5,-563.5 305.5,-544.5 158.5,-544.5"/>
<text text-anchor="middle" x="232" y="-551.5" font-family="Helvetica,sans-Serif" font-size="10.00">parser.TestParser.TestMinus</text>
</a>
</g>
</g>
<!-- Node1&#45;&gt;Node19 -->
<g id="edge21" class="edge"><title>Node1&#45;&gt;Node19</title>
<path fill="none" stroke="midnightblue" d="M66.5292,-446.54C81.1688,-470.562 109.981,-511.967 146,-534 153.113,-538.351 161.093,-541.755 169.239,-544.419"/>
<polygon fill="midnightblue" stroke="midnightblue" points="69.4041,-444.525 61.3034,-437.697 63.3777,-448.086 69.4041,-444.525"/>
</g>
<!-- Node20 -->
<g id="node20" class="node"><title>Node20</title>
<g id="a_node20"><a xlink:href="../../d8/dc3/classparser_1_1_test_model.html#ac4fd1124818e321c4a686cc1cf973254" target="_top" xlink:title="parser.TestModel.testParse\lException">
<polygon fill="white" stroke="black" points="159.5,-495 159.5,-525 304.5,-525 304.5,-495 159.5,-495"/>
<text text-anchor="start" x="167.5" y="-513" font-family="Helvetica,sans-Serif" font-size="10.00">parser.TestModel.testParse</text>
<text text-anchor="middle" x="232" y="-502" font-family="Helvetica,sans-Serif" font-size="10.00">Exception</text>
</a>
</g>
</g>
<!-- Node1&#45;&gt;Node20 -->
<g id="edge22" class="edge"><title>Node1&#45;&gt;Node20</title>
<path fill="none" stroke="midnightblue" d="M77.1643,-443.801C94.8205,-456.379 121.037,-473.693 146,-485 154.127,-488.681 162.934,-491.977 171.697,-494.874"/>
<polygon fill="midnightblue" stroke="midnightblue" points="78.9143,-440.746 68.7635,-437.711 74.806,-446.414 78.9143,-440.746"/>
</g>
<!-- Node21 -->
<g id="node21" class="node"><title>Node21</title>
<g id="a_node21"><a xlink:href="../../d8/dc3/classparser_1_1_test_model.html#ab542659caca299017b423f7b3b3f648a" target="_top" xlink:title="parser.TestModel.testPosition">
<polygon fill="white" stroke="black" points="154,-456.5 154,-475.5 310,-475.5 310,-456.5 154,-456.5"/>
<text text-anchor="middle" x="232" y="-463.5" font-family="Helvetica,sans-Serif" font-size="10.00">parser.TestModel.testPosition</text>
</a>
</g>
</g>
<!-- Node1&#45;&gt;Node21 -->
<g id="edge23" class="edge"><title>Node1&#45;&gt;Node21</title>
<path fill="none" stroke="midnightblue" d="M110.124,-439.753C134.869,-445.126 163.803,-451.409 187.158,-456.48"/>
<polygon fill="midnightblue" stroke="midnightblue" points="110.675,-436.291 100.16,-437.589 109.189,-443.131 110.675,-436.291"/>
</g>
<!-- Node22 -->
<g id="node22" class="node"><title>Node22</title>
<g id="a_node22"><a xlink:href="../../de/d33/classparser_1_1_test_parser.html#ada92f24240fae7dfec207bad127e31e7" target="_top" xlink:title="parser.TestParser.TestPow">
<polygon fill="white" stroke="black" points="163,-418.5 163,-437.5 301,-437.5 301,-418.5 163,-418.5"/>
<text text-anchor="middle" x="232" y="-425.5" font-family="Helvetica,sans-Serif" font-size="10.00">parser.TestParser.TestPow</text>
</a>
</g>
</g>
<!-- Node1&#45;&gt;Node22 -->
<g id="edge24" class="edge"><title>Node1&#45;&gt;Node22</title>
<path fill="none" stroke="midnightblue" d="M120.305,-428C134.111,-428 148.748,-428 162.7,-428"/>
<polygon fill="midnightblue" stroke="midnightblue" points="119.934,-424.5 109.934,-428 119.934,-431.5 119.934,-424.5"/>
</g>
<!-- Node23 -->
<g id="node23" class="node"><title>Node23</title>
<g id="a_node23"><a xlink:href="../../de/d33/classparser_1_1_test_parser.html#a8844bf15d0fe9e809fb466cb35b0ae20" target="_top" xlink:title="parser.TestParser.TestProd">
<polygon fill="white" stroke="black" points="161.5,-380.5 161.5,-399.5 302.5,-399.5 302.5,-380.5 161.5,-380.5"/>
<text text-anchor="middle" x="232" y="-387.5" font-family="Helvetica,sans-Serif" font-size="10.00">parser.TestParser.TestProd</text>
</a>
</g>
</g>
<!-- Node1&#45;&gt;Node23 -->
<g id="edge25" class="edge"><title>Node1&#45;&gt;Node23</title>
<path fill="none" stroke="midnightblue" d="M110.124,-416.247C134.869,-410.874 163.803,-404.591 187.158,-399.52"/>
<polygon fill="midnightblue" stroke="midnightblue" points="109.189,-412.869 100.16,-418.411 110.675,-419.709 109.189,-412.869"/>
</g>
<!-- Node24 -->
<g id="node24" class="node"><title>Node24</title>
<g id="a_node24"><a xlink:href="../../de/d33/classparser_1_1_test_parser.html#a9bcfbde1999d45577d42211fcd593121" target="_top" xlink:title="parser.TestParser.TestQuotient">
<polygon fill="white" stroke="black" points="151.5,-342.5 151.5,-361.5 312.5,-361.5 312.5,-342.5 151.5,-342.5"/>
<text text-anchor="middle" x="232" y="-349.5" font-family="Helvetica,sans-Serif" font-size="10.00">parser.TestParser.TestQuotient</text>
</a>
</g>
</g>
<!-- Node1&#45;&gt;Node24 -->
<g id="edge26" class="edge"><title>Node1&#45;&gt;Node24</title>
<path fill="none" stroke="midnightblue" d="M76.371,-412.198C93.9155,-399.322 120.386,-381.596 146,-371 155.222,-367.185 165.339,-364.074 175.276,-361.558"/>
<polygon fill="midnightblue" stroke="midnightblue" points="73.9647,-409.627 68.0618,-418.425 78.1629,-415.229 73.9647,-409.627"/>
</g>
<!-- Node25 -->
<g id="node25" class="node"><title>Node25</title>
<g id="a_node25"><a xlink:href="../../de/d33/classparser_1_1_test_parser.html#ac13478be4d51a5b8db30db117f6098c8" target="_top" xlink:title="parser.TestParser.TestRandom">
<polygon fill="white" stroke="black" points="152.5,-304.5 152.5,-323.5 311.5,-323.5 311.5,-304.5 152.5,-304.5"/>
<text text-anchor="middle" x="232" y="-311.5" font-family="Helvetica,sans-Serif" font-size="10.00">parser.TestParser.TestRandom</text>
</a>
</g>
</g>
<!-- Node1&#45;&gt;Node25 -->
<g id="edge27" class="edge"><title>Node1&#45;&gt;Node25</title>
<path fill="none" stroke="midnightblue" d="M67.8675,-410.067C83.2376,-388.331 112.113,-352.23 146,-333 152.839,-329.119 160.406,-326.031 168.124,-323.574"/>
<polygon fill="midnightblue" stroke="midnightblue" points="64.9116,-408.189 62.1319,-418.412 70.6805,-412.154 64.9116,-408.189"/>
</g>
<!-- Node26 -->
<g id="node26" class="node"><title>Node26</title>
<g id="a_node26"><a xlink:href="../../de/d33/classparser_1_1_test_parser.html#a3ab06721c75424d63da6d4380ae7ad5e" target="_top" xlink:title="parser.TestParser.TestRecursion">
<polygon fill="white" stroke="black" points="149.5,-266.5 149.5,-285.5 314.5,-285.5 314.5,-266.5 149.5,-266.5"/>
<text text-anchor="middle" x="232" y="-273.5" font-family="Helvetica,sans-Serif" font-size="10.00">parser.TestParser.TestRecursion</text>
</a>
</g>
</g>
<!-- Node1&#45;&gt;Node26 -->
<g id="edge28" class="edge"><title>Node1&#45;&gt;Node26</title>
<path fill="none" stroke="midnightblue" d="M63.3987,-408.955C75.8173,-379.628 103.722,-323.793 146,-295 151.624,-291.17 157.897,-288.099 164.418,-285.639"/>
<polygon fill="midnightblue" stroke="midnightblue" points="60.0575,-407.88 59.5261,-418.461 66.5402,-410.52 60.0575,-407.88"/>
</g>
<!-- Node27 -->
<g id="node27" class="node"><title>Node27</title>
<g id="a_node27"><a xlink:href="../../de/d33/classparser_1_1_test_parser.html#acd110a622f9ac5ef4b4246ea997ec102" target="_top" xlink:title="parser.TestParser.TestRemainder">
<polygon fill="white" stroke="black" points="147,-228.5 147,-247.5 317,-247.5 317,-228.5 147,-228.5"/>
<text text-anchor="middle" x="232" y="-235.5" font-family="Helvetica,sans-Serif" font-size="10.00">parser.TestParser.TestRemainder</text>
</a>
</g>
</g>
<!-- Node1&#45;&gt;Node27 -->
<g id="edge29" class="edge"><title>Node1&#45;&gt;Node27</title>
<path fill="none" stroke="midnightblue" d="M60.4525,-408.69C69.7643,-372.858 94.8105,-296.167 146,-257 151.044,-253.141 156.721,-250.036 162.687,-247.543"/>
<polygon fill="midnightblue" stroke="midnightblue" points="57.0512,-407.865 58.0563,-418.412 63.8478,-409.54 57.0512,-407.865"/>
</g>
<!-- Node28 -->
<g id="node28" class="node"><title>Node28</title>
<g id="a_node28"><a xlink:href="../../de/d33/classparser_1_1_test_parser.html#a7861269b842fcf079433cbe0a933e8db" target="_top" xlink:title="parser.TestParser.TestRepeat">
<polygon fill="white" stroke="black" points="156,-190.5 156,-209.5 308,-209.5 308,-190.5 156,-190.5"/>
<text text-anchor="middle" x="232" y="-197.5" font-family="Helvetica,sans-Serif" font-size="10.00">parser.TestParser.TestRepeat</text>
</a>
</g>
</g>
<!-- Node1&#45;&gt;Node28 -->
<g id="edge30" class="edge"><title>Node1&#45;&gt;Node28</title>
<path fill="none" stroke="midnightblue" d="M58.5052,-408.274C64.9011,-366.504 85.8164,-268.879 146,-219 150.657,-215.14 155.934,-212.023 161.523,-209.51"/>
<polygon fill="midnightblue" stroke="midnightblue" points="55.0257,-407.884 57.093,-418.275 61.9569,-408.863 55.0257,-407.884"/>
</g>
<!-- Node29 -->
<g id="node29" class="node"><title>Node29</title>
<g id="a_node29"><a xlink:href="../../de/d33/classparser_1_1_test_parser.html#a2211bce31efddb4c523112a488c02e92" target="_top" xlink:title="parser.TestParser.TestSum">
<polygon fill="white" stroke="black" points="161,-152.5 161,-171.5 303,-171.5 303,-152.5 161,-152.5"/>
<text text-anchor="middle" x="232" y="-159.5" font-family="Helvetica,sans-Serif" font-size="10.00">parser.TestParser.TestSum</text>
</a>
</g>
</g>
<!-- Node1&#45;&gt;Node29 -->
<g id="edge31" class="edge"><title>Node1&#45;&gt;Node29</title>
<path fill="none" stroke="midnightblue" d="M57.0356,-408.332C60.6175,-361.369 76.4607,-242.07 146,-181 150.431,-177.109 155.485,-173.962 160.869,-171.423"/>
<polygon fill="midnightblue" stroke="midnightblue" points="53.5373,-408.193 56.3764,-418.4 60.5223,-408.65 53.5373,-408.193"/>
</g>
<!-- Node30 -->
<g id="node30" class="node"><title>Node30</title>
<g id="a_node30"><a xlink:href="../../de/d33/classparser_1_1_test_parser.html#aac27b9d8c48ae78dd9252dd65be9aeea" target="_top" xlink:title="parser.TestParser.TestSum2">
<polygon fill="white" stroke="black" points="158,-114.5 158,-133.5 306,-133.5 306,-114.5 158,-114.5"/>
<text text-anchor="middle" x="232" y="-121.5" font-family="Helvetica,sans-Serif" font-size="10.00">parser.TestParser.TestSum2</text>
</a>
</g>
</g>
<!-- Node1&#45;&gt;Node30 -->
<g id="edge32" class="edge"><title>Node1&#45;&gt;Node30</title>
<path fill="none" stroke="midnightblue" d="M55.9396,-408.197C56.9188,-356.305 67.0912,-215.401 146,-143 150.122,-139.218 154.829,-136.132 159.864,-133.62"/>
<polygon fill="midnightblue" stroke="midnightblue" points="52.4383,-408.344 55.8494,-418.375 59.438,-408.406 52.4383,-408.344"/>
</g>
<!-- Node31 -->
<g id="node31" class="node"><title>Node31</title>
<g id="a_node31"><a xlink:href="../../de/d33/classparser_1_1_test_parser.html#a93efc93146678909fa1c24a6727460ae" target="_top" xlink:title="parser.TestParser.TestTo">
<polygon fill="white" stroke="black" points="167.5,-76.5 167.5,-95.5 296.5,-95.5 296.5,-76.5 167.5,-76.5"/>
<text text-anchor="middle" x="232" y="-83.5" font-family="Helvetica,sans-Serif" font-size="10.00">parser.TestParser.TestTo</text>
</a>
</g>
</g>
<!-- Node1&#45;&gt;Node31 -->
<g id="edge33" class="edge"><title>Node1&#45;&gt;Node31</title>
<path fill="none" stroke="midnightblue" d="M58.8062,-408.36C68.2439,-345.045 100.8,-147.916 146,-105 152.031,-99.2736 159.394,-95.1308 167.238,-92.1554"/>
<polygon fill="midnightblue" stroke="midnightblue" points="55.3431,-407.854 57.3585,-418.256 62.2694,-408.868 55.3431,-407.854"/>
</g>
<!-- Node32 -->
<g id="node32" class="node"><title>Node32</title>
<g id="a_node32"><a xlink:href="../../de/d33/classparser_1_1_test_parser.html#aa7724ec4a132ca195c3bd3ee1c81ad73" target="_top" xlink:title="parser.TestParser.TestTrig">
<polygon fill="white" stroke="black" points="164.5,-38.5 164.5,-57.5 299.5,-57.5 299.5,-38.5 164.5,-38.5"/>
<text text-anchor="middle" x="232" y="-45.5" font-family="Helvetica,sans-Serif" font-size="10.00">parser.TestParser.TestTrig</text>
</a>
</g>
</g>
<!-- Node1&#45;&gt;Node32 -->
<g id="edge34" class="edge"><title>Node1&#45;&gt;Node32</title>
<path fill="none" stroke="midnightblue" d="M58.248,-407.886C66.3249,-339.235 96.0734,-115.722 146,-67 151.195,-61.9307 157.429,-58.0945 164.132,-55.2071"/>
<polygon fill="midnightblue" stroke="midnightblue" points="54.7295,-407.848 57.0642,-418.182 61.6837,-408.647 54.7295,-407.848"/>
</g>
<!-- Node33 -->
<g id="node33" class="node"><title>Node33</title>
<g id="a_node33"><a xlink:href="../../d8/dc3/classparser_1_1_test_model.html#a023bd16aca0a843ec8f4772c96ec2ffb" target="_top" xlink:title="parser.TestModel.testWrite">
<polygon fill="white" stroke="black" points="161,-0.5 161,-19.5 303,-19.5 303,-0.5 161,-0.5"/>
<text text-anchor="middle" x="232" y="-7.5" font-family="Helvetica,sans-Serif" font-size="10.00">parser.TestModel.testWrite</text>
</a>
</g>
</g>
<!-- Node1&#45;&gt;Node33 -->
<g id="edge35" class="edge"><title>Node1&#45;&gt;Node33</title>
<path fill="none" stroke="midnightblue" d="M57.7095,-408.172C64.393,-335.309 91.1349,-83.7589 146,-29 150.281,-24.7272 155.299,-21.3259 160.72,-18.6279"/>
<polygon fill="midnightblue" stroke="midnightblue" points="54.2108,-408.003 56.8078,-418.274 61.1831,-408.625 54.2108,-408.003"/>
</g>
<!-- Node3 -->
<g id="node3" class="node"><title>Node3</title>
<g id="a_node3"><a xlink:href="../../d3/d04/classmain_application_1_1_g_u_i_shell.html#af2f106fa7786f13ccc0202db53b559b9" target="_top" xlink:title="mainApplication.GUIShell.create\lOpenButton">
<polygon fill="white" stroke="black" points="752,-942 752,-972 922,-972 922,-942 752,-942"/>
<text text-anchor="start" x="760" y="-960" font-family="Helvetica,sans-Serif" font-size="10.00">mainApplication.GUIShell.create</text>
<text text-anchor="middle" x="837" y="-949" font-family="Helvetica,sans-Serif" font-size="10.00">OpenButton</text>
</a>
</g>
</g>
<!-- Node2&#45;&gt;Node3 -->
<g id="edge2" class="edge"><title>Node2&#45;&gt;Node3</title>
<path fill="none" stroke="midnightblue" d="M259.276,-885.242C282.608,-902.723 318.428,-926.301 354,-937 488.541,-977.465 653.723,-973.487 751.619,-965.935"/>
<polygon fill="midnightblue" stroke="midnightblue" points="261.337,-882.412 251.269,-879.113 257.082,-887.97 261.337,-882.412"/>
</g>
<!-- Node5 -->
<g id="node5" class="node"><title>Node5</title>
<g id="a_node5"><a xlink:href="../../d3/de0/classmain_application_1_1_g_u_i.html#a60b2e396c945ac173bfd82f207f42000" target="_top" xlink:title="mainApplication.GUI.initiate\lKeyPress">
<polygon fill="white" stroke="black" points="364.5,-898 364.5,-928 513.5,-928 513.5,-898 364.5,-898"/>
<text text-anchor="start" x="372.5" y="-916" font-family="Helvetica,sans-Serif" font-size="10.00">mainApplication.GUI.initiate</text>
<text text-anchor="middle" x="439" y="-905" font-family="Helvetica,sans-Serif" font-size="10.00">KeyPress</text>
</a>
</g>
</g>
<!-- Node2&#45;&gt;Node5 -->
<g id="edge4" class="edge"><title>Node2&#45;&gt;Node5</title>
<path fill="none" stroke="midnightblue" d="M305.812,-881.404C328.49,-886.824 353.289,-892.752 375.219,-897.994"/>
<polygon fill="midnightblue" stroke="midnightblue" points="306.44,-877.955 295.9,-879.035 304.812,-884.764 306.44,-877.955"/>
</g>
<!-- Node8 -->
<g id="node8" class="node"><title>Node8</title>
<g id="a_node8"><a xlink:href="../../dd/dca/classfeatures_1_1_pen_width_slider_feature.html#aac6e7c0d0c6f5e1afde3d8a3c8e788e6" target="_top" xlink:title="features.PenWidthSliderFeature.\lPenWidthSliderFeature">
<polygon fill="white" stroke="black" points="354,-849 354,-879 524,-879 524,-849 354,-849"/>
<text text-anchor="start" x="362" y="-867" font-family="Helvetica,sans-Serif" font-size="10.00">features.PenWidthSliderFeature.</text>
<text text-anchor="middle" x="439" y="-856" font-family="Helvetica,sans-Serif" font-size="10.00">PenWidthSliderFeature</text>
</a>
</g>
</g>
<!-- Node2&#45;&gt;Node8 -->
<g id="edge10" class="edge"><title>Node2&#45;&gt;Node8</title>
<path fill="none" stroke="midnightblue" d="M328.428,-864C336.887,-864 345.411,-864 353.767,-864"/>
<polygon fill="midnightblue" stroke="midnightblue" points="328.158,-860.5 318.158,-864 328.157,-867.5 328.158,-860.5"/>
</g>
<!-- Node9 -->
<g id="node9" class="node"><title>Node9</title>
<g id="a_node9"><a xlink:href="../../de/d10/classfeatures_1_1_run_button_feature.html#ada33a09e0a0259486754b597f2d7b0c7" target="_top" xlink:title="features.RunButtonFeature.\lRunButtonFeature">
<polygon fill="white" stroke="black" points="365,-800 365,-830 513,-830 513,-800 365,-800"/>
<text text-anchor="start" x="373" y="-818" font-family="Helvetica,sans-Serif" font-size="10.00">features.RunButtonFeature.</text>
<text text-anchor="middle" x="439" y="-807" font-family="Helvetica,sans-Serif" font-size="10.00">RunButtonFeature</text>
</a>
</g>
</g>
<!-- Node2&#45;&gt;Node9 -->
<g id="edge11" class="edge"><title>Node2&#45;&gt;Node9</title>
<path fill="none" stroke="midnightblue" d="M305.812,-846.596C328.49,-841.176 353.289,-835.248 375.219,-830.006"/>
<polygon fill="midnightblue" stroke="midnightblue" points="304.812,-843.236 295.9,-848.965 306.44,-850.045 304.812,-843.236"/>
</g>
<!-- Node10 -->
<g id="node10" class="node"><title>Node10</title>
<g id="a_node10"><a xlink:href="../../d4/d3f/classcomponents_1_1_vars_tab.html#aa51dee8d24322ee37e4399858794ee8b" target="_top" xlink:title="components.VarsTab.setTab\lEditable">
<polygon fill="white" stroke="black" points="364,-751 364,-781 514,-781 514,-751 364,-751"/>
<text text-anchor="start" x="372" y="-769" font-family="Helvetica,sans-Serif" font-size="10.00">components.VarsTab.setTab</text>
<text text-anchor="middle" x="439" y="-758" font-family="Helvetica,sans-Serif" font-size="10.00">Editable</text>
</a>
</g>
</g>
<!-- Node2&#45;&gt;Node10 -->
<g id="edge12" class="edge"><title>Node2&#45;&gt;Node10</title>
<path fill="none" stroke="midnightblue" d="M308.971,-844.512C312.107,-842.823 315.133,-840.99 318,-839 339.908,-823.796 332.117,-806.239 354,-791 359.494,-787.174 365.581,-783.925 371.894,-781.167"/>
<polygon fill="midnightblue" stroke="midnightblue" points="307.371,-841.398 299.891,-848.901 310.417,-847.701 307.371,-841.398"/>
</g>
<!-- Node4 -->
<g id="node4" class="node"><title>Node4</title>
<g id="a_node4"><a xlink:href="../../d3/d04/classmain_application_1_1_g_u_i_shell.html#ac525a3e483dbe24e5f9f0257fe54521d" target="_top" xlink:title="mainApplication.GUIShell.\lGUIShell">
<polygon fill="white" stroke="black" points="958,-898 958,-928 1098,-928 1098,-898 958,-898"/>
<text text-anchor="start" x="966" y="-916" font-family="Helvetica,sans-Serif" font-size="10.00">mainApplication.GUIShell.</text>
<text text-anchor="middle" x="1028" y="-905" font-family="Helvetica,sans-Serif" font-size="10.00">GUIShell</text>
</a>
</g>
</g>
<!-- Node3&#45;&gt;Node4 -->
<g id="edge3" class="edge"><title>Node3&#45;&gt;Node4</title>
<path fill="none" stroke="midnightblue" d="M912.642,-939.623C929.112,-935.789 946.425,-931.758 962.456,-928.026"/>
<polygon fill="midnightblue" stroke="midnightblue" points="911.46,-936.304 902.514,-941.981 913.048,-943.122 911.46,-936.304"/>
</g>
<!-- Node6 -->
<g id="node6" class="node"><title>Node6</title>
<g id="a_node6"><a xlink:href="../../d3/de0/classmain_application_1_1_g_u_i.html#af6bd387013dbd1d1daf030117da66c0e" target="_top" xlink:title="mainApplication.GUI.initiate">
<polygon fill="white" stroke="black" points="563.5,-903.5 563.5,-922.5 712.5,-922.5 712.5,-903.5 563.5,-903.5"/>
<text text-anchor="middle" x="638" y="-910.5" font-family="Helvetica,sans-Serif" font-size="10.00">mainApplication.GUI.initiate</text>
</a>
</g>
</g>
<!-- Node5&#45;&gt;Node6 -->
<g id="edge5" class="edge"><title>Node5&#45;&gt;Node6</title>
<path fill="none" stroke="midnightblue" d="M523.662,-913C536.889,-913 550.48,-913 563.454,-913"/>
<polygon fill="midnightblue" stroke="midnightblue" points="523.636,-909.5 513.636,-913 523.636,-916.5 523.636,-909.5"/>
</g>
<!-- Node6&#45;&gt;Node3 -->
<g id="edge8" class="edge"><title>Node6&#45;&gt;Node3</title>
<path fill="none" stroke="midnightblue" d="M691.574,-924.742C715.206,-930.021 743.383,-936.314 768.548,-941.935"/>
<polygon fill="midnightblue" stroke="midnightblue" points="692.269,-921.311 681.746,-922.547 690.743,-928.143 692.269,-921.311"/>
</g>
<!-- Node6&#45;&gt;Node4 -->
<g id="edge9" class="edge"><title>Node6&#45;&gt;Node4</title>
<path fill="none" stroke="midnightblue" d="M723.041,-913C793.287,-913 892.249,-913 957.943,-913"/>
<polygon fill="midnightblue" stroke="midnightblue" points="722.893,-909.5 712.893,-913 722.893,-916.5 722.893,-909.5"/>
</g>
<!-- Node7 -->
<g id="node7" class="node"><title>Node7</title>
<g id="a_node7"><a xlink:href="../../d3/d04/classmain_application_1_1_g_u_i_shell.html#a9df214dfffdce7a39bc6ac5e84ca1f0f" target="_top" xlink:title="mainApplication.GUIShell.create\lNewButton">
<polygon fill="white" stroke="black" points="752,-854 752,-884 922,-884 922,-854 752,-854"/>
<text text-anchor="start" x="760" y="-872" font-family="Helvetica,sans-Serif" font-size="10.00">mainApplication.GUIShell.create</text>
<text text-anchor="middle" x="837" y="-861" font-family="Helvetica,sans-Serif" font-size="10.00">NewButton</text>
</a>
</g>
</g>
<!-- Node6&#45;&gt;Node7 -->
<g id="edge6" class="edge"><title>Node6&#45;&gt;Node7</title>
<path fill="none" stroke="midnightblue" d="M691.574,-901.258C715.206,-895.979 743.383,-889.686 768.548,-884.065"/>
<polygon fill="midnightblue" stroke="midnightblue" points="690.743,-897.857 681.746,-903.453 692.269,-904.689 690.743,-897.857"/>
</g>
<!-- Node7&#45;&gt;Node4 -->
<g id="edge7" class="edge"><title>Node7&#45;&gt;Node4</title>
<path fill="none" stroke="midnightblue" d="M912.642,-886.377C929.112,-890.211 946.425,-894.242 962.456,-897.974"/>
<polygon fill="midnightblue" stroke="midnightblue" points="913.048,-882.878 902.514,-884.019 911.46,-889.696 913.048,-882.878"/>
</g>
<!-- Node11 -->
<g id="node11" class="node"><title>Node11</title>
<g id="a_node11"><a xlink:href="../../d4/d3f/classcomponents_1_1_vars_tab.html#a1e48c3f7ead529596e018a72cd6ef159" target="_top" xlink:title="components.VarsTab.VarsTab">
<polygon fill="white" stroke="black" points="560,-756.5 560,-775.5 716,-775.5 716,-756.5 560,-756.5"/>
<text text-anchor="middle" x="638" y="-763.5" font-family="Helvetica,sans-Serif" font-size="10.00">components.VarsTab.VarsTab</text>
</a>
</g>
</g>
<!-- Node10&#45;&gt;Node11 -->
<g id="edge13" class="edge"><title>Node10&#45;&gt;Node11</title>
<path fill="none" stroke="midnightblue" d="M524.458,-766C536.235,-766 548.285,-766 559.916,-766"/>
<polygon fill="midnightblue" stroke="midnightblue" points="524.197,-762.5 514.197,-766 524.197,-769.5 524.197,-762.5"/>
</g>
</g>
</svg>
        <g id="navigator" transform="translate(0 0)" fill="#404254">
                <rect fill="#f2f5e9" fill-opacity="0.5" stroke="#606060" stroke-width=".5" x="0" y="0" width="60" height="60"/>
                <use id="zoomplus" xlink:href="#zoomPlus" x="17" y="9" onmousedown="handleZoom(evt,'in')"/>
                <use id="zoomminus" xlink:href="#zoomMin" x="42" y="9" onmousedown="handleZoom(evt,'out')"/>
                <use id="reset" xlink:href="#resetDef" x="30" y="36" onmousedown="handleReset()"/>
                <g id="arrowUp" xlink:href="#dirArrow" transform="translate(30 24)" onmousedown="handlePan(0,-1)">
                  <use xlink:href="#rim" fill="#404040">
                        <set attributeName="fill" to="#808080" begin="arrowUp.mouseover" end="arrowUp.mouseout"/>
                  </use>
                  <path fill="none" stroke="white" stroke-width="1.5" d="M0,-3.0v7 M-2.5,-0.5L0,-3.0L2.5,-0.5"/>
                </g>
                <g id="arrowRight" xlink:href="#dirArrow" transform="rotate(90) translate(36 -43)" onmousedown="handlePan(1,0)">
                  <use xlink:href="#rim" fill="#404040">
                        <set attributeName="fill" to="#808080" begin="arrowRight.mouseover" end="arrowRight.mouseout"/>
                  </use>
                  <path fill="none" stroke="white" stroke-width="1.5" d="M0,-3.0v7 M-2.5,-0.5L0,-3.0L2.5,-0.5"/>
                </g>
                <g id="arrowDown" xlink:href="#dirArrow" transform="rotate(180) translate(-30 -48)" onmousedown="handlePan(0,1)">
                  <use xlink:href="#rim" fill="#404040">
                        <set attributeName="fill" to="#808080" begin="arrowDown.mouseover" end="arrowDown.mouseout"/>
                  </use>
                  <path fill="none" stroke="white" stroke-width="1.5" d="M0,-3.0v7 M-2.5,-0.5L0,-3.0L2.5,-0.5"/>
                </g>
                <g id="arrowLeft" xlink:href="#dirArrow" transform="rotate(270) translate(-36 17)" onmousedown="handlePan(-1,0)">
                  <use xlink:href="#rim" fill="#404040">
                        <set attributeName="fill" to="#808080" begin="arrowLeft.mouseover" end="arrowLeft.mouseout"/>
                  </use>
                  <path fill="none" stroke="white" stroke-width="1.5" d="M0,-3.0v7 M-2.5,-0.5L0,-3.0L2.5,-0.5"/>
                </g>
        </g>
        <svg viewBox="0 0 15 15" width="100%" height="30px" preserveAspectRatio="xMaxYMin meet">
         <g id="arrow_out" transform="scale(0.3 0.3)">
          <a xlink:href="classparser_1_1_parser_a5e98fdfffe49478864dc1b22371d6cb1_icgraph_org.svg" target="_base">
           <rect id="button" ry="5" rx="5" y="6" x="6" height="38" width="38"
                fill="#f2f5e9" fill-opacity="0.5" stroke="#606060" stroke-width="1.0"/>
           <path id="arrow"
             d="M 11.500037,31.436501 C 11.940474,20.09759 22.043105,11.32322 32.158766,21.979434 L 37.068811,17.246167 C 37.068811,17.246167 37.088388,32 37.088388,32 L 22.160133,31.978069 C 22.160133,31.978069 26.997745,27.140456 26.997745,27.140456 C 18.528582,18.264221 13.291696,25.230495 11.500037,31.436501 z"
             style="fill:#404040;"/>
          </a>
         </g>
        </svg>
</svg>
