<?xml version="1.0" encoding="UTF-8" standalone="no"?>
<!DOCTYPE svg PUBLIC "-//W3C//DTD SVG 1.1//EN"
 "http://www.w3.org/Graphics/SVG/1.1/DTD/svg11.dtd">
<!-- Generated by graphviz version 2.36.0 (20140111.2315)
 -->
<!-- Title: parser.Parser.changeLanguage Pages: 1 -->
<svg width="584pt" height="77pt"
 viewBox="0.00 0.00 584.00 77.00" xmlns="http://www.w3.org/2000/svg" xmlns:xlink="http://www.w3.org/1999/xlink">
<g id="graph0" class="graph" transform="scale(1 1) rotate(0) translate(4 73)">
<title>parser.Parser.changeLanguage</title>
<polygon fill="white" stroke="none" points="-4,4 -4,-73 580,-73 580,4 -4,4"/>
<!-- Node1 -->
<g id="node1" class="node"><title>Node1</title>
<polygon fill="#bfbfbf" stroke="black" points="0,-27.5 0,-46.5 164,-46.5 164,-27.5 0,-27.5"/>
<text text-anchor="middle" x="82" y="-34.5" font-family="Helvetica,sans-Serif" font-size="10.00">parser.Parser.changeLanguage</text>
</g>
<!-- Node2 -->
<g id="node2" class="node"><title>Node2</title>
<g id="a_node2"><a xlink:href="../../d6/d95/classparser_1_1_parser.html#a6dd2e71fd2780aa2c1d677d3b739d5e3" target="_top" xlink:title="parser.Parser.Parser">
<polygon fill="white" stroke="black" points="224,-49.5 224,-68.5 336,-68.5 336,-49.5 224,-49.5"/>
<text text-anchor="middle" x="280" y="-56.5" font-family="Helvetica,sans-Serif" font-size="10.00">parser.Parser.Parser</text>
</a>
</g>
</g>
<!-- Node1&#45;&gt;Node2 -->
<g id="edge1" class="edge"><title>Node1&#45;&gt;Node2</title>
<path fill="none" stroke="midnightblue" d="M174.099,-47.2254C191.103,-49.134 208.385,-51.0738 223.884,-52.8135"/>
<polygon fill="midnightblue" stroke="midnightblue" points="174.464,-43.7444 164.136,-46.107 173.683,-50.7007 174.464,-43.7444"/>
</g>
<!-- Node3 -->
<g id="node3" class="node"><title>Node3</title>
<g id="a_node3"><a xlink:href="../../d7/da1/classmain_application_1_1_controller.html#a463390a07c56ccd95c8fdd332e2f9ac3" target="_top" xlink:title="mainApplication.Controller.set\lLanguage">
<polygon fill="white" stroke="black" points="200,-0 200,-30 360,-30 360,-0 200,-0"/>
<text text-anchor="start" x="208" y="-18" font-family="Helvetica,sans-Serif" font-size="10.00">mainApplication.Controller.set</text>
<text text-anchor="middle" x="280" y="-7" font-family="Helvetica,sans-Serif" font-size="10.00">Language</text>
</a>
</g>
</g>
<!-- Node1&#45;&gt;Node3 -->
<g id="edge2" class="edge"><title>Node1&#45;&gt;Node3</title>
<path fill="none" stroke="midnightblue" d="M174.152,-26.7687C182.725,-25.8064 191.368,-24.8362 199.818,-23.8878"/>
<polygon fill="midnightblue" stroke="midnightblue" points="173.683,-23.2993 164.136,-27.893 174.464,-30.2556 173.683,-23.2993"/>
</g>
<!-- Node4 -->
<g id="node4" class="node"><title>Node4</title>
<g id="a_node4"><a xlink:href="../../da/d5c/classfeatures_1_1_language_combo_feature.html#ac8943a4ee7fa7b966bf979aa482a64e4" target="_top" xlink:title="features.LanguageComboFeature.\lLanguageComboFeature">
<polygon fill="white" stroke="black" points="396,-0 396,-30 576,-30 576,-0 396,-0"/>
<text text-anchor="start" x="404" y="-18" font-family="Helvetica,sans-Serif" font-size="10.00">features.LanguageComboFeature.</text>
<text text-anchor="middle" x="486" y="-7" font-family="Helvetica,sans-Serif" font-size="10.00">LanguageComboFeature</text>
</a>
</g>
</g>
<!-- Node3&#45;&gt;Node4 -->
<g id="edge3" class="edge"><title>Node3&#45;&gt;Node4</title>
<path fill="none" stroke="midnightblue" d="M370.354,-15C378.768,-15 387.299,-15 395.713,-15"/>
<polygon fill="midnightblue" stroke="midnightblue" points="370.164,-11.5001 360.164,-15 370.164,-18.5001 370.164,-11.5001"/>
</g>
</g>
</svg>
