<?xml version="1.0" encoding="UTF-8" standalone="no"?>
<!DOCTYPE svg PUBLIC "-//W3C//DTD SVG 1.1//EN"
 "http://www.w3.org/Graphics/SVG/1.1/DTD/svg11.dtd">
<!-- Generated by graphviz version 2.36.0 (20140111.2315)
 -->
<!-- Title: actor.Turtle.getPen Pages: 1 -->
<svg width="370pt" height="115pt"
 viewBox="0.00 0.00 370.00 115.00" xmlns="http://www.w3.org/2000/svg" xmlns:xlink="http://www.w3.org/1999/xlink">
<g id="graph0" class="graph" transform="scale(1 1) rotate(0) translate(4 111)">
<title>actor.Turtle.getPen</title>
<polygon fill="white" stroke="none" points="-4,4 -4,-111 366,-111 366,4 -4,4"/>
<!-- Node1 -->
<g id="node1" class="node"><title>Node1</title>
<polygon fill="#bfbfbf" stroke="black" points="0,-49.5 0,-68.5 106,-68.5 106,-49.5 0,-49.5"/>
<text text-anchor="middle" x="53" y="-56.5" font-family="Helvetica,sans-Serif" font-size="10.00">actor.Turtle.getPen</text>
</g>
<!-- Node2 -->
<g id="node2" class="node"><title>Node2</title>
<g id="a_node2"><a xlink:href="../../df/de8/classcommand_1_1_pen_query_command.html#a6983b86a954355246cf2eefda673a8f4" target="_top" xlink:title="command.PenQueryCommand.execute">
<polygon fill="white" stroke="black" points="149,-87.5 149,-106.5 355,-106.5 355,-87.5 149,-87.5"/>
<text text-anchor="middle" x="252" y="-94.5" font-family="Helvetica,sans-Serif" font-size="10.00">command.PenQueryCommand.execute</text>
</a>
</g>
</g>
<!-- Node1&#45;&gt;Node2 -->
<g id="edge1" class="edge"><title>Node1&#45;&gt;Node2</title>
<path fill="none" stroke="midnightblue" d="M106.501,-70.6957C118.17,-73.1946 130.491,-75.7554 142,-78 158.78,-81.2726 177.067,-84.5661 193.785,-87.4705"/>
<polygon fill="midnightblue" stroke="midnightblue" points="106.965,-67.2152 96.451,-68.5251 105.487,-74.0575 106.965,-67.2152"/>
</g>
<!-- Node3 -->
<g id="node3" class="node"><title>Node3</title>
<g id="a_node3"><a xlink:href="../../d5/d3d/classcommand_1_1_get_pen_color_command.html#a094c0c27dead6aa3fe8800111a2601a2" target="_top" xlink:title="command.GetPenColorCommand.execute">
<polygon fill="white" stroke="black" points="142,-49.5 142,-68.5 362,-68.5 362,-49.5 142,-49.5"/>
<text text-anchor="middle" x="252" y="-56.5" font-family="Helvetica,sans-Serif" font-size="10.00">command.GetPenColorCommand.execute</text>
</a>
</g>
</g>
<!-- Node1&#45;&gt;Node3 -->
<g id="edge2" class="edge"><title>Node1&#45;&gt;Node3</title>
<path fill="none" stroke="midnightblue" d="M116.219,-59C124.456,-59 133.087,-59 141.831,-59"/>
<polygon fill="midnightblue" stroke="midnightblue" points="116.017,-55.5001 106.017,-59 116.017,-62.5001 116.017,-55.5001"/>
</g>
<!-- Node4 -->
<g id="node4" class="node"><title>Node4</title>
<g id="a_node4"><a xlink:href="../../d4/d44/classproperties_1_1_turtle_properties.html#a857cd58011c3d71d747d248d83349255" target="_top" xlink:title="properties.TurtleProperties.\lTurtleProperties">
<polygon fill="white" stroke="black" points="179,-0 179,-30 325,-30 325,-0 179,-0"/>
<text text-anchor="start" x="187" y="-18" font-family="Helvetica,sans-Serif" font-size="10.00">properties.TurtleProperties.</text>
<text text-anchor="middle" x="252" y="-7" font-family="Helvetica,sans-Serif" font-size="10.00">TurtleProperties</text>
</a>
</g>
</g>
<!-- Node1&#45;&gt;Node4 -->
<g id="edge3" class="edge"><title>Node1&#45;&gt;Node4</title>
<path fill="none" stroke="midnightblue" d="M106.574,-47.2576C130.206,-41.9793 158.383,-35.686 183.548,-30.0654"/>
<polygon fill="midnightblue" stroke="midnightblue" points="105.743,-43.8569 96.7461,-49.4527 107.269,-50.6886 105.743,-43.8569"/>
</g>
</g>
</svg>
