<?xml version="1.0" encoding="UTF-8" standalone="no"?>
<!DOCTYPE svg PUBLIC "-//W3C//DTD SVG 1.1//EN"
 "http://www.w3.org/Graphics/SVG/1.1/DTD/svg11.dtd">
<!-- Generated by graphviz version 2.36.0 (20140111.2315)
 -->
<!-- Title: actor.Turtle.getX Pages: 1 -->
<svg width="356pt" height="66pt"
 viewBox="0.00 0.00 356.00 66.00" xmlns="http://www.w3.org/2000/svg" xmlns:xlink="http://www.w3.org/1999/xlink">
<g id="graph0" class="graph" transform="scale(1 1) rotate(0) translate(4 62)">
<title>actor.Turtle.getX</title>
<polygon fill="white" stroke="none" points="-4,4 -4,-62 352,-62 352,4 -4,4"/>
<!-- Node1 -->
<g id="node1" class="node"><title>Node1</title>
<polygon fill="#bfbfbf" stroke="black" points="0,-19.5 0,-38.5 94,-38.5 94,-19.5 0,-19.5"/>
<text text-anchor="middle" x="47" y="-26.5" font-family="Helvetica,sans-Serif" font-size="10.00">actor.Turtle.getX</text>
</g>
<!-- Node2 -->
<g id="node2" class="node"><title>Node2</title>
<g id="a_node2"><a xlink:href="../../dc/db0/classcommand_1_1_x_coordinate_command.html#a60873413068e287188401253638a8705" target="_top" xlink:title="command.XCoordinateCommand.execute">
<polygon fill="white" stroke="black" points="130,-38.5 130,-57.5 348,-57.5 348,-38.5 130,-38.5"/>
<text text-anchor="middle" x="239" y="-45.5" font-family="Helvetica,sans-Serif" font-size="10.00">command.XCoordinateCommand.execute</text>
</a>
</g>
</g>
<!-- Node1&#45;&gt;Node2 -->
<g id="edge1" class="edge"><title>Node1&#45;&gt;Node2</title>
<path fill="none" stroke="midnightblue" d="M104.788,-34.6788C116.834,-35.8834 129.865,-37.1865 142.898,-38.4898"/>
<polygon fill="midnightblue" stroke="midnightblue" points="104.778,-31.1604 94.4792,-33.6479 104.081,-38.1257 104.778,-31.1604"/>
</g>
<!-- Node3 -->
<g id="node3" class="node"><title>Node3</title>
<g id="a_node3"><a xlink:href="../../de/d33/classparser_1_1_test_parser.html#a93efc93146678909fa1c24a6727460ae" target="_top" xlink:title="parser.TestParser.TestTo">
<polygon fill="white" stroke="black" points="174.5,-0.5 174.5,-19.5 303.5,-19.5 303.5,-0.5 174.5,-0.5"/>
<text text-anchor="middle" x="239" y="-7.5" font-family="Helvetica,sans-Serif" font-size="10.00">parser.TestParser.TestTo</text>
</a>
</g>
</g>
<!-- Node1&#45;&gt;Node3 -->
<g id="edge2" class="edge"><title>Node1&#45;&gt;Node3</title>
<path fill="none" stroke="midnightblue" d="M104.642,-23.3358C126.603,-21.1397 151.85,-18.615 174.428,-16.3572"/>
<polygon fill="midnightblue" stroke="midnightblue" points="104.081,-19.8743 94.4792,-24.3521 104.778,-26.8396 104.081,-19.8743"/>
</g>
</g>
</svg>
