<?xml version="1.0" encoding="UTF-8" standalone="no"?>
<!DOCTYPE svg PUBLIC "-//W3C//DTD SVG 1.1//EN"
 "http://www.w3.org/Graphics/SVG/1.1/DTD/svg11.dtd">
<!-- Generated by graphviz version 2.36.0 (20140111.2315)
 -->
<!-- Title: actor.Turtle.setChangedandNotify Pages: 1 -->
<!--zoomable 273 -->
<svg id="main" version="1.1" xmlns="http://www.w3.org/2000/svg" xmlns:xlink="http://www.w3.org/1999/xlink" xml:space="preserve" onload="init(evt)">
<style type="text/css"><![CDATA[
.edge:hover path { stroke: red; }
.edge:hover polygon { stroke: red; fill: red; }
]]></style>
<script type="text/javascript"><![CDATA[
var edges = document.getElementsByTagName('g');
if (edges && edges.length) {
  for (var i=0;i<edges.length;i++) {
    if (edges[i].id.substr(0,4)=='edge') {
      edges[i].setAttribute('class','edge');
    }
  }
}
]]></script>
        <defs>
                <circle id="rim" cx="0" cy="0" r="7"/>
                <circle id="rim2" cx="0" cy="0" r="3.5"/>
                <g id="zoomPlus">
                        <use xlink:href="#rim" fill="#404040">
                                <set attributeName="fill" to="#808080" begin="zoomplus.mouseover" end="zoomplus.mouseout"/>
                        </use>
                        <path d="M-4,0h8M0,-4v8" fill="none" stroke="white" stroke-width="1.5" pointer-events="none"/>
                </g>
                <g id="zoomMin">
                        <use xlink:href="#rim" fill="#404040">
                                <set attributeName="fill" to="#808080" begin="zoomminus.mouseover" end="zoomminus.mouseout"/>
                        </use>
                        <path d="M-4,0h8" fill="none" stroke="white" stroke-width="1.5" pointer-events="none"/>
                </g>
                <g id="dirArrow">
                        <path fill="none" stroke="white" stroke-width="1.5" d="M0,-3.0v7 M-2.5,-0.5L0,-3.0L2.5,-0.5"/>
                </g>
               <g id="resetDef">
                       <use xlink:href="#rim2" fill="#404040">
                               <set attributeName="fill" to="#808080" begin="reset.mouseover" end="reset.mouseout"/>
                       </use>
               </g>
        </defs>

<script type="text/javascript">
var viewWidth = 1228;
var viewHeight = 273;
var sectionId = 'dynsection-16';
</script>
<script xlink:href="../../svgpan.js"/>
<svg id="graph" class="graph">
<g id="viewport">
<title>actor.Turtle.setChangedandNotify</title>
<polygon fill="white" stroke="none" points="-4,4 -4,-269 1224,-269 1224,4 -4,4"/>
<!-- Node1 -->
<g id="node1" class="node"><title>Node1</title>
<polygon fill="#bfbfbf" stroke="black" points="0,-90 0,-120 148,-120 148,-90 0,-90"/>
<text text-anchor="start" x="8" y="-108" font-family="Helvetica,sans-Serif" font-size="10.00">actor.Turtle.setChangedand</text>
<text text-anchor="middle" x="74" y="-97" font-family="Helvetica,sans-Serif" font-size="10.00">Notify</text>
</g>
<!-- Node2 -->
<g id="node2" class="node"><title>Node2</title>
<g id="a_node2"><a xlink:href="../../d4/d4a/classactor_1_1_turtle.html#a8d43e4c33317318940882b7aa2cd7a10" target="_top" xlink:title="actor.Turtle.changedPen">
<polygon fill="white" stroke="black" points="196.5,-177.5 196.5,-196.5 327.5,-196.5 327.5,-177.5 196.5,-177.5"/>
<text text-anchor="middle" x="262" y="-184.5" font-family="Helvetica,sans-Serif" font-size="10.00">actor.Turtle.changedPen</text>
</a>
</g>
</g>
<!-- Node1&#45;&gt;Node2 -->
<g id="edge1" class="edge"><title>Node1&#45;&gt;Node2</title>
<path fill="none" stroke="midnightblue" d="M105.583,-125.817C126.801,-139.459 156.149,-156.779 184,-168 193.195,-171.705 203.309,-174.829 213.098,-177.405"/>
<polygon fill="midnightblue" stroke="midnightblue" points="107.302,-122.76 97.015,-120.225 103.476,-128.622 107.302,-122.76"/>
</g>
<!-- Node3 -->
<g id="node3" class="node"><title>Node3</title>
<g id="a_node3"><a xlink:href="../../d4/d4a/classactor_1_1_turtle.html#a0dcf130646f1d94fe9ec9cc5f8797bc5" target="_top" xlink:title="actor.Turtle.changeShape">
<polygon fill="white" stroke="black" points="193,-139.5 193,-158.5 331,-158.5 331,-139.5 193,-139.5"/>
<text text-anchor="middle" x="262" y="-146.5" font-family="Helvetica,sans-Serif" font-size="10.00">actor.Turtle.changeShape</text>
</a>
</g>
</g>
<!-- Node1&#45;&gt;Node3 -->
<g id="edge2" class="edge"><title>Node1&#45;&gt;Node3</title>
<path fill="none" stroke="midnightblue" d="M148.539,-122.396C173.16,-128.221 199.685,-134.495 220.788,-139.488"/>
<polygon fill="midnightblue" stroke="midnightblue" points="149.028,-118.915 138.49,-120.019 147.416,-125.727 149.028,-118.915"/>
</g>
<!-- Node4 -->
<g id="node4" class="node"><title>Node4</title>
<g id="a_node4"><a xlink:href="../../de/d19/classworkspace_1_1_workspace.html#aecaf73d3c2b2008aac032adc4a4f759f" target="_top" xlink:title="workspace.Workspace.create\lTurtle">
<polygon fill="white" stroke="black" points="184.5,-90 184.5,-120 339.5,-120 339.5,-90 184.5,-90"/>
<text text-anchor="start" x="192.5" y="-108" font-family="Helvetica,sans-Serif" font-size="10.00">workspace.Workspace.create</text>
<text text-anchor="middle" x="262" y="-97" font-family="Helvetica,sans-Serif" font-size="10.00">Turtle</text>
</a>
</g>
</g>
<!-- Node1&#45;&gt;Node4 -->
<g id="edge3" class="edge"><title>Node1&#45;&gt;Node4</title>
<path fill="none" stroke="midnightblue" d="M158.37,-105C167.054,-105 175.852,-105 184.456,-105"/>
<polygon fill="midnightblue" stroke="midnightblue" points="158.245,-101.5 148.245,-105 158.245,-108.5 158.245,-101.5"/>
</g>
<!-- Node19 -->
<g id="node19" class="node"><title>Node19</title>
<g id="a_node19"><a xlink:href="../../d4/d4a/classactor_1_1_turtle.html#a5669e2c0d75b1f50b23a8d992028b0eb" target="_top" xlink:title="actor.Turtle.setShowing">
<polygon fill="white" stroke="black" points="198.5,-51.5 198.5,-70.5 325.5,-70.5 325.5,-51.5 198.5,-51.5"/>
<text text-anchor="middle" x="262" y="-58.5" font-family="Helvetica,sans-Serif" font-size="10.00">actor.Turtle.setShowing</text>
</a>
</g>
</g>
<!-- Node1&#45;&gt;Node19 -->
<g id="edge20" class="edge"><title>Node1&#45;&gt;Node19</title>
<path fill="none" stroke="midnightblue" d="M148.539,-87.6036C173.16,-81.7794 199.685,-75.5046 220.788,-70.5124"/>
<polygon fill="midnightblue" stroke="midnightblue" points="147.416,-84.2726 138.49,-89.9808 149.028,-91.0846 147.416,-84.2726"/>
</g>
<!-- Node20 -->
<g id="node20" class="node"><title>Node20</title>
<g id="a_node20"><a xlink:href="../../d4/d4a/classactor_1_1_turtle.html#a597265394c6feccaee35f9470fad39b4" target="_top" xlink:title="actor.Turtle.updatePosition">
<polygon fill="white" stroke="black" points="190.5,-13.5 190.5,-32.5 333.5,-32.5 333.5,-13.5 190.5,-13.5"/>
<text text-anchor="middle" x="262" y="-20.5" font-family="Helvetica,sans-Serif" font-size="10.00">actor.Turtle.updatePosition</text>
</a>
</g>
</g>
<!-- Node1&#45;&gt;Node20 -->
<g id="edge21" class="edge"><title>Node1&#45;&gt;Node20</title>
<path fill="none" stroke="midnightblue" d="M105.583,-84.1825C126.801,-70.5406 156.149,-53.2208 184,-42 193.195,-38.2952 203.309,-35.1715 213.098,-32.595"/>
<polygon fill="midnightblue" stroke="midnightblue" points="103.476,-81.3783 97.015,-89.7754 107.302,-87.2399 103.476,-81.3783"/>
</g>
<!-- Node5 -->
<g id="node5" class="node"><title>Node5</title>
<g id="a_node5"><a xlink:href="../../db/d0a/classcommand_1_1_base_multi_turtle_command.html#a18475dfa4cad362fd566082a1cba7f59" target="_top" xlink:title="command.BaseMultiTurtleCommand.tell">
<polygon fill="white" stroke="black" points="376,-199.5 376,-218.5 584,-218.5 584,-199.5 376,-199.5"/>
<text text-anchor="middle" x="480" y="-206.5" font-family="Helvetica,sans-Serif" font-size="10.00">command.BaseMultiTurtleCommand.tell</text>
</a>
</g>
</g>
<!-- Node4&#45;&gt;Node5 -->
<g id="edge4" class="edge"><title>Node4&#45;&gt;Node5</title>
<path fill="none" stroke="midnightblue" d="M330.725,-124.475C333.945,-126.175 337.057,-128.013 340,-130 360.657,-143.947 355.5,-158.824 376,-173 393.839,-185.336 416.326,-193.839 435.733,-199.47"/>
<polygon fill="midnightblue" stroke="midnightblue" points="331.955,-121.184 321.421,-120.044 328.945,-127.504 331.955,-121.184"/>
</g>
<!-- Node9 -->
<g id="node9" class="node"><title>Node9</title>
<g id="a_node9"><a xlink:href="../../d7/da1/classmain_application_1_1_controller.html#a14cb8c148061cb04d6968d56f26e4c82" target="_top" xlink:title="mainApplication.Controller.create\lWorkspace">
<polygon fill="white" stroke="black" points="392,-134 392,-164 568,-164 568,-134 392,-134"/>
<text text-anchor="start" x="400" y="-152" font-family="Helvetica,sans-Serif" font-size="10.00">mainApplication.Controller.create</text>
<text text-anchor="middle" x="480" y="-141" font-family="Helvetica,sans-Serif" font-size="10.00">Workspace</text>
</a>
</g>
</g>
<!-- Node4&#45;&gt;Node9 -->
<g id="edge8" class="edge"><title>Node4&#45;&gt;Node9</title>
<path fill="none" stroke="midnightblue" d="M346.709,-122.052C366.007,-125.983 386.396,-130.136 405.235,-133.974"/>
<polygon fill="midnightblue" stroke="midnightblue" points="347.228,-118.586 336.731,-120.019 345.831,-125.445 347.228,-118.586"/>
</g>
<!-- Node14 -->
<g id="node14" class="node"><title>Node14</title>
<g id="a_node14"><a xlink:href="../../de/d33/classparser_1_1_test_parser.html#a616e3d3359a2feaf24149915c6aea8c8" target="_top" xlink:title="parser.TestParser.TestForward">
<polygon fill="white" stroke="black" points="401.5,-95.5 401.5,-114.5 558.5,-114.5 558.5,-95.5 401.5,-95.5"/>
<text text-anchor="middle" x="480" y="-102.5" font-family="Helvetica,sans-Serif" font-size="10.00">parser.TestParser.TestForward</text>
</a>
</g>
</g>
<!-- Node4&#45;&gt;Node14 -->
<g id="edge15" class="edge"><title>Node4&#45;&gt;Node14</title>
<path fill="none" stroke="midnightblue" d="M350.201,-105C367.14,-105 384.788,-105 401.393,-105"/>
<polygon fill="midnightblue" stroke="midnightblue" points="349.762,-101.5 339.762,-105 349.762,-108.5 349.762,-101.5"/>
</g>
<!-- Node15 -->
<g id="node15" class="node"><title>Node15</title>
<g id="a_node15"><a xlink:href="../../de/d33/classparser_1_1_test_parser.html#a93efc93146678909fa1c24a6727460ae" target="_top" xlink:title="parser.TestParser.TestTo">
<polygon fill="white" stroke="black" points="415.5,-57.5 415.5,-76.5 544.5,-76.5 544.5,-57.5 415.5,-57.5"/>
<text text-anchor="middle" x="480" y="-64.5" font-family="Helvetica,sans-Serif" font-size="10.00">parser.TestParser.TestTo</text>
</a>
</g>
</g>
<!-- Node4&#45;&gt;Node15 -->
<g id="edge16" class="edge"><title>Node4&#45;&gt;Node15</title>
<path fill="none" stroke="midnightblue" d="M349.766,-89.7357C375.137,-85.2722 402.136,-80.5223 424.86,-76.5246"/>
<polygon fill="midnightblue" stroke="midnightblue" points="349.004,-86.3158 339.762,-91.4956 350.217,-93.21 349.004,-86.3158"/>
</g>
<!-- Node16 -->
<g id="node16" class="node"><title>Node16</title>
<g id="a_node16"><a xlink:href="../../de/d19/classworkspace_1_1_workspace.html#a645b162e34e52069e1a18fa5c57daa41" target="_top" xlink:title="workspace.Workspace.clear">
<polygon fill="white" stroke="black" points="406.5,-19.5 406.5,-38.5 553.5,-38.5 553.5,-19.5 406.5,-19.5"/>
<text text-anchor="middle" x="480" y="-26.5" font-family="Helvetica,sans-Serif" font-size="10.00">workspace.Workspace.clear</text>
</a>
</g>
</g>
<!-- Node4&#45;&gt;Node16 -->
<g id="edge17" class="edge"><title>Node4&#45;&gt;Node16</title>
<path fill="none" stroke="midnightblue" d="M328.373,-85.9181C332.386,-84.093 336.296,-82.1224 340,-80 358.575,-69.3578 356.766,-57.3986 376,-48 385.476,-43.3697 395.945,-39.8622 406.471,-37.2064"/>
<polygon fill="midnightblue" stroke="midnightblue" points="326.728,-82.8129 318.867,-89.9154 329.441,-89.2656 326.728,-82.8129"/>
</g>
<!-- Node6 -->
<g id="node6" class="node"><title>Node6</title>
<g id="a_node6"><a xlink:href="../../db/d24/classcommand_1_1_ask_command.html#a512723f6475d7ed90cb6639c5eec3adb" target="_top" xlink:title="command.AskCommand.execute">
<polygon fill="white" stroke="black" points="640.5,-245.5 640.5,-264.5 817.5,-264.5 817.5,-245.5 640.5,-245.5"/>
<text text-anchor="middle" x="729" y="-252.5" font-family="Helvetica,sans-Serif" font-size="10.00">command.AskCommand.execute</text>
</a>
</g>
</g>
<!-- Node5&#45;&gt;Node6 -->
<g id="edge5" class="edge"><title>Node5&#45;&gt;Node6</title>
<path fill="none" stroke="midnightblue" d="M538.913,-220.487C563.845,-225.371 593.337,-231.065 620,-236 637.129,-239.17 655.81,-242.501 672.746,-245.473"/>
<polygon fill="midnightblue" stroke="midnightblue" points="539.373,-217.011 528.886,-218.519 538.025,-223.879 539.373,-217.011"/>
</g>
<!-- Node7 -->
<g id="node7" class="node"><title>Node7</title>
<g id="a_node7"><a xlink:href="../../dc/daf/classcommand_1_1_ask_with_command.html#aa8274e05370a4e3f6ad3e2d7e86ec7f0" target="_top" xlink:title="command.AskWithCommand.execute">
<polygon fill="white" stroke="black" points="630.5,-207.5 630.5,-226.5 827.5,-226.5 827.5,-207.5 630.5,-207.5"/>
<text text-anchor="middle" x="729" y="-214.5" font-family="Helvetica,sans-Serif" font-size="10.00">command.AskWithCommand.execute</text>
</a>
</g>
</g>
<!-- Node5&#45;&gt;Node7 -->
<g id="edge6" class="edge"><title>Node5&#45;&gt;Node7</title>
<path fill="none" stroke="midnightblue" d="M594.346,-212.671C606.331,-213.059 618.444,-213.452 630.229,-213.833"/>
<polygon fill="midnightblue" stroke="midnightblue" points="594.427,-209.172 584.319,-212.346 594.201,-216.168 594.427,-209.172"/>
</g>
<!-- Node8 -->
<g id="node8" class="node"><title>Node8</title>
<g id="a_node8"><a xlink:href="../../d6/de2/classcommand_1_1_tell_command.html#ad12c8eb44a4dc930037355278c0aee33" target="_top" xlink:title="command.TellCommand.execute">
<polygon fill="white" stroke="black" points="642,-169.5 642,-188.5 816,-188.5 816,-169.5 642,-169.5"/>
<text text-anchor="middle" x="729" y="-176.5" font-family="Helvetica,sans-Serif" font-size="10.00">command.TellCommand.execute</text>
</a>
</g>
</g>
<!-- Node5&#45;&gt;Node8 -->
<g id="edge7" class="edge"><title>Node5&#45;&gt;Node8</title>
<path fill="none" stroke="midnightblue" d="M569.42,-198.261C595.647,-195.075 624.176,-191.61 649.712,-188.509"/>
<polygon fill="midnightblue" stroke="midnightblue" points="568.997,-194.786 559.492,-199.467 569.841,-201.735 568.997,-194.786"/>
</g>
<!-- Node10 -->
<g id="node10" class="node"><title>Node10</title>
<g id="a_node10"><a xlink:href="../../d3/de0/classmain_application_1_1_g_u_i.html#af6bd387013dbd1d1daf030117da66c0e" target="_top" xlink:title="mainApplication.GUI.initiate">
<polygon fill="white" stroke="black" points="654.5,-131.5 654.5,-150.5 803.5,-150.5 803.5,-131.5 654.5,-131.5"/>
<text text-anchor="middle" x="729" y="-138.5" font-family="Helvetica,sans-Serif" font-size="10.00">mainApplication.GUI.initiate</text>
</a>
</g>
</g>
<!-- Node9&#45;&gt;Node10 -->
<g id="edge9" class="edge"><title>Node9&#45;&gt;Node10</title>
<path fill="none" stroke="midnightblue" d="M578.099,-145.855C603.485,-145.033 630.432,-144.16 654.374,-143.385"/>
<polygon fill="midnightblue" stroke="midnightblue" points="577.964,-142.358 568.083,-146.179 578.191,-149.354 577.964,-142.358"/>
</g>
<!-- Node11 -->
<g id="node11" class="node"><title>Node11</title>
<g id="a_node11"><a xlink:href="../../d3/d04/classmain_application_1_1_g_u_i_shell.html#ac525a3e483dbe24e5f9f0257fe54521d" target="_top" xlink:title="mainApplication.GUIShell.\lGUIShell">
<polygon fill="white" stroke="black" points="1080,-126 1080,-156 1220,-156 1220,-126 1080,-126"/>
<text text-anchor="start" x="1088" y="-144" font-family="Helvetica,sans-Serif" font-size="10.00">mainApplication.GUIShell.</text>
<text text-anchor="middle" x="1150" y="-133" font-family="Helvetica,sans-Serif" font-size="10.00">GUIShell</text>
</a>
</g>
</g>
<!-- Node10&#45;&gt;Node11 -->
<g id="edge10" class="edge"><title>Node10&#45;&gt;Node11</title>
<path fill="none" stroke="midnightblue" d="M794.587,-152.266C828.958,-158.171 865.81,-164.322 874,-165 949.298,-171.232 968.921,-173.471 1044,-165 1060.35,-163.155 1077.87,-159.743 1093.82,-156.058"/>
<polygon fill="midnightblue" stroke="midnightblue" points="794.961,-148.779 784.512,-150.53 793.772,-155.678 794.961,-148.779"/>
</g>
<!-- Node12 -->
<g id="node12" class="node"><title>Node12</title>
<g id="a_node12"><a xlink:href="../../d3/d04/classmain_application_1_1_g_u_i_shell.html#a9df214dfffdce7a39bc6ac5e84ca1f0f" target="_top" xlink:title="mainApplication.GUIShell.create\lNewButton">
<polygon fill="white" stroke="black" points="874,-126 874,-156 1044,-156 1044,-126 874,-126"/>
<text text-anchor="start" x="882" y="-144" font-family="Helvetica,sans-Serif" font-size="10.00">mainApplication.GUIShell.create</text>
<text text-anchor="middle" x="959" y="-133" font-family="Helvetica,sans-Serif" font-size="10.00">NewButton</text>
</a>
</g>
</g>
<!-- Node10&#45;&gt;Node12 -->
<g id="edge11" class="edge"><title>Node10&#45;&gt;Node12</title>
<path fill="none" stroke="midnightblue" d="M813.819,-141C833.399,-141 854.259,-141 873.853,-141"/>
<polygon fill="midnightblue" stroke="midnightblue" points="813.71,-137.5 803.71,-141 813.71,-144.5 813.71,-137.5"/>
</g>
<!-- Node13 -->
<g id="node13" class="node"><title>Node13</title>
<g id="a_node13"><a xlink:href="../../d3/d04/classmain_application_1_1_g_u_i_shell.html#af2f106fa7786f13ccc0202db53b559b9" target="_top" xlink:title="mainApplication.GUIShell.create\lOpenButton">
<polygon fill="white" stroke="black" points="874,-77 874,-107 1044,-107 1044,-77 874,-77"/>
<text text-anchor="start" x="882" y="-95" font-family="Helvetica,sans-Serif" font-size="10.00">mainApplication.GUIShell.create</text>
<text text-anchor="middle" x="959" y="-84" font-family="Helvetica,sans-Serif" font-size="10.00">OpenButton</text>
</a>
</g>
</g>
<!-- Node10&#45;&gt;Node13 -->
<g id="edge13" class="edge"><title>Node10&#45;&gt;Node13</title>
<path fill="none" stroke="midnightblue" d="M784.41,-129.307C815.409,-122.645 854.585,-114.225 887.872,-107.071"/>
<polygon fill="midnightblue" stroke="midnightblue" points="783.272,-125.971 774.231,-131.494 784.743,-132.815 783.272,-125.971"/>
</g>
<!-- Node12&#45;&gt;Node11 -->
<g id="edge12" class="edge"><title>Node12&#45;&gt;Node11</title>
<path fill="none" stroke="midnightblue" d="M1054.36,-141C1062.96,-141 1071.57,-141 1079.9,-141"/>
<polygon fill="midnightblue" stroke="midnightblue" points="1054.27,-137.5 1044.27,-141 1054.27,-144.5 1054.27,-137.5"/>
</g>
<!-- Node13&#45;&gt;Node11 -->
<g id="edge14" class="edge"><title>Node13&#45;&gt;Node11</title>
<path fill="none" stroke="midnightblue" d="M1027.69,-109.55C1048.45,-114.931 1071.08,-120.799 1091.12,-125.994"/>
<polygon fill="midnightblue" stroke="midnightblue" points="1028.55,-106.156 1017.99,-107.035 1026.79,-112.932 1028.55,-106.156"/>
</g>
<!-- Node17 -->
<g id="node17" class="node"><title>Node17</title>
<g id="a_node17"><a xlink:href="../../d5/d9e/classcommand_1_1_clear_screen_command.html#a5860aeadd96cfbade9a5ea48d7ae60fc" target="_top" xlink:title="command.ClearScreenCommand.execute">
<polygon fill="white" stroke="black" points="620,-38.5 620,-57.5 838,-57.5 838,-38.5 620,-38.5"/>
<text text-anchor="middle" x="729" y="-45.5" font-family="Helvetica,sans-Serif" font-size="10.00">command.ClearScreenCommand.execute</text>
</a>
</g>
</g>
<!-- Node16&#45;&gt;Node17 -->
<g id="edge18" class="edge"><title>Node16&#45;&gt;Node17</title>
<path fill="none" stroke="midnightblue" d="M564.1,-35.3923C581.909,-36.7622 600.978,-38.2291 619.584,-39.6603"/>
<polygon fill="midnightblue" stroke="midnightblue" points="564.011,-31.8752 553.772,-34.5979 563.474,-38.8546 564.011,-31.8752"/>
</g>
<!-- Node18 -->
<g id="node18" class="node"><title>Node18</title>
<g id="a_node18"><a xlink:href="../../d7/da1/classmain_application_1_1_controller.html#a0ce45e0f09c24ab78746a0d3bce7550f" target="_top" xlink:title="mainApplication.Controller.clear">
<polygon fill="white" stroke="black" points="645,-0.5 645,-19.5 813,-19.5 813,-0.5 645,-0.5"/>
<text text-anchor="middle" x="729" y="-7.5" font-family="Helvetica,sans-Serif" font-size="10.00">mainApplication.Controller.clear</text>
</a>
</g>
</g>
<!-- Node16&#45;&gt;Node18 -->
<g id="edge19" class="edge"><title>Node16&#45;&gt;Node18</title>
<path fill="none" stroke="midnightblue" d="M563.996,-22.6157C590.061,-20.6107 618.833,-18.3975 644.904,-16.392"/>
<polygon fill="midnightblue" stroke="midnightblue" points="563.474,-19.1454 553.772,-23.4021 564.011,-26.1248 563.474,-19.1454"/>
</g>
</g>
</svg>
        <g id="navigator" transform="translate(0 0)" fill="#404254">
                <rect fill="#f2f5e9" fill-opacity="0.5" stroke="#606060" stroke-width=".5" x="0" y="0" width="60" height="60"/>
                <use id="zoomplus" xlink:href="#zoomPlus" x="17" y="9" onmousedown="handleZoom(evt,'in')"/>
                <use id="zoomminus" xlink:href="#zoomMin" x="42" y="9" onmousedown="handleZoom(evt,'out')"/>
                <use id="reset" xlink:href="#resetDef" x="30" y="36" onmousedown="handleReset()"/>
                <g id="arrowUp" xlink:href="#dirArrow" transform="translate(30 24)" onmousedown="handlePan(0,-1)">
                  <use xlink:href="#rim" fill="#404040">
                        <set attributeName="fill" to="#808080" begin="arrowUp.mouseover" end="arrowUp.mouseout"/>
                  </use>
                  <path fill="none" stroke="white" stroke-width="1.5" d="M0,-3.0v7 M-2.5,-0.5L0,-3.0L2.5,-0.5"/>
                </g>
                <g id="arrowRight" xlink:href="#dirArrow" transform="rotate(90) translate(36 -43)" onmousedown="handlePan(1,0)">
                  <use xlink:href="#rim" fill="#404040">
                        <set attributeName="fill" to="#808080" begin="arrowRight.mouseover" end="arrowRight.mouseout"/>
                  </use>
                  <path fill="none" stroke="white" stroke-width="1.5" d="M0,-3.0v7 M-2.5,-0.5L0,-3.0L2.5,-0.5"/>
                </g>
                <g id="arrowDown" xlink:href="#dirArrow" transform="rotate(180) translate(-30 -48)" onmousedown="handlePan(0,1)">
                  <use xlink:href="#rim" fill="#404040">
                        <set attributeName="fill" to="#808080" begin="arrowDown.mouseover" end="arrowDown.mouseout"/>
                  </use>
                  <path fill="none" stroke="white" stroke-width="1.5" d="M0,-3.0v7 M-2.5,-0.5L0,-3.0L2.5,-0.5"/>
                </g>
                <g id="arrowLeft" xlink:href="#dirArrow" transform="rotate(270) translate(-36 17)" onmousedown="handlePan(-1,0)">
                  <use xlink:href="#rim" fill="#404040">
                        <set attributeName="fill" to="#808080" begin="arrowLeft.mouseover" end="arrowLeft.mouseout"/>
                  </use>
                  <path fill="none" stroke="white" stroke-width="1.5" d="M0,-3.0v7 M-2.5,-0.5L0,-3.0L2.5,-0.5"/>
                </g>
        </g>
        <svg viewBox="0 0 15 15" width="100%" height="30px" preserveAspectRatio="xMaxYMin meet">
         <g id="arrow_out" transform="scale(0.3 0.3)">
          <a xlink:href="classactor_1_1_turtle_aef4e04d5061408a3d5c35eb27cc7f96f_icgraph_org.svg" target="_base">
           <rect id="button" ry="5" rx="5" y="6" x="6" height="38" width="38"
                fill="#f2f5e9" fill-opacity="0.5" stroke="#606060" stroke-width="1.0"/>
           <path id="arrow"
             d="M 11.500037,31.436501 C 11.940474,20.09759 22.043105,11.32322 32.158766,21.979434 L 37.068811,17.246167 C 37.068811,17.246167 37.088388,32 37.088388,32 L 22.160133,31.978069 C 22.160133,31.978069 26.997745,27.140456 26.997745,27.140456 C 18.528582,18.264221 13.291696,25.230495 11.500037,31.436501 z"
             style="fill:#404040;"/>
          </a>
         </g>
        </svg>
</svg>
