<?xml version="1.0" encoding="UTF-8" standalone="no"?>
<!DOCTYPE svg PUBLIC "-//W3C//DTD SVG 1.1//EN"
 "http://www.w3.org/Graphics/SVG/1.1/DTD/svg11.dtd">
<!-- Generated by graphviz version 2.36.0 (20140111.2315)
 -->
<!-- Title: actor.Turtle.getShape Pages: 1 -->
<svg width="372pt" height="77pt"
 viewBox="0.00 0.00 372.00 77.00" xmlns="http://www.w3.org/2000/svg" xmlns:xlink="http://www.w3.org/1999/xlink">
<g id="graph0" class="graph" transform="scale(1 1) rotate(0) translate(4 73)">
<title>actor.Turtle.getShape</title>
<polygon fill="white" stroke="none" points="-4,4 -4,-73 368,-73 368,4 -4,4"/>
<!-- Node1 -->
<g id="node1" class="node"><title>Node1</title>
<polygon fill="#bfbfbf" stroke="black" points="0.5,-27.5 0.5,-46.5 119.5,-46.5 119.5,-27.5 0.5,-27.5"/>
<text text-anchor="middle" x="60" y="-34.5" font-family="Helvetica,sans-Serif" font-size="10.00">actor.Turtle.getShape</text>
</g>
<!-- Node2 -->
<g id="node2" class="node"><title>Node2</title>
<g id="a_node2"><a xlink:href="../../db/d85/classcommand_1_1_get_shape_command.html#a74f58db39f10f7d34019ebdd21c4810e" target="_top" xlink:title="command.GetShapeCommand.execute">
<polygon fill="white" stroke="black" points="156,-49.5 156,-68.5 364,-68.5 364,-49.5 156,-49.5"/>
<text text-anchor="middle" x="260" y="-56.5" font-family="Helvetica,sans-Serif" font-size="10.00">command.GetShapeCommand.execute</text>
</a>
</g>
</g>
<!-- Node1&#45;&gt;Node2 -->
<g id="edge1" class="edge"><title>Node1&#45;&gt;Node2</title>
<path fill="none" stroke="midnightblue" d="M129.689,-44.6322C143.788,-46.1986 158.793,-47.8659 173.403,-49.4892"/>
<polygon fill="midnightblue" stroke="midnightblue" points="129.928,-41.1372 119.603,-43.5114 129.155,-48.0944 129.928,-41.1372"/>
</g>
<!-- Node3 -->
<g id="node3" class="node"><title>Node3</title>
<g id="a_node3"><a xlink:href="../../d4/d44/classproperties_1_1_turtle_properties.html#a857cd58011c3d71d747d248d83349255" target="_top" xlink:title="properties.TurtleProperties.\lTurtleProperties">
<polygon fill="white" stroke="black" points="187,-0 187,-30 333,-30 333,-0 187,-0"/>
<text text-anchor="start" x="195" y="-18" font-family="Helvetica,sans-Serif" font-size="10.00">properties.TurtleProperties.</text>
<text text-anchor="middle" x="260" y="-7" font-family="Helvetica,sans-Serif" font-size="10.00">TurtleProperties</text>
</a>
</g>
</g>
<!-- Node1&#45;&gt;Node3 -->
<g id="edge2" class="edge"><title>Node1&#45;&gt;Node3</title>
<path fill="none" stroke="midnightblue" d="M129.689,-29.3678C148.168,-27.3147 168.205,-25.0883 186.865,-23.015"/>
<polygon fill="midnightblue" stroke="midnightblue" points="129.155,-25.9056 119.603,-30.4886 129.928,-32.8628 129.155,-25.9056"/>
</g>
</g>
</svg>
