<?xml version="1.0" encoding="UTF-8" standalone="no"?>
<!DOCTYPE svg PUBLIC "-//W3C//DTD SVG 1.1//EN"
 "http://www.w3.org/Graphics/SVG/1.1/DTD/svg11.dtd">
<!-- Generated by graphviz version 2.36.0 (20140111.2315)
 -->
<!-- Title: actor.Turtle.isShowing Pages: 1 -->
<svg width="392pt" height="77pt"
 viewBox="0.00 0.00 392.00 77.00" xmlns="http://www.w3.org/2000/svg" xmlns:xlink="http://www.w3.org/1999/xlink">
<g id="graph0" class="graph" transform="scale(1 1) rotate(0) translate(4 73)">
<title>actor.Turtle.isShowing</title>
<polygon fill="white" stroke="none" points="-4,4 -4,-73 388,-73 388,4 -4,4"/>
<!-- Node1 -->
<g id="node1" class="node"><title>Node1</title>
<polygon fill="#bfbfbf" stroke="black" points="0.5,-27.5 0.5,-46.5 119.5,-46.5 119.5,-27.5 0.5,-27.5"/>
<text text-anchor="middle" x="60" y="-34.5" font-family="Helvetica,sans-Serif" font-size="10.00">actor.Turtle.isShowing</text>
</g>
<!-- Node2 -->
<g id="node2" class="node"><title>Node2</title>
<g id="a_node2"><a xlink:href="../../d2/d65/classcommand_1_1_showing_query_command.html#a74e2badb80bd4c7abc1f24374ea9eef7" target="_top" xlink:title="command.ShowingQueryCommand.execute">
<polygon fill="white" stroke="black" points="156,-49.5 156,-68.5 384,-68.5 384,-49.5 156,-49.5"/>
<text text-anchor="middle" x="270" y="-56.5" font-family="Helvetica,sans-Serif" font-size="10.00">command.ShowingQueryCommand.execute</text>
</a>
</g>
</g>
<!-- Node1&#45;&gt;Node2 -->
<g id="edge1" class="edge"><title>Node1&#45;&gt;Node2</title>
<path fill="none" stroke="midnightblue" d="M129.888,-44.2862C145.575,-45.9454 162.47,-47.7324 178.893,-49.4695"/>
<polygon fill="midnightblue" stroke="midnightblue" points="130.083,-40.7874 119.77,-43.2161 129.347,-47.7486 130.083,-40.7874"/>
</g>
<!-- Node3 -->
<g id="node3" class="node"><title>Node3</title>
<g id="a_node3"><a xlink:href="../../d4/d44/classproperties_1_1_turtle_properties.html#a857cd58011c3d71d747d248d83349255" target="_top" xlink:title="properties.TurtleProperties.\lTurtleProperties">
<polygon fill="white" stroke="black" points="197,-0 197,-30 343,-30 343,-0 197,-0"/>
<text text-anchor="start" x="205" y="-18" font-family="Helvetica,sans-Serif" font-size="10.00">properties.TurtleProperties.</text>
<text text-anchor="middle" x="270" y="-7" font-family="Helvetica,sans-Serif" font-size="10.00">TurtleProperties</text>
</a>
</g>
</g>
<!-- Node1&#45;&gt;Node3 -->
<g id="edge2" class="edge"><title>Node1&#45;&gt;Node3</title>
<path fill="none" stroke="midnightblue" d="M129.781,-29.7251C151.246,-27.4548 174.98,-24.9444 196.68,-22.6492"/>
<polygon fill="midnightblue" stroke="midnightblue" points="129.347,-26.2514 119.77,-30.7839 130.083,-33.2126 129.347,-26.2514"/>
</g>
</g>
</svg>
