<?xml version="1.0" encoding="UTF-8" standalone="no"?>
<!DOCTYPE svg PUBLIC "-//W3C//DTD SVG 1.1//EN"
 "http://www.w3.org/Graphics/SVG/1.1/DTD/svg11.dtd">
<!-- Generated by graphviz version 2.36.0 (20140111.2315)
 -->
<!-- Title: command.GetPenColorCommand.execute Pages: 1 -->
<svg width="396pt" height="66pt"
 viewBox="0.00 0.00 396.00 66.00" xmlns="http://www.w3.org/2000/svg" xmlns:xlink="http://www.w3.org/1999/xlink">
<g id="graph0" class="graph" transform="scale(1 1) rotate(0) translate(4 62)">
<title>command.GetPenColorCommand.execute</title>
<polygon fill="white" stroke="none" points="-4,4 -4,-62 392,-62 392,4 -4,4"/>
<!-- Node1 -->
<g id="node1" class="node"><title>Node1</title>
<polygon fill="#bfbfbf" stroke="black" points="0,-19.5 0,-38.5 220,-38.5 220,-19.5 0,-19.5"/>
<text text-anchor="middle" x="110" y="-26.5" font-family="Helvetica,sans-Serif" font-size="10.00">command.GetPenColorCommand.execute</text>
</g>
<!-- Node2 -->
<g id="node2" class="node"><title>Node2</title>
<g id="a_node2"><a xlink:href="../../da/d85/classactor_1_1_pen.html#aafee390410894877f7eda8b67ea07920" target="_top" xlink:title="actor.Pen.getColorIndex">
<polygon fill="white" stroke="black" points="256.5,-38.5 256.5,-57.5 387.5,-57.5 387.5,-38.5 256.5,-38.5"/>
<text text-anchor="middle" x="322" y="-45.5" font-family="Helvetica,sans-Serif" font-size="10.00">actor.Pen.getColorIndex</text>
</a>
</g>
</g>
<!-- Node1&#45;&gt;Node2 -->
<g id="edge1" class="edge"><title>Node1&#45;&gt;Node2</title>
<path fill="none" stroke="midnightblue" d="M216.308,-38.5278C226.485,-39.4487 236.66,-40.3692 246.447,-41.2547"/>
<polygon fill="midnightblue" stroke="midnightblue" points="246.216,-44.7481 256.491,-42.1635 246.847,-37.7765 246.216,-44.7481"/>
</g>
<!-- Node3 -->
<g id="node3" class="node"><title>Node3</title>
<g id="a_node3"><a xlink:href="../../d4/d4a/classactor_1_1_turtle.html#ae431de4e8d24c665f1f49ea5bd77ca09" target="_top" xlink:title="actor.Turtle.getPen">
<polygon fill="white" stroke="black" points="269,-0.5 269,-19.5 375,-19.5 375,-0.5 269,-0.5"/>
<text text-anchor="middle" x="322" y="-7.5" font-family="Helvetica,sans-Serif" font-size="10.00">actor.Turtle.getPen</text>
</a>
</g>
</g>
<!-- Node1&#45;&gt;Node3 -->
<g id="edge2" class="edge"><title>Node1&#45;&gt;Node3</title>
<path fill="none" stroke="midnightblue" d="M216.308,-19.4722C230.905,-18.1514 245.495,-16.8314 258.948,-15.6142"/>
<polygon fill="midnightblue" stroke="midnightblue" points="259.352,-19.0921 268.996,-14.7052 258.721,-12.1206 259.352,-19.0921"/>
</g>
</g>
</svg>
