<?xml version="1.0" encoding="UTF-8" standalone="no"?>
<!DOCTYPE svg PUBLIC "-//W3C//DTD SVG 1.1//EN"
 "http://www.w3.org/Graphics/SVG/1.1/DTD/svg11.dtd">
<!-- Generated by graphviz version 2.36.0 (20140111.2315)
 -->
<!-- Title: command.TellCommand.execute Pages: 1 -->
<svg width="828pt" height="172pt"
 viewBox="0.00 0.00 828.00 172.00" xmlns="http://www.w3.org/2000/svg" xmlns:xlink="http://www.w3.org/1999/xlink">
<g id="graph0" class="graph" transform="scale(1 1) rotate(0) translate(4 168)">
<title>command.TellCommand.execute</title>
<polygon fill="white" stroke="none" points="-4,4 -4,-168 824,-168 824,4 -4,4"/>
<!-- Node1 -->
<g id="node1" class="node"><title>Node1</title>
<polygon fill="#bfbfbf" stroke="black" points="0,-90.5 0,-109.5 174,-109.5 174,-90.5 0,-90.5"/>
<text text-anchor="middle" x="87" y="-97.5" font-family="Helvetica,sans-Serif" font-size="10.00">command.TellCommand.execute</text>
</g>
<!-- Node2 -->
<g id="node2" class="node"><title>Node2</title>
<g id="a_node2"><a xlink:href="../../d7/d29/classcommand_1_1_basic_list_command.html#ae4c4456d483b7dd5f6e88dfb7dace4c1" target="_top" xlink:title="command.BasicListCommand.check\lListException">
<polygon fill="white" stroke="black" points="219.5,-134 219.5,-164 410.5,-164 410.5,-134 219.5,-134"/>
<text text-anchor="start" x="227.5" y="-152" font-family="Helvetica,sans-Serif" font-size="10.00">command.BasicListCommand.check</text>
<text text-anchor="middle" x="315" y="-141" font-family="Helvetica,sans-Serif" font-size="10.00">ListException</text>
</a>
</g>
</g>
<!-- Node1&#45;&gt;Node2 -->
<g id="edge1" class="edge"><title>Node1&#45;&gt;Node2</title>
<path fill="none" stroke="midnightblue" d="M131.843,-109.506C160.934,-115.813 199.961,-124.275 234.428,-131.748"/>
<polygon fill="midnightblue" stroke="midnightblue" points="233.973,-135.23 244.488,-133.929 235.456,-128.389 233.973,-135.23"/>
</g>
<!-- Node4 -->
<g id="node4" class="node"><title>Node4</title>
<g id="a_node4"><a xlink:href="../../db/d0a/classcommand_1_1_base_multi_turtle_command.html#af7226b2d0e5eaaa0ae16ec02c67dccf7" target="_top" xlink:title="command.BaseMultiTurtleCommand.get\lIdsList">
<polygon fill="white" stroke="black" points="210.5,-85 210.5,-115 419.5,-115 419.5,-85 210.5,-85"/>
<text text-anchor="start" x="218.5" y="-103" font-family="Helvetica,sans-Serif" font-size="10.00">command.BaseMultiTurtleCommand.get</text>
<text text-anchor="middle" x="315" y="-92" font-family="Helvetica,sans-Serif" font-size="10.00">IdsList</text>
</a>
</g>
</g>
<!-- Node1&#45;&gt;Node4 -->
<g id="edge3" class="edge"><title>Node1&#45;&gt;Node4</title>
<path fill="none" stroke="midnightblue" d="M174.086,-100C182.603,-100 191.337,-100 200.079,-100"/>
<polygon fill="midnightblue" stroke="midnightblue" points="200.331,-103.5 210.331,-100 200.331,-96.5001 200.331,-103.5"/>
</g>
<!-- Node6 -->
<g id="node6" class="node"><title>Node6</title>
<g id="a_node6"><a xlink:href="../../db/d0a/classcommand_1_1_base_multi_turtle_command.html#a18475dfa4cad362fd566082a1cba7f59" target="_top" xlink:title="command.BaseMultiTurtleCommand.tell">
<polygon fill="white" stroke="black" points="211,-44.5 211,-63.5 419,-63.5 419,-44.5 211,-44.5"/>
<text text-anchor="middle" x="315" y="-51.5" font-family="Helvetica,sans-Serif" font-size="10.00">command.BaseMultiTurtleCommand.tell</text>
</a>
</g>
</g>
<!-- Node1&#45;&gt;Node6 -->
<g id="edge5" class="edge"><title>Node1&#45;&gt;Node6</title>
<path fill="none" stroke="midnightblue" d="M134.339,-90.4716C157.126,-85.7945 185,-80.0856 210,-75 225.033,-71.9421 241.291,-68.6513 256.386,-65.6028"/>
<polygon fill="midnightblue" stroke="midnightblue" points="257.512,-68.9462 266.622,-63.5368 256.127,-62.0846 257.512,-68.9462"/>
</g>
<!-- Node3 -->
<g id="node3" class="node"><title>Node3</title>
<g id="a_node3"><a xlink:href="../../d7/d35/classcommand_1_1_command.html#ac2df873d4926bc6e08dba8c6272cff7e" target="_top" xlink:title="command.Command.toString">
<polygon fill="white" stroke="black" points="466,-139.5 466,-158.5 626,-158.5 626,-139.5 466,-139.5"/>
<text text-anchor="middle" x="546" y="-146.5" font-family="Helvetica,sans-Serif" font-size="10.00">command.Command.toString</text>
</a>
</g>
</g>
<!-- Node2&#45;&gt;Node3 -->
<g id="edge2" class="edge"><title>Node2&#45;&gt;Node3</title>
<path fill="none" stroke="midnightblue" d="M410.796,-149C425.692,-149 441.047,-149 455.811,-149"/>
<polygon fill="midnightblue" stroke="midnightblue" points="455.925,-152.5 465.925,-149 455.925,-145.5 455.925,-152.5"/>
</g>
<!-- Node5 -->
<g id="node5" class="node"><title>Node5</title>
<g id="a_node5"><a xlink:href="../../d7/d29/classcommand_1_1_basic_list_command.html#a36b32271a84890af875a576eaf608aa3" target="_top" xlink:title="command.BasicListCommand.get\lBracketIndex">
<polygon fill="white" stroke="black" points="456.5,-88 456.5,-118 635.5,-118 635.5,-88 456.5,-88"/>
<text text-anchor="start" x="464.5" y="-106" font-family="Helvetica,sans-Serif" font-size="10.00">command.BasicListCommand.get</text>
<text text-anchor="middle" x="546" y="-95" font-family="Helvetica,sans-Serif" font-size="10.00">BracketIndex</text>
</a>
</g>
</g>
<!-- Node4&#45;&gt;Node5 -->
<g id="edge4" class="edge"><title>Node4&#45;&gt;Node5</title>
<path fill="none" stroke="midnightblue" d="M419.78,-101.36C428.541,-101.474 437.386,-101.59 446.108,-101.704"/>
<polygon fill="midnightblue" stroke="midnightblue" points="446.233,-105.206 456.278,-101.838 446.325,-98.2069 446.233,-105.206"/>
</g>
<!-- Node7 -->
<g id="node7" class="node"><title>Node7</title>
<g id="a_node7"><a xlink:href="../../de/d19/classworkspace_1_1_workspace.html#aecaf73d3c2b2008aac032adc4a4f759f" target="_top" xlink:title="workspace.Workspace.create\lTurtle">
<polygon fill="white" stroke="black" points="468.5,-39 468.5,-69 623.5,-69 623.5,-39 468.5,-39"/>
<text text-anchor="start" x="476.5" y="-57" font-family="Helvetica,sans-Serif" font-size="10.00">workspace.Workspace.create</text>
<text text-anchor="middle" x="546" y="-46" font-family="Helvetica,sans-Serif" font-size="10.00">Turtle</text>
</a>
</g>
</g>
<!-- Node6&#45;&gt;Node7 -->
<g id="edge6" class="edge"><title>Node6&#45;&gt;Node7</title>
<path fill="none" stroke="midnightblue" d="M419.111,-54C432.132,-54 445.351,-54 458.086,-54"/>
<polygon fill="midnightblue" stroke="midnightblue" points="458.183,-57.5001 468.183,-54 458.183,-50.5001 458.183,-57.5001"/>
</g>
<!-- Node9 -->
<g id="node9" class="node"><title>Node9</title>
<g id="a_node9"><a xlink:href="../../de/d19/classworkspace_1_1_workspace.html#aaea1cb2eb261be3e966bb85bc2bfbd51" target="_top" xlink:title="workspace.Workspace.getTurtles">
<polygon fill="white" stroke="black" points="461,-0.5 461,-19.5 631,-19.5 631,-0.5 461,-0.5"/>
<text text-anchor="middle" x="546" y="-7.5" font-family="Helvetica,sans-Serif" font-size="10.00">workspace.Workspace.getTurtles</text>
</a>
</g>
</g>
<!-- Node6&#45;&gt;Node9 -->
<g id="edge8" class="edge"><title>Node6&#45;&gt;Node9</title>
<path fill="none" stroke="midnightblue" d="M365.69,-44.4527C400.8,-37.7066 448.032,-28.6313 485.207,-21.4886"/>
<polygon fill="midnightblue" stroke="midnightblue" points="486.247,-24.8528 495.407,-19.5287 484.927,-17.9785 486.247,-24.8528"/>
</g>
<!-- Node8 -->
<g id="node8" class="node"><title>Node8</title>
<g id="a_node8"><a xlink:href="../../d4/d4a/classactor_1_1_turtle.html#aef4e04d5061408a3d5c35eb27cc7f96f" target="_top" xlink:title="actor.Turtle.setChangedand\lNotify">
<polygon fill="white" stroke="black" points="672,-39 672,-69 820,-69 820,-39 672,-39"/>
<text text-anchor="start" x="680" y="-57" font-family="Helvetica,sans-Serif" font-size="10.00">actor.Turtle.setChangedand</text>
<text text-anchor="middle" x="746" y="-46" font-family="Helvetica,sans-Serif" font-size="10.00">Notify</text>
</a>
</g>
</g>
<!-- Node7&#45;&gt;Node8 -->
<g id="edge7" class="edge"><title>Node7&#45;&gt;Node8</title>
<path fill="none" stroke="midnightblue" d="M623.552,-54C636.089,-54 649.132,-54 661.82,-54"/>
<polygon fill="midnightblue" stroke="midnightblue" points="661.903,-57.5001 671.903,-54 661.903,-50.5001 661.903,-57.5001"/>
</g>
</g>
</svg>
