<?xml version="1.0" encoding="UTF-8" standalone="no"?>
<!DOCTYPE svg PUBLIC "-//W3C//DTD SVG 1.1//EN"
 "http://www.w3.org/Graphics/SVG/1.1/DTD/svg11.dtd">
<!-- Generated by graphviz version 2.36.0 (20140111.2315)
 -->
<!-- Title: components.BottomPane.updateButton Pages: 1 -->
<svg width="926pt" height="102pt"
 viewBox="0.00 0.00 926.00 102.26" xmlns="http://www.w3.org/2000/svg" xmlns:xlink="http://www.w3.org/1999/xlink">
<g id="graph0" class="graph" transform="scale(1 1) rotate(0) translate(4 98.2605)">
<title>components.BottomPane.updateButton</title>
<polygon fill="white" stroke="none" points="-4,4 -4,-98.2605 922,-98.2605 922,4 -4,4"/>
<!-- Node1 -->
<g id="node1" class="node"><title>Node1</title>
<polygon fill="#bfbfbf" stroke="black" points="0,-49 0,-79 176,-79 176,-49 0,-49"/>
<text text-anchor="start" x="8" y="-67" font-family="Helvetica,sans-Serif" font-size="10.00">components.BottomPane.update</text>
<text text-anchor="middle" x="88" y="-56" font-family="Helvetica,sans-Serif" font-size="10.00">Button</text>
</g>
<!-- Node2 -->
<g id="node2" class="node"><title>Node2</title>
<g id="a_node2"><a xlink:href="../../d3/de0/classmain_application_1_1_g_u_i.html#a5b9d9bebac3a8ce813b0134ecdafc66d" target="_top" xlink:title="mainApplication.GUI.load\lPanes">
<polygon fill="white" stroke="black" points="212.5,-49 212.5,-79 349.5,-79 349.5,-49 212.5,-49"/>
<text text-anchor="start" x="220.5" y="-67" font-family="Helvetica,sans-Serif" font-size="10.00">mainApplication.GUI.load</text>
<text text-anchor="middle" x="281" y="-56" font-family="Helvetica,sans-Serif" font-size="10.00">Panes</text>
</a>
</g>
</g>
<!-- Node1&#45;&gt;Node2 -->
<g id="edge1" class="edge"><title>Node1&#45;&gt;Node2</title>
<path fill="none" stroke="midnightblue" d="M186.149,-64C195.042,-64 203.916,-64 212.463,-64"/>
<polygon fill="midnightblue" stroke="midnightblue" points="186.116,-60.5001 176.116,-64 186.116,-67.5001 186.116,-60.5001"/>
</g>
<!-- Node3 -->
<g id="node3" class="node"><title>Node3</title>
<g id="a_node3"><a xlink:href="../../d3/de0/classmain_application_1_1_g_u_i.html#af6bd387013dbd1d1daf030117da66c0e" target="_top" xlink:title="mainApplication.GUI.initiate">
<polygon fill="white" stroke="black" points="386.5,-54.5 386.5,-73.5 535.5,-73.5 535.5,-54.5 386.5,-54.5"/>
<text text-anchor="middle" x="461" y="-61.5" font-family="Helvetica,sans-Serif" font-size="10.00">mainApplication.GUI.initiate</text>
</a>
</g>
</g>
<!-- Node2&#45;&gt;Node3 -->
<g id="edge2" class="edge"><title>Node2&#45;&gt;Node3</title>
<path fill="none" stroke="midnightblue" d="M359.782,-64C368.576,-64 377.518,-64 386.258,-64"/>
<polygon fill="midnightblue" stroke="midnightblue" points="359.548,-60.5001 349.548,-64 359.548,-67.5001 359.548,-60.5001"/>
</g>
<!-- Node4 -->
<g id="node4" class="node"><title>Node4</title>
<g id="a_node4"><a xlink:href="../../d3/d04/classmain_application_1_1_g_u_i_shell.html#ac525a3e483dbe24e5f9f0257fe54521d" target="_top" xlink:title="mainApplication.GUIShell.\lGUIShell">
<polygon fill="white" stroke="black" points="778,-49 778,-79 918,-79 918,-49 778,-49"/>
<text text-anchor="start" x="786" y="-67" font-family="Helvetica,sans-Serif" font-size="10.00">mainApplication.GUIShell.</text>
<text text-anchor="middle" x="848" y="-56" font-family="Helvetica,sans-Serif" font-size="10.00">GUIShell</text>
</a>
</g>
</g>
<!-- Node3&#45;&gt;Node4 -->
<g id="edge3" class="edge"><title>Node3&#45;&gt;Node4</title>
<path fill="none" stroke="midnightblue" d="M506.835,-76.0673C526.648,-80.8049 550.321,-85.6625 572,-88 647.12,-96.0997 666.921,-96.4712 742,-88 758.352,-86.155 775.869,-82.7425 791.818,-79.0582"/>
<polygon fill="midnightblue" stroke="midnightblue" points="507.404,-72.603 496.858,-73.6148 505.733,-79.4007 507.404,-72.603"/>
</g>
<!-- Node5 -->
<g id="node5" class="node"><title>Node5</title>
<g id="a_node5"><a xlink:href="../../d3/d04/classmain_application_1_1_g_u_i_shell.html#a9df214dfffdce7a39bc6ac5e84ca1f0f" target="_top" xlink:title="mainApplication.GUIShell.create\lNewButton">
<polygon fill="white" stroke="black" points="572,-49 572,-79 742,-79 742,-49 572,-49"/>
<text text-anchor="start" x="580" y="-67" font-family="Helvetica,sans-Serif" font-size="10.00">mainApplication.GUIShell.create</text>
<text text-anchor="middle" x="657" y="-56" font-family="Helvetica,sans-Serif" font-size="10.00">NewButton</text>
</a>
</g>
</g>
<!-- Node3&#45;&gt;Node5 -->
<g id="edge4" class="edge"><title>Node3&#45;&gt;Node5</title>
<path fill="none" stroke="midnightblue" d="M545.668,-64C554.298,-64 563.071,-64 571.708,-64"/>
<polygon fill="midnightblue" stroke="midnightblue" points="545.62,-60.5001 535.62,-64 545.62,-67.5001 545.62,-60.5001"/>
</g>
<!-- Node6 -->
<g id="node6" class="node"><title>Node6</title>
<g id="a_node6"><a xlink:href="../../d3/d04/classmain_application_1_1_g_u_i_shell.html#af2f106fa7786f13ccc0202db53b559b9" target="_top" xlink:title="mainApplication.GUIShell.create\lOpenButton">
<polygon fill="white" stroke="black" points="572,-0 572,-30 742,-30 742,-0 572,-0"/>
<text text-anchor="start" x="580" y="-18" font-family="Helvetica,sans-Serif" font-size="10.00">mainApplication.GUIShell.create</text>
<text text-anchor="middle" x="657" y="-7" font-family="Helvetica,sans-Serif" font-size="10.00">OpenButton</text>
</a>
</g>
</g>
<!-- Node3&#45;&gt;Node6 -->
<g id="edge6" class="edge"><title>Node3&#45;&gt;Node6</title>
<path fill="none" stroke="midnightblue" d="M509.566,-51.9858C535.779,-45.365 568.566,-37.0839 596.466,-30.037"/>
<polygon fill="midnightblue" stroke="midnightblue" points="508.704,-48.5936 499.866,-54.436 510.418,-55.3805 508.704,-48.5936"/>
</g>
<!-- Node5&#45;&gt;Node4 -->
<g id="edge5" class="edge"><title>Node5&#45;&gt;Node4</title>
<path fill="none" stroke="midnightblue" d="M752.359,-64C760.965,-64 769.572,-64 777.896,-64"/>
<polygon fill="midnightblue" stroke="midnightblue" points="752.274,-60.5001 742.274,-64 752.274,-67.5001 752.274,-60.5001"/>
</g>
<!-- Node6&#45;&gt;Node4 -->
<g id="edge7" class="edge"><title>Node6&#45;&gt;Node4</title>
<path fill="none" stroke="midnightblue" d="M725.692,-32.5498C746.447,-37.9306 769.082,-43.799 789.119,-48.9938"/>
<polygon fill="midnightblue" stroke="midnightblue" points="726.549,-29.1563 715.991,-30.0346 724.792,-35.9323 726.549,-29.1563"/>
</g>
</g>
</svg>
